<svg width="60" height="60" viewBox="0 0 60 60" fill="none" xmlns="http://www.w3.org/2000/svg">
<g clip-path="url(#clip0)">
<path d="M48.3878 11.6134C51.5901 11.6134 54.1942 9.0088 54.1942 5.80694C54.1942 2.6046 51.5901 0.000488281 48.3878 0.000488281C45.1854 0.000488281 42.5813 2.6046 42.5813 5.80694C42.5813 9.0088 45.1854 11.6134 48.3878 11.6134ZM48.3878 1.93597C50.5226 1.93597 52.2587 3.67205 52.2587 5.80694C52.2587 7.94136 50.5226 9.67791 48.3878 9.67791C46.2529 9.67791 44.5168 7.94136 44.5168 5.80694C44.5168 3.67205 46.2529 1.93597 48.3878 1.93597Z" fill="white"/>
<path d="M58.0579 17.3064C58.0329 17.0895 57.9351 16.8882 57.7815 16.7355L54.8783 13.8323C54.6973 13.6504 54.4502 13.5488 54.1941 13.5488H42.5813C42.3247 13.5488 42.078 13.6504 41.8971 13.8323L38.9939 16.7355C38.8398 16.8891 38.742 17.0904 38.717 17.3064L36.7815 33.7578C36.7494 34.0328 36.8358 34.3074 37.0196 34.5134C37.2025 34.7208 37.4657 34.839 37.7426 34.839H42.4631L39.6837 58.9208C39.6526 59.1948 39.739 59.4694 39.9228 59.6759C40.1067 59.8819 40.3698 60 40.6458 60H46.4522C46.9554 60 47.3741 59.6149 47.4171 59.1126L48.3877 47.4601L49.3582 59.1136C49.4008 59.6149 49.8199 60 50.3231 60H56.1295C56.405 60 56.6682 59.8819 56.8525 59.6768C57.0363 59.4713 57.1223 59.1958 57.0911 58.9217L54.3122 34.839H59.0327C59.3092 34.839 59.5728 34.7208 59.7557 34.5148C59.9395 34.3083 60.0255 34.0328 59.9934 33.7588L58.0579 17.3064ZM54.1941 32.9035V19.3552H52.2586V33.8712C52.2586 33.9076 52.2605 33.9454 52.2643 33.9823L55.0437 58.0646H51.2134L49.3526 35.7264C49.3096 35.2241 48.8909 34.839 48.3877 34.839C47.8844 34.839 47.4653 35.2241 47.4228 35.7264L45.562 58.0646H41.7317L44.5106 33.9823C44.5148 33.9454 44.5167 33.9076 44.5167 33.8712V19.3552H42.5813V32.9035H38.8313L40.6 17.8658L42.982 15.4843H53.7934L56.1749 17.8658L57.944 32.9035H54.1941Z" fill="white"/>
<path d="M33.5881 30.2839L31.6527 28.3485C31.4717 28.1665 31.2246 28.0649 30.9684 28.0649H21.2911C21.0345 28.0649 20.7879 28.1665 20.6069 28.3485L18.6714 30.2839C18.5358 30.4191 18.4442 30.5906 18.4073 30.7782L16.4718 40.4555C16.4147 40.74 16.4884 41.0353 16.6722 41.2588C16.856 41.4833 17.1296 41.6132 17.4202 41.6132H21.2911V42.4685L17.4452 58.8108C17.3777 59.0981 17.4452 59.401 17.629 59.633C17.8129 59.8645 18.0917 60.0001 18.3879 60.0001H23.2266C23.692 60.0001 24.0918 59.6679 24.1778 59.2101L26.1298 48.7994L28.0818 59.2101C28.1678 59.6679 28.5675 60.0001 29.033 60.0001H33.8716C34.1674 60.0001 34.4462 59.8645 34.63 59.633C34.8139 59.401 34.8819 59.0981 34.8139 58.8108L30.9684 42.4685V41.6132H34.8394C35.1295 41.6132 35.4036 41.4833 35.5874 41.2588C35.7712 41.0353 35.8449 40.74 35.7877 40.4555L33.8523 30.7782C33.8154 30.5906 33.7233 30.4191 33.5881 30.2839ZM30.9684 39.6777V32.9036H29.033V42.5809C29.033 42.6551 29.0415 42.7298 29.058 42.8025L32.6492 58.0646H29.8363L27.081 43.3705C26.995 42.9126 26.5952 42.5809 26.1298 42.5809C25.6643 42.5809 25.2646 42.9126 25.1786 43.3705L22.4233 58.0646H19.6099L23.2011 42.8025C23.2176 42.7298 23.2266 42.6551 23.2266 42.5809V32.9036H21.2911V39.6777H18.6006L20.2478 31.4449L21.6918 30.0004H30.5677L32.0127 31.4449L33.6585 39.6777H30.9684Z" fill="white"/>
<path d="M14.0861 42.7435L11.1829 40.8081C11.0246 40.7022 10.8365 40.6455 10.6461 40.6455H4.83967C4.64877 40.6455 4.46118 40.7022 4.30241 40.8081L1.39921 42.7435C1.16484 42.899 1.01127 43.1489 0.975357 43.4287L0.0076247 51.1705C-0.0273421 51.446 0.05913 51.7229 0.242942 51.9308C0.426755 52.1392 0.690897 52.2583 0.968742 52.2583H3.42257L2.90704 58.9578C2.88672 59.2266 2.97839 59.4917 3.16173 59.6892C3.34555 59.8877 3.6026 60.0001 3.87194 60.0001H11.6138C11.8827 60.0001 12.1402 59.8877 12.324 59.6902C12.5069 59.4917 12.6 59.2266 12.5787 58.9587L12.0627 52.2583H14.517C14.7948 52.2583 15.059 52.1392 15.2428 51.9308C15.4266 51.7229 15.5117 51.446 15.4776 51.1705L14.5099 43.4287C14.4745 43.1489 14.3195 42.899 14.0861 42.7435ZM11.9148 50.3228L11.611 46.3772L9.68117 46.5251L10.5686 58.0647H8.7106V52.2583H6.77514V58.0647H4.91717L5.80457 46.5261L3.87477 46.3782L3.57094 50.3228H2.065L2.84231 44.1077L5.13264 42.581H10.3536L12.6444 44.1077L13.4203 50.3228H11.9148Z" fill="white"/>
<path d="M21.291 21.2909C21.291 23.9588 23.4613 26.1296 26.1297 26.1296C28.7976 26.1296 30.9684 23.9588 30.9684 21.2909C30.9684 18.6225 28.7976 16.4521 26.1297 16.4521C23.4613 16.4521 21.291 18.6225 21.291 21.2909ZM29.033 21.2909C29.033 22.8913 27.7302 24.1941 26.1297 24.1941C24.5288 24.1941 23.2265 22.8913 23.2265 21.2909C23.2265 19.6899 24.5288 18.3876 26.1297 18.3876C27.7302 18.3876 29.033 19.6899 29.033 21.2909Z" fill="white"/>
<path d="M3.87183 34.8392C3.87183 36.9736 5.6079 38.7102 7.74279 38.7102C9.87769 38.7102 11.6138 36.9736 11.6138 34.8392C11.6138 32.7043 9.87769 30.9683 7.74279 30.9683C5.6079 30.9683 3.87183 32.7043 3.87183 34.8392ZM9.67828 34.8392C9.67828 35.9067 8.81024 36.7747 7.74279 36.7747C6.67535 36.7747 5.80731 35.9067 5.80731 34.8392C5.80731 33.7718 6.67535 32.9037 7.74279 32.9037C8.81024 32.9037 9.67828 33.7718 9.67828 34.8392Z" fill="white"/>
<path d="M23.9107 7.05813C23.5322 6.67964 22.9208 6.67964 22.5423 7.05813L0.284424 29.316L1.65286 30.6844L23.2265 9.11031L25.4455 11.3298C25.7224 11.6062 26.1372 11.6884 26.5001 11.5396C26.8612 11.3898 27.0974 11.0363 27.0974 10.6455V0.968221C27.0974 0.433794 26.6636 0.000488281 26.1297 0.000488281H16.4524C16.0611 0.000488281 15.7081 0.236279 15.5579 0.597288C15.4081 0.959243 15.4912 1.37554 15.7681 1.65244L17.9871 3.87142L0.284424 21.5741L1.65286 22.9426L20.0398 4.55564C20.4178 4.17714 20.4178 3.56522 20.0398 3.1872L18.7885 1.93595H25.162V8.30938L23.9107 7.05813Z" fill="white"/>
</g>
<defs>
<clipPath id="clip0">
<rect width="60" height="60" fill="white"/>
</clipPath>
</defs>
</svg>
