<svg width="60" height="60" viewBox="0 0 60 60" fill="none" xmlns="http://www.w3.org/2000/svg">
<path d="M2.8125 56.25V57.1875C2.8125 57.4361 2.91127 57.6746 3.08709 57.8504C3.2629 58.0262 3.50136 58.125 3.75 58.125C3.99864 58.125 4.2371 58.0262 4.41291 57.8504C4.58873 57.6746 4.6875 57.4361 4.6875 57.1875V56.25H5.625V57.1875C5.625 57.4361 5.72377 57.6746 5.89959 57.8504C6.0754 58.0262 6.31386 58.125 6.5625 58.125C6.81114 58.125 7.0496 58.0262 7.22541 57.8504C7.40123 57.6746 7.5 57.4361 7.5 57.1875V56.25H8.4375V57.1875C8.4375 57.4361 8.53627 57.6746 8.71209 57.8504C8.8879 58.0262 9.12636 58.125 9.375 58.125C9.62364 58.125 9.8621 58.0262 10.0379 57.8504C10.2137 57.6746 10.3125 57.4361 10.3125 57.1875V56.25H11.25V57.1875C11.2535 57.4284 11.3496 57.6586 11.5184 57.8305C11.6872 58.0024 11.9156 58.1028 12.1564 58.1108C12.3971 58.1187 12.6317 58.0337 12.8115 57.8734C12.9912 57.713 13.1024 57.4896 13.1218 57.2495C14.2812 57.8264 15.5587 58.1261 16.8537 58.125H41.25C41.4817 58.125 41.7051 58.0392 41.8773 57.8842C42.0494 57.7292 42.1581 57.516 42.1823 57.2856L43.1861 47.7498C43.5037 47.6759 43.8023 47.5362 44.0625 47.3396V56.25C44.0631 56.7471 44.2608 57.2237 44.6123 57.5752C44.9638 57.9267 45.4404 58.1244 45.9375 58.125H54.375C54.8721 58.1244 55.3487 57.9267 55.7002 57.5752C56.0517 57.2237 56.2494 56.7471 56.25 56.25V48.75C56.2515 47.1879 55.7607 45.6651 54.8473 44.3978C53.9339 43.1306 52.6445 42.1834 51.1621 41.6909L50.625 41.5118V38.9062L52.128 37.7789C52.8258 38.8142 53.7782 39.6526 54.8937 40.2135C55.0039 40.2697 55.1242 40.3035 55.2475 40.313C55.3709 40.3225 55.4949 40.3075 55.6124 40.2688C55.73 40.2302 55.8387 40.1686 55.9323 40.0877C56.026 40.0069 56.1027 39.9082 56.158 39.7976C56.2133 39.6869 56.2462 39.5664 56.2548 39.443C56.2633 39.3195 56.2473 39.1956 56.2077 39.0784C56.1682 38.9612 56.1058 38.8529 56.0242 38.7599C55.9426 38.6669 55.8434 38.591 55.7323 38.5365C54.8769 38.1061 54.1516 37.4557 53.631 36.652L53.7504 36.5625H56.25C56.4986 36.5625 56.7371 36.4637 56.9129 36.2879C57.0887 36.1121 57.1875 35.8736 57.1875 35.625V32.8125C57.1875 32.5639 57.0887 32.3254 56.9129 32.1496C56.7371 31.9738 56.4986 31.875 56.25 31.875H44.0625C43.8139 31.875 43.5754 31.9738 43.3996 32.1496C43.2238 32.3254 43.125 32.5639 43.125 32.8125V33.75H41.25V31.4062C41.25 30.0387 40.7068 28.7272 39.7398 27.7602C38.7728 26.7932 37.4613 26.25 36.0938 26.25C34.7262 26.25 33.4147 26.7932 32.4477 27.7602C31.4807 28.7272 30.9375 30.0387 30.9375 31.4062V34.6875H29.0625V27.1875C29.0625 26.9389 28.9637 26.7004 28.7879 26.5246C28.6121 26.3488 28.3736 26.25 28.125 26.25V20.625C28.125 18.2629 27.1867 15.9976 25.5164 14.3273C23.8462 12.6571 21.5808 11.7188 19.2188 11.7188C16.8567 11.7188 14.5913 12.6571 12.9211 14.3273C11.2508 15.9976 10.3125 18.2629 10.3125 20.625V35.6399C9.08533 37.5723 8.43488 39.8146 8.4375 42.1037V46.6154L5.9584 50.7471L2.58516 51.5909C2.38238 51.6415 2.20235 51.7585 2.07368 51.9233C1.94502 52.088 1.87508 52.291 1.875 52.5V55.3125C1.875 55.5611 1.97377 55.7996 2.14959 55.9754C2.3254 56.1512 2.56386 56.25 2.8125 56.25ZM54.375 33.75H55.3125V34.6875H54.375V33.75ZM54.375 48.75V56.25H45.9375V52.5H48.75C48.9986 52.5 49.2371 52.4012 49.4129 52.2254C49.5887 52.0496 49.6875 51.8111 49.6875 51.5625C49.6875 51.3139 49.5887 51.0754 49.4129 50.8996C49.2371 50.7238 48.9986 50.625 48.75 50.625H45.9375V48.75H48.75C48.9986 48.75 49.2371 48.6512 49.4129 48.4754C49.5887 48.2996 49.6875 48.0611 49.6875 47.8125C49.6875 47.5639 49.5887 47.3254 49.4129 47.1496C49.2371 46.9738 48.9986 46.875 48.75 46.875H45.9375V46.8281C46.4666 46.7194 46.9419 46.4316 47.2835 46.0131C47.625 45.5947 47.8119 45.0714 47.8125 44.5312V43.125H49.5352L50.5689 43.4695C51.6778 43.838 52.6423 44.5465 53.3256 45.4944C54.0089 46.4424 54.376 47.5815 54.375 48.75ZM47.8125 41.25V39.375H48.75V41.25H47.8125ZM52.5 33.75V35.1562L49.375 37.5H47.8125V36.3281C47.8117 35.6446 47.5399 34.9893 47.0565 34.506C46.5732 34.0226 45.9179 33.7508 45.2344 33.75H52.5ZM32.8125 31.4062C32.8125 30.536 33.1582 29.7014 33.7736 29.0861C34.3889 28.4707 35.2235 28.125 36.0938 28.125C36.964 28.125 37.7986 28.4707 38.4139 29.0861C39.0293 29.7014 39.375 30.536 39.375 31.4062V33.75H32.8125V31.4062ZM32.8125 35.625H45.2344C45.4208 35.6252 45.5995 35.6993 45.7314 35.8311C45.8632 35.963 45.9373 36.1417 45.9375 36.3281V44.5312C45.9375 44.6556 45.8881 44.7748 45.8002 44.8627C45.7123 44.9506 45.5931 45 45.4688 45C45.3444 45 45.2252 44.9506 45.1373 44.8627C45.0494 44.7748 45 44.6556 45 44.5312V39.9609C45 39.7123 44.9012 39.4738 44.7254 39.298C44.5496 39.1222 44.3111 39.0234 44.0625 39.0234C43.8139 39.0234 43.5754 39.1222 43.3996 39.298C43.2238 39.4738 43.125 39.7123 43.125 39.9609V45.4688C43.125 45.5931 43.0756 45.7123 42.9877 45.8002C42.8998 45.8881 42.7806 45.9375 42.6562 45.9375C42.5319 45.9375 42.4127 45.8881 42.3248 45.8002C42.2369 45.7123 42.1875 45.5931 42.1875 45.4688V39.8438C42.1875 39.5951 42.0887 39.3567 41.9129 39.1808C41.7371 39.005 41.4986 38.9062 41.25 38.9062C41.0014 38.9062 40.7629 39.005 40.5871 39.1808C40.4113 39.3567 40.3125 39.5951 40.3125 39.8438V45.4688C40.3125 45.5931 40.2631 45.7123 40.1752 45.8002C40.0873 45.8881 39.9681 45.9375 39.8438 45.9375C39.7194 45.9375 39.6002 45.8881 39.5123 45.8002C39.4244 45.7123 39.375 45.5931 39.375 45.4688V39.7266C39.375 39.4779 39.2762 39.2395 39.1004 39.0636C38.9246 38.8878 38.6861 38.7891 38.4375 38.7891C38.1889 38.7891 37.9504 38.8878 37.7746 39.0636C37.5988 39.2395 37.5 39.4779 37.5 39.7266V45.4688C37.5 45.5931 37.4506 45.7123 37.3627 45.8002C37.2748 45.8881 37.1556 45.9375 37.0312 45.9375C36.9069 45.9375 36.7877 45.8881 36.6998 45.8002C36.6119 45.7123 36.5625 45.5931 36.5625 45.4688V39.6094C36.5625 39.5814 36.5607 39.5538 36.5583 39.5264C36.561 39.4762 36.5625 39.4257 36.5625 39.375V37.5C36.5625 37.2514 36.4637 37.0129 36.2879 36.8371C36.1121 36.6613 35.8736 36.5625 35.625 36.5625C35.3764 36.5625 35.1379 36.6613 34.9621 36.8371C34.7863 37.0129 34.6875 37.2514 34.6875 37.5V39.375C34.6875 39.6236 34.5887 39.8621 34.4129 40.0379C34.2371 40.2137 33.9986 40.3125 33.75 40.3125C33.5014 40.3125 33.2629 40.2137 33.0871 40.0379C32.9113 39.8621 32.8125 39.6236 32.8125 39.375V35.625ZM29.0625 36.5625H30.9375V38.4375H29.0625V36.5625ZM29.0625 40.3125H31.0988C31.2217 40.6608 31.4121 40.9814 31.6591 41.2561C31.906 41.5307 32.2047 41.754 32.5379 41.9131C32.8712 42.0723 33.2326 42.1642 33.6015 42.1836C33.9703 42.203 34.3393 42.1496 34.6875 42.0262V45.4688C34.6867 45.9043 34.8075 46.3315 35.0363 46.7021C35.2651 47.0727 35.5928 47.3721 35.9826 47.5666C36.3724 47.761 36.8087 47.8427 37.2424 47.8026C37.6761 47.7624 38.09 47.602 38.4375 47.3393C38.842 47.6463 39.3359 47.8125 39.8438 47.8125C40.3516 47.8125 40.8455 47.6463 41.25 47.3393C41.2789 47.3611 41.3071 47.3839 41.3371 47.4045L40.4062 56.25H31.7742C32.5916 55.4519 33.1862 54.4541 33.4993 53.3554C33.8123 52.2567 33.8328 51.0953 33.5588 49.9863C33.2848 48.8772 32.7258 47.859 31.9371 47.0325C31.1484 46.206 30.1575 45.6 29.0625 45.2743V40.3125ZM31.875 51.5625C31.875 52.4896 31.6001 53.3959 31.085 54.1667C30.5699 54.9376 29.8379 55.5384 28.9813 55.8932C28.1248 56.248 27.1823 56.3408 26.273 56.1599C25.3637 55.9791 24.5285 55.5326 23.8729 54.8771C23.2174 54.2215 22.7709 53.3863 22.5901 52.477C22.4092 51.5677 22.502 50.6252 22.8568 49.7687C23.2116 48.9121 23.8124 48.1801 24.5833 47.665C25.3541 47.1499 26.2604 46.875 27.1875 46.875C28.4303 46.8764 29.6217 47.3707 30.5005 48.2495C31.3793 49.1283 31.8736 50.3197 31.875 51.5625ZM27.1875 30H23.4375V28.125H27.1875V30ZM24.375 26.25V24.375H26.25V26.25H24.375ZM26.25 22.5H24.375V20.625H26.25V22.5ZM24.5102 16.0025C25.2048 16.7954 25.712 17.7344 25.9942 18.75H24.0205C23.8421 18.2949 23.5999 17.8674 23.3011 17.4805L24.5102 16.0025ZM19.6875 13.6111C20.9063 13.691 22.0828 14.0891 23.0996 14.7656L21.9052 16.2258C21.2324 15.8132 20.4735 15.5618 19.6875 15.491V13.6111ZM22.5 20.625V26.25C22.2514 26.25 22.0129 26.3488 21.8371 26.5246C21.6613 26.7004 21.5625 26.9389 21.5625 27.1875V30H20.5412C18.9618 29.9985 17.3975 30.3079 15.9375 30.9105V20.625C15.9375 19.7548 16.2832 18.9202 16.8986 18.3048C17.5139 17.6895 18.3485 17.3438 19.2188 17.3438C20.089 17.3438 20.9236 17.6895 21.5389 18.3048C22.1543 18.9202 22.5 19.7548 22.5 20.625ZM17.8125 13.7353V15.6653C17.1272 15.8598 16.4897 16.1944 15.9403 16.648L14.7539 15.1976C15.6384 14.4672 16.6887 13.9651 17.8125 13.7353ZM13.4679 16.587L14.7175 18.1141C14.6029 18.319 14.5025 18.5314 14.417 18.75H12.4433C12.6582 17.9755 13.0048 17.2438 13.4679 16.587ZM12.1875 20.625H14.0625V22.5H12.1875V20.625ZM12.1875 24.375H14.0625V26.25H12.1875V24.375ZM12.1875 28.125H14.0625V30H12.1875V28.125ZM12.1875 31.875H14.0625V31.8843C13.3911 32.3115 12.7631 32.8034 12.1875 33.353V31.875ZM20.5412 31.875H27.1875V41.25H10.3485C10.5656 38.6951 11.7331 36.3146 13.6203 34.5788C15.5075 32.843 17.9771 31.8782 20.5412 31.875ZM10.3125 43.125H27.1875V45C25.8834 44.9991 24.6087 45.3871 23.5262 46.1142C22.4437 46.8414 21.6026 47.8748 21.1103 49.0823C20.618 50.2899 20.4969 51.6168 20.7624 52.8935C21.0279 54.1703 21.6681 55.3389 22.601 56.25H16.8537C15.1194 56.248 13.4568 55.5583 12.2305 54.332C11.0042 53.1057 10.3145 51.4431 10.3125 49.7088V43.125ZM3.75 53.232L6.78984 52.472C6.9093 52.4422 7.02172 52.3891 7.12065 52.3158C7.21958 52.2425 7.30309 52.1504 7.36641 52.0448L8.4552 50.2302C8.54533 51.7114 9.02797 53.1419 9.85359 54.375H3.75V53.232Z" fill="white"/>
<path d="M24.375 51.5625C24.375 52.1188 24.5399 52.6625 24.849 53.125C25.158 53.5876 25.5973 53.948 26.1112 54.1609C26.6251 54.3738 27.1906 54.4295 27.7362 54.321C28.2818 54.2124 28.7829 53.9446 29.1762 53.5512C29.5696 53.1579 29.8374 52.6568 29.946 52.1112C30.0545 51.5656 29.9988 51.0001 29.7859 50.4862C29.573 49.9723 29.2126 49.533 28.75 49.224C28.2875 48.915 27.7438 48.75 27.1875 48.75C26.4418 48.7508 25.727 49.0474 25.1997 49.5747C24.6724 50.102 24.3758 50.8168 24.375 51.5625ZM28.125 51.5625C28.125 51.7479 28.07 51.9292 27.967 52.0833C27.864 52.2375 27.7176 52.3577 27.5463 52.4286C27.375 52.4996 27.1865 52.5182 27.0046 52.482C26.8227 52.4458 26.6557 52.3565 26.5246 52.2254C26.3935 52.0943 26.3042 51.9273 26.268 51.7454C26.2318 51.5635 26.2504 51.375 26.3214 51.2037C26.3923 51.0324 26.5125 50.886 26.6667 50.783C26.8208 50.68 27.0021 50.625 27.1875 50.625C27.4361 50.6253 27.6744 50.7241 27.8501 50.8999C28.0259 51.0757 28.1247 51.3139 28.125 51.5625Z" fill="white"/>
<path d="M47.2923 16.3287C47.1639 16.4143 47.0586 16.5303 46.9857 16.6664C46.9129 16.8025 46.8748 16.9545 46.8748 17.1088C46.8748 17.2632 46.9129 17.4152 46.9857 17.5513C47.0586 17.6874 47.1639 17.8033 47.2923 17.889L47.5517 18.0618C48.5759 18.747 49.344 19.7527 49.7355 20.9212C49.7976 21.1079 49.917 21.2703 50.0767 21.3854C50.2363 21.5005 50.4281 21.5624 50.6249 21.5624C50.8217 21.5624 51.0135 21.5005 51.1732 21.3854C51.3328 21.2703 51.4522 21.1079 51.5144 20.9212C51.9058 19.7527 52.6739 18.747 53.6981 18.0618L53.9575 17.889C54.0859 17.8033 54.1913 17.6874 54.2641 17.5513C54.3369 17.4152 54.3751 17.2632 54.3751 17.1088C54.3751 16.9545 54.3369 16.8025 54.2641 16.6664C54.1913 16.5303 54.0859 16.4143 53.9575 16.3287L53.6981 16.1559C52.6739 15.4706 51.9058 14.465 51.5144 13.2965C51.4522 13.1098 51.3328 12.9474 51.1732 12.8323C51.0135 12.7172 50.8217 12.6553 50.6249 12.6553C50.4281 12.6553 50.2363 12.7172 50.0767 12.8323C49.917 12.9474 49.7976 13.1098 49.7355 13.2965C49.344 14.465 48.5759 15.4706 47.5517 16.1559L47.2923 16.3287ZM50.6249 15.6909C50.9781 16.2142 51.3962 16.6906 51.8692 17.1088C51.3962 17.527 50.9781 18.0035 50.6249 18.5268C50.2717 18.0035 49.8536 17.527 49.3806 17.1088C49.8536 16.6906 50.2717 16.2142 50.6249 15.6909Z" fill="white"/>
<path d="M38.8548 23.0452L39.1142 23.2181C40.1384 23.9033 40.9065 24.9089 41.298 26.0774C41.3601 26.2641 41.4795 26.4266 41.6392 26.5416C41.7988 26.6567 41.9906 26.7187 42.1874 26.7187C42.3842 26.7187 42.576 26.6567 42.7357 26.5416C42.8953 26.4266 43.0147 26.2641 43.0769 26.0774C43.4683 24.9089 44.2364 23.9033 45.2606 23.2181L45.52 23.0452C45.6484 22.9596 45.7538 22.8436 45.8266 22.7075C45.8994 22.5714 45.9376 22.4195 45.9376 22.2651C45.9376 22.1107 45.8994 21.9588 45.8266 21.8227C45.7538 21.6866 45.6484 21.5706 45.52 21.485L45.2606 21.3121C44.2364 20.6269 43.4683 19.6213 43.0769 18.4527C43.0147 18.266 42.8953 18.1036 42.7357 17.9885C42.576 17.8735 42.3842 17.8115 42.1874 17.8115C41.9906 17.8115 41.7988 17.8735 41.6392 17.9885C41.4795 18.1036 41.3601 18.266 41.298 18.4527C40.9065 19.6213 40.1384 20.6269 39.1142 21.3121L38.8548 21.485C38.7264 21.5706 38.6211 21.6866 38.5482 21.8227C38.4754 21.9588 38.4373 22.1107 38.4373 22.2651C38.4373 22.4195 38.4754 22.5714 38.5482 22.7075C38.6211 22.8436 38.7264 22.9596 38.8548 23.0452ZM42.1874 20.8471C42.5406 21.3704 42.9587 21.8469 43.4317 22.2651C42.9587 22.6833 42.5406 23.1597 42.1874 23.6831C41.8342 23.1597 41.4161 22.6833 40.9431 22.2651C41.4161 21.8469 41.8342 21.3704 42.1874 20.8471Z" fill="white"/>
<path d="M47.3952 9.53222L47.0493 9.30159C45.6259 8.34944 44.5584 6.95203 44.0142 5.32824C43.952 5.14152 43.8326 4.97912 43.673 4.86403C43.5133 4.74894 43.3215 4.68701 43.1247 4.68701C42.9279 4.68701 42.7361 4.74894 42.5765 4.86403C42.4168 4.97912 42.2975 5.14152 42.2353 5.32824C41.691 6.95206 40.6236 8.34951 39.2001 9.30171L38.8544 9.53222C38.726 9.61783 38.6207 9.73382 38.5479 9.86989C38.4751 10.006 38.437 10.1579 38.437 10.3122C38.437 10.4665 38.4751 10.6185 38.5479 10.7545C38.6207 10.8906 38.726 11.0066 38.8544 11.0922L39.2002 11.3228C40.6237 12.275 41.6912 13.6724 42.2354 15.2962C42.2976 15.4829 42.417 15.6453 42.5766 15.7604C42.7362 15.8755 42.928 15.9374 43.1248 15.9374C43.3216 15.9374 43.5134 15.8755 43.6731 15.7604C43.8327 15.6453 43.9521 15.4829 44.0143 15.2962C44.5585 13.6724 45.626 12.2749 47.0494 11.3227L47.3952 11.0922C47.5235 11.0066 47.6288 10.8906 47.7016 10.7545C47.7745 10.6185 47.8125 10.4665 47.8125 10.3122C47.8125 10.1579 47.7745 10.006 47.7016 9.86989C47.6288 9.73382 47.5235 9.61783 47.3952 9.53222ZM43.1251 12.7817C42.5569 11.8427 41.8328 11.0076 40.9837 10.3122C41.8328 9.61684 42.5569 8.7817 43.1251 7.84273C43.6932 8.7817 44.4174 9.61684 45.2664 10.3122C44.4174 11.0076 43.6932 11.8427 43.1251 12.7817Z" fill="white"/>
</svg>
