<svg width="60" height="60" viewBox="0 0 60 60" fill="none" xmlns="http://www.w3.org/2000/svg">
<g clip-path="url(#clip0)">
<path d="M56.0156 12.4773H53.6696L53.6719 8.28323C53.6732 5.46753 51.384 3.17551 48.5678 3.17413L30.7626 3.16406C30.7617 3.16406 30.7613 3.16406 30.7603 3.16406C29.7469 3.16406 28.7938 3.55865 28.0769 4.27551L1.49551 30.8569C0.531006 31.8214 0 33.1036 0 34.4678C0 35.8319 0.531006 37.1141 1.49551 38.0786L18.7459 55.329C19.7415 56.3246 21.0493 56.8222 22.3567 56.8222C23.6646 56.8222 24.9724 56.3246 25.968 55.329L42.7039 38.5931C43.1616 38.1354 43.1616 37.3933 42.7039 36.936C42.2461 36.4783 41.5041 36.4783 41.0463 36.936L24.3105 53.6719C23.2333 54.749 21.4806 54.749 20.4034 53.6719L3.15308 36.4215C2.63123 35.8997 2.34375 35.2057 2.34375 34.4678C2.34375 33.7299 2.63123 33.0359 3.15308 32.514L29.734 5.93307C30.0082 5.65887 30.3726 5.50781 30.7603 5.50781H30.7613L48.5664 5.51788C50.0899 5.51834 51.329 6.75888 51.3281 8.28232L51.3226 18.1023H46.0442C45.5896 18.1023 45.1781 17.9164 44.8805 17.617C45.3708 17.4069 45.8304 17.1034 46.23 16.7038C47.9141 15.0192 47.9141 12.2791 46.23 10.5949C44.5454 8.91037 41.8053 8.91037 40.1207 10.5949C38.4366 12.2791 38.4366 15.0192 40.1207 16.7038C40.7451 17.3282 41.515 17.7205 42.3221 17.8821C42.8957 19.3794 44.3472 20.446 46.0442 20.446H51.3213L51.3181 26.0637C51.3181 26.4514 51.167 26.8153 50.8928 27.0891L47.6756 30.3067C47.2179 30.7645 47.2179 31.5065 47.6756 31.9643C48.1329 32.4216 48.875 32.4216 49.3327 31.9643L52.5504 28.7466C53.2663 28.0302 53.6613 27.0781 53.6618 26.0651L53.665 20.446H56.0156C58.2124 20.446 60 18.6589 60 16.4616C60 14.2648 58.2124 12.4773 56.0156 12.4773ZM41.7783 12.252C42.1637 11.8666 42.6695 11.6743 43.1758 11.6743C43.6816 11.6743 44.1875 11.8671 44.5729 12.252C44.6947 12.3743 44.7954 12.5093 44.8787 12.6517C43.5924 13.0458 42.5816 14.0753 42.2122 15.3726C42.057 15.2861 41.9101 15.1785 41.7783 15.0467C41.0078 14.2758 41.0078 13.0225 41.7783 12.252ZM56.0156 18.1023H53.6664L53.6682 14.821H56.0156C56.9202 14.821 57.6562 15.5571 57.6562 16.4616C57.6562 17.3662 56.9202 18.1023 56.0156 18.1023Z" fill="white"/>
<path d="M18.9157 32.7311C19.0599 33.2497 19.531 33.5889 20.0437 33.5889C20.148 33.5889 20.2538 33.5752 20.3586 33.5459L32.3886 30.1974C33.0121 30.0239 33.3769 29.3775 33.2035 28.754C33.03 28.131 32.3841 27.7662 31.7601 27.9397L19.7301 31.2878C19.1071 31.4617 18.7423 32.1076 18.9157 32.7311Z" fill="white"/>
<path d="M24.2111 34.2775C23.5583 34.9303 23.199 35.7977 23.199 36.721C23.199 37.6439 23.5583 38.5113 24.2111 39.1641C24.8849 39.8375 25.7693 40.1744 26.6542 40.1744C27.539 40.1744 28.4239 39.8375 29.0977 39.1641C30.4449 37.8169 30.4449 35.6247 29.0977 34.2775C27.7505 32.9303 25.5583 32.9303 24.2111 34.2775ZM27.4402 37.5066C27.0067 37.9401 26.3017 37.9401 25.8682 37.5066C25.6581 37.2969 25.5427 37.0177 25.5427 36.7206C25.5427 36.4239 25.6585 36.1447 25.8682 35.9346C26.0852 35.7181 26.3699 35.6096 26.6542 35.6096C26.9389 35.6096 27.2236 35.7181 27.4402 35.9346C27.8737 36.3681 27.8737 37.0735 27.4402 37.5066Z" fill="white"/>
<path d="M29.6783 27.3001C31.0255 25.9525 31.0255 23.7607 29.6783 22.4135C29.0255 21.7607 28.1576 21.4014 27.2347 21.4014C26.3119 21.4014 25.444 21.7607 24.7916 22.4135C23.4445 23.7607 23.4445 25.9525 24.7916 27.3001C25.4655 27.9735 26.3499 28.3104 27.2347 28.3104C28.1196 28.3104 29.0044 27.9735 29.6783 27.3001ZM26.4488 24.0706C26.6589 23.8605 26.9381 23.7451 27.2347 23.7451C27.5318 23.7451 27.8111 23.8605 28.0207 24.0706C28.4542 24.5041 28.4542 25.209 28.0207 25.6425C27.5877 26.076 26.8823 26.076 26.4488 25.6425C26.0157 25.209 26.0157 24.5041 26.4488 24.0706Z" fill="white"/>
<path d="M11.6556 30.3097C11.1978 29.8519 10.4558 29.8519 9.99805 30.3097L6.66827 33.6394C6.44855 33.8592 6.32495 34.1572 6.32495 34.468C6.32495 34.7788 6.44855 35.0768 6.66827 35.2965L21.5287 50.1569C21.7571 50.3853 22.0574 50.4998 22.3572 50.4998C22.657 50.4998 22.9569 50.3853 23.1858 50.1569L45.4038 27.9384C45.8615 27.4807 45.8615 26.7386 45.4038 26.2809L30.5439 11.421C30.3241 11.2012 30.0261 11.0776 29.7153 11.0776C29.4045 11.0776 29.1065 11.2012 28.8867 11.421L16.6274 23.6803C16.1696 24.1381 16.1696 24.8801 16.6274 25.3379C17.0847 25.7952 17.8267 25.7952 18.2845 25.3379L29.7153 13.9071L42.9181 27.1099L22.3572 47.6708L9.15439 34.468L11.6556 31.9668C12.1129 31.509 12.1134 30.7674 11.6556 30.3097Z" fill="white"/>
<path d="M45.1899 33.2778C44.8814 33.2778 44.5793 33.4033 44.3614 33.6212C44.1435 33.8391 44.0181 34.1416 44.0181 34.4497C44.0181 34.7578 44.1435 35.0604 44.3614 35.2783C44.5793 35.4962 44.8814 35.6216 45.1899 35.6216C45.498 35.6216 45.8001 35.4962 46.0185 35.2783C46.2364 35.0604 46.3618 34.7578 46.3618 34.4497C46.3618 34.1416 46.2364 33.8391 46.0185 33.6212C45.8001 33.4033 45.498 33.2778 45.1899 33.2778Z" fill="white"/>
<path d="M14.9692 28.6513C15.1885 28.4334 15.313 28.1322 15.313 27.8228C15.313 27.5147 15.1885 27.2135 14.9692 26.9942C14.7513 26.7763 14.4501 26.6509 14.1411 26.6509C13.8326 26.6509 13.5305 26.7763 13.3126 26.9942C13.0942 27.2121 12.9692 27.5147 12.9692 27.8228C12.9692 28.1322 13.0942 28.4334 13.3126 28.6513C13.5314 28.8706 13.8326 28.9946 14.1411 28.9946C14.4501 28.9946 14.7513 28.8706 14.9692 28.6513Z" fill="white"/>
</g>
<defs>
<clipPath id="clip0">
<rect width="60" height="60" fill="white"/>
</clipPath>
</defs>
</svg>
