<svg width="60" height="60" viewBox="0 0 60 60" fill="none" xmlns="http://www.w3.org/2000/svg">
<g clip-path="url(#clip0)">
<path d="M57 30H56V6H57C58.6568 6 60 4.6568 60 3C60 1.3432 58.6569 0 57 0H3C1.34309 0 0 1.34309 0 3C0 4.65691 1.34309 6 3 6H3.99996V30H3C1.34309 30 0 31.3432 0 33C0 34.6568 1.34309 36 3 36H57C58.6568 36 60 34.6568 60 33C60 31.3432 58.6569 30 57 30ZM3 3.99996C2.44805 3.99926 2.00074 3.55195 2.00004 3C2.00074 2.44805 2.44805 2.00074 3 2.00004H57C57.5523 2.00004 58 2.4477 58 3C58 3.5523 57.5523 3.99996 57 3.99996H3ZM54 6V30H6V6H54ZM57 34H3C2.4477 34 2.00004 33.5523 2.00004 33C2.00004 32.4477 2.4477 32 3 32H57C57.552 32.0007 57.9993 32.448 58 33C57.9993 33.552 57.552 33.9993 57 34Z" fill="white"/>
<path d="M17.0001 22.9328C17.5524 22.9328 18.0001 22.485 18.0001 21.9328V17.0372L21 18.3119V24.2794L21.0023 24.2903C21.0034 24.4173 21.0289 24.5429 21.077 24.6603C21.1458 24.7681 21.2164 24.8747 21.2888 24.9801C21.381 25.0745 21.4912 25.1496 21.6126 25.2012L26.5851 27.3125C28.7709 28.2327 31.2354 28.2317 33.4205 27.3101L38.3876 25.201C38.509 25.1495 38.6192 25.0744 38.7114 24.98C38.7838 24.8747 38.8544 24.768 38.9232 24.6602C38.9715 24.5427 38.9968 24.4171 38.9979 24.2901L39 24.2792V18.3118L42.9605 16.6288C43.5945 16.3342 44.0001 15.6985 44.0001 14.9994C44.0001 14.3003 43.5945 13.6646 42.9605 13.37L30.6207 8.12646C30.2242 7.95654 29.7754 7.95654 29.379 8.12646L17.0396 13.37C16.3974 13.6553 15.9881 14.2969 16 14.9994V21.9326C16.0001 22.485 16.4478 22.9328 17.0001 22.9328ZM37 23.6177L32.6445 25.4669C30.9554 26.1786 29.0506 26.1796 27.3608 25.4694L22.9999 23.6177V19.1619L29.3793 21.8727C29.7758 22.0426 30.2246 22.0426 30.621 21.8727L36.9999 19.1619V23.6177H37ZM30 10.0357L41.6807 14.9996L37.6155 16.7272L37.6067 16.731L30 19.9635L22.3934 16.731L22.3846 16.7272L18.3194 14.9996L30 10.0357Z" fill="white"/>
<path d="M58 54.0001H55.9999V52.7144C55.9743 50.1826 54.5214 47.8822 52.2463 46.7712C53.8391 45.4114 54.4158 43.2031 53.6911 41.2383C52.9665 39.2734 51.0941 37.9683 48.9998 37.9683C46.9056 37.9683 45.0332 39.2734 44.3086 41.2383C43.584 43.2031 44.1606 45.4114 45.7534 46.7712C43.4783 47.8823 42.0254 50.1826 41.9998 52.7144V54.0001H36.9997V52.7144C36.9741 50.1826 35.5212 47.8822 33.2461 46.7712C34.8389 45.4114 35.4156 43.2031 34.6909 41.2383C33.9663 39.2734 32.0939 37.9683 29.9996 37.9683C27.9054 37.9683 26.033 39.2734 25.3084 41.2383C24.5838 43.2031 25.1604 45.4114 26.7532 46.7712C24.4781 47.8823 23.0252 50.1826 22.9996 52.7144V54.0001H18V52.7144C17.9743 50.1826 16.5214 47.8822 14.2464 46.7712C15.8392 45.4114 16.4159 43.2031 15.6912 41.2383C14.9666 39.2734 13.0942 37.9683 10.9999 37.9683C8.90566 37.9683 7.03324 39.2734 6.30867 41.2383C5.5841 43.2031 6.16066 45.4114 7.75348 46.7712C5.4784 47.8823 4.02551 50.1826 3.99984 52.7144V54.0001H2.00004C0.895898 54.0012 0.00105469 54.896 0 56.0001V58.0002C0.00105469 59.1043 0.895898 59.999 2.00004 60.0002H58.0001C59.1042 59.9992 59.9989 59.1043 60.0001 58.0002V56.0001C59.9989 54.896 59.1041 54.0012 58 54.0001ZM49 40.0001C50.6568 40.0001 52 41.3431 52 43.0001C52 44.657 50.6569 46.0001 49 46.0001C47.3439 45.9983 46.0017 44.6562 46 43.0001C46 41.3433 47.3432 40.0001 49 40.0001ZM44 52.7144C44.1558 50.0671 46.3481 48 49.0001 48C51.652 48 53.8443 50.0671 54.0001 52.7144V54.0001H44.0002V52.7144H44ZM30 40.0001C31.6568 40.0001 33 41.3431 33 43.0001C33 44.657 31.6568 46.0001 30 46.0001C28.3439 45.9983 27.0018 44.6562 27 43.0001C27 41.3433 28.3432 40.0001 30 40.0001ZM25 52.7144C25.1557 50.0671 27.348 48 30 48C32.652 48 34.8442 50.0671 35 52.7144V54.0001H25.0001V52.7144H25ZM11 40.0001C12.6568 40.0001 14 41.3431 14 43.0001C14 44.657 12.657 46.0001 11 46.0001C9.34394 45.9983 8.0018 44.6562 8.00004 43.0001C8.00004 41.3433 9.34312 40.0001 11 40.0001ZM6 52.7144C6.08414 50.0342 8.31949 47.9266 11 48.0001C13.6805 47.9266 15.9158 50.0342 16.0001 52.7144V54.0001H6V52.7144ZM2.00004 58.0001V56H58.0001L58.0015 58.0001H2.00004Z" fill="white"/>
</g>
<defs>
<clipPath id="clip0">
<rect width="60" height="60" fill="white"/>
</clipPath>
</defs>
</svg>
