<svg width="60" height="60" viewBox="0 0 60 60" fill="none" xmlns="http://www.w3.org/2000/svg">
    <g clip-path="url(#clip0)">
        <path d="M56.3086 52.9281L47.4961 37.6645C47.8126 37.2958 48.2428 37.023 48.7448 36.9046C50.133 36.5775 51.2841 35.653 51.9028 34.368C52.5217 33.0831 52.5267 31.6067 51.917 30.3176C51.4503 29.3309 51.717 28.1622 52.5656 27.4758C53.6744 26.5787 54.3104 25.2463 54.3104 23.8202C54.3104 22.3941 53.6744 21.0616 52.5656 20.1647C51.717 19.4782 51.4503 18.3095 51.917 17.3228C52.5268 16.0336 52.5217 14.5572 51.9028 13.2723C51.2841 11.9873 50.133 11.0628 48.7447 10.7357C47.6823 10.4854 46.9349 9.54827 46.9273 8.4567C46.9175 7.03057 46.2721 5.70265 45.1571 4.81346C44.0421 3.92427 42.6037 3.59064 41.2113 3.89837C40.1453 4.13367 39.0654 3.61373 38.585 2.6336C37.9572 1.35302 36.7998 0.436523 35.4093 0.119189C34.0187 -0.198262 32.5783 0.125399 31.457 1.00674C30.599 1.68137 29.4004 1.68137 28.5422 1.00674C27.421 0.125399 25.9806 -0.198028 24.5901 0.119189C23.1996 0.436523 22.0421 1.35302 21.4144 2.6336C20.9339 3.61373 19.8536 4.13402 18.7882 3.89837C17.3956 3.59088 15.9573 3.92427 14.8424 4.81346C13.7274 5.70265 13.0822 7.03057 13.0722 8.4567C13.0646 9.54815 12.3172 10.4854 11.2547 10.7357C9.86651 11.0628 8.71542 11.9873 8.09669 13.2723C7.47784 14.5572 7.4728 16.0336 8.08251 17.3227C8.54925 18.3094 8.28254 19.4781 7.43389 20.1645C6.3251 21.0616 5.68914 22.394 5.68914 23.8201C5.68914 25.2462 6.3251 26.5787 7.43389 27.4756C8.28254 28.1621 8.54925 29.3308 8.08251 30.3175C7.47268 31.6067 7.47784 33.0831 8.09669 34.368C8.71542 35.653 9.86651 36.5775 11.2548 36.9046C11.7568 37.0228 12.187 37.2958 12.5035 37.6645L3.69116 52.9281C3.45386 53.3392 3.48796 53.8528 3.77741 54.2288C4.06697 54.6049 4.55469 54.769 5.01276 54.6449L11.1505 52.9798L12.7774 59.1278C12.8988 59.5867 13.285 59.9269 13.7555 59.9896C13.8074 59.9965 13.8592 59.9999 13.9106 59.9999C14.3251 59.9999 14.7139 59.7796 14.9251 59.414L22.4446 46.39C23.0401 46.9413 23.7745 47.335 24.5903 47.5212C25.9806 47.8383 27.4212 47.515 28.5426 46.6337C29.4006 45.959 30.5993 45.959 31.4574 46.6337C32.2964 47.2932 33.3141 47.6404 34.3559 47.6404C34.7063 47.6404 35.0596 47.6011 35.4095 47.5212C36.2254 47.335 36.9599 46.9413 37.5553 46.39L45.0747 59.414C45.2859 59.7797 45.6747 59.9999 46.0892 59.9999C46.1405 59.9999 46.1924 59.9965 46.2444 59.9896C46.7149 59.9269 47.1011 59.5866 47.2225 59.1278L48.8494 52.9798L54.9871 54.6449C55.4452 54.7694 55.933 54.6049 56.2225 54.2288C56.5119 53.8528 56.546 53.3392 56.3086 52.9281ZM14.3162 55.7813L13.1146 51.2404C13.0347 50.9388 12.8379 50.6813 12.5677 50.5253C12.2974 50.3693 11.9762 50.3275 11.675 50.4092L7.14164 51.6391L13.3821 40.8303C13.6774 41.6041 14.175 42.2945 14.8426 42.827C15.9576 43.7161 17.396 44.0498 18.7884 43.742C19.5748 43.5684 20.3683 43.807 20.9236 44.3372L14.3162 55.7813ZM34.888 45.2364C34.1902 45.3954 33.468 45.2332 32.9058 44.7913C32.0502 44.1187 31.0252 43.7825 29.9999 43.7825C28.9747 43.7825 27.9493 44.1188 27.0939 44.7913C26.5317 45.2333 25.8095 45.3956 25.1118 45.2364C24.4144 45.0772 23.8339 44.6175 23.519 43.9752C22.5612 42.0211 20.4077 40.9841 18.2828 41.4536C17.5842 41.6079 16.863 41.4406 16.3038 40.9946C15.7446 40.5486 15.4209 39.8826 15.4159 39.1673C15.4008 36.9911 13.9106 35.1226 11.7923 34.6235C11.096 34.4594 10.5188 33.9957 10.2083 33.3512C9.89804 32.7067 9.89546 31.9664 10.2013 31.3196C11.1317 29.3523 10.6 27.0224 8.90795 25.6537C8.35179 25.2038 8.03294 24.5355 8.03294 23.8202C8.03294 23.1049 8.35191 22.4366 8.90807 21.9867C10.6 20.618 11.1319 18.2881 10.2013 16.3207C9.89546 15.6741 9.89804 14.9336 10.2085 14.2892C10.5188 13.6447 11.0961 13.181 11.7923 13.0169C13.9106 12.5178 15.4008 10.6493 15.4159 8.47311C15.4209 7.75782 15.7445 7.09174 16.3038 6.64586C16.863 6.19986 17.5841 6.0324 18.2829 6.18685C20.4076 6.65594 22.5612 5.61933 23.519 3.66517C23.8339 3.02289 24.4144 2.56317 25.1118 2.40404C25.8094 2.24502 26.5317 2.40709 27.0939 2.8491C28.8049 4.19426 31.1948 4.19426 32.9058 2.8491C33.4682 2.40709 34.1904 2.24502 34.888 2.40404C35.5853 2.56317 36.1658 3.02289 36.4807 3.66517C37.4386 5.61933 39.592 6.65594 41.717 6.18685C42.4153 6.03229 43.1368 6.19986 43.696 6.64586C44.2552 7.09186 44.5788 7.75782 44.5839 8.47311C44.599 10.6493 46.0891 12.5178 48.2074 13.0169C48.9037 13.181 49.481 13.6447 49.7914 14.2892C50.1017 14.9337 50.1043 15.6741 49.7984 16.3208C48.868 18.2881 49.3998 20.618 51.0918 21.9867C51.6479 22.4366 51.9668 23.1049 51.9668 23.8202C51.9668 24.5355 51.6478 25.2038 51.0917 25.6537C49.3998 27.0224 48.8679 29.3523 49.7984 31.3197C50.1043 31.9664 50.1017 32.7068 49.7913 33.3512C49.481 33.9957 48.9036 34.4594 48.2074 34.6235C46.0891 35.1226 44.599 36.9911 44.5839 39.1673C44.5788 39.8826 44.2553 40.5487 43.696 40.9946C43.1368 41.4406 42.4155 41.6078 41.7168 41.4536C39.592 40.984 37.4386 42.0211 36.4807 43.9752C36.1658 44.6175 35.5853 45.0771 34.888 45.2364ZM48.3247 50.4092C48.0234 50.3275 47.7022 50.3694 47.432 50.5253C47.1618 50.6814 46.9649 50.9388 46.8851 51.2404L45.6835 55.7813L39.0762 44.3372C39.6317 43.8068 40.4251 43.5681 41.2113 43.742C42.604 44.0497 44.0421 43.7161 45.1571 42.827C45.8247 42.2946 46.3223 41.6041 46.6176 40.8303L52.8581 51.6391L48.3247 50.4092Z" fill="white"/>
        <path d="M35.5752 32.6823C35.8169 32.6823 36.0587 32.6077 36.264 32.4585C36.6737 32.1609 36.8458 31.6337 36.6908 31.1517L34.8436 25.4088L39.7148 21.8296C40.123 21.5297 40.2923 21.0015 40.1346 20.5202C39.9767 20.0389 39.5276 19.7135 39.0211 19.7135H32.9932L31.1134 13.9861C30.9555 13.505 30.5064 13.1797 30.0001 13.1797C29.4937 13.1797 29.0445 13.505 28.8867 13.9861L27.007 19.7135H20.979C20.4726 19.7135 20.0233 20.0389 19.8655 20.5202C19.7077 21.0015 19.877 21.5297 20.2853 21.8296L25.1565 25.4088L23.3093 31.1517C23.1543 31.6338 23.3265 32.1609 23.7361 32.4585C24.1459 32.7562 24.7004 32.7569 25.1109 32.4605L30.0003 28.9302L34.8897 32.4605C35.094 32.6084 35.3345 32.6823 35.5752 32.6823ZM30.6858 26.5349C30.481 26.387 30.2404 26.3131 29.9998 26.3131C29.7593 26.3131 29.5187 26.387 29.3138 26.5349L26.6334 28.4703L27.6457 25.3229C27.8001 24.843 27.6303 24.3181 27.224 24.0197L24.5528 22.0569H27.8555C28.3618 22.0569 28.811 21.7316 28.9689 21.2505L29.9998 18.1091L31.0308 21.2505C31.1888 21.7316 31.6378 22.0569 32.1442 22.0569H35.4469L32.7757 24.0197C32.3694 24.3181 32.1996 24.8429 32.3539 25.3229L33.3663 28.4703L30.6858 26.5349Z" fill="white"/>
        <path d="M46.4057 23.8203C46.4057 14.7742 39.0461 7.41455 30 7.41455C20.9539 7.41455 13.5942 14.7742 13.5942 23.8203C13.5942 30.7021 17.9391 36.9018 24.4059 39.2472C25.0142 39.4677 25.6863 39.1536 25.9071 38.5451C26.1277 37.9367 25.8135 37.2647 25.205 37.0439C19.6621 35.0336 15.938 29.7194 15.938 23.8203C15.938 16.0665 22.2463 9.75823 30.0001 9.75823C37.7539 9.75823 44.0621 16.0665 44.0621 23.8203C44.0621 29.7198 40.3377 35.0341 34.7944 37.0442C34.186 37.2649 33.8716 37.937 34.0923 38.5454C34.2651 39.0218 34.7147 39.3181 35.1939 39.3181C35.3266 39.3181 35.4614 39.2953 35.5934 39.2475C42.0605 36.9023 46.4057 30.7026 46.4057 23.8203Z" fill="white"/>
        <path d="M30 37.8823C29.6918 37.8823 29.3895 38.0077 29.1715 38.2257C28.9535 38.4437 28.8281 38.746 28.8281 39.0542C28.8281 39.3624 28.9535 39.6647 29.1715 39.8827C29.3895 40.1007 29.6918 40.2261 30 40.2261C30.3082 40.2261 30.6105 40.1007 30.8285 39.8827C31.0465 39.6647 31.1719 39.3624 31.1719 39.0542C31.1719 38.746 31.0465 38.4437 30.8285 38.2257C30.6105 38.0077 30.3082 37.8823 30 37.8823Z" fill="white"/>
    </g>
    <defs>
        <clipPath id="clip0">
            <rect width="60" height="60" fill="white"/>
        </clipPath>
    </defs>
</svg>