<svg width="60" height="60" viewBox="0 0 60 60" fill="none" xmlns="http://www.w3.org/2000/svg">
    <path d="M53.0812 47.3534C52.6801 47.0495 52.2131 46.8444 51.7179 46.7548C51.2227 46.6653 50.7134 46.6937 50.2312 46.8377L37.3687 50.6252H30.2437L25.1812 47.8127H34.6875C34.9361 47.8127 35.1746 47.714 35.3504 47.5381C35.5262 47.3623 35.625 47.1239 35.625 46.8752V44.0627C35.6231 43.8142 35.5258 43.5759 35.3531 43.3971L33.4781 41.5221C33.3466 41.3932 33.1805 41.3053 33 41.269L18.9375 38.4565C18.8755 38.4456 18.8129 38.4393 18.75 38.4377H13.125C13.0061 38.4359 12.8881 38.4582 12.7781 38.5034L9.375 39.8627V38.4377C9.37564 38.2146 9.2967 37.9986 9.15236 37.8285C9.00801 37.6584 8.80773 37.5453 8.5875 37.5096L2.9625 36.5721C2.82789 36.5531 2.69078 36.5624 2.55999 36.5995C2.42921 36.6367 2.30764 36.7008 2.20312 36.7877C2.10075 36.8762 2.01849 36.9855 1.96189 37.1084C1.9053 37.2313 1.87567 37.3649 1.875 37.5002V56.2502C1.875 56.4989 1.97377 56.7373 2.14959 56.9131C2.3254 57.089 2.56386 57.1877 2.8125 57.1877C2.86268 57.1893 2.9129 57.1861 2.9625 57.1784L8.5875 56.2409C8.80773 56.2052 9.00801 56.0921 9.15236 55.922C9.2967 55.7519 9.37564 55.5358 9.375 55.3127V54.3752H12.0375L23.1375 58.0784C23.2349 58.1076 23.3358 58.1234 23.4375 58.1252H37.5C37.6057 58.1256 37.7106 58.1065 37.8094 58.069L52.2187 52.9877C52.849 52.765 53.3948 52.3525 53.7809 51.8068C54.1671 51.2612 54.3746 50.6093 54.375 49.9409C54.3779 49.4382 54.2622 48.942 54.0374 48.4924C53.8127 48.0429 53.4851 47.6526 53.0812 47.3534ZM7.5 54.5159L3.75 55.144V38.6065L7.5 39.2346V54.5159ZM51.6 51.2159L37.3406 56.2502H23.5875L12.4875 52.5471C12.3901 52.5178 12.2892 52.502 12.1875 52.5002H9.375V41.8877L13.3031 40.3127H18.6562L32.3531 43.0502L33.75 44.4471V45.9377H21.5625C21.3557 45.9384 21.155 46.0073 20.9915 46.1339C20.8279 46.2605 20.7109 46.4376 20.6585 46.6376C20.6061 46.8376 20.6212 47.0494 20.7017 47.2398C20.7821 47.4303 20.9232 47.5889 21.1031 47.6909L29.5406 52.3784C29.6798 52.46 29.8386 52.5021 30 52.5002H37.5C37.589 52.5023 37.6777 52.4896 37.7625 52.4627L50.7656 48.6377C50.9669 48.5765 51.1799 48.5642 51.387 48.6017C51.594 48.6392 51.7892 48.7254 51.9562 48.8534C52.1526 49.0002 52.3054 49.1974 52.3985 49.4242C52.4916 49.651 52.5215 49.8988 52.4849 50.1412C52.4484 50.3836 52.3468 50.6116 52.191 50.8008C52.0351 50.99 51.8309 51.1335 51.6 51.2159Z" fill="white"/>
    <path d="M30 37.5004C38.2706 37.5004 45 28.6682 45 17.8129V6.56285C45 6.35636 44.9318 6.15566 44.806 5.99191C44.6802 5.82815 44.5039 5.7105 44.3044 5.65723L30.2419 1.90723C30.0834 1.86491 29.9166 1.86491 29.7581 1.90723L15.6956 5.65723C15.4961 5.7105 15.3198 5.82815 15.194 5.99191C15.0682 6.15566 15 6.35636 15 6.56285V17.8129C15 28.6682 21.7294 37.5004 30 37.5004ZM16.875 7.28379L30 3.78316L43.125 7.28379V17.8129C43.125 27.635 37.2375 35.6254 30 35.6254C22.7625 35.6254 16.875 27.635 16.875 17.8129V7.28379Z" fill="white"/>
    <path d="M26.25 23.4375V26.25C26.25 26.7473 26.4475 27.2242 26.7992 27.5758C27.1508 27.9275 27.6277 28.125 28.125 28.125H31.875C32.3723 28.125 32.8492 27.9275 33.2008 27.5758C33.5525 27.2242 33.75 26.7473 33.75 26.25V23.4375H36.5625C37.0598 23.4375 37.5367 23.24 37.8883 22.8883C38.24 22.5367 38.4375 22.0598 38.4375 21.5625V17.8125C38.4375 17.3152 38.24 16.8383 37.8883 16.4867C37.5367 16.135 37.0598 15.9375 36.5625 15.9375H33.75V13.125C33.75 12.6277 33.5525 12.1508 33.2008 11.7992C32.8492 11.4475 32.3723 11.25 31.875 11.25H28.125C27.6277 11.25 27.1508 11.4475 26.7992 11.7992C26.4475 12.1508 26.25 12.6277 26.25 13.125V15.9375H23.4375C22.9402 15.9375 22.4633 16.135 22.1117 16.4867C21.76 16.8383 21.5625 17.3152 21.5625 17.8125V21.5625C21.5625 22.0598 21.76 22.5367 22.1117 22.8883C22.4633 23.24 22.9402 23.4375 23.4375 23.4375H26.25ZM23.4375 17.8125H26.25C26.7473 17.8125 27.2242 17.615 27.5758 17.2633C27.9275 16.9117 28.125 16.4348 28.125 15.9375V13.125H31.875V15.9375C31.875 16.4348 32.0725 16.9117 32.4242 17.2633C32.7758 17.615 33.2527 17.8125 33.75 17.8125H36.5625V21.5625H33.75C33.2527 21.5625 32.7758 21.76 32.4242 22.1117C32.0725 22.4633 31.875 22.9402 31.875 23.4375V26.25H28.125V23.4375C28.125 22.9402 27.9275 22.4633 27.5758 22.1117C27.2242 21.76 26.7473 21.5625 26.25 21.5625H23.4375V17.8125Z" fill="white"/>
    <path d="M48.75 7.5H50.625V5.625H52.5V3.75H50.625V1.875H48.75V3.75H46.875V5.625H48.75V7.5Z" fill="white"/>
    <path d="M58.125 9.375H56.25V7.5H54.375V9.375H52.5V11.25H54.375V13.125H56.25V11.25H58.125V9.375Z" fill="white"/>
    <path d="M45 30.9375V32.8125H43.125V34.6875H45V36.5625H46.875V34.6875H48.75V32.8125H46.875V30.9375H45Z" fill="white"/>
    <path d="M52.5 25.3125H50.625V27.1875H48.75V29.0625H50.625V30.9375H52.5V29.0625H54.375V27.1875H52.5V25.3125Z" fill="white"/>
    <path d="M9.375 7.5H11.25V5.625H13.125V3.75H11.25V1.875H9.375V3.75H7.5V5.625H9.375V7.5Z" fill="white"/>
    <path d="M3.75 13.125H5.625V11.25H7.5V9.375H5.625V7.5H3.75V9.375H1.875V11.25H3.75V13.125Z" fill="white"/>
    <path d="M13.125 30.9375V32.8125H11.25V34.6875H13.125V36.5625H15V34.6875H16.875V32.8125H15V30.9375H13.125Z" fill="white"/>
    <path d="M9.375 30.9375V29.0625H11.25V27.1875H9.375V25.3125H7.5V27.1875H5.625V29.0625H7.5V30.9375H9.375Z" fill="white"/>
</svg>