<svg width="326" height="451" viewBox="0 0 326 451" fill="none" xmlns="http://www.w3.org/2000/svg">
    <path d="M33.8759 171.13C25.285 171.13 15.967 171.13 15.967 171.13V176.823C20.095 176.823 20.6526 179.502 23.3875 181.456C26.1204 183.409 28.8553 182.236 28.8553 184.358C28.8553 184.971 28.8553 185.641 28.8553 185.641H37.2236C37.2236 184.135 40.5713 183.575 41.7416 183.575C42.914 183.575 46.707 184.971 48.8271 184.971C50.9473 184.971 49.7749 182.514 48.3247 181.119C46.8745 179.723 40.9042 173.695 40.9042 173.695C39.3988 172.358 38.2836 171.13 33.8759 171.13Z" fill="#FFD700"/>
    <path d="M15.0196 171.13V176.809L11.9661 176.18V171.703L15.0196 171.13Z" fill="#FFD700"/>
    <path d="M16.6515 178.385C16.6515 182.376 16.5678 188.445 11.4635 194.808C11.2123 195.352 11.8822 195.519 12.7197 195.1C13.5571 194.682 17.0294 191.878 17.9505 189.491C18.8717 187.105 19.3313 183.128 23.0548 183.128C19.3292 180.87 20.5016 179.125 16.6515 178.385Z" fill="#FFD700"/>
    <path d="M28.6472 196.4H37.3075C38.4962 196.4 39.4705 195.427 39.4705 194.236V189.687C39.4705 188.498 38.4983 187.523 37.3075 187.523H28.6472C27.4584 187.523 26.4841 188.496 26.4841 189.687V194.236C26.4841 195.425 27.4584 196.4 28.6472 196.4Z" fill="#FFD700"/>
    <path d="M13.4941 241.008C13.4941 241.008 20.4326 216.45 22.5527 207.539C24.6708 198.635 25.4531 198.813 32.9614 198.813C40.4697 198.813 41.252 198.635 43.3701 207.539C45.4902 216.45 52.4287 241.008 52.4287 241.008C55.5312 251.166 55.6436 260.431 43.9277 260.431C34.8773 260.431 33.2576 260.431 32.9879 260.431C32.9879 260.431 32.9839 260.431 32.9798 260.431C32.9737 260.431 32.9634 260.431 32.9451 260.431C32.943 260.431 32.9389 260.431 32.9369 260.431C32.6673 260.431 31.0476 260.431 21.9971 260.431C10.2792 260.431 10.3895 251.166 13.4941 241.008Z" fill="#FFD700"/>
    <path d="M141.586 123.826C144.321 133.802 150.754 140.077 157.027 144.422C157.027 154.494 154.19 159.333 148.518 162.332V187.037H181.897V162.12C176.476 159.104 173.753 154.269 173.753 144.422C180.026 140.077 186.46 133.802 189.195 123.826C191.446 128.17 196.272 122.056 199.291 115.94C202.31 109.826 202.865 103.39 196.111 104.033C203.67 75.7134 197.236 65.0917 182.279 56.403C184.852 49.8048 184.209 32.5889 165.391 32.5889C146.573 32.5889 145.93 49.8068 148.504 56.403C133.546 65.0917 127.112 75.7134 134.672 104.033C127.917 103.39 128.473 109.826 131.491 115.94C134.508 122.056 139.335 128.17 141.586 123.826ZM133.078 94.3536C132.891 92.9375 132.76 91.5051 132.76 90.0379C132.76 72.0087 147.368 57.3941 165.389 57.3941C183.41 57.3941 198.018 72.0087 198.018 90.0379C198.018 91.5051 197.888 92.9375 197.7 94.3536C195.584 78.3699 181.942 66.0255 165.387 66.0255C148.832 66.0255 135.195 78.3699 133.078 94.3536Z" fill="#FFD700"/>
    <path d="M314.328 293.749C313.685 292.461 310.95 294.069 306.93 294.875C302.909 295.68 301.462 294.069 298.084 293.266C301.14 292.623 302.588 290.048 301.14 287.635C301.14 287.635 297.602 283.452 296.475 281.359C295.349 279.267 294.224 279.387 291.971 279.387C291.971 279.387 294.383 278.785 294.383 277.336C294.383 275.887 292.132 275.887 288.915 275.887C286.503 275.887 287.628 275.243 286.021 275.243C283.127 275.243 282.322 276.852 279.748 278.3C277.175 279.749 275.888 279.749 274.281 278.3C274.281 278.3 265.916 269.932 260.769 263.98C255.622 258.025 246.455 245.797 235.679 238.235C232.944 215.385 226.51 204.765 224.259 199.581C222.008 194.397 221.524 187.065 217.825 179.825C211.873 169.688 209.943 169.688 195.468 166.469C191.857 165.666 188.697 164.894 185.984 163.936V187.041C185.984 187.041 194.379 198.083 195.919 210.73C197.2 221.244 193.754 232.854 193.162 240.168H197.333C197.455 237.846 197.864 234.802 198.75 230.439C198.75 230.439 199.488 226.947 203.027 219.061C206.565 211.176 204.314 198.488 204.314 198.488C204.314 198.488 204.839 197.458 205.119 199.246C207.531 212.602 217.897 241.911 222.721 249.958C227.546 258.003 249.35 270.096 261.735 278.785C274.119 287.473 280.232 293.428 281.84 295.036C283.447 296.644 284.896 299.219 294.064 299.219C311.436 299.219 309.022 297.932 311.113 296.967C313.205 296.003 314.972 295.036 314.328 293.749ZM293.098 288.708C291.007 289.513 288.274 288.814 286.289 286.186C284.305 283.558 284.52 280.34 286.021 279.481C286.021 279.481 287.737 279.267 288.97 279.481C288.221 280.822 289.346 281.788 291.436 282.003C293.527 282.218 295.188 286.509 295.188 287.259C295.188 288.009 295.188 287.902 293.098 288.708Z" fill="#FFD700"/>
    <path d="M108.06 249.959C112.884 241.914 123.25 212.603 125.662 199.247C125.867 197.727 126.467 198.489 126.467 198.489C126.467 198.489 124.216 209.753 127.754 217.638C131.292 225.524 132.031 230.44 132.031 230.44C132.917 234.803 133.326 237.848 133.449 240.169H138.22C137.18 232.678 134.172 221.762 135.109 211.763C136.343 198.599 144.433 187.042 144.433 187.042V164.053C141.802 164.954 138.771 165.7 135.315 166.469C120.84 169.687 118.91 169.687 112.958 179.824C109.259 187.066 108.777 194.396 106.524 199.58C104.273 204.764 97.8392 215.384 95.1042 238.234C84.3279 245.797 75.159 258.027 70.0139 263.979C64.8668 269.934 56.5027 278.299 56.5027 278.299C54.8952 279.748 53.6084 279.748 51.0348 278.299C48.4613 276.851 47.6565 275.242 44.7622 275.242C43.1548 275.242 44.2802 275.886 41.868 275.886C38.651 275.886 36.4002 275.886 36.4002 277.335C36.4002 278.784 38.8124 279.386 38.8124 279.386C36.5615 279.386 35.4341 279.266 34.3086 281.358C33.1832 283.451 29.6435 287.634 29.6435 287.634C28.1954 290.047 29.6435 292.622 32.6991 293.265C29.3208 294.071 27.8747 295.679 23.853 294.874C19.8312 294.069 17.0983 292.46 16.4549 293.748C15.8116 295.035 17.5804 296 19.6719 296.966C21.7635 297.931 19.3513 299.218 36.7208 299.218C45.8897 299.218 47.3358 296.643 48.9453 295.035C50.5548 293.427 56.6661 287.472 69.0499 278.784C81.4316 270.095 103.236 258.004 108.06 249.959ZM44.4926 286.187C42.5094 288.815 39.7744 289.512 37.6829 288.709C35.5913 287.906 35.5913 288.012 35.5913 287.26C35.5913 286.51 37.2539 282.219 39.3434 282.004C41.435 281.79 42.5604 280.825 41.8088 279.483C43.0424 279.268 44.7582 279.483 44.7582 279.483C46.2615 280.341 46.4759 283.559 44.4926 286.187Z" fill="#FFD700"/>
    <path d="M208.24 285.316C209.365 261.822 198.427 249.337 197.786 246.28C197.651 245.636 197.531 244.978 197.443 244.257H193.243C195.699 259.053 204.153 306.759 204.153 306.759H126.267C126.267 306.759 136.016 260.702 138.43 246.123C138.522 245.567 138.549 244.929 138.551 244.257H133.42V243.48C133.334 244.521 133.179 245.412 132.997 246.28C132.354 249.337 121.416 261.822 122.544 285.316C93.2702 275.017 66.262 278.57 58.3145 286.991C51.374 294.343 49.7502 306.246 61.1148 316.331C67.9777 321.695 77.1996 327.703 150.971 332.637C147.54 336.929 148.398 340.362 147.111 341.863C145.824 343.365 144.323 348.086 147.969 345.726C151.615 343.365 160.729 337.787 165.394 337.787C170.059 337.787 179.172 343.365 182.818 345.726C186.464 348.086 184.963 343.365 183.676 341.863C182.389 340.362 183.247 336.929 179.816 332.637C253.588 327.703 262.81 321.695 269.673 316.331C281.039 306.246 279.413 294.343 272.475 286.991C264.521 278.57 237.513 275.017 208.24 285.316Z" fill="#FFD700"/>
    <path d="M279.225 259.334C279.43 259.373 279.632 259.412 279.836 259.451C279.918 259.3 280.046 259.375 280.161 259.383C281 259.432 281.84 259.473 282.679 259.535C284.274 259.651 285.868 259.78 287.461 259.903C287.771 259.917 287.949 259.821 287.898 259.459C287.855 259.165 287.859 258.864 287.843 258.568C287.602 256.817 287.493 255.053 287.353 253.294C287.287 252.481 287.224 251.667 287.158 250.854C286.93 249.174 286.821 247.485 286.834 245.772C287.579 247.548 288.325 249.324 289.07 251.097C289.085 251.138 289.099 251.181 289.111 251.222C289.54 252.074 289.91 252.953 290.237 253.848C291.019 255.679 291.801 257.512 292.583 259.343C292.62 259.435 292.657 259.527 292.694 259.618C292.853 260.156 293.231 260.319 293.762 260.301C294.109 260.289 294.458 260.358 294.806 260.393C295.482 260.372 296.154 260.424 296.826 260.487C297.032 260.505 296.146 256.698 296.299 256.216C296.523 256.698 297.677 260.567 298.407 260.567C299.077 260.567 299.267 260.616 299.93 260.732C301.601 260.769 303.266 260.877 304.926 261.067C305.637 261.039 301.885 251.559 302.586 251.678C304.561 256.743 308.964 261.263 309.92 261.392C310.752 261.441 311.583 261.488 312.414 261.537C313.248 261.596 314.081 261.656 314.914 261.715C315.701 261.731 316.487 261.754 317.265 261.881C318.152 261.854 319.03 261.956 319.908 262.036C321.401 262.134 322.899 262.171 324.388 262.357C324.872 262.218 325.362 262.52 325.842 262.326C325.556 262.183 325.27 262.04 324.982 261.897C323.266 261.077 321.818 259.915 320.582 258.478C320.066 257.988 319.608 257.448 319.24 256.835C318.92 256.484 318.652 256.096 318.429 255.677C318.015 255.141 317.637 254.583 317.367 253.96C317.065 253.568 316.838 253.131 316.622 252.685C316.262 252.191 315.964 251.659 315.719 251.099C314.82 249.424 314.21 247.644 313.77 245.801C313.225 244.027 312.857 242.213 312.541 240.386C312.351 239.605 312.175 238.822 312.09 238.021C311.72 236.184 311.348 234.345 310.978 232.508C310.521 230.735 310.063 228.961 309.606 227.185C309.369 226.507 309.13 225.828 308.895 225.15C308.48 223.959 308.482 223.959 307.243 223.944C307.14 223.942 307.04 223.91 306.938 223.891C305.253 223.975 303.566 223.952 301.879 223.928C301.033 223.936 300.19 223.942 299.344 223.95C298.595 223.963 297.845 224.014 297.095 223.932C296.158 224.038 295.218 223.967 294.281 223.981C292.641 223.975 290.998 223.967 289.358 223.961C288.474 224.03 287.589 224.046 286.703 223.965C285.861 224.042 285.018 224.034 284.176 223.981C283.333 224.061 282.487 224.04 281.642 224.004C280.798 224.01 279.957 224.016 279.113 224.022C279.029 224.014 278.948 224.008 278.864 223.999C278.231 224.065 277.595 224.063 276.962 224.012C275.99 224.026 275.02 224.04 274.048 224.055C273.743 224.429 274.007 224.905 273.821 225.299C273.849 227.079 273.88 228.857 273.909 230.636C273.952 231.358 273.994 232.077 274.037 232.798C274.141 233.751 274.246 234.701 274.348 235.653C274.362 235.825 274.376 235.996 274.391 236.168C274.53 236.851 274.638 237.535 274.656 238.232C274.85 239.09 274.979 239.959 275.054 240.833C275.377 242.584 275.702 244.336 276.025 246.085C276.18 246.874 276.335 247.66 276.49 248.449C276.917 250.3 277.346 252.154 277.773 254.005C277.836 254.242 277.896 254.481 277.961 254.716C278.384 256.257 278.7 257.824 279.225 259.334Z" fill="#FFD700"/>
    <path d="M277.432 135.1C277.148 135.047 276.862 134.992 276.578 134.938C276.339 135.116 276.043 135.084 275.773 135.135C274.615 135.357 274.202 135.86 274.255 137.027C274.374 137.801 274.492 138.574 274.611 139.348C274.997 141.171 275.244 143.018 275.536 144.855C275.655 145.636 275.773 146.416 275.892 147.195C276.253 149.005 276.549 150.828 276.784 152.659C277.101 154.302 277.383 155.949 277.583 157.612C277.807 158.563 277.973 159.521 278.053 160.496C278.388 162.141 278.651 163.796 278.863 165.461C279.084 166.407 279.243 167.362 279.329 168.33C279.439 168.571 279.464 168.825 279.45 169.084C279.644 169.732 279.709 170.404 279.795 171.072C279.93 171.898 280.066 172.724 280.201 173.551C280.338 174.422 280.475 175.292 280.612 176.161C280.673 176.285 280.72 176.41 280.669 176.551C280.855 177.276 280.984 178.012 281.026 178.762C281.223 179.577 281.359 180.401 281.433 181.236C281.786 182.937 282.04 184.651 282.283 186.37C282.434 187.312 282.585 188.252 282.736 189.194C283.02 190.898 283.302 192.602 283.586 194.306C283.725 195.214 283.864 196.121 284.002 197.028C284.366 198.759 284.619 200.508 284.87 202.257C285.034 203.122 285.214 203.984 285.273 204.865C285.504 205.719 285.598 206.597 285.72 207.47C285.882 208.281 286.053 209.09 286.096 209.92C286.235 210.178 286.255 210.357 285.879 210.415C285.306 210.502 284.738 210.629 284.168 210.737C283.263 211.066 282.358 211.395 281.453 211.724C280.45 212.223 279.517 212.836 278.598 213.472C278.528 213.533 278.457 213.596 278.388 213.658C276.925 214.931 275.826 216.469 275.046 218.239C274.907 218.715 274.768 219.189 274.633 219.665C274.582 219.843 274.515 220.037 274.805 220.076C275.648 220.006 276.494 220.025 277.34 220.053C278.085 220.027 278.831 219.99 279.576 220.064C280.518 219.966 281.462 220.027 282.403 220.021C283.192 220.027 283.978 220.033 284.766 220.039C286.464 219.962 288.161 219.943 289.858 220.015C290.741 219.931 291.623 219.951 292.507 219.994C293.353 219.941 294.199 219.892 295.044 219.986C295.886 219.9 296.729 219.919 297.573 219.972C299.26 219.874 300.949 219.912 302.636 219.935C303.349 219.937 304.062 219.939 304.777 219.941C305.326 219.912 305.878 219.886 306.462 219.855C306.252 219.489 306.08 219.189 305.908 218.891C305.766 218.695 305.62 218.498 305.478 218.3C304.781 217.501 304.085 216.7 303.39 215.901C302.618 215.251 301.848 214.602 301.076 213.952C299.669 213.026 298.19 212.233 296.648 211.559C295.606 211.24 294.566 210.923 293.525 210.605C293.13 210.529 292.736 210.453 292.34 210.38C290.342 210.366 290.216 210.259 290.03 208.42C290.026 208.381 290.038 208.338 290.044 208.3C289.693 206.567 289.427 204.822 289.18 203.073C288.998 202.21 288.829 201.346 288.768 200.465C288.663 200.257 288.641 200.036 288.653 199.807C288.541 199.153 288.427 198.497 288.314 197.843C288.186 197.024 288.059 196.207 287.93 195.387C287.587 193.611 287.281 191.83 287.064 190.033C286.872 189.22 286.729 188.399 286.662 187.565C286.3 185.787 286.008 183.999 285.788 182.199C285.583 181.384 285.461 180.556 285.381 179.72C285.022 177.947 284.73 176.163 284.507 174.366C284.305 173.51 284.168 172.644 284.082 171.769C283.727 170.036 283.455 168.289 283.224 166.536C282.904 164.852 282.611 163.164 282.403 161.462C282.178 160.555 282.05 159.633 281.939 158.708C281.666 157.012 281.394 155.316 281.12 153.62C280.894 152.716 280.783 151.795 280.655 150.877C280.598 150.487 280.54 150.097 280.483 149.706C280.403 149.269 280.326 148.83 280.246 148.392C280.107 147.485 279.968 146.58 279.827 145.673C279.601 144.81 279.505 143.925 279.37 143.047C279.352 142.875 279.331 142.704 279.313 142.532C279.129 141.847 279.031 141.146 278.961 140.441C278.788 139.579 278.618 138.717 278.551 137.838C278.492 137.581 278.406 137.327 278.381 137.068C278.302 136.295 278.13 135.574 277.432 135.1Z" fill="#FFD700"/>
    <path d="M26.1495 142.343C25.5143 124.069 28.8272 105.623 35.4654 88.4233C42.2078 71.2524 52.4449 55.3933 65.4231 42.1376C78.3543 28.8308 94.0612 18.2213 111.19 10.9651C128.343 3.73335 146.969 0.0592595 165.584 0C184.202 0.0510858 202.825 3.73744 219.981 10.9589C237.107 18.2213 252.818 28.8226 265.749 42.1335C278.728 55.3913 288.967 71.2503 295.709 88.4213C302.345 105.623 305.658 124.069 305.019 142.345L304.631 135.51L303.916 128.712C303.628 126.454 303.25 124.208 302.923 121.96C302.547 119.718 302.041 117.499 301.606 115.274C299.633 106.408 296.788 97.7598 293.131 89.492C285.911 72.9157 275.443 57.8516 262.608 45.2783C249.722 32.7623 234.523 22.6514 217.916 15.9449C201.355 9.14844 183.477 5.65826 165.584 5.69708C147.692 5.65009 129.816 9.15253 113.249 15.9388C96.643 22.6494 81.4385 32.7562 68.5543 45.2743C55.7191 57.8475 45.2511 72.9117 38.0308 89.49C34.3747 97.7577 31.5295 106.408 29.5585 115.274C29.1254 117.501 28.6169 119.721 28.2431 121.962C27.9163 124.21 27.5404 126.456 27.2504 128.714L26.5355 135.512L26.1495 142.343Z" fill="#FFD700"/>
    <path d="M170.968 206.264C171.52 206.23 172.006 206.15 172.427 206.029C172.847 205.909 173.201 205.731 173.483 205.498C173.766 205.265 173.979 204.971 174.126 204.613C174.271 204.256 174.345 203.825 174.345 203.316C174.345 202.893 174.265 202.527 174.11 202.21C173.952 201.896 173.734 201.636 173.456 201.434C173.178 201.231 172.847 201.078 172.469 200.978C172.092 200.878 171.683 200.829 171.248 200.829C170.962 200.829 170.748 200.851 170.607 200.898C170.464 200.943 170.392 201.074 170.392 201.289V212.407C170.392 212.579 170.306 212.679 170.135 212.707C170.012 212.728 169.88 212.748 169.735 212.767C169.587 212.785 169.444 212.799 169.306 212.81C169.167 212.82 169.036 212.828 168.92 212.83C168.801 212.834 168.713 212.836 168.658 212.836C168.487 212.836 168.401 212.746 168.401 212.568V201.814C168.401 201.456 168.321 201.217 168.164 201.101C168.009 200.982 167.804 200.925 167.553 200.925C167.412 200.925 167.255 200.935 167.083 200.958L167.02 200.367C167.735 200.245 168.474 200.144 169.242 200.063C170.012 199.979 170.797 199.938 171.595 199.938C171.938 199.938 172.3 199.952 172.678 199.981C173.056 200.01 173.427 200.063 173.791 200.142C174.157 200.222 174.504 200.33 174.833 200.469C175.159 200.608 175.449 200.79 175.695 201.017C175.942 201.242 176.138 201.513 176.285 201.832C176.43 202.151 176.503 202.527 176.503 202.962C176.503 203.428 176.434 203.837 176.293 204.19C176.154 204.544 175.96 204.857 175.715 205.128C175.468 205.4 175.18 205.633 174.851 205.825C174.524 206.017 174.169 206.183 173.789 206.318V206.381C173.969 206.418 174.163 206.473 174.369 206.548C174.575 206.624 174.778 206.73 174.974 206.869C175.172 207.008 175.353 207.186 175.521 207.401C175.688 207.615 175.821 207.879 175.923 208.195L176.716 210.65C176.824 210.987 176.922 211.254 177.012 211.455C177.102 211.655 177.196 211.806 177.296 211.91C177.398 212.015 177.51 212.082 177.639 212.115C177.768 212.147 177.929 212.164 178.121 212.164L178.154 212.72C178.019 212.748 177.87 212.775 177.709 212.801C177.549 212.826 177.39 212.846 177.233 212.861C177.075 212.875 176.934 212.887 176.81 212.899C176.685 212.912 176.591 212.916 176.526 212.916C176.297 212.916 176.093 212.889 175.913 212.834C175.735 212.781 175.574 212.689 175.431 212.556C175.29 212.423 175.161 212.25 175.051 212.031C174.939 211.814 174.839 211.541 174.747 211.212L173.985 208.596C173.877 208.224 173.75 207.928 173.601 207.705C173.45 207.484 173.262 207.315 173.039 207.196C172.815 207.078 172.543 207 172.224 206.959C171.908 206.92 171.522 206.894 171.074 206.88L170.968 206.264Z" fill="#FFD700"/>
    <path d="M182.543 206.931C183.115 206.888 183.62 206.802 184.061 206.674C184.5 206.545 184.87 206.357 185.17 206.11C185.468 205.862 185.697 205.552 185.85 205.172C186.003 204.794 186.079 204.332 186.079 203.788C186.079 203.316 186.001 202.893 185.844 202.523C185.687 202.151 185.468 201.839 185.193 201.585C184.913 201.33 184.578 201.138 184.19 201.005C183.802 200.874 183.375 200.807 182.909 200.807C182.588 200.807 182.345 200.827 182.182 200.866C182.016 200.905 181.935 201.042 181.935 201.279V212.409C181.935 212.581 181.849 212.681 181.677 212.71C181.555 212.73 181.422 212.751 181.277 212.769C181.13 212.787 180.987 212.802 180.848 212.812C180.709 212.822 180.578 212.83 180.462 212.832C180.344 212.837 180.256 212.839 180.201 212.839C180.029 212.839 179.943 212.749 179.943 212.571V201.839C179.943 201.475 179.864 201.234 179.706 201.115C179.551 200.997 179.347 200.938 179.096 200.938C178.955 200.938 178.797 200.948 178.626 200.97L178.562 200.38C179.192 200.271 179.874 200.171 180.609 200.079C181.344 199.987 182.174 199.94 183.095 199.94C183.518 199.94 183.938 199.961 184.359 200C184.782 200.041 185.182 200.108 185.566 200.21C185.948 200.31 186.306 200.443 186.637 200.607C186.97 200.772 187.258 200.983 187.501 201.24C187.742 201.498 187.934 201.802 188.072 202.158C188.211 202.513 188.283 202.924 188.283 203.396C188.283 204.14 188.126 204.769 187.813 205.284C187.499 205.797 187.08 206.218 186.559 206.543C186.036 206.868 185.436 207.109 184.757 207.266C184.079 207.423 183.375 207.517 182.648 207.544L182.543 206.931Z" fill="#FFD700"/>
    <path d="M0 361.213H6.54422C10.1969 361.213 12.6744 361.361 13.9757 361.655C15.9278 362.096 17.517 363.048 18.7444 364.513C19.9718 365.976 20.586 367.775 20.586 369.908C20.586 371.703 20.164 373.27 19.3211 374.609C18.4782 375.947 17.2695 376.966 15.6941 377.665C14.1187 378.364 12.7552 378.712 11.6017 378.712L21.0296 393.939H16.9925L7.5646 378.712H3.28295V393.939H0V361.213ZM3.28295 364.414V375.536L8.93989 375.581C11.1285 375.581 12.7513 375.375 13.8091 374.963C14.866 374.551 15.6872 373.888 16.2718 372.977C16.8555 372.065 17.1483 371.042 17.1483 369.909C17.1483 368.821 16.8486 367.828 16.2501 366.93C15.6517 366.033 14.8709 365.389 13.9097 364.999C12.9484 364.609 11.3365 364.414 9.07397 364.414H3.28295Z" fill="#575756"/>
    <path d="M38.5761 368.584C42.3174 368.584 45.4229 369.93 47.8926 372.622C50.1699 375.08 51.3086 378 51.3086 381.383C51.3382 389.74 51.3382 393.985 51.3086 394.117C49.889 394.117 48.7867 394.117 48.003 394.117C48.003 394.015 48.003 392.182 48.003 388.621C46.2728 391.829 43.1298 393.623 38.5751 394.006C34.8485 394.006 31.8051 392.745 29.4469 390.221C27.0877 387.699 25.9086 384.752 25.9086 381.382C25.9086 378.028 27.0256 375.115 29.2586 372.644C31.7292 369.938 34.8347 368.584 38.5761 368.584ZM38.5761 371.629C35.9881 371.629 33.762 372.586 31.8997 374.498C30.0364 376.411 29.1048 378.721 29.1048 381.427C29.1048 383.178 29.5297 384.814 30.3805 386.337C31.2303 387.86 32.3798 389.029 33.8301 389.846C35.2793 390.662 36.8616 391.07 38.577 391.07C44.1226 390.512 47.236 387.296 47.9162 381.427C47.9162 378.72 47.0072 376.411 45.1873 374.498C43.3674 372.586 41.164 371.629 38.5761 371.629Z" fill="#575756"/>
    <path d="M58.4743 359.823C59.1841 359.823 59.7943 360.073 60.304 360.574C60.8137 361.074 61.0691 361.677 61.0691 362.383C61.0691 363.09 60.8137 363.696 60.304 364.203C59.7934 364.711 59.1831 364.964 58.4743 364.964C57.7644 364.964 57.1581 364.71 56.6553 364.203C56.1525 363.695 55.9011 363.089 55.9011 362.383C55.9011 361.677 56.1525 361.074 56.6553 360.574C57.1581 360.073 57.7644 359.823 58.4743 359.823ZM56.9215 369.776H60.0497V393.985H56.9215V369.776Z" fill="#575756"/>
    <path d="M78.7497 371.85L76.7533 373.925C75.0674 372.306 73.4329 371.496 71.8505 371.496C70.8302 371.496 69.9577 371.828 69.2331 372.49C68.5084 373.152 68.1456 373.939 68.1456 374.851C68.1456 375.616 68.4483 376.351 69.0546 377.057C69.6461 377.809 70.8962 378.669 72.8039 379.64C75.1404 380.831 76.7227 381.987 77.5509 383.105C78.3642 384.237 78.7714 385.509 78.7714 386.923C78.7714 388.894 78.0724 390.567 76.6754 391.942C75.2784 393.318 73.5295 394.006 71.4296 394.006C70.0247 394.006 68.6819 393.708 67.4033 393.112C66.1236 392.516 65.0707 391.681 64.2416 390.606L66.2163 388.378C67.8134 390.174 69.5061 391.07 71.2955 391.07C72.5377 391.07 73.5985 390.67 74.4789 389.868C75.3583 389.067 75.799 388.128 75.799 387.054C75.799 386.157 75.5111 385.362 74.9344 384.67C74.3576 383.979 73.0484 383.111 71.0076 382.067C68.8042 380.964 67.3106 379.852 66.5268 378.734C65.7283 377.647 65.329 376.395 65.329 374.984C65.329 373.145 65.9619 371.618 67.2258 370.405C68.4907 369.191 70.077 368.584 71.9846 368.584C74.2166 368.584 76.4713 369.673 78.7497 371.85Z" fill="#575756"/>
    <path d="M95.7638 368.584C99.5052 368.584 102.611 369.93 105.08 372.622C107.358 375.08 108.496 378 108.496 381.383C108.526 389.74 108.526 393.985 108.496 394.117C107.077 394.117 105.974 394.117 105.191 394.117C105.191 394.015 105.191 392.182 105.191 388.621C103.461 391.829 100.318 393.623 95.7628 394.006C92.0362 394.006 88.9928 392.745 86.6346 390.221C84.2754 387.699 83.0963 384.752 83.0963 381.382C83.0963 378.028 84.2133 375.115 86.4463 372.644C88.9159 369.938 92.0214 368.584 95.7638 368.584ZM95.7638 371.629C93.1759 371.629 90.9498 372.586 89.0875 374.498C87.2242 376.411 86.2925 378.721 86.2925 381.427C86.2925 383.178 86.7174 384.814 87.5682 386.337C88.4181 387.86 89.5676 389.029 91.0178 389.846C92.467 390.662 94.0494 391.07 95.7648 391.07C101.31 390.512 104.424 387.296 105.104 381.427C105.104 378.72 104.195 376.411 102.375 374.498C100.555 372.586 98.3517 371.629 95.7638 371.629Z" fill="#575756"/>
    <path d="M127.241 361.126H133.786C137.557 361.126 140.092 361.288 141.395 361.611C143.288 362.082 144.824 363.031 146.009 364.458C147.192 365.885 147.783 367.687 147.783 369.865C147.783 372.027 147.202 373.818 146.042 375.238C144.881 376.657 143.281 377.61 141.239 378.095C139.745 378.448 136.957 378.625 132.876 378.625H130.524V393.851H127.241V361.126ZM130.524 364.304V375.425L136.114 375.491C138.347 375.491 139.985 375.29 141.028 374.885C142.071 374.481 142.891 373.818 143.491 372.899C144.09 371.98 144.39 370.968 144.39 369.865C144.39 368.746 144.09 367.731 143.491 366.819C142.892 365.907 142.104 365.26 141.128 364.878C140.152 364.496 138.555 364.305 136.337 364.305H130.524V364.304Z" fill="#575756"/>
    <path d="M165.307 368.584C169.049 368.584 172.153 369.93 174.624 372.622C176.901 375.08 178.04 378 178.04 381.383C178.069 389.74 178.069 393.985 178.04 394.117C176.62 394.117 175.518 394.117 174.734 394.117C174.734 394.015 174.734 392.182 174.734 388.621C173.004 391.829 169.861 393.623 165.306 394.006C161.58 394.006 158.536 392.745 156.177 390.221C153.818 387.699 152.639 384.752 152.639 381.382C152.639 378.028 153.756 375.115 155.989 372.644C158.459 369.938 161.565 368.584 165.307 368.584ZM165.307 371.629C162.718 371.629 160.493 372.586 158.63 374.498C156.767 376.411 155.835 378.721 155.835 381.427C155.835 383.178 156.26 384.814 157.111 386.337C157.96 387.86 159.11 389.029 160.56 389.846C162.009 390.662 163.591 391.07 165.307 391.07C170.853 390.512 173.965 387.296 174.646 381.427C174.646 378.72 173.736 376.411 171.917 374.498C170.098 372.586 167.894 371.629 165.307 371.629Z" fill="#575756"/>
    <path d="M181.811 369.821H185.138L193.279 387.431L201.353 369.821H204.702L193.567 394.03H193.012L181.811 369.821Z" fill="#575756"/>
    <path d="M208.987 360.42H212.136V393.986H208.987V360.42Z" fill="#575756"/>
    <path d="M230.104 368.584C233.845 368.584 236.95 369.93 239.42 372.622C241.653 375.095 242.769 378.014 242.769 381.383C242.769 384.753 241.586 387.699 239.219 390.222C236.853 392.746 233.815 394.007 230.103 394.007C226.376 394.007 223.333 392.746 220.974 390.222C218.614 387.699 217.435 384.753 217.435 381.383C217.435 378.029 218.552 375.116 220.784 372.645C223.256 369.938 226.362 368.584 230.104 368.584ZM230.104 371.629C227.515 371.629 225.29 372.586 223.426 374.498C221.563 376.411 220.631 378.721 220.631 381.427C220.631 383.178 221.056 384.814 221.907 386.337C222.757 387.86 223.907 389.029 225.357 389.846C226.806 390.662 228.387 391.07 230.104 391.07C231.849 391.07 233.442 390.662 234.884 389.846C236.326 389.029 237.468 387.86 238.312 386.337C239.154 384.814 239.576 383.178 239.576 381.427C239.576 378.72 238.644 376.411 236.781 374.498C234.917 372.586 232.691 371.629 230.104 371.629Z" fill="#575756"/>
    <path d="M246.231 369.821H249.558L257.7 387.431L265.774 369.821H269.123L257.987 394.03H257.432L246.231 369.821Z" fill="#575756"/>
    <path d="M273.871 384.804L273.826 382.222C273.782 380.957 273.834 379.883 273.982 379C274.306 376.22 275.017 374.183 276.111 372.888C277.175 371.755 278.263 370.88 279.372 370.262C281.206 369.482 283.299 369.114 285.65 369.158C287.483 369.158 289.18 369.618 290.741 370.537C292.301 371.457 293.414 372.692 294.08 374.245C294.746 375.796 295.078 378.228 295.078 381.538V393.984H291.973V382.443C291.973 379.648 291.855 377.779 291.618 376.838C291.249 375.234 290.517 374.097 289.422 373.428C288.327 372.758 286.708 372.424 284.563 372.424C282.671 372.424 280.985 372.969 279.506 374.057C278.027 375.146 277.339 376.632 277.443 378.515C277.162 379.721 277.021 381.921 277.021 385.113V393.985H273.871V384.804Z" fill="#575756"/>
    <path d="M313.245 368.584C316.987 368.584 320.091 369.93 322.562 372.622C324.839 375.08 325.978 378 325.978 381.383C326.007 389.74 326.007 393.985 325.978 394.117C324.558 394.117 323.456 394.117 322.672 394.117C322.672 394.015 322.672 392.182 322.672 388.621C320.942 391.829 317.799 393.623 313.244 394.006C309.518 394.006 306.474 392.745 304.115 390.221C301.756 387.699 300.577 384.752 300.577 381.382C300.577 378.028 301.694 375.115 303.926 372.644C306.397 369.938 309.504 368.584 313.245 368.584ZM313.245 371.629C310.656 371.629 308.431 372.586 306.568 374.498C304.705 376.411 303.773 378.721 303.773 381.427C303.773 383.178 304.198 384.814 305.049 386.337C305.899 387.86 307.048 389.029 308.498 389.846C309.948 390.662 311.529 391.07 313.245 391.07C318.791 390.512 321.903 387.296 322.585 381.427C322.585 378.72 321.675 376.411 319.856 374.498C318.037 372.586 315.832 371.629 313.245 371.629Z" fill="#575756"/>
    <path d="M105.957 436.503C105.026 437.021 104.007 437.455 102.895 437.811C101.785 438.167 100.7 438.455 99.6331 438.666C98.5665 438.877 97.5739 439.034 96.6528 439.133C95.7317 439.231 94.9849 439.281 94.4122 439.281C91.9425 439.281 89.6876 438.868 87.6474 438.039C85.6072 437.211 83.8581 436.069 82.4002 434.609C80.9422 433.149 79.8088 431.414 79.0047 429.403C78.2005 427.393 77.7972 425.192 77.7972 422.807C77.7972 420.224 78.253 417.938 79.1669 415.941C80.0808 413.947 81.3431 412.269 82.9514 410.909C84.5621 409.546 86.4686 408.514 88.6687 407.809C90.8687 407.106 93.2597 406.755 95.8368 406.755C97.2852 406.755 98.6715 406.85 99.9982 407.035C101.323 407.223 102.611 407.45 103.864 407.716C104.024 407.752 104.155 407.828 104.253 407.944C104.351 408.06 104.408 408.182 104.427 408.303C104.444 408.552 104.468 408.872 104.494 409.264C104.52 409.656 104.544 410.081 104.561 410.532C104.577 410.985 104.601 411.45 104.627 411.92C104.654 412.393 104.678 412.829 104.694 413.231C104.711 413.632 104.725 413.974 104.735 414.258C104.742 414.543 104.747 414.721 104.747 414.795L103.403 414.928C103.296 413.824 102.969 412.891 102.423 412.124C101.876 411.36 101.201 410.741 100.397 410.268C99.5902 409.798 98.7001 409.454 97.7242 409.24C96.7482 409.024 95.7795 408.917 94.8107 408.917C92.8612 408.917 91.1646 409.24 89.7233 409.879C88.2821 410.522 87.0843 411.408 86.1274 412.535C85.1706 413.667 84.4523 415.001 83.9798 416.542C83.505 418.083 83.2687 419.761 83.2687 421.577C83.2687 423.697 83.5599 425.669 84.1397 427.492C84.7195 429.315 85.5929 430.899 86.7573 432.233C87.9194 433.569 89.3702 434.618 91.1073 435.383C92.8421 436.147 94.8751 436.529 97.2016 436.529C98.5975 436.529 99.9481 436.38 101.256 436.078C102.561 435.774 103.888 435.366 105.229 434.849L105.957 436.503Z" fill="#575756"/>
    <path d="M107.837 404.027C109.806 403.493 111.423 403.116 112.695 402.892C113.967 402.669 114.726 402.558 114.979 402.558C115.551 402.558 115.838 402.878 115.838 403.517V437.783C115.838 438.21 115.623 438.459 115.193 438.53C114.89 438.582 114.564 438.632 114.213 438.677C113.862 438.722 113.528 438.756 113.206 438.784C112.884 438.81 112.588 438.829 112.321 438.836C112.051 438.846 111.846 438.851 111.702 438.851C111.273 438.851 111.058 438.628 111.058 438.184V407.683C111.058 406.74 110.906 406.095 110.602 405.748C110.299 405.401 109.798 405.228 109.099 405.228C108.758 405.228 108.393 405.254 107.999 405.307L107.837 404.027Z" fill="#575756"/>
    <path d="M139.754 436.237C138.895 436.648 137.991 437.026 137.044 437.372C136.096 437.719 135.168 438.018 134.264 438.267C133.362 438.516 132.519 438.709 131.742 438.841C130.961 438.977 130.312 439.041 129.794 439.041C128.346 439.041 127.06 438.77 125.943 438.227C124.826 437.683 123.884 436.964 123.123 436.064C122.362 435.164 121.784 434.129 121.39 432.952C120.997 431.775 120.799 430.557 120.799 429.292C120.799 427.656 121.102 426.165 121.712 424.819C122.321 423.476 123.149 422.327 124.196 421.375C125.244 420.423 126.466 419.682 127.862 419.155C129.258 418.631 130.735 418.37 132.29 418.37C133.309 418.37 134.214 418.524 135.001 418.835C135.789 419.148 136.449 419.576 136.989 420.117C137.526 420.66 137.936 421.316 138.225 422.08C138.511 422.844 138.654 423.682 138.654 424.591C138.654 425.375 138.502 426.353 138.199 427.528L125.58 428.195C125.652 429.318 125.876 430.341 126.251 431.267C126.626 432.192 127.158 432.995 127.847 433.671C128.537 434.348 129.377 434.872 130.37 435.248C131.365 435.62 132.505 435.805 133.794 435.805C134.653 435.805 135.569 435.703 136.545 435.499C137.521 435.295 138.392 435.041 139.163 434.74L139.754 436.237ZM133.796 425.98C133.849 425.731 133.887 425.491 133.903 425.258C133.92 425.026 133.93 424.786 133.93 424.537C133.93 424.038 133.853 423.566 133.703 423.12C133.55 422.673 133.331 422.286 133.044 421.959C132.758 421.631 132.4 421.373 131.971 421.185C131.541 420.997 131.059 420.905 130.522 420.905C129.663 420.905 128.926 421.059 128.308 421.373C127.69 421.684 127.182 422.099 126.778 422.612C126.375 423.129 126.077 423.73 125.879 424.416C125.681 425.102 125.576 425.819 125.557 426.564L133.796 425.98Z" fill="#575756"/>
    <path d="M143.567 420.587C144.498 420.214 145.414 419.885 146.319 419.6C147.223 419.315 148.072 419.077 148.869 418.89C149.666 418.705 150.392 418.56 151.043 418.463C151.695 418.365 152.239 418.315 152.668 418.315C153.957 418.315 155.04 418.463 155.916 418.757C156.792 419.049 157.5 419.517 158.037 420.157C158.576 420.801 158.961 421.613 159.192 422.602C159.424 423.59 159.531 424.779 159.514 426.168L159.378 434.873C159.359 435.423 159.397 435.941 159.486 436.42C159.576 436.902 159.674 437.372 159.781 437.837C159.801 437.856 159.81 437.928 159.81 438.051C159.81 438.317 159.631 438.478 159.271 438.533C159.037 438.585 158.774 438.635 158.479 438.68C158.185 438.725 157.884 438.759 157.579 438.787C157.276 438.813 156.971 438.832 156.667 438.839C156.362 438.849 156.095 438.853 155.861 438.853C155.663 438.853 155.515 438.801 155.417 438.694C155.319 438.588 155.243 438.426 155.188 438.213L154.84 436.931C154.16 437.235 153.463 437.515 152.747 437.771C152.029 438.03 151.346 438.253 150.693 438.438C150.041 438.626 149.447 438.773 148.908 438.88C148.371 438.986 147.932 439.039 147.593 439.039C146.646 439.039 145.822 438.868 145.123 438.519C144.424 438.17 143.851 437.735 143.405 437.208C142.957 436.684 142.627 436.105 142.412 435.473C142.198 434.842 142.09 434.241 142.09 433.672C142.09 432.656 142.274 431.799 142.639 431.094C143.007 430.391 143.503 429.807 144.131 429.346C144.684 428.936 145.333 428.599 146.078 428.331C146.82 428.065 147.638 427.853 148.533 427.701C149.428 427.549 150.394 427.44 151.432 427.367C152.47 427.293 153.563 427.241 154.708 427.208L154.735 426.298C154.754 425.48 154.704 424.746 154.587 424.096C154.47 423.445 154.26 422.897 153.954 422.453C153.649 422.009 153.239 421.67 152.718 421.437C152.198 421.207 151.547 421.09 150.759 421.09C149.795 421.09 148.786 421.197 147.738 421.411C146.693 421.625 145.498 421.945 144.154 422.372L143.567 420.587ZM154.68 429.024C153.837 429.076 153.05 429.128 152.317 429.173C151.585 429.218 150.912 429.285 150.304 429.373C149.695 429.463 149.158 429.6 148.693 429.788C148.228 429.973 147.851 430.237 147.564 430.574C147.349 430.823 147.17 431.134 147.027 431.511C146.884 431.884 146.813 432.295 146.813 432.741C146.813 433.114 146.87 433.496 146.987 433.888C147.104 434.279 147.309 434.64 147.605 434.97C147.901 435.3 148.299 435.571 148.798 435.784C149.297 435.998 149.936 436.105 150.704 436.105C150.812 436.105 150.986 436.088 151.229 436.052C151.47 436.017 151.766 435.96 152.115 435.879C152.463 435.801 152.854 435.689 153.281 435.544C153.711 435.402 154.148 435.224 154.599 435.01L154.68 429.024Z" fill="#575756"/>
    <path d="M163.327 419.998C164.291 419.732 165.181 419.504 165.998 419.319C166.811 419.131 167.529 418.975 168.145 418.851C168.761 418.728 169.267 418.637 169.66 418.585C170.054 418.533 170.314 418.505 170.441 418.505C170.977 418.505 171.273 418.825 171.326 419.466L171.405 420.589C172.228 420.285 173.056 420 173.889 419.734C174.721 419.468 175.514 419.231 176.263 419.027C177.014 418.823 177.704 418.664 178.332 418.547C178.957 418.431 179.484 418.374 179.914 418.374C180.935 418.374 181.806 418.533 182.531 418.854C183.259 419.174 183.853 419.618 184.319 420.19C184.781 420.76 185.123 421.448 185.337 422.26C185.555 423.069 185.662 423.964 185.662 424.945L185.526 437.789C185.526 438.217 185.311 438.466 184.882 438.537C184.595 438.589 184.276 438.639 183.93 438.684C183.581 438.73 183.24 438.763 182.908 438.791C182.577 438.817 182.271 438.836 181.994 438.843C181.718 438.851 181.517 438.858 181.391 438.858C180.961 438.858 180.744 438.635 180.744 438.191L180.88 427.561V427.16C180.88 426.198 180.804 425.355 180.651 424.636C180.498 423.917 180.243 423.304 179.887 422.806C179.53 422.307 179.062 421.935 178.492 421.683C177.919 421.436 177.203 421.31 176.344 421.31C176.022 421.31 175.418 421.398 174.53 421.576C173.645 421.754 172.602 422.103 171.402 422.616V437.787C171.402 438.214 171.187 438.464 170.758 438.535C170.472 438.587 170.154 438.637 169.806 438.682C169.457 438.727 169.116 438.76 168.785 438.789C168.453 438.815 168.147 438.834 167.871 438.841C167.594 438.848 167.393 438.855 167.267 438.855C166.837 438.855 166.623 438.632 166.623 438.188V423.632C166.623 422.69 166.47 422.044 166.167 421.697C165.862 421.351 165.379 421.175 164.719 421.175C164.54 421.175 164.356 421.18 164.17 421.189C163.981 421.199 163.752 421.23 163.485 421.282L163.327 419.998Z" fill="#575756"/>
    <path d="M189.606 419.998C190.57 419.732 191.465 419.504 192.29 419.319C193.114 419.132 193.841 418.975 194.478 418.852C195.113 418.726 195.631 418.638 196.034 418.586C196.438 418.533 196.7 418.505 196.826 418.505C197.397 418.505 197.683 418.825 197.683 419.466V437.787C197.683 438.215 197.468 438.464 197.039 438.535C196.733 438.587 196.407 438.637 196.058 438.682C195.71 438.727 195.376 438.761 195.051 438.789C194.729 438.815 194.433 438.834 194.166 438.841C193.899 438.849 193.693 438.856 193.548 438.856C193.118 438.856 192.904 438.632 192.904 438.189V423.632C192.904 422.69 192.751 422.044 192.448 421.698C192.142 421.351 191.67 421.176 191.023 421.176C190.828 421.176 190.634 421.18 190.448 421.19C190.26 421.199 190.031 421.23 189.763 421.282L189.606 419.998ZM197.845 410.197C197.845 411.158 197.592 411.854 197.082 412.281C196.571 412.708 195.834 412.922 194.867 412.922C194.061 412.922 193.443 412.682 193.016 412.2C192.584 411.721 192.369 411.054 192.369 410.197C192.369 409.238 192.632 408.547 193.161 408.129C193.691 407.709 194.436 407.5 195.402 407.5C196.208 407.5 196.817 407.737 197.227 408.207C197.64 408.68 197.845 409.342 197.845 410.197Z" fill="#575756"/>
    <path d="M201.903 419.998C202.867 419.732 203.757 419.504 204.573 419.319C205.386 419.131 206.105 418.975 206.72 418.851C207.336 418.728 207.842 418.637 208.235 418.585C208.629 418.533 208.889 418.505 209.016 418.505C209.553 418.505 209.849 418.825 209.901 419.466L209.98 420.589C210.803 420.285 211.631 420 212.464 419.734C213.297 419.468 214.089 419.231 214.838 419.027C215.59 418.823 216.279 418.664 216.907 418.547C217.532 418.431 218.059 418.374 218.489 418.374C219.51 418.374 220.381 418.533 221.106 418.854C221.834 419.174 222.428 419.618 222.894 420.19C223.357 420.76 223.698 421.448 223.913 422.26C224.13 423.069 224.237 423.964 224.237 424.945L224.101 437.789C224.101 438.217 223.886 438.466 223.457 438.537C223.17 438.589 222.851 438.639 222.505 438.684C222.156 438.73 221.815 438.763 221.483 438.791C221.152 438.817 220.846 438.836 220.57 438.843C220.293 438.851 220.092 438.858 219.966 438.858C219.536 438.858 219.319 438.635 219.319 438.191L219.455 427.561V427.16C219.455 426.198 219.379 425.355 219.226 424.636C219.073 423.917 218.818 423.304 218.463 422.806C218.105 422.307 217.637 421.935 217.067 421.683C216.494 421.436 215.778 421.31 214.919 421.31C214.597 421.31 213.993 421.398 213.106 421.576C212.22 421.754 211.178 422.103 209.977 422.616V437.787C209.977 438.214 209.763 438.464 209.333 438.535C209.047 438.587 208.729 438.637 208.381 438.682C208.033 438.727 207.691 438.76 207.36 438.789C207.028 438.815 206.723 438.834 206.446 438.841C206.169 438.848 205.969 438.855 205.842 438.855C205.413 438.855 205.198 438.632 205.198 438.188V423.632C205.198 422.69 205.045 422.044 204.742 421.697C204.437 421.351 203.955 421.175 203.294 421.175C203.115 421.175 202.931 421.18 202.745 421.189C202.556 421.199 202.327 421.23 202.06 421.282L201.903 419.998Z" fill="#575756"/>
    <path d="M245.149 421.04C245.703 421.664 246.127 422.353 246.423 423.108C246.717 423.865 246.867 424.67 246.867 425.527C246.867 426.683 246.638 427.737 246.182 428.677C245.727 429.621 245.082 430.431 244.25 431.107C243.414 431.784 242.426 432.309 241.284 432.684C240.138 433.056 238.876 433.242 237.497 433.242C236.368 433.242 235.449 433.128 234.733 432.895C234.464 433.234 234.199 433.571 233.941 433.908C233.681 434.248 233.552 434.595 233.552 434.951C233.552 435.378 233.798 435.71 234.292 435.952C234.784 436.192 235.382 436.375 236.089 436.498C236.797 436.624 237.542 436.703 238.329 436.74C239.117 436.776 239.816 436.793 240.424 436.793C241.515 436.793 242.603 436.862 243.686 437.006C244.767 437.149 245.739 437.407 246.6 437.78C247.457 438.153 248.156 438.67 248.693 439.328C249.232 439.985 249.499 440.833 249.499 441.866C249.499 442.844 249.27 443.748 248.814 444.576C248.359 445.405 247.764 446.155 247.029 446.831C246.295 447.508 245.459 448.109 244.519 448.636C243.579 449.16 242.617 449.597 241.632 449.944C240.649 450.29 239.687 450.554 238.747 450.732C237.807 450.91 236.979 451 236.263 451C235.421 451 234.526 450.884 233.579 450.653C232.631 450.423 231.758 450.074 230.961 449.611C230.164 449.151 229.503 448.574 228.976 447.888C228.446 447.204 228.183 446.397 228.183 445.471C228.183 444.921 228.276 444.389 228.465 443.881C228.651 443.373 228.899 442.874 229.202 442.385C229.508 441.896 229.863 441.412 230.276 440.93C230.689 440.451 231.118 439.962 231.565 439.463C231.316 439.337 231.078 439.169 230.853 438.955C230.629 438.742 230.436 438.507 230.276 438.248C230.116 437.989 229.985 437.726 229.887 437.46C229.789 437.194 229.739 436.933 229.739 436.686C229.739 436.135 229.987 435.516 230.488 434.83C230.99 434.143 231.815 433.268 232.958 432.199C231.722 431.575 230.76 430.713 230.073 429.61C229.384 428.506 229.038 427.278 229.038 425.923C229.038 424.8 229.267 423.775 229.722 422.837C230.178 421.902 230.822 421.107 231.658 420.447C232.49 419.789 233.474 419.276 234.609 418.913C235.745 418.548 237.003 418.367 238.38 418.367C239.453 418.367 240.446 418.5 241.36 418.766C242.274 419.034 243.078 419.4 243.777 419.863C245.514 419.416 246.874 419.079 247.857 418.847C248.841 418.614 249.459 418.5 249.709 418.5C250.21 418.5 250.461 418.766 250.461 419.302C250.461 419.642 250.442 419.988 250.408 420.342C250.37 420.698 250.327 421.083 250.272 421.491L245.149 421.04ZM233.335 440.213C232.87 440.857 232.509 441.426 232.261 441.925C232.011 442.423 231.884 442.974 231.884 443.579C231.884 444.325 232.123 444.959 232.598 445.476C233.07 445.991 233.672 446.411 234.397 446.729C235.122 447.052 235.905 447.275 236.745 447.411C237.585 447.546 238.382 447.61 239.134 447.61C239.742 447.61 240.422 447.548 241.174 447.425C241.923 447.299 242.622 447.09 243.266 446.796C243.913 446.502 244.452 446.11 244.891 445.621C245.33 445.132 245.548 444.512 245.548 443.767C245.548 443.124 245.361 442.613 244.984 442.231C244.61 441.849 244.123 441.555 243.524 441.35C242.923 441.146 242.238 441.011 241.47 440.949C240.701 440.887 239.931 440.857 239.16 440.857C238.749 440.857 238.298 440.847 237.807 440.828C237.313 440.812 236.807 440.776 236.289 440.721C235.769 440.669 235.254 440.6 234.745 440.522C234.235 440.441 233.765 440.339 233.335 440.213ZM238.141 431.055C238.838 431.055 239.441 430.929 239.952 430.683C240.463 430.433 240.88 430.099 241.2 429.681C241.522 429.261 241.763 428.772 241.925 428.211C242.088 427.651 242.169 427.06 242.169 426.436C242.169 425.724 242.083 425.014 241.913 424.311C241.744 423.609 241.479 422.975 241.121 422.415C240.766 421.854 240.303 421.403 239.74 421.066C239.177 420.729 238.508 420.558 237.74 420.558C237.041 420.558 236.442 420.689 235.941 420.945C235.44 421.204 235.027 421.548 234.705 421.975C234.383 422.403 234.146 422.901 233.994 423.471C233.841 424.041 233.765 424.636 233.765 425.261C233.765 425.954 233.843 426.649 234.008 427.343C234.168 428.038 234.423 428.662 234.772 429.213C235.12 429.764 235.573 430.21 236.127 430.55C236.681 430.889 237.353 431.055 238.141 431.055Z" fill="#575756"/>
</svg>