<svg width="34" height="34" viewBox="0 0 34 34" fill="none" xmlns="http://www.w3.org/2000/svg">
    <path d="M27.7667 0H6.23336C4.66936 0.00184167 3.40187 1.26933 3.40002 2.83333V31.1667C3.40187 32.7307 4.66936 33.9982 6.23336 34H27.7667C29.3307 33.9982 30.5982 32.7307 30.6 31.1667V2.83333C30.5982 1.26933 29.3307 0.00184167 27.7667 0ZM11.3334 1.13333H22.6667V2.26667H11.3334V1.13333ZM27.2 3.4V9.06667H6.80002V3.4H27.2ZM29.4667 31.1667C29.4667 32.1056 28.7056 32.8667 27.7667 32.8667H6.23336C5.29446 32.8667 4.53336 32.1056 4.53336 31.1667V2.83333C4.53336 1.89444 5.29446 1.13333 6.23336 1.13333H10.2V2.26667H6.23336C5.92042 2.26667 5.66669 2.52039 5.66669 2.83333V9.63333C5.66669 9.94627 5.92042 10.2 6.23336 10.2H27.7667C28.0796 10.2 28.3334 9.94627 28.3334 9.63333V2.83333C28.3334 2.52039 28.0796 2.26667 27.7667 2.26667H23.8V1.13333H27.7667C28.7056 1.13333 29.4667 1.89444 29.4667 2.83333V31.1667Z" fill="white"/>
    <path d="M17 11.3333C15.4352 11.3333 14.1666 12.6019 14.1666 14.1667C14.1685 15.7307 15.436 16.9982 17 17C18.5647 17 19.8333 15.7314 19.8333 14.1667C19.8333 12.6019 18.5647 11.3333 17 11.3333ZM17 15.8667C16.0611 15.8667 15.3 15.1056 15.3 14.1667C15.3 13.2278 16.0611 12.4667 17 12.4667C17.9389 12.4667 18.7 13.2278 18.7 14.1667C18.7 15.1056 17.9389 15.8667 17 15.8667Z" fill="white"/>
    <path d="M24.3667 11.3333C22.8019 11.3333 21.5333 12.6019 21.5333 14.1667C21.5352 15.7307 22.8027 16.9982 24.3667 17C25.9314 17 27.2 15.7314 27.2 14.1667C27.2 12.6019 25.9314 11.3333 24.3667 11.3333ZM24.3667 15.8667C23.4278 15.8667 22.6667 15.1056 22.6667 14.1667C22.6667 13.2278 23.4278 12.4667 24.3667 12.4667C25.3056 12.4667 26.0667 13.2278 26.0667 14.1667C26.0667 15.1056 25.3056 15.8667 24.3667 15.8667Z" fill="white"/>
    <path d="M9.63338 11.3333C8.0686 11.3333 6.80005 12.6019 6.80005 14.1667C6.80189 15.7307 8.06938 16.9982 9.63338 17C11.1982 17 12.4667 15.7314 12.4667 14.1667C12.4667 12.6019 11.1982 11.3333 9.63338 11.3333ZM9.63338 15.8667C8.69449 15.8667 7.93338 15.1056 7.93338 14.1667C7.93338 13.2278 8.69449 12.4667 9.63338 12.4667C10.5723 12.4667 11.3334 13.2278 11.3334 14.1667C11.3334 15.1056 10.5723 15.8667 9.63338 15.8667Z" fill="white"/>
    <path d="M17 18.1333C15.4352 18.1333 14.1666 19.4019 14.1666 20.9667C14.1685 22.5307 15.436 23.7982 17 23.8C18.5647 23.8 19.8333 22.5314 19.8333 20.9667C19.8333 19.4019 18.5647 18.1333 17 18.1333ZM17 22.6667C16.0611 22.6667 15.3 21.9056 15.3 20.9667C15.3 20.0278 16.0611 19.2667 17 19.2667C17.9389 19.2667 18.7 20.0278 18.7 20.9667C18.7 21.9056 17.9389 22.6667 17 22.6667Z" fill="white"/>
    <path d="M24.3667 18.1333C22.8019 18.1333 21.5333 19.4019 21.5333 20.9667C21.5352 22.5307 22.8027 23.7982 24.3667 23.8C25.9314 23.8 27.2 22.5314 27.2 20.9667C27.2 19.4019 25.9314 18.1333 24.3667 18.1333ZM24.3667 22.6667C23.4278 22.6667 22.6667 21.9056 22.6667 20.9667C22.6667 20.0278 23.4278 19.2667 24.3667 19.2667C25.3056 19.2667 26.0667 20.0278 26.0667 20.9667C26.0667 21.9056 25.3056 22.6667 24.3667 22.6667Z" fill="white"/>
    <path d="M9.63338 18.1333C8.0686 18.1333 6.80005 19.4019 6.80005 20.9667C6.80189 22.5307 8.06938 23.7982 9.63338 23.8C11.1982 23.8 12.4667 22.5314 12.4667 20.9667C12.4667 19.4019 11.1982 18.1333 9.63338 18.1333ZM9.63338 22.6667C8.69449 22.6667 7.93338 21.9056 7.93338 20.9667C7.93338 20.0278 8.69449 19.2667 9.63338 19.2667C10.5723 19.2667 11.3334 20.0278 11.3334 20.9667C11.3334 21.9056 10.5723 22.6667 9.63338 22.6667Z" fill="white"/>
    <path d="M17 24.9333C15.4352 24.9333 14.1666 26.2019 14.1666 27.7667C14.1685 29.3307 15.436 30.5982 17 30.6C18.5647 30.6 19.8333 29.3314 19.8333 27.7667C19.8333 26.2019 18.5647 24.9333 17 24.9333ZM17 29.4667C16.0611 29.4667 15.3 28.7056 15.3 27.7667C15.3 26.8278 16.0611 26.0667 17 26.0667C17.9389 26.0667 18.7 26.8278 18.7 27.7667C18.7 28.7056 17.9389 29.4667 17 29.4667Z" fill="white"/>
    <path d="M9.63338 24.9333C8.0686 24.9333 6.80005 26.2019 6.80005 27.7667C6.80189 29.3307 8.06938 30.5982 9.63338 30.6C11.1982 30.6 12.4667 29.3314 12.4667 27.7667C12.4667 26.2019 11.1982 24.9333 9.63338 24.9333ZM9.63338 29.4667C8.69449 29.4667 7.93338 28.7056 7.93338 27.7667C7.93338 26.8278 8.69449 26.0667 9.63338 26.0667C10.5723 26.0667 11.3334 26.8278 11.3334 27.7667C11.3334 28.7056 10.5723 29.4667 9.63338 29.4667Z" fill="white"/>
    <path d="M26.6333 24.9333H22.1C21.7871 24.9333 21.5333 25.1871 21.5333 25.5V31.1667C21.5333 31.4796 21.7871 31.7333 22.1 31.7333H26.6333C26.9463 31.7333 27.2 31.4796 27.2 31.1667V25.5C27.2 25.1871 26.9463 24.9333 26.6333 24.9333ZM26.0667 30.6H22.6667V26.0667H26.0667V30.6Z" fill="white"/>
    <path d="M23.8 6.8H22.6666V7.93333H23.8V6.8Z" fill="white"/>
    <path d="M26.0667 6.8H24.9333V7.93333H26.0667V6.8Z" fill="white"/>
    <path d="M10.2 5.66667V4.53333H9.06668V5.66667H7.93335V6.8H9.06668V7.93333H10.2V6.8H11.3333V5.66667H10.2Z" fill="white"/>
    <path d="M24.9334 28.9H24.3667C24.0538 28.9 23.8 29.1537 23.8 29.4667C23.8 29.7796 24.0538 30.0333 24.3667 30.0333H24.9334C25.2463 30.0333 25.5 29.7796 25.5 29.4667C25.5 29.1537 25.2463 28.9 24.9334 28.9Z" fill="white"/>
</svg>