<?xml version="1.0" encoding="utf-8"?>
<!-- Generator: Adobe Illustrator 22.1.0, SVG Export Plug-In . SVG Version: 6.00 Build 0)  -->
<svg version="1.1" id="Слой_1" xmlns="http://www.w3.org/2000/svg" xmlns:xlink="http://www.w3.org/1999/xlink" x="0px" y="0px"
	 viewBox="0 0 28.3 28.3" style="enable-background:new 0 0 28.3 28.3;" xml:space="preserve">
<style type="text/css">
	.st0{fill:#575757;}
	.st1{fill:#FBD508;}
	.st2{fill:#FEFEFD;}
</style>
<g>
	<path class="st0" d="M13.4,6.8c0.3-0.7,0.6-1.4,1-2c0.7-1.1,1.5-2,2.5-2.7c0.9-0.6,1.9-0.9,3-0.8c1,0.1,1.9,0.4,2.7,1
		c1,0.7,1.8,1.6,2.4,2.6c1.1,1.7,1.8,3.7,2.2,5.7c0.1,0.3,0.1,0.7,0.2,1c0,0.1,0,0.1-0.1,0.1c-0.4-0.1-0.7,0-1,0.3
		c-0.4,0.3-0.6,0.7-0.9,1.1c-0.5,0.9-0.8,1.9-1,2.9c-0.1,0.7-0.2,1.4-0.2,2.1c0,0.5,0.1,1,0.3,1.5c0,0.1,0.1,0.1,0.1,0.2
		c0.3,0.5,0.7,0.6,1.2,0.3c0.4-0.2,0.6-0.5,0.8-0.8c0.3-0.5,0.6-1.1,0.8-1.7c0-0.1,0-0.1,0.1-0.2c0,0,0,0,0,0
		c-0.1,0.9-0.2,1.8-0.4,2.6c-0.2,0.7-0.4,1.3-0.6,2c0,0.1-0.1,0.1-0.2,0.2c-1,0-2,0.1-3,0.1c-2.2,0.1-4.3,0.2-6.5,0.2
		c-1.1,0-2.1,0.1-3.2,0.1c-0.1,0-0.1,0-0.2-0.1c-0.6-1.4-1-2.9-1.3-4.4c-0.1-0.4-0.1-0.8-0.2-1.3c0-0.1,0-0.1,0-0.2c0,0,0,0,0,0
		c0,0.1,0.1,0.2,0.1,0.3c0.2,0.8,0.5,1.6,1,2.3c0.2,0.3,0.5,0.6,0.8,0.8c0.5,0.2,0.9,0.1,1.2-0.3c0.1-0.1,0.2-0.3,0.2-0.5
		c0.2-0.6,0.2-1.1,0.2-1.7c-0.1-1.4-0.4-2.8-0.9-4.1c-0.2-0.5-0.5-0.9-0.9-1.3c-0.1-0.1-0.3-0.2-0.4-0.3c-0.4-0.2-0.8-0.2-1.2,0.2
		c0-0.3,0.1-0.6,0.1-1c0.1-0.1,0.1-0.1,0.2-0.2c0.5-0.4,1-0.7,1.5-1.1c0.8-0.6,1.6-1.2,2.3-1.9c0.1,0,0.1-0.1,0.2-0.1
		c0,0.3,0,0.7,0.1,1c0,0.2,0.1,0.3,0.1,0.5c0.1,0.7,0.3,1.4,0.6,2.1c0.3,0.6,0.6,1.2,1.2,1.6c0.4,0.3,0.8,0.5,1.3,0.6
		c0.6,0.1,1.2-0.2,1.6-0.6c0.6-0.5,0.9-1.1,1.2-1.8c0.3-0.8,0.5-1.7,0.6-2.6c0.1-1.4-0.1-2.7-0.6-4c-0.3-0.7-0.7-1.4-1.3-1.9
		c-0.8-0.6-1.6-0.8-2.5-0.3c-0.5,0.2-0.8,0.6-1.1,1c-0.5,0.7-0.8,1.4-0.9,2.2c-0.1,0.4-0.2,0.9-0.2,1.3c-0.3,0.2-0.6,0.5-0.9,0.7
		c-0.5,0.4-1,0.8-1.4,1.2c-0.4,0.4-0.9,0.7-1.4,1c-0.1,0.1-0.3,0.2-0.5,0.3c0-0.3,0.1-0.5,0.1-0.8c0.1-0.6,0.3-1.1,0.5-1.7
		c0,0,0,0,0,0c0,0,0,0,0,0C13.3,7.4,13.4,7.1,13.4,6.8z"/>
	<path class="st0" d="M11.5,11.7c-0.1,0.7-0.2,1.5-0.3,2.2c-0.2,1.8-0.5,3.5-0.6,5.3c-0.1,0.7-0.1,1.5-0.2,2.2c0,0.2,0,0.4,0.2,0.5
		c0.2,0.2,0.4,0.5,0.5,0.8c0,0.1,0.1,0.1,0.1,0.1c0.8,0,1.7,0.1,2.5,0.1c0.1,0,0.1,0,0.1,0.1c0.6,0.8,1.4,1.5,2.1,2.2
		c0.3,0.3,0.6,0.5,0.8,0.8c0.1,0.1,0.1,0.1,0.1,0.2c0,0.1,0.1,0.2,0.1,0.3c0.1,0.3-0.1,0.6-0.3,0.9c-0.1,0.1-0.2,0.1-0.3,0.1
		c-0.3-0.1-0.6,0-0.9,0c-0.4,0-0.7,0-1.1,0c-0.4,0-0.8,0-1.2,0c-0.6,0-1.1,0-1.7-0.1c-0.5-0.1-1-0.1-1.4,0c-0.6,0.1-1.2,0.1-1.8,0.1
		c-0.2,0-0.4,0-0.6-0.1c-0.2-0.1-0.4-0.1-0.7-0.1c-0.5,0-1,0.1-1.5,0.2c-0.2,0-0.4,0-0.6,0c-0.5-0.1-1-0.1-1.5,0
		c-0.4,0.1-0.8,0-1.2,0c-0.4,0-0.7-0.1-1.1-0.1c-0.2,0-0.3-0.1-0.3-0.4c0-0.2,0-0.5,0-0.7c0-0.1,0-0.2,0.1-0.3
		c0.9-1,1.7-2.1,2.7-3.1c0.1-0.1,0.2-0.2,0.4-0.2c0.9,0,1.7,0,2.6,0c0.1,0,0.1,0,0.2-0.1c0.4-0.5,0.9-0.8,1.5-1
		c0.1,0,0.1-0.1,0.1-0.2c0-0.4,0-0.7,0.1-1.1c0.1-0.7,0.1-1.5,0.2-2.2c0.1-0.9,0.2-1.9,0.3-2.8c0.1-0.8,0.2-1.6,0.3-2.4
		c0.6-0.4,1.3-0.7,1.9-1.1C11.2,11.8,11.3,11.7,11.5,11.7z M7.9,26.6c0.3,0,0.6,0,1,0c0.1,0,0.3,0,0.4,0c0.5-0.1,0.9-0.1,1.4,0
		c0.3,0,0.7,0,1,0c0.2,0,0.4,0,0.7,0c0.3,0,0.5,0.1,0.8,0c0.5,0,1,0,1.5,0c0.3,0,0.7,0,1,0c0.2,0,0.3,0,0.5,0c0.2,0,0.4,0,0.6,0
		c0.1,0,0.1-0.1,0.1-0.1c0-0.1,0-0.2,0-0.2c0-0.2,0-0.2-0.2-0.2C16,26,15.5,26,15,26c-1.6,0-3.2,0-4.8,0.1c-1.2,0-2.5,0.1-3.7,0.1
		c-1.3,0-2.6,0.1-3.9,0.1c-0.5,0-1,0-1.5-0.1c-0.1,0-0.1,0-0.1,0.1c0,0.1,0,0.2,0,0.3c0,0.1,0,0.1,0.1,0.1c0.2,0,0.4,0,0.7,0
		c0.3,0,0.6,0.1,0.9,0.2c0.5,0.1,1.1,0.1,1.6,0c0.7-0.1,1.5-0.2,2.2-0.2c0.2,0,0.3,0,0.5,0C7.3,26.6,7.6,26.6,7.9,26.6z M1.6,26.7
		c-0.1,0-0.3,0-0.4,0c-0.1,0-0.1,0-0.1,0.1c0,0.2,0,0.3,0.1,0.3c0.1,0,0.2,0,0.3,0c0.7,0.1,1.4,0.1,2.1,0c0.5-0.1,1-0.1,1.4,0.1
		c0.2,0.1,0.4,0.1,0.6,0.1c0.5,0,1.1-0.1,1.6-0.1c0.2,0,0.3,0,0.5,0c0.2,0,0.3,0.1,0.5,0.1c0.5,0,1.1-0.1,1.6-0.1
		c0.7-0.1,1.4-0.1,2.1,0c0.5,0.1,0.9,0.1,1.4,0c0.3,0,0.6,0,0.9,0c0.5,0,1,0,1.6,0c0.2,0,0.4,0,0.6,0c0.2,0,0.3,0,0.3-0.3
		c0-0.1,0-0.1-0.1,0c-0.1,0.1-0.3,0.1-0.4,0c-0.3-0.1-0.6-0.1-0.9,0c-0.2,0-0.4,0-0.6,0c-0.2,0-0.4,0-0.6,0c-0.5,0-1.1,0-1.6,0
		c-0.3,0-0.7-0.1-1,0c-0.1,0-0.3,0-0.4,0c-0.6,0-1.1-0.1-1.7,0c-0.2,0-0.5,0-0.7,0c-0.1,0-0.3,0-0.4,0c-0.3,0-0.5,0.1-0.8,0.1
		C7,27,6.5,27,6,26.8c-0.2-0.1-0.5-0.1-0.7-0.1c-0.5,0-1,0.1-1.5,0.1c-0.4,0-0.8,0-1.3-0.1C2.2,26.7,1.9,26.7,1.6,26.7z M7.3,22.8
		C7.3,22.8,7.3,22.8,7.3,22.8c1.1,0,2.1,0,3.1,0.1c0.1,0,0.1,0,0-0.1c0-0.1-0.1-0.1-0.1-0.2C10,22.3,9.8,22.1,9.5,22
		c-0.2,0-0.4,0-0.6,0C8.3,22.1,7.8,22.4,7.3,22.8z"/>
	<path class="st1" d="M11.5,11.7c-0.1,0-0.2,0.1-0.3,0.2c-0.6,0.4-1.2,0.8-1.9,1.1c-0.4,0.2-0.8,0.4-1.2,0.6c-0.5,0.2-1,0.5-1.5,0.7
		c-0.5,0.2-1,0.4-1.5,0.5c-0.5,0.1-1,0.3-1.6,0.2c-0.5,0-0.9-0.3-1.1-0.8c-0.1-0.5,0-0.9,0.2-1.3c0.1-0.2,0.3-0.5,0.4-0.7
		C2.9,12.1,3,12,3.1,11.9c0.2-0.3,0.5-0.6,0.8-0.9C3.9,11,4,11,3.8,10.9c-0.2-0.1-0.4-0.3-0.6-0.5C3.1,10.2,3,9.9,3,9.6
		c0-0.5,0.3-0.8,0.6-1.2C4,8,4.5,7.7,5,7.4c0.5-0.3,0.9-0.5,1.4-0.7c0.4-0.2,0.8-0.4,1.2-0.5C8,6,8.3,5.9,8.7,5.8
		c0.4-0.1,0.8-0.3,1.1-0.4c0,0,0,0,0,0c0.1,0,0.1-0.1,0.2,0c0.1,0,0,0.1,0,0.2c0,0.1,0,0.1,0,0.2C10,6,10,6,9.8,6.1
		C9.5,6.1,9.3,6.2,9,6.3C8.7,6.4,8.4,6.5,8,6.7C7.6,6.8,7.1,7,6.6,7.3C6.1,7.5,5.7,7.7,5.2,8c-0.5,0.3-1,0.7-1.4,1.2
		C3.7,9.3,3.7,9.5,3.6,9.7c0,0.3,0.1,0.5,0.3,0.6c0.1,0.1,0.3,0.2,0.4,0.2c0.1,0,0.1,0,0.1,0c0.2-0.2,0.5-0.4,0.7-0.6
		c0.2-0.2,0.5-0.4,0.7-0.6c0.3-0.2,0.5-0.4,0.8-0.6C7,8.5,7.2,8.3,7.5,8.2C7.8,8,8,7.8,8.3,7.7c0.3-0.2,0.7-0.4,1-0.6
		C9.4,7,9.6,6.9,9.7,6.9c0,0,0.1,0,0.1,0c0,0,0,0.1,0,0.1c0,0.2-0.1,0.3-0.1,0.5c0,0.1,0,0.2-0.1,0.2C9.2,7.8,8.8,8,8.5,8.3
		c-0.4,0.2-0.7,0.4-1,0.7C7,9.2,6.6,9.5,6.2,9.8c-0.3,0.3-0.6,0.5-0.9,0.8c-0.1,0.1,0,0.1,0,0.1c0.1,0,0.2,0,0.2,0
		c0.4,0,0.8,0,1.1-0.1c0.5-0.1,0.9-0.2,1.4-0.3c0.5-0.2,1-0.3,1.4-0.5c0.1,0,0.1-0.1,0.1-0.1c0,0,0,0,0.1,0c0.6-0.3,1.2-0.7,1.8-1.2
		c0.1-0.1,0.3-0.2,0.3-0.3c0,0,0,0,0.1,0c0.3-0.3,0.6-0.6,0.8-1c0,0,0-0.1,0.1-0.2c0-0.1,0-0.2,0-0.3c0-0.1-0.1-0.1-0.2-0.1
		c-0.1,0-0.2,0-0.3,0c-0.1,0-0.1,0-0.1-0.1c0-0.1,0-0.3,0-0.5c0-0.1,0-0.1,0.1-0.1c0.3,0,0.6,0,0.9,0.2c0.2,0.1,0.2,0.3,0.3,0.5
		c0,0,0,0,0,0.1c0,0.3-0.1,0.6-0.3,0.9c0,0,0,0,0,0c0,0,0,0,0,0c0,0,0,0,0,0c0,0,0,0,0,0c0,0,0,0,0,0c-0.2,0.2-0.4,0.4-0.5,0.6
		c-0.2,0.2-0.5,0.4-0.7,0.7c0,0,0,0,0,0c-0.6,0.4-1.2,0.8-1.9,1.1c-0.1,0-0.2,0.1-0.3,0.2c-0.1,0-0.1,0-0.2,0
		c-0.3,0.1-0.6,0.2-0.9,0.3C8.3,10.9,8,10.9,7.8,11c-0.2,0.1-0.4,0.1-0.6,0.1c-0.3,0-0.5,0.1-0.8,0.1c-0.5,0.1-1,0.1-1.6,0
		c-0.2,0-0.3,0-0.4,0.1c0,0,0,0-0.1,0.1c-0.3,0.2-0.5,0.5-0.7,0.8c-0.2,0.2-0.4,0.5-0.6,0.8c-0.2,0.3-0.3,0.5-0.3,0.8
		c0,0.3,0.1,0.4,0.4,0.5c0.3,0.1,0.5,0.1,0.8,0c0.4-0.1,0.9-0.2,1.3-0.3c0.6-0.2,1.2-0.4,1.8-0.7c0.5-0.2,1-0.4,1.4-0.7
		c0.3-0.2,0.6-0.3,0.8-0.5c0,0,0,0,0.1,0c0.4-0.2,0.7-0.4,1.1-0.7c0.4-0.2,0.7-0.4,1-0.7c0.1-0.1,0.3-0.2,0.4-0.2
		c0.2-0.1,0.4-0.2,0.5-0.4c0.2-0.1,0.3-0.2,0.5-0.3c0.5-0.3,0.9-0.7,1.4-1c0.5-0.4,1-0.8,1.4-1.2c0.3-0.2,0.6-0.5,0.9-0.7
		c0,0,0,0,0,0c0.3-0.3,0.6-0.5,0.9-0.8c0,0,0-0.1,0-0.1c0-0.1,0-0.2,0-0.3c0-0.4,0.1-0.8,0.3-1.2c0.2-0.5,0.4-1,0.8-1.4
		C18.8,3,19,2.9,19.2,2.8c0.3-0.1,0.5-0.1,0.8-0.1c0.2,0,0.3,0.1,0.5,0.2C20.7,3,21,3.3,21.1,3.5c0.2,0.3,0.3,0.6,0.5,0.9
		c0.2,0.4,0.3,0.9,0.3,1.4c0,0.5,0.1,1,0,1.6c-0.1,0.4-0.1,0.7-0.2,1c-0.2,0.6-0.5,1.1-1,1.5c-0.2,0.1-0.3,0.2-0.5,0.3
		c-0.5,0.1-1-0.1-1.4-0.5c-0.4-0.5-0.7-1-0.9-1.6c-0.1-0.3-0.2-0.7-0.2-1.1c0,0,0-0.1,0-0.1c0,0-0.1,0-0.1,0
		c-0.2,0.2-0.5,0.4-0.7,0.6c-0.1,0.1-0.2,0.1-0.3,0.3c-0.1,0-0.1,0.1-0.2,0.1c-0.8,0.6-1.5,1.3-2.3,1.9c-0.5,0.4-1,0.7-1.5,1.1
		c-0.1,0.1-0.2,0.1-0.2,0.2c-0.1,0-0.2,0.1-0.3,0.2C11.8,11.4,11.6,11.5,11.5,11.7z"/>
	<path class="st0" d="M11.9,8.2c-0.1,0.1-0.2,0.2-0.3,0.3C11,8.9,10.3,9.3,9.7,9.6c0,0,0,0-0.1,0C9.8,8.8,9.9,7.9,10,7
		c0.2-1.4,0.4-2.8,0.6-4.2c0.1-0.5,0.2-1,0.2-1.5c0-0.1,0-0.1,0.1-0.1c0.6-0.3,1.2-0.6,1.8-0.8c0.1,0,0.1,0,0.1,0.1
		c-0.1,0.5-0.1,1-0.2,1.4c-0.1,1-0.2,1.9-0.4,2.9C12.1,5.9,12,7,11.9,8.2z"/>
	<path class="st1" d="M12.3,5.1c0-0.2,0.1-0.3,0.1-0.5c0-0.1,0.1-0.1,0.1-0.1c0.4-0.1,0.8-0.3,1.2-0.4C13.9,4,14.2,4,14.4,3.9
		c0.1,0,0.2,0,0.3,0c0,0,0.1,0,0.1,0c0,0.1,0,0.1-0.1,0.1c-0.2,0.1-0.3,0.2-0.5,0.3c-0.5,0.3-1,0.4-1.5,0.6
		C12.7,5.1,12.5,5.1,12.3,5.1C12.3,5.2,12.3,5.2,12.3,5.1z"/>
	<path class="st2" d="M13.1,7.7C13.1,7.7,13.1,7.7,13.1,7.7C13.1,7.7,13.1,7.7,13.1,7.7C13.1,7.7,13.1,7.7,13.1,7.7
		C13.1,7.7,13.1,7.7,13.1,7.7z"/>
	<path class="st2" d="M7.9,26.6c-0.3,0-0.6,0-0.9,0c-0.2,0-0.3,0-0.5,0c-0.7,0-1.5,0.1-2.2,0.2c-0.5,0.1-1.1,0.1-1.6,0
		c-0.3-0.1-0.6-0.1-0.9-0.2c-0.2,0-0.4,0-0.7,0c-0.1,0-0.1,0-0.1-0.1c0-0.1,0-0.2,0-0.3c0-0.1,0-0.1,0.1-0.1c0.5,0.1,1,0.1,1.5,0.1
		c1.3,0,2.6,0,3.9-0.1c1.2,0,2.5-0.1,3.7-0.1C11.8,26,13.4,26,15,26c0.5,0,1,0,1.5,0.1c0.2,0,0.2,0,0.2,0.2c0,0.1,0,0.2,0,0.2
		c0,0.1,0,0.1-0.1,0.1c-0.2,0-0.4,0.1-0.6,0c-0.2,0-0.3,0-0.5,0c-0.3,0-0.7,0-1,0c-0.5,0-1,0-1.5,0c-0.3,0-0.5,0-0.8,0
		c-0.2,0-0.4,0-0.7,0c-0.3,0-0.7,0-1,0c-0.5,0-0.9,0-1.4,0c-0.1,0-0.3,0-0.4,0C8.6,26.6,8.2,26.6,7.9,26.6z"/>
	<path class="st2" d="M1.6,26.7c0.3,0,0.6,0.1,0.9,0.1c0.4,0.1,0.8,0.1,1.3,0.1c0.5,0,1-0.1,1.5-0.1c0.2,0,0.5,0,0.7,0.1
		C6.5,27,7,27,7.5,27c0.3,0,0.5-0.1,0.8-0.1c0.1,0,0.3,0,0.4,0c0.2,0,0.5,0,0.7,0c0.6-0.1,1.1,0,1.7,0c0.1,0,0.3,0,0.4,0
		c0.3,0,0.7,0,1,0c0.5,0,1.1,0,1.6,0c0.2,0,0.4,0,0.6,0c0.2,0,0.4,0,0.6,0c0.3-0.1,0.6,0,0.9,0c0.1,0,0.3,0,0.4,0c0,0,0.1,0,0.1,0
		c0,0.2-0.1,0.3-0.3,0.3c-0.2,0-0.4,0-0.6,0c-0.5,0-1,0-1.6,0c-0.3,0-0.6,0-0.9,0c-0.5,0-0.9,0-1.4,0c-0.7-0.1-1.4,0-2.1,0
		c-0.5,0.1-1.1,0.1-1.6,0.1c-0.2,0-0.3,0-0.5-0.1c-0.2,0-0.3-0.1-0.5,0c-0.5,0-1.1,0.1-1.6,0.1c-0.2,0-0.4,0-0.6-0.1
		c-0.5-0.1-1-0.1-1.4-0.1c-0.7,0.1-1.4,0-2.1,0c-0.1,0-0.2,0-0.3,0c-0.1,0-0.1-0.1-0.1-0.3c0-0.1,0.1-0.1,0.1-0.1
		C1.3,26.7,1.4,26.7,1.6,26.7z"/>
	<path class="st2" d="M7.3,22.8c0.5-0.4,1-0.6,1.7-0.7c0.2,0,0.4,0,0.6,0c0.3,0,0.6,0.3,0.8,0.5c0.1,0.1,0.1,0.1,0.1,0.2
		c0,0.1,0.1,0.1,0,0.1C9.3,22.8,8.3,22.8,7.3,22.8C7.3,22.8,7.3,22.8,7.3,22.8z"/>
	<path class="st0" d="M9.4,12.2c0-0.3,0.1-0.7,0.1-1c0-0.3,0.1-0.5,0.1-0.8c0.1-0.1,0.2-0.1,0.3-0.2c0.7-0.3,1.3-0.7,1.9-1.1
		c0,0,0,0,0,0c0,0.5-0.1,0.9-0.1,1.4c0,0.1,0,0.3,0,0.4c-0.3,0.2-0.7,0.5-1,0.7C10.1,11.8,9.8,12,9.4,12.2
		C9.4,12.2,9.4,12.2,9.4,12.2z"/>
</g>
</svg>
