<?xml version="1.0" encoding="utf-8"?>
<!-- Generator: Adobe Illustrator 22.1.0, SVG Export Plug-In . SVG Version: 6.00 Build 0)  -->
<svg version="1.1" id="Слой_1" xmlns="http://www.w3.org/2000/svg" xmlns:xlink="http://www.w3.org/1999/xlink" x="0px" y="0px"
	 viewBox="0 0 28.3 28.3" style="enable-background:new 0 0 28.3 28.3;" xml:space="preserve">
<style type="text/css">
	.st0{fill:#FDD601;}
	.st1{fill:#575757;}
	.st2{fill:#FDD602;}
	.st3{fill:#FDD603;}
	.st4{fill:#FDD604;}
	.st5{fill:#FCD505;}
	.st6{fill:#FCD603;}
	.st7{fill:#FCD605;}
	.st8{fill:#FCD604;}
	.st9{fill:#FCD506;}
	.st10{fill:#FCD606;}
	.st11{fill:#FDD505;}
	.st12{fill:#FBD605;}
	.st13{fill:#575756;}
	.st14{fill:#FBD608;}
	.st15{fill:#FBD508;}
	.st16{fill:#FCD507;}
	.st17{fill:#FBD506;}
	.st18{fill:#565756;}
	.st19{fill:#565757;}
	.st20{fill:#575755;}
	.st21{fill:#555853;}
	.st22{fill:#595655;}
	.st23{fill:#585657;}
	.st24{fill:#595755;}
	.st25{fill:#585655;}
	.st26{fill:#585658;}
	.st27{fill:#5A5754;}
	.st28{fill:#FBD50A;}
	.st29{fill:#E1D162;}
	.st30{fill:#F8EEA1;}
	.st31{fill:#F3E67E;}
	.st32{fill:#F8E777;}
	.st33{fill:#F7E893;}
	.st34{fill:#F8EA87;}
	.st35{fill:#F4E675;}
	.st36{fill:#F6E37E;}
	.st37{fill:#F5E58C;}
	.st38{fill:#F8E884;}
	.st39{fill:#F6EB92;}
	.st40{fill:#F4DE58;}
	.st41{fill:#F7E26B;}
	.st42{fill:#F6E676;}
	.st43{fill:#F3E58C;}
	.st44{fill:#F6E072;}
	.st45{fill:#F8E477;}
	.st46{fill:#F3E27C;}
	.st47{fill:#EDE178;}
	.st48{fill:#EEDF62;}
	.st49{fill:#F8E77E;}
	.st50{fill:#F7E678;}
	.st51{fill:#F6EC8B;}
	.st52{fill:#F0DF6C;}
	.st53{fill:#F6E381;}
	.st54{fill:#F3EE9C;}
	.st55{fill:#F4E067;}
	.st56{fill:#F1E685;}
	.st57{fill:#F6E77D;}
	.st58{fill:#F7E46D;}
	.st59{fill:#F6E375;}
	.st60{fill:#F5DF62;}
	.st61{fill:#F6E57F;}
	.st62{fill:#F5EA8A;}
	.st63{fill:#F7E487;}
	.st64{fill:#F7E278;}
	.st65{fill:#F9F08F;}
	.st66{fill:#F7E787;}
	.st67{fill:#F6E384;}
	.st68{fill:#F5E667;}
	.st69{fill:#F2E77E;}
	.st70{fill:#F6E883;}
	.st71{fill:#F2E583;}
	.st72{fill:#F1E27A;}
	.st73{fill:#F5E764;}
	.st74{fill:#F4E260;}
	.st75{fill:#F7E77E;}
	.st76{fill:#F6E87E;}
	.st77{fill:#FAE88A;}
	.st78{fill:#F4E581;}
	.st79{fill:#F8E476;}
	.st80{fill:#F7EB78;}
	.st81{fill:#F6E67A;}
	.st82{fill:#F6E37C;}
	.st83{fill:#F9E77F;}
	.st84{fill:#F7E97E;}
	.st85{fill:#F6E36E;}
	.st86{fill:#F9E673;}
	.st87{fill:#F5E069;}
	.st88{fill:#F7EA98;}
	.st89{fill:#F8EC92;}
	.st90{fill:#F6E371;}
	.st91{fill:#F6E673;}
	.st92{fill:#FEFEFD;}
	.st93{fill:#FEFEFC;}
	.st94{fill:#FEFEFE;}
	.st95{fill:#FEFDFB;}
	.st96{fill:#FDFCFA;}
	.st97{fill:#FAFBF4;}
	.st98{fill:#FCFCF8;}
	.st99{fill:#FAFBF3;}
	.st100{fill:#F8F6E5;}
	.st101{fill:#F4DD48;}
	.st102{fill:#F2E26A;}
	.st103{fill:#F3E155;}
	.st104{fill:#F6E379;}
	.st105{fill:#F9F3B4;}
	.st106{fill:#EDDBA0;}
	.st107{fill:#E4DBB4;}
	.st108{fill:#F7E171;}
	.st109{fill:#F7E98A;}
	.st110{fill:#F4E887;}
	.st111{fill:#F9DF7A;}
	.st112{fill:#F9E57B;}
	.st113{fill:#F8E784;}
	.st114{fill:#F7EA84;}
	.st115{fill:#F8E37B;}
	.st116{fill:#F7E991;}
	.st117{fill:#D5C98D;}
	.st118{fill:#F4EC86;}
	.st119{fill:#F5E45D;}
	.st120{fill:#F9ED90;}
	.st121{fill:#F0E071;}
	.st122{fill:#F9E982;}
	.st123{fill:#F4E374;}
	.st124{fill:#F2E998;}
	.st125{fill:#F7E78A;}
	.st126{fill:#F8E783;}
	.st127{fill:#FBE27F;}
	.st128{fill:#F8E471;}
	.st129{fill:#F6E57A;}
	.st130{fill:#F8E687;}
	.st131{fill:#FAE68C;}
	.st132{fill:#FAE792;}
	.st133{fill:#F4DC5B;}
	.st134{fill:#F5E67A;}
	.st135{fill:#F4E476;}
	.st136{fill:#F6E56D;}
	.st137{fill:#F3E77C;}
	.st138{fill:#F3E773;}
	.st139{fill:#F8EA97;}
	.st140{fill:#F5E377;}
	.st141{fill:#F8E675;}
	.st142{fill:#F5E677;}
	.st143{fill:#F1E47D;}
	.st144{fill:#F6E061;}
	.st145{fill:#F4E479;}
	.st146{fill:#F8E780;}
	.st147{fill:#F8E586;}
	.st148{fill:#F6E182;}
	.st149{fill:#F9E67F;}
	.st150{fill:#F5E35E;}
	.st151{fill:#F9E477;}
	.st152{fill:#F3E378;}
	.st153{fill:#F8E87F;}
	.st154{fill:#F8DF68;}
	.st155{fill:#F6E367;}
	.st156{fill:#F8E779;}
	.st157{fill:#F6E690;}
	.st158{fill:#F7E988;}
	.st159{fill:#F7E36B;}
	.st160{fill:#F0EFE3;}
</style>
<g>
	<path class="st0" d="M24,23.7c-0.2-0.2-0.4-0.4-0.6-0.6c-0.1-0.1-0.1-0.1-0.2-0.2c0,0,0-0.1-0.1,0c-0.6-0.6-1.2-1.1-1.7-1.7
		c-0.3-0.3-0.5-0.5-0.8-0.8c-0.4-0.5-0.9-0.9-1.3-1.4c-0.2-0.3-0.5-0.5-0.7-0.8c-0.3-0.3-0.7-0.7-1-1c-0.2-0.3-0.5-0.5-0.7-0.8
		c-0.3-0.4-0.6-0.8-1-1.2c-0.1-0.2-0.3-0.4-0.4-0.5c-0.1-0.1-0.1-0.2-0.2-0.2c0-0.1-0.1-0.1-0.1-0.2c-0.1-0.1-0.2-0.3-0.3-0.4
		c0-0.1-0.1-0.1-0.1-0.2c0-0.1,0-0.2,0-0.3c0-0.1,0.1-0.1,0.2-0.1c0.1,0,0.2,0.1,0.3,0.2c0.1,0.1,0.1,0.1,0.2,0.2c0,0,0,0.1,0.1,0.1
		c0.1-0.3-0.2-0.7-0.5-0.7c-0.2,0-0.2,0-0.3,0.2c-0.1,0.3-0.2,0.5-0.4,0.8c-0.2,0.3-0.3,0.5-0.5,0.8c-0.4,0.5-0.9,0.9-1.5,1.1
		c-0.2,0-0.4,0.1-0.6,0c0,0-0.1,0-0.1,0c-0.3,0-0.6-0.1-0.8-0.3c-0.1-0.1-0.1,0-0.1,0l0,0c0,0,0,0.1,0,0.1c-0.1,0.3-0.3,0.7-0.6,1
		C10,16.9,9.9,17,9.7,17.1c-0.3,0.2-0.7,0.1-0.9-0.1c0,0,0,0-0.1,0c0-0.1-0.1-0.1-0.1-0.2c-0.1-0.2-0.2-0.3-0.3-0.5c0,0,0-0.1,0-0.2
		c-0.1-0.3-0.2-0.7-0.2-1c0-0.2,0-0.3,0-0.5c0,0,0-0.1,0-0.1c0-0.1,0.1-0.3,0.1-0.4c0-0.2,0.1-0.5,0.2-0.7c0.1-0.3,0.3-0.6,0.5-0.9
		c0.2-0.2,0.4-0.4,0.6-0.6c0-0.1,0.1-0.1,0.2-0.2c0,0,0.1,0,0.1-0.1c0.1-0.1,0.2-0.2,0.2-0.4c0-0.2,0.1-0.3,0.2-0.5
		c0.2-0.4,0.5-0.8,0.8-1.2c0,0,0.1-0.1,0.1-0.1c0.1-0.1,0.2-0.2,0.3-0.3c0.2-0.1,0.3-0.2,0.5-0.2c0.1,0,0.1,0,0.2,0l0,0
		c0.1,0,0.3,0,0.4,0c0,0,0,0,0,0c0.1,0,0.1,0,0.2,0l0,0c0.1,0,0.1,0,0.2-0.1c0,0,0,0,0,0c0.1-0.3,0.3-0.6,0.5-0.9
		c0.2-0.3,0.5-0.5,0.8-0.8c0,0,0,0,0,0c0.1,0,0.2-0.1,0.2-0.1c0.1,0,0.1-0.1,0.2-0.1c0,0,0.1,0,0.2,0l0,0c0.1,0,0.1,0,0.2,0
		c0.3-0.1,0.5-0.1,0.8,0c0,0,0.1,0,0.2,0c0.6,0.2,1,0.6,1.3,1.2c0,0.1,0.1,0.2,0.1,0.2c0,0,0,0.1,0,0.1l0,0c0,0,0,0.1,0,0.1
		c0,0,0,0.1,0.1,0.1l0,0c0,0,0.1,0,0.1-0.1c0.2-0.1,0.3-0.2,0.5-0.3c0,0,0.1,0,0.1,0l0,0c0,0,0.1,0,0.1,0c0.2,0,0.4,0,0.6,0
		c0.1,0.1,0.2,0.1,0.3,0.1c0.2,0.1,0.4,0.3,0.5,0.5C20,9,20,9.2,20.1,9.3c0,0,0,0,0,0.1c0,0,0,0,0.1,0c0.2-0.2,0.3-0.4,0.5-0.5
		c0,0,0.1-0.1,0.1-0.1c0.2-0.2,0.4-0.3,0.6-0.4c0.4-0.2,0.8-0.2,1.3-0.1c0.1,0,0.1,0,0.2,0c0.1,0,0.1,0.1,0.2,0.1
		c0.3,0.1,0.5,0.3,0.5,0.7c0.1,0.4,0,0.8-0.2,1.1c0,0,0,0,0,0c0,0-0.1,0.1-0.1,0.2c-0.1,0.1-0.2,0.2-0.2,0.3
		c-0.2,0.2-0.4,0.4-0.6,0.6c0,0,0,0,0,0c0,0.1-0.2,0.1-0.1,0.2c0.1,0.1,0.3,0.2,0.4,0.4c0,0,0,0,0.1,0c0.2,0.2,0.3,0.4,0.5,0.6
		c0.3,0.4,0.5,0.8,0.6,1.2c0,0,0,0.1,0,0.1c0.1,0.3,0.1,0.6,0.1,0.8c0,0.1,0,0.2-0.1,0.3c-0.1,0.2-0.2,0.5-0.4,0.7
		c-0.1,0.2-0.3,0.3-0.5,0.4c-0.2,0.1-0.5,0.1-0.8,0.1c-0.2,0-0.3-0.1-0.5-0.2c-0.5-0.2-0.9-0.5-1.3-0.8c-0.1-0.1-0.2-0.2-0.4-0.3
		c0,0-0.1-0.1-0.1-0.1c0,0.2-0.1,0.4-0.2,0.5c-0.2,0.3-0.5,0.6-0.8,0.6c-0.3,0.1-0.7,0-0.9-0.2c-0.2-0.1-0.3-0.3-0.4-0.5
		c0,0-0.1-0.1-0.1,0c-0.1,0.2-0.3,0.2-0.5,0.2c-0.1,0-0.1,0,0,0.1c0.2,0.2,0.3,0.3,0.4,0.5c0.1,0.1,0.2,0.3,0.4,0.4
		c0.4,0.5,0.9,0.9,1.3,1.4c0.5,0.5,1,1,1.4,1.6c0.4,0.4,0.7,0.8,1.1,1.1c0.4,0.4,0.7,0.7,1.1,1.1c0.1,0.1,0.2,0.2,0.4,0.3
		c0,0.1,0.1,0.1,0.2,0.2c0,0,0.1,0.1,0.1,0.1c0,0.1,0.1,0.1,0.2,0.2c0.1,0,0.1,0.1,0.2,0.2c0,0.1,0.1,0.1,0.1,0.1
		c0.1,0.1,0.3,0.2,0.4,0.3c0,0.1,0.1,0.1,0.1,0.1c0.2,0.2,0.4,0.3,0.6,0.5c0,0.1,0.1,0.1,0.2,0.1c0.2,0.1,0.3,0.2,0.5,0.3
		c0.1,0,0.2,0.1,0.2,0.1c0,0,0.1,0,0.1,0.1c0.1,0,0.3,0,0.4,0c0,0,0,0,0,0c0,0,0.1,0,0.1,0c0,0,0,0,0,0c0,0,0.1,0,0.1-0.1
		c0.1-0.1,0.2-0.2,0.3-0.4c0.1-0.1,0.1-0.2,0.1-0.3c0,0,0,0,0,0c0,0,0-0.1,0-0.1c0-0.3,0.1-0.6,0-0.9c0-0.2,0-0.3-0.1-0.5
		c0-0.1,0-0.2,0-0.2c0,0,0,0,0-0.1c0-0.1,0-0.3-0.1-0.4c0,0,0,0,0,0c0-0.1,0-0.2-0.1-0.3c0,0,0,0,0,0c0-0.1,0-0.1,0-0.2c0,0,0,0,0,0
		c0,0,0-0.1,0-0.1c0-0.1-0.1-0.2-0.1-0.3c0-0.1,0-0.2-0.1-0.3c0,0,0-0.1-0.1-0.1c-0.1-0.1-0.1-0.3-0.2-0.5c-0.1-0.2-0.2-0.4-0.2-0.6
		c0-0.1,0-0.1-0.1-0.2c0,0,0,0,0,0c0,0,0-0.1-0.1-0.1c-0.1-0.3-0.3-0.6-0.4-0.8c0-0.1-0.1-0.1-0.1-0.2c0,0,0-0.1,0-0.1
		c0-0.1-0.1-0.1-0.1-0.2c0,0,0-0.1,0-0.1c-0.1-0.2-0.2-0.4-0.3-0.6c-0.1-0.1-0.1-0.3-0.2-0.4c-0.1-0.2-0.1-0.3-0.2-0.4
		c0-0.3,0.1-0.5,0.1-0.7c0,0,0-0.1,0,0c0.1,0.2,0.2,0.3,0.3,0.5c0.1,0.3,0.3,0.5,0.4,0.8c0.1,0.3,0.3,0.5,0.4,0.8
		c0.1,0.2,0.2,0.4,0.3,0.7c0,0,0,0,0,0.1c0,0,0,0.1,0.1,0.1c0.1,0.2,0.1,0.4,0.2,0.6c0,0.1,0,0.1,0.1,0.2c0,0,0,0.1,0,0.1
		c0,0.1,0.1,0.2,0.1,0.3c0,0,0,0.1,0,0.1l0,0c0,0,0,0.1,0,0.1c0,0,0,0.1,0,0.1c0,0,0,0.1,0,0.1c0,0,0,0.1,0,0.1c0,0,0,0.1,0,0.1
		c0.1,0.2,0.1,0.4,0.2,0.6c0,0,0.1,0.1,0,0.1c0,0.1,0,0.1,0,0.2l0,0c0,0.1,0.1,0.2,0.1,0.3c0,0.1,0.1,0.3,0.1,0.4
		c0,0.1,0.1,0.2,0.1,0.4c0,0,0,0.1,0,0.1l0,0c0,0.1,0,0.2,0,0.2c0,0.4,0,0.9,0,1.3c0,0.1,0,0.3-0.1,0.4c-0.1,0,0,0.1,0,0.2l0,0
		c0,0,0,0.1,0,0.1c0,0.1-0.1,0.1-0.1,0.2c0,0-0.1,0.1-0.1,0.1c-0.2,0.3-0.4,0.5-0.7,0.6c-0.2,0.1-0.4,0-0.6,0
		c-0.1,0-0.2-0.1-0.3-0.1c-0.4-0.2-0.8-0.4-1.1-0.7c0,0,0,0,0,0c-0.1,0-0.1-0.1-0.2-0.1c-0.1-0.1-0.3-0.2-0.4-0.4
		C24.1,23.8,24,23.7,24,23.7z"/>
	<path class="st1" d="M15.5,13.7c-0.1-0.1-0.1-0.1-0.2-0.2c-0.1-0.1-0.1-0.1-0.2-0.2c0,0,0,0-0.1,0c-0.1-0.1-0.1-0.1-0.2,0.1
		c0,0.1,0,0.2,0,0.3c0,0,0,0.1,0,0.1c0,0,0,0.1,0.1,0.1c0.1,0.1,0.2,0.3,0.3,0.4c0,0.1,0,0.2,0.1,0.2c0,0,0,0,0,0
		c0.2,0.3,0.4,0.6,0.7,0.9c0.2,0.3,0.5,0.6,0.7,0.8c0.2,0.3,0.5,0.6,0.7,0.8c0.6,0.7,1.2,1.3,1.9,2c0.4,0.5,0.9,1,1.3,1.4
		c0.6,0.7,1.3,1.4,2,2c0.1,0.1,0.3,0.3,0.4,0.4c0,0,0.1,0.1,0.1,0.1c-0.3,1.1-0.5,2.2-0.7,3.3c0,0.2-0.2,0.4-0.4,0.5
		c-0.5,0.3-1.1,0.5-1.7,0.5c-1.1,0.1-2.1,0-3.2-0.3c-1-0.2-2-0.5-3-0.8C14,26.1,14,26.1,14,26c0-0.5-0.1-0.9-0.2-1.4
		c-0.2-1.1-0.4-2.2-0.6-3.3c-0.2-0.8-0.3-1.7-0.6-2.5c-0.3-1-0.6-2-1-2.9c0,0,0,0,0,0c0.3,0.1,0.6,0,0.9-0.1c0.6-0.2,1-0.6,1.4-1.1
		c0.2-0.3,0.4-0.6,0.6-0.9c0.1-0.2,0.2-0.4,0.3-0.7c0-0.2,0-0.2,0.2-0.1c0,0,0.1,0,0.1,0C15.3,13.1,15.5,13.4,15.5,13.7
		C15.5,13.6,15.5,13.7,15.5,13.7z"/>
	<path class="st1" d="M25.2,14.8c-0.1,0.3-0.1,0.5-0.2,0.8c0,0.2,0,0.3-0.1,0.4c-0.2,0.8-0.4,1.6-0.7,2.4c-0.3,0.9-0.5,1.9-0.7,2.9
		c0,0.2-0.1,0.4-0.2,0.7c0,0,0,0.1-0.1,0.1c-0.5-0.5-1-0.9-1.4-1.4c-0.4-0.4-0.8-0.8-1.2-1.2c-0.6-0.7-1.3-1.4-1.9-2.1
		c-0.5-0.6-1.1-1.2-1.6-1.7c0,0-0.1-0.1-0.1-0.1c0,0,0.1,0,0.1,0c0.2,0,0.4-0.1,0.5-0.3c0-0.1,0.1,0,0.1,0c0.1,0.2,0.2,0.4,0.4,0.5
		c0.3,0.3,0.8,0.3,1.1,0.2c0.3-0.2,0.6-0.4,0.7-0.8c0-0.1,0.1-0.2,0.1-0.3c0.1,0,0.1,0.1,0.2,0.2c0.4,0.3,0.8,0.7,1.2,0.9
		c0.3,0.2,0.6,0.3,0.9,0.4c0.4,0.1,1.1-0.1,1.3-0.6c0.1-0.2,0.2-0.4,0.3-0.6c0.1-0.2,0.1-0.5,0-0.7c0-0.1,0-0.2-0.1-0.3
		c0,0,0.1,0,0.1-0.1c0.3-0.1,0.5-0.2,0.8-0.3c0.1,0,0.1-0.1,0.1-0.1c0.1-0.1,0.1-0.2,0-0.3c-0.1-0.1-0.2-0.1-0.3-0.2
		c-0.4-0.2-0.8-0.3-1.2-0.4c-0.1,0-0.2,0-0.2-0.1c-0.2-0.2-0.3-0.4-0.5-0.7c0-0.2,0-0.4,0-0.6c0-0.1,0-0.2,0.1-0.3
		c0.1-0.2,0.3-0.2,0.5-0.1c0.3,0.2,0.4,0.7,0.2,1c0,0,0,0,0,0c-0.1-0.2-0.2-0.3-0.3-0.5c0,0,0-0.1,0-0.1c0,0,0-0.1-0.1-0.1
		c0,0-0.1,0-0.1,0.1c0,0.1,0,0.3,0,0.4c0.1,0.1,0.2,0.3,0.2,0.4c0,0,0,0.1,0.1,0.1c0.1,0,0.3,0,0.4,0.1c0.5,0.1,0.9,0.2,1.3,0.5
		c0.1,0.1,0.2,0.2,0.3,0.3c0.2,0.2,0.2,0.5,0,0.7c-0.2,0.2-0.2,0.4-0.3,0.6C25.2,14.5,25.2,14.7,25.2,14.8z"/>
	<path class="st1" d="M11.1,9.6c-0.4,0.4-0.8,1-1,1.5c0,0.1-0.1,0.2-0.1,0.3c0,0.1,0,0.1-0.1,0.1c-0.2,0.1-0.3,0.2-0.4,0.3
		c-0.4-0.5-0.8-1-1.3-1.5c-0.1-0.1-0.1-0.1-0.2-0.1C7.3,9.9,6.4,9.6,5.6,9.2c-0.1,0-0.1,0-0.1,0C4.7,9.8,3.9,10.4,3.1,11
		c-0.1,0.1-0.1,0.1-0.2,0c-0.1-0.2-0.3-0.4-0.4-0.5c0,0,0-0.1,0-0.1c1-0.8,2-1.6,3.1-2.4C7,6.8,8.4,5.8,9.9,4.8
		c0.8-0.6,1.7-1.1,2.5-1.7c0.1,0,0.1,0,0.2,0c0.1,0.2,0.3,0.4,0.4,0.6c0,0.1,0,0.1,0,0.1c-0.8,0.6-1.6,1.2-2.4,1.7
		C10.3,5.8,10,6,9.7,6.2c-0.1,0-0.1,0.1,0,0.1c0.3,0.8,0.5,1.6,0.7,2.4c0,0.1,0,0.1,0.1,0.1C10.7,9.1,10.9,9.3,11.1,9.6z"/>
	<path class="st2" d="M8.2,20.9c-0.2,0-0.3,0-0.5,0c-0.3,0-0.6-0.2-0.9-0.4c-0.3-0.2-0.5-0.4-0.7-0.6c0-0.1-0.1-0.1-0.1-0.2
		c0,0-0.1-0.1-0.1-0.1c0-0.1,0-0.2,0.2-0.2c0,0.1,0.1,0.1,0.1,0.1c0.4,0.2,0.7,0.5,1,0.7c0.2,0.2,0.5,0.3,0.8,0.2
		c0.1,0,0.3-0.1,0.4-0.1l0,0c0,0,0.1,0,0.1,0c0.4-0.1,0.7-0.3,1-0.5c0.2-0.1,0.3-0.3,0.5-0.4c0.2-0.2,0.4-0.4,0.6-0.6
		c0.2-0.2,0.4-0.4,0.5-0.5c0,0,0.1-0.1,0.1,0c0.1,0,0,0.1,0,0.1c-0.1,0.3-0.2,0.5-0.4,0.8c-0.2,0.3-0.4,0.6-0.7,0.8
		c-0.2,0.2-0.5,0.4-0.7,0.5c-0.2,0.1-0.5,0.3-0.7,0.4c0,0-0.1,0-0.1,0C8.5,20.8,8.4,20.8,8.2,20.9z"/>
	<path class="st2" d="M24,3.6c-0.3-0.1-0.5-0.1-0.8,0c-0.4,0.1-0.7,0.2-1,0.4c-0.3,0.2-0.5,0.3-0.8,0.5c0,0-0.1,0.1-0.1,0.1
		c-0.1,0.1,0,0.1,0,0.2c-0.1,0-0.1,0-0.1,0c0-0.1-0.1-0.1,0-0.2c0-0.1,0.1-0.2,0.2-0.3c0,0,0.1-0.1,0.1-0.1c0.2-0.2,0.4-0.4,0.7-0.6
		c0.1-0.1,0.2-0.1,0.3-0.2c0,0,0.1-0.1,0.1-0.1c0.3-0.2,0.6-0.3,1-0.3c0.4,0,0.7,0.1,1,0.3c0,0,0.1,0,0.1,0.1
		c0.2,0.1,0.4,0.3,0.6,0.6c0,0.1,0.1,0.1,0.1,0.2c0.1,0.1,0.1,0.2,0.2,0.3c0,0,0,0.1,0,0.1l0,0c0,0.1,0,0.2,0,0.2
		c0.1,0.3,0,0.5,0,0.8c-0.1,0.1-0.1,0-0.1-0.1l0,0c0-0.1,0-0.1-0.1-0.2c0-0.1-0.1-0.1-0.1-0.2c0-0.1,0-0.1-0.1-0.2
		c-0.1-0.2-0.2-0.4-0.3-0.5c-0.1-0.1-0.2-0.3-0.3-0.3c-0.1-0.1-0.2-0.2-0.3-0.3c0,0-0.1-0.1-0.1-0.1C24.1,3.7,24.1,3.7,24,3.6z"/>
	<path class="st3" d="M25.3,8.2c-0.2-0.5-0.4-0.9-0.7-1.3c-0.2-0.3-0.5-0.5-0.8-0.6c-0.1,0-0.1,0-0.2-0.1c-0.1,0-0.1,0-0.2,0l0,0
		c-0.1,0-0.1,0-0.2,0c-0.3,0-0.5,0-0.8,0c0,0-0.1,0.1-0.1,0c0,0-0.1,0-0.1,0l0,0c0,0-0.1,0-0.1,0c-0.3,0.1-0.5,0.2-0.7,0.4
		c0,0-0.1,0.1-0.1,0.1c-0.1,0-0.1,0.1-0.1,0.2c-0.1,0-0.1,0-0.2,0c-0.1-0.1-0.1-0.1,0-0.2c0,0,0-0.1,0.1-0.1
		c0.2-0.3,0.5-0.5,0.8-0.6c0.3-0.1,0.5-0.2,0.8-0.3c0.1,0,0.1,0,0.2,0c0.2,0,0.5-0.1,0.8,0c0.4,0.1,0.7,0.2,1.1,0.5
		c0.5,0.4,0.7,0.8,0.9,1.4c0.1,0.3,0.1,0.5,0,0.8C25.3,8.3,25.3,8.3,25.3,8.2z"/>
	<path class="st4" d="M8.8,18.3c0.2,0.1,0.4,0,0.6,0c0,0,0.1,0,0.1,0c0,0.1,0,0.1-0.1,0.1c-0.1,0.1-0.2,0.2-0.4,0.2
		c-0.1,0-0.3,0.1-0.4,0c-0.5-0.1-0.9-0.3-1.3-0.7c0,0,0,0,0,0c0-0.1-0.1-0.1-0.1-0.2c-0.2-0.3-0.3-0.6-0.4-0.9
		c0-0.1-0.1-0.2-0.1-0.3l0,0c0-0.1,0-0.2,0-0.2c0-0.1,0-0.3,0-0.4c0-0.2,0.1-0.3,0.2-0.5c0,0,0-0.1,0.1-0.1c0,0,0.1,0,0.1,0
		c0,0,0,0,0,0.1C7,15.5,7,15.6,7,15.7c0,0.2,0,0.4,0.1,0.6c0,0,0,0.1,0,0.1c0,0.1,0.1,0.2,0.1,0.3c0,0.1,0,0.1,0.1,0.2
		c0.1,0.3,0.2,0.5,0.4,0.7c0.2,0.3,0.5,0.5,0.8,0.6c0,0,0.1,0,0.1,0c0,0,0.1,0,0.1,0l0,0C8.7,18.3,8.8,18.3,8.8,18.3z"/>
	<path class="st5" d="M5.2,7.7C5.1,7.8,5,7.9,4.8,8C4.7,8,4.7,7.9,4.6,7.8c-0.4-0.5-0.8-1-1.1-1.6C3.4,6.1,3.3,6,3.3,5.9
		c0,0,0-0.1,0-0.1C3.2,5.6,3.1,5.5,3.1,5.3c0,0,0-0.1,0-0.1c0,0,0-0.1,0-0.1c0,0,0.1,0,0.1,0c0.2,0.1,0.3,0.3,0.5,0.4c0,0,0,0,0,0
		c0,0,0.1,0,0.1,0.1C4.2,6.2,4.6,6.8,5,7.4C5.1,7.5,5.1,7.6,5.2,7.7z"/>
	<path class="st3" d="M7.5,2.3c0.1,0.1,0.2,0.1,0.2,0.2c0,0.1,0.1,0.1,0.2,0.1c0,0,0,0,0.1,0c0.3,0.3,0.6,0.7,0.8,1
		C9,3.9,9.1,4.2,9.3,4.4c0,0,0.1,0.1,0.1,0.1c0,0,0,0,0,0c0,0-0.1,0.1-0.1,0.1l0,0c0,0-0.1,0.1-0.1,0.1c0,0-0.1,0-0.1,0.1
		c-0.1,0-0.2-0.1-0.2-0.2C8.5,4.3,8.2,3.9,7.9,3.6C7.8,3.4,7.7,3.2,7.6,3c0,0,0-0.1,0-0.1C7.5,2.7,7.4,2.6,7.3,2.4c0,0,0-0.1,0-0.1
		C7.4,2.3,7.4,2.3,7.5,2.3z"/>
	<path class="st6" d="M0.9,7.6c0-0.1-0.1-0.2-0.1-0.3c0-0.1,0-0.2-0.1-0.3c0-0.1,0-0.1,0.1-0.1C0.9,7.2,1,7.3,1.1,7.4c0,0,0,0,0,0
		C1.3,7.6,1.5,7.8,1.6,8c0.3,0.4,0.5,0.7,0.8,1.1c0.1,0.2,0.2,0.3,0.3,0.5c0,0,0,0.1,0,0.1C2.7,9.9,2.6,10,2.5,10
		c-0.1,0-0.1,0-0.1-0.1C2.2,9.8,2,9.6,1.9,9.5C1.6,9,1.3,8.5,1,7.9C0.9,7.8,0.9,7.8,0.9,7.6z"/>
	<path class="st7" d="M3.2,9.4C3.2,9.4,3.1,9.5,3,9.6c-0.1,0-0.2-0.2-0.3-0.3c-0.4-0.5-0.8-1-1.1-1.6C1.5,7.6,1.4,7.5,1.4,7.3
		C1.3,7.1,1.2,7,1.1,6.8c0-0.1,0-0.1-0.1-0.2c0,0,0,0,0-0.1c0,0,0,0,0,0c0.1,0.1,0.1,0.1,0.2,0.2c0,0.1,0.1,0.1,0.1,0.2
		c0.1,0,0.1,0.2,0.2,0.2c0.1,0.1,0.2,0.2,0.3,0.4C2.4,8,2.8,8.5,3.1,9.1C3.2,9.2,3.2,9.3,3.2,9.4z"/>
	<path class="st6" d="M2.3,6.6c0-0.1,0-0.1-0.1-0.2c0-0.1-0.1-0.2-0.1-0.4c0,0,0-0.1,0-0.1c0,0,0,0,0.1,0c0.1,0.1,0.2,0.3,0.4,0.4
		C2.7,6.6,2.9,6.8,3,6.9c0.3,0.4,0.7,0.9,1,1.3c0.1,0.1,0.1,0.2,0.1,0.3C4.1,8.6,4,8.7,3.9,8.8c-0.1,0-0.1-0.1-0.2-0.1
		C3.5,8.4,3.3,8.2,3.1,8C2.9,7.6,2.6,7.3,2.4,6.9C2.4,6.8,2.3,6.7,2.3,6.6z"/>
	<path class="st8" d="M6.1,6.9C6,7.1,5.9,7.1,5.8,7.2C5.6,7.1,5.5,7,5.4,6.8C5.2,6.6,5.1,6.4,4.9,6.1c-0.2-0.3-0.4-0.6-0.6-1
		c0-0.1-0.1-0.2-0.1-0.2c0-0.1,0-0.1-0.1-0.2c0,0,0-0.1,0-0.1c0,0,0.1,0,0.1,0C4.4,4.8,4.5,4.9,4.6,5c0.1,0,0.1,0.1,0.2,0.2
		c0.4,0.5,0.8,0.9,1.2,1.4C6,6.7,6,6.7,6.1,6.8C6.1,6.9,6.1,6.9,6.1,6.9z"/>
	<path class="st8" d="M7.2,6.1C7.1,6.2,7,6.3,6.9,6.4c-0.1,0-0.1-0.1-0.2-0.1C6.5,6,6.3,5.8,6.1,5.5C5.9,5.2,5.7,4.9,5.5,4.6
		c0-0.1-0.1-0.1-0.1-0.2c0-0.1-0.1-0.2-0.1-0.4c0-0.1,0-0.1-0.1-0.2c0-0.1-0.1-0.1,0-0.1C5.4,3.8,5.5,4,5.7,4.1c0,0,0,0,0,0
		C5.8,4.2,5.9,4.4,6,4.5c0.3,0.4,0.6,0.8,0.9,1.2C7,5.8,7.1,5.9,7.2,6.1C7.2,6.1,7.2,6.1,7.2,6.1z"/>
	<path class="st9" d="M2.7,5.5C2.8,5.7,3,5.9,3.1,6c0.1,0.1,0.2,0.2,0.3,0.3C3.7,6.7,4,7.1,4.2,7.5C4.4,7.7,4.5,7.8,4.6,8
		c0,0,0,0.1,0,0.1C4.5,8.2,4.5,8.3,4.4,8.4c-0.1,0-0.1-0.1-0.2-0.1c-0.3-0.3-0.5-0.6-0.7-1C3.3,7,3.1,6.6,2.9,6.3c0,0,0-0.1,0-0.1
		c0-0.1-0.1-0.2-0.2-0.4c0-0.1,0-0.1-0.1-0.2C2.6,5.6,2.6,5.6,2.7,5.5z"/>
	<path class="st10" d="M10,1.3C9.9,1.1,9.8,1,9.7,0.8c0,0,0-0.1-0.1-0.1c0,0,0-0.1,0-0.1c0,0,0.1,0,0.1,0c0,0,0.1,0,0.1,0
		c0.1,0,0.1,0.1,0.2,0.1c0.1,0.1,0.2,0.2,0.4,0.3c0.2,0.2,0.4,0.4,0.6,0.6c0.2,0.2,0.4,0.5,0.6,0.7c0.1,0.1,0.2,0.3,0.3,0.5
		c0,0,0.1,0.1,0,0.1c-0.1,0-0.2,0.1-0.3,0.2c0,0-0.1,0-0.1-0.1C11,2.5,10.5,1.9,10,1.3C10,1.3,10,1.3,10,1.3z"/>
	<path class="st11" d="M3.7,8.9C3.6,9,3.5,9.1,3.5,9.2C3.4,9.1,3.3,9.1,3.3,9C3,8.7,2.8,8.5,2.6,8.2C2.4,7.9,2.2,7.6,2,7.3
		C2,7.2,1.9,7.1,1.8,6.9c0-0.1-0.1-0.2-0.1-0.3c0,0,0,0,0-0.1c0,0,0,0,0.1,0C1.8,6.7,1.9,6.8,2,6.8C2.2,7,2.4,7.1,2.6,7.3
		c0.3,0.4,0.6,0.8,0.9,1.2c0.1,0.1,0.1,0.2,0.2,0.3C3.7,8.9,3.7,8.9,3.7,8.9z"/>
	<path class="st7" d="M8.2,5.4C8.1,5.5,8,5.6,7.9,5.6c-0.1,0-0.2-0.1-0.2-0.2C7.4,5.1,7.1,4.7,6.8,4.2C6.7,4,6.6,3.8,6.5,3.6
		c0,0,0,0,0,0c0-0.1-0.1-0.2-0.2-0.4c0,0,0-0.1,0-0.1c0,0,0.1,0,0.1,0c0,0,0.1,0.1,0.1,0.1c0.1,0,0.1,0.1,0.2,0.1c0,0,0,0,0.1,0
		c0.1,0,0.1,0.1,0.1,0.1C7.1,3.8,7.3,4,7.5,4.3c0.2,0.3,0.4,0.6,0.6,0.9C8.2,5.2,8.2,5.3,8.2,5.4z"/>
	<path class="st8" d="M10.5,3.9C10.4,4,10.2,4,10.1,4.1C10,4.1,9.9,4,9.9,3.9C9.5,3.5,9.2,3.1,8.9,2.6C8.8,2.5,8.7,2.4,8.7,2.2
		c0-0.1-0.1-0.2-0.2-0.3c0,0,0,0,0-0.1c0-0.1,0-0.1,0.1,0C8.7,1.9,8.8,2,8.9,2c0.1,0.1,0.2,0.2,0.4,0.3c0.3,0.3,0.6,0.7,0.9,1.1
		C10.3,3.6,10.4,3.7,10.5,3.9C10.5,3.8,10.5,3.8,10.5,3.9z"/>
	<path class="st10" d="M6.7,6.5C6.6,6.6,6.5,6.7,6.4,6.7c-0.1,0-0.1,0-0.1-0.1C5.9,6.3,5.7,5.9,5.4,5.5C5.2,5.3,5.1,5.1,4.9,4.9
		c0,0-0.1-0.1-0.1-0.1c0-0.1-0.1-0.2-0.1-0.3c0-0.1,0-0.1,0.1,0c0,0,0.1,0,0.1,0C5,4.5,5,4.6,5.1,4.6c0.1,0.1,0.2,0.2,0.4,0.3
		c0.4,0.5,0.8,0.9,1.1,1.4C6.6,6.4,6.7,6.5,6.7,6.5z"/>
	<path class="st1" d="M11.9,3c-0.1-0.3-0.3-0.5-0.5-0.7c-0.3-0.4-0.7-0.8-1-1.2c0,0,0,0,0-0.1C10.4,1,10.5,1,10.6,0.9
		c0.1,0,0.1,0,0.1,0c0.5,0.5,0.9,1,1.3,1.6c0.1,0.1,0.1,0.2,0.2,0.2c0,0,0,0.1,0,0.1C12.1,2.9,12,2.9,11.9,3z"/>
	<path class="st7" d="M8.1,2.5C8.1,2.4,8,2.4,8,2.2c0,0-0.1-0.1,0-0.1c0,0,0.1,0,0.1,0c0.1,0.1,0.2,0.2,0.3,0.2c0,0,0.1,0,0.1,0.1
		c0.3,0.3,0.6,0.7,0.9,1C9.5,3.7,9.7,3.9,9.8,4c0,0.1,0.1,0.1,0.1,0.2C9.8,4.3,9.7,4.4,9.6,4.5c-0.1,0-0.1,0-0.1-0.1
		C9.3,4.2,9.2,4,9,3.8C8.8,3.4,8.5,3.1,8.2,2.7C8.2,2.7,8.1,2.6,8.1,2.5z"/>
	<path class="st12" d="M7.7,5.8C7.6,5.9,7.5,5.9,7.4,6c-0.1,0-0.1-0.1-0.2-0.2C7.1,5.6,6.9,5.4,6.8,5.1c-0.2-0.3-0.5-0.7-0.7-1
		C6,4.1,6,4,6,3.9c0-0.1-0.1-0.2-0.1-0.3c0.1,0,0.1,0.1,0.2,0.2c0.2,0.1,0.3,0.2,0.4,0.4c0.3,0.4,0.6,0.8,0.9,1.2
		c0.1,0.1,0.1,0.2,0.2,0.3C7.7,5.7,7.7,5.7,7.7,5.8z"/>
	<path class="st13" d="M7.6,2.9c0.3,0.5,0.6,0.9,0.9,1.3C8.6,4.4,8.8,4.7,9,4.9C8.9,4.9,8.8,5,8.7,5C8.6,4.9,8.5,4.8,8.4,4.7
		C8,4.2,7.6,3.7,7.2,3.3c0,0-0.1,0,0-0.1C7.3,3.1,7.4,3,7.6,2.9z"/>
	<path class="st14" d="M11.4,3.3c-0.1,0.1-0.1,0.1-0.2,0.1c-0.1,0-0.1-0.1-0.2-0.1c-0.2-0.2-0.4-0.5-0.6-0.7C10,2.3,9.8,2,9.6,1.7
		c0,0,0-0.1-0.1-0.1C9.5,1.4,9.4,1.3,9.3,1.2c0,0,0-0.1,0-0.1c0.2,0.1,0.3,0.3,0.5,0.4c0.2,0.2,0.4,0.4,0.6,0.5
		c0.3,0.4,0.7,0.8,1,1.2C11.3,3.2,11.4,3.2,11.4,3.3z"/>
	<path class="st15" d="M10.9,3.6c-0.1,0.1-0.2,0.1-0.3,0.2c-0.1-0.1-0.2-0.2-0.3-0.3c-0.3-0.4-0.7-0.8-1-1.2C9.3,2.1,9.2,2,9.2,1.9
		C9.1,1.7,8.9,1.6,8.9,1.4c0.1,0.1,0.3,0.2,0.4,0.3C9.5,1.8,9.6,1.9,9.7,2C10.1,2.5,10.5,3,10.9,3.6C10.9,3.5,10.9,3.6,10.9,3.6z"/>
	<path class="st16" d="M5.6,7.4C5.5,7.4,5.4,7.5,5.4,7.5c0,0-0.1,0-0.1-0.1C5,7.1,4.7,6.7,4.4,6.3C4.2,6,4,5.7,3.9,5.4
		c0-0.1-0.1-0.1-0.1-0.2c0,0,0-0.1,0-0.1c0,0,0,0,0.1,0c0,0,0.1,0.1,0.1,0.1c0,0,0,0.1,0.1,0c0.3,0.3,0.5,0.6,0.7,0.9
		C5,6.5,5.2,6.8,5.5,7.1C5.5,7.2,5.6,7.2,5.6,7.4z"/>
	<path class="st17" d="M7.1,3.2c0.1,0.1,0.2,0.2,0.4,0.4C7.9,4,8.3,4.5,8.7,5C8.7,5.1,8.6,5.2,8.5,5.2c-0.1,0-0.1,0-0.1-0.1
		C8.1,4.8,7.8,4.4,7.5,4.1C7.3,3.8,7.2,3.6,7,3.3c0,0,0,0,0-0.1c0-0.1,0-0.1,0-0.1c0,0,0,0,0-0.1c0,0,0.1,0,0.1,0
		C7.1,3.1,7.1,3.2,7.1,3.2z"/>
	<path class="st13" d="M6,3.9c0.1,0.2,0.2,0.4,0.3,0.5C6.5,4.8,6.7,5,6.9,5.3C7.1,5.5,7.2,5.7,7.4,6C7.4,6,7.3,6.1,7.2,6.1
		C7.1,5.9,6.9,5.7,6.7,5.5C6.4,5.1,6,4.6,5.7,4.2C5.8,4.1,5.9,4,6,3.9z"/>
	<path class="st13" d="M4.9,4.8C5.2,5.2,5.5,5.6,5.8,6C6,6.3,6.2,6.5,6.4,6.7C6.3,6.8,6.2,6.9,6.1,6.9C6,6.7,5.9,6.6,5.8,6.4
		C5.4,5.9,5,5.5,4.6,5c0,0,0,0,0,0C4.7,4.9,4.8,4.8,4.9,4.8z"/>
	<path class="st1" d="M0.9,7.6c0.3,0.8,0.8,1.5,1.3,2.1C2.3,9.9,2.3,10,2.5,10c0,0.1-0.1,0.1-0.1,0.1c-0.1,0-0.1,0-0.1,0
		C1.9,9.7,1.6,9.3,1.3,8.9C1.1,8.6,0.8,8.3,0.6,8c-0.1-0.1,0-0.1,0-0.1C0.7,7.8,0.8,7.7,0.9,7.6z"/>
	<path class="st18" d="M11.4,3.3c-0.5-0.6-0.9-1.1-1.5-1.7C9.9,1.6,9.8,1.6,9.7,1.5C9.8,1.4,9.9,1.4,10,1.3c0.2,0.1,0.3,0.3,0.4,0.5
		c0.3,0.4,0.7,0.8,1,1.2c0.1,0.1,0.1,0.1,0.2,0.2C11.5,3.2,11.5,3.3,11.4,3.3z"/>
	<path class="st13" d="M2.9,6.2c0.1,0,0.1,0.1,0.1,0.2c0.2,0.4,0.5,0.8,0.7,1.1C3.8,7.7,4,8,4.2,8.2c0.1,0.1,0.1,0.1,0.2,0.2
		C4.3,8.4,4.2,8.5,4.1,8.6C4.1,8.3,3.9,8.2,3.8,8c-0.3-0.4-0.6-0.9-1-1.3C2.7,6.6,2.6,6.5,2.6,6.4C2.7,6.3,2.8,6.3,2.9,6.2z"/>
	<path class="st19" d="M7,3.3c0.1,0.2,0.2,0.4,0.4,0.6C7.6,4.1,7.8,4.4,8,4.7C8.1,4.8,8.3,5,8.4,5.1c0,0,0,0.1,0.1,0.1
		C8.4,5.3,8.3,5.3,8.2,5.4c0-0.1-0.1-0.1-0.1-0.2C7.7,4.7,7.3,4.1,6.8,3.6c0,0-0.1-0.1-0.1-0.1C6.8,3.4,6.9,3.3,7,3.3z"/>
	<path class="st13" d="M6.7,6.5C6.4,6.1,6.1,5.7,5.8,5.4C5.6,5.1,5.4,4.9,5.1,4.7c0,0,0,0-0.1-0.1c0.1-0.1,0.2-0.2,0.3-0.2
		c0.1,0.1,0.1,0.2,0.2,0.3C6,5.2,6.3,5.8,6.7,6.2c0,0,0.1,0.1,0.1,0.1C6.8,6.5,6.7,6.5,6.7,6.5z"/>
	<path class="st13" d="M9.9,4.2C9.7,4,9.5,3.7,9.3,3.5C9.1,3.2,8.8,2.8,8.5,2.6C8.5,2.5,8.4,2.5,8.3,2.4c0.1-0.1,0.2-0.1,0.3-0.2
		c0.1,0.1,0.2,0.2,0.2,0.4c0.4,0.5,0.7,1.1,1.2,1.5C10,4.2,10,4.2,9.9,4.2z"/>
	<path class="st20" d="M3.9,5.4C3.9,5.5,4,5.5,3.9,5.4C4.3,6.1,4.6,6.6,5,7.1c0.1,0.2,0.2,0.3,0.4,0.5c0,0.1-0.1,0.1-0.2,0.2
		C4.9,7.3,4.7,7,4.4,6.6C4.2,6.3,3.9,6,3.6,5.6C3.7,5.6,3.8,5.5,3.9,5.4z"/>
	<path class="st20" d="M1.4,7.3C1.5,7.5,1.6,7.8,1.8,8C2,8.4,2.3,8.8,2.6,9.2C2.7,9.3,2.9,9.5,3,9.6C2.9,9.6,2.8,9.7,2.7,9.8
		C2.3,9.1,1.8,8.4,1.4,7.7C1.3,7.6,1.2,7.6,1.2,7.5C1.2,7.4,1.3,7.4,1.4,7.3z"/>
	<path class="st21" d="M1.8,6.9C2,7.2,2.2,7.5,2.4,7.8c0.3,0.4,0.6,0.8,0.9,1.2C3.3,9,3.4,9.1,3.5,9.2C3.4,9.2,3.3,9.3,3.2,9.4
		c-0.4-0.7-1-1.4-1.5-2.1c0-0.1-0.1-0.1-0.1-0.2C1.7,7,1.8,7,1.8,6.9z"/>
	<path class="st22" d="M5.6,7.4C5.5,7.1,5.3,7,5.2,6.8c-0.4-0.5-0.7-1-1.1-1.4c0,0,0,0,0-0.1c0.1-0.1,0.2-0.1,0.3-0.2
		c0.1,0.1,0.1,0.2,0.1,0.2C4.7,5.9,5,6.3,5.3,6.7C5.5,6.9,5.6,7,5.8,7.2C5.7,7.3,5.7,7.3,5.6,7.4z"/>
	<path class="st23" d="M9.2,1.9c0.2,0.3,0.5,0.6,0.7,0.9c0.2,0.3,0.5,0.6,0.7,0.9c0,0,0,0.1,0.1,0.1c-0.1,0-0.1,0.1-0.2,0.1
		c-0.2-0.4-0.5-0.7-0.8-1C9.5,2.6,9.2,2.3,9,2.1c0,0,0,0,0-0.1C9,2,9.1,1.9,9.2,1.9z"/>
	<path class="st24" d="M7.7,5.8C7.6,5.5,7.4,5.2,7.2,5c-0.3-0.4-0.6-0.7-0.9-1c0,0-0.1-0.1-0.1-0.1c0.1-0.1,0.2-0.1,0.3-0.2
		C6.6,3.8,6.7,4,6.8,4.1c0.3,0.5,0.6,1,1,1.4c0,0,0.1,0.1,0.1,0.1C7.8,5.7,7.8,5.7,7.7,5.8z"/>
	<path class="st25" d="M10.9,3.6c-0.1-0.2-0.3-0.4-0.4-0.6c-0.4-0.4-0.7-0.9-1.1-1.3c0,0,0,0,0,0c0.1,0,0.1-0.1,0.2-0.1
		c0.1,0,0.1,0.1,0.1,0.1c0.4,0.5,0.8,1,1.3,1.5c0.1,0.1,0.1,0.1,0.2,0.2C11.1,3.5,11,3.5,10.9,3.6z"/>
	<path class="st20" d="M4.6,8.2C4.6,8,4.5,7.8,4.4,7.7C4,7.1,3.6,6.6,3.1,6.1c0,0,0,0,0,0c0.1,0,0.1-0.1,0.2-0.1
		c0.1,0,0.1,0.1,0.1,0.2c0.3,0.5,0.7,1,1,1.5C4.6,7.7,4.7,7.8,4.8,8C4.8,8.1,4.7,8.1,4.6,8.2z"/>
	<path class="st26" d="M8.1,2.5c0.1,0.1,0.2,0.2,0.3,0.4c0.4,0.5,0.8,1,1.2,1.5c0,0,0,0,0,0C9.5,4.5,9.5,4.6,9.4,4.6
		C9.3,4.4,9.1,4.2,9,4C8.7,3.6,8.4,3.2,8.1,2.8C8,2.8,8,2.7,7.9,2.6C8,2.6,8.1,2.6,8.1,2.5z"/>
	<path class="st27" d="M3.7,8.9C3.4,8.4,3,7.9,2.7,7.5C2.5,7.3,2.3,7.1,2.1,6.9c0,0,0,0,0-0.1c0.1-0.1,0.2-0.1,0.3-0.2
		c0.1,0,0.1,0.1,0.1,0.2c0.2,0.3,0.4,0.6,0.6,0.9C3.2,8,3.4,8.3,3.6,8.5c0.1,0.1,0.2,0.2,0.3,0.2C3.8,8.8,3.8,8.9,3.7,8.9z"/>
	<path class="st28" d="M23.4,12.2c-0.1,0-0.1-0.1-0.1-0.2c-0.1-0.1-0.1-0.2-0.2-0.3c0,0,0,0,0,0c0-0.1,0-0.2,0-0.2
		c0-0.1,0.1-0.1,0.2,0c0.1,0.2,0.2,0.4,0.3,0.5c0,0.1,0.1,0.1,0.1,0.2c0,0.1,0,0.1-0.1,0.1C23.6,12.2,23.5,12.2,23.4,12.2z"/>
	<path class="st29" d="M23.4,12.2c0.1,0,0.2,0,0.3,0c0,0,0.1,0,0.1,0c0.1,0,0,0.1,0.1,0.1C23.7,12.2,23.6,12.2,23.4,12.2z"/>
	<path class="st30" d="M8.2,20.9c0.1-0.1,0.1,0,0.2-0.1c0.1,0,0.2-0.1,0.3-0.1c0,0.1-0.1,0.1-0.1,0.1C8.5,20.8,8.3,20.9,8.2,20.9z"
		/>
	<path class="st31" d="M21,6.6C21,6.6,21,6.7,21,6.6c-0.1,0.2,0,0.3,0.1,0.3C21,7,20.9,7,20.9,6.9C20.9,6.8,20.9,6.7,21,6.6z"/>
	<path class="st32" d="M27.9,21.9C27.9,21.9,27.9,21.9,27.9,21.9c0-0.2-0.1-0.3-0.1-0.5c0.1,0.1,0,0.2,0.1,0.3
		C27.9,21.8,27.9,21.8,27.9,21.9z"/>
	<path class="st33" d="M8.2,14.1c0,0.2,0,0.3-0.1,0.5C8.1,14.4,8.1,14.3,8.2,14.1z"/>
	<path class="st34" d="M24.4,3.9c0.1,0.1,0.2,0.1,0.3,0.3C24.5,4,24.4,4,24.4,3.9z"/>
	<path class="st35" d="M0.8,7.1c-0.1,0-0.1,0.1,0,0.1c0,0.1,0,0.1,0,0.2C0.8,7.3,0.7,7.2,0.8,7.1C0.7,7,0.7,7,0.8,7.1
		C0.8,7,0.8,7,0.8,7.1z"/>
	<path class="st36" d="M12.6,9c-0.1,0-0.3,0-0.4,0C12.3,8.9,12.4,8.9,12.6,9z"/>
	<path class="st37" d="M6.7,16.6C6.8,16.6,6.8,16.6,6.7,16.6c0,0.1,0.1,0.2,0.1,0.3C6.7,16.8,6.7,16.7,6.7,16.6z"/>
	<path class="st38" d="M25.9,25c0.1,0,0.2,0,0.3,0.1C26.1,25.1,26,25.1,25.9,25z"/>
	<path class="st39" d="M8.4,20.3c-0.1,0.1-0.3,0.1-0.4,0.1C8.2,20.3,8.3,20.2,8.4,20.3z"/>
	<path class="st40" d="M5.3,3.7c-0.1,0,0,0.1,0,0.1c-0.1,0,0-0.1-0.1-0.2c0,0,0,0,0-0.1C5.2,3.6,5.2,3.6,5.3,3.7
		C5.2,3.7,5.3,3.7,5.3,3.7z"/>
	<path class="st41" d="M27.7,21c-0.1-0.1-0.1-0.2-0.1-0.3C27.7,20.8,27.7,20.9,27.7,21z"/>
	<path class="st42" d="M19.4,8.4c-0.1-0.1-0.2,0-0.3-0.1C19.2,8.3,19.3,8.3,19.4,8.4z"/>
	<path class="st43" d="M9.5,18.4C9.5,18.4,9.5,18.4,9.5,18.4c0.1-0.1,0-0.1,0-0.1c0-0.1,0.1,0,0.1,0c0,0,0,0,0,0
		C9.6,18.3,9.5,18.4,9.5,18.4z"/>
	<path class="st44" d="M13,8.9C13,8.9,13,9,13,8.9c0,0.1,0,0.2,0,0.2c0,0-0.1,0-0.1,0C12.9,9.1,12.9,9.1,13,8.9
		C12.9,8.9,13,8.9,13,8.9z"/>
	<path class="st45" d="M24,3.6c0.1,0,0.2,0,0.3,0.1C24.1,3.8,24,3.7,24,3.6z"/>
	<path class="st46" d="M14.6,7.1c-0.1,0.1-0.1,0.1-0.2,0.1C14.4,7.1,14.5,7.1,14.6,7.1z"/>
	<path class="st47" d="M4.9,4.5C4.8,4.5,4.8,4.5,4.9,4.5c-0.1-0.1-0.1,0-0.1,0c-0.1,0,0-0.1,0-0.1C4.7,4.3,4.8,4.4,4.9,4.5
		C4.8,4.4,4.9,4.4,4.9,4.5z"/>
	<path class="st48" d="M25.3,8.2c0,0,0.1,0.1,0.1,0c0,0,0,0,0,0c0,0.1,0,0.1-0.1,0.1C25.2,8.3,25.3,8.3,25.3,8.2z"/>
	<path class="st49" d="M8.6,16.8c0.1,0,0.1,0.1,0.1,0.2C8.6,17,8.6,16.9,8.6,16.8z"/>
	<path class="st50" d="M24.6,24.2c0.1,0,0.1,0.1,0.2,0.1C24.6,24.3,24.6,24.3,24.6,24.2z"/>
	<path class="st51" d="M22.4,11.6C22.4,11.6,22.4,11.5,22.4,11.6c0-0.1,0-0.2,0.1-0.2C22.5,11.4,22.4,11.5,22.4,11.6z"/>
	<path class="st52" d="M8.6,1.8C8.6,1.8,8.5,1.8,8.6,1.8c-0.2,0-0.2-0.1-0.1-0.1C8.5,1.7,8.6,1.7,8.6,1.8z"/>
	<path class="st53" d="M6,19.7c0.1,0,0.1,0.1,0.1,0.2C6.1,19.8,6,19.8,6,19.7z"/>
	<path class="st54" d="M3.8,5.1C3.7,5.1,3.8,5.2,3.8,5.1c-0.1,0.1-0.1,0-0.1,0C3.7,5.1,3.7,5.1,3.8,5.1C3.8,5.1,3.8,5.1,3.8,5.1z"/>
	<path class="st55" d="M23.1,8.4c-0.1,0-0.2,0-0.2-0.1C23,8.3,23,8.3,23.1,8.4z"/>
	<path class="st56" d="M7.5,2.3c-0.1,0-0.1,0-0.1,0.1c-0.1,0-0.1-0.1,0-0.1C7.4,2.2,7.4,2.2,7.5,2.3z"/>
	<path class="st57" d="M7.9,2.6c-0.1,0-0.1-0.1-0.2-0.1C7.8,2.5,7.8,2.5,7.9,2.6z"/>
	<path class="st58" d="M17.6,8.7C17.5,8.7,17.5,8.7,17.6,8.7c-0.1-0.1-0.1-0.1-0.1-0.2C17.5,8.5,17.5,8.6,17.6,8.7
		C17.5,8.6,17.5,8.7,17.6,8.7z"/>
	<path class="st59" d="M25.3,4.1c-0.1,0-0.1-0.1-0.1-0.2C25.3,4,25.3,4,25.3,4.1z"/>
	<path class="st60" d="M2.7,5.5c-0.1,0,0,0.1,0,0.1C2.6,5.6,2.6,5.6,2.7,5.5C2.6,5.5,2.5,5.5,2.7,5.5C2.6,5.5,2.7,5.5,2.7,5.5z"/>
	<path class="st61" d="M7.3,17.8c0.1,0,0.1,0.1,0.1,0.2C7.3,17.9,7.3,17.9,7.3,17.8z"/>
	<path class="st62" d="M25.2,5c0.1,0,0.1,0.1,0.1,0.2C25.2,5.1,25.2,5,25.2,5z"/>
	<path class="st63" d="M1.4,6.9c-0.1,0-0.1-0.1-0.1-0.2C1.4,6.8,1.4,6.8,1.4,6.9z"/>
	<path class="st64" d="M25.4,5.5c0,0,0.1,0.1,0.1,0.1c0,0.1,0,0.1-0.1,0.1C25.5,5.7,25.4,5.7,25.4,5.5C25.4,5.6,25.4,5.6,25.4,5.5z"
		/>
	<path class="st65" d="M23.4,10.3c0-0.1,0-0.1,0.1-0.2C23.4,10.2,23.4,10.3,23.4,10.3z"/>
	<path class="st66" d="M6.7,16.4c0.1,0.1,0,0.1,0,0.2C6.7,16.5,6.7,16.4,6.7,16.4z"/>
	<path class="st67" d="M6.7,3.4c-0.1,0-0.1-0.1-0.2-0.1C6.6,3.3,6.6,3.4,6.7,3.4z"/>
	<path class="st64" d="M25.4,5.4c0.1,0,0.1,0.1,0.1,0.2C25.4,5.5,25.4,5.4,25.4,5.4z"/>
	<path class="st32" d="M27.9,22.1c-0.1-0.1,0-0.1,0-0.2C28,22,27.9,22,27.9,22.1z"/>
	<path class="st68" d="M25.5,4.8c-0.1-0.1,0-0.1,0-0.2C25.5,4.7,25.5,4.7,25.5,4.8z"/>
	<path class="st69" d="M9.9,0.8c-0.1,0-0.1,0-0.2-0.1C9.8,0.7,9.9,0.7,9.9,0.8z"/>
	<path class="st70" d="M7.3,16.8c-0.1,0-0.1-0.1-0.1-0.2C7.2,16.7,7.3,16.8,7.3,16.8z"/>
	<path class="st71" d="M22.4,3.3c0,0.1-0.1,0.1-0.1,0.1C22.3,3.4,22.4,3.3,22.4,3.3z"/>
	<path class="st36" d="M12.1,9c-0.1,0.1-0.1,0-0.2,0C12,9,12.1,9,12.1,9z"/>
	<path class="st72" d="M20.8,8.7c0,0.1-0.1,0.1-0.1,0.1C20.7,8.8,20.7,8.7,20.8,8.7z"/>
	<path class="st73" d="M23.2,6.1c0.1,0,0.2,0,0.2,0C23.4,6.1,23.3,6.2,23.2,6.1z"/>
	<path class="st74" d="M15,7c0,0.1-0.1,0-0.2,0C14.8,6.9,14.9,7,15,7z"/>
	<path class="st75" d="M6.2,19.4c-0.1,0-0.1,0-0.1-0.1C6.1,19.4,6.2,19.4,6.2,19.4z"/>
	<path class="st76" d="M24,23.7c0.1,0,0.1,0,0.1,0.1C24.1,23.8,24,23.8,24,23.7z"/>
	<path class="st77" d="M27.8,24c0-0.1,0-0.1,0-0.2C27.8,23.9,27.9,24,27.8,24z"/>
	<path class="st78" d="M21.4,4.2c0,0.1,0,0.1-0.1,0.1C21.3,4.3,21.3,4.2,21.4,4.2z"/>
	<path class="st79" d="M27.6,24.5c0-0.1,0-0.1,0.1-0.1C27.7,24.4,27.7,24.5,27.6,24.5z"/>
	<path class="st80" d="M9.1,4.8c0,0,0.1-0.1,0.1-0.1C9.2,4.8,9.1,4.8,9.1,4.8z"/>
	<path class="st73" d="M23.4,6.1c0.1,0,0.1,0,0.2,0C23.6,6.2,23.5,6.2,23.4,6.1z"/>
	<path class="st74" d="M15.1,6.9C15.1,7,15,7,15,7C15,6.9,15.1,6.9,15.1,6.9z"/>
	<path class="st50" d="M26.6,17.7c-0.1,0-0.1-0.1-0.1-0.1C26.6,17.6,26.6,17.7,26.6,17.7z"/>
	<path class="st41" d="M27.6,20.6c-0.1,0,0-0.1,0-0.2C27.6,20.5,27.6,20.6,27.6,20.6z"/>
	<path class="st78" d="M22.8,5.6c0,0.1-0.1,0-0.2,0C22.6,5.6,22.7,5.6,22.8,5.6z"/>
	<path class="st81" d="M24.6,3.4c-0.1,0-0.1,0-0.1-0.1C24.5,3.3,24.6,3.3,24.6,3.4z"/>
	<path class="st80" d="M9.2,4.7c0-0.1,0.1-0.1,0.1-0.1C9.3,4.7,9.3,4.7,9.2,4.7z"/>
	<path class="st82" d="M8.3,16.1c0.1,0,0,0.1,0,0.2C8.2,16.3,8.3,16.2,8.3,16.1z"/>
	<path class="st58" d="M17.7,8.6c0,0.1-0.1,0.1-0.1,0.1C17.6,8.6,17.6,8.6,17.7,8.6z"/>
	<path class="st83" d="M27.2,19.2c-0.1,0,0-0.1,0-0.1C27.2,19.1,27.2,19.2,27.2,19.2z"/>
	<path class="st84" d="M27.4,19.7c-0.1,0,0-0.1,0-0.1C27.4,19.6,27.4,19.7,27.4,19.7z"/>
	<path class="st85" d="M18.3,8.3c0,0.1-0.1,0-0.1,0C18.2,8.3,18.3,8.3,18.3,8.3z"/>
	<path class="st44" d="M12.8,9c-0.1,0-0.1,0-0.2,0C12.7,9,12.8,9,12.8,9z"/>
	<path class="st39" d="M8.6,20.2c0,0.1-0.1,0-0.1,0C8.5,20.2,8.5,20.2,8.6,20.2z"/>
	<path class="st86" d="M10.8,15.6C10.8,15.6,10.8,15.6,10.8,15.6C10.8,15.5,10.8,15.5,10.8,15.6C10.8,15.6,10.8,15.6,10.8,15.6z"/>
	<path class="st68" d="M25.5,4.6c-0.1,0,0-0.1,0-0.1C25.5,4.5,25.5,4.5,25.5,4.6z"/>
	<path class="st58" d="M17.5,8.5c-0.1,0,0-0.1,0-0.1C17.5,8.4,17.5,8.5,17.5,8.5z"/>
	<path class="st87" d="M16.1,7c-0.1,0-0.1,0-0.2,0C16,6.9,16,6.9,16.1,7z"/>
	<path class="st88" d="M8.7,18.3c0,0-0.1,0-0.1,0C8.6,18.2,8.7,18.2,8.7,18.3z"/>
	<path class="st89" d="M22.1,6.3c0-0.1,0.1,0,0.1,0C22.2,6.3,22.1,6.3,22.1,6.3z"/>
	<path class="st89" d="M22.2,6.2c0-0.1,0.1,0,0.1,0C22.3,6.2,22.2,6.2,22.2,6.2z"/>
	<path class="st84" d="M27.3,19.5c0,0,0-0.1,0-0.1C27.3,19.4,27.3,19.4,27.3,19.5z"/>
	<path class="st85" d="M18.5,8.3c0,0.1-0.1,0-0.1,0C18.4,8.3,18.4,8.3,18.5,8.3z"/>
	<path class="st88" d="M8.8,18.3c0,0-0.1,0-0.1,0C8.7,18.3,8.8,18.3,8.8,18.3z"/>
	<path class="st77" d="M27.8,24.1c0-0.1,0-0.1,0-0.1C27.8,24.1,27.8,24.1,27.8,24.1z"/>
	<path class="st86" d="M10.7,15.8c0,0,0-0.1,0-0.1C10.8,15.7,10.8,15.7,10.7,15.8z"/>
	<path class="st90" d="M27,18.6c-0.1,0,0-0.1,0-0.1C27,18.5,27,18.6,27,18.6z"/>
	<path class="st83" d="M27.2,19.1c0,0,0-0.1,0-0.1C27.2,19,27.2,19,27.2,19.1z"/>
	<path class="st91" d="M7.1,16.4c-0.1,0,0-0.1,0-0.1C7.1,16.3,7.1,16.4,7.1,16.4z"/>
	<path class="st92" d="M21.4,11.8C21.4,11.8,21.4,11.8,21.4,11.8c0.1,0.1,0.1,0.2,0.1,0.3c0.2,0.4,0.3,0.9,0.3,1.4
		c0,0.3-0.2,0.5-0.4,0.7c0,0,0,0-0.1,0c-0.1,0.1-0.2,0.1-0.3,0.1c-0.2,0-0.4,0-0.6,0c-0.2-0.1-0.5-0.2-0.7-0.3c-0.1,0-0.1,0-0.2-0.1
		c-0.2-0.1-0.3-0.2-0.4-0.3c0,0-0.1-0.1-0.1-0.1c-0.2-0.2-0.3-0.4-0.4-0.6c0,0,0-0.1,0-0.1c0-0.1,0.1-0.1,0.1-0.1
		c0.1,0.1,0.2,0.1,0.3,0.2c0.2,0.2,0.4,0.3,0.7,0.5c0.2,0.1,0.4,0.3,0.7,0.3c0.1,0,0.2,0.1,0.3,0.1c0.2,0,0.4,0.1,0.5,0
		c0.1-0.1,0.1-0.2,0.1-0.3c0-0.1,0-0.1,0-0.2c0-0.1,0-0.1,0-0.2l0,0c0-0.1,0-0.1,0-0.2c0-0.2-0.1-0.4-0.2-0.7c0-0.1-0.1-0.2-0.1-0.3
		c0,0,0-0.1,0-0.2c0-0.1-0.1-0.2-0.1-0.3c0-0.1-0.1-0.2,0-0.3c0,0,0.1,0,0.1,0c0.2,0.2,0.4,0.4,0.5,0.6
		C21.3,11.7,21.3,11.8,21.4,11.8z"/>
	<path class="st92" d="M16.2,10.6c0-0.1,0-0.2,0-0.3c0-0.1,0-0.1,0-0.2l0,0c0,0,0-0.1,0-0.2l0,0c0-0.1-0.1-0.2-0.1-0.3
		c-0.1-0.3-0.1-0.6-0.4-0.8c-0.3-0.3-0.7-0.3-1.1,0.1c-0.3,0.3-0.5,0.7-0.6,1.1c-0.1,0.2-0.1,0.5-0.1,0.8c0,0.1,0,0.1,0.1,0.2
		c0,0,0.1,0,0.1,0c0,0.1-0.1,0.1-0.1,0.1c-0.1,0-0.2-0.1-0.3-0.2c-0.1-0.2-0.1-0.5-0.1-0.7c0-0.1,0-0.2,0.1-0.3c0,0,0-0.1,0-0.1v0
		c0,0,0-0.1,0-0.1c0.1-0.3,0.3-0.7,0.5-1c0.1-0.2,0.2-0.3,0.4-0.4c0,0,0.1-0.1,0.1-0.1c0.1,0,0.2-0.1,0.3-0.1c0.4,0,0.7,0.1,1,0.4
		c0.2,0.3,0.4,0.6,0.4,1c0.1,0.3,0.1,0.5,0,0.7c0,0.2-0.1,0.5-0.2,0.7c-0.1,0-0.1-0.1-0.1-0.1l0,0C16.2,10.8,16.2,10.7,16.2,10.6z"
		/>
	<path class="st93" d="M11.4,14.2C11.4,14.2,11.5,14.2,11.4,14.2c0.2,0.1,0.4,0.1,0.5,0l0,0c0,0,0.1,0,0.1,0l0,0
		c0.1,0,0.1-0.1,0.2-0.1c0.4-0.2,0.7-0.4,1-0.7c0,0,0.1,0,0.1,0c0,0,0,0.1,0,0.1c0,0.1-0.1,0.3-0.2,0.4c0,0,0,0.1-0.1,0.1
		c-0.1,0.2-0.2,0.3-0.4,0.4c0,0-0.1,0.1-0.1,0.1c0,0,0,0,0,0c0,0-0.1,0.1-0.2,0.1c-0.1,0-0.2,0.1-0.3,0.1c-0.1,0.1-0.1,0-0.2,0l0,0
		c-0.1,0-0.3,0-0.4,0c0,0-0.1,0-0.1,0c-0.1-0.1-0.3-0.1-0.4-0.2c0-0.1-0.1-0.1-0.1-0.2c-0.1-0.1-0.1-0.2-0.2-0.4c0,0,0-0.1,0-0.1
		l0,0c0,0,0,0,0,0c0-0.3,0-0.5,0-0.8c0-0.1,0.1-0.2,0-0.3c0,0,0-0.1,0-0.2c0.1-0.3,0.2-0.7,0.4-0.9c0.2-0.2,0.3-0.3,0.6-0.4
		c0.1,0,0.2,0,0.1,0.1c-0.2,0.1-0.3,0.3-0.4,0.5c-0.1,0.2-0.2,0.4-0.3,0.7c0,0.1-0.1,0.2,0,0.3c0,0.1,0,0.1,0,0.2c0,0.2,0,0.4,0,0.6
		c0,0,0,0.1,0,0.1l0,0c0,0,0,0.1,0,0.2l0,0c0,0,0,0.1,0,0.1c0,0.1,0.1,0.1,0.1,0.2C11.3,14.1,11.4,14.1,11.4,14.2z"/>
	<path class="st94" d="M23.4,12.6c0.5,0.1,1,0.2,1.5,0.5c0.1,0,0.2,0.1,0.3,0.2c0.1,0.1,0.1,0.2,0,0.3c-0.1,0.1-0.1,0.1-0.2,0.1
		c-0.3,0.2-0.6,0.3-0.9,0.4c-0.1-0.2-0.1-0.4-0.2-0.6c-0.1-0.2-0.2-0.4-0.3-0.6C23.4,12.7,23.4,12.7,23.4,12.6z"/>
	<path class="st93" d="M8.8,14.4c-0.1-0.1,0-0.3,0-0.4c0-0.1,0-0.2,0.1-0.3c0.1-0.2,0.2-0.4,0.4-0.5c0.1-0.1,0.2-0.1,0.3-0.1
		c0.1,0,0.1,0.1,0,0.1c-0.1,0-0.2,0.1-0.2,0.2c0,0.1-0.1,0.1-0.1,0.2l0,0c0,0.1,0,0.1,0,0.2c0,0.1,0,0.2,0,0.3c0,0.1,0,0.2,0.1,0.3
		c0,0,0.1,0.1,0.1,0.1c0,0,0,0,0,0c0.1,0,0.2,0,0.3,0c0,0,0,0,0,0c0.1,0,0.2,0,0.1,0.1c-0.1,0.2-0.3,0.3-0.5,0.3
		c-0.2,0-0.4-0.1-0.6-0.3C8.8,14.5,8.8,14.4,8.8,14.4z"/>
	<path class="st95" d="M17.8,13.8c0,0.1,0,0.2-0.1,0.3c0,0,0,0.1,0,0.1c0,0-0.1,0.1-0.1,0.1c-0.2,0.2-0.4,0.3-0.6,0.2
		c-0.1,0-0.3-0.1-0.3-0.2c-0.1-0.2-0.2-0.3-0.3-0.5c0-0.1,0-0.3,0.1-0.4c0,0,0.1-0.1,0.1-0.1c0.1,0,0.1,0,0.1,0.1
		c0,0.1,0,0.2,0.1,0.3c0.1,0.1,0.2,0.2,0.3,0.3c0.1,0.1,0.2,0,0.3,0c0.1,0,0.1-0.1,0.2-0.1c0,0,0.1-0.1,0.1-0.1
		c0.1-0.1,0.1-0.2,0.2-0.3c0,0,0.1,0,0.1,0C17.8,13.6,17.8,13.7,17.8,13.8z"/>
	<path class="st96" d="M19.5,12.2c-0.2,0-0.4-0.1-0.5-0.2c-0.1-0.1-0.1-0.2,0-0.3c0-0.1,0.1-0.1,0.1,0c0.2,0.1,0.3,0.2,0.5,0.1
		c0.1,0,0.1-0.1,0.2-0.2c0-0.1,0-0.2,0-0.3c0,0,0-0.1,0-0.1c0,0,0,0,0.1,0c0.2,0.3,0.3,0.7-0.1,0.9C19.7,12.1,19.6,12.2,19.5,12.2z"
		/>
	<path class="st97" d="M14.7,10.5c-0.1,0.1-0.1,0.2-0.1,0.3c0,0,0,0.1,0,0.1c0,0-0.1,0-0.1-0.1c-0.1-0.2,0-0.6,0.3-0.7
		c0.2,0,0.4,0,0.5,0.2c0.2,0.2,0.2,0.5,0.2,0.7c0,0.1,0,0.3,0,0.4c-0.1-0.1-0.1-0.3-0.1-0.4c-0.1-0.2-0.1-0.5-0.3-0.6c0,0,0,0,0,0
		C14.9,10.4,14.8,10.4,14.7,10.5z"/>
	<path class="st98" d="M18.2,9.7c0.2-0.3,0.5-0.4,0.8-0.1c0.1,0.1,0.1,0.3,0.1,0.5c0,0.1,0,0.1-0.1,0.1c0-0.1,0-0.1-0.1-0.2
		c-0.1-0.2-0.2-0.3-0.5-0.2c-0.1,0-0.2,0.1-0.2,0.2c0,0,0,0.1-0.1,0C18.1,9.9,18.1,9.8,18.2,9.7z"/>
	<path class="st99" d="M12.8,11.9c0.1,0.1,0.1,0.2,0.1,0.3c0,0.2-0.1,0.4-0.2,0.6c-0.1,0-0.1,0.1-0.2,0.1c-0.1,0-0.1,0-0.2,0
		c-0.1,0-0.1,0-0.2-0.1c0.1,0,0.2,0,0.2,0c0.2,0,0.2-0.2,0.3-0.3C12.8,12.3,12.8,12.1,12.8,11.9C12.7,11.8,12.7,11.8,12.8,11.9z"/>
	<path class="st100" d="M15.5,13.7c0-0.3-0.2-0.5-0.4-0.6c0,0,0,0-0.1,0c0.1,0,0.2,0,0.3,0.1c0.2,0.1,0.3,0.2,0.3,0.4
		c0,0.1,0.1,0.1,0,0.2c0,0,0,0.1,0,0.1C15.6,13.8,15.5,13.8,15.5,13.7C15.5,13.7,15.5,13.7,15.5,13.7z"/>
	<path class="st101" d="M27.3,23.6c0-0.2,0-0.3,0.1-0.5c0-0.2,0-0.5,0-0.7c0-0.1,0-0.2,0-0.3c0,0,0-0.1,0-0.1c0,0,0,0,0,0
		c0,0.3,0.1,0.6,0,0.9C27.3,23.2,27.3,23.4,27.3,23.6C27.3,23.6,27.3,23.6,27.3,23.6z"/>
	<path class="st102" d="M11.1,13.5c0,0,0-0.1,0-0.1c0-0.2,0-0.4,0-0.6c0,0,0-0.1,0-0.1C11.1,13,11.1,13.3,11.1,13.5z"/>
	<path class="st103" d="M10.6,13c0,0.3,0,0.5,0,0.8c0,0,0,0,0-0.1C10.5,13.5,10.5,13.3,10.6,13C10.5,13.1,10.6,13,10.6,13z"/>
	<path class="st104" d="M11.3,14.7c0.2,0,0.4,0.1,0.6,0c0,0,0,0,0,0C11.7,14.8,11.5,14.8,11.3,14.7C11.3,14.7,11.3,14.7,11.3,14.7z"
		/>
	<path class="st105" d="M21.1,13.6C21.1,13.7,21.1,13.7,21.1,13.6c-0.2,0.1-0.3,0.1-0.5,0.1c0,0,0,0,0,0c0.1,0,0.2,0,0.3,0
		C20.9,13.7,21,13.7,21.1,13.6z"/>
	<path class="st106" d="M14.8,13.3c0-0.1,0-0.1,0-0.2c0.1,0,0.1,0,0.2,0.1C14.9,13.3,14.8,13.3,14.8,13.3z"/>
	<path class="st107" d="M15.4,14.5C15.4,14.5,15.4,14.5,15.4,14.5c-0.2,0-0.2,0-0.1-0.2C15.3,14.3,15.4,14.4,15.4,14.5z"/>
	<path class="st108" d="M26.2,24.4c0.1,0,0.3,0,0.4,0c0,0,0,0,0,0C26.5,24.5,26.4,24.5,26.2,24.4C26.2,24.5,26.2,24.5,26.2,24.4z"/>
	<path class="st109" d="M17.8,13.8c0-0.1,0-0.2,0-0.3c0,0,0-0.1,0-0.1c0-0.1,0.1-0.1,0.1,0C17.8,13.5,17.9,13.7,17.8,13.8z"/>
	<path class="st110" d="M26.9,20.4c-0.1-0.1-0.1-0.1-0.1-0.2c0,0,0-0.1,0-0.1c0,0,0,0,0,0C26.9,20.1,26.9,20.3,26.9,20.4z"/>
	<path class="st111" d="M27.2,21.9c-0.1-0.1-0.1-0.3-0.1-0.4c0,0,0,0,0,0C27.2,21.6,27.3,21.7,27.2,21.9z"/>
	<path class="st112" d="M9.9,14.6c0-0.1-0.1-0.1-0.1-0.1c0-0.1,0.1,0,0.2-0.1C10,14.4,10,14.5,9.9,14.6C10,14.5,10,14.6,9.9,14.6z"
		/>
	<path class="st113" d="M11.9,14.2C11.9,14.2,11.9,14.2,11.9,14.2c-0.1,0-0.2,0-0.3,0c0,0,0,0,0,0C11.6,14.2,11.8,14.2,11.9,14.2z"
		/>
	<path class="st114" d="M20.6,11c0,0.1,0.1,0.2,0,0.3C20.6,11.3,20.6,11.2,20.6,11C20.6,11,20.6,11,20.6,11z"/>
	<path class="st115" d="M16,9.6c0.1,0.1,0.1,0.2,0.1,0.3c0,0,0,0,0,0C16.1,9.9,16,9.8,16,9.6z"/>
	<path class="st116" d="M27.2,23.9c0-0.1,0-0.2,0.1-0.3C27.3,23.7,27.3,23.8,27.2,23.9z"/>
	<path class="st117" d="M14.9,13.9C14.9,13.9,14.8,13.9,14.9,13.9c-0.1-0.1-0.1-0.1-0.1-0.2C14.9,13.7,14.9,13.8,14.9,13.9z"/>
	<path class="st118" d="M27.2,21.4C27.2,21.4,27.1,21.4,27.2,21.4c0-0.1-0.1-0.2-0.1-0.3C27.1,21.2,27.2,21.3,27.2,21.4z"/>
	<path class="st119" d="M8.9,13.7c0,0.1,0,0.2-0.1,0.3C8.8,13.8,8.8,13.7,8.9,13.7z"/>
	<path class="st120" d="M18.2,9.7c0,0.1-0.1,0.2,0,0.3C18.1,10,18.1,9.8,18.2,9.7z"/>
	<path class="st121" d="M14.7,10.5c0.1-0.1,0.2-0.2,0.3-0.1C14.9,10.4,14.8,10.5,14.7,10.5z"/>
	<path class="st122" d="M23.6,22.5c0.1,0,0.2,0.1,0.2,0.2C23.7,22.6,23.7,22.5,23.6,22.5z"/>
	<path class="st123" d="M21,14.2c0.1-0.1,0.2-0.1,0.3-0.1C21.2,14.3,21.1,14.2,21,14.2z"/>
	<path class="st124" d="M9.8,14.5c-0.1,0.1-0.2,0.1-0.3,0C9.6,14.5,9.7,14.5,9.8,14.5z"/>
	<path class="st125" d="M21.5,12.1c-0.1-0.1-0.1-0.2-0.1-0.3C21.4,11.9,21.5,12,21.5,12.1z"/>
	<path class="st126" d="M11.8,11.3c0-0.1-0.1-0.1-0.1-0.1c0-0.1,0.1-0.1,0.2,0C11.9,11.2,11.9,11.3,11.8,11.3z"/>
	<path class="st127" d="M27.3,22.1C27.3,22.1,27.3,22.2,27.3,22.1c-0.1,0-0.1-0.1,0-0.2C27.3,22,27.3,22,27.3,22.1z"/>
	<path class="st128" d="M12.2,14.1c-0.1,0.1-0.1,0.1-0.2,0.1C12.1,14.1,12.1,14.1,12.2,14.1z"/>
	<path class="st129" d="M8.8,14.4c0,0.1,0.1,0.1,0.1,0.2C8.8,14.5,8.8,14.5,8.8,14.4z"/>
	<path class="st130" d="M10.8,14.3c0.1,0,0.1,0.1,0.1,0.2C10.9,14.5,10.8,14.4,10.8,14.3z"/>
	<path class="st131" d="M25.2,23.8c0.1,0,0.1,0.1,0.2,0.1C25.3,23.9,25.2,23.9,25.2,23.8z"/>
	<path class="st132" d="M27.1,21.1c-0.1-0.1,0-0.1,0-0.2C27.1,20.9,27.1,21,27.1,21.1z"/>
	<path class="st133" d="M12.3,12.9c0.1,0,0.1,0,0.2,0C12.5,13,12.4,13,12.3,12.9z"/>
	<path class="st134" d="M12.8,11.9C12.8,11.8,12.7,11.9,12.8,11.9c-0.1,0.1-0.1,0-0.1,0C12.8,11.8,12.8,11.8,12.8,11.9z"/>
	<path class="st135" d="M12.4,14.6c0-0.1,0.1-0.1,0.2-0.1C12.5,14.6,12.4,14.6,12.4,14.6z"/>
	<path class="st136" d="M24,22.8c0.1,0,0.1,0.1,0.1,0.1C24,22.9,24,22.9,24,22.8z"/>
	<path class="st137" d="M18.9,13.3c0.1,0,0.1,0.1,0.1,0.1C19,13.5,18.9,13.4,18.9,13.3z"/>
	<path class="st138" d="M19.5,13.8c0.1,0,0.1,0,0.2,0.1C19.6,13.9,19.5,13.9,19.5,13.8z"/>
	<path class="st139" d="M16.2,10.6c0,0.1,0,0.2,0,0.3C16.2,10.8,16.2,10.7,16.2,10.6z"/>
	<path class="st104" d="M11.9,14.8c0.1-0.1,0.1,0,0.2,0C12,14.8,12,14.7,11.9,14.8z"/>
	<path class="st140" d="M9.3,13.6c0-0.1,0-0.1,0.1-0.2C9.4,13.5,9.4,13.6,9.3,13.6z"/>
	<path class="st141" d="M26.4,18.8c0-0.1-0.1-0.1-0.1-0.2C26.4,18.7,26.4,18.7,26.4,18.8z"/>
	<path class="st142" d="M10.7,12.6c0,0.1,0,0.1,0,0.2C10.6,12.7,10.6,12.6,10.7,12.6z"/>
	<path class="st143" d="M21.4,11.8c-0.1,0-0.1-0.1-0.1-0.1C21.3,11.7,21.4,11.7,21.4,11.8z"/>
	<path class="st144" d="M21.1,12.8c0.1,0,0,0.1,0,0.2C21.1,12.9,21.1,12.8,21.1,12.8z"/>
	<path class="st145" d="M13.1,13.9c0,0,0-0.1,0.1-0.1C13.1,13.9,13.2,13.9,13.1,13.9z"/>
	<path class="st146" d="M17.6,13.7c0,0.1,0,0.1-0.1,0.1C17.5,13.7,17.5,13.7,17.6,13.7z"/>
	<path class="st147" d="M12.6,14.5c0-0.1,0.1-0.1,0.1-0.1C12.7,14.4,12.7,14.5,12.6,14.5z"/>
	<path class="st148" d="M9.5,14.5c-0.1,0-0.1,0-0.1-0.1C9.4,14.4,9.4,14.4,9.5,14.5z"/>
	<path class="st149" d="M11.4,14.2c-0.1,0-0.1,0-0.1-0.1C11.4,14.1,11.4,14.1,11.4,14.2z"/>
	<path class="st150" d="M16.1,10c0.1,0,0,0.1,0,0.2C16,10.1,16.1,10.1,16.1,10z"/>
	<path class="st108" d="M26.8,24.4c0-0.1,0.1-0.1,0.1-0.1C26.9,24.4,26.8,24.4,26.8,24.4z"/>
	<path class="st151" d="M24.5,23.3c0.1,0,0.1,0,0.1,0.1C24.5,23.4,24.5,23.3,24.5,23.3z"/>
	<path class="st152" d="M17.6,14.3c0-0.1,0-0.1,0.1-0.1C17.7,14.2,17.6,14.3,17.6,14.3z"/>
	<path class="st150" d="M16.1,10.2c0.1,0,0,0.1,0,0.2C16.1,10.3,16.1,10.2,16.1,10.2z"/>
	<path class="st102" d="M11.1,13.7c-0.1,0,0-0.1,0-0.2C11.1,13.6,11.1,13.7,11.1,13.7z"/>
	<path class="st140" d="M9.3,13.8c0-0.1,0-0.1,0-0.2C9.3,13.7,9.4,13.8,9.3,13.8z"/>
	<path class="st153" d="M14.8,8.2c0,0.1-0.1,0.1-0.1,0.1C14.7,8.2,14.7,8.2,14.8,8.2z"/>
	<path class="st139" d="M16.3,10.9C16.3,10.9,16.3,10.9,16.3,10.9c0.1,0.1,0.1,0.1,0.1,0.1C16.3,11,16.3,11,16.3,10.9
		C16.3,10.9,16.3,10.9,16.3,10.9z"/>
	<path class="st144" d="M21.2,12.9c0.1,0,0,0.1,0,0.2C21.1,13.1,21.2,13,21.2,12.9z"/>
	<path class="st103" d="M10.6,13.8c0.1,0,0,0.1,0,0.1C10.6,13.9,10.6,13.8,10.6,13.8z"/>
	<path class="st108" d="M26.6,24.5c0-0.1,0.1,0,0.1,0C26.8,24.5,26.7,24.4,26.6,24.5z"/>
	<path class="st113" d="M12,14.2c0,0.1-0.1,0-0.1,0C11.9,14.1,12,14.2,12,14.2z"/>
	<path class="st154" d="M26.8,20C26.8,20,26.8,20,26.8,20c-0.1,0,0-0.1,0-0.1C26.9,19.9,26.8,20,26.8,20z"/>
	<path class="st155" d="M13.7,9.6c0,0,0,0.1,0,0.1C13.7,9.7,13.6,9.6,13.7,9.6z"/>
	<path class="st132" d="M27,20.9c-0.1,0,0-0.1,0-0.1C27.1,20.8,27,20.8,27,20.9z"/>
	<path class="st155" d="M13.7,9.7c0,0,0,0.1,0,0.1C13.6,9.8,13.6,9.8,13.7,9.7z"/>
	<path class="st156" d="M20.8,11.6c0.1,0,0,0.1,0,0.2C20.7,11.8,20.8,11.7,20.8,11.6z"/>
	<path class="st157" d="M14,11c0,0-0.1,0-0.1,0C13.9,11,14,10.9,14,11z"/>
	<path class="st141" d="M26.3,18.6c-0.1,0,0-0.1,0-0.1C26.3,18.5,26.3,18.6,26.3,18.6z"/>
	<path class="st102" d="M11.2,13.8c-0.1,0,0-0.1,0-0.1C11.2,13.8,11.2,13.8,11.2,13.8z"/>
	<path class="st158" d="M25.8,17.4c0,0-0.1-0.1,0-0.1C25.8,17.3,25.8,17.4,25.8,17.4z"/>
	<path class="st159" d="M25.7,17.1c0,0,0-0.1-0.1-0.1C25.7,17,25.6,17.1,25.7,17.1z"/>
	<path class="st94" d="M18.9,26c-0.7,0-1.5-0.2-2.2-0.4c-0.2-0.1-0.4-0.1-0.6-0.2c-0.1,0-0.3,0-0.4,0c-0.3,0.1-0.5-0.1-0.4-0.4
		c0.1-0.2,0-0.5,0-0.7c-0.1-1.2-0.4-2.5-0.6-3.7c-0.2-1-0.5-2-0.8-3c-0.1-0.5-0.2-1.1-0.3-1.6c0-0.1,0-0.1,0-0.1c0.1,0,0.1,0,0.1,0
		c0.1,0.1,0.2,0.3,0.2,0.4c0.2,0.5,0.3,1,0.4,1.5c0.2,0.6,0.4,1.2,0.6,1.7c0.2,0.7,0.3,1.4,0.5,2c0.1,0.6,0.3,1.2,0.3,1.8
		c0,0.5,0.1,0.9,0.1,1.4c0,0,0,0.1,0.1,0.1c0.3,0,0.6,0.1,0.9,0.2c0.7,0.2,1.3,0.3,2,0.4c0.4,0,0.8,0.1,1.2,0.2c0,0,0.1,0,0.1,0
		c0,0,0,0.1-0.1,0.1C19.7,25.9,19.3,26,18.9,26z"/>
	<path class="st160" d="M23.4,11.4c-0.1,0-0.2,0.1-0.2,0.3c0-0.1,0-0.3,0-0.4c0-0.1,0-0.1,0.1-0.1C23.3,11.2,23.4,11.2,23.4,11.4
		C23.4,11.3,23.4,11.4,23.4,11.4z"/>
</g>
</svg>
