<?xml version="1.0" encoding="utf-8"?>
<!-- Generator: Adobe Illustrator 22.1.0, SVG Export Plug-In . SVG Version: 6.00 Build 0)  -->
<svg version="1.1" id="Слой_1" xmlns="http://www.w3.org/2000/svg" xmlns:xlink="http://www.w3.org/1999/xlink" x="0px" y="0px"
	 viewBox="0 0 28.3 28.3" style="enable-background:new 0 0 28.3 28.3;" xml:space="preserve">
<style type="text/css">
	.st0{fill:#575757;}
	.st1{fill:#FAD50C;}
	.st2{fill:#FEFEFD;}
</style>
<g>
	<path class="st0" d="M5.2,25.3c0.3,0.3,0.6,0.7,0.9,1c0.1,0.1,0.1,0.2,0.2,0.2c0.4,0.3,0.5,0.7,0.6,1.1c-0.1,0-0.2-0.1-0.3-0.2
		c-0.3-0.2-0.6-0.5-0.8-0.8c-0.3-0.4-0.7-0.8-1.1-1.3c-0.4-0.6-0.7-1.3-1.1-1.9c-0.5-1.2-0.8-2.4-1-3.7c-0.1-0.8-0.2-1.6-0.1-2.4
		c0-1.1,0.2-2.2,0.6-3.3c0.4-1,0.8-2,1.5-2.8c0.4-0.4,0.8-0.8,1.3-1.2c0.1,0,0.1-0.1,0.1-0.2c0-0.2,0-0.5,0-0.7c0-0.1,0-0.1,0.1-0.1
		c0.5-0.2,1-0.4,1.5-0.6c0.1,0,0.1,0,0.1,0.1c0.1,0.3,0.3,0.5,0.5,0.6c0.2,0.1,0.4,0.1,0.6,0.1c0.6,0.1,1.1,0.3,1.5,0.7
		c0.3,0.4,0.6,0.7,0.9,1.1c0.5,0.8,0.9,1.7,1.2,2.5c0.5,1,0.9,2,1.4,3c0.4,0.9,0.8,1.8,1.2,2.7c0.2,0.5,0.5,1,0.7,1.5
		c0.2,0.4,0.4,0.8,0.6,1.2c0,0,0,0,0,0.1c-0.2-0.1-0.3-0.1-0.5-0.2c-0.2-0.1-0.4-0.2-0.6-0.3c-0.1,0-0.1-0.1-0.1-0.1
		c-0.1-0.6-0.3-1.3-0.4-1.9c0-0.1,0-0.1-0.1-0.2c0,0.1,0,0.1,0,0.1c0.1,0.6,0.2,1.3,0.3,1.9c0,0.1,0,0.1-0.1,0.1
		c-0.1,0-0.2-0.1-0.3-0.1c-0.1,0-0.1,0-0.1-0.1c-0.1-0.8-0.3-1.7-0.5-2.5c0,0,0,0,0-0.1c0,0.1,0,0.1,0,0.2c0,0.6,0.1,1.2,0.2,1.8
		c0,0.2,0,0.3,0.1,0.5c0,0.1,0,0.1-0.1,0.1c0,0-0.1,0-0.1,0c-0.3-0.1-0.3-0.1-0.3-0.3c-0.1-0.9-0.2-1.7-0.4-2.6c0,0,0-0.1,0-0.1
		c0,0,0,0.1,0,0.1c0,0.7,0.1,1.4,0.1,2c0,0.2,0,0.5,0.1,0.7c0,0.1,0,0.1-0.1,0.1c-0.2,0-0.2,0-0.3-0.3c-0.2-0.9-0.3-1.8-0.4-2.7
		c0,0,0-0.1,0-0.1c0,0.1,0,0.2,0,0.3c0,0.8,0.1,1.7,0.2,2.5c0,0.2,0,0.2-0.2,0.2c-0.3,0-0.3,0-0.4-0.4c-0.1-0.7-0.2-1.4-0.4-2.1
		c0-0.1-0.1-0.3-0.1-0.4c0,0,0,0,0,0c0,0.2,0,0.4,0,0.5c0.1,0.7,0.1,1.4,0.3,2.1c0,0.2,0,0.2-0.2,0.2c-0.1,0-0.2,0-0.4,0
		c-0.1,0-0.1,0-0.1-0.1c-0.2-0.9-0.4-1.7-0.6-2.6c0,0,0,0,0-0.1c0,0.2,0,0.3,0,0.5c0.1,0.7,0.2,1.5,0.4,2.2c0,0.1,0,0.1-0.1,0.1
		c-0.1,0-0.2,0-0.3,0c-0.1,0-0.1,0-0.1-0.1c-0.2-0.9-0.3-1.8-0.5-2.7c0-0.1,0-0.2-0.1-0.2c0,0.1,0,0.3,0,0.4c0,0.8,0.2,1.7,0.3,2.5
		c0,0.2,0,0.2-0.2,0.3c-0.1,0-0.1,0-0.2,0c-0.1,0-0.2,0-0.2-0.1c-0.3-0.9-0.4-1.8-0.6-2.8c0,0,0-0.1-0.1-0.1c0,0.1,0,0.2,0,0.3
		c0.1,0.9,0.3,1.8,0.5,2.7c0,0.1,0,0.1-0.1,0.2c-0.1,0-0.3,0.1-0.4,0.1c-0.1,0-0.1,0-0.1-0.1c-0.1-0.6-0.3-1.2-0.4-1.8
		c-0.1-0.3-0.1-0.6-0.2-0.9c0,0,0,0,0-0.1c0,0.1,0,0.1,0,0.2c0.1,0.9,0.2,1.8,0.4,2.7c0,0,0,0.1,0,0.1c-0.1,0.1-0.3,0.1-0.4,0.2
		c-0.1,0-0.1,0-0.1,0c-0.2-0.9-0.4-1.9-0.5-2.8c0,0,0-0.1,0-0.1c0,0.1,0,0.1,0,0.1c0,0.5,0,1,0.1,1.5c0.1,0.5,0.2,0.9,0.3,1.4
		c0,0,0,0.1,0,0.1c-0.1,0.1-0.3,0.2-0.4,0.4c-0.2-1-0.5-2-0.9-2.9c0,0,0,0.1,0,0.1c0.2,0.9,0.4,1.8,0.6,2.7c0,0.1,0,0.1,0.1,0.2
		c0.1,0.1,0,0.2,0,0.2c-0.1,0.1-0.1,0.2-0.2,0.3c-0.3-0.9-0.5-1.8-0.9-2.6c0,0,0,0,0,0c0.2,0.8,0.4,1.6,0.6,2.4c0,0.1,0,0.1,0.1,0.2
		c0.2,0.2,0,0.5-0.1,0.7c-0.4-0.8-0.8-1.7-1.2-2.5c0,0.1,0,0.2,0,0.2C6,22,6.3,22.5,6.5,23.1c0.1,0.3,0.3,0.6,0.4,0.8
		c0,0,0,0.1,0,0.1c-0.1,0.2-0.1,0.4-0.1,0.6c-0.3-0.6-0.5-1.1-0.8-1.7c0,0.1,0,0.2,0.1,0.3c0.2,0.6,0.4,1.1,0.7,1.6c0,0,0,0.1,0,0.1
		c0,0.2,0,0.4-0.1,0.6c-0.3-0.3-0.5-0.6-0.8-0.9c0,0,0,0,0,0c0,0,0,0,0,0c0.2,0.4,0.5,0.7,0.7,1c0,0.1,0.1,0.1,0.1,0.2
		c0,0.1,0,0.3,0,0.4c0,0.1,0,0.1,0,0.2c-0.1-0.1-0.3-0.2-0.4-0.3c-0.3-0.3-0.6-0.5-0.9-0.8C5.3,25.4,5.3,25.3,5.2,25.3
		C5.2,25.3,5.2,25.3,5.2,25.3C5.2,25.3,5.2,25.3,5.2,25.3z"/>
	<path class="st1" d="M22.4,10.9c0.1,0,0.2-0.1,0.4-0.1c0.2,0,0.4-0.1,0.6-0.1c0.3-0.1,0.6-0.1,0.9-0.1c0.2,0,0.4,0.1,0.6,0.3
		c0.1,0.1,0.1,0.2,0.2,0.4c0,0.2,0,0.4-0.1,0.6c-0.1,0.2-0.2,0.4-0.3,0.7c-0.2,0.3-0.4,0.6-0.6,0.9c-0.2,0.2-0.3,0.5-0.5,0.7
		c-0.2,0.3-0.4,0.6-0.6,0.9c-0.1,0.2-0.3,0.4-0.5,0.6c-0.2,0.2-0.4,0.4-0.6,0.7c0,0-0.1,0,0,0.1c0,0,0.1,0,0.1,0
		c0.3-0.1,0.6-0.2,0.9-0.3c0.2,0,0.4-0.1,0.6-0.1c0.2,0,0.4,0,0.7,0c0.3,0,0.6,0.1,0.8,0.2c0.2,0.1,0.3,0.3,0.3,0.6
		c0,0.4,0,0.8-0.2,1.2c-0.2,0.4-0.3,0.7-0.6,1.1c-0.1,0.2-0.3,0.4-0.4,0.6c-0.3,0.4-0.6,0.8-0.9,1.1c-0.3,0.3-0.6,0.6-0.9,0.9
		c-0.2,0.2-0.5,0.5-0.7,0.7c-0.3,0.3-0.6,0.5-1,0.8c-0.2,0.2-0.4,0.3-0.6,0.5c-0.2,0.1-0.3,0.3-0.5,0.4c-0.3,0.2-0.6,0.4-0.9,0.6
		c-0.3,0.2-0.7,0.5-1,0.7c-0.5,0.3-1,0.6-1.5,0.8c-0.3,0.2-0.7,0.3-1,0.5c-0.3,0.1-0.5,0.2-0.8,0.3c-0.2,0.1-0.4,0.1-0.6,0.2
		c-0.2,0.1-0.5,0.1-0.7,0.2c-0.2,0.1-0.4,0.1-0.6,0.2c-0.2,0-0.4,0.1-0.6,0.1c-0.3,0-0.6,0.1-0.9,0.1c0,0-0.1,0-0.1,0
		c-0.4,0-0.7,0-1.1,0.1c-0.3,0-0.5,0-0.8,0c-0.3,0-0.7,0-1-0.1c-0.1,0-0.3-0.1-0.3-0.3c0-0.1,0-0.2,0.1-0.2c0,0,0.1,0,0.1,0
		c0.1,0.2,0.3,0.2,0.4,0.2c0.6,0,1.2,0,1.8,0c0.4,0,0.9-0.1,1.3-0.1c0.4-0.1,0.9-0.2,1.3-0.3c0.3-0.1,0.6-0.2,0.9-0.3
		c0.4-0.1,0.8-0.3,1.1-0.4c0.3-0.1,0.5-0.2,0.8-0.3c0.3-0.1,0.6-0.3,0.8-0.4c0.5-0.3,1.1-0.6,1.6-1c0.4-0.3,0.8-0.6,1.3-0.9
		c0.5-0.3,0.9-0.7,1.4-1c0.5-0.4,0.9-0.8,1.4-1.2c0.3-0.2,0.5-0.5,0.8-0.8c0.3-0.3,0.6-0.7,0.9-1.1c0.2-0.3,0.4-0.5,0.6-0.8
		c0.2-0.3,0.4-0.5,0.5-0.8c0.1-0.2,0.2-0.5,0.2-0.8c0-0.3-0.1-0.4-0.4-0.4c-0.2,0-0.5,0-0.7,0c-0.4,0-0.7,0.2-1.1,0.3
		c-0.2,0.1-0.4,0.1-0.6,0.2c-0.3,0.1-0.6,0.2-0.8,0.4c-0.2,0.1-0.5,0.2-0.7,0.4c-0.1,0.1-0.3,0.1-0.4-0.1c-0.1-0.1-0.1-0.3,0.1-0.4
		c0.6-0.4,1.1-0.9,1.5-1.4c0.4-0.4,0.8-0.9,1.1-1.4c0.2-0.3,0.4-0.6,0.6-0.9c0.1-0.2,0.3-0.4,0.4-0.7c0.3-0.4,0.5-0.8,0.7-1.3
		c0-0.1,0.1-0.2,0.1-0.3c0-0.1,0-0.2-0.2-0.2c-0.3,0-0.6,0-0.8,0.1c-0.2,0.1-0.3,0.1-0.5,0.1c-0.2,0-0.4,0.1-0.6,0.2
		c-0.3,0.1-0.7,0.2-1,0.4c-0.4,0.1-0.8,0.3-1.1,0.5c-0.2,0.1-0.4,0.3-0.7,0.4c-0.2,0.1-0.3,0-0.4-0.1c-0.1-0.1-0.1-0.3,0-0.4
		c0.1-0.1,0.3-0.2,0.4-0.3c0.3-0.2,0.6-0.3,1-0.5c0.3-0.2,0.5-0.4,0.8-0.6c0.3-0.2,0.6-0.5,1-0.8c0.3-0.3,0.7-0.6,1-1
		c0.2-0.2,0.4-0.5,0.5-0.7c0.1-0.2,0.2-0.5,0.3-0.8c0-0.2,0.1-0.4,0-0.5c0-0.3-0.1-0.5-0.3-0.7c-0.2-0.2-0.5-0.3-0.8-0.3
		c-0.4,0-0.8,0.1-1.2,0.2c-0.4,0.1-0.7,0.3-1,0.5C20.3,7.4,20,7.7,19.7,8c-0.3,0.3-0.6,0.7-0.9,1c-0.4,0.4-0.7,0.9-1.1,1.3
		c-0.2,0.2-0.3,0.4-0.5,0.6c-0.2,0.3-0.4,0.5-0.6,0.8c-0.2,0.3-0.5,0.7-0.8,0.9c-0.2,0.2-0.4,0.3-0.6,0.5c0,0-0.1,0.1-0.1,0
		c0,0,0-0.1,0-0.1c0-0.1,0.1-0.1,0.1-0.2c0.2-0.3,0.4-0.7,0.6-1c0.2-0.3,0.4-0.7,0.7-1c0.3-0.4,0.6-0.8,0.9-1.2
		c0.3-0.4,0.7-0.8,1-1.2c0.2-0.3,0.5-0.5,0.7-0.8c0.3-0.3,0.7-0.6,1.1-0.9c0.3-0.2,0.6-0.4,0.9-0.5C21.4,6.1,21.7,6,22,5.9
		c0.2-0.1,0.5-0.1,0.7-0.1c0.6,0,1.1,0.2,1.4,0.6c0.2,0.2,0.2,0.4,0.3,0.6c0,0.2,0.1,0.4,0,0.7c0,0.3-0.1,0.6-0.3,0.9
		C24.1,8.8,24.1,9,24,9.2c-0.2,0.4-0.5,0.6-0.8,0.9C22.9,10.4,22.6,10.6,22.4,10.9C22.4,10.9,22.3,10.9,22.4,10.9z"/>
	<path class="st0" d="M5.4,5.1C5.3,5.1,5.3,5,5.4,5.1C5.1,4.5,4.9,4,4.7,3.5C4.6,3.3,4.5,3.1,4.4,3c0-0.1,0-0.1,0.1-0.1
		c0.6-0.1,1.2-0.2,1.8-0.3c0.1,0,0.1,0,0.1,0.1C6.5,3.3,6.7,4,6.8,4.7c0,0.1,0,0.1-0.1,0.1C6.3,4.9,5.9,5,5.4,5.1
		C5.4,5.1,5.4,5.1,5.4,5.1z"/>
	<path class="st0" d="M7.5,7.4C7.5,7.5,7.4,7.5,7.5,7.4C7.1,7.6,6.7,7.8,6.4,7.9C6.3,8,6.2,8,6.1,8.1C6,8.1,6,8.1,6,8
		C5.9,7.3,5.7,6.6,5.5,5.9c0-0.1,0-0.1,0.1-0.1C6,5.7,6.5,5.6,6.9,5.5C7,5.5,7,5.5,7,5.5C7.1,6,7.2,6.5,7.4,7
		C7.4,7.1,7.4,7.3,7.5,7.4z"/>
	<path class="st0" d="M5.9,0.7C6,1.2,6.1,1.7,6.3,2.3c0,0.1,0,0.1-0.1,0.1c-0.5,0.1-1,0.2-1.5,0.3c-0.1,0-0.2,0-0.2,0.1
		c-0.1,0-0.2,0-0.2-0.1C4,2.2,3.8,1.8,3.6,1.5c0,0-0.1-0.1,0-0.1c0,0,0.1,0,0.1,0c0.7-0.1,1.3-0.2,2-0.5c0,0,0.1-0.1,0.1-0.1
		C5.8,0.8,5.8,0.7,5.9,0.7z"/>
	<path class="st1" d="M25.4,3.9c-0.4,0-0.8-0.1-1.2,0c-0.3,0-0.6,0.1-1,0.1c-0.4,0.1-0.7,0.2-1,0.3c-0.2,0.1-0.5,0.2-0.6,0.4
		c-0.1,0.1-0.2,0.1-0.3,0.1c-0.1-0.1-0.1-0.3-0.1-0.4c0.1-0.2,0.2-0.3,0.4-0.4c0.2-0.2,0.5-0.3,0.8-0.3c0.2-0.1,0.4-0.1,0.6-0.2
		c0.4-0.1,0.7-0.1,1.1-0.2c0.5,0,0.9,0,1.3,0.3c0.1,0.1,0.2,0.2,0.2,0.3c0,0.1,0,0.1-0.1,0.1C25.6,3.9,25.5,3.9,25.4,3.9z"/>
	<path class="st1" d="M25.6,6.6c0,0.3-0.1,0.6-0.2,0.9c0,0,0,0,0,0c0,0.1-0.1,0.1-0.2,0.1c-0.1,0,0-0.1,0-0.2c0-0.1,0-0.2,0-0.3
		c0-0.3-0.1-0.6-0.2-1c0-0.2-0.1-0.4-0.2-0.6c-0.1-0.3-0.2-0.5-0.5-0.7c-0.1,0-0.1-0.1-0.2-0.1c-0.1,0-0.1-0.1-0.1-0.2
		c0-0.1,0.1-0.1,0.1-0.2c0.1-0.1,0.3-0.1,0.5,0c0.3,0.1,0.5,0.3,0.6,0.6C25.5,5.6,25.6,6,25.6,6.6z"/>
	<path class="st1" d="M16.7,27.1c-0.2,0-0.3-0.1-0.3-0.2c0-0.1,0-0.2,0.1-0.3c0.1-0.1,0.2-0.1,0.3-0.2c0.4-0.2,0.8-0.4,1.1-0.7
		c0.4-0.3,0.9-0.6,1.3-0.8c0,0,0.1-0.1,0.1,0c0,0,0,0.1,0,0.1c-0.3,0.4-0.5,0.7-0.9,1c-0.3,0.2-0.6,0.4-0.9,0.6
		c-0.2,0.1-0.5,0.3-0.7,0.4C16.8,27.1,16.8,27.1,16.7,27.1z"/>
	<path class="st0" d="M6,8.3C6,8.3,6.1,8.2,6,8.3C6.4,8.1,6.6,8,6.9,7.9c0.2-0.1,0.4-0.2,0.5-0.2c0.1,0,0.1,0,0.1,0
		c0.1,0.2,0.1,0.4,0.2,0.6c0,0.1,0,0.1-0.1,0.1C7.2,8.5,6.7,8.7,6.2,9c0,0-0.1,0-0.1,0C6.1,8.7,6.1,8.5,6,8.3z"/>
	<path class="st1" d="M16.4,18.6c-0.1,0-0.2,0-0.2-0.1c-0.1-0.1-0.1-0.2-0.1-0.3c0-0.1,0.1-0.1,0.2-0.1c0.1,0,0.3-0.1,0.4-0.2
		c0.3-0.2,0.6-0.4,0.9-0.5c0.4-0.2,0.7-0.5,1-0.7c0,0,0,0,0.1,0c0,0,0,0.1,0,0.1c-0.1,0.1-0.1,0.2-0.2,0.3c-0.4,0.5-0.8,0.9-1.3,1.2
		C16.9,18.5,16.7,18.6,16.4,18.6z"/>
	<path class="st1" d="M13,12.5c0.3,0,0.6-0.2,0.8-0.3c0.2-0.2,0.4-0.4,0.6-0.6c0,0,0-0.1,0.1,0c0,0,0,0.1,0,0.1
		c-0.1,0.3-0.1,0.5-0.3,0.8c-0.2,0.3-0.5,0.6-0.9,0.6c-0.2,0-0.4,0-0.6-0.2c-0.1-0.1-0.1-0.2,0-0.2c0-0.1,0.1-0.1,0.2-0.1
		C13,12.5,13,12.5,13,12.5z"/>
	<path class="st1" d="M18.1,16.1c0,0.1,0,0.1-0.1,0.2c-0.3,0.4-0.7,0.7-1.1,1c-0.2,0.1-0.4,0.2-0.6,0.3c-0.1,0.1-0.3,0-0.4,0
		c-0.1,0-0.1,0-0.1-0.1c0-0.1,0-0.1,0.1-0.2c0.2-0.1,0.5-0.2,0.7-0.3c0.2-0.1,0.4-0.2,0.6-0.3C17.5,16.6,17.8,16.3,18.1,16.1
		C18.1,16.1,18.1,16.1,18.1,16.1z"/>
	<path class="st0" d="M6.9,4.9C6.9,4.9,6.9,4.9,6.9,4.9C6.9,5.1,6.9,5.2,7,5.3c0,0.1,0,0.1-0.1,0.1C6.5,5.4,6.1,5.5,5.8,5.6
		c0,0-0.1,0-0.1,0C5.5,5.7,5.5,5.7,5.4,5.5C5.4,5.2,5.4,5.2,5.6,5.2C6,5.1,6.3,5,6.7,4.9C6.7,4.9,6.8,4.9,6.9,4.9z"/>
	<path class="st2" d="M5.8,24.6C5.8,24.6,5.8,24.6,5.8,24.6C5.8,24.6,5.9,24.6,5.8,24.6C5.9,24.6,5.9,24.6,5.8,24.6z"/>
	<path class="st2" d="M5.2,25.3C5.2,25.3,5.2,25.3,5.2,25.3C5.2,25.3,5.2,25.3,5.2,25.3C5.2,25.3,5.2,25.3,5.2,25.3z"/>
</g>
</svg>
