<svg width="1001" height="1099" viewBox="0 0 1001 1099" fill="none" xmlns="http://www.w3.org/2000/svg">
    <path d="M1099 549.5C1099 852.98 852.98 1099 549.5 1099C246.02 1099 0 852.98 0 549.5C0 246.02 246.02 0 549.5 0C852.98 0 1099 246.02 1099 549.5Z" fill="white"/>
    <path d="M1022 550.5C1022 812.559 809.559 1025 547.5 1025C285.441 1025 73 812.559 73 550.5C73 288.441 285.441 76 547.5 76C809.559 76 1022 288.441 1022 550.5Z" fill="#FFD700" fill-opacity="0.5"/>
    <circle cx="547" cy="551" r="389" fill="#FFD700"/>
    <circle cx="547.5" cy="550.5" r="283.5" fill="#575756"/>
</svg>