<svg width="41" height="41" viewBox="0 0 41 41" fill="none" xmlns="http://www.w3.org/2000/svg">
    <path d="M41 20.5C41 31.8218 31.8218 41 20.5 41C9.17816 41 0 31.8218 0 20.5C0 9.17816 9.17816 0 20.5 0C31.8218 0 41 9.17816 41 20.5Z" fill="#FFD700" fill-opacity="0.2"/>
    <circle cx="20.4785" cy="20.5215" r="16.8061" fill="#FFD700" fill-opacity="0.8"/>
    <circle cx="20.4999" cy="20.5" r="12.2482" fill="#575756"/>
    <g clip-path="url(#clip0)">
        <path d="M20.5002 13.6667C18.1511 13.6667 16.24 15.5778 16.24 17.9269C16.24 19.2788 16.8774 20.5403 17.9554 21.3436V21.6994C17.6929 21.9301 17.5267 22.2681 17.5267 22.6443C17.5267 22.9755 17.6555 23.2772 17.8655 23.5021C17.6555 23.727 17.5267 24.0285 17.5267 24.3598C17.5267 24.9241 17.9 25.4028 18.4128 25.5617C18.5778 26.5652 19.4507 27.3333 20.5002 27.3333C21.5496 27.3333 22.4227 26.5652 22.5876 25.5617C23.1003 25.4027 23.4738 24.9241 23.4738 24.3597C23.4738 24.0285 23.3449 23.7269 23.1349 23.502C23.3449 23.2771 23.4738 22.9755 23.4738 22.6443C23.4738 22.2681 23.3076 21.9301 23.0449 21.6993V21.3436C24.123 20.5403 24.7604 19.2788 24.7604 17.9269C24.7604 15.5778 22.8492 13.6667 20.5002 13.6667ZM22.2157 22.1869C22.4678 22.1869 22.673 22.3921 22.673 22.6443C22.673 22.8965 22.4678 23.1017 22.2157 23.1017H18.7848C18.5325 23.1017 18.3273 22.8965 18.3273 22.6443C18.3273 22.3921 18.5325 22.1869 18.7848 22.1869H22.2157ZM20.5002 26.5325C19.9146 26.5325 19.4173 26.1478 19.2474 25.6179H21.753C21.5832 26.1479 21.0857 26.5325 20.5002 26.5325ZM22.2157 24.8171H18.7848C18.5325 24.8171 18.3273 24.6119 18.3273 24.3598C18.3273 24.1076 18.5325 23.9025 18.7848 23.9025H22.2157C22.4678 23.9025 22.673 24.1076 22.673 24.3598C22.673 24.6119 22.4678 24.8171 22.2157 24.8171ZM22.4218 20.8037C22.3108 20.8781 22.2442 21.0029 22.2442 21.1364V21.3869C22.2347 21.3867 22.2252 21.3862 22.2157 21.3862H21.7583V19.8082L22.3332 19.2332C22.4896 19.0768 22.4896 18.8234 22.3332 18.667C22.1769 18.5106 21.9233 18.5106 21.767 18.667L21.0748 19.3592C20.9997 19.4343 20.9575 19.536 20.9575 19.6423V21.3862H20.0429V19.6423C20.0429 19.5361 20.0006 19.4343 19.9256 19.3592L19.2333 18.667C19.077 18.5107 18.8235 18.5107 18.6671 18.667C18.5107 18.8234 18.5107 19.0768 18.6671 19.2332L19.2421 19.8082V21.3863H18.7848C18.7752 21.3863 18.7657 21.3867 18.7562 21.3869V21.1364C18.7562 21.0029 18.6896 20.8781 18.5785 20.8037C17.6157 20.1591 17.0408 19.0837 17.0408 17.9269C17.0408 16.0193 18.5927 14.4675 20.5002 14.4675C22.4077 14.4675 23.9596 16.0193 23.9596 17.9269C23.9596 19.0837 23.3847 20.1591 22.4218 20.8037Z" fill="white"/>
        <path d="M15.3252 17.9269C15.3252 17.7057 15.146 17.5265 14.9249 17.5265H14.0671C13.846 17.5265 13.6667 17.7057 13.6667 17.9269C13.6667 18.1479 13.846 18.3273 14.0671 18.3273H14.9249C15.146 18.3273 15.3252 18.1479 15.3252 17.9269Z" fill="white"/>
        <path d="M26.9329 17.5265H26.0752C25.8541 17.5265 25.6748 17.7057 25.6748 17.9269C25.6748 18.1479 25.8541 18.3273 26.0752 18.3273H26.9329C27.1541 18.3273 27.3333 18.1479 27.3333 17.9269C27.3333 17.7057 27.1541 17.5265 26.9329 17.5265Z" fill="white"/>
        <path d="M15.4716 20.3677L14.7288 20.7965C14.5373 20.9072 14.4717 21.152 14.5823 21.3435C14.6564 21.472 14.791 21.5437 14.9294 21.5437C14.9972 21.5437 15.0662 21.5265 15.1291 21.49L15.872 21.0613C16.0635 20.9506 16.1291 20.7058 16.0186 20.5143C15.908 20.3227 15.6631 20.2572 15.4716 20.3677Z" fill="white"/>
        <path d="M25.3288 15.5398C25.3967 15.5398 25.4655 15.5224 25.5286 15.4861L26.2715 15.0571C26.463 14.9466 26.5286 14.7018 26.418 14.5102C26.3074 14.3187 26.0626 14.2531 25.8711 14.3637L25.1282 14.7926C24.9368 14.9031 24.8711 15.148 24.9817 15.3395C25.0559 15.4679 25.1905 15.5398 25.3288 15.5398Z" fill="white"/>
        <path d="M26.2712 20.7966L25.5284 20.3678C25.3369 20.2573 25.0919 20.3229 24.9814 20.5144C24.8709 20.7058 24.9366 20.9508 25.128 21.0613L25.8709 21.49C25.9339 21.5264 26.0027 21.5437 26.0707 21.5437C26.2091 21.5437 26.3437 21.4719 26.4178 21.3434C26.5284 21.152 26.4627 20.9071 26.2712 20.7966Z" fill="white"/>
        <path d="M15.872 14.7925L15.1292 14.3637C14.9376 14.2531 14.6928 14.3188 14.5823 14.5103C14.4717 14.7019 14.5374 14.9467 14.7288 15.0572L15.4716 15.4861C15.5347 15.5225 15.6035 15.5398 15.6714 15.5398C15.8099 15.5398 15.9444 15.4679 16.0186 15.3395C16.1291 15.1479 16.0634 14.9031 15.872 14.7925Z" fill="white"/>
    </g>
    <defs>
        <clipPath id="clip0">
            <rect width="13.6667" height="13.6667" fill="white" transform="translate(13.6667 13.6667)"/>
        </clipPath>
    </defs>
</svg>