<svg width="67" height="74" viewBox="0 0 67 74" fill="none" xmlns="http://www.w3.org/2000/svg">
<path d="M4.74468 36.176C2.93032 36.176 0.962402 36.176 0.962402 36.176V37.3794C1.83421 37.3794 1.95197 37.9458 2.52958 38.3587C3.10676 38.7717 3.68436 38.5237 3.68436 38.9721C3.68436 39.1017 3.68436 39.2434 3.68436 39.2434H5.4517C5.4517 38.925 6.15872 38.8067 6.4059 38.8067C6.6535 38.8067 7.45456 39.1017 7.90233 39.1017C8.35009 39.1017 8.10249 38.5825 7.79621 38.2874C7.48994 37.9924 6.22903 36.7181 6.22903 36.7181C5.91111 36.4356 5.67558 36.176 4.74468 36.176Z" fill="#FFD700"/>
<path d="M0.762085 36.176V37.3764L0.117188 37.2434V36.2969L0.762085 36.176Z" fill="#FFD700"/>
<path d="M1.10698 37.7095C1.10698 38.5531 1.08929 39.8361 0.0112945 41.1812C-0.0417642 41.2961 0.099728 41.3316 0.27659 41.243C0.453452 41.1545 1.18678 40.5618 1.38133 40.0572C1.57588 39.5527 1.67294 38.7121 2.45933 38.7121C1.67251 38.2348 1.92011 37.8658 1.10698 37.7095Z" fill="#FFD700"/>
<path d="M3.64042 41.5177H5.46944C5.7205 41.5177 5.92627 41.3121 5.92627 41.0603V40.0987C5.92627 39.8473 5.72093 39.6412 5.46944 39.6412H3.64042C3.38936 39.6412 3.18359 39.8469 3.18359 40.0987V41.0603C3.18359 41.3117 3.38936 41.5177 3.64042 41.5177Z" fill="#FFD700"/>
<path d="M0.440181 50.9477C0.440181 50.9477 1.90555 45.7562 2.35332 43.8724C2.80065 41.9903 2.96587 42.0279 4.55159 42.0279C6.13732 42.0279 6.30253 41.9903 6.74987 43.8724C7.19763 45.7562 8.663 50.9477 8.663 50.9477C9.31826 53.095 9.34199 55.0536 6.86763 55.0536C4.95622 55.0536 4.61414 55.0536 4.5572 55.0536C4.5572 55.0536 4.55634 55.0536 4.55548 55.0536C4.55418 55.0536 4.55203 55.0536 4.54814 55.0536C4.54771 55.0536 4.54685 55.0536 4.54642 55.0536C4.48947 55.0536 4.1474 55.0536 2.23599 55.0536C-0.238799 55.0536 -0.215505 53.095 0.440181 50.9477Z" fill="#FFD700"/>
<path d="M27.4925 26.1763C28.0702 28.2851 29.429 29.6117 30.7537 30.5301C30.7537 32.6593 30.1545 33.6822 28.9566 34.3163V39.5389H36.0061V34.2714C34.8613 33.6338 34.2862 32.6118 34.2862 30.5301C35.611 29.6117 36.9698 28.2851 37.5474 26.1763C38.0228 27.0946 39.0421 25.8022 39.6797 24.5093C40.3173 23.2168 40.4346 21.8561 39.008 21.9922C40.6046 16.0055 39.2457 13.7601 36.0868 11.9233C36.6303 10.5285 36.4944 6.8891 32.5202 6.8891C28.546 6.8891 28.4101 10.5289 28.9536 11.9233C25.7947 13.7601 24.4358 16.0055 26.0324 21.9922C24.6058 21.8561 24.7231 23.2168 25.3607 24.5093C25.9978 25.8022 27.0172 27.0946 27.4925 26.1763ZM25.6959 19.9459C25.6562 19.6466 25.6286 19.3437 25.6286 19.0336C25.6286 15.2223 28.7138 12.1328 32.5198 12.1328C36.3258 12.1328 39.4109 15.2223 39.4109 19.0336C39.4109 19.3437 39.3833 19.6466 39.3436 19.9459C38.8967 16.567 36.0156 13.9575 32.5193 13.9575C29.0231 13.9575 26.1428 16.567 25.6959 19.9459Z" fill="#FFD700"/>
<path d="M63.9749 62.0974C63.839 61.8253 63.2614 62.1652 62.4124 62.3354C61.5631 62.5056 61.2577 62.1652 60.5442 61.9954C61.1895 61.8594 61.4953 61.3151 61.1895 60.8049C61.1895 60.8049 60.4424 59.9207 60.2043 59.4783C59.9666 59.036 59.7289 59.0615 59.2531 59.0615C59.2531 59.0615 59.7625 58.9341 59.7625 58.6278C59.7625 58.3215 59.2872 58.3215 58.6077 58.3215C58.0983 58.3215 58.336 58.1855 57.9965 58.1855C57.3852 58.1855 57.2153 58.5254 56.6717 58.8317C56.1282 59.138 55.8564 59.138 55.517 58.8317C55.517 58.8317 53.7505 57.0628 52.6634 55.8044C51.5764 54.5456 49.6404 51.9607 47.3644 50.362C46.7868 45.5317 45.428 43.2867 44.9526 42.1908C44.4773 41.0949 44.375 39.545 43.5938 38.0145C42.3368 35.8715 41.9291 35.8715 38.872 35.1911C38.1093 35.0213 37.442 34.8581 36.8691 34.6555V39.5398C36.8691 39.5398 38.6421 41.8742 38.9673 44.5476C39.2378 46.7701 38.5101 49.2246 38.385 50.7706H39.2658C39.2917 50.2799 39.378 49.6363 39.5652 48.714C39.5652 48.714 39.7209 47.9758 40.4685 46.3088C41.2157 44.6418 40.7403 41.9597 40.7403 41.9597C40.7403 41.9597 40.8511 41.742 40.9102 42.1199C41.4197 44.9433 43.6089 51.1391 44.6278 52.8402C45.6467 54.5409 50.2516 57.0973 52.8675 58.9341C55.4829 60.7708 56.774 62.0296 57.1135 62.3695C57.453 62.7095 57.7588 63.2538 59.6952 63.2538C63.3641 63.2538 62.8542 62.9816 63.2959 62.7778C63.7376 62.5739 64.1108 62.3695 63.9749 62.0974ZM59.4912 61.0317C59.0495 61.2019 58.4723 61.0542 58.053 60.4987C57.6341 59.9431 57.6794 59.2628 57.9965 59.0814C57.9965 59.0814 58.3588 59.036 58.6194 59.0814C58.4611 59.3647 58.6988 59.5691 59.1401 59.6144C59.5818 59.6598 59.9325 60.5669 59.9325 60.7255C59.9325 60.884 59.9325 60.8615 59.4912 61.0317Z" fill="#FFD700"/>
<path d="M20.4121 52.8402C21.431 51.1395 23.6202 44.9433 24.1296 42.1199C24.1728 41.7985 24.2996 41.9597 24.2996 41.9597C24.2996 41.9597 23.8242 44.3407 24.5714 46.0077C25.3185 47.6747 25.4747 48.714 25.4747 48.714C25.6619 49.6362 25.7482 50.2799 25.774 50.7706H26.7817C26.5622 49.187 25.9267 46.8794 26.1247 44.7658C26.3853 41.983 28.094 39.5397 28.094 39.5397V34.6801C27.5383 34.8706 26.8982 35.0282 26.1683 35.1906C23.1112 35.871 22.7035 35.871 21.4465 38.014C20.6653 39.5449 20.5635 41.0944 20.0877 42.1903C19.6123 43.2862 18.2535 45.5312 17.6759 50.3615C15.4 51.9603 13.4635 54.5456 12.3769 55.804C11.2898 57.0627 9.52337 58.8312 9.52337 58.8312C9.18388 59.1375 8.91211 59.1375 8.36858 58.8312C7.82505 58.5249 7.65509 58.185 7.04383 58.185C6.70434 58.185 6.94203 58.3211 6.43258 58.3211C5.75317 58.3211 5.27779 58.3211 5.27779 58.6273C5.27779 58.9336 5.78725 59.061 5.78725 59.061C5.31187 59.061 5.07376 59.0355 4.83607 59.4779C4.59839 59.9202 3.85081 60.8045 3.85081 60.8045C3.54497 61.3146 3.85082 61.8589 4.49615 61.995C3.78266 62.1652 3.47725 62.5051 2.62787 62.3349C1.7785 62.1648 1.20132 61.8248 1.06544 62.0969C0.929559 62.3691 1.30313 62.573 1.74485 62.7773C2.18658 62.9812 1.67713 63.2533 5.34552 63.2533C7.28195 63.2533 7.58737 62.709 7.92729 62.3691C8.26721 62.0291 9.55787 60.7703 12.1733 58.9336C14.7883 57.0968 19.3932 54.5409 20.4121 52.8402ZM6.9869 60.4986C6.56803 61.0541 5.99042 61.2015 5.5487 61.0317C5.10697 60.8619 5.10697 60.8844 5.10697 60.7254C5.10697 60.5669 5.45811 59.6597 5.8994 59.6144C6.34113 59.569 6.57882 59.3651 6.42007 59.0813C6.68062 59.036 7.04297 59.0813 7.04297 59.0813C7.36046 59.2628 7.40576 59.9431 6.9869 60.4986Z" fill="#FFD700"/>
<path d="M41.5696 60.3146C41.8073 55.3482 39.4973 52.7089 39.3619 52.0626C39.3334 51.9266 39.3079 51.7875 39.2894 51.635H38.4025C38.921 54.7629 40.7065 64.8477 40.7065 64.8477H24.2574C24.2574 64.8477 26.3163 55.1115 26.8262 52.0294C26.8456 51.9119 26.8512 51.7771 26.8516 51.635H25.768V51.4708C25.7499 51.6907 25.7171 51.879 25.6787 52.0626C25.5428 52.7089 23.2328 55.3482 23.471 60.3146C17.2885 58.1375 11.5845 58.8887 9.90602 60.6688C8.44022 62.2231 8.09728 64.7393 10.4974 66.8711C11.9468 68.005 13.8945 69.275 29.4748 70.3182C28.7501 71.2254 28.9313 71.9511 28.6595 72.2686C28.3877 72.5861 28.0707 73.584 28.8407 73.085C29.6107 72.5861 31.5355 71.4068 32.5207 71.4068C33.506 71.4068 35.4308 72.5861 36.2008 73.085C36.9708 73.584 36.6537 72.5861 36.3819 72.2686C36.1102 71.9511 36.2914 71.2254 35.5666 70.3182C51.147 69.275 53.0946 68.005 54.544 66.8711C56.9446 64.7393 56.6012 62.2231 55.1359 60.6688C53.4561 58.8887 47.7521 58.1375 41.5696 60.3146Z" fill="#FFD700"/>
<path d="M56.5618 54.8221C56.605 54.8303 56.6477 54.8385 56.6908 54.8467C56.7081 54.8148 56.7352 54.8307 56.7594 54.8325C56.9367 54.8428 57.114 54.8515 57.2913 54.8644C57.6282 54.8891 57.9646 54.9163 58.3011 54.9422C58.3667 54.9452 58.4042 54.9249 58.3934 54.8484C58.3844 54.7862 58.3852 54.7227 58.3818 54.6601C58.3309 54.2899 58.308 53.9171 58.2783 53.5452C58.2644 53.3733 58.2511 53.2013 58.2373 53.0294C58.189 52.6743 58.1661 52.3171 58.1687 51.9551C58.3261 52.3305 58.4836 52.7059 58.641 53.0808C58.6441 53.0895 58.6471 53.0985 58.6497 53.1072C58.7403 53.2873 58.8183 53.473 58.8874 53.6622C59.0526 54.0493 59.2178 54.4368 59.383 54.8238C59.3908 54.8433 59.3985 54.8627 59.4063 54.8821C59.4399 54.9958 59.5197 55.0303 59.6319 55.0264C59.7052 55.0238 59.779 55.0385 59.8523 55.0459C59.9951 55.0415 60.137 55.0523 60.279 55.0657C60.3225 55.0696 60.1353 54.2649 60.1677 54.1629C60.2151 54.2649 60.4588 55.0826 60.6128 55.0826C60.7543 55.0826 60.7945 55.0929 60.9346 55.1176C61.2875 55.1253 61.6391 55.1482 61.9898 55.1884C62.1399 55.1824 61.3475 53.1784 61.4954 53.2035C61.9126 54.2744 62.8426 55.2299 63.0445 55.2571C63.2201 55.2675 63.3956 55.2774 63.5712 55.2878C63.7472 55.3003 63.9232 55.3128 64.0992 55.3253C64.2653 55.3288 64.4314 55.3336 64.5957 55.3603C64.7829 55.3547 64.9684 55.3763 65.1539 55.3932C65.4692 55.4139 65.7854 55.4217 66.0999 55.461C66.2021 55.4316 66.3057 55.4955 66.407 55.4545C66.3467 55.4243 66.2863 55.394 66.2254 55.3638C65.8631 55.1906 65.5572 54.9448 65.2963 54.6411C65.1871 54.5374 65.0905 54.4234 65.0128 54.2938C64.9451 54.2195 64.8886 54.1374 64.8416 54.0489C64.754 53.9357 64.6742 53.8178 64.6173 53.686C64.5534 53.6031 64.5055 53.5106 64.4598 53.4165C64.3839 53.3119 64.3209 53.1996 64.2692 53.0813C64.0794 52.727 63.9504 52.3508 63.8576 51.9611C63.7425 51.5862 63.6648 51.2026 63.5979 50.8164C63.5578 50.6514 63.5207 50.486 63.5026 50.3166C63.4245 49.9283 63.346 49.5395 63.2679 49.1512C63.1713 48.7762 63.0747 48.4013 62.9781 48.0259C62.928 47.8825 62.8776 47.739 62.8279 47.5956C62.7404 47.3438 62.7408 47.3438 62.479 47.3408C62.4574 47.3403 62.4363 47.3334 62.4147 47.3295C62.0588 47.3472 61.7025 47.3425 61.3462 47.3373C61.1676 47.339 60.9894 47.3403 60.8108 47.3421C60.6525 47.3446 60.4942 47.3554 60.3359 47.3382C60.1379 47.3606 59.9395 47.3455 59.7415 47.3485C59.3951 47.3472 59.0483 47.3455 58.7019 47.3442C58.5151 47.3589 58.3283 47.3624 58.1411 47.3451C57.9634 47.3615 57.7852 47.3598 57.6075 47.3485C57.4293 47.3654 57.2507 47.3611 57.0721 47.3533C56.894 47.3546 56.7163 47.3559 56.5381 47.3572C56.5204 47.3554 56.5032 47.3542 56.4855 47.3524C56.3517 47.3662 56.2176 47.3658 56.0839 47.355C55.8785 47.358 55.6736 47.3611 55.4683 47.3641C55.404 47.4431 55.4597 47.5438 55.4204 47.6272C55.4264 48.0034 55.4329 48.3792 55.439 48.7555C55.448 48.908 55.4571 49.06 55.4661 49.2125C55.4881 49.4138 55.5101 49.6147 55.5317 49.816C55.5347 49.8523 55.5377 49.8885 55.5408 49.9248C55.5701 50.0691 55.593 50.2138 55.5968 50.3611C55.6378 50.5425 55.665 50.7261 55.681 50.911C55.7491 51.2812 55.8177 51.6514 55.8859 52.0212C55.9186 52.1879 55.9514 52.3542 55.9842 52.521C56.0744 52.9123 56.165 53.3041 56.2551 53.6955C56.2685 53.7456 56.281 53.7962 56.2948 53.8458C56.3841 54.1715 56.451 54.5029 56.5618 54.8221Z" fill="#FFD700"/>
<path d="M56.183 28.5595C56.123 28.5482 56.0626 28.5366 56.0027 28.5253C55.9522 28.5629 55.8896 28.556 55.8327 28.5668C55.5881 28.6139 55.501 28.7202 55.5122 28.9668C55.5372 29.1305 55.5622 29.2938 55.5872 29.4575C55.6688 29.8428 55.721 30.2334 55.7827 30.6217C55.8077 30.7867 55.8327 30.9517 55.8577 31.1163C55.9341 31.499 55.9966 31.8844 56.0462 32.2714C56.1131 32.6187 56.1726 32.9669 56.2149 33.3185C56.2623 33.5194 56.2973 33.722 56.3141 33.928C56.3849 34.2758 56.4405 34.6256 56.4854 34.9777C56.532 35.1777 56.5656 35.3794 56.5837 35.5842C56.607 35.6352 56.6122 35.6887 56.6092 35.7436C56.6501 35.8805 56.6639 36.0226 56.6821 36.1639C56.7105 36.3384 56.7394 36.5129 56.7679 36.6879C56.7968 36.8719 56.8257 37.0559 56.8546 37.2395C56.8676 37.2659 56.8775 37.2922 56.8667 37.322C56.906 37.4754 56.9331 37.6309 56.9422 37.7894C56.9836 37.9618 57.0125 38.1359 57.028 38.3125C57.1027 38.6719 57.1561 39.0344 57.2075 39.3976C57.2394 39.5968 57.2713 39.7955 57.3032 39.9946C57.3632 40.3549 57.4227 40.7152 57.4827 41.0754C57.512 41.2672 57.5414 41.459 57.5707 41.6508C57.6475 42.0167 57.701 42.3865 57.754 42.7562C57.7885 42.939 57.8265 43.1213 57.839 43.3074C57.8878 43.488 57.9076 43.6737 57.9335 43.8582C57.9676 44.0297 58.0038 44.2008 58.0129 44.3761C58.0422 44.4306 58.0465 44.4686 57.9671 44.4807C57.8459 44.4993 57.726 44.526 57.6056 44.5489C57.4145 44.6185 57.2234 44.688 57.0323 44.7576C56.8205 44.863 56.6234 44.9926 56.4293 45.1269C56.4146 45.1399 56.3995 45.1533 56.3849 45.1662C56.076 45.4353 55.8439 45.7606 55.6791 46.1347C55.6498 46.2353 55.6205 46.3356 55.592 46.4362C55.5812 46.4738 55.567 46.5148 55.6282 46.523C55.8064 46.5084 55.985 46.5122 56.1636 46.5183C56.321 46.5127 56.4785 46.5049 56.6359 46.5205C56.8348 46.4997 57.0341 46.5127 57.2329 46.5114C57.3994 46.5127 57.5655 46.514 57.732 46.5153C58.0905 46.4989 58.449 46.495 58.8074 46.5101C58.9938 46.4924 59.1801 46.4967 59.3669 46.5058C59.5455 46.4945 59.7241 46.4842 59.9027 46.504C60.0804 46.4859 60.2586 46.4898 60.4367 46.501C60.793 46.4803 61.1498 46.4885 61.5061 46.4932C61.6567 46.4937 61.8072 46.4941 61.9582 46.4945C62.0742 46.4885 62.1907 46.4829 62.3141 46.4764C62.2696 46.3991 62.2334 46.3356 62.1972 46.2725C62.167 46.231 62.1363 46.1896 62.1062 46.1477C61.9591 45.9788 61.812 45.8094 61.6653 45.6405C61.5022 45.5032 61.3396 45.3658 61.1765 45.2284C60.8793 45.0327 60.567 44.8651 60.2413 44.7226C60.0213 44.6552 59.8018 44.5882 59.5818 44.5208C59.4985 44.5049 59.4152 44.4889 59.3316 44.4733C58.9097 44.4703 58.8829 44.4478 58.8437 44.0591C58.8428 44.0509 58.8454 44.0418 58.8467 44.0336C58.7725 43.6673 58.7164 43.2984 58.6642 42.9286C58.6258 42.7463 58.59 42.5636 58.5771 42.3774C58.5551 42.3333 58.5503 42.2867 58.5529 42.2383C58.5292 42.1001 58.505 41.9614 58.4813 41.8232C58.4541 41.65 58.4274 41.4772 58.4002 41.3039C58.3278 40.9286 58.263 40.5519 58.2173 40.1722C58.1768 40.0003 58.1466 39.8266 58.1323 39.6504C58.056 39.2745 57.9943 38.8966 57.9477 38.516C57.9046 38.3436 57.8787 38.1687 57.8619 37.992C57.7859 37.6171 57.7243 37.2399 57.6772 36.8602C57.6345 36.6792 57.6056 36.4961 57.5875 36.3112C57.5125 35.9449 57.4551 35.5756 57.4063 35.2049C57.3386 34.849 57.2769 34.4922 57.2329 34.1323C57.1855 33.9405 57.1583 33.7457 57.135 33.55C57.0772 33.1915 57.0198 32.833 56.962 32.4744C56.9141 32.2835 56.8909 32.0887 56.8637 31.8947C56.8516 31.8122 56.8395 31.7297 56.8274 31.6472C56.8106 31.5548 56.7942 31.4619 56.7774 31.3694C56.7481 31.1776 56.7187 30.9863 56.689 30.7945C56.6411 30.6122 56.6208 30.4251 56.5923 30.2394C56.5885 30.2031 56.5841 30.1668 56.5803 30.1305C56.5414 29.9858 56.5207 29.8377 56.5061 29.6886C56.4694 29.5063 56.4336 29.324 56.4194 29.1383C56.4069 29.0839 56.3887 29.0303 56.3836 28.9754C56.3667 28.8122 56.3305 28.6597 56.183 28.5595Z" fill="#FFD700"/>
<path d="M3.11294 30.0908C2.97878 26.2277 3.67847 22.3282 5.08043 18.6923C6.50439 15.0625 8.66643 11.7099 11.4074 8.90771C14.1384 6.09471 17.4556 3.8519 21.0731 2.31797C24.6958 0.789215 28.6295 0.0125272 32.561 0C36.493 0.0107993 40.4262 0.790079 44.0493 2.31667C47.6664 3.8519 50.9845 6.09298 53.7155 8.90685C56.4565 11.7095 58.6189 15.062 60.0429 18.6919C61.4444 22.3282 62.1441 26.2277 62.0091 30.0912L61.9271 28.6463L61.7762 27.2091C61.7153 26.7318 61.6355 26.257 61.5665 25.7819C61.4871 25.308 61.3802 24.8389 61.2883 24.3684C60.8716 22.4941 60.2707 20.666 59.4985 18.9182C57.9736 15.4141 55.7628 12.2296 53.0521 9.57165C50.3306 6.92582 47.1207 4.78842 43.6132 3.37068C40.1156 1.93394 36.3398 1.19613 32.561 1.20434C28.7822 1.1944 25.0068 1.93481 21.508 3.36939C18.0009 4.78799 14.7898 6.92452 12.0687 9.57079C9.35792 12.2287 7.14713 15.4132 5.62223 18.9178C4.85008 20.6656 4.24917 22.4941 3.8329 24.3684C3.74145 24.8393 3.63404 25.3084 3.55509 25.7823C3.48608 26.2575 3.4067 26.7322 3.34545 27.2095L3.19447 28.6467L3.11294 30.0908Z" fill="#FFD700"/>
<path d="M33.6981 43.6033C33.8146 43.596 33.9172 43.5791 34.0061 43.5536C34.095 43.5282 34.1696 43.4906 34.2291 43.4413C34.2891 43.3921 34.3339 43.3299 34.365 43.2543C34.3956 43.1787 34.4112 43.0875 34.4112 42.98C34.4112 42.8906 34.3943 42.8132 34.3616 42.7463C34.3283 42.6798 34.2822 42.6249 34.2235 42.5821C34.1648 42.5394 34.095 42.507 34.0152 42.4858C33.9354 42.4646 33.8491 42.4543 33.7572 42.4543C33.6968 42.4543 33.6515 42.459 33.6218 42.469C33.5916 42.4785 33.5765 42.5061 33.5765 42.5515V44.9018C33.5765 44.9381 33.5583 44.9593 33.5221 44.9653C33.4962 44.9696 33.4682 44.974 33.4376 44.9779C33.4065 44.9817 33.3763 44.9848 33.347 44.9869C33.3176 44.9891 33.29 44.9908 33.2654 44.9912C33.2404 44.9921 33.2219 44.9925 33.2102 44.9925C33.174 44.9925 33.1559 44.9735 33.1559 44.936V42.6625C33.1559 42.5869 33.139 42.5363 33.1058 42.5117C33.073 42.4867 33.0299 42.4746 32.9768 42.4746C32.9471 42.4746 32.9139 42.4767 32.8776 42.4815L32.8643 42.3566C33.0152 42.3307 33.1714 42.3096 33.3336 42.2923C33.4962 42.2746 33.6619 42.2659 33.8305 42.2659C33.903 42.2659 33.9794 42.269 34.0592 42.275C34.139 42.2811 34.2175 42.2923 34.2943 42.3091C34.3715 42.326 34.4448 42.3489 34.5143 42.3782C34.5833 42.4076 34.6445 42.4461 34.6963 42.494C34.7485 42.5415 34.7899 42.599 34.821 42.6664C34.8516 42.7338 34.8671 42.8132 34.8671 42.9053C34.8671 43.0037 34.8525 43.0901 34.8227 43.1649C34.7934 43.2396 34.7524 43.3057 34.7006 43.3631C34.6484 43.4206 34.5876 43.4698 34.5181 43.5104C34.4491 43.5511 34.3741 43.586 34.2938 43.6145V43.6279C34.3318 43.6357 34.3728 43.6474 34.4163 43.6634C34.4599 43.6793 34.5026 43.7018 34.544 43.7312C34.5859 43.7606 34.6243 43.7981 34.6596 43.8435C34.695 43.8889 34.723 43.9446 34.7446 44.0115L34.912 44.5303C34.9348 44.6016 34.9556 44.6582 34.9745 44.7005C34.9935 44.7429 35.0134 44.7748 35.0345 44.7969C35.0561 44.8189 35.0798 44.8331 35.107 44.8401C35.1341 44.847 35.1682 44.8504 35.2088 44.8504L35.2157 44.9679C35.1872 44.974 35.1557 44.9796 35.1216 44.9852C35.088 44.9904 35.0543 44.9947 35.0211 44.9977C34.9879 45.0008 34.9581 45.0033 34.9318 45.0059C34.9055 45.0085 34.8857 45.0094 34.8719 45.0094C34.8236 45.0094 34.7804 45.0038 34.7425 44.9921C34.7049 44.9809 34.6708 44.9614 34.6407 44.9334C34.6109 44.9053 34.5837 44.8686 34.5604 44.8223C34.5367 44.7766 34.5156 44.7187 34.4961 44.6491L34.3352 44.0962C34.3124 44.0176 34.2856 43.9549 34.2541 43.9079C34.2222 43.8612 34.1825 43.8254 34.1355 43.8003C34.0881 43.7752 34.0307 43.7588 33.9634 43.7502C33.8965 43.742 33.815 43.7364 33.7205 43.7333L33.6981 43.6033Z" fill="#FFD700"/>
<path d="M36.1425 43.7441C36.2633 43.7351 36.3698 43.7169 36.463 43.6897C36.5558 43.6625 36.6338 43.6228 36.6972 43.5705C36.7602 43.5182 36.8085 43.4526 36.8409 43.3722C36.8733 43.2923 36.8892 43.1947 36.8892 43.0798C36.8892 42.98 36.8728 42.8906 36.8396 42.8124C36.8064 42.7338 36.7602 42.6677 36.702 42.6141C36.6429 42.5601 36.5722 42.5195 36.4902 42.4914C36.4082 42.4638 36.3181 42.4495 36.2197 42.4495C36.152 42.4495 36.1007 42.4538 36.0662 42.462C36.0312 42.4702 36.014 42.4992 36.014 42.5493V44.9023C36.014 44.9385 35.9958 44.9597 35.9596 44.9658C35.9337 44.9701 35.9057 44.9744 35.8751 44.9783C35.844 44.9822 35.8138 44.9852 35.7845 44.9874C35.7551 44.9895 35.7275 44.9912 35.7029 44.9917C35.6779 44.9925 35.6594 44.993 35.6477 44.993C35.6115 44.993 35.5934 44.974 35.5934 44.9364V42.6677C35.5934 42.5908 35.5765 42.5398 35.5433 42.5147C35.5105 42.4897 35.4674 42.4772 35.4143 42.4772C35.3846 42.4772 35.3514 42.4793 35.3151 42.4841L35.3018 42.3592C35.4346 42.3363 35.5787 42.3152 35.734 42.2957C35.8893 42.2763 36.0644 42.2664 36.259 42.2664C36.3483 42.2664 36.4371 42.2707 36.526 42.2789C36.6153 42.2875 36.6998 42.3018 36.7809 42.3234C36.8616 42.3445 36.9371 42.3726 37.007 42.4072C37.0773 42.4422 37.1381 42.4867 37.1894 42.5411C37.2403 42.5955 37.2809 42.6599 37.3102 42.7351C37.3396 42.8102 37.3547 42.897 37.3547 42.9968C37.3547 43.1541 37.3214 43.2871 37.2554 43.396C37.189 43.5044 37.1006 43.5934 36.9906 43.6621C36.8802 43.7307 36.7533 43.7817 36.6101 43.815C36.4669 43.8482 36.3181 43.8681 36.1645 43.8737L36.1425 43.7441Z" fill="#FFD700"/>
</svg>
