<svg width="18" height="18" viewBox="0 0 18 18" fill="none" xmlns="http://www.w3.org/2000/svg">
    <path d="M16.3927 16.0715C16.7973 16.0715 17.1479 15.9379 17.4459 15.6741L12.3462 10.5742C12.2239 10.6618 12.1053 10.747 11.9932 10.828C11.6116 11.1092 11.3019 11.3286 11.064 11.4858C10.8262 11.6434 10.5098 11.804 10.1148 11.968C9.71959 12.1322 9.35138 12.214 9.00981 12.214H8.99981H8.98981C8.6482 12.214 8.28 12.1322 7.8848 11.968C7.4896 11.804 7.17319 11.6434 6.9356 11.4858C6.69779 11.3286 6.38821 11.1092 6.00638 10.828C5.89997 10.75 5.78197 10.6644 5.65438 10.5728L0.553711 15.6741C0.85172 15.9379 1.20254 16.0715 1.60712 16.0715H16.3927Z" fill="#FFD700"/>
    <path d="M1.01462 7.36276C0.633012 7.10835 0.294611 6.81698 0 6.48877V14.2478L4.49485 9.75298C3.59562 9.1252 2.43702 8.32937 1.01462 7.36276Z" fill="#FFD700"/>
    <path d="M16.9957 7.36276C15.6275 8.28879 14.4647 9.08598 13.5071 9.75478L18.0002 14.248V6.48877C17.7121 6.81037 17.3773 7.10155 16.9957 7.36276Z" fill="#FFD700"/>
    <path d="M16.3928 1.92853H1.60729C1.09146 1.92853 0.694892 2.10271 0.417078 2.45072C0.139036 2.7989 0.000244141 3.23432 0.000244141 3.75652C0.000244141 4.17832 0.184429 4.63535 0.552635 5.12774C0.920842 5.61993 1.31264 6.00654 1.72784 6.28775C1.95546 6.44857 2.64187 6.92576 3.78708 7.71917C4.40529 8.14757 4.94291 8.52097 5.40491 8.8432C5.7987 9.11758 6.13831 9.3552 6.41871 9.55239C6.4509 9.57497 6.50152 9.61118 6.56871 9.65922C6.64109 9.71121 6.7327 9.77719 6.84571 9.8588C7.06332 10.0162 7.24411 10.1434 7.3881 10.2406C7.53189 10.3378 7.70611 10.4464 7.91049 10.567C8.1147 10.6874 8.30732 10.778 8.48811 10.8382C8.66892 10.8984 8.83631 10.9286 8.9903 10.9286H9.0003H9.0103C9.16426 10.9286 9.33168 10.8984 9.51253 10.8382C9.69328 10.778 9.88573 10.6876 10.0901 10.567C10.2943 10.4464 10.4683 10.3376 10.6125 10.2406C10.7565 10.1434 10.9373 10.0162 11.155 9.8588C11.2677 9.77719 11.3593 9.71118 11.4317 9.65938C11.499 9.61115 11.5495 9.57517 11.5819 9.55239C11.8004 9.40039 12.1408 9.16376 12.5984 8.84598C13.4312 8.26738 14.6576 7.41577 16.2828 6.28775C16.7716 5.94634 17.18 5.53435 17.5082 5.05235C17.8358 4.57035 18.0001 4.06476 18.0001 3.53573C18.0001 3.09373 17.8408 2.71553 17.523 2.40053C17.2048 2.08591 16.8281 1.92853 16.3928 1.92853Z" fill="#FFD700"/>
</svg>