<svg width="226" height="74" viewBox="0 0 226 74" fill="none" xmlns="http://www.w3.org/2000/svg">
    <path d="M82.9595 17.6121H85.8229C87.4212 17.6121 88.5052 17.6769 89.0746 17.8065C89.9287 18.0009 90.6241 18.4203 91.1612 19.0653C91.6982 19.7098 91.967 20.502 91.967 21.4416C91.967 22.2321 91.7823 22.9224 91.4135 23.512C91.0447 24.1016 90.5158 24.5505 89.8265 24.858C89.1372 25.166 88.5406 25.3194 88.0359 25.3194L92.1611 32.0262H90.3946L86.2694 25.3194H84.3959V32.0262H82.9595V17.6121ZM84.3959 19.0216V23.9206L86.8712 23.9401C87.8288 23.9401 88.5388 23.8494 89.0017 23.6679C89.4641 23.4865 89.8235 23.1945 90.0793 22.7932C90.3346 22.3915 90.4628 21.9409 90.4628 21.442C90.4628 20.9629 90.3316 20.5253 90.0698 20.1301C89.8079 19.7348 89.4663 19.4515 89.0457 19.2795C88.6251 19.1076 87.9198 19.0216 86.9298 19.0216H84.3959Z" fill="#575756"/>
    <path d="M99.8386 20.8588C101.476 20.8588 102.834 21.4515 103.915 22.6373C104.912 23.7198 105.41 25.0058 105.41 26.4961C105.423 30.1769 105.423 32.0465 105.41 32.1044C104.789 32.1044 104.306 32.1044 103.963 32.1044C103.963 32.0594 103.963 31.2521 103.963 29.684C103.206 31.097 101.831 31.8871 99.8382 32.0556C98.2076 32.0556 96.8759 31.5 95.8441 30.3886C94.8118 29.2775 94.2959 27.9799 94.2959 26.4956C94.2959 25.0183 94.7846 23.7353 95.7617 22.6468C96.8427 21.455 98.2015 20.8588 99.8386 20.8588ZM99.8386 22.1997C98.7063 22.1997 97.7322 22.6213 96.9173 23.4636C96.1021 24.306 95.6944 25.3233 95.6944 26.5151C95.6944 27.2866 95.8803 28.0071 96.2526 28.678C96.6244 29.3488 97.1274 29.8637 97.762 30.2236C98.3961 30.583 99.0884 30.7627 99.839 30.7627C102.266 30.5169 103.628 29.1004 103.925 26.5151C103.925 25.3228 103.528 24.306 102.731 23.4636C101.935 22.6213 100.971 22.1997 99.8386 22.1997Z" fill="#575756"/>
    <path d="M108.545 17C108.856 17 109.123 17.1102 109.346 17.3305C109.569 17.5508 109.68 17.8164 109.68 18.1274C109.68 18.4389 109.569 18.7059 109.346 18.9292C109.122 19.153 108.855 19.2644 108.545 19.2644C108.234 19.2644 107.969 19.1525 107.749 18.9292C107.529 18.7054 107.419 18.4385 107.419 18.1274C107.419 17.8164 107.529 17.5508 107.749 17.3305C107.969 17.1102 108.234 17 108.545 17ZM107.866 21.3837H109.234V32.0465H107.866V21.3837Z" fill="#575756"/>
    <path d="M117.417 22.2973L116.543 23.2109C115.806 22.4982 115.09 22.1414 114.398 22.1414C113.951 22.1414 113.57 22.2874 113.253 22.5789C112.936 22.8705 112.777 23.2174 112.777 23.6187C112.777 23.9556 112.909 24.2796 113.175 24.5906C113.433 24.9215 113.98 25.3004 114.815 25.728C115.837 26.2529 116.53 26.7617 116.892 27.2542C117.248 27.7531 117.426 28.3134 117.426 28.9359C117.426 29.8041 117.12 30.5411 116.509 31.1467C115.898 31.7527 115.133 32.0556 114.214 32.0556C113.599 32.0556 113.012 31.9242 112.452 31.662C111.892 31.3994 111.431 31.0318 111.069 30.5583L111.933 29.5769C112.631 30.3678 113.372 30.7627 114.155 30.7627C114.699 30.7627 115.163 30.5864 115.548 30.2331C115.933 29.8801 116.126 29.4667 116.126 28.9937C116.126 28.5985 116 28.2486 115.747 27.9436C115.495 27.6395 114.922 27.2568 114.029 26.7972C113.065 26.3112 112.411 25.8218 112.069 25.3293C111.719 24.8503 111.544 24.2991 111.544 23.6774C111.544 22.8675 111.821 22.1949 112.374 21.6606C112.928 21.1258 113.622 20.8588 114.457 20.8588C115.433 20.8588 116.42 21.3383 117.417 22.2973Z" fill="#575756"/>
    <path d="M124.861 20.8588C126.498 20.8588 127.857 21.4515 128.938 22.6373C129.934 23.7198 130.432 25.0058 130.432 26.4961C130.445 30.1769 130.445 32.0465 130.432 32.1044C129.811 32.1044 129.329 32.1044 128.986 32.1044C128.986 32.0594 128.986 31.2521 128.986 29.684C128.229 31.097 126.854 31.8871 124.861 32.0556C123.23 32.0556 121.899 31.5 120.867 30.3886C119.835 29.2775 119.319 27.9799 119.319 26.4956C119.319 25.0183 119.807 23.7353 120.784 22.6468C121.865 21.455 123.224 20.8588 124.861 20.8588ZM124.861 22.1997C123.729 22.1997 122.755 22.6213 121.94 23.4636C121.125 24.306 120.717 25.3233 120.717 26.5151C120.717 27.2866 120.903 28.0071 121.275 28.678C121.647 29.3488 122.15 29.8637 122.785 30.2236C123.419 30.583 124.111 30.7627 124.862 30.7627C127.288 30.5169 128.65 29.1004 128.948 26.5151C128.948 25.3228 128.55 24.306 127.754 23.4636C126.958 22.6213 125.994 22.1997 124.861 22.1997Z" fill="#575756"/>
    <path d="M138.635 17.5737H141.498C143.148 17.5737 144.257 17.6449 144.827 17.7875C145.656 17.9948 146.328 18.4126 146.846 19.0411C147.364 19.6696 147.623 20.4636 147.623 21.4225C147.623 22.375 147.369 23.1638 146.861 23.7893C146.353 24.4144 145.653 24.8338 144.759 25.0477C144.106 25.2032 142.886 25.2809 141.1 25.2809H140.071V31.9873H138.635V17.5737ZM140.071 18.9733V23.8718L142.517 23.9008C143.494 23.9008 144.21 23.8122 144.667 23.6338C145.123 23.4558 145.482 23.1638 145.744 22.7591C146.007 22.3543 146.138 21.9085 146.138 21.4225C146.138 20.9301 146.007 20.483 145.744 20.0813C145.483 19.6795 145.138 19.3944 144.711 19.2264C144.284 19.0579 143.585 18.9737 142.614 18.9737H140.071V18.9733Z" fill="#575756"/>
    <path d="M155.29 20.8588C156.927 20.8588 158.286 21.4515 159.367 22.6373C160.363 23.7198 160.861 25.0058 160.861 26.4961C160.874 30.1769 160.874 32.0465 160.861 32.1044C160.24 32.1044 159.758 32.1044 159.415 32.1044C159.415 32.0594 159.415 31.2521 159.415 29.684C158.658 31.097 157.283 31.8871 155.29 32.0556C153.659 32.0556 152.328 31.5 151.295 30.3886C150.263 29.2775 149.747 27.9799 149.747 26.4956C149.747 25.0183 150.236 23.7353 151.213 22.6468C152.294 21.455 153.653 20.8588 155.29 20.8588ZM155.29 22.1997C154.157 22.1997 153.184 22.6213 152.369 23.4636C151.553 24.306 151.146 25.3233 151.146 26.5151C151.146 27.2866 151.332 28.0071 151.704 28.678C152.076 29.3488 152.579 29.8637 153.213 30.2236C153.847 30.583 154.539 30.7627 155.29 30.7627C157.717 30.5169 159.079 29.1004 159.377 26.5151C159.377 25.3228 158.978 24.306 158.183 23.4636C157.386 22.6213 156.422 22.1997 155.29 22.1997Z" fill="#575756"/>
    <path d="M162.511 21.4031H163.967L167.53 29.1596L171.063 21.4031H172.528L167.656 32.0659H167.413L162.511 21.4031Z" fill="#575756"/>
    <path d="M174.402 17.2626H175.78V32.0465H174.402V17.2626Z" fill="#575756"/>
    <path d="M183.642 20.8588C185.279 20.8588 186.638 21.4515 187.719 22.6373C188.696 23.7263 189.184 25.0122 189.184 26.4961C189.184 27.9803 188.666 29.2775 187.631 30.389C186.595 31.5005 185.266 32.056 183.642 32.056C182.011 32.056 180.68 31.5005 179.647 30.389C178.615 29.278 178.099 27.9803 178.099 26.4961C178.099 25.0187 178.588 23.7358 179.564 22.6472C180.646 21.4549 182.005 20.8588 183.642 20.8588ZM183.642 22.1997C182.509 22.1997 181.536 22.6213 180.721 23.4636C179.905 24.306 179.498 25.3233 179.498 26.5151C179.498 27.2866 179.684 28.0071 180.056 28.678C180.428 29.3488 180.931 29.8637 181.565 30.2236C182.199 30.583 182.891 30.7627 183.642 30.7627C184.406 30.7627 185.103 30.583 185.734 30.2236C186.365 29.8637 186.865 29.3488 187.234 28.678C187.602 28.0071 187.787 27.2866 187.787 26.5151C187.787 25.3228 187.379 24.306 186.564 23.4636C185.748 22.6213 184.774 22.1997 183.642 22.1997Z" fill="#575756"/>
    <path d="M190.699 21.4031H192.155L195.717 29.1596L199.25 21.4031H200.715L195.843 32.0659H195.6L190.699 21.4031Z" fill="#575756"/>
    <path d="M202.793 28.0028L202.773 26.8654C202.754 26.3081 202.777 25.8351 202.841 25.4463C202.983 24.2217 203.294 23.3245 203.773 22.7543C204.239 22.2553 204.714 21.8696 205.2 21.5975C206.002 21.254 206.918 21.092 207.947 21.1115C208.749 21.1115 209.491 21.3141 210.174 21.7188C210.857 22.124 211.344 22.6679 211.635 23.3517C211.927 24.0351 212.072 25.1064 212.072 26.5643V32.046H210.714V26.9626C210.714 25.7314 210.662 24.9085 210.558 24.4938C210.397 23.7876 210.076 23.2869 209.597 22.9919C209.118 22.6968 208.41 22.55 207.471 22.55C206.643 22.55 205.905 22.7897 205.258 23.2692C204.611 23.7487 204.31 24.4031 204.356 25.2325C204.233 25.7638 204.171 26.7328 204.171 28.1388V32.0465H202.793V28.0028Z" fill="#575756"/>
    <path d="M220.021 20.8588C221.658 20.8588 223.017 21.4515 224.098 22.6373C225.094 23.7198 225.592 25.0058 225.592 26.4961C225.605 30.1769 225.605 32.0465 225.592 32.1044C224.971 32.1044 224.489 32.1044 224.146 32.1044C224.146 32.0594 224.146 31.2521 224.146 29.684C223.389 31.097 222.014 31.8871 220.021 32.0556C218.39 32.0556 217.058 31.5 216.026 30.3886C214.994 29.2775 214.478 27.9799 214.478 26.4956C214.478 25.0183 214.967 23.7353 215.943 22.6468C217.025 21.455 218.384 20.8588 220.021 20.8588ZM220.021 22.1997C218.888 22.1997 217.915 22.6213 217.099 23.4636C216.284 24.306 215.877 25.3233 215.877 26.5151C215.877 27.2866 216.062 28.0071 216.435 28.678C216.807 29.3488 217.31 29.8637 217.944 30.2236C218.578 30.583 219.27 30.7627 220.021 30.7627C222.448 30.5169 223.809 29.1004 224.108 26.5151C224.108 25.3228 223.709 24.306 222.914 23.4636C222.118 22.6213 221.153 22.1997 220.021 22.1997Z" fill="#575756"/>
    <path d="M129.321 50.7735C128.914 51.0014 128.468 51.1928 127.982 51.3496C127.496 51.5064 127.021 51.6329 126.554 51.726C126.088 51.8191 125.653 51.888 125.25 51.932C124.847 51.9748 124.521 51.9968 124.27 51.9968C123.189 51.9968 122.203 51.8149 121.31 51.45C120.417 51.0851 119.652 50.5822 119.014 49.9392C118.376 49.2962 117.88 48.5319 117.528 47.6463C117.176 46.7608 117 45.7916 117 44.7408C117 43.6033 117.199 42.5964 117.599 41.7171C117.999 40.8389 118.552 40.0997 119.255 39.5006C119.96 38.9005 120.794 38.4457 121.757 38.1352C122.719 37.8257 123.766 37.671 124.893 37.671C125.527 37.671 126.134 37.7128 126.714 37.7943C127.294 37.8769 127.857 37.9773 128.406 38.0944C128.475 38.1101 128.533 38.1435 128.576 38.1948C128.619 38.246 128.644 38.2993 128.652 38.3527C128.659 38.4624 128.67 38.6036 128.681 38.7761C128.693 38.9486 128.703 39.1357 128.71 39.3344C128.718 39.5341 128.728 39.739 128.74 39.946C128.751 40.1541 128.762 40.3465 128.769 40.5232C128.776 40.6998 128.782 40.8504 128.787 40.9759C128.79 41.1013 128.792 41.1798 128.792 41.2122L128.204 41.2707C128.157 40.7846 128.014 40.3737 127.775 40.036C127.536 39.6993 127.24 39.4264 126.888 39.2184C126.536 39.0113 126.146 38.8597 125.719 38.7656C125.292 38.6705 124.868 38.6234 124.444 38.6234C123.591 38.6234 122.849 38.7656 122.218 39.0469C121.588 39.3302 121.064 39.7202 120.645 40.2168C120.226 40.7155 119.912 41.3031 119.705 41.9817C119.497 42.6602 119.394 43.3994 119.394 44.1992C119.394 45.1329 119.521 46.0017 119.775 46.8047C120.029 47.6077 120.411 48.305 120.921 48.8926C121.429 49.4812 122.064 49.9433 122.824 50.28C123.583 50.6167 124.472 50.785 125.49 50.785C126.101 50.785 126.692 50.7191 127.264 50.5863C127.835 50.4525 128.416 50.2727 129.003 50.0448L129.321 50.7735Z" fill="#575756"/>
    <path d="M130.144 36.4695C131.005 36.2343 131.713 36.068 132.27 35.9698C132.826 35.8715 133.158 35.8223 133.269 35.8223C133.52 35.8223 133.645 35.9635 133.645 36.2447V51.337C133.645 51.5252 133.551 51.635 133.363 51.6664C133.23 51.6894 133.087 51.7113 132.934 51.7312C132.78 51.751 132.634 51.7657 132.493 51.7782C132.352 51.7897 132.223 51.7981 132.106 51.8012C131.988 51.8054 131.898 51.8075 131.835 51.8075C131.648 51.8075 131.554 51.7092 131.554 51.5137V38.0797C131.554 37.6646 131.487 37.3802 131.354 37.2275C131.222 37.0749 131.002 36.9986 130.696 36.9986C130.547 36.9986 130.387 37.0101 130.215 37.0331L130.144 36.4695Z" fill="#575756"/>
    <path d="M144.11 50.6564C143.734 50.8373 143.338 51.0035 142.924 51.1562C142.509 51.3088 142.103 51.4405 141.707 51.5503C141.313 51.6601 140.944 51.7448 140.604 51.8033C140.262 51.8629 139.978 51.8912 139.752 51.8912C139.118 51.8912 138.555 51.772 138.066 51.5325C137.578 51.2931 137.165 50.9763 136.832 50.5801C136.499 50.1838 136.247 49.728 136.074 49.2094C135.902 48.6908 135.815 48.1544 135.815 47.5972C135.815 46.8768 135.948 46.2202 136.215 45.6274C136.482 45.0356 136.844 44.5295 137.302 44.1103C137.761 43.691 138.295 43.3648 138.906 43.1327C139.517 42.9016 140.163 42.7866 140.844 42.7866C141.29 42.7866 141.685 42.8546 142.03 42.9916C142.374 43.1296 142.664 43.3177 142.9 43.5561C143.134 43.7956 143.314 44.0841 143.44 44.4208C143.566 44.7574 143.628 45.1265 143.628 45.527C143.628 45.872 143.561 46.3028 143.429 46.8203L137.908 47.1141C137.939 47.6087 138.037 48.0593 138.201 48.467C138.365 48.8748 138.598 49.2282 138.9 49.5262C139.201 49.8242 139.569 50.0552 140.003 50.2204C140.439 50.3846 140.938 50.4661 141.501 50.4661C141.877 50.4661 142.278 50.4211 142.705 50.3312C143.132 50.2413 143.513 50.1294 143.851 49.9967L144.11 50.6564ZM141.503 46.1386C141.525 46.0288 141.542 45.9232 141.55 45.8208C141.557 45.7183 141.561 45.6127 141.561 45.5029C141.561 45.2834 141.528 45.0753 141.462 44.8788C141.395 44.6822 141.299 44.5118 141.174 44.3675C141.048 44.2232 140.892 44.1092 140.704 44.0266C140.516 43.944 140.305 43.9032 140.07 43.9032C139.694 43.9032 139.372 43.9712 139.101 44.1092C138.831 44.2462 138.608 44.4292 138.432 44.655C138.255 44.8829 138.125 45.1474 138.038 45.4496C137.952 45.7518 137.906 46.0675 137.897 46.3958L141.503 46.1386Z" fill="#575756"/>
    <path d="M145.778 43.7633C146.185 43.5991 146.586 43.4538 146.982 43.3283C147.377 43.2029 147.749 43.0983 148.098 43.0157C148.447 42.9342 148.764 42.8704 149.049 42.8275C149.334 42.7847 149.572 42.7627 149.76 42.7627C150.324 42.7627 150.798 42.8275 151.181 42.9572C151.564 43.0858 151.874 43.2917 152.109 43.574C152.345 43.8574 152.513 44.2149 152.615 44.6509C152.716 45.0859 152.763 45.6097 152.755 46.2213L152.696 50.0552C152.688 50.2978 152.704 50.5257 152.743 50.7369C152.783 50.9492 152.825 51.1562 152.872 51.3611C152.881 51.3695 152.885 51.4009 152.885 51.4552C152.885 51.5723 152.807 51.6434 152.649 51.6675C152.547 51.6905 152.432 51.7124 152.302 51.7323C152.174 51.7521 152.042 51.7668 151.909 51.7793C151.776 51.7908 151.642 51.7992 151.51 51.8023C151.376 51.8065 151.259 51.8086 151.157 51.8086C151.07 51.8086 151.006 51.7856 150.963 51.7386C150.92 51.6915 150.887 51.6204 150.863 51.5263L150.71 50.9617C150.413 51.0955 150.108 51.2189 149.794 51.3318C149.48 51.4458 149.182 51.5441 148.896 51.6256C148.61 51.7082 148.351 51.7731 148.115 51.8201C147.88 51.8672 147.687 51.8902 147.539 51.8902C147.125 51.8902 146.765 51.8149 146.459 51.6612C146.153 51.5075 145.902 51.3162 145.707 51.0841C145.511 50.853 145.367 50.5979 145.273 50.3198C145.179 50.0417 145.132 49.7772 145.132 49.5262C145.132 49.0787 145.212 48.7013 145.372 48.3908C145.533 48.0813 145.75 47.8241 146.024 47.6213C146.267 47.4404 146.551 47.2919 146.876 47.1738C147.201 47.0567 147.559 46.9636 147.951 46.8967C148.342 46.8298 148.765 46.7817 149.219 46.7493C149.673 46.7169 150.152 46.6939 150.653 46.6792L150.664 46.2788C150.673 45.9181 150.651 45.5951 150.599 45.3086C150.548 45.0221 150.456 44.7806 150.323 44.5851C150.189 44.3895 150.01 44.24 149.782 44.1376C149.554 44.0361 149.269 43.9849 148.925 43.9849C148.503 43.9849 148.061 44.032 147.603 44.1261C147.146 44.2202 146.623 44.3613 146.035 44.5495L145.778 43.7633ZM150.64 47.4791C150.272 47.5021 149.927 47.5251 149.607 47.5449C149.286 47.5648 148.992 47.5941 148.725 47.6328C148.459 47.6725 148.224 47.7331 148.021 47.8157C147.817 47.8973 147.652 48.0133 147.527 48.1618C147.433 48.2716 147.354 48.4086 147.292 48.5748C147.229 48.7389 147.198 48.9198 147.198 49.1164C147.198 49.2805 147.223 49.4489 147.274 49.6214C147.325 49.7939 147.415 49.9528 147.544 50.0981C147.674 50.2435 147.848 50.3626 148.067 50.4567C148.285 50.5508 148.565 50.5979 148.901 50.5979C148.948 50.5979 149.024 50.5906 149.13 50.5749C149.236 50.5592 149.365 50.5341 149.518 50.4986C149.67 50.4641 149.841 50.4149 150.028 50.3512C150.216 50.2884 150.407 50.21 150.605 50.1159L150.64 47.4791Z" fill="#575756"/>
    <path d="M154.424 43.5038C154.846 43.3867 155.235 43.2864 155.592 43.2048C155.948 43.1222 156.263 43.0532 156.532 42.9988C156.801 42.9445 157.023 42.9047 157.195 42.8817C157.367 42.8587 157.481 42.8462 157.536 42.8462C157.771 42.8462 157.901 42.9873 157.924 43.2696L157.958 43.7642C158.318 43.6303 158.681 43.5049 159.045 43.3878C159.41 43.2707 159.756 43.1661 160.084 43.0762C160.413 42.9863 160.715 42.9163 160.989 42.865C161.263 42.8138 161.494 42.7887 161.681 42.7887C162.128 42.7887 162.509 42.8587 162.827 42.9999C163.145 43.141 163.405 43.3365 163.609 43.5885C163.811 43.8394 163.961 44.1427 164.055 44.5002C164.15 44.8568 164.197 45.2509 164.197 45.6827L164.137 51.3402C164.137 51.5284 164.043 51.6381 163.855 51.6695C163.73 51.6925 163.59 51.7145 163.439 51.7344C163.286 51.7542 163.137 51.7688 162.992 51.7814C162.847 51.7929 162.713 51.8013 162.592 51.8044C162.471 51.8075 162.383 51.8107 162.328 51.8107C162.14 51.8107 162.045 51.7124 162.045 51.5169L162.104 46.8349V46.6582C162.104 46.2348 162.071 45.8636 162.004 45.5468C161.937 45.23 161.826 44.9603 161.67 44.7407C161.513 44.5212 161.309 44.357 161.059 44.2462C160.809 44.1374 160.495 44.082 160.12 44.082C159.979 44.082 159.714 44.1207 159.326 44.1991C158.939 44.2775 158.482 44.4312 157.957 44.6571V51.3391C157.957 51.5273 157.863 51.6371 157.675 51.6685C157.55 51.6915 157.411 51.7134 157.259 51.7333C157.106 51.7532 156.957 51.7678 156.812 51.7803C156.667 51.7918 156.533 51.8002 156.412 51.8033C156.291 51.8065 156.203 51.8096 156.148 51.8096C155.96 51.8096 155.866 51.7113 155.866 51.5158V45.1046C155.866 44.6895 155.799 44.4051 155.667 44.2524C155.533 44.0998 155.322 44.0224 155.033 44.0224C154.954 44.0224 154.874 44.0245 154.793 44.0287C154.71 44.0329 154.61 44.0465 154.493 44.0695L154.424 43.5038Z" fill="#575756"/>
    <path d="M165.922 43.5038C166.344 43.3867 166.736 43.2863 167.097 43.2048C167.457 43.1222 167.776 43.0532 168.054 42.9988C168.332 42.9434 168.559 42.9047 168.735 42.8817C168.912 42.8587 169.026 42.8462 169.082 42.8462C169.331 42.8462 169.457 42.9873 169.457 43.2696V51.339C169.457 51.5272 169.363 51.637 169.175 51.6684C169.041 51.6914 168.898 51.7134 168.746 51.7332C168.593 51.7531 168.447 51.7677 168.305 51.7802C168.164 51.7917 168.035 51.8001 167.918 51.8033C167.801 51.8064 167.711 51.8095 167.647 51.8095C167.459 51.8095 167.365 51.7113 167.365 51.5157V45.1045C167.365 44.6895 167.298 44.4051 167.166 44.2524C167.032 44.0998 166.825 44.0224 166.543 44.0224C166.457 44.0224 166.372 44.0245 166.291 44.0287C166.208 44.0329 166.108 44.0464 165.991 44.0694L165.922 43.5038ZM169.528 39.1868C169.528 39.6103 169.417 39.9166 169.193 40.1048C168.97 40.293 168.647 40.3871 168.225 40.3871C167.872 40.3871 167.601 40.2815 167.414 40.0693C167.225 39.8581 167.131 39.5643 167.131 39.1868C167.131 38.7644 167.246 38.4602 167.478 38.2762C167.71 38.0911 168.036 37.9991 168.458 37.9991C168.811 37.9991 169.078 38.1036 169.257 38.3107C169.438 38.5187 169.528 38.8104 169.528 39.1868Z" fill="#575756"/>
    <path d="M171.303 43.5038C171.725 43.3867 172.114 43.2864 172.471 43.2048C172.827 43.1222 173.141 43.0532 173.411 42.9988C173.68 42.9445 173.901 42.9047 174.074 42.8817C174.246 42.8587 174.36 42.8462 174.415 42.8462C174.65 42.8462 174.78 42.9873 174.802 43.2696L174.837 43.7642C175.197 43.6303 175.559 43.5049 175.924 43.3878C176.288 43.2707 176.635 43.1661 176.963 43.0762C177.292 42.9863 177.593 42.9163 177.868 42.865C178.141 42.8138 178.372 42.7887 178.56 42.7887C179.007 42.7887 179.388 42.8587 179.705 42.9999C180.024 43.141 180.284 43.3365 180.487 43.5885C180.69 43.8394 180.839 44.1427 180.933 44.5002C181.028 44.8568 181.075 45.2509 181.075 45.6827L181.016 51.3402C181.016 51.5284 180.922 51.6381 180.734 51.6695C180.609 51.6925 180.469 51.7145 180.317 51.7344C180.165 51.7542 180.016 51.7688 179.87 51.7814C179.725 51.7929 179.592 51.8013 179.471 51.8044C179.349 51.8075 179.262 51.8107 179.206 51.8107C179.018 51.8107 178.923 51.7124 178.923 51.5169L178.983 46.8349V46.6582C178.983 46.2348 178.95 45.8636 178.883 45.5468C178.816 45.23 178.704 44.9603 178.549 44.7407C178.392 44.5212 178.187 44.357 177.938 44.2462C177.687 44.1374 177.374 44.082 176.998 44.082C176.857 44.082 176.593 44.1207 176.205 44.1991C175.817 44.2775 175.361 44.4312 174.836 44.6571V51.3391C174.836 51.5273 174.742 51.6371 174.554 51.6685C174.429 51.6915 174.29 51.7134 174.137 51.7333C173.985 51.7532 173.836 51.7678 173.691 51.7803C173.545 51.7918 173.412 51.8002 173.291 51.8033C173.17 51.8065 173.082 51.8096 173.027 51.8096C172.839 51.8096 172.745 51.7113 172.745 51.5158V45.1046C172.745 44.6895 172.678 44.4051 172.545 44.2524C172.412 44.0998 172.201 44.0224 171.911 44.0224C171.833 44.0224 171.753 44.0245 171.671 44.0287C171.589 44.0329 171.489 44.0465 171.372 44.0695L171.303 43.5038Z" fill="#575756"/>
    <path d="M190.225 43.9629C190.468 44.2378 190.654 44.541 190.783 44.8735C190.911 45.207 190.977 45.5615 190.977 45.9389C190.977 46.4481 190.877 46.9123 190.678 47.3264C190.478 47.7425 190.196 48.099 189.832 48.397C189.466 48.6949 189.034 48.926 188.534 49.0912C188.033 49.2554 187.481 49.3369 186.877 49.3369C186.383 49.3369 185.981 49.2867 185.668 49.1843C185.55 49.3338 185.434 49.4822 185.321 49.6307C185.208 49.7802 185.151 49.9329 185.151 50.0897C185.151 50.2779 185.259 50.4243 185.475 50.5309C185.69 50.6365 185.952 50.717 186.261 50.7714C186.571 50.8268 186.897 50.8613 187.241 50.878C187.586 50.8937 187.892 50.901 188.158 50.901C188.635 50.901 189.111 50.9314 189.585 50.9951C190.058 51.0579 190.483 51.1718 190.86 51.336C191.235 51.5001 191.541 51.7281 191.776 52.0177C192.012 52.3073 192.129 52.6805 192.129 53.1353C192.129 53.5661 192.029 53.9644 191.829 54.3293C191.63 54.6942 191.37 55.0246 191.048 55.3226C190.727 55.6206 190.361 55.8851 189.95 56.1172C189.538 56.3483 189.118 56.5406 188.686 56.6933C188.256 56.8459 187.836 56.962 187.424 57.0404C187.013 57.1188 186.65 57.1585 186.337 57.1585C185.969 57.1585 185.577 57.1073 185.163 57.0059C184.748 56.9045 184.366 56.7508 184.017 56.5469C183.669 56.3441 183.379 56.09 183.149 55.7878C182.917 55.4867 182.802 55.1312 182.802 54.7235C182.802 54.4809 182.843 54.2467 182.925 54.023C183.007 53.7993 183.115 53.5797 183.248 53.3643C183.381 53.1489 183.537 52.9356 183.718 52.7234C183.898 52.5122 184.086 52.2968 184.281 52.0773C184.173 52.0219 184.068 51.9476 183.97 51.8535C183.872 51.7594 183.788 51.6559 183.718 51.5419C183.648 51.428 183.59 51.3119 183.547 51.1948C183.505 51.0777 183.483 50.9627 183.483 50.854C183.483 50.6114 183.591 50.3385 183.811 50.0364C184.03 49.7342 184.391 49.3484 184.891 48.8779C184.35 48.6029 183.93 48.2234 183.629 47.7373C183.327 47.2511 183.176 46.7105 183.176 46.1135C183.176 45.619 183.276 45.1673 183.475 44.7543C183.675 44.3424 183.957 43.9921 184.322 43.7015C184.687 43.4119 185.117 43.186 185.614 43.0261C186.111 42.8651 186.661 42.7856 187.263 42.7856C187.733 42.7856 188.168 42.8441 188.567 42.9612C188.967 43.0794 189.319 43.2404 189.625 43.4443C190.385 43.2477 190.98 43.0992 191.41 42.9968C191.841 42.8943 192.111 42.8441 192.221 42.8441C192.44 42.8441 192.55 42.9612 192.55 43.1975C192.55 43.347 192.541 43.4997 192.527 43.6555C192.51 43.8123 192.491 43.9817 192.467 44.1615L190.225 43.9629ZM185.056 52.4076C184.853 52.691 184.695 52.9419 184.586 53.1615C184.477 53.381 184.421 53.6236 184.421 53.8902C184.421 54.2185 184.526 54.4977 184.734 54.7256C184.94 54.9525 185.203 55.1375 185.521 55.2776C185.838 55.4198 186.181 55.5181 186.548 55.5777C186.916 55.6373 187.264 55.6655 187.593 55.6655C187.86 55.6655 188.157 55.6383 188.486 55.584C188.814 55.5285 189.12 55.4366 189.402 55.3069C189.685 55.1773 189.921 55.0048 190.113 54.7894C190.305 54.574 190.4 54.3011 190.4 53.9728C190.4 53.6895 190.318 53.4647 190.153 53.2963C189.989 53.128 189.776 52.9984 189.514 52.9085C189.251 52.8185 188.952 52.7589 188.615 52.7317C188.279 52.7046 187.942 52.691 187.605 52.691C187.425 52.691 187.228 52.6868 187.013 52.6784C186.797 52.6711 186.575 52.6554 186.349 52.6314C186.121 52.6084 185.896 52.5781 185.673 52.5436C185.45 52.508 185.244 52.463 185.056 52.4076ZM187.159 48.374C187.464 48.374 187.728 48.3186 187.951 48.2098C188.175 48.1001 188.358 47.9526 188.497 47.7686C188.638 47.5836 188.744 47.3682 188.815 47.1214C188.886 46.8747 188.921 46.6143 188.921 46.3394C188.921 46.0257 188.884 45.7131 188.81 45.4036C188.736 45.0941 188.62 44.815 188.463 44.5682C188.307 44.3215 188.105 44.1228 187.858 43.9744C187.612 43.8259 187.32 43.7506 186.984 43.7506C186.678 43.7506 186.416 43.8081 186.196 43.921C185.977 44.035 185.796 44.1866 185.655 44.3748C185.515 44.563 185.411 44.7826 185.344 45.0335C185.278 45.2844 185.244 45.5469 185.244 45.8218C185.244 46.1271 185.279 46.4335 185.351 46.7388C185.421 47.0451 185.532 47.3201 185.685 47.5626C185.837 47.8052 186.036 48.0018 186.278 48.1513C186.52 48.3008 186.814 48.374 187.159 48.374Z" fill="#575756"/>
    <path d="M4.74468 36.176C2.93032 36.176 0.962402 36.176 0.962402 36.176V37.3794C1.83421 37.3794 1.95197 37.9458 2.52958 38.3587C3.10676 38.7717 3.68436 38.5237 3.68436 38.9721C3.68436 39.1017 3.68436 39.2434 3.68436 39.2434H5.4517C5.4517 38.925 6.15872 38.8067 6.4059 38.8067C6.6535 38.8067 7.45456 39.1017 7.90233 39.1017C8.35009 39.1017 8.10249 38.5825 7.79621 38.2874C7.48994 37.9924 6.22903 36.7181 6.22903 36.7181C5.91111 36.4356 5.67558 36.176 4.74468 36.176Z" fill="#FFD700"/>
    <path d="M0.762329 36.176V37.3764L0.117432 37.2434V36.2969L0.762329 36.176Z" fill="#FFD700"/>
    <path d="M1.10698 37.7095C1.10698 38.5531 1.08929 39.8361 0.0112945 41.1812C-0.0417642 41.2961 0.099728 41.3316 0.27659 41.243C0.453452 41.1545 1.18678 40.5618 1.38133 40.0572C1.57588 39.5527 1.67294 38.7121 2.45933 38.7121C1.67251 38.2348 1.92011 37.8658 1.10698 37.7095Z" fill="#FFD700"/>
    <path d="M3.64042 41.5177H5.46944C5.7205 41.5177 5.92627 41.3121 5.92627 41.0603V40.0987C5.92627 39.8473 5.72093 39.6412 5.46944 39.6412H3.64042C3.38936 39.6412 3.18359 39.8469 3.18359 40.0987V41.0603C3.18359 41.3117 3.38936 41.5177 3.64042 41.5177Z" fill="#FFD700"/>
    <path d="M0.440181 50.9477C0.440181 50.9477 1.90555 45.7562 2.35332 43.8724C2.80065 41.9903 2.96587 42.0279 4.55159 42.0279C6.13732 42.0279 6.30253 41.9903 6.74987 43.8724C7.19763 45.7562 8.663 50.9477 8.663 50.9477C9.31826 53.095 9.34199 55.0536 6.86763 55.0536C4.95622 55.0536 4.61414 55.0536 4.5572 55.0536C4.5572 55.0536 4.55634 55.0536 4.55548 55.0536C4.55418 55.0536 4.55203 55.0536 4.54814 55.0536C4.54771 55.0536 4.54685 55.0536 4.54642 55.0536C4.48947 55.0536 4.1474 55.0536 2.23599 55.0536C-0.238799 55.0536 -0.215505 53.095 0.440181 50.9477Z" fill="#FFD700"/>
    <path d="M27.4925 26.1763C28.0702 28.2851 29.429 29.6117 30.7537 30.5301C30.7537 32.6593 30.1545 33.6822 28.9566 34.3163V39.5389H36.0061V34.2714C34.8613 33.6338 34.2862 32.6118 34.2862 30.5301C35.611 29.6117 36.9698 28.2851 37.5474 26.1763C38.0228 27.0946 39.0421 25.8022 39.6797 24.5093C40.3173 23.2168 40.4346 21.8561 39.008 21.9922C40.6046 16.0055 39.2457 13.7601 36.0868 11.9233C36.6303 10.5285 36.4944 6.8891 32.5202 6.8891C28.546 6.8891 28.4101 10.5289 28.9536 11.9233C25.7947 13.7601 24.4358 16.0055 26.0324 21.9922C24.6058 21.8561 24.7231 23.2168 25.3607 24.5093C25.9978 25.8022 27.0172 27.0946 27.4925 26.1763ZM25.6959 19.9459C25.6562 19.6466 25.6286 19.3437 25.6286 19.0336C25.6286 15.2223 28.7138 12.1328 32.5198 12.1328C36.3258 12.1328 39.4109 15.2223 39.4109 19.0336C39.4109 19.3437 39.3833 19.6466 39.3436 19.9459C38.8967 16.567 36.0156 13.9575 32.5193 13.9575C29.0231 13.9575 26.1428 16.567 25.6959 19.9459Z" fill="#FFD700"/>
    <path d="M63.9751 62.0974C63.8392 61.8253 63.2616 62.1652 62.4127 62.3354C61.5633 62.5056 61.2579 62.1652 60.5444 61.9954C61.1897 61.8594 61.4956 61.3151 61.1897 60.8049C61.1897 60.8049 60.4426 59.9207 60.2045 59.4783C59.9668 59.036 59.7291 59.0615 59.2533 59.0615C59.2533 59.0615 59.7628 58.9341 59.7628 58.6278C59.7628 58.3215 59.2874 58.3215 58.608 58.3215C58.0985 58.3215 58.3362 58.1855 57.9967 58.1855C57.3855 58.1855 57.2155 58.5254 56.672 58.8317C56.1285 59.138 55.8567 59.138 55.5172 58.8317C55.5172 58.8317 53.7507 57.0628 52.6637 55.8044C51.5766 54.5456 49.6406 51.9607 47.3647 50.362C46.7871 45.5317 45.4283 43.2867 44.9529 42.1908C44.4775 41.0949 44.3753 39.545 43.5941 38.0145C42.337 35.8715 41.9294 35.8715 38.8723 35.1911C38.1096 35.0213 37.4422 34.8581 36.8694 34.6555V39.5398C36.8694 39.5398 38.6423 41.8742 38.9676 44.5476C39.2381 46.7701 38.5103 49.2246 38.3852 50.7706H39.2661C39.292 50.2799 39.3782 49.6363 39.5655 48.714C39.5655 48.714 39.7212 47.9758 40.4688 46.3088C41.2159 44.6418 40.7405 41.9597 40.7405 41.9597C40.7405 41.9597 40.8514 41.742 40.9105 42.1199C41.4199 44.9433 43.6092 51.1391 44.6281 52.8402C45.647 54.5409 50.2519 57.0973 52.8677 58.9341C55.4831 60.7708 56.7742 62.0296 57.1137 62.3695C57.4532 62.7095 57.759 63.2538 59.6955 63.2538C63.3643 63.2538 62.8544 62.9816 63.2961 62.7778C63.7379 62.5739 64.111 62.3695 63.9751 62.0974ZM59.4914 61.0317C59.0497 61.2019 58.4725 61.0542 58.0532 60.4987C57.6344 59.9431 57.6797 59.2628 57.9967 59.0814C57.9967 59.0814 58.3591 59.036 58.6196 59.0814C58.4613 59.3647 58.699 59.5691 59.1403 59.6144C59.582 59.6598 59.9327 60.5669 59.9327 60.7255C59.9327 60.884 59.9327 60.8615 59.4914 61.0317Z" fill="#FFD700"/>
    <path d="M20.4121 52.8402C21.431 51.1395 23.6202 44.9433 24.1296 42.1199C24.1728 41.7985 24.2996 41.9597 24.2996 41.9597C24.2996 41.9597 23.8242 44.3407 24.5714 46.0077C25.3185 47.6747 25.4747 48.714 25.4747 48.714C25.6619 49.6362 25.7482 50.2799 25.774 50.7706H26.7817C26.5622 49.187 25.9267 46.8794 26.1247 44.7658C26.3853 41.983 28.094 39.5397 28.094 39.5397V34.6801C27.5383 34.8706 26.8982 35.0282 26.1683 35.1906C23.1112 35.871 22.7035 35.871 21.4465 38.014C20.6653 39.5449 20.5635 41.0944 20.0877 42.1903C19.6123 43.2862 18.2535 45.5312 17.6759 50.3615C15.4 51.9603 13.4635 54.5456 12.3769 55.804C11.2898 57.0627 9.52337 58.8312 9.52337 58.8312C9.18388 59.1375 8.91211 59.1375 8.36858 58.8312C7.82505 58.5249 7.65509 58.185 7.04383 58.185C6.70434 58.185 6.94203 58.3211 6.43258 58.3211C5.75317 58.3211 5.27779 58.3211 5.27779 58.6273C5.27779 58.9336 5.78725 59.061 5.78725 59.061C5.31187 59.061 5.07376 59.0355 4.83607 59.4779C4.59839 59.9202 3.85081 60.8045 3.85081 60.8045C3.54497 61.3146 3.85082 61.8589 4.49615 61.995C3.78266 62.1652 3.47725 62.5051 2.62787 62.3349C1.7785 62.1648 1.20132 61.8248 1.06544 62.0969C0.929559 62.3691 1.30313 62.573 1.74485 62.7773C2.18658 62.9812 1.67713 63.2533 5.34552 63.2533C7.28195 63.2533 7.58737 62.709 7.92729 62.3691C8.26721 62.0291 9.55787 60.7703 12.1733 58.9336C14.7883 57.0968 19.3932 54.5409 20.4121 52.8402ZM6.9869 60.4986C6.56803 61.0541 5.99042 61.2015 5.5487 61.0317C5.10697 60.8619 5.10697 60.8844 5.10697 60.7254C5.10697 60.5669 5.45811 59.6597 5.8994 59.6144C6.34113 59.569 6.57882 59.3651 6.42007 59.0813C6.68062 59.036 7.04297 59.0813 7.04297 59.0813C7.36046 59.2628 7.40576 59.9431 6.9869 60.4986Z" fill="#FFD700"/>
    <path d="M41.5696 60.3146C41.8073 55.3482 39.4973 52.7089 39.3619 52.0626C39.3334 51.9266 39.3079 51.7875 39.2894 51.635H38.4025C38.921 54.7629 40.7065 64.8477 40.7065 64.8477H24.2574C24.2574 64.8477 26.3163 55.1115 26.8262 52.0294C26.8456 51.9119 26.8512 51.7771 26.8516 51.635H25.768V51.4708C25.7499 51.6907 25.7171 51.879 25.6787 52.0626C25.5428 52.7089 23.2328 55.3482 23.471 60.3146C17.2885 58.1375 11.5845 58.8887 9.90602 60.6688C8.44022 62.2231 8.09728 64.7393 10.4974 66.8711C11.9468 68.005 13.8945 69.275 29.4748 70.3182C28.7501 71.2254 28.9313 71.9511 28.6595 72.2686C28.3877 72.5861 28.0707 73.584 28.8407 73.085C29.6107 72.5861 31.5355 71.4068 32.5207 71.4068C33.506 71.4068 35.4308 72.5861 36.2008 73.085C36.9708 73.584 36.6537 72.5861 36.3819 72.2686C36.1102 71.9511 36.2914 71.2254 35.5666 70.3182C51.147 69.275 53.0946 68.005 54.544 66.8711C56.9446 64.7393 56.6012 62.2231 55.1359 60.6688C53.4561 58.8887 47.7521 58.1375 41.5696 60.3146Z" fill="#FFD700"/>
    <path d="M56.5616 54.8221C56.6047 54.8303 56.6474 54.8385 56.6906 54.8467C56.7078 54.8148 56.735 54.8307 56.7591 54.8325C56.9364 54.8428 57.1137 54.8515 57.291 54.8644C57.6279 54.8891 57.9644 54.9163 58.3009 54.9422C58.3664 54.9452 58.404 54.9249 58.3932 54.8484C58.3841 54.7862 58.385 54.7227 58.3815 54.6601C58.3306 54.2899 58.3078 53.9171 58.278 53.5452C58.2642 53.3733 58.2508 53.2013 58.237 53.0294C58.1887 52.6743 58.1659 52.3171 58.1684 51.9551C58.3259 52.3305 58.4833 52.7059 58.6408 53.0808C58.6438 53.0895 58.6468 53.0985 58.6494 53.1072C58.74 53.2873 58.8181 53.473 58.8871 53.6622C59.0523 54.0493 59.2175 54.4368 59.3828 54.8238C59.3905 54.8433 59.3983 54.8627 59.4061 54.8821C59.4397 54.9958 59.5195 55.0303 59.6317 55.0264C59.705 55.0238 59.7788 55.0385 59.8521 55.0459C59.9949 55.0415 60.1368 55.0523 60.2787 55.0657C60.3223 55.0696 60.1351 54.2649 60.1674 54.1629C60.2149 54.2649 60.4586 55.0826 60.6126 55.0826C60.7541 55.0826 60.7942 55.0929 60.9344 55.1176C61.2873 55.1253 61.6388 55.1482 61.9895 55.1884C62.1397 55.1824 61.3472 53.1784 61.4952 53.2035C61.9123 54.2744 62.8424 55.2299 63.0443 55.2571C63.2198 55.2675 63.3954 55.2774 63.571 55.2878C63.747 55.3003 63.923 55.3128 64.099 55.3253C64.265 55.3288 64.4311 55.3336 64.5955 55.3603C64.7827 55.3547 64.9682 55.3763 65.1537 55.3932C65.469 55.4139 65.7852 55.4217 66.0997 55.461C66.2019 55.4316 66.3054 55.4955 66.4068 55.4545C66.3464 55.4243 66.286 55.394 66.2252 55.3638C65.8628 55.1906 65.557 54.9448 65.296 54.6411C65.1869 54.5374 65.0902 54.4234 65.0126 54.2938C64.9449 54.2195 64.8884 54.1374 64.8413 54.0489C64.7538 53.9357 64.674 53.8178 64.617 53.686C64.5532 53.6031 64.5053 53.5106 64.4596 53.4165C64.3837 53.3119 64.3207 53.1996 64.2689 53.0813C64.0791 52.727 63.9501 52.3508 63.8574 51.9611C63.7422 51.5862 63.6646 51.2026 63.5977 50.8164C63.5576 50.6514 63.5205 50.486 63.5024 50.3166C63.4243 49.9283 63.3458 49.5395 63.2677 49.1512C63.1711 48.7762 63.0744 48.4013 62.9778 48.0259C62.9278 47.8825 62.8773 47.739 62.8277 47.5956C62.7401 47.3438 62.7406 47.3438 62.4787 47.3408C62.4572 47.3403 62.436 47.3334 62.4144 47.3295C62.0586 47.3472 61.7022 47.3425 61.3459 47.3373C61.1673 47.339 60.9892 47.3403 60.8106 47.3421C60.6523 47.3446 60.494 47.3554 60.3357 47.3382C60.1377 47.3606 59.9392 47.3455 59.7412 47.3485C59.3948 47.3472 59.048 47.3455 58.7016 47.3442C58.5148 47.3589 58.3281 47.3624 58.1408 47.3451C57.9631 47.3615 57.785 47.3598 57.6072 47.3485C57.4291 47.3654 57.2505 47.3611 57.0719 47.3533C56.8937 47.3546 56.716 47.3559 56.5379 47.3572C56.5202 47.3554 56.5029 47.3542 56.4852 47.3524C56.3515 47.3662 56.2173 47.3658 56.0836 47.355C55.8783 47.358 55.6734 47.3611 55.4681 47.3641C55.4038 47.4431 55.4594 47.5438 55.4202 47.6272C55.4262 48.0034 55.4327 48.3792 55.4387 48.7555C55.4478 48.908 55.4568 49.06 55.4659 49.2125C55.4879 49.4138 55.5099 49.6147 55.5315 49.816C55.5345 49.8523 55.5375 49.8885 55.5405 49.9248C55.5699 50.0691 55.5927 50.2138 55.5966 50.3611C55.6376 50.5425 55.6648 50.7261 55.6807 50.911C55.7489 51.2812 55.8175 51.6514 55.8856 52.0212C55.9184 52.1879 55.9512 52.3542 55.984 52.521C56.0741 52.9123 56.1647 53.3041 56.2549 53.6955C56.2682 53.7456 56.2808 53.7962 56.2946 53.8458C56.3839 54.1715 56.4507 54.5029 56.5616 54.8221Z" fill="#FFD700"/>
    <path d="M56.1827 28.5595C56.1228 28.5482 56.0624 28.5366 56.0024 28.5253C55.9519 28.5629 55.8894 28.556 55.8324 28.5668C55.5879 28.6139 55.5007 28.7202 55.5119 28.9668C55.537 29.1305 55.562 29.2938 55.587 29.4575C55.6685 29.8428 55.7207 30.2334 55.7824 30.6217C55.8074 30.7867 55.8324 30.9517 55.8575 31.1163C55.9338 31.499 55.9964 31.8844 56.046 32.2714C56.1128 32.6187 56.1724 32.9669 56.2146 33.3185C56.2621 33.5194 56.297 33.722 56.3139 33.928C56.3846 34.2758 56.4403 34.6256 56.4851 34.9777C56.5317 35.1777 56.5654 35.3794 56.5835 35.5842C56.6068 35.6352 56.6119 35.6887 56.6089 35.7436C56.6499 35.8805 56.6637 36.0226 56.6818 36.1639C56.7103 36.3384 56.7392 36.5129 56.7677 36.6879C56.7966 36.8719 56.8255 37.0559 56.8544 37.2395C56.8673 37.2659 56.8772 37.2922 56.8665 37.322C56.9057 37.4754 56.9329 37.6309 56.9419 37.7894C56.9833 37.9618 57.0123 38.1359 57.0278 38.3125C57.1024 38.6719 57.1559 39.0344 57.2072 39.3976C57.2392 39.5968 57.2711 39.7955 57.303 39.9946C57.363 40.3549 57.4225 40.7152 57.4825 41.0754C57.5118 41.2672 57.5411 41.459 57.5704 41.6508C57.6472 42.0167 57.7007 42.3865 57.7538 42.7562C57.7883 42.939 57.8263 43.1213 57.8388 43.3074C57.8875 43.488 57.9074 43.6737 57.9332 43.8582C57.9673 44.0297 58.0036 44.2008 58.0126 44.3761C58.0419 44.4306 58.0463 44.4686 57.9669 44.4807C57.8457 44.4993 57.7257 44.526 57.6054 44.5489C57.4143 44.6185 57.2232 44.688 57.0321 44.7576C56.8203 44.863 56.6232 44.9926 56.429 45.1269C56.4144 45.1399 56.3993 45.1533 56.3846 45.1662C56.0757 45.4353 55.8437 45.7606 55.6789 46.1347C55.6495 46.2353 55.6202 46.3356 55.5917 46.4362C55.581 46.4738 55.5667 46.5148 55.628 46.523C55.8061 46.5084 55.9847 46.5122 56.1633 46.5183C56.3208 46.5127 56.4782 46.5049 56.6357 46.5205C56.8345 46.4997 57.0338 46.5127 57.2327 46.5114C57.3992 46.5127 57.5653 46.514 57.7318 46.5153C58.0903 46.4989 58.4487 46.495 58.8072 46.5101C58.9936 46.4924 59.1799 46.4967 59.3667 46.5058C59.5453 46.4945 59.7239 46.4842 59.9025 46.504C60.0802 46.4859 60.2583 46.4898 60.4365 46.501C60.7928 46.4803 61.1496 46.4885 61.5059 46.4932C61.6564 46.4937 61.807 46.4941 61.9579 46.4945C62.074 46.4885 62.1905 46.4829 62.3138 46.4764C62.2694 46.3991 62.2332 46.3356 62.1969 46.2725C62.1667 46.231 62.1361 46.1896 62.1059 46.1477C61.9588 45.9788 61.8117 45.8094 61.665 45.6405C61.502 45.5032 61.3394 45.3658 61.1763 45.2284C60.8791 45.0327 60.5668 44.8651 60.2411 44.7226C60.0211 44.6552 59.8015 44.5882 59.5815 44.5208C59.4983 44.5049 59.415 44.4889 59.3313 44.4733C58.9094 44.4703 58.8827 44.4478 58.8434 44.0591C58.8426 44.0509 58.8452 44.0418 58.8465 44.0336C58.7723 43.6673 58.7162 43.2984 58.664 42.9286C58.6256 42.7463 58.5898 42.5636 58.5768 42.3774C58.5548 42.3333 58.5501 42.2867 58.5527 42.2383C58.529 42.1001 58.5048 41.9614 58.4811 41.8232C58.4539 41.65 58.4272 41.4772 58.4 41.3039C58.3275 40.9286 58.2628 40.5519 58.2171 40.1722C58.1765 40.0003 58.1463 39.8266 58.1321 39.6504C58.0557 39.2745 57.9941 38.8966 57.9475 38.516C57.9043 38.3436 57.8785 38.1687 57.8616 37.992C57.7857 37.6171 57.724 37.2399 57.677 36.8602C57.6343 36.6792 57.6054 36.4961 57.5873 36.3112C57.5122 35.9449 57.4548 35.5756 57.4061 35.2049C57.3384 34.849 57.2767 34.4922 57.2327 34.1323C57.1852 33.9405 57.1581 33.7457 57.1348 33.55C57.077 33.1915 57.0196 32.833 56.9618 32.4744C56.9139 32.2835 56.8906 32.0887 56.8634 31.8947C56.8514 31.8122 56.8393 31.7297 56.8272 31.6472C56.8104 31.5548 56.794 31.4619 56.7772 31.3694C56.7478 31.1776 56.7185 30.9863 56.6887 30.7945C56.6408 30.6122 56.6206 30.4251 56.5921 30.2394C56.5882 30.2031 56.5839 30.1668 56.58 30.1305C56.5412 29.9858 56.5205 29.8377 56.5058 29.6886C56.4692 29.5063 56.4334 29.324 56.4191 29.1383C56.4066 29.0839 56.3885 29.0303 56.3833 28.9754C56.3665 28.8122 56.3303 28.6597 56.1827 28.5595Z" fill="#FFD700"/>
    <path d="M3.11294 30.0908C2.97878 26.2277 3.67847 22.3282 5.08043 18.6923C6.50439 15.0625 8.66643 11.7099 11.4074 8.90771C14.1384 6.09471 17.4556 3.8519 21.0731 2.31797C24.6958 0.789215 28.6295 0.0125272 32.561 0C36.493 0.0107993 40.4262 0.790079 44.0493 2.31667C47.6664 3.8519 50.9845 6.09298 53.7155 8.90685C56.4565 11.7095 58.6189 15.062 60.0429 18.6919C61.4444 22.3282 62.1441 26.2277 62.0091 30.0912L61.9271 28.6463L61.7762 27.2091C61.7153 26.7318 61.6355 26.257 61.5665 25.7819C61.4871 25.308 61.3802 24.8389 61.2883 24.3684C60.8716 22.4941 60.2707 20.666 59.4985 18.9182C57.9736 15.4141 55.7628 12.2296 53.0521 9.57165C50.3306 6.92582 47.1207 4.78842 43.6132 3.37068C40.1156 1.93394 36.3398 1.19613 32.561 1.20434C28.7822 1.1944 25.0068 1.93481 21.508 3.36939C18.0009 4.78799 14.7898 6.92452 12.0687 9.57079C9.35792 12.2287 7.14713 15.4132 5.62223 18.9178C4.85008 20.6656 4.24917 22.4941 3.8329 24.3684C3.74145 24.8393 3.63404 25.3084 3.55509 25.7823C3.48608 26.2575 3.4067 26.7322 3.34545 27.2095L3.19447 28.6467L3.11294 30.0908Z" fill="#FFD700"/>
    <path d="M33.6981 43.6033C33.8146 43.596 33.9172 43.5791 34.0061 43.5536C34.095 43.5282 34.1696 43.4906 34.2291 43.4413C34.2891 43.3921 34.3339 43.3299 34.365 43.2543C34.3956 43.1787 34.4112 43.0875 34.4112 42.98C34.4112 42.8906 34.3943 42.8132 34.3616 42.7463C34.3283 42.6798 34.2822 42.6249 34.2235 42.5821C34.1648 42.5394 34.095 42.507 34.0152 42.4858C33.9354 42.4646 33.8491 42.4543 33.7572 42.4543C33.6968 42.4543 33.6515 42.459 33.6218 42.469C33.5916 42.4785 33.5765 42.5061 33.5765 42.5515V44.9018C33.5765 44.9381 33.5583 44.9593 33.5221 44.9653C33.4962 44.9696 33.4682 44.974 33.4376 44.9779C33.4065 44.9817 33.3763 44.9848 33.347 44.9869C33.3176 44.9891 33.29 44.9908 33.2654 44.9912C33.2404 44.9921 33.2219 44.9925 33.2102 44.9925C33.174 44.9925 33.1559 44.9735 33.1559 44.936V42.6625C33.1559 42.5869 33.139 42.5363 33.1058 42.5117C33.073 42.4867 33.0299 42.4746 32.9768 42.4746C32.9471 42.4746 32.9139 42.4767 32.8776 42.4815L32.8643 42.3566C33.0152 42.3307 33.1714 42.3096 33.3336 42.2923C33.4962 42.2746 33.6619 42.2659 33.8305 42.2659C33.903 42.2659 33.9794 42.269 34.0592 42.275C34.139 42.2811 34.2175 42.2923 34.2943 42.3091C34.3715 42.326 34.4448 42.3489 34.5143 42.3782C34.5833 42.4076 34.6445 42.4461 34.6963 42.494C34.7485 42.5415 34.7899 42.599 34.821 42.6664C34.8516 42.7338 34.8671 42.8132 34.8671 42.9053C34.8671 43.0037 34.8525 43.0901 34.8227 43.1649C34.7934 43.2396 34.7524 43.3057 34.7006 43.3631C34.6484 43.4206 34.5876 43.4698 34.5181 43.5104C34.4491 43.5511 34.3741 43.586 34.2938 43.6145V43.6279C34.3318 43.6357 34.3728 43.6474 34.4163 43.6634C34.4599 43.6793 34.5026 43.7018 34.544 43.7312C34.5859 43.7606 34.6243 43.7981 34.6596 43.8435C34.695 43.8889 34.723 43.9446 34.7446 44.0115L34.912 44.5303C34.9348 44.6016 34.9556 44.6582 34.9745 44.7005C34.9935 44.7429 35.0134 44.7748 35.0345 44.7969C35.0561 44.8189 35.0798 44.8331 35.107 44.8401C35.1341 44.847 35.1682 44.8504 35.2088 44.8504L35.2157 44.9679C35.1872 44.974 35.1557 44.9796 35.1216 44.9852C35.088 44.9904 35.0543 44.9947 35.0211 44.9977C34.9879 45.0008 34.9581 45.0033 34.9318 45.0059C34.9055 45.0085 34.8857 45.0094 34.8719 45.0094C34.8236 45.0094 34.7804 45.0038 34.7425 44.9921C34.7049 44.9809 34.6708 44.9614 34.6407 44.9334C34.6109 44.9053 34.5837 44.8686 34.5604 44.8223C34.5367 44.7766 34.5156 44.7187 34.4961 44.6491L34.3352 44.0962C34.3124 44.0176 34.2856 43.9549 34.2541 43.9079C34.2222 43.8612 34.1825 43.8254 34.1355 43.8003C34.0881 43.7752 34.0307 43.7588 33.9634 43.7502C33.8965 43.742 33.815 43.7364 33.7205 43.7333L33.6981 43.6033Z" fill="#FFD700"/>
    <path d="M36.1427 43.7441C36.2635 43.7351 36.3701 43.7169 36.4633 43.6897C36.556 43.6625 36.6341 43.6228 36.6975 43.5705C36.7605 43.5182 36.8088 43.4526 36.8411 43.3722C36.8735 43.2923 36.8895 43.1947 36.8895 43.0798C36.8895 42.98 36.8731 42.8906 36.8398 42.8124C36.8066 42.7338 36.7605 42.6677 36.7022 42.6141C36.6431 42.5601 36.5724 42.5195 36.4904 42.4914C36.4085 42.4638 36.3183 42.4495 36.22 42.4495C36.1522 42.4495 36.1009 42.4538 36.0664 42.462C36.0315 42.4702 36.0142 42.4992 36.0142 42.5493V44.9023C36.0142 44.9385 35.9961 44.9597 35.9598 44.9658C35.934 44.9701 35.9059 44.9744 35.8753 44.9783C35.8442 44.9822 35.814 44.9852 35.7847 44.9874C35.7554 44.9895 35.7278 44.9912 35.7032 44.9917C35.6782 44.9925 35.6596 44.993 35.648 44.993C35.6117 44.993 35.5936 44.974 35.5936 44.9364V42.6677C35.5936 42.5908 35.5768 42.5398 35.5436 42.5147C35.5108 42.4897 35.4676 42.4772 35.4146 42.4772C35.3848 42.4772 35.3516 42.4793 35.3154 42.4841L35.302 42.3592C35.4349 42.3363 35.5789 42.3152 35.7342 42.2957C35.8895 42.2763 36.0647 42.2664 36.2592 42.2664C36.3485 42.2664 36.4374 42.2707 36.5262 42.2789C36.6155 42.2875 36.7001 42.3018 36.7812 42.3234C36.8618 42.3445 36.9373 42.3726 37.0072 42.4072C37.0775 42.4422 37.1384 42.4867 37.1897 42.5411C37.2406 42.5955 37.2811 42.6599 37.3105 42.7351C37.3398 42.8102 37.3549 42.897 37.3549 42.9968C37.3549 43.1541 37.3217 43.2871 37.2557 43.396C37.1893 43.5044 37.1008 43.5934 36.9908 43.6621C36.8804 43.7307 36.7536 43.7817 36.6104 43.815C36.4671 43.8482 36.3183 43.8681 36.1647 43.8737L36.1427 43.7441Z" fill="#FFD700"/>
</svg>