<?xml version="1.0" encoding="utf-8"?>
<!-- Generator: Adobe Illustrator 22.1.0, SVG Export Plug-In . SVG Version: 6.00 Build 0)  -->
<svg version="1.1" id="Слой_1" xmlns="http://www.w3.org/2000/svg" xmlns:xlink="http://www.w3.org/1999/xlink" x="0px" y="0px"
	 viewBox="0 0 28.3 28.3" style="enable-background:new 0 0 28.3 28.3;" xml:space="preserve">
<style type="text/css">
	.st0{fill:#FCD505;}
	.st1{fill:#585757;}
	.st2{fill:#FEFEFD;}
</style>
<g>
	<path class="st0" d="M12.4,14.1c0-0.1,0.1-0.2,0.1-0.3c0.1-0.2,0.3-0.5,0.4-0.7c0.2-0.3,0.4-0.5,0.6-0.8c0.3-0.3,0.5-0.6,0.8-0.8
		c0,0,0.1,0,0.1-0.1c0.2-0.1,0.1-0.3,0.1-0.5c0-0.2-0.1-0.4-0.1-0.6c0-0.2-0.1-0.4-0.2-0.6c0-0.2-0.1-0.4-0.2-0.7
		c-0.1-0.3-0.2-0.7-0.3-1c-0.1-0.2-0.2-0.5-0.2-0.7c-0.1-0.3-0.2-0.5-0.3-0.8c-0.1-0.3-0.2-0.6-0.4-0.8c-0.1-0.3-0.3-0.5-0.4-0.8
		c-0.2-0.4-0.5-0.9-0.8-1.3c-0.2-0.3-0.4-0.5-0.5-0.8c-0.4-0.5-0.8-1-1.2-1.5C9.9,1.4,9.8,1.3,9.7,1.2c0,0,0,0,0-0.1c0,0,0,0,0.1,0
		C10.5,1,11.3,1,12.1,1c0.1,0,0.1,0,0.2,0.1c0.2,0.2,0.5,0.5,0.7,0.7c0.2,0.2,0.4,0.5,0.6,0.7c0.2,0.3,0.4,0.5,0.6,0.8
		c0.3,0.3,0.5,0.7,0.7,1c0.2,0.2,0.3,0.5,0.5,0.7c0.2,0.4,0.4,0.7,0.6,1.1c0.1,0.2,0.2,0.4,0.3,0.5c0.2,0.4,0.4,0.8,0.6,1.2
		c0.2,0.4,0.3,0.7,0.4,1.1c0.1,0.1,0.1,0.3,0.2,0.4c0.1,0.1,0.2,0.1,0.3,0.1C18,9.3,18.3,9.1,18.5,9c0.3-0.1,0.6-0.2,0.8-0.3
		c0.5-0.2,1.1-0.1,1.6-0.1c0.2,0,0.4,0.1,0.6,0.1C21.8,8.8,22,8.9,22.2,9c0.4,0.2,0.7,0.6,1,0.9c0.2,0.2,0.4,0.5,0.6,0.8
		c0.2,0.3,0.4,0.7,0.6,1c0.2,0.3,0.4,0.7,0.5,1c0.2,0.4,0.4,0.8,0.5,1.3c0.1,0.2,0.1,0.5,0.2,0.8c0,0.2,0.1,0.4,0.1,0.6
		c0,0.1,0,0.2,0.1,0.3c0.1,0.2,0.1,0.5,0.2,0.7c0,0.2,0.1,0.3,0.1,0.5c0.1,0.4,0.1,0.7,0.2,1.1c0.1,0.4,0.1,0.8,0.1,1.2
		c0,0.7,0,1.4,0,2.2c0,0.1,0,0.2,0,0.3c0,0.1,0,0.1-0.1,0.1c-0.5,0-1.1,0.1-1.6,0.1c-0.3,0-0.6,0.1-1,0.1c-0.4,0-0.7,0.1-1.1,0.2
		c-0.3,0.1-0.7,0.1-1,0.2c-0.4,0.1-0.8,0.2-1.2,0.2c-0.3,0.1-0.7,0.1-1,0.2c-0.3,0.1-0.6,0.2-1,0.2c-0.3,0.1-0.5,0.1-0.8,0.2
		c-0.2,0-0.4,0.1-0.5,0.1c-0.1,0-0.2,0.1-0.3,0.1c-0.2,0-0.5,0.1-0.7,0.2c-0.2,0.1-0.4,0.1-0.6,0.2c-0.2,0.1-0.4,0.1-0.6,0.2
		c-0.2,0.1-0.3,0.1-0.5,0.2c-0.1,0-0.2,0.1-0.3,0.1c0,0,0,0,0-0.1c0.1-0.3,0.1-0.5,0.2-0.8c0.1-0.6,0.3-1.2,0.4-1.8
		c0.1-0.4,0.2-0.9,0.4-1.3c0.2-0.5,0.3-1.1,0.5-1.6c0.2-0.5,0.4-1,0.5-1.5c0.1-0.5,0.3-0.9,0.4-1.4c0.1-0.2,0.1-0.5,0-0.7
		c-0.1-0.3-0.3-0.4-0.6-0.5c-0.6-0.3-1.3-0.4-2-0.5c-0.4-0.1-0.8-0.1-1.2-0.1C12.7,14.1,12.5,14.1,12.4,14.1z M23.7,21.6
		c0,0.1,0,0.1,0,0.2c0,0,0,0,0,0c0,0,0,0,0,0c0-0.1,0-0.1,0-0.2c0-0.2,0.1-0.5,0.1-0.7c0-0.4,0.1-0.8,0.1-1.2c0-0.1,0-0.2,0-0.3
		c0-0.4,0-0.8,0-1.2c0-0.3,0-0.7,0-1c0-0.4-0.1-0.7-0.1-1.1c0-0.3-0.1-0.7-0.2-1c0-0.1,0-0.3,0-0.4c0-0.2-0.1-0.4-0.1-0.5
		c-0.1-0.2-0.1-0.4-0.2-0.6c-0.1-0.2-0.1-0.4-0.2-0.6c0-0.2-0.1-0.3-0.1-0.5c-0.1-0.4-0.2-0.7-0.4-1c-0.2-0.4-0.3-0.7-0.6-1
		c-0.3-0.3-0.6-0.5-1-0.5c-0.3,0-0.7,0-1.1,0c-0.3,0.1-0.6,0.2-1,0.3c-0.3,0.1-0.5,0.2-0.8,0.3c-0.2,0.1-0.4,0.2-0.7,0.3
		c-0.2,0.1-0.4,0.2-0.6,0.3c-0.2,0.1-0.4,0.3-0.6,0.4c0,0-0.1,0.1-0.1,0c0,0,0-0.1,0-0.1c0-0.3,0-0.6-0.1-0.8
		C16,10.4,16,10,15.9,9.6c-0.1-0.2-0.1-0.4-0.1-0.6c-0.1-0.2-0.1-0.4-0.2-0.7c-0.1-0.2-0.2-0.5-0.2-0.7c-0.1-0.3-0.3-0.6-0.4-0.8
		c-0.2-0.5-0.4-0.9-0.7-1.4c-0.2-0.3-0.4-0.6-0.6-0.9c-0.1-0.2-0.3-0.5-0.5-0.7c-0.1-0.2-0.3-0.4-0.4-0.6c-0.1-0.2-0.3-0.4-0.4-0.5
		c0-0.1,0-0.1,0-0.1c0.1,0,0.2,0,0.2,0c0,0,0.1,0,0.1,0.1c0.1,0.2,0.3,0.5,0.4,0.7c0.1,0.2,0.3,0.4,0.4,0.6c0.2,0.4,0.4,0.8,0.6,1.1
		c0.2,0.4,0.4,0.7,0.6,1.1c0.2,0.2,0.3,0.5,0.4,0.7c0.2,0.3,0.3,0.6,0.5,0.8C15.7,7.9,15.9,8,16,8.2c0.1,0.2,0.2,0.4,0.4,0.6
		c0.1,0.2,0.2,0.4,0.3,0.6c0.1,0.2,0.2,0.3,0.3,0.5c0,0,0-0.1,0-0.1c-0.1-0.3-0.2-0.5-0.3-0.8c-0.1-0.2-0.2-0.4-0.3-0.5
		C16.2,8.2,16.1,8,16,7.8c-0.1-0.2-0.3-0.5-0.4-0.7c-0.2-0.4-0.4-0.7-0.6-1.1c-0.2-0.3-0.3-0.6-0.5-0.9c-0.2-0.3-0.4-0.7-0.6-1
		c-0.2-0.3-0.4-0.6-0.6-0.9C13.2,3,13,2.8,12.9,2.6c-0.1-0.1-0.1-0.1-0.2-0.1c-0.2,0-0.4,0-0.7,0c0,0-0.1,0-0.1,0c0,0,0,0.1,0,0.1
		c0.2,0.2,0.3,0.4,0.5,0.7c0.1,0.2,0.3,0.4,0.4,0.6c0.3,0.4,0.5,0.9,0.8,1.3c0.2,0.3,0.3,0.7,0.5,1c0.2,0.5,0.4,1,0.6,1.5
		c0.1,0.3,0.2,0.7,0.3,1c0,0.2,0.1,0.3,0.1,0.5c0,0.2,0.1,0.4,0.1,0.5c0.1,0.3,0.1,0.5,0.2,0.8c0.1,0.3,0.2,0.6,0.3,0.9
		c0.1,0.2,0.1,0.3,0.2,0.5c0.1,0.1,0.1,0.1,0,0.2c-0.2,0.1-0.3,0.3-0.5,0.4c-0.3,0.3-0.6,0.6-0.8,0.9c-0.1,0.1-0.1,0.1-0.1,0.2
		c0,0,0,0.1,0,0.1c0,0,0.1,0,0.1,0c0,0,0,0,0.1-0.1c0.2-0.2,0.5-0.3,0.7-0.5c0.2-0.2,0.4-0.3,0.6-0.5c0.2-0.2,0.5-0.3,0.7-0.5
		c0.3-0.2,0.5-0.3,0.7-0.5c0.3-0.2,0.6-0.3,0.8-0.4c0.4-0.2,0.8-0.4,1.2-0.5c0.3-0.1,0.7-0.2,1-0.2c0.4,0,0.8,0,1.1,0.3
		c0.2,0.1,0.3,0.3,0.4,0.5c0.1,0.2,0.2,0.4,0.3,0.6c0.1,0.3,0.2,0.6,0.3,0.9c0.1,0.3,0.1,0.6,0.2,0.9c0.1,0.2,0.1,0.4,0.2,0.6
		c0.1,0.4,0.1,0.9,0.2,1.3c0,0.2,0.1,0.4,0.1,0.6c0.1,0.4,0.1,0.7,0.1,1.1c0,0.2,0,0.3,0,0.5c0,0.7,0.1,1.3,0.1,2
		c0,0.1,0,0.1-0.1,0.1c-0.2,0-0.5,0-0.7,0c-0.3,0-0.7,0.1-1,0.2c-0.3,0.1-0.6,0.1-0.8,0.2c-0.3,0.1-0.6,0.1-0.9,0.2
		c-0.4,0.1-0.7,0.2-1.1,0.3c-0.3,0.1-0.6,0.2-0.9,0.3c-0.2,0.1-0.5,0.2-0.7,0.3c-0.3,0.1-0.5,0.3-0.8,0.4c-0.2,0.1-0.4,0.2-0.5,0.3
		c-0.2,0.1-0.4,0.3-0.5,0.5c0,0,0,0.1,0,0.1c0,0,0.1,0,0.1,0c0.1,0,0.2,0,0.2-0.1c0.2-0.1,0.5-0.2,0.7-0.3c0.1,0,0.1,0,0.1,0.1
		c0,0.1,0,0.2,0,0.3c0,0.2,0,0.4,0,0.6c0,0,0,0.1,0,0.1c0,0,0,0,0-0.1c0,0,0-0.1,0-0.1c0.1-0.2,0.1-0.5,0.1-0.7
		c0-0.2,0.1-0.3,0.2-0.3c0.1,0,0.1,0,0.1,0.1c0,0.3,0,0.5,0,0.8c0,0.1,0,0.2,0,0.3c0,0,0,0.1,0.1,0.1c0,0,0,0,0-0.1
		c0-0.4,0.1-0.8,0.1-1.2c0,0,0-0.1,0-0.1c0.1,0,0.2-0.1,0.3-0.1c0,0,0.1,0,0.1,0c0,0.1,0,0.2,0,0.2c0,0.3,0,0.6,0,0.9
		c0,0,0,0.1,0.1,0.1c0,0,0,0,0-0.1c0-0.1,0-0.2,0-0.3c0-0.3,0.1-0.6,0.1-0.9c0-0.1,0-0.1,0.1-0.1c0.1,0,0.1,0.1,0.1,0.1
		c0,0.3,0,0.6,0,0.9c0,0.1,0,0.2,0.1,0.3c0.1-0.4,0.1-0.7,0.1-1.1c0-0.2,0-0.3,0.3-0.4c0,0,0,0,0,0c0.1,0,0.1,0,0.1,0.1
		c0,0.3,0,0.7,0,1c0,0,0,0.1,0,0.1c0.1,0,0.1-0.1,0.1-0.2c0-0.3,0.1-0.6,0.1-1c0-0.2,0-0.2,0.2-0.3c0.1,0,0.2,0,0.1,0.1
		c0,0.3,0,0.6,0,0.9c0,0.1,0,0.1,0.1,0.2c0.1-0.1,0-0.1,0.1-0.2c0.1-0.3,0.1-0.5,0.1-0.8c0-0.1,0-0.2,0-0.3c0,0,0-0.1,0-0.1
		c0.1,0,0.2,0,0.2-0.1c0,0,0.1,0,0.1,0c0,0.1,0,0.3,0,0.4c-0.1,0.3-0.1,0.7-0.1,1c0,0,0,0,0,0c0,0,0,0,0,0c0,0,0,0,0,0
		c0.1-0.2,0.1-0.4,0.2-0.6c0-0.3,0.1-0.5,0.1-0.8c0,0,0-0.1,0.1-0.1c0,0,0,0,0.1,0c0,0,0,0,0,0.1c0,0.1,0,0.2,0,0.3c0,0.3,0,0.6,0,1
		c0,0,0,0,0,0c0,0,0.1-0.1,0.1-0.1c0.1-0.4,0.2-0.8,0.2-1.2c0-0.2,0-0.2,0.2-0.2c0.1,0,0.1,0,0.1,0.1c0,0.3-0.1,0.6-0.1,0.8
		c0,0.1,0,0.2,0,0.3c0,0,0,0,0,0c0,0,0,0,0,0c0-0.2,0.1-0.3,0.1-0.5c0.1-0.3,0.1-0.5,0.1-0.8c0-0.1,0.1-0.1,0.1-0.1
		c0,0,0.1,0,0.1,0.1c0,0.2,0,0.3-0.1,0.5c0,0.2,0,0.4,0,0.6c0,0,0,0.1,0.1,0.1c0.1-0.1,0.1-0.3,0.1-0.4c0.1-0.3,0.1-0.5,0.1-0.8
		c0,0,0-0.1,0-0.1c0,0,0.1-0.1,0.2,0c0,0,0,0.1,0,0.1c0,0.1,0,0.2,0,0.3c-0.1,0.3-0.1,0.6-0.1,0.9c0,0,0,0.1,0,0.1c0,0,0,0,0,0
		c0.1-0.1,0.1-0.3,0.1-0.4c0.1-0.2,0.1-0.4,0.2-0.6c0-0.1,0-0.2,0.1-0.4c0-0.1,0.1-0.2,0.2-0.1c0,0,0,0,0,0.1c0,0.1,0,0.2,0,0.3
		c-0.1,0.3-0.1,0.6-0.1,0.9c0,0,0,0.1,0,0.1c0,0,0.1,0,0.1-0.1c0-0.1,0.1-0.3,0.1-0.4c0.1-0.3,0.1-0.6,0.2-1c0,0,0-0.1,0.1-0.1
		c0.1,0,0.1,0,0.2,0c0,0,0,0,0,0c0,0.1,0,0.2,0,0.4c-0.1,0.4-0.1,0.7-0.1,1.1c0,0,0,0.1,0,0.1c0.1-0.2,0.1-0.4,0.2-0.6
		c0.1-0.3,0.1-0.6,0.2-0.9c0-0.1,0.1-0.1,0.1-0.1c0.1,0,0.1,0.1,0.1,0.1c0,0,0,0,0,0.1c0,0.4-0.1,0.9-0.1,1.3c0,0,0,0.1,0,0.1
		c0,0,0.1,0,0.1-0.1c0.1-0.2,0.1-0.5,0.2-0.7c0-0.2,0.1-0.5,0.1-0.7c0-0.1,0-0.1,0.1-0.1c0.1,0,0.1,0,0.1,0.1c0,0.4,0,0.7,0,1.1
		c0,0.1,0,0.1,0,0.2C23.6,21.6,23.7,21.6,23.7,21.6z"/>
	<path class="st1" d="M12.4,14.1c0.1,0,0.2,0,0.4,0c0.4,0,0.8,0.1,1.2,0.1c0.7,0.1,1.4,0.2,2,0.5c0.2,0.1,0.4,0.3,0.6,0.5
		c0.1,0.2,0.1,0.5,0,0.7c-0.1,0.5-0.3,0.9-0.4,1.4c-0.1,0.5-0.3,1-0.5,1.5c-0.2,0.5-0.4,1.1-0.5,1.6c-0.1,0.4-0.3,0.8-0.4,1.3
		c-0.2,0.6-0.3,1.2-0.4,1.8c-0.1,0.3-0.1,0.5-0.2,0.8c0,0,0,0,0,0.1c-0.1,0.2-0.1,0.5-0.2,0.8c0,0.2-0.1,0.5-0.1,0.7
		c0,0.1,0,0.1-0.1,0.1c-1.2,0.4-2.5,0.8-3.8,1C9.2,27,8.5,27,7.7,26.8c-0.3-0.1-0.6-0.2-0.9-0.4c-0.1,0-0.1-0.1-0.1-0.2
		c-0.2-1-0.4-1.9-0.6-2.9c0,0,0-0.1,0.1-0.1c0.1-0.1,0.2-0.2,0.3-0.3c0.5-0.5,1-1,1.5-1.5c0.4-0.4,0.8-0.8,1.2-1.3
		c0.4-0.4,0.8-0.8,1.2-1.3c0.3-0.4,0.7-0.7,1-1.1c0.4-0.5,0.9-1,1.2-1.5c0.1,0,0.1,0,0.2,0c0,0,0-0.1,0-0.1c0,0,0,0,0-0.1
		c0.1-0.1,0.2-0.2,0.2-0.3c0,0,0.1,0.1,0.1,0c0,0,0-0.1,0-0.1c0-0.1,0-0.2,0-0.3c0,0,0,0,0,0c0,0,0,0,0,0c0,0,0-0.1-0.1-0.1
		c0,0-0.1,0-0.1,0.1c-0.1,0-0.1,0.1-0.2,0.2c-0.1,0.1-0.1,0.1-0.2,0.2c0-0.3,0.2-0.4,0.4-0.5c0.1-0.1,0.3,0,0.3,0.1
		c0,0.1,0.1,0.1,0,0.2c0,0.2,0,0.4-0.1,0.6c0,0.1,0,0.2,0.1,0.2c0.6-0.1,1.3-0.2,1.9-0.3c0.3-0.1,0.6-0.2,0.9-0.3
		c0.2-0.1,0.2-0.2,0-0.3c0,0-0.1,0-0.1-0.1c-0.2-0.1-0.5-0.2-0.7-0.3c-0.9-0.3-1.9-0.4-2.9-0.4c-1-0.1-2.1-0.1-3.1,0
		c-1.2,0-2.4,0.1-3.6,0.4c-0.4,0.1-0.7,0.2-1.1,0.4c-0.1,0.1-0.2,0.1-0.2,0.2c0,0.1,0.1,0.2,0.2,0.2c0.2,0.1,0.5,0.2,0.7,0.3
		C5.5,16,5.9,16,6.2,16.1c0.4,0.1,0.9,0.2,1.3,0.3c0.9,0.1,1.8,0.1,2.6,0.1c0.6,0,1.1,0,1.7,0c-0.1,0.1-0.2,0.2-0.3,0.3
		c-0.2,0.2-0.4,0.5-0.6,0.7c-0.5,0.6-1,1.1-1.5,1.7c-0.5,0.5-1,1.1-1.5,1.6c-0.5,0.6-1.1,1.1-1.6,1.7c-0.1,0.1-0.2,0.2-0.3,0.3
		c-0.2-0.7-0.3-1.4-0.5-2c-0.3-1.1-0.6-2.2-0.9-3.3c0-0.2-0.1-0.5-0.1-0.7c0-0.3-0.1-0.5-0.1-0.8c0,0,0-0.1-0.1-0.1
		c-0.2-0.2-0.2-0.5,0-0.7c0.2-0.2,0.5-0.3,0.7-0.4c0.2-0.1,0.4-0.1,0.6-0.2c0.1,0,0.2,0,0.3,0c0.1,0,0.1,0,0.1-0.1
		c0-0.1,0.1-0.2,0.1-0.3c0,0,0.1-0.1,0.1-0.1c0-0.1,0-0.2,0-0.2c0-0.1,0-0.1-0.1-0.1c-0.1,0-0.1,0.1-0.1,0.1c0,0,0,0,0,0.1
		c-0.1,0.1-0.2,0.3-0.3,0.4c-0.1-0.2-0.1-0.5,0.1-0.7c0.1-0.1,0.2-0.2,0.3-0.2c0.1,0,0.2,0.1,0.3,0.3c0.1,0.2,0.1,0.4,0,0.6
		c0,0.1,0,0.1,0.1,0.1c1.5-0.2,3-0.3,4.6-0.3C11.4,14,11.9,14.1,12.4,14.1C12.3,14.1,12.4,14.1,12.4,14.1z M14.2,18.9
		c0,0,0-0.1,0-0.1c0-0.4-0.3-0.7-0.6-0.8c-0.2,0-0.3,0-0.5,0c-0.7,0.2-1.2,0.6-1.5,1.2c-0.1,0.3-0.2,0.6-0.1,1
		c0,0.1,0.1,0.2,0.2,0.3c0.1,0.1,0.1,0,0.2-0.1c0-0.1,0-0.3,0-0.4c0.1-0.3,0.2-0.6,0.4-0.8c0.3-0.3,0.6-0.6,1-0.7
		c0.3-0.1,0.4,0.1,0.4,0.4c0,0.2-0.1,0.4-0.2,0.6c-0.2,0.3-0.5,0.7-0.7,1c-0.2,0.4-0.5,0.7-0.7,1.2c-0.1,0.2-0.1,0.5-0.1,0.7
		c0,0.1,0.1,0.1,0.1,0c0.2-0.2,0.3-0.3,0.4-0.5c0.4-0.7,0.8-1.3,1.3-2C14,19.6,14.2,19.3,14.2,18.9z M11.8,24c0,0.2,0.1,0.3,0.2,0.3
		c0.1,0,0.3,0,0.3-0.2c0.1-0.2,0.1-0.3,0.1-0.5c0-0.1-0.1-0.3-0.2-0.3c-0.1,0-0.3,0-0.3,0.2C11.8,23.7,11.8,23.8,11.8,24z"/>
	<path class="st0" d="M12.4,15.7c0.1,0,0.1-0.1,0.2-0.2c0.1-0.1,0.1-0.1,0.2-0.2c0.1,0,0.1,0,0.2,0c0,0.1,0,0.2,0,0.3c0,0,0,0,0,0
		c0,0,0,0,0,0c0,0.1-0.1,0.1-0.1,0.2c-0.1,0.1-0.2,0.2-0.2,0.3c0,0,0,0,0,0.1c-0.1,0-0.1,0.1-0.1,0.1c-0.4,0.5-0.8,1-1.2,1.5
		c-0.3,0.4-0.6,0.7-1,1.1c-0.4,0.4-0.8,0.8-1.2,1.3c-0.4,0.4-0.8,0.8-1.2,1.3c-0.5,0.5-1,1-1.5,1.5c-0.1,0.1-0.2,0.2-0.3,0.3
		c0,0-0.1,0.1-0.1,0.1c0,0-0.1,0-0.1,0.1c-0.3,0.2-0.5,0.5-0.8,0.7c-0.2,0.2-0.4,0.4-0.6,0.5c-0.1,0-0.2,0.1-0.2,0.2
		C4.2,24.9,4,25,3.8,25.1c-0.3,0.1-0.5,0.2-0.8,0.1c-0.3-0.1-0.5-0.2-0.7-0.5C2.1,24.3,2,23.9,2,23.5c0-0.2,0-0.4,0-0.6
		c0-0.4,0.1-0.7,0.2-1.1c0-0.2,0.1-0.3,0.1-0.5c0.1-0.4,0.2-0.7,0.3-1.1c0.1-0.3,0.2-0.6,0.3-0.8c0.2-0.5,0.4-0.9,0.6-1.4
		c0.1-0.3,0.3-0.5,0.4-0.8c0.1-0.2,0.2-0.4,0.3-0.5c0,0,0,0,0,0c0.1,0.2,0.1,0.5,0.1,0.7c-0.1,0.1-0.1,0.1-0.1,0.2
		c-0.1,0.2-0.2,0.3-0.2,0.5c-0.1,0.1-0.1,0.3-0.2,0.4c-0.2,0.4-0.4,0.8-0.5,1.2c-0.1,0.2-0.2,0.4-0.2,0.7c-0.1,0.2-0.1,0.3-0.2,0.5
		c-0.1,0.3-0.2,0.7-0.3,1c-0.1,0.3-0.1,0.7-0.2,1c-0.1,0.5,0,1,0.1,1.4c0.1,0.3,0.3,0.4,0.6,0.4c0.2,0,0.4-0.1,0.5-0.2
		c0.3-0.1,0.5-0.3,0.7-0.5c0.5-0.4,0.9-0.8,1.3-1.2c0,0,0,0,0-0.1c0.1-0.1,0.2-0.2,0.3-0.3c0.6-0.5,1.1-1.1,1.6-1.7
		c0.5-0.5,1-1.1,1.5-1.6c0.5-0.5,1-1.1,1.5-1.7c0.2-0.2,0.4-0.5,0.6-0.7c0.1-0.1,0.2-0.2,0.3-0.3c0.1-0.1,0.2-0.2,0.3-0.3
		C12.2,16,12.3,15.8,12.4,15.7z"/>
	<path class="st0" d="M6.1,13.9c0,0.1,0,0.1-0.1,0.1c-0.1,0.1-0.1,0.2-0.1,0.3c0,0.1-0.1,0.1-0.1,0.1c-0.1,0-0.2,0-0.3,0
		c0,0,0-0.1,0-0.1c0.1,0,0.1-0.1,0.1-0.2c0.1-0.1,0.2-0.3,0.3-0.4C6,13.7,6,13.8,6.1,13.9C6,13.9,6.1,13.9,6.1,13.9z"/>
	<path class="st2" d="M23.7,21.6c0,0-0.1,0.1-0.1,0.1c0-0.1,0-0.1,0-0.2c0-0.4,0-0.7,0-1.1c0-0.1,0-0.1-0.1-0.1
		c-0.1,0-0.1,0-0.1,0.1c0,0.2-0.1,0.5-0.1,0.7c0,0.2-0.1,0.5-0.2,0.7c0,0,0,0.1-0.1,0.1c0,0,0-0.1,0-0.1c0-0.4,0.1-0.9,0.1-1.3
		c0,0,0,0,0-0.1c0-0.1,0-0.1-0.1-0.1c-0.1,0-0.1,0-0.1,0.1c0,0.3-0.1,0.6-0.2,0.9c0,0.2-0.1,0.4-0.2,0.6c0,0,0-0.1,0-0.1
		c0-0.4,0-0.7,0.1-1.1c0-0.1,0-0.2,0-0.4c0,0,0,0,0,0c-0.1,0-0.1,0-0.2,0c-0.1,0,0,0-0.1,0.1c0,0.3-0.1,0.6-0.2,1
		c0,0.1-0.1,0.3-0.1,0.4c0,0,0,0-0.1,0.1c0,0,0-0.1,0-0.1c0-0.3,0-0.6,0.1-0.9c0-0.1,0-0.2,0-0.3c0,0,0-0.1,0-0.1
		c-0.1,0-0.2,0-0.2,0.1c0,0.1,0,0.2-0.1,0.4c0,0.2-0.1,0.4-0.2,0.6c0,0.1-0.1,0.3-0.1,0.4c0,0,0,0,0,0c0,0,0,0,0-0.1
		c0-0.3,0-0.6,0.1-0.9c0-0.1,0-0.2,0-0.3c0,0,0-0.1,0-0.1c-0.1,0-0.1,0-0.2,0c0,0,0,0.1,0,0.1c0,0.3-0.1,0.5-0.1,0.8
		c0,0.1-0.1,0.3-0.1,0.4c0,0-0.1-0.1-0.1-0.1c0-0.2,0-0.4,0-0.6c0-0.2,0-0.3,0.1-0.5c0,0,0-0.1-0.1-0.1c0,0-0.1,0-0.1,0.1
		c0,0.3-0.1,0.5-0.1,0.8c0,0.2-0.1,0.3-0.1,0.5c0,0,0,0,0,0c0,0,0,0,0,0c0-0.1,0-0.2,0-0.3c0-0.3,0-0.6,0.1-0.8c0-0.1,0-0.1-0.1-0.1
		c-0.2,0-0.2,0-0.2,0.2c-0.1,0.4-0.1,0.8-0.2,1.2c0,0,0,0.1-0.1,0.1c0,0,0,0,0,0c0-0.3,0-0.6,0-1c0-0.1,0-0.2,0-0.3c0,0,0-0.1,0-0.1
		c0,0,0,0-0.1,0c0,0-0.1,0.1-0.1,0.1c0,0.3-0.1,0.5-0.1,0.8c0,0.2-0.1,0.4-0.2,0.6c0,0,0,0,0,0c0,0,0,0,0,0c0,0,0,0,0,0
		c0-0.3,0-0.7,0.1-1c0-0.1,0-0.3,0-0.4c0-0.1,0-0.1-0.1,0c-0.1,0-0.2,0.1-0.2,0.1c0,0,0,0,0,0.1c0,0.1,0,0.2,0,0.3
		c0,0.3,0,0.5-0.1,0.8c0,0.1,0,0.2-0.1,0.2c0-0.1-0.1-0.1-0.1-0.2c0-0.3,0-0.6,0-0.9c0-0.1,0-0.1-0.1-0.1c-0.2,0-0.2,0.1-0.2,0.3
		c0,0.3,0,0.6-0.1,1c0,0.1,0,0.1-0.1,0.2c0,0,0-0.1,0-0.1c0-0.3,0-0.7,0-1c0-0.1,0-0.1-0.1-0.1c0,0,0,0,0,0c-0.2,0-0.3,0.2-0.3,0.4
		c0,0.4-0.1,0.7-0.1,1.1c-0.1-0.1-0.1-0.2-0.1-0.3c0-0.3,0-0.6,0-0.9c0,0,0-0.1-0.1-0.1c-0.1,0-0.1,0-0.1,0.1c0,0.3-0.1,0.6-0.1,0.9
		c0,0.1,0,0.2,0,0.3c0,0,0,0.1,0,0.1c0,0-0.1,0-0.1-0.1c-0.1-0.3-0.1-0.6,0-0.9c0-0.1,0-0.2,0-0.2c0-0.1,0-0.1-0.1,0
		c-0.1,0-0.2,0.1-0.3,0.1c0,0,0,0.1,0,0.1c0,0.4,0,0.8-0.1,1.2c0,0,0,0.1,0,0.1c0,0-0.1,0-0.1-0.1c0-0.1,0-0.2,0-0.3
		c0-0.3,0-0.5,0-0.8c0-0.1,0-0.1-0.1-0.1c-0.2,0-0.2,0.2-0.2,0.3c0,0.2,0,0.5-0.1,0.7c0,0,0,0.1,0,0.1c0,0,0,0.1,0,0.1
		c0,0,0,0,0-0.1c0-0.2,0-0.4,0-0.6c0-0.1,0-0.2,0-0.3c0-0.1,0-0.1-0.1-0.1c-0.2,0.1-0.5,0.2-0.7,0.3c-0.1,0-0.2,0-0.2,0.1
		c0,0-0.1,0-0.1,0c0,0,0-0.1,0-0.1c0.1-0.2,0.3-0.4,0.5-0.5c0.2-0.1,0.4-0.2,0.5-0.3c0.3-0.1,0.5-0.3,0.8-0.4
		c0.2-0.1,0.5-0.2,0.7-0.3c0.3-0.1,0.6-0.2,0.9-0.3c0.4-0.1,0.7-0.2,1.1-0.3c0.3-0.1,0.6-0.2,0.9-0.2c0.3-0.1,0.6-0.1,0.8-0.2
		c0.3-0.1,0.7-0.2,1-0.2c0.2,0,0.5,0,0.7,0c0.1,0,0.1,0,0.1-0.1c0-0.7,0-1.3-0.1-2c0-0.2,0-0.3,0-0.5c0-0.4-0.1-0.7-0.1-1.1
		c0-0.2-0.1-0.4-0.1-0.6C23,15,23,14.6,22.9,14.1c-0.1-0.2-0.1-0.4-0.2-0.6c-0.1-0.3-0.2-0.6-0.2-0.9c-0.1-0.3-0.1-0.6-0.3-0.9
		c-0.1-0.2-0.2-0.4-0.3-0.6c-0.1-0.2-0.2-0.4-0.4-0.5c-0.3-0.3-0.7-0.3-1.1-0.3c-0.3,0-0.7,0.1-1,0.2c-0.4,0.2-0.8,0.3-1.2,0.5
		c-0.3,0.1-0.6,0.3-0.8,0.4c-0.3,0.1-0.5,0.3-0.7,0.5c-0.3,0.2-0.5,0.3-0.7,0.5c-0.2,0.1-0.4,0.3-0.6,0.5c-0.2,0.2-0.4,0.3-0.7,0.5
		c0,0,0,0-0.1,0.1c0,0,0,0-0.1,0c0,0,0,0,0-0.1c0-0.1,0.1-0.2,0.1-0.2c0.3-0.3,0.5-0.6,0.8-0.9c0.2-0.1,0.3-0.3,0.5-0.4
		c0.1-0.1,0.1-0.1,0-0.2c-0.1-0.1-0.2-0.3-0.2-0.5c-0.1-0.3-0.2-0.6-0.3-0.9c-0.1-0.3-0.1-0.5-0.2-0.8c0-0.2-0.1-0.4-0.1-0.5
		c0-0.2-0.1-0.3-0.1-0.5c-0.1-0.3-0.2-0.7-0.3-1c-0.2-0.5-0.4-1-0.6-1.5c-0.2-0.3-0.3-0.7-0.5-1c-0.2-0.4-0.5-0.9-0.8-1.3
		c-0.1-0.2-0.3-0.4-0.4-0.6C12.3,3,12.1,2.8,12,2.6c0,0,0-0.1,0-0.1c0,0,0.1,0,0.1,0c0.2,0,0.4,0,0.7,0c0.1,0,0.2,0,0.2,0.1
		C13,2.8,13.2,3,13.3,3.2c0.2,0.3,0.4,0.6,0.6,0.9c0.2,0.3,0.4,0.7,0.6,1c0.2,0.3,0.3,0.6,0.5,0.9c0.2,0.4,0.4,0.7,0.6,1.1
		c0.1,0.2,0.2,0.5,0.4,0.7c0.1,0.2,0.3,0.4,0.4,0.6c0.1,0.2,0.2,0.4,0.3,0.5c0.1,0.3,0.2,0.5,0.3,0.8c0,0,0,0.1,0,0.1
		c-0.1-0.2-0.2-0.3-0.3-0.5c-0.1-0.2-0.2-0.4-0.3-0.6c-0.1-0.2-0.2-0.4-0.4-0.6c-0.1-0.2-0.2-0.3-0.3-0.5c-0.2-0.3-0.3-0.6-0.5-0.8
		c-0.1-0.2-0.3-0.5-0.4-0.7c-0.2-0.3-0.4-0.7-0.6-1.1c-0.2-0.4-0.4-0.7-0.6-1.1c-0.1-0.2-0.3-0.4-0.4-0.6c-0.1-0.2-0.3-0.5-0.4-0.7
		c0,0,0-0.1-0.1-0.1c-0.1,0-0.2,0-0.2,0c-0.1,0-0.1,0,0,0.1c0.1,0.2,0.3,0.4,0.4,0.5c0.1,0.2,0.3,0.4,0.4,0.6
		c0.2,0.2,0.3,0.5,0.5,0.7c0.2,0.3,0.4,0.6,0.6,0.9c0.2,0.4,0.4,0.9,0.7,1.4c0.1,0.3,0.3,0.6,0.4,0.8c0.1,0.2,0.2,0.5,0.2,0.7
		c0.1,0.2,0.1,0.4,0.2,0.7c0.1,0.2,0.1,0.4,0.1,0.6c0.1,0.4,0.2,0.8,0.3,1.1c0.1,0.3,0.1,0.5,0.1,0.8c0,0,0,0.1,0,0.1
		c0,0,0.1,0,0.1,0c0.2-0.1,0.4-0.3,0.6-0.4c0.2-0.1,0.4-0.2,0.6-0.3c0.2-0.1,0.4-0.2,0.7-0.3c0.2-0.1,0.5-0.2,0.8-0.3
		c0.3-0.1,0.6-0.2,1-0.3c0.3-0.1,0.7-0.1,1.1,0c0.4,0.1,0.7,0.3,1,0.5c0.3,0.3,0.5,0.6,0.6,1c0.1,0.3,0.3,0.7,0.4,1
		c0,0.2,0.1,0.3,0.1,0.5c0,0.2,0.1,0.4,0.2,0.6c0.1,0.2,0.1,0.4,0.2,0.6c0,0.2,0.1,0.4,0.1,0.5c0,0.1,0,0.2,0,0.4
		c0,0.3,0.1,0.7,0.2,1c0.1,0.4,0.1,0.7,0.1,1.1c0,0.3,0,0.7,0,1c0,0.4,0,0.8,0,1.2c0,0.1,0,0.2,0,0.3c0,0.4,0,0.8-0.1,1.2
		c0,0.2,0,0.5-0.1,0.7c0,0.1,0,0.1,0,0.2c0,0,0,0,0,0c0,0,0,0,0,0C23.7,21.7,23.7,21.6,23.7,21.6z"/>
	<path class="st2" d="M12.4,15.7c-0.1,0.2-0.3,0.3-0.4,0.5c-0.1,0.1-0.2,0.2-0.3,0.3c-0.6,0-1.1,0-1.7,0c-0.9,0-1.8,0-2.6-0.1
		c-0.4,0-0.9-0.2-1.3-0.3C5.9,16,5.5,16,5.2,15.9c-0.2-0.1-0.5-0.2-0.7-0.3c-0.1-0.1-0.2-0.1-0.2-0.2c0-0.1,0.1-0.2,0.2-0.2
		c0.3-0.2,0.7-0.3,1.1-0.4c1.2-0.3,2.4-0.4,3.6-0.4c1,0,2.1,0,3.1,0c1,0.1,1.9,0.2,2.9,0.4c0.3,0.1,0.5,0.2,0.7,0.3
		c0,0,0.1,0,0.1,0.1c0.1,0.1,0.1,0.2,0,0.3c-0.3,0.2-0.6,0.3-0.9,0.3c-0.6,0.2-1.2,0.3-1.9,0.3c-0.1,0-0.2-0.1-0.1-0.2
		c0.1-0.2,0.1-0.4,0.1-0.6c0-0.1,0-0.2,0-0.2c-0.1-0.1-0.2-0.2-0.3-0.1C12.6,15.2,12.5,15.4,12.4,15.7z"/>
	<path class="st2" d="M14.2,18.9c0,0.4-0.2,0.7-0.4,1c-0.4,0.6-0.9,1.3-1.3,2c-0.1,0.2-0.2,0.4-0.4,0.5c-0.1,0.1-0.1,0.1-0.1,0
		c-0.1-0.3,0-0.5,0.1-0.7c0.2-0.4,0.4-0.8,0.7-1.2c0.2-0.3,0.5-0.7,0.7-1c0.1-0.2,0.2-0.4,0.2-0.6c0-0.3-0.1-0.4-0.4-0.4
		c-0.4,0.1-0.8,0.3-1,0.7c-0.2,0.2-0.4,0.5-0.4,0.8c0,0.1,0,0.3,0,0.4c0,0.1-0.1,0.1-0.2,0.1c-0.1-0.1-0.2-0.2-0.2-0.3
		c-0.1-0.3,0-0.7,0.1-1c0.3-0.6,0.8-1.1,1.5-1.2c0.2,0,0.3,0,0.5,0c0.4,0.1,0.6,0.4,0.6,0.8C14.2,18.8,14.2,18.8,14.2,18.9z"/>
	<path class="st2" d="M11.8,24c0-0.2,0.1-0.3,0.1-0.5c0.1-0.1,0.2-0.2,0.3-0.2c0.1,0,0.2,0.2,0.2,0.3c0,0.2-0.1,0.3-0.1,0.5
		c0,0.1-0.2,0.2-0.3,0.2C11.8,24.3,11.8,24.2,11.8,24z"/>
	<path class="st2" d="M6.1,13.9C6.1,13.9,6,13.9,6.1,13.9C6,13.8,6,13.7,5.9,13.8c0,0,0,0,0-0.1c0-0.1,0-0.1,0.1-0.1
		c0.1,0,0.1,0.1,0.1,0.1C6.1,13.8,6.1,13.8,6.1,13.9z"/>
	<path class="st2" d="M12.5,16.3c0,0,0.1-0.1,0.1-0.1c0,0,0.1,0.1,0,0.1C12.6,16.3,12.6,16.3,12.5,16.3z"/>
	<path class="st2" d="M12.9,15.8c0-0.1,0.1-0.1,0.1-0.2c0,0,0,0,0,0c0,0,0,0,0,0C13,15.7,13,15.8,12.9,15.8
		C12.9,15.9,12.9,15.8,12.9,15.8z"/>
	<path class="st2" d="M13,15.4c-0.1,0-0.1,0-0.2,0c0,0,0.1-0.1,0.1-0.1C13,15.3,13,15.3,13,15.4C13,15.4,13,15.4,13,15.4
		C13,15.4,13,15.4,13,15.4z"/>
</g>
</svg>
