<?xml version="1.0" encoding="utf-8"?>
<!-- Generator: Adobe Illustrator 22.1.0, SVG Export Plug-In . SVG Version: 6.00 Build 0)  -->
<svg version="1.1" id="Слой_1" xmlns="http://www.w3.org/2000/svg" xmlns:xlink="http://www.w3.org/1999/xlink" x="0px" y="0px"
	 viewBox="0 0 28.3 28.3" style="enable-background:new 0 0 28.3 28.3;" xml:space="preserve">
<style type="text/css">
	.st0{fill:#5A5958;}
	.st1{fill:#FEFEFE;}
	.st2{fill:#FAD40A;}
</style>
<g>
	<path class="st0" d="M14.4,27.8c-1.1,0-2.3,0-3.4-0.1c-1.6-0.1-3.2-0.1-4.9-0.1c-0.8,0-1.5,0.1-2.3,0.1c-0.5,0-1,0.1-1.5,0
		c-0.1,0-0.1,0-0.1-0.1c0-1.4-0.1-2.9-0.3-4.3c-0.2-1.4-0.3-2.9-0.5-4.3c0-0.2,0-0.3,0-0.5c0-0.1,0.1-0.1,0.1-0.1
		c0.1,0,0.3-0.1,0.4-0.1c0.6-0.1,1.2-0.2,1.8-0.3c1-0.1,2-0.3,3-0.3c0.3,0,0.6,0,0.9-0.1c0.1,0,0.1,0,0.1-0.1
		c-0.1-0.9-0.1-1.8-0.2-2.6c-0.1-0.8-0.1-1.6-0.2-2.4C7.1,11.4,7,10.3,6.9,9.1c-0.1-1-0.2-1.9-0.3-2.9c-0.1-1-0.1-2.1-0.1-3.1
		c0-0.6-0.1-1.3-0.1-1.9c0-0.1,0-0.1,0.1-0.1c2.6-0.1,5.2-0.1,7.8-0.1c1.6,0,3.3,0.1,4.9,0.1c1,0,1.9,0,2.9,0c0.1,0,0.1,0,0.1,0.1
		c0,0.8,0,1.6,0.1,2.4c0.1,2.1,0.1,4.2,0.2,6.3c0.2,2.9,0.1,5.7,0.1,8.6c0,0.2,0,0.3,0,0.5c0,0.1,0,0.1,0.1,0.2
		c0.8,0.2,1.6,0.4,2.3,0.6c0.2,0.1,0.4,0.1,0.6,0.2c0.1,0,0.1,0,0,0.1c-0.3,0.7-0.6,1.4-0.8,2.2c-0.4,1.2-0.6,2.4-0.5,3.6
		c0,0.6,0.1,1.3,0.2,1.9c0,0,0,0.1,0,0.1c0,0.1,0,0.1-0.1,0.1c-1,0.1-2.1,0-3.1,0c-2,0-3.9,0-5.9-0.1C15.3,27.9,14.8,27.8,14.4,27.8
		z M3.7,18.4L3.7,18.4c0,0-0.1,0-0.1,0c0-0.1-0.1-0.1-0.2-0.1c-0.1,0-0.2,0-0.4,0c-0.2,0-0.2,0-0.2,0.2c0,0-0.2,0-0.1,0.1
		c0-0.1,0-0.1-0.1-0.2c0-0.1,0-0.1-0.1,0c-0.3,0-0.7,0.1-1,0.1c-0.1,0-0.1,0-0.1,0.1c0.1,0.2,0.1,0.4,0.2,0.6c0,0.2,0.1,0.3,0.1,0.5
		C1.9,20.8,2,21.9,2.2,23c0.1,0.8,0.2,1.7,0.3,2.5c0,0.6,0,1.2,0.1,1.8c0,0,0,0.1,0,0.1c0.1,0,0.1,0.1,0.1,0.1c0,0,0,0.1,0,0.1
		c0,0,0.1,0,0.1,0c0.3,0,0.5,0,0.8,0c0,0,0,0,0,0c0,0,0,0,0,0c0.1,0,0.1,0,0.2,0c0,0,0,0,0,0c0.1,0,0.1,0,0.2,0c0,0,0,0,0,0
		c0.3,0,0.6,0,0.9,0c0.1,0,0.1,0,0.1-0.1c0,0,0.1,0,0.1,0c0,0.1,0,0.1,0.1,0.1c0.1,0,0.1,0,0.2,0c0.1,0,0.1,0,0.1-0.1
		c0.1,0,0.1,0,0.2,0c0,0.2,0.1,0.1,0.2,0.1c0.1,0,0.1-0.1,0.1-0.1c0.1,0,0.2,0,0.2,0c0,0.1,0,0.1,0.1,0.1c0.2,0,0.4,0,0.5,0
		c0.1,0,0.2,0,0.2-0.1c0.1,0,0.2,0,0.3,0c0,0.1,0,0.1,0.1,0.1c0.5,0,1,0,1.5,0c0.2,0,0.2,0,0.2-0.2c0,0,0.1,0,0.1,0
		c0,0.1,0,0.1,0.1,0.1c0.1,0,0-0.1,0-0.1c0.1,0,0.2,0,0.3,0c0.1,0,0,0.1,0.1,0.1c0,0,0,0.1,0.1,0.1c0,0,0.1,0,0.1-0.1
		c0,0,0-0.1,0-0.1c0.1,0,0.1,0,0.2,0c0,0.1,0,0.1,0.1,0.1c0.2,0,0.5,0,0.7,0c0.1,0,0.1,0,0.1-0.1c0.1,0,0.1,0,0.2,0c0,0,0,0.1,0,0.1
		c0,0,0-0.1,0-0.1c0.1,0,0.2,0,0.3,0c0,0.1,0,0.1,0.1,0.1c0.4,0,0.7,0,1.1,0c0.2,0,0.2,0,0.2-0.1c0.1,0,0.2,0,0.3,0c0,0,0,0,0,0
		c0,0,0,0,0.1,0c0,0.2,0,0.2,0.2,0.1c0,0,0,0,0.1,0c0.1,0,0.2,0,0.2-0.1c0,0,0,0,0,0c0.1,0,0.1,0,0.2,0c0,0,0.1,0,0.1,0
		c0,0.1,0,0.1,0.1,0.1c0,0,0.1,0,0.1,0c0.4,0,0.9,0,1.3,0c0.1,0,0.1,0,0.1-0.1c0,0,0,0,0-0.1c0.2,0,0.4,0,0.7,0c0,0.2,0,0.2,0.2,0.2
		c0.1,0,0.2,0,0.3,0c0.2,0,0.2,0,0.2-0.2c0.1,0,0.3,0,0.4,0c0,0,0,0.1,0,0.1c0,0,0,0.1,0,0.1c0,0,0.1,0,0.1,0c0,0,0-0.1,0-0.1
		c0,0,0,0,0-0.1c0.1,0,0.2,0,0.2,0c0,0,0,0.1,0,0.1c0,0,0,0.1,0.1,0.1c0.1,0,0.2,0,0.2-0.1c0,0,0,0,0-0.1c0.1,0,0.3,0,0.4,0
		c0,0,0,0.1,0,0.1c0,0,0,0.1,0,0.1c0.1,0,0.2,0,0.3,0c0.1,0,0-0.1,0-0.2c0,0,0,0,0,0c0.2,0,0.4,0,0.6,0c0,0,0,0.1,0,0.1
		c0,0.1,0,0.1,0.1,0.1c0.1,0,0.1,0,0.1-0.1c0-0.1,0-0.1,0-0.1c0.1,0,0.1,0,0.2,0c0,0.1,0,0.1,0,0.2c0,0.1,0,0.1,0.1,0.1
		c0.2,0,0.4,0,0.6,0c0.1,0,0.1,0,0.1-0.1c0-0.1,0-0.1,0-0.2c0.1,0,0.3,0,0.4,0c0,0.1,0,0.1,0,0.2c0,0,0,0.1,0,0.1c0.1,0,0.2,0,0.3,0
		c0,0,0-0.1,0-0.1c0-0.1,0-0.1,0-0.2c0.1,0,0.2,0,0.3,0c0,0.1,0,0.1,0,0.2c0,0,0,0.1,0,0.1c0.1,0,0.1-0.1,0.1-0.1c0-0.1,0-0.1,0-0.2
		c0,0,0.1,0,0.1,0c0,0.1,0,0.1,0,0.2c0,0,0,0.1,0,0.1c0.1,0,0,0,0.1-0.1c0-0.1,0-0.2,0.1-0.2c0.1,0,0.2,0,0.2,0c0,0.1,0,0.1,0,0.2
		c0,0.1,0,0.1,0.1,0.1c0.1,0,0.2,0,0.4,0c0.1,0,0.1,0,0.1-0.1c0-0.1,0-0.2,0-0.2c0.1,0,0.1,0,0.2,0c0,0.1,0,0.1,0,0.2
		c0,0.1,0,0.1,0.1,0.1c0.3,0,0.5,0,0.8,0c0.2,0,0.2,0,0.2-0.2c0,0,0.1,0,0.1,0c0,0-0.1-0.1-0.1-0.1c0-0.1,0-0.3,0-0.4c0,0,0,0,0.1,0
		c0-0.1-0.1-0.3-0.1-0.4c0-0.1,0-0.3,0-0.4c0,0,0,0,0-0.1c0-0.3,0-0.7,0.1-1c0-0.2,0-0.2-0.1-0.2c0,0-0.1,0-0.1,0c0-0.2,0-0.4,0-0.6
		c0,0,0,0,0.1,0c0.1,0,0.2,0,0.2,0c0.1,0,0-0.1,0.1-0.2c0,0,0,0,0,0c0.1-0.3,0.1-0.6,0.2-0.9c0.1-0.3,0.2-0.6,0.3-1
		c0-0.1,0.1-0.3,0.1-0.4c0-0.1,0-0.1-0.1-0.1c-0.1,0-0.2,0-0.3,0c0-0.2,0.1-0.4,0.2-0.6c0.1,0,0.2,0,0.4,0c0.1,0,0.1,0,0.1-0.1
		c0-0.1,0.1-0.2,0.1-0.3c0.1-0.2,0.2-0.4,0.3-0.5c0.1-0.1,0.1-0.1-0.1-0.2c-0.1,0-0.2-0.1-0.3-0.1c0,0,0,0-0.1-0.1
		c-0.8-0.2-1.6-0.4-2.3-0.7c-0.1,0-0.1,0-0.1,0.1c-0.1,0-0.2,0-0.2,0c-0.1,0-0.1,0-0.1,0.1c0,0.1,0,0.2,0,0.3c0,0.3,0,0.7-0.1,1
		c0,0.1,0,0.1,0.1,0.1c0.1,0,0.2,0,0.2-0.1c0-0.1,0-0.2,0.1-0.3c0-0.1,0-0.1,0.1-0.2c0,0.3,0,0.7,0,1c0,0.1,0,0.1,0,0.2
		c0,0,0,0,0,0.1c-0.1,0.3-0.2,0.6-0.2,1c-0.1,0.3-0.1,0.6-0.2,0.9c-0.1,0.2-0.1,0.5-0.1,0.7c0,0.1,0,0.1,0.1,0.1c0.1,0,0.2,0,0.4,0
		c0.1,0,0.1,0,0.1-0.1c0-0.1,0.1-0.2,0.1-0.3c0,0.1,0,0.1,0,0.2c0,0.3,0,0.6,0,0.8c0,0,0,0,0,0.1c-0.1,0.2-0.1,0.5-0.2,0.7
		c0,0.1,0,0.2-0.1,0.2c-0.1,0-0.2,0-0.3,0c0-0.1,0-0.2,0-0.2c0.1-0.2,0.1-0.5,0.2-0.7c0-0.1,0-0.1-0.1-0.1c-0.1,0-0.2,0-0.3,0
		c-0.1,0-0.1,0-0.1,0.1c0,0.3,0,0.6-0.1,1c-0.2,0-0.4,0-0.5,0c0-0.1,0-0.1,0-0.2c0-0.2,0-0.4,0.1-0.5c0-0.1,0.1-0.3,0-0.4
		c0-0.1,0-0.2,0-0.3c0,0,0,0,0,0c0,0,0,0,0,0c0-0.1,0-0.2,0-0.2c0.2,0,0.2,0,0.2-0.2c0,0,0-0.1,0-0.1c0-0.4,0-0.8,0-1.2
		c0-0.4,0.1-0.9,0.1-1.3c0-0.1,0-0.1-0.1-0.1c-0.1,0-0.1,0.1-0.1,0.1c0,0.2,0,0.4-0.1,0.6c0,0.4-0.1,0.8-0.1,1.1c0,0,0,0,0,0
		c0,0,0,0,0-0.1c0-0.1,0-0.1,0-0.2c0,0,0,0,0,0c0-0.1,0-0.1,0-0.2c0-0.9,0-1.8,0-2.7c0-0.1,0-0.1,0-0.2c0-0.3,0-0.5,0-0.8
		c0-0.2,0-0.2-0.1-0.2c-0.6-0.1-1.2-0.2-1.8-0.3c-1.2-0.2-2.5-0.4-3.8-0.6c-0.2,0-0.2,0-0.2,0.1c0,0-0.1,0-0.1,0
		c-0.1,0-0.1,0-0.1,0.1c0,0.2,0,0.4,0,0.6c0,0.3,0,0.7,0,1c0,0.2,0,0.2,0.2,0.2c0.1,0,0,0,0,0.1c0,0.2,0,0.4,0,0.6c0,0-0.1,0-0.1,0
		c-0.1,0-0.1,0-0.1,0.1c0,0.3,0,0.5,0.1,0.8c0,0.4,0.1,0.8,0.1,1.2c0,0.4,0,0.8,0.1,1.1c0,0.2,0.1,0.5,0.1,0.7c0,0.3,0,0.3,0.3,0.3
		c0,0.3,0,0.6,0,0.9c0,0.1,0,0.1,0,0.2c-0.1,0-0.3,0-0.4,0c0-0.4-0.1-0.9-0.1-1.3c0-0.1,0-0.1-0.1-0.1c-0.3,0-0.6,0-0.8,0
		c0-0.2,0-0.4,0-0.6c0,0,0-0.1,0-0.1c0.3,0,0.5,0,0.8,0c0.1,0,0.1,0,0-0.1c0-0.3,0-0.6-0.1-0.9c-0.1-0.8-0.1-1.5-0.2-2.3
		c0-0.1-0.1-0.1-0.1-0.1c-0.1,0-0.1,0-0.1,0.1c0,0.3-0.1,0.6-0.1,0.9c-0.1,0.4-0.1,0.9-0.2,1.3c0,0.2-0.1,0.5-0.1,0.7
		c0,0,0,0.1,0,0.1c0,0,0-0.1,0-0.1c0-0.6,0-1.1-0.1-1.7c0-0.1,0-0.2,0-0.3c0-0.3,0.1-0.6,0.1-0.8c0-0.2,0-0.2-0.2-0.2
		c0-0.2,0-0.4,0-0.6c0.1,0,0.1,0,0.2,0c0.1,0,0.1,0,0.1-0.1c0.1-0.6,0.1-1.2,0.2-1.8c0-0.1,0-0.1-0.1-0.1c-0.1,0-0.3,0-0.4,0
		c0-0.2,0-0.2-0.2-0.2c-0.6-0.1-1.3-0.1-1.9-0.1c-1.1,0-2.1,0-3.2,0c-0.1,0-0.3,0-0.4,0c-0.1,0-0.2,0-0.3,0c-0.2,0-0.4,0-0.6,0
		c-0.1,0-0.1,0-0.1,0.1c0,0.2,0.1,0.4,0.1,0.6c0,0.3,0.1,0.6,0.1,0.9c0,0.3,0,0.3,0.3,0.3c0.1,0,0.1,0,0.1-0.1c0-0.4,0-0.8,0-1.2
		c0,0.1,0,0.1,0,0.2c0,0.9,0.1,1.8,0.1,2.7c0,0,0,0,0,0c0-0.3-0.1-0.5-0.1-0.8c0-0.2,0-0.2-0.2-0.2c-0.1,0-0.1,0-0.1,0.1
		c0,0.2,0.1,0.4,0.1,0.6c0.1,0.4,0.1,0.8,0.2,1.2c0.1,0.4,0.1,0.8,0.2,1.3c0,0.2,0.1,0.4,0.1,0.6c0,0.3,0.1,0.6,0.1,0.8
		c0,0.1,0.1,0.1,0.1,0.1c0.1,0,0.2,0,0.2,0c0.1,0.4,0.1,0.8,0.2,1.3c0,0,0,0,0,0c0,0,0-0.1,0-0.1c0-0.4,0-0.7,0-1.1
		c0.1,0,0.2,0,0.2,0c0,0.4,0,0.8,0,1.2c0,0,0,0.1,0,0.1c-0.2,0-0.3,0-0.5,0c0,0,0,0,0,0c-0.1,0-0.1,0-0.2,0
		c-0.1-0.3-0.1-0.5-0.2-0.8c-0.1-0.3-0.1-0.5-0.2-0.8c0-0.1-0.1-0.1-0.1-0.1c-0.2,0-0.4,0-0.7,0c0-0.2,0-0.4,0-0.6
		c0.2,0,0.4,0,0.6,0c0.1,0,0.1,0,0.1-0.1c0-0.2-0.1-0.4-0.1-0.6c-0.1-0.3-0.1-0.6-0.2-0.9C8.2,22.4,8.1,22,8,21.6
		C8,21.3,7.9,21,7.9,20.7c0-0.1,0-0.1-0.1-0.1c0-0.2,0-0.4,0-0.6c0,0,0.1-0.1,0-0.1c0-0.2-0.1-0.4-0.1-0.6c0-0.3,0-0.7-0.1-1
		c0-0.1,0-0.1-0.1-0.1c-0.2,0-0.5,0-0.7,0c0,0,0,0-0.1,0c-0.4,0-0.9,0-1.3,0.1c0,0-0.1,0-0.1,0.1c0,0-0.1,0-0.1,0
		c0-0.1-0.1-0.1-0.1-0.1c-0.3,0-0.7,0.1-1,0.1C4,18.3,4,18.3,4,18.4c0,0-0.1,0-0.1,0c0,0,0,0,0,0c0,0,0-0.1-0.1-0.1
		C3.8,18.3,3.7,18.3,3.7,18.4C3.7,18.4,3.7,18.4,3.7,18.4C3.7,18.4,3.7,18.4,3.7,18.4z M14.6,2.1C14.6,2.1,14.6,2.2,14.6,2.1
		c0,0.2,0,0.3,0,0.5c0.1,0.9,0.1,1.9,0.2,2.8c0.1,1.1,0.2,2.1,0.3,3.2c0.1,0.9,0.1,1.9,0.1,2.8c0,0.7,0.1,1.5,0.1,2.2
		c0.1,0.9,0.1,1.9,0.2,2.8c0,0.4,0,0.9,0,1.3c0,0.1,0,0.1,0.1,0.1c1,0.1,2.1,0.3,3.1,0.5c0.9,0.2,1.7,0.3,2.6,0.5
		c0.1,0,0.1,0,0.1-0.1c0-1,0-2,0-3c0-1.5,0-3.1,0-4.6c0-1.6,0-3.1-0.1-4.7c-0.1-1.3-0.1-2.7,0-4c0-0.1,0-0.1-0.1-0.1
		c-1.2,0-2.3-0.1-3.5-0.1C16.7,2.2,15.7,2.2,14.6,2.1z M10.6,2.1c-1.2,0-2.1,0-3.1,0.1c-0.1,0-0.1,0-0.1,0.1c0,0.2,0.1,0.4,0.1,0.5
		c0.1,0.7,0.2,1.4,0.3,2.1C7.8,5.9,7.9,7,7.9,8.1c0,1.2,0.1,2.4,0.1,3.5c0.1,1.4,0.1,2.7,0.2,4.1c0,0.6,0.1,1.2,0.1,1.8
		c0,0.1,0,0.1,0.1,0.1c0.6,0,1.1-0.1,1.7-0.1c1.4,0,2.7,0,4.1,0.1c0.1,0,0.1,0,0.1-0.1c-0.1-0.6,0-1.2-0.1-1.8c0-0.7,0-1.4-0.1-2
		c0-0.6-0.1-1.2-0.1-1.9c0-1.3-0.2-2.7-0.3-4c0-0.6-0.1-1.2-0.1-1.8c0-0.5-0.1-1-0.1-1.4c0-0.3-0.1-0.7-0.2-1
		c-0.1-0.5-0.1-1-0.1-1.5c0-0.1,0-0.1-0.1-0.1C12.3,2,11.3,2.1,10.6,2.1z M21.8,20.4c0,0.1,0,0.3,0,0.4c0,0.1,0,0.1,0.1,0.1
		c0.1,0,0.1,0,0.1-0.1c0-0.1,0-0.2,0-0.3c0-0.3,0.1-0.6,0.1-1c0-0.1,0-0.1-0.1-0.1c-0.1,0-0.1,0.1-0.1,0.1
		C21.8,19.8,21.8,20.1,21.8,20.4z M14.9,20.2C14.9,20.2,14.9,20.3,14.9,20.2c0.1,0.1,0.1,0,0.1,0c0-0.6,0-1.2,0.1-1.7
		c0,0,0-0.1,0-0.1c-0.1,0-0.1,0.1-0.1,0.1C15,19,15,19.6,14.9,20.2z M22.2,22.1c0.1-0.2,0.1-0.3,0.1-0.4c0,0,0-0.1,0-0.1
		c0,0-0.1,0-0.1,0C22.2,21.8,22.2,21.9,22.2,22.1z"/>
	<path class="st1" d="M14.6,2.1c1,0.1,2.1,0.1,3.1,0.2c1.2,0,2.3,0.1,3.5,0.1c0.1,0,0.1,0,0.1,0.1c-0.1,1.3-0.1,2.7,0,4
		c0.1,1.6,0.1,3.1,0.1,4.7c0,1.5,0,3.1,0,4.6c0,1,0,2,0,3c0,0.1,0,0.1-0.1,0.1c-0.9-0.2-1.7-0.3-2.6-0.5c-1-0.2-2.1-0.4-3.1-0.5
		c-0.1,0-0.1,0-0.1-0.1c0-0.4,0-0.9,0-1.3c0-0.9-0.1-1.9-0.2-2.8c0-0.7-0.1-1.5-0.1-2.2c-0.1-0.9-0.1-1.9-0.1-2.8
		c-0.1-1.1-0.2-2.1-0.3-3.2c-0.1-0.9-0.2-1.9-0.2-2.8C14.6,2.5,14.6,2.3,14.6,2.1C14.6,2.2,14.6,2.1,14.6,2.1z M16.1,12.9
		c0-0.6-0.1-1.2-0.1-1.8c0-0.1,0-0.2-0.1-0.2c0-0.1-0.1-0.1-0.2-0.1c-0.1,0-0.1,0.1-0.1,0.1c0,0.1,0,0.2,0,0.3
		c0.1,0.9,0.2,1.8,0.3,2.8c0,0.2,0,0.3,0.1,0.5c0,0,0,0.1,0,0.1c0,0,0,0,0-0.1c0,0,0,0,0,0C16.1,13.9,16.1,13.4,16.1,12.9z"/>
	<path class="st1" d="M10.6,2.1c0.7,0,1.7,0,2.7,0c0.1,0,0.1,0,0.1,0.1c0,0.5,0,1,0.1,1.5c0.1,0.3,0.2,0.7,0.2,1
		c0,0.5,0.1,1,0.1,1.4c0,0.6,0.1,1.2,0.1,1.8c0.1,1.3,0.2,2.7,0.3,4c0,0.6,0,1.2,0.1,1.9c0.1,0.7,0,1.4,0.1,2c0,0.6,0,1.2,0.1,1.8
		c0,0.1,0,0.1-0.1,0.1c-1.4-0.1-2.7-0.2-4.1-0.1c-0.6,0-1.1,0-1.7,0.1c-0.1,0-0.1,0-0.1-0.1c0-0.6,0-1.2-0.1-1.8
		c-0.1-1.4-0.1-2.7-0.2-4.1C8,10.5,8,9.3,7.9,8.1c0-1.1-0.1-2.2-0.1-3.3c0-0.7-0.2-1.4-0.3-2.1c0-0.2-0.1-0.4-0.1-0.5
		c0-0.1,0-0.1,0.1-0.1C8.5,2.1,9.4,2.1,10.6,2.1z M13.5,14.3C13.5,14.3,13.5,14.3,13.5,14.3c0-0.1,0.1-0.2,0.1-0.3
		c0.1-0.9,0-1.7,0-2.6c0-0.2,0-0.3-0.1-0.5c0-0.1-0.1-0.2-0.2-0.1c-0.1,0-0.1,0.1-0.1,0.2c0.1,1.1,0.2,2.1,0.3,3.2
		C13.5,14.2,13.5,14.2,13.5,14.3z"/>
	<path class="st1" d="M21.6,24.7c0,0.1,0,0.2,0,0.3c0,0-0.1,0-0.1,0c-0.1,0-0.2,0-0.2,0.2c0,0.1,0,0.1,0,0.2c-0.1,0-0.2,0-0.4,0
		c0-0.1,0-0.2,0-0.2c0-0.1,0-0.1-0.1-0.1c-0.1,0-0.1,0-0.1,0.1c0,0.1,0,0.2,0,0.3c-0.2,0-0.4,0-0.6,0c0-0.1,0-0.1,0-0.2
		c0-0.1,0-0.1-0.1-0.1c-0.1,0-0.1,0-0.2,0c-0.1,0-0.1,0-0.1,0.1c0,0.1,0,0.1,0,0.2c-0.1,0-0.2,0-0.3,0c0,0,0-0.1,0-0.1
		c0-0.1,0-0.2-0.1-0.2c-0.1,0-0.2,0-0.3,0c-0.1,0-0.1,0-0.1,0.1c0,0.1,0,0.1,0,0.2c-0.2,0-0.4,0-0.6,0c0-0.1,0-0.1,0-0.2
		c0-0.1,0-0.1-0.1-0.1c-0.1,0-0.2,0-0.3,0c-0.1,0-0.2,0-0.2,0.1c0,0.1,0,0.1,0,0.2c-0.2,0-0.3,0-0.5,0c-0.1-0.1,0-0.1,0-0.2
		c0-0.1,0-0.1-0.1-0.1c-0.2,0-0.4,0-0.6,0c-0.1,0-0.1,0-0.1,0.1c0,0.1,0,0.2,0,0.3c-0.1,0-0.2,0-0.3,0c0-0.1,0-0.1,0-0.2
		c0,0,0-0.1-0.1-0.1c-0.1,0-0.1,0-0.1,0.1c0,0.1,0,0.2,0,0.2c-0.3,0-0.3,0-0.3-0.3c0-0.2-0.1-0.5-0.1-0.7c0,0,0.1-0.1,0.1-0.1
		c0-0.2,0-0.5,0-0.7c0-0.5,0.1-1.1,0.1-1.6c0-0.2,0.1-0.4,0.1-0.7c0-0.1,0-0.1-0.1-0.1c-0.1,0-0.2,0-0.3,0c0-0.2,0-0.4,0-0.6
		c0,0,0-0.1,0-0.1c0.1,0,0.3,0,0.4,0c0.1,0,0.1,0,0.1-0.1c0-0.3,0.1-0.5,0.1-0.7c0.1-0.3,0.1-0.6,0.2-0.9c0-0.1,0-0.1-0.1-0.1
		c-0.2,0-0.5-0.1-0.7-0.1c0,0-0.1,0-0.1,0c0-0.1,0-0.1,0.2-0.1c1.3,0.2,2.5,0.4,3.8,0.6c0.6,0.1,1.2,0.2,1.8,0.3
		c0.2,0,0.2,0,0.1,0.2c-0.1,0-0.2,0-0.3,0c-0.2,0-0.3-0.1-0.5-0.1c0,0-0.1,0-0.1,0.1c0,0.2-0.1,0.5-0.1,0.7c0,0.2,0,0.5,0,0.7
		c0,0.1,0,0.1,0.1,0.1c0.2,0,0.4,0,0.5,0.1c0.2,0,0.2,0,0.2-0.2c0-0.2,0.1-0.4,0.2-0.5c0,0,0,0.1,0,0.2c0,0.9,0,1.8,0,2.7
		c0,0.1,0,0.1,0,0.2c0,0,0,0,0,0c0,0.1,0,0.1,0,0.2c0,0.3,0,0.6-0.1,0.9c0,0.1,0,0.2,0.1,0.2c0,0,0,0,0,0
		C21.6,24.5,21.6,24.6,21.6,24.7C21.6,24.7,21.6,24.7,21.6,24.7z M19.2,24.3C19.2,24.3,19.2,24.3,19.2,24.3c0.1,0,0.2,0,0.2,0
		c0,0,0.1,0,0.1-0.1c0-0.1,0-0.3,0-0.4c0-0.2,0-0.3,0.1-0.5c0-0.2,0.1-0.4,0.1-0.7c0-0.3,0.1-0.5,0.1-0.8c0-0.2,0.1-0.3,0.1-0.5
		c0,0,0-0.1,0-0.1c-0.1,0-0.3-0.1-0.4,0c0,0-0.1,0-0.1,0.1c0,0.3-0.1,0.5-0.2,0.8c-0.1,0.4-0.1,0.7-0.2,1.1c0,0.1,0,0.2-0.1,0.3
		c0,0.2-0.1,0.4-0.1,0.6c0,0.1,0,0.1,0.1,0.1C19,24.3,19.1,24.3,19.2,24.3z M17.5,24.2C17.5,24.2,17.5,24.2,17.5,24.2
		c0.1-0.2,0.1-0.4,0.1-0.5c0.1-0.3,0.1-0.5,0.2-0.8c0.1-0.3,0.1-0.5,0.1-0.8c0.1-0.3,0.1-0.6,0.2-0.9c0-0.1,0-0.1-0.1-0.1
		c-0.2,0-0.5,0-0.7-0.1c-0.1,0-0.1,0-0.1,0.1c0,0.4,0.1,0.8,0.1,1.2c0,0.4,0.1,0.8,0.1,1.2C17.4,23.9,17.4,24.1,17.5,24.2z M18.1,19
		c0-0.1,0-0.1,0-0.2c0-0.1-0.1,0-0.2-0.1c0,0,0,0,0,0c-0.2,0-0.3,0-0.5-0.1c0,0-0.1,0-0.1,0c0,0.1,0,0.1,0,0.2
		c0,0.2-0.1,0.4-0.1,0.6c0,0.1,0,0.2-0.1,0.3c0,0.2,0,0.3-0.1,0.5c0,0,0,0.1,0.1,0.1c0.3,0,0.6,0.1,0.9,0.1c0.1,0,0.1,0,0.1-0.1
		c0-0.1,0-0.1,0-0.2C18.1,19.8,18,19.4,18.1,19z M19,20.6C19,20.6,19,20.6,19,20.6c0.2,0,0.2,0,0.2-0.1c0-0.1,0-0.2,0.1-0.3
		c0.1-0.2,0.1-0.4,0.1-0.6c0-0.2,0.1-0.3,0.1-0.5c0-0.1,0-0.2-0.1-0.2c-0.2,0-0.3-0.1-0.5-0.1c-0.1,0-0.1,0-0.1,0.1
		c0,0.1,0,0.1,0,0.2c0,0.3-0.1,0.6-0.1,0.8c0,0.1,0,0.3-0.1,0.5c0,0.1,0,0.1,0.1,0.2C18.8,20.6,18.9,20.6,19,20.6z M16.9,24.3
		C16.9,24.3,16.9,24.3,16.9,24.3c0.1,0,0.1,0,0.2,0c0.1,0,0.1,0,0.1-0.1c0-0.2,0-0.3-0.1-0.5c0-0.3-0.1-0.6-0.1-0.9
		c0-0.2,0-0.4-0.1-0.6c0-0.1,0-0.3,0-0.4c0,0,0,0,0,0c0,0,0,0,0,0c0,0.4-0.1,0.8-0.1,1.2c0,0.2,0,0.3,0,0.5c0,0.2-0.1,0.5-0.1,0.7
		c0,0.1,0,0.1,0.1,0.1C16.7,24.3,16.8,24.3,16.9,24.3z M16.1,24c0,0.1,0,0.1,0,0.1c0,0.1,0,0.1,0.1,0.1c0.1,0,0.1-0.1,0.1-0.1
		c0-0.2,0-0.4,0-0.5c0.1-0.4,0.1-0.9,0.2-1.3c0-0.2,0-0.3,0.1-0.5c0-0.2,0.1-0.5,0.1-0.7c0-0.1,0-0.1-0.1-0.1c-0.1,0-0.1,0-0.1,0.1
		c0,0.5-0.1,0.9-0.1,1.4C16.2,23,16.1,23.5,16.1,24z M21.3,21.8c-0.1,0.2-0.1,0.4-0.2,0.6c-0.1,0.2-0.1,0.5-0.2,0.7
		c-0.1,0.3-0.1,0.5-0.2,0.8c0,0.1-0.1,0.3-0.1,0.4c0,0,0,0.1,0.1,0.1c0.1,0,0.2,0.1,0.3,0c0,0,0,0,0,0c0-0.3,0.1-0.6,0.1-0.9
		c0-0.2,0-0.4,0.1-0.6c0-0.1,0-0.3,0.1-0.4C21.3,22.2,21.3,22,21.3,21.8z M20.1,22.1c0,0.1,0,0.1,0,0.2c0,0.3-0.1,0.6-0.1,0.9
		c0,0.1,0,0.3-0.1,0.4c0,0.2-0.1,0.4-0.1,0.6c0,0.1,0,0.1,0.1,0.1c0.1,0,0.2,0,0.3,0c0.1,0,0.1,0,0.1-0.1c0-0.2,0-0.3,0-0.5
		c0-0.3,0-0.6-0.1-1C20.2,22.6,20.2,22.4,20.1,22.1z M20.1,20.3c0-0.3,0-0.7,0-1.1c0,0,0-0.1,0-0.1c0-0.1-0.1-0.1-0.1-0.1
		c0,0-0.1,0-0.1,0c0,0.2-0.1,0.4-0.1,0.7c0,0.1,0,0.2-0.1,0.3c0,0.2-0.1,0.4-0.1,0.5c0,0.1,0,0.1,0.1,0.1c0.1,0,0.2,0,0.3,0
		c0,0,0.1,0,0.1-0.1C20.1,20.5,20.1,20.4,20.1,20.3z M20.6,23.1c0-0.1,0.1-0.3,0.1-0.4c0-0.2,0.1-0.4,0.1-0.5
		c0.1-0.2,0.1-0.4,0.2-0.6c0-0.1,0-0.1-0.1-0.1c-0.1,0-0.2,0-0.3,0c-0.2,0-0.2,0-0.2,0.2C20.5,22.1,20.6,22.6,20.6,23.1z M18.3,22.6
		c0,0.1-0.1,0.2-0.1,0.3c-0.1,0.3-0.1,0.6-0.2,0.9c0,0.1,0,0.2-0.1,0.3c0,0.1,0,0.1,0.1,0.1c0.1,0,0.2,0,0.3,0c0.1,0,0.1,0,0.1-0.1
		c0-0.1,0-0.1,0-0.2c0-0.2-0.1-0.5-0.1-0.7C18.4,23.1,18.3,22.8,18.3,22.6z M18.6,21.2c-0.1,0-0.1,0-0.1,0.1c0,0.1,0,0.3,0,0.4
		c0,0.3,0.1,0.7,0.1,1c0,0,0,0.1,0,0.1c0,0,0,0,0-0.1c0-0.1,0-0.2,0-0.3c0.1-0.4,0.2-0.8,0.3-1.2c0,0,0-0.1-0.1-0.1
		C18.9,21.3,18.7,21.2,18.6,21.2z M16.7,18.9C16.7,18.9,16.7,18.9,16.7,18.9c-0.1,0.3-0.2,0.6-0.2,1c0,0.1,0,0.2,0,0.3
		c0,0.2,0,0.2,0.1,0.2c0,0,0,0,0,0c0.1,0,0.1,0,0.1-0.1c0-0.4,0-0.8,0-1.2C16.7,19,16.7,19,16.7,18.9z M18.4,19.8
		c0.1-0.3,0.1-0.6,0.2-0.9c0-0.1-0.1-0.1-0.1-0.1c-0.1,0-0.1,0-0.1,0.1C18.3,19.2,18.3,19.5,18.4,19.8z M17,19.1
		c0.1-0.2,0.1-0.3,0.1-0.4c0-0.1,0-0.1-0.1-0.1c0,0-0.1,0-0.1,0.1C17,18.8,16.9,18.9,17,19.1z"/>
	<path class="st1" d="M9.2,25.3c-0.1,0-0.2,0-0.2,0c-0.1,0-0.1,0-0.1-0.1c0-0.3-0.1-0.6-0.1-0.8c0.1,0,0.1,0,0.1-0.1
		c0-0.1,0-0.2,0-0.3c-0.1-0.4-0.1-0.8-0.1-1.2c0-0.4-0.1-0.8-0.1-1.3c0-0.9-0.1-1.8-0.1-2.7c0-0.1,0-0.1,0-0.2c0-0.1,0-0.3,0-0.4
		c0-0.1,0-0.1-0.1-0.1c0.1,0,0.2,0,0.3,0c0,0,0,0.1,0,0.1c0,0.5,0,1.1,0,1.6c0,0.1,0,0.1,0,0.1c0,0,0,0,0.1,0c0.2,0,0.5,0,0.7,0
		c0.1,0,0.1,0,0.1-0.1c0-0.2,0-0.4,0-0.6c0-0.4,0.1-0.8,0.1-1.1c0-0.1,0-0.1-0.1-0.1c-0.2,0-0.4,0-0.5,0c1.1,0,2.1-0.1,3.2,0
		c0.6,0,1.3,0.1,1.9,0.1c0.2,0,0.2,0,0.2,0.2c0,0-0.1,0-0.1,0c-0.1,0-0.1,0-0.1,0.1c0,0.1,0,0.2,0,0.2c-0.1,0.3-0.1,0.7-0.1,1
		c0,0.2,0,0.3-0.1,0.5c0,0,0,0.1,0.1,0.1c0,0,0.1,0,0.1,0c0.1,0,0.2,0,0.3,0c0,0.2,0,0.4,0,0.6c-0.1,0-0.3,0-0.4,0
		c-0.1,0-0.1,0-0.1,0.1c0,0.2-0.1,0.5-0.1,0.7c-0.1,0.5-0.1,1.1-0.2,1.6c0,0.3,0.1,0.6,0.1,1c0,0,0,0,0.1,0c0.1,0,0.2,0,0.3,0
		c0,0,0.1,0,0.1-0.1c0-0.2,0-0.4,0.1-0.6c0.1-0.4,0.1-0.8,0.2-1.2c0-0.1,0-0.3,0.1-0.4c0,0.1,0,0.2,0,0.3c0.1,0.6,0.1,1.1,0.1,1.7
		c0,0,0,0.1,0,0.1c0,0,0-0.1,0-0.1c0,0.1,0,0.2,0,0.3c0,0,0,0,0,0.1c0,0.2,0,0.4,0,0.6c-0.1,0-0.1,0-0.1,0.1c0,0.1,0,0.2,0,0.3
		c-0.1,0-0.2,0-0.3,0c0,0,0-0.1,0-0.1c0.1-0.2,0.1-0.2-0.2-0.2c-0.1,0-0.1,0-0.1,0.1c0,0.1,0,0.1,0,0.2c-0.1,0-0.2,0-0.2,0
		c0-0.1,0-0.2-0.1-0.4c-0.1,0.1-0.1,0.3-0.1,0.4c-0.1,0-0.2,0-0.3,0c0-0.1,0-0.2,0-0.3c0-0.1,0-0.1-0.1-0.1c-0.1,0-0.1,0-0.1,0.1
		c0,0.1,0,0.2,0,0.3c0,0,0,0-0.1,0l0,0c0,0-0.1,0-0.1,0l0,0c0,0-0.1,0-0.1,0c0,0,0,0,0-0.1c0-0.1,0-0.1,0-0.2c0-0.1,0-0.1-0.1-0.1
		c-0.3,0-0.5,0-0.8,0c-0.1,0-0.1,0-0.1,0.1c0,0.1,0,0.2,0,0.3c0,0-0.1,0-0.1,0c0,0,0,0,0,0c-0.1,0-0.1,0-0.2,0c0-0.1,0-0.2,0-0.3
		c0-0.1,0-0.1-0.1-0.1c-0.1,0-0.1,0-0.1,0.1c0,0.1,0,0.2,0,0.3c0,0-0.1,0-0.1,0l0,0l0,0c0,0-0.1,0-0.1,0c0-0.1,0-0.2,0-0.3
		c0-0.1,0-0.1-0.1-0.1c-0.2,0-0.3,0-0.5,0c-0.1,0-0.1,0-0.1,0.1c0,0.1,0,0.2,0,0.3c-0.1,0-0.1,0-0.2,0c0-0.1,0-0.1,0-0.2
		c0-0.2,0-0.2-0.2-0.2c-0.1,0-0.1,0-0.1,0.1c0,0.1,0,0.2,0,0.3c-0.1,0-0.2,0-0.2,0c0-0.1,0-0.2,0-0.3c0-0.1,0-0.1-0.1-0.1
		c0,0-0.1,0-0.1,0c-0.1,0-0.1,0-0.1,0.1C9.2,25.1,9.2,25.2,9.2,25.3z M9.5,20.8c0,0,0-0.1,0-0.1c0,0,0-0.1-0.1-0.1
		c-0.2,0-0.4,0-0.6,0c-0.1,0-0.1,0-0.1,0.1c0,0.3,0.1,0.7,0.1,1c0,0.3,0,0.5,0.1,0.8c0,0.2,0,0.4,0,0.6C9,23.3,9,23.7,9,24.1
		c0,0.2,0,0.2,0.2,0.2c0,0,0,0,0.1,0c0.1,0,0.1,0,0.1-0.1C9.4,23.1,9.4,21.9,9.5,20.8z M11,20.7c0-0.1,0-0.1-0.1-0.1
		c-0.1,0-0.2,0-0.3,0c0,0-0.1,0-0.1,0.1c0,0.1,0,0.1,0,0.2c0,0.5-0.1,1.1-0.1,1.6c0,0.5-0.1,0.9-0.1,1.4c0,0.1,0,0.1,0,0.2
		c0,0.1,0,0.1,0.1,0.1c0.1,0,0.3,0,0.4,0c0.1,0,0.1,0,0.1-0.1c0,0,0-0.1,0-0.1c0-0.4,0-0.8,0-1.2C10.9,22.1,10.9,21.5,11,20.7z
		 M11.2,23.2c0,0.3,0,0.5,0,0.8c0,0.2,0,0.2,0.2,0.2c0.1,0,0.1,0,0.1-0.1c0-0.2,0-0.4,0.1-0.6c0-0.1,0-0.3,0-0.4
		c0-0.3,0.1-0.5,0.1-0.8c0-0.2,0.1-0.4,0.1-0.7c0.1-0.3,0.1-0.6,0.2-0.8c0-0.1,0-0.1-0.1-0.1c-0.2,0-0.3,0-0.5,0
		c-0.1,0-0.1,0-0.1,0.1c0,0.2,0,0.4,0,0.5C11.2,22,11.1,22.6,11.2,23.2z M12.8,18.3c0,0.5,0.1,0.9,0.1,1.4c0,0.1,0,0.2,0,0.3
		c0,0,0,0.1,0.1,0.1c0.1,0,0.3,0,0.4,0c0.1,0,0.1,0,0.1-0.1c0-0.2,0-0.4,0.1-0.7c0-0.2,0-0.3,0.1-0.5c0-0.2,0.1-0.4,0.1-0.6
		c0,0,0-0.1-0.1-0.1c-0.3-0.1-0.5,0-0.8-0.1C12.8,18.1,12.8,18.1,12.8,18.3z M9.7,23.4C9.7,23.4,9.7,23.4,9.7,23.4
		c0,0.2,0,0.5,0,0.7c0,0.2,0,0.2,0.2,0.2c0.1,0,0.1,0,0.2-0.1c0-0.1,0-0.1,0-0.2c0.1-0.4,0.1-0.8,0.1-1.2c0-0.2,0-0.4,0-0.7
		c0-0.5,0-0.9,0.1-1.4c0-0.1,0-0.1-0.1-0.1c-0.1,0-0.2,0-0.3,0c-0.1,0-0.1,0-0.1,0.1c0,0.6-0.1,1.2-0.1,1.9
		C9.7,22.8,9.7,23.1,9.7,23.4z M13.2,23.5c0-0.3,0-0.5-0.1-0.7c0-0.3-0.1-0.5-0.1-0.8c0-0.4-0.1-0.7-0.1-1.1c0-0.1,0-0.1-0.1-0.1
		c-0.1,0-0.2,0-0.2,0c-0.1,0-0.1,0-0.1,0.1c0,0.1,0,0.3,0.1,0.4c0.1,0.5,0.1,0.9,0.2,1.4c0,0.3,0.1,0.6,0.1,0.9c0,0.2,0,0.3,0.1,0.5
		c0,0.2,0.1,0.2,0.3,0.2c0,0,0.1,0,0.1-0.1C13.2,23.9,13.2,23.7,13.2,23.5z M10.5,19.5C10.5,19.5,10.5,19.5,10.5,19.5
		c0,0.1,0,0.3,0,0.4c0,0.1,0,0.1,0.1,0.1c0.1,0,0.2,0,0.4,0c0.1,0,0.1,0,0.1-0.1c0-0.2,0-0.4,0.1-0.5c0-0.3,0.1-0.5,0.1-0.8
		c0-0.1,0-0.3,0.1-0.4c0-0.1,0-0.1-0.1-0.1c-0.2,0-0.4,0-0.5,0c-0.1,0-0.1,0-0.1,0.1C10.5,18.6,10.5,19,10.5,19.5z M12.2,21.4
		c-0.1,0.1-0.1,0.3-0.1,0.4c0,0.2-0.1,0.5-0.1,0.7c0,0.2,0,0.3-0.1,0.5c0,0.4-0.1,0.7-0.1,1.1c0,0.1,0,0.1,0.1,0.1
		c0.2,0,0.3,0,0.5,0c0.1,0,0.1,0,0.1-0.1c0-0.2-0.1-0.5-0.1-0.7c0-0.2-0.1-0.5-0.1-0.7c0-0.3-0.1-0.6-0.1-0.8
		C12.2,21.7,12.2,21.6,12.2,21.4z M11.7,20C11.7,20.1,11.7,20.1,11.7,20C11.7,20.1,11.7,20.1,11.7,20c0.1,0,0.2,0,0.2,0
		c0.1,0,0.1,0,0.1-0.1c0-0.2-0.1-0.5-0.1-0.7c0-0.2,0-0.3,0-0.5c0-0.2,0-0.4,0-0.6c0,0,0-0.1,0-0.1c-0.1,0-0.2,0-0.3,0
		c-0.1,0,0,0.1,0,0.2c0,0,0,0,0,0.1c0,0.3-0.1,0.6-0.1,0.9c0,0.2,0,0.5-0.1,0.7c0,0.1,0,0.1,0.1,0.1C11.5,20,11.6,20,11.7,20z
		 M9.9,18.7C9.9,18.7,9.9,18.7,9.9,18.7c0,0.2,0,0.4,0,0.6c0,0.2,0,0.4,0,0.6c0,0.1,0,0.1,0.1,0.1c0.1,0,0.2,0,0.3,0
		c0.1,0,0.1,0,0.1-0.1c0-0.6,0-1.1,0-1.7c0-0.2,0-0.2-0.2-0.2c0,0-0.1,0-0.1,0c-0.1,0-0.1,0-0.1,0.1C9.9,18.3,9.9,18.5,9.9,18.7z
		 M12.6,18.7C12.6,18.7,12.6,18.7,12.6,18.7c-0.1,0.4-0.2,0.8-0.2,1.2c0,0.1-0.1,0.2,0,0.2c0.1,0,0.2,0,0.3,0c0.1,0,0.1,0,0.1-0.1
		c0-0.2,0-0.4-0.1-0.6C12.7,19.2,12.7,19,12.6,18.7C12.7,18.7,12.7,18.7,12.6,18.7z M13.3,22.1c0,0,0.1-0.1,0.1-0.1
		c0-0.4,0.1-0.7,0.1-1.1c0-0.1,0-0.1-0.1-0.1c-0.1,0-0.1,0-0.2,0c-0.1,0-0.1,0-0.1,0.1c0.1,0.3,0.1,0.5,0.1,0.8
		C13.3,21.8,13.3,22,13.3,22.1z M12.2,19.1C12.3,19.1,12.3,19.1,12.2,19.1c0.1-0.2,0.1-0.4,0.2-0.6c0-0.1,0.1-0.2,0.1-0.3
		c0,0,0-0.1,0-0.1c-0.1,0-0.2,0-0.3,0c-0.1,0-0.1,0-0.1,0.1C12.1,18.5,12.2,18.8,12.2,19.1C12.2,19.1,12.2,19.1,12.2,19.1z
		 M14.5,24.2C14.5,24.2,14.5,24.1,14.5,24.2C14.5,24.1,14.5,24.2,14.5,24.2z"/>
	<path class="st1" d="M3.6,18.4c0,0,0.1,0,0.1,0c0,0,0,0,0,0l0,0c0,0,0,0,0.1,0c0.1,0,0,0.1,0.1,0.1c0,0,0-0.1,0.1-0.1
		c0,0,0.1,0,0.1,0c0,0.2,0,0.4,0,0.6c0,0,0,0.1,0,0.1c0.1,0.2,0.2,0.5,0.2,0.7c0,0.1,0.1,0.1,0.1,0.1c0.2,0,0.4,0,0.6,0
		c0.3,0,0.3,0,0.3-0.3c0,0,0,0,0,0c0-0.4,0-0.8,0-1.2c0-0.1,0-0.1,0-0.2c0,0,0.1,0,0.1,0c0,0,0,0.1,0,0.1c0,0.2,0,0.4,0,0.5
		c0,0.3,0,0.6,0,0.9c0,0.1,0,0.1,0.1,0.1c0.3,0,0.7,0,1,0c0.1,0,0.1,0,0.1-0.1c0-0.2,0-0.5,0-0.7c0-0.3,0-0.6,0.1-0.9c0,0,0,0,0-0.1
		c0.2,0,0.5,0,0.7,0c0.1,0,0.1,0,0.1,0.1c0,0.3,0,0.7,0.1,1c-0.1-0.1,0-0.1-0.1-0.2c0,0,0,0,0,0.1c0,0.2,0,0.4,0,0.6
		c0,0.1,0,0.1,0,0.2c0,0.1,0.1,0,0.2,0.1c0,0.2,0,0.4,0,0.6c-0.1,0-0.1,0-0.2,0c-0.1,0-0.1,0-0.1,0.1c0,0.6-0.1,1.2-0.1,1.8
		c0,0.6-0.1,1.2-0.1,1.7c0,0.1,0,0.1,0.1,0.1c0.1,0,0.3,0,0.4,0c0,0.2,0,0.4,0,0.6c-0.1,0-0.3,0-0.4,0c-0.1,0-0.1,0-0.1,0.1
		c0,0.1,0,0.3,0,0.4c0,0.2,0,0.4,0,0.6c-0.1,0-0.3,0.1-0.4,0.1c0-0.3,0-0.7,0-1c0,0,0-0.1-0.1-0.1c-0.1,0-0.3,0-0.4,0
		c0,0-0.1,0-0.1,0.1c0.1,0.2,0.1,0.3,0.2,0.5c0.1,0.2,0.2,0.4,0.2,0.6c0,0-0.1,0-0.1,0c-0.1-0.2-0.2-0.4-0.3-0.6
		c-0.1-0.2-0.1-0.3-0.2-0.5c0-0.1-0.1,0-0.2,0c-0.1,0,0,0.1,0,0.1c0,0.2,0,0.4,0.1,0.6C6,26,6,26.2,6,26.4c-0.1,0-0.2,0-0.2,0.1
		c0-0.1,0-0.1,0-0.2c0-0.3-0.1-0.6-0.1-0.9c0-0.3,0-0.3-0.3-0.3c-0.1,0-0.1,0-0.1,0.1c0,0.2,0.1,0.4,0.1,0.6c0,0.1,0,0.2,0,0.3
		c0,0.2,0.1,0.4,0.1,0.5c-0.1,0-0.1,0-0.2,0.1c0,0,0-0.1,0-0.1c0-0.1,0-0.2-0.1-0.4C5.1,25.9,5,25.6,5,25.4c0-0.3-0.1-0.3-0.3-0.3
		c0,0,0,0,0,0c-0.1,0-0.1,0-0.1,0.1c0.1,0.1,0.1,0.3,0.1,0.4c0.1,0.3,0.1,0.6,0.2,0.9c0,0.1,0.1,0.2,0,0.2c0,0-0.1,0-0.1,0
		c-0.1-0.1-0.1-0.3-0.1-0.5c-0.1-0.4-0.2-0.7-0.2-1c0-0.1-0.1-0.1-0.2-0.1c0,0-0.1,0-0.2,0c-0.1,0-0.1,0-0.1,0.1c0,0.1,0,0.2,0,0.3
		c0,0.5,0,1,0,1.4c-0.1,0-0.1,0-0.2,0.1c0,0,0,0,0-0.1c0-0.3,0-0.7,0-1c0-0.2,0-0.5,0-0.7c0-0.1,0-0.1-0.1-0.1c-0.3,0-0.6,0-0.9,0
		c-0.1,0-0.1,0-0.1,0.1c0,0.2,0,0.4,0,0.7c0,0.4,0,0.8,0,1.2c0,0.2,0,0.3,0,0.5c0,0,0-0.1,0-0.1c0-0.1,0-0.1-0.1-0.1
		c0,0,0-0.1,0-0.1c0-0.6,0-1.2-0.1-1.8c-0.1-0.8-0.2-1.7-0.3-2.5c-0.2-1.1-0.3-2.2-0.4-3.3c0,0.1,0.1,0.2,0.1,0.2
		c0,0.1,0,0.1,0.1,0.1C2.3,20,2.6,20,3,20c0.1,0,0.1,0,0.1-0.1C3,19.8,3,19.7,3,19.6c-0.1-0.3-0.2-0.6-0.2-0.9
		c0-0.1,0.1-0.1,0.1-0.1C2.9,18.7,3,18.9,3,19.1c0.1,0.2,0.1,0.5,0.2,0.7c0,0.1,0.1,0.1,0.1,0.1c0.1,0,0.2,0,0.3,0
		c0.1,0,0.1,0,0.1-0.1c0-0.2-0.1-0.5-0.1-0.7C3.6,18.9,3.6,18.7,3.6,18.4z M3.7,23.5C3.7,23.5,3.7,23.5,3.7,23.5c0-0.2,0-0.5,0-0.7
		c0-0.1,0-0.2,0-0.3c-0.1-0.2-0.1-0.4-0.2-0.6c-0.1-0.4-0.2-0.7-0.3-1.1c0-0.1-0.1-0.1-0.2-0.1c-0.3,0-0.5,0-0.8,0.1
		c-0.1,0-0.1,0-0.2,0C2,20.7,2,20.7,2,20.8c0,0.1,0.1,0.2,0.1,0.4c0,0.1,0,0.2,0.1,0.3c0,0.2,0.1,0.4,0.1,0.6c0,0.4,0.1,0.7,0.1,1.1
		c0,0.4,0.1,0.8,0.1,1.3c0,0.1,0,0.1,0.1,0.1c0.4,0,0.7-0.1,1.1-0.1c0.1,0,0.1,0,0.1-0.1C3.7,24.1,3.7,23.8,3.7,23.5z M6.1,20.5
		C6.1,20.5,6.1,20.5,6.1,20.5c-0.1,0-0.3,0-0.4,0c-0.1,0-0.1,0-0.1,0.1c0,0.3,0,0.5,0,0.8c0,0.3,0,0.6,0.1,0.8
		c0,0.4,0.1,0.8,0.1,1.1c0,0.3,0.1,0.6,0.3,0.9c0,0.1,0.1,0.1,0.1,0.1c0.2,0,0.3,0,0.5,0c0.1,0,0.1,0,0.1-0.1c0-0.3,0-0.6,0-0.9
		c0-0.4,0-0.7,0-1.1c0-0.5,0-1,0-1.5c0-0.1,0-0.1-0.1-0.1C6.4,20.5,6.3,20.5,6.1,20.5z M5.5,24.2c0-0.1,0-0.3,0-0.5
		c0-0.1,0-0.2,0-0.2c-0.1-0.2-0.2-0.5-0.3-0.7c-0.1-0.2-0.2-0.4-0.3-0.6c-0.1-0.3-0.2-0.6-0.4-0.9c-0.1-0.2-0.1-0.4-0.2-0.6
		c0,0,0-0.1-0.1-0.1c0,0-0.1,0.1,0,0.1c0,0,0,0.1,0,0.1c0.1,0.3,0.1,0.6,0.2,0.8c0.1,0.2,0.1,0.5,0.1,0.7c0,0.3,0.1,0.6,0.2,1
		C4.8,23.6,4.9,24,5,24.4c0,0.1,0,0.1,0.1,0.1c0.1,0,0.2,0,0.2,0C5.5,24.4,5.5,24.4,5.5,24.2z M4,20.7c0,0,0,0.1,0,0.1
		c0,0.3,0,0.7,0,1c0,0.2,0,0.5,0,0.8c0,0.2,0.1,0.3,0.1,0.5c0.1,0.4,0.2,0.7,0.3,1.1c0,0.1,0,0.2,0.1,0.3c0.1,0.1,0.2,0,0.3,0
		c0.1,0,0.1,0,0.1-0.1c0-0.2-0.1-0.3-0.1-0.5c-0.1-0.2-0.1-0.4-0.2-0.7c-0.1-0.3-0.1-0.6-0.2-0.9c-0.1-0.4-0.2-0.8-0.3-1.2
		C4,21,4,20.9,4,20.7z M5.4,22.7c0-0.1,0-0.2,0-0.3c0-0.6-0.1-1.2-0.1-1.8c0-0.1,0-0.1-0.1-0.1c-0.2,0-0.3,0-0.5,0
		c-0.1,0-0.2,0-0.1,0.2c0,0,0,0,0,0c0.1,0.3,0.2,0.6,0.4,1c0.1,0.2,0.2,0.5,0.3,0.7C5.3,22.5,5.3,22.6,5.4,22.7z M7,19.4
		c0,0.1,0,0.3,0,0.4c0,0,0,0.1,0.1,0.1c0.1,0,0.2,0,0.3,0c0.1,0,0-0.1,0-0.2c0,0,0,0,0,0c0.1-0.4,0.1-0.8,0.2-1.2
		c0-0.1,0-0.2,0.1-0.3c0-0.1,0-0.1-0.1-0.1c-0.1,0-0.2,0-0.3,0c-0.1,0-0.1,0-0.1,0.1C7,18.6,7,19,7,19.4z M7.1,24.3
		c0-0.2,0-0.4,0-0.6c0-0.4,0-0.8,0-1.2c0-0.6,0.1-1.2,0.1-1.8c0-0.2,0-0.2-0.2-0.2c-0.1,0-0.1,0-0.1,0.1c0,0,0,0.1,0,0.1
		c0,1.2,0,2.3,0.1,3.5C7,24.3,7,24.3,7.1,24.3z M3.7,21.7c0-0.3,0-0.6,0.1-0.9c0-0.2,0-0.2-0.2-0.2c-0.1,0-0.1,0-0.1,0.1
		c0,0.1,0.1,0.2,0.1,0.2C3.6,21.2,3.6,21.4,3.7,21.7z M4,23.4c0,0.1,0,0.1,0,0.2c0,0.3,0,0.5,0,0.8c0,0.1,0,0.1,0.1,0.1
		c0,0,0.1,0,0.1,0c0.1,0,0.1,0,0.1-0.1c-0.1-0.2-0.1-0.3-0.1-0.5C4,23.7,4,23.6,4,23.4z"/>
	<path class="st1" d="M22.8,25.1c0-0.3,0-0.6,0-0.8c0-0.1,0-0.1,0-0.2c0-0.2,0.1-0.4,0.2-0.6c0.1-0.2,0.1-0.4,0.2-0.6
		c0.1-0.3,0.1-0.6,0.1-0.8c0-0.1,0-0.1,0-0.2c0,0,0-0.1,0-0.1c-0.2,0-0.3-0.1-0.5,0c0-0.1,0-0.1,0-0.2c0-0.3,0-0.7,0-1
		c0-0.1,0-0.1,0-0.2c0.1-0.2,0.1-0.4,0.2-0.5c0-0.1,0-0.1-0.1-0.1c0,0-0.1,0-0.1-0.1c0-0.1,0-0.1,0.1-0.1c0.8,0.2,1.6,0.4,2.3,0.7
		c0,0,0.1,0,0.1,0.1c0,0,0,0-0.1,0c-0.2-0.1-0.5-0.1-0.7-0.2c-0.1,0-0.2,0-0.2,0.1c-0.1,0.3-0.2,0.6-0.3,0.9c0,0.1,0,0.1,0.1,0.2
		c0.2,0,0.4,0,0.6,0.1c0,0,0.1,0,0.1,0c-0.1,0.2-0.2,0.4-0.2,0.6c0,0-0.1,0-0.1,0c-0.2,0-0.3-0.1-0.5-0.1c-0.1,0-0.2,0-0.2,0.1
		c-0.1,0.2-0.1,0.4-0.2,0.7c-0.1,0.3-0.2,0.6-0.2,0.9c0,0.3-0.1,0.5-0.1,0.8c0,0.1,0,0.1,0.1,0.1c0.2,0,0.4,0,0.6,0
		c0,0.2,0,0.4,0,0.6c-0.1,0-0.1,0-0.2,0c-0.1,0-0.3,0-0.4,0c-0.2,0-0.2,0-0.2,0.2c0,0,0,0,0,0.1c0,0.2-0.1,0.5-0.1,0.7
		c-0.2-0.1-0.3-0.2-0.2-0.4c0-0.1,0-0.2,0-0.2C22.8,25.3,22.9,25.2,22.8,25.1z M22.9,21c0.1,0,0.1,0,0.2,0c0.1,0,0.1,0,0.2,0
		c0.2,0,0.2,0,0.2-0.2c0-0.2,0.1-0.4,0.1-0.6c0-0.1,0-0.2,0.1-0.4c0,0,0-0.1,0-0.1c-0.1,0-0.2,0-0.3-0.1c0,0-0.1,0-0.1,0
		c-0.1,0.2-0.1,0.4-0.2,0.7C23,20.6,22.9,20.8,22.9,21z M23.8,20.7C23.8,20.7,23.8,20.7,23.8,20.7c0.1-0.3,0.2-0.5,0.3-0.7
		c0,0,0-0.1-0.1-0.1c-0.1,0-0.1,0-0.1,0.1c0,0.1-0.1,0.3-0.1,0.4C23.7,20.5,23.7,20.6,23.8,20.7z"/>
	<path class="st2" d="M7.3,26c0-0.2,0-0.4,0-0.6c0-0.1,0-0.3,0-0.4C7.3,25,7.4,25,7.4,25c0.1,0,0.3,0,0.4,0c0.2,0,0.4,0,0.7,0
		c0.1,0,0.1,0,0.1,0.1c0,0.3,0.1,0.5,0.2,0.8c0.1,0.3,0.1,0.5,0.2,0.8c0,0.2,0,0.4,0.1,0.5c0,0.1,0,0.2,0.1,0.3c0,0.2,0,0.2-0.2,0.2
		c-0.5,0-1,0-1.5,0c-0.1,0-0.2,0-0.1-0.1c0-0.4,0-0.8,0-1.2C7.3,26.2,7.3,26.1,7.3,26z"/>
	<path class="st2" d="M14.3,25.2c0-0.1,0-0.2,0-0.3c0-0.1,0-0.1,0.1-0.1c0.3,0,0.6,0,0.8,0c0.1,0,0.1,0,0.1,0.1
		c0,0.4,0.1,0.9,0.1,1.3c0,0.2,0,0.3,0,0.5c0,0.2,0.1,0.4,0,0.6c0,0,0,0,0,0.1c0,0,0,0,0,0.1c0,0.1,0,0.1-0.1,0.1
		c-0.4,0-0.9,0-1.3,0c0,0-0.1,0-0.1,0c-0.1,0-0.1,0-0.1-0.1c0-0.3,0-0.5,0.1-0.8c0-0.1,0-0.2,0-0.4c0-0.1,0-0.2,0-0.3
		C14.3,25.8,14.3,25.5,14.3,25.2z"/>
	<path class="st2" d="M11.6,25.3c0.1-0.1,0-0.2,0-0.3c0-0.1,0-0.1,0.1-0.1c0.3,0,0.5,0,0.8,0c0.1,0,0.1,0,0.1,0.1c0,0.1,0,0.1,0,0.2
		c0,0,0,0,0,0.1c-0.1,0,0,0.1,0,0.1c0,0.1,0,0.3,0,0.4c0,0.2,0,0.4,0.1,0.6c0,0.3,0.1,0.7,0.1,1c0,0,0,0,0,0.1c0,0.1,0,0.1-0.2,0.1
		c-0.4,0-0.7,0-1.1,0c-0.1,0-0.1,0-0.1-0.1c0-0.3,0-0.7,0-1c0,0,0-0.1,0-0.1c0-0.3,0-0.6,0.1-1C11.6,25.4,11.7,25.3,11.6,25.3z"/>
	<path class="st2" d="M23.9,24.5c-0.2,0-0.4,0-0.6,0c-0.1,0-0.1,0-0.1-0.1c0-0.3,0.1-0.5,0.1-0.8c0-0.3,0.1-0.6,0.2-0.9
		c0.1-0.2,0.1-0.4,0.2-0.7c0-0.1,0-0.2,0.2-0.1c0.2,0,0.3,0,0.5,0.1c0,0,0.1,0,0.1,0c0.1,0,0.2,0,0.3,0c0.1,0,0.1,0.1,0.1,0.1
		c0,0.1-0.1,0.3-0.1,0.4c-0.1,0.3-0.2,0.6-0.3,1c-0.1,0.3-0.1,0.6-0.2,0.9c0,0,0,0,0,0c0,0.1,0,0.2-0.1,0.2
		C24.2,24.6,24.1,24.5,23.9,24.5C24,24.5,23.9,24.5,23.9,24.5z"/>
	<path class="st2" d="M2.7,27.7c0-0.2,0-0.3,0-0.5c0-0.4,0-0.8,0-1.2c0-0.2,0-0.4,0-0.7c0-0.1,0-0.1,0.1-0.1c0.3,0,0.6,0,0.9,0
		c0.1,0,0.1,0,0.1,0.1c0,0.2,0,0.5,0,0.7c0,0.3,0,0.7,0,1c0,0,0,0,0,0.1c0,0.1,0,0.2,0,0.4c0,0.1,0,0.1,0,0.2c0,0,0,0,0,0
		c-0.1,0-0.1,0.1-0.2,0c-0.3,0-0.5,0-0.8,0C2.7,27.7,2.7,27.7,2.7,27.7z"/>
	<path class="st2" d="M7.8,24.3c-0.1,0-0.3,0-0.4,0c-0.1,0-0.1,0-0.1-0.1c0-0.6,0-1.2,0.1-1.7c0-0.6,0.1-1.2,0.1-1.8
		c0-0.1,0-0.1,0.1-0.1c0.1,0,0.1,0,0.2,0c0.1,0,0.1,0,0.1,0.1C7.9,21,8,21.3,8,21.6c0.1,0.4,0.1,0.8,0.2,1.1
		c0.1,0.3,0.1,0.6,0.2,0.9c0,0.2,0.1,0.4,0.1,0.6c0,0.1,0,0.1-0.1,0.1C8.2,24.3,8,24.3,7.8,24.3z"/>
	<path class="st2" d="M23,26.1c0-0.2,0.1-0.5,0.1-0.7c0,0,0,0,0-0.1c0-0.2,0-0.2,0.2-0.2c0.1,0,0.3,0,0.4,0c0.1,0,0.1,0,0.2,0
		c0,0,0.1,0,0.1,0c0.2,0,0.2,0,0.1,0.2c0,0.3-0.1,0.7-0.1,1c0,0.3,0,0.6,0,0.9c0,0.1,0,0.3,0,0.4c0,0,0,0.1,0,0.1
		c0,0.2,0,0.2-0.2,0.2c-0.3,0-0.5,0-0.8,0c-0.1,0-0.1,0-0.1-0.1c0-0.1,0-0.1,0-0.2c0-0.4,0.1-0.8,0.1-1.1C23,26.3,23,26.2,23,26.1z"
		/>
	<path class="st2" d="M14.4,21.9c0,0.1,0,0.3-0.1,0.4c-0.1,0.4-0.1,0.8-0.2,1.2c0,0.2,0,0.4-0.1,0.6c0,0,0,0.1-0.1,0.1
		c-0.1,0-0.2,0-0.3,0c0,0-0.1,0-0.1,0c0-0.3-0.1-0.6-0.1-1c0-0.5,0.1-1.1,0.2-1.6c0-0.2,0.1-0.5,0.1-0.7c0-0.1,0.1-0.1,0.1-0.1
		c0.1,0,0.3,0,0.4,0c0.2,0,0.2,0,0.2,0.2C14.5,21.4,14.5,21.7,14.4,21.9z"/>
	<path class="st2" d="M6.8,18.1C6.8,18.1,6.8,18.1,6.8,18.1c0,0.4-0.1,0.7-0.1,1c0,0.2,0,0.5,0,0.7c0,0.1,0,0.1-0.1,0.1
		c-0.3,0-0.7,0-1,0c-0.1,0-0.1,0-0.1-0.1c0-0.3,0-0.6,0-0.9c0-0.2,0-0.4,0-0.5c0,0,0-0.1,0-0.1c0-0.1,0.1-0.1,0.1-0.1
		C5.9,18.1,6.3,18.1,6.8,18.1C6.8,18.1,6.8,18.1,6.8,18.1z"/>
	<path class="st2" d="M10.2,25.3c0-0.1,0-0.2,0-0.3c0,0,0-0.1,0.1-0.1c0.2,0,0.3,0,0.5,0c0.1,0,0.1,0,0.1,0.1c0,0.1,0,0.2,0,0.3
		c0,0,0,0,0,0c0,0.4,0,0.8,0,1.2c0,0.3,0,0.7,0,1c0,0.1,0,0.1-0.1,0.1c-0.2,0-0.5,0-0.7,0c-0.1,0-0.1,0-0.1-0.1c0,0,0,0,0,0
		c0-0.3,0.1-0.6,0-0.9c0-0.1,0-0.2,0-0.3C10.1,26,10.1,25.6,10.2,25.3z"/>
	<path class="st2" d="M16.5,25.2c0-0.1,0-0.2,0-0.3c0,0,0-0.1,0.1-0.1c0.2,0,0.4,0,0.6,0c0.1,0,0.1,0,0.1,0.1c0,0.1,0,0.1,0,0.2
		c0,0.1,0,0.3,0,0.4c0,0.2-0.1,0.4-0.1,0.7c-0.1,0.3-0.1,0.6-0.1,0.8c0,0.1-0.1,0.2,0,0.3c0,0.2,0,0.2-0.2,0.2c-0.1,0-0.2,0-0.3,0
		c-0.2,0-0.2,0-0.2-0.2c0-0.1,0-0.2,0-0.2c0-0.2,0-0.5,0-0.7c0-0.1,0.1-0.2,0-0.2c0,0,0-0.1,0-0.1C16.4,25.9,16.5,25.5,16.5,25.2z"
		/>
	<path class="st2" d="M5.2,18.3c-0.1,0.1,0,0.1,0,0.2c0,0.4,0,0.8,0,1.2c0,0,0,0,0,0c0,0.3,0,0.3-0.3,0.3c-0.2,0-0.4,0-0.6,0
		c-0.1,0-0.1,0-0.1-0.1c-0.1-0.2-0.2-0.5-0.2-0.7c0,0,0-0.1,0-0.1c0-0.2,0-0.4,0-0.6c0-0.1,0-0.1,0.1-0.1c0.3,0,0.7,0,1-0.1
		C5.2,18.2,5.2,18.2,5.2,18.3z"/>
	<path class="st2" d="M9.1,18c0.2,0,0.4,0,0.5,0c0.1,0,0.1,0,0.1,0.1c0,0.4,0,0.8-0.1,1.1c0,0.2,0,0.4,0,0.6c0,0.1,0,0.1-0.1,0.1
		c-0.2,0-0.5,0-0.7,0c0,0,0,0-0.1,0c0,0,0-0.1,0-0.1c0-0.5,0-1.1,0-1.6c0,0,0-0.1,0-0.1C8.8,18,8.9,18,9.1,18z"/>
	<path class="st2" d="M2.7,18.7C2.8,19,2.9,19.3,3,19.6C3,19.7,3,19.8,3,19.9C3.1,19.9,3,20,3,20c-0.3,0-0.7,0-1,0.1
		c0,0-0.1,0-0.1-0.1c0-0.1,0-0.2-0.1-0.2c0-0.2-0.1-0.3-0.1-0.5c-0.1-0.2-0.1-0.4-0.2-0.6c0-0.1,0-0.1,0.1-0.1c0.3,0,0.7-0.1,1-0.1
		c0,0,0.1,0,0.1,0C2.7,18.5,2.7,18.6,2.7,18.7z"/>
	<path class="st2" d="M15.6,18.4c0,0,0.1,0,0.1,0c0.3,0,0.5,0.1,0.7,0.1c0.1,0,0.1,0.1,0.1,0.1c-0.1,0.3-0.2,0.6-0.2,0.9
		c-0.1,0.2-0.1,0.5-0.1,0.7c0,0.1,0,0.1-0.1,0.1c-0.1,0-0.3,0-0.4,0c-0.2,0-0.2,0-0.2-0.2c0-0.3,0-0.7,0-1c0-0.2,0-0.4,0-0.6
		c0-0.1,0-0.1,0.1-0.1C15.5,18.4,15.5,18.4,15.6,18.4z"/>
	<path class="st2" d="M14.5,24.2c0-0.1,0-0.2,0-0.3c0-0.2,0.1-0.5,0.1-0.7c0.1-0.4,0.1-0.9,0.2-1.3c0-0.3,0.1-0.6,0.1-0.9
		c0-0.1,0-0.1,0.1-0.1c0.1,0,0.1,0,0.1,0.1c0,0.8,0.1,1.5,0.2,2.3c0,0.3,0,0.6,0.1,0.9c0,0,0,0.1,0,0.1C15,24.2,14.8,24.3,14.5,24.2
		z"/>
	<path class="st2" d="M22.7,21.7c0.2,0,0.3,0,0.5,0c0,0,0,0,0,0.1c0,0.1,0,0.1,0,0.2c-0.1,0.3-0.1,0.6-0.1,0.8
		c0,0.2-0.1,0.4-0.2,0.6c-0.1,0.2-0.1,0.4-0.2,0.6c0,0.1-0.1,0.2-0.1,0.3c0,0.1,0,0.1-0.1,0.1c-0.1,0-0.2,0-0.4,0
		c-0.1,0-0.1,0-0.1-0.1c0-0.2,0.1-0.5,0.1-0.7c0.1-0.3,0.1-0.6,0.2-0.9C22.5,22.4,22.6,22.1,22.7,21.7
		C22.7,21.7,22.7,21.7,22.7,21.7z"/>
	<path class="st2" d="M4,27c0-0.5,0-1,0-1.4c0-0.1,0-0.2,0-0.3c0-0.1,0-0.1,0.1-0.1c0,0,0.1,0,0.2,0c0.1,0,0.1,0,0.2,0.1
		c0.1,0.4,0.2,0.7,0.2,1c0,0.2,0.1,0.3,0.1,0.5c0,0.1,0,0.2,0.1,0.4c0,0.2,0,0.3,0.1,0.5c0,0,0,0.1-0.1,0.1c-0.3,0-0.6,0-0.9,0
		c0,0,0,0,0,0c0-0.1,0-0.2,0-0.2C4,27.3,4,27.1,4,27z"/>
	<path class="st2" d="M6,26.4C6,26.2,6,26,6,25.8c0-0.2,0-0.4-0.1-0.6c0,0,0-0.1,0-0.1c0.1,0,0.1-0.1,0.2,0c0.1,0.2,0.1,0.3,0.2,0.5
		c0.1,0.2,0.2,0.4,0.3,0.6c0,0.1,0.1,0.2,0.1,0.3c0,0,0,0.1,0,0.1c0.1,0.3,0.2,0.5,0.2,0.8c0,0,0,0.1,0,0.1c0,0.1-0.1,0.1-0.2,0.1
		c-0.2,0-0.4,0-0.5,0c-0.1,0-0.1,0-0.1-0.1c0-0.3-0.1-0.5-0.1-0.8C6.1,26.6,6,26.5,6,26.4z"/>
	<path class="st2" d="M24.7,21.3C24.7,21.3,24.7,21.3,24.7,21.3c-0.3-0.1-0.4-0.1-0.6-0.1c-0.1,0-0.1,0-0.1-0.2
		c0.1-0.3,0.2-0.6,0.3-0.9c0-0.1,0.1-0.1,0.2-0.1c0.2,0.1,0.5,0.1,0.7,0.2c0,0,0,0,0.1,0c0.1,0,0.2,0,0.3,0.1c0.1,0,0.1,0,0.1,0.2
		c-0.1,0.2-0.2,0.4-0.3,0.5c0,0.1-0.1,0.2-0.1,0.3c0,0.1-0.1,0.1-0.1,0.1C25,21.3,24.8,21.3,24.7,21.3z"/>
	<path class="st2" d="M21.4,20.1c-0.1,0.2-0.1,0.3-0.2,0.5c0,0.1-0.1,0.2-0.2,0.2c-0.2,0-0.4,0-0.5-0.1c-0.1,0-0.1,0-0.1-0.1
		c0-0.2,0-0.5,0-0.7c0-0.2,0.1-0.5,0.1-0.7c0-0.1,0.1-0.1,0.1-0.1c0.2,0,0.3,0.1,0.5,0.1c0.1,0,0.2,0.1,0.3,0
		C21.5,19.6,21.5,19.9,21.4,20.1z"/>
	<path class="st2" d="M14.3,20.2c-0.1,0-0.2,0-0.3,0c0,0-0.1,0-0.1,0c-0.1,0-0.1,0-0.1-0.1c0.1-0.1,0-0.3,0.1-0.5
		c0.1-0.3,0.1-0.7,0.1-1c0-0.1,0-0.2,0-0.2c0-0.1,0-0.1,0.1-0.1c0,0,0.1,0,0.1,0c0.1,0,0.3,0,0.4,0c0.1,0,0.1,0,0.1,0.1
		c-0.1,0.6-0.1,1.2-0.2,1.8c0,0.1,0,0.1-0.1,0.1C14.5,20.2,14.4,20.2,14.3,20.2z"/>
	<path class="st2" d="M17.8,25.2c0-0.1,0-0.1,0-0.2c0-0.1,0-0.2,0.2-0.1c0.1,0,0.2,0,0.3,0c0.1,0,0.1,0,0.1,0.1c0,0.1-0.1,0.1,0,0.2
		c0,0.2-0.1,0.4-0.1,0.6c0,0.2-0.1,0.3,0,0.5c-0.1,0.1,0,0.2,0,0.3c0,0.3-0.1,0.6-0.1,0.9c0,0,0,0,0,0.1c0,0.1-0.1,0.2-0.2,0.1
		c0,0-0.1,0-0.1-0.1c0,0,0-0.1,0-0.1c0-0.3,0-0.5-0.1-0.8c0-0.1,0-0.2,0-0.4c0-0.2-0.1-0.4,0-0.6C17.7,25.5,17.8,25.4,17.8,25.2z"/>
	<path class="st2" d="M15.6,21c0.1,0.1,0.2,0,0.3,0c0.1,0,0.1,0,0.1,0.1c0,0.2-0.1,0.4-0.1,0.7c-0.1,0.5-0.1,1.1-0.1,1.6
		c0,0.2,0,0.5,0,0.7c0,0,0,0.1-0.1,0.1c-0.1-0.4-0.1-0.8-0.1-1.1c0-0.4-0.1-0.8-0.1-1.2c0-0.3,0-0.5-0.1-0.8
		C15.4,21,15.4,20.9,15.6,21C15.5,21,15.5,21,15.6,21z"/>
	<path class="st2" d="M8.4,18c0.1,0,0.1,0,0.1,0.1c0,0.1,0,0.3,0,0.4c0,0.4,0,0.8,0,1.2c0,0.1,0,0.1-0.1,0.1c-0.3,0-0.3,0-0.3-0.3
		c0-0.3-0.1-0.6-0.1-0.9c0-0.2-0.1-0.4-0.1-0.6c0-0.1,0-0.1,0.1-0.1C8,18.1,8.2,18.1,8.4,18z"/>
	<path class="st2" d="M3.6,18.4c0,0.2,0.1,0.4,0.1,0.7c0,0.2,0.1,0.5,0.1,0.7c0,0.1,0,0.1-0.1,0.1c-0.1,0-0.2,0-0.3,0
		c-0.1,0-0.1,0-0.1-0.1c-0.1-0.2-0.1-0.5-0.2-0.7c-0.1-0.2-0.1-0.4-0.2-0.6c0-0.2,0-0.2,0.2-0.2c0.1,0,0.2,0,0.4,0
		C3.5,18.3,3.5,18.3,3.6,18.4z"/>
	<path class="st2" d="M4.9,26.7c0-0.1,0-0.2,0-0.2c0-0.3-0.1-0.6-0.2-0.9c0-0.1-0.1-0.3-0.1-0.4c0,0,0-0.1,0.1-0.1c0,0,0,0,0,0
		c0.3,0,0.3,0,0.3,0.3c0,0.3,0.1,0.5,0.2,0.8c0,0.1,0,0.2,0.1,0.4c0,0,0,0.1,0,0.1c0,0.1,0,0.2,0.1,0.4c0,0.2,0.1,0.4,0.1,0.6
		c0,0.1,0,0.1-0.1,0.1c-0.1,0-0.1,0-0.2,0c-0.1,0-0.1,0-0.1-0.1c0-0.2,0-0.3-0.1-0.5C5,27,4.9,26.8,4.9,26.7z"/>
	<path class="st2" d="M5.4,26.6c0-0.2-0.1-0.4-0.1-0.5c0-0.1,0-0.2,0-0.3c0-0.2-0.1-0.4-0.1-0.6c0-0.1,0-0.1,0.1-0.1
		c0.3,0,0.3,0,0.3,0.3c0,0.3,0.1,0.6,0.1,0.9c0,0.1,0,0.1,0,0.2c0,0.1,0,0.2,0,0.4c0,0.2,0,0.3,0.1,0.5c0,0.1,0,0.2,0,0.3
		c0,0.1,0,0.1-0.1,0.1c-0.1,0-0.2,0.1-0.2-0.1c0-0.1,0-0.3-0.1-0.4c0-0.1,0-0.2-0.1-0.2C5.5,26.8,5.5,26.7,5.4,26.6z"/>
	<path class="st2" d="M20.5,27.5c0,0.1,0,0.1,0,0.2c0,0.1,0,0.1-0.1,0.1c-0.2,0-0.4,0-0.6,0c-0.1,0-0.1,0-0.1-0.1c0-0.1,0-0.1,0-0.2
		c0,0,0,0,0-0.1c0-0.1,0.1-0.3,0.1-0.4c0.1-0.3,0.1-0.5,0.2-0.8c0.1-0.3,0.1-0.5,0.2-0.8c0,0,0,0,0,0c0,0.3,0,0.5,0,0.8
		C20.4,26.6,20.5,27,20.5,27.5C20.5,27.5,20.5,27.5,20.5,27.5z"/>
	<path class="st1" d="M16.4,26.3c0.1,0.1,0,0.2,0,0.2c0,0.2,0,0.5,0,0.7c0,0.1,0,0.2,0,0.2c-0.2,0-0.4,0-0.7,0c0,0,0,0,0-0.1
		c0-0.2-0.1-0.4,0-0.6c0-0.2-0.1-0.3,0-0.5c0.1,0,0.3,0,0.4,0c0,0.1,0,0.2,0,0.3c0,0.1,0,0.2,0,0.3c0,0,0,0,0,0c0-0.1,0-0.1,0-0.2
		c0-0.1,0-0.3,0-0.4C16.2,26.3,16.3,26.3,16.4,26.3z"/>
	<path class="st2" d="M21.3,25.4c0-0.1,0-0.1,0-0.2c0-0.1,0-0.2,0.2-0.2c0,0,0.1,0,0.1,0c0,0.1,0,0.2,0,0.4
		c-0.1,0.2-0.1,0.4-0.1,0.5c0,0.1,0,0.1,0,0.2c0,0,0,0,0,0c0,0.3-0.1,0.6-0.1,0.9c0,0.1,0,0.3,0,0.4c-0.1,0.1,0,0.1,0,0.2
		c0,0,0,0.1,0,0.1c-0.1,0-0.2,0-0.3,0c0,0,0-0.1,0-0.1c0-0.1,0-0.1,0-0.2c0.1-0.1,0.1-0.2,0.1-0.3c0-0.2,0.1-0.5,0.1-0.7
		c0-0.1,0.1-0.2,0-0.3c0,0,0,0,0,0C21.2,25.9,21.2,25.6,21.3,25.4z"/>
	<path class="st1" d="M21.1,26.2c0,0.1,0,0.2,0,0.3c0,0.2-0.1,0.5-0.1,0.7c0,0.1,0,0.2-0.1,0.3c-0.1,0-0.3,0-0.4,0c0,0,0,0,0-0.1
		c0-0.4-0.1-0.8,0-1.2C20.7,26.2,20.9,26.2,21.1,26.2z"/>
	<path class="st2" d="M22.8,25.1c0.1,0.1,0,0.2,0,0.3c0,0.1,0,0.2,0,0.2c0,0,0,0.1,0,0.1c0,0.1,0,0.3,0,0.4c0,0,0,0,0,0
		c0,0.3-0.1,0.5,0,0.8c0,0.1,0,0.2,0,0.4c0,0.1,0,0.1,0,0.2c0,0.1,0,0.1,0,0.2c0,0.1,0,0.1-0.1,0.1c-0.1,0-0.2,0-0.4,0
		c-0.1,0-0.1,0-0.1-0.1c0-0.1,0.1-0.1,0-0.2c0,0,0,0,0-0.1c0-0.3,0.1-0.5,0.2-0.7c0-0.2,0.1-0.3,0.1-0.5c0,0,0-0.1,0-0.1
		c0.1-0.1,0.1-0.2,0.1-0.2C22.7,25.7,22.7,25.4,22.8,25.1C22.8,25.2,22.8,25.1,22.8,25.1z"/>
	<path class="st1" d="M19.4,27.5c-0.2,0-0.4,0-0.6,0c0,0,0-0.1,0-0.1c0-0.1,0-0.2,0-0.3c0-0.3-0.1-0.5-0.1-0.8c0.1,0,0.2,0,0.3,0
		c0.1,0.3,0,0.7,0.1,1c0,0,0,0,0,0c0-0.3,0.1-0.6,0.1-0.9c0,0,0-0.1,0-0.1c0.1,0,0.2,0,0.3,0c0,0.1,0,0.1,0,0.2
		c0,0.2-0.1,0.3-0.1,0.5C19.5,27.1,19.5,27.2,19.4,27.5C19.5,27.4,19.5,27.5,19.4,27.5z"/>
	<path class="st1" d="M17.7,26.3c0,0.1,0,0.2,0,0.4c0,0.3,0.1,0.5,0.1,0.8c-0.1,0-0.2,0-0.2,0c0-0.2,0-0.3-0.1-0.5
		c-0.1,0.2-0.1,0.4-0.1,0.5c-0.1,0-0.3,0-0.4,0c0-0.1,0-0.2,0-0.3c0-0.3,0.1-0.6,0.1-0.8C17.4,26.3,17.6,26.3,17.7,26.3z"/>
	<path class="st2" d="M13.4,25.2c0-0.1,0-0.2,0.1-0.4c0,0.1,0,0.3,0.1,0.4c0,0,0,0.1,0,0.1c0,0.3,0.1,0.7,0.1,1c0,0.1,0,0.3,0.1,0.4
		c0,0.2,0.1,0.4,0,0.6c0,0,0,0.1,0,0.1c0,0,0,0,0,0c0,0.2-0.1,0.1-0.2,0.1c0,0,0,0-0.1,0c-0.2,0-0.2,0-0.2-0.1c0.1-0.4,0-0.7,0-1.1
		C13.4,26,13.4,25.6,13.4,25.2z"/>
	<path class="st1" d="M21.3,27.5c0-0.1,0-0.3,0-0.4c0-0.3,0.1-0.6,0.1-0.9c0,0,0,0,0,0c0.2,0,0.4,0,0.5,0c0,0.1,0,0.1,0,0.2
		c0,0.2-0.1,0.4-0.1,0.6c0,0.2-0.1,0.4-0.1,0.5c0,0,0,0,0,0.1c0,0-0.1,0-0.1,0c0-0.1,0-0.3,0-0.4c0,0,0,0,0,0c0,0.1-0.1,0.3-0.1,0.4
		C21.5,27.5,21.4,27.5,21.3,27.5z"/>
	<path class="st2" d="M19.4,27.5C19.5,27.5,19.5,27.4,19.4,27.5c0-0.2,0.1-0.4,0.1-0.5c0-0.2,0-0.3,0.1-0.5c0-0.1,0-0.1,0-0.2
		c0-0.3,0.1-0.5,0.1-0.8c0-0.1,0-0.1,0-0.2c0.1-0.1,0-0.1,0-0.2c0-0.1,0-0.1,0.1-0.1c0.1,0,0.1,0,0.2,0c0.1,0,0.1,0,0.1,0.1
		c0,0.1-0.1,0.1,0,0.2c0,0.1-0.1,0.2-0.1,0.3c-0.1,0.2-0.1,0.4-0.1,0.6c0,0,0,0,0,0.1c0,0.2-0.1,0.4-0.1,0.6c0,0.2-0.1,0.4-0.1,0.6
		c0,0,0,0.1,0,0.1c0,0.1,0,0.1-0.1,0.1c-0.1,0-0.1-0.1-0.1-0.1C19.4,27.6,19.4,27.5,19.4,27.5z"/>
	<path class="st2" d="M21.8,27.5C21.8,27.5,21.9,27.5,21.8,27.5c0-0.2,0.1-0.4,0.1-0.6c0-0.2,0-0.4,0.1-0.6c0-0.1,0-0.1,0-0.2
		c0-0.3,0.1-0.6,0.1-1c0-0.1,0-0.1,0.1-0.1c0.1,0,0.2,0,0.3,0c0.1,0,0.1,0,0.1,0.1c-0.1,0.2-0.1,0.5-0.2,0.7c0,0.1,0,0.2,0,0.2
		c-0.1,0.2-0.1,0.4-0.1,0.5C22.1,26.8,22,27,22,27.2c0,0.1-0.1,0.2,0,0.3c-0.1,0.1,0,0.2-0.1,0.2c0,0,0,0.1-0.1,0.1
		c-0.1,0,0-0.1,0-0.1C21.8,27.6,21.8,27.6,21.8,27.5z"/>
	<path class="st2" d="M8.5,21.5c0,0.4,0.1,0.8,0.1,1.3c0,0.4,0.1,0.8,0.1,1.2c0,0.1,0,0.2,0,0.3c0,0,0,0.1-0.1,0.1
		c0-0.2-0.1-0.4-0.1-0.6c-0.1-0.4-0.1-0.8-0.2-1.3c-0.1-0.4-0.1-0.8-0.2-1.2c0-0.2-0.1-0.4-0.1-0.6c0-0.1,0-0.1,0.1-0.1
		c0.2,0,0.2,0,0.2,0.2C8.4,21,8.5,21.3,8.5,21.5C8.5,21.5,8.5,21.5,8.5,21.5z"/>
	<path class="st2" d="M21.6,24.4C21.6,24.4,21.5,24.4,21.6,24.4c-0.2,0-0.1-0.1-0.1-0.2c0.1-0.3,0.1-0.6,0.1-0.9c0,0,0,0,0,0.1
		c0,0,0,0,0,0c0-0.4,0.1-0.8,0.1-1.1c0-0.2,0-0.4,0.1-0.6c0,0,0-0.1,0.1-0.1c0.1,0,0.1,0.1,0.1,0.1c0,0.4-0.1,0.9-0.1,1.3
		c0,0.4-0.1,0.8,0,1.2c0,0,0,0.1,0,0.1C21.7,24.4,21.7,24.4,21.6,24.4z"/>
	<path class="st2" d="M9.7,25.3c0-0.1,0-0.2,0-0.3c0-0.1,0-0.1,0.1-0.1c0.2,0,0.2,0,0.2,0.2c0,0.1,0,0.1,0,0.2c0,0.1,0,0.3,0,0.4
		c0,0.3-0.1,0.6,0,0.8c0,0.3-0.1,0.6,0,0.9c0,0,0,0.1,0,0.1c0,0.1,0,0.1-0.1,0.1c0,0-0.1,0-0.1-0.1c0,0,0-0.1-0.1-0.1
		c0.1,0,0.1-0.1,0.1-0.1c0-0.2,0-0.4,0-0.5c0-0.1,0-0.2,0-0.2c0,0,0,0,0-0.1C9.7,26.1,9.7,25.7,9.7,25.3z"/>
	<path class="st2" d="M22.7,19.6c0,0.1,0.1,0,0.1,0.1c0,0,0.1,0,0.1,0.1c-0.1,0.2-0.1,0.4-0.2,0.5c0,0.1,0,0.1,0,0.2
		c-0.1,0-0.1,0.1-0.1,0.2c0,0.1-0.1,0.2-0.1,0.3c0,0.1-0.1,0.1-0.2,0.1c-0.1,0-0.1-0.1-0.1-0.1c0-0.3,0-0.7,0.1-1c0-0.1,0-0.2,0-0.3
		c0-0.1,0-0.1,0.1-0.1C22.5,19.6,22.6,19.6,22.7,19.6z"/>
	<path class="st1" d="M13.4,26.4c0,0.4,0,0.7,0,1.1c0,0,0,0-0.1,0c0,0,0,0,0,0c-0.1,0-0.2,0-0.3,0c0,0,0,0,0-0.1
		c0-0.3-0.1-0.7-0.1-1C13,26.4,13.2,26.4,13.4,26.4z"/>
	<path class="st1" d="M18.1,27.5c0-0.3,0-0.6,0.1-0.9c0-0.1,0-0.2,0-0.3c0.1,0,0.2,0,0.4,0c0,0,0,0,0,0c0,0.4-0.1,0.8-0.1,1.1
		C18.4,27.5,18.2,27.5,18.1,27.5z"/>
	<path class="st1" d="M7,27.5C6.9,27.5,6.9,27.5,7,27.5c0-0.4-0.1-0.6-0.2-0.9c0,0,0-0.1,0-0.1c0,0,0.1,0,0.1,0c0,0,0.1,0,0.1,0
		c0.1,0,0.3-0.1,0.4-0.1c0,0.4,0,0.8,0,1.2C7.2,27.5,7.1,27.5,7,27.5z"/>
	<path class="st1" d="M13.8,27.4C13.7,27.4,13.7,27.4,13.8,27.4c0-0.3,0-0.5-0.1-0.7c0-0.1,0-0.3-0.1-0.4c0.2,0,0.3,0,0.5,0
		c0,0.1,0,0.3,0,0.4c0,0.3-0.1,0.5-0.1,0.8c0-0.1,0,0-0.1,0C13.9,27.4,13.8,27.4,13.8,27.4z"/>
	<path class="st2" d="M18.5,27.5c0.1-0.4,0.1-0.8,0.1-1.1c0,0,0,0,0,0c0,0,0-0.1,0-0.1c0-0.1,0-0.3,0.1-0.4c0,0.2,0,0.4,0.1,0.5
		c0,0.3,0,0.5,0.1,0.8c0,0.1,0,0.2,0,0.3c0,0,0,0.1,0,0.1c0,0,0,0,0,0c0,0.1,0,0.1,0,0.2c-0.1,0-0.2,0-0.3,0c0,0,0,0,0-0.1
		C18.5,27.6,18.5,27.5,18.5,27.5z"/>
	<path class="st1" d="M22,27.5c0-0.1,0-0.2,0-0.3c0-0.2,0.1-0.4,0.1-0.5c0.1-0.2,0.1-0.4,0.1-0.5c0.1,0,0.2,0,0.3,0c0,0,0,0.1,0,0.1
		c-0.1,0.1-0.1,0.3-0.1,0.5c-0.1,0.2-0.1,0.5-0.2,0.7c0,0,0,0,0,0.1C22.1,27.5,22,27.5,22,27.5z"/>
	<path class="st1" d="M22.7,27.5c0-0.1,0-0.1,0-0.2c0-0.1,0-0.2,0-0.4c0-0.3,0-0.5,0-0.8c0,0,0,0,0,0c0.1,0.1,0.1,0.2,0.2,0.2
		c0,0.4,0,0.8-0.1,1.1C22.9,27.6,22.8,27.5,22.7,27.5z"/>
	<path class="st1" d="M9.6,26.6c0,0.1,0,0.2,0,0.2c0,0.2,0,0.4,0,0.5c0,0,0,0.1-0.1,0.1c-0.1,0-0.2,0-0.3,0c0-0.2-0.1-0.4-0.1-0.6
		c0-0.1-0.1-0.2-0.1-0.3C9.3,26.6,9.5,26.6,9.6,26.6z"/>
	<path class="st1" d="M19.7,27.5c0-0.2,0-0.4,0.1-0.6c0-0.2,0.1-0.4,0.1-0.6c0,0,0,0,0-0.1c0.1,0,0.2,0,0.3,0
		C20.1,26.5,20,26.7,20,27c0,0.1-0.1,0.3-0.1,0.4c0,0,0,0.1,0,0.1C19.8,27.5,19.7,27.5,19.7,27.5z"/>
	<path class="st2" d="M11.2,25.3c0-0.1,0-0.2,0-0.3c0-0.1,0-0.1,0.1-0.1c0.1,0,0.1,0,0.1,0.1c0,0.1,0,0.2,0,0.3c0,0.1,0,0.1,0,0.2
		c0,0.3-0.1,0.7,0,1c-0.1,0.3,0,0.7,0,1c0,0,0,0.1,0,0.1c0,0,0-0.1,0-0.1c0-0.3,0-0.6,0-1c0,0,0,0,0,0
		C11.2,26.1,11.2,25.7,11.2,25.3z"/>
	<path class="st2" d="M21.8,20.4c0-0.3,0-0.6,0.1-0.9c0,0,0-0.1,0.1-0.1c0.1,0,0.1,0.1,0.1,0.1c0,0.3-0.1,0.6-0.1,1
		c0,0.1,0,0.2,0,0.3c0,0.1,0,0.1-0.1,0.1c-0.1,0-0.1,0-0.1-0.1C21.8,20.7,21.8,20.5,21.8,20.4z"/>
	<path class="st1" d="M11.2,27.5c0-0.3,0-0.7,0-1c0.1,0,0.2,0,0.3,0c0,0.3,0,0.7,0,1C11.4,27.5,11.3,27.5,11.2,27.5z"/>
	<path class="st2" d="M9.2,25.3c0-0.1,0-0.2,0-0.3c0-0.1,0-0.1,0.1-0.1c0,0,0.1,0,0.1,0c0.1,0,0.1,0,0.1,0.1c0,0.1,0,0.2,0,0.3
		c0,0.4,0,0.7,0,1.1c0,0,0,0.1,0,0.1c0,0,0,0,0,0C9.3,26.1,9.3,25.7,9.2,25.3z"/>
	<path class="st1" d="M11.2,26.5C11.2,26.5,11.2,26.5,11.2,26.5c0,0.4,0,0.7,0,1c-0.1,0-0.1,0-0.2,0c-0.1-0.3,0-0.7,0-1
		C11,26.5,11.1,26.5,11.2,26.5z"/>
	<path class="st2" d="M16.1,26.3c0,0.1,0,0.3,0,0.4c0,0.1,0,0.1,0,0.2c0,0,0,0,0,0c0-0.1,0-0.2,0-0.3c0-0.1,0-0.2,0-0.3
		c0-0.1,0-0.1,0-0.2c0-0.3,0-0.6,0-0.9c0-0.1,0-0.2,0-0.2c0,0,0-0.1,0.1-0.1c0.1,0,0.1,0,0.1,0.1c0,0.1,0,0.1,0,0.2c0,0,0,0,0,0
		C16.1,25.6,16.1,26,16.1,26.3z"/>
	<path class="st2" d="M14.9,20.2c0-0.6,0.1-1.2,0.1-1.8c0,0,0-0.1,0.1-0.1c0.1,0,0.1,0.1,0,0.1c-0.1,0.6-0.1,1.2-0.1,1.7
		C15.1,20.2,15.1,20.3,14.9,20.2C14.9,20.3,14.9,20.2,14.9,20.2z"/>
	<path class="st1" d="M9.8,27.5c0-0.3,0-0.6,0-0.9c0.1,0,0.1,0,0.2,0c0,0.3-0.1,0.6,0,0.9c0,0,0,0,0,0C9.9,27.5,9.9,27.5,9.8,27.5z"
		/>
	<path class="st1" d="M5.9,27.5c-0.1-0.1,0-0.2,0-0.3c0-0.1-0.1-0.3-0.1-0.5c0.1,0,0.2-0.1,0.2-0.1c0,0.3,0.1,0.5,0.1,0.8
		C6.1,27.5,6,27.5,5.9,27.5z"/>
	<path class="st1" d="M9.1,27.5C9,27.4,9,27.3,9,27.2C9,27,8.9,26.8,9,26.6c0.1,0,0.1,0,0.2,0c0,0.1,0.1,0.3,0.1,0.5
		c0,0.1,0.1,0.3,0.1,0.4C9.2,27.5,9.2,27.5,9.1,27.5z"/>
	<path class="st1" d="M5.5,26.9c0.1,0.1,0,0.2,0.1,0.2c0,0.1,0,0.2,0.1,0.4c-0.1,0-0.1,0-0.2,0c-0.1-0.2-0.1-0.4-0.1-0.6
		C5.4,27,5.4,26.9,5.5,26.9z"/>
	<path class="st2" d="M7.7,19.9c-0.1,0-0.2,0-0.2-0.1c0-0.1,0-0.1,0-0.2c0-0.2,0-0.4,0-0.6c0,0,0,0,0-0.1c0.1,0.1,0,0.2,0.1,0.2
		c0,0.2,0,0.4,0.1,0.6C7.8,19.9,7.8,19.9,7.7,19.9z"/>
	<path class="st2" d="M17.4,27.5c0.1-0.2,0-0.3,0.1-0.5c0,0.2,0,0.4,0.1,0.5c0,0,0,0,0,0.1c0,0,0,0.1,0,0.1c0,0-0.1,0-0.1,0
		c0,0,0,0,0-0.1C17.4,27.6,17.4,27.5,17.4,27.5z"/>
	<path class="st1" d="M5,27.1C5,27.2,5,27.4,5.1,27.6c0,0-0.1,0-0.1,0c-0.1-0.1-0.1-0.3-0.1-0.5C4.9,27.1,4.9,27.1,5,27.1z"/>
	<path class="st2" d="M9.3,27.5c0-0.1,0-0.3-0.1-0.4c0-0.2,0-0.3-0.1-0.5c0,0,0,0,0,0c0,0.1,0,0.2,0.1,0.3
		C9.3,27.1,9.3,27.3,9.3,27.5c0.1,0,0.1,0.1,0.1,0.1C9.3,27.6,9.3,27.5,9.3,27.5z"/>
	<path class="st2" d="M21.6,27.5c0-0.1,0.1-0.3,0.1-0.4c0,0,0,0,0,0C21.7,27.2,21.7,27.4,21.6,27.5c0.1,0.1,0.1,0.1,0.1,0.2
		c0,0,0,0.1-0.1,0.1c-0.1,0,0-0.1,0-0.1C21.6,27.6,21.6,27.6,21.6,27.5z"/>
	<path class="st2" d="M22.2,22.1c0-0.2,0-0.3,0-0.5c0,0,0-0.1,0.1,0c0,0,0.1,0,0,0.1C22.3,21.8,22.3,22,22.2,22.1z"/>
	<path class="st1" d="M4,27.4c0,0.1,0,0.2,0,0.2c-0.1,0-0.1,0-0.2,0c0-0.1,0-0.1,0-0.2C3.9,27.4,3.9,27.4,4,27.4z"/>
	<path class="st1" d="M24,27.2c0-0.3,0-0.6,0-0.9c0,0,0,0,0,0.1c0,0.1,0,0.3,0,0.4C24,27,24,27.1,24,27.2C24,27.2,24,27.2,24,27.2z"
		/>
	<path class="st2" d="M3.9,18.4c0,0,0,0.1-0.1,0.1c0,0,0-0.1-0.1-0.1c0,0,0,0,0-0.1c0-0.1,0-0.1,0.1-0.1C3.9,18.3,3.8,18.3,3.9,18.4
		C3.9,18.4,3.9,18.4,3.9,18.4z"/>
	<path class="st1" d="M24,27.7C24,27.7,24,27.6,24,27.7C24,27.6,24.1,27.7,24,27.7C24.1,27.7,24,27.7,24,27.7z"/>
	<path class="st1" d="M3.6,27.7c0.1,0,0.1,0,0.2,0C3.7,27.7,3.6,27.7,3.6,27.7C3.6,27.7,3.6,27.7,3.6,27.7
		C3.6,27.7,3.6,27.7,3.6,27.7z"/>
	<path class="st2" d="M21.6,24.7C21.6,24.7,21.6,24.7,21.6,24.7C21.6,24.7,21.6,24.7,21.6,24.7C21.6,24.7,21.6,24.7,21.6,24.7z"/>
	<path class="st2" d="M21.5,23.2C21.5,23.2,21.5,23.2,21.5,23.2C21.5,23.2,21.5,23.2,21.5,23.2z"/>
	<polygon class="st2" points="3.7,18.4 3.7,18.4 3.7,18.4 	"/>
	<path class="st2" d="M13.3,27.5C13.3,27.5,13.3,27.5,13.3,27.5C13.3,27.5,13.3,27.5,13.3,27.5z"/>
	<path class="st0" d="M16.1,12.9c0,0.6,0,1.1,0,1.6c0,0,0,0,0,0c0,0,0,0.1,0,0.1c0,0,0,0,0-0.1c0-0.2,0-0.3-0.1-0.5
		c-0.1-0.9-0.2-1.8-0.3-2.8c0-0.1,0-0.2,0-0.3c0-0.1,0-0.1,0.1-0.1c0.1,0,0.1,0,0.2,0.1c0.1,0.1,0.1,0.2,0.1,0.2
		C16,11.7,16,12.3,16.1,12.9z"/>
	<path class="st0" d="M13.5,14.3c0,0,0-0.1,0-0.1c-0.1-1.1-0.2-2.1-0.3-3.2c0-0.1,0-0.2,0.1-0.2c0.1,0,0.1,0,0.2,0.1
		c0,0.2,0.1,0.3,0.1,0.5c0.1,0.8,0.1,1.7,0,2.6C13.6,14.1,13.6,14.2,13.5,14.3C13.5,14.3,13.5,14.3,13.5,14.3z"/>
	<path class="st2" d="M19.2,24.3c-0.1,0-0.2,0-0.2,0c-0.1,0-0.1,0-0.1-0.1c0-0.2,0.1-0.4,0.1-0.6c0-0.1,0-0.2,0.1-0.3
		c0.1-0.4,0.1-0.7,0.2-1.1c0-0.3,0.1-0.5,0.2-0.8c0,0,0-0.1,0.1-0.1c0.1,0,0.3,0,0.4,0c0.1,0,0,0.1,0,0.1c0,0.2,0,0.3-0.1,0.5
		c0,0.3-0.1,0.5-0.1,0.8c0,0.2-0.1,0.5-0.1,0.7c0,0.2-0.1,0.3-0.1,0.5c0,0.1,0,0.3,0,0.4c0,0.1,0,0.1-0.1,0.1
		C19.4,24.3,19.3,24.3,19.2,24.3C19.2,24.3,19.2,24.3,19.2,24.3z"/>
	<path class="st2" d="M17.5,24.2c-0.1-0.2-0.1-0.4-0.1-0.6c-0.1-0.4-0.1-0.8-0.1-1.2c0-0.4-0.1-0.8-0.1-1.2c0-0.1,0-0.1,0.1-0.1
		c0.2,0,0.5,0,0.7,0.1c0.1,0,0.1,0,0.1,0.1c-0.1,0.3-0.1,0.6-0.2,0.9c-0.1,0.3-0.1,0.5-0.1,0.8c-0.1,0.3-0.1,0.5-0.2,0.8
		C17.6,23.9,17.6,24,17.5,24.2C17.5,24.2,17.5,24.2,17.5,24.2z"/>
	<path class="st2" d="M18.1,19c0,0.4,0,0.8,0,1.2c0,0.1,0,0.1,0,0.2c0,0.1,0,0.1-0.1,0.1c-0.3,0-0.6-0.1-0.9-0.1
		c-0.1,0-0.1,0-0.1-0.1c0-0.2,0-0.3,0.1-0.5c0-0.1,0-0.2,0.1-0.3c0-0.2,0.1-0.4,0.1-0.6c0-0.1,0-0.1,0-0.2c0,0,0,0,0.1,0
		c0.2,0,0.3,0,0.5,0.1c0,0,0,0,0,0c0.1,0,0.1,0,0.2,0.1C18.1,18.9,18.1,18.9,18.1,19z"/>
	<path class="st2" d="M19,20.6c-0.1,0-0.1,0-0.2,0c-0.1,0-0.1,0-0.1-0.2c0.1-0.1,0-0.3,0.1-0.5c0.1-0.3,0.1-0.5,0.1-0.8
		c0-0.1,0-0.1,0-0.2c0-0.1,0-0.1,0.1-0.1c0.2,0,0.3,0.1,0.5,0.1c0.1,0,0.1,0.1,0.1,0.2c0,0.2-0.1,0.3-0.1,0.5
		c-0.1,0.2-0.1,0.4-0.1,0.6c0,0.1-0.1,0.2-0.1,0.3C19.2,20.6,19.2,20.6,19,20.6C19,20.6,19,20.6,19,20.6z"/>
	<path class="st2" d="M16.9,24.3c-0.1,0-0.1,0-0.2,0c-0.1,0-0.1,0-0.1-0.1c0-0.2,0-0.5,0.1-0.7c0-0.2,0-0.3,0-0.5
		c0-0.4,0.1-0.8,0.1-1.2c0,0,0,0,0,0c0,0,0,0,0,0c0,0.1,0,0.3,0,0.4c0,0.2,0,0.4,0.1,0.6c0,0.3,0.1,0.6,0.1,0.9
		c0,0.2,0.1,0.3,0.1,0.5c0,0.1,0,0.1-0.1,0.1C17,24.3,16.9,24.3,16.9,24.3C16.9,24.3,16.9,24.3,16.9,24.3z"/>
	<path class="st0" d="M20.2,26.2c-0.1,0-0.2,0-0.3,0c0-0.2,0.1-0.4,0.1-0.6c0-0.1,0-0.2,0.1-0.3c0.2,0,0.4,0,0.6,0
		c0,0.3,0,0.5,0.1,0.8c0,0,0,0,0,0c0-0.3,0.1-0.5,0.1-0.8c0.1,0,0.2,0,0.4,0c0,0.3-0.1,0.5-0.1,0.8c0,0,0,0,0,0c-0.2,0-0.5,0-0.7,0
		c0-0.3,0-0.5,0-0.8c0,0,0,0,0,0C20.3,25.7,20.2,26,20.2,26.2z"/>
	<path class="st0" d="M18.8,26.3c-0.1-0.2,0-0.3-0.1-0.5c0,0.2-0.1,0.3-0.1,0.4c0,0,0,0.1,0,0.1c-0.1,0-0.2,0-0.4,0
		c0-0.2,0-0.3,0-0.5c0-0.2,0.1-0.4,0.1-0.6c0.2,0,0.4,0,0.6,0c0,0.3,0.1,0.7,0.1,1C18.9,26.3,18.8,26.3,18.8,26.3z"/>
	<path class="st2" d="M16.1,24c0-0.5,0.1-1,0.1-1.5c0-0.5,0.1-0.9,0.1-1.4c0-0.1,0.1-0.1,0.1-0.1c0.1,0,0.1,0,0.1,0.1
		c0,0.2-0.1,0.5-0.1,0.7c0,0.2,0,0.3-0.1,0.5c-0.1,0.4-0.1,0.9-0.2,1.3c0,0.2,0,0.4,0,0.5c0,0,0,0.1-0.1,0.1c-0.1,0-0.1-0.1-0.1-0.1
		C16.1,24.1,16.1,24.1,16.1,24z"/>
	<path class="st2" d="M19,26.3c0-0.3-0.1-0.7-0.1-1c0-0.1,0-0.1,0-0.2c0-0.1,0-0.1,0.1-0.1c0.1,0,0.2,0,0.3,0c0.1,0,0.2,0,0.1,0.2
		c0,0,0,0.1,0,0.1c0,0.2,0,0.5-0.1,0.7c0,0.1,0,0.2,0,0.3c0,0,0,0,0,0.1c0,0.3-0.1,0.6-0.1,0.9c0,0,0,0,0,0
		C19.1,27,19.1,26.6,19,26.3z"/>
	<path class="st2" d="M21.3,21.8c-0.1,0.2,0,0.4-0.1,0.6c0,0.1,0,0.3-0.1,0.4c0,0.2,0,0.4-0.1,0.6c0,0.3-0.1,0.6-0.1,0.9
		c0,0,0,0,0,0c-0.1,0.1-0.2,0-0.3,0c-0.1,0-0.1,0-0.1-0.1c0-0.1,0-0.3,0.1-0.4c0.1-0.3,0.1-0.5,0.2-0.8c0.1-0.2,0.1-0.5,0.2-0.7
		C21.2,22.2,21.2,22,21.3,21.8z"/>
	<path class="st2" d="M20.1,22.1c0.1,0.2,0,0.5,0.1,0.7c0,0.3,0,0.6,0.1,1c0,0.2,0,0.3,0,0.5c0,0.1,0,0.1-0.1,0.1
		c-0.1,0-0.2,0-0.3,0c-0.1,0-0.1,0-0.1-0.1c0-0.2,0.1-0.4,0.1-0.6c0-0.1,0-0.3,0.1-0.4c0-0.3,0.1-0.6,0.1-0.9
		C20.1,22.3,20.1,22.2,20.1,22.1z"/>
	<path class="st2" d="M20.1,20.3c0,0.1,0,0.2,0,0.3c0,0.1,0,0.1-0.1,0.1c-0.1,0-0.2,0-0.3,0c-0.1,0-0.1,0-0.1-0.1
		c0-0.2,0.1-0.4,0.1-0.5c0-0.1,0-0.2,0.1-0.3c0-0.2,0.1-0.4,0.1-0.7c0,0,0-0.1,0.1,0c0.1,0,0.1,0,0.1,0.1c0,0,0,0.1,0,0.1
		C20,19.6,20,20,20.1,20.3z"/>
	<path class="st2" d="M20.6,23.1c-0.1-0.5-0.1-1-0.1-1.4c0-0.2,0-0.2,0.2-0.2c0.1,0,0.2,0,0.3,0c0.1,0,0.1,0,0.1,0.1
		c-0.1,0.2-0.1,0.4-0.2,0.6c0,0.2-0.1,0.4-0.1,0.5C20.7,22.8,20.7,22.9,20.6,23.1z"/>
	<path class="st0" d="M17.7,26.3c-0.2,0-0.4,0-0.5,0c0-0.2,0.1-0.4,0.1-0.7c0-0.1,0-0.3,0-0.4c0.2,0,0.3,0,0.5,0
		c0,0.2,0,0.3-0.1,0.5C17.7,25.9,17.7,26.1,17.7,26.3z"/>
	<path class="st2" d="M18.3,22.6c0,0.2,0.1,0.4,0.1,0.7c0,0.2,0,0.5,0.1,0.7c0,0.1,0,0.1,0,0.2c0,0.1,0,0.1-0.1,0.1
		c-0.1,0-0.2,0-0.3,0c-0.1,0-0.1,0-0.1-0.1c0-0.1,0-0.2,0.1-0.3c0.1-0.3,0.1-0.6,0.2-0.9C18.2,22.8,18.3,22.7,18.3,22.6z"/>
	<path class="st2" d="M18.6,21.2c0.1,0,0.2,0,0.4,0c0.1,0,0.1,0,0.1,0.1c-0.1,0.4-0.2,0.8-0.3,1.2c0,0.1,0,0.2,0,0.3
		c0,0,0,0.1,0,0.1c0,0,0,0,0-0.1c0-0.3-0.1-0.7-0.1-1c0-0.1,0-0.3,0-0.4C18.5,21.2,18.5,21.2,18.6,21.2z"/>
	<path class="st0" d="M16.1,26.3c0-0.4,0-0.7,0-1.1c0,0,0,0,0,0c0.1,0,0.2,0,0.3,0c0,0.3-0.1,0.7-0.1,1c0,0,0,0.1,0,0.1
		C16.3,26.3,16.2,26.3,16.1,26.3z"/>
	<path class="st0" d="M19.3,26.3c0-0.1,0-0.2,0-0.3c0-0.2,0-0.5,0.1-0.7c0.1,0,0.2,0,0.3,0c0,0.1,0,0.1,0,0.2c0,0.3-0.1,0.5-0.1,0.8
		C19.5,26.3,19.4,26.3,19.3,26.3z"/>
	<path class="st2" d="M16.7,18.9c0,0,0,0.1,0,0.1c0,0.4,0,0.8,0,1.2c0,0.1,0,0.1-0.1,0.1c0,0,0,0,0,0c-0.2,0-0.2,0-0.1-0.2
		c0-0.1,0-0.2,0-0.3C16.6,19.5,16.6,19.2,16.7,18.9C16.7,18.9,16.7,18.9,16.7,18.9z"/>
	<path class="st2" d="M18.4,19.8c0-0.3,0-0.6-0.1-0.9c0-0.1,0.1-0.1,0.1-0.1c0.1,0,0.1,0,0.1,0.1C18.5,19.2,18.5,19.5,18.4,19.8z"/>
	<path class="st2" d="M20.9,25.4c0,0.3-0.1,0.5-0.1,0.8c0,0,0,0,0,0c0-0.3,0-0.5-0.1-0.8c0-0.1,0-0.2,0-0.3c0-0.1,0.1-0.1,0.1-0.1
		c0.1,0,0.1,0,0.1,0.1C20.9,25.2,20.9,25.3,20.9,25.4z"/>
	<path class="st2" d="M17,19.1c0-0.2,0-0.3-0.1-0.5c0,0,0,0,0.1-0.1c0.1,0,0.1,0,0.1,0.1C17,18.8,17,19,17,19.1z"/>
	<path class="st2" d="M9.5,20.8c-0.1,1.1-0.1,2.3-0.1,3.4c0,0.1,0,0.1-0.1,0.1c0,0,0,0-0.1,0c-0.3,0-0.2,0-0.2-0.2
		C9,23.7,9,23.3,8.9,23c0-0.2,0-0.4,0-0.6c0-0.3,0-0.5-0.1-0.8c0-0.3-0.1-0.7-0.1-1c0-0.1,0-0.1,0.1-0.1c0.2,0,0.4,0,0.6,0
		c0,0,0.1,0,0.1,0.1C9.5,20.7,9.5,20.8,9.5,20.8z"/>
	<path class="st2" d="M11,20.7c-0.1,0.7-0.1,1.4-0.1,2.1c0,0.4,0,0.8,0,1.2c0,0,0,0.1,0,0.1c0,0.1,0,0.1-0.1,0.1c-0.1,0-0.3,0-0.4,0
		c-0.1,0-0.1,0-0.1-0.1c0-0.1,0-0.1,0-0.2c0-0.5,0.1-0.9,0.1-1.4c0-0.5,0.1-1.1,0.1-1.6c0-0.1,0-0.1,0-0.2c0-0.1,0-0.1,0.1-0.1
		c0.1,0,0.2,0,0.3,0C11,20.6,11,20.7,11,20.7z"/>
	<path class="st2" d="M11.2,23.2c0-0.6,0-1.3,0.1-1.9c0-0.2,0-0.4,0-0.5c0-0.1,0-0.1,0.1-0.1c0.2,0,0.3,0,0.5,0
		c0.1,0,0.1,0.1,0.1,0.1c-0.1,0.3-0.1,0.6-0.2,0.8c0,0.2-0.1,0.4-0.1,0.7c0,0.3-0.1,0.5-0.1,0.8c0,0.1,0,0.3,0,0.4
		c0,0.2-0.1,0.4-0.1,0.6c0,0.1,0,0.1-0.1,0.1c-0.2,0-0.2,0-0.2-0.2C11.2,23.8,11.2,23.5,11.2,23.2z"/>
	<path class="st2" d="M12.8,18.3c0-0.2,0-0.2,0.2-0.2c0.3,0,0.5,0,0.8,0.1c0.1,0,0.1,0.1,0.1,0.1c0,0.2-0.1,0.4-0.1,0.6
		c0,0.2,0,0.3-0.1,0.5c0,0.2-0.1,0.4-0.1,0.7c0,0.1,0,0.1-0.1,0.1c-0.1,0-0.3,0-0.4,0c0,0-0.1,0-0.1-0.1c0-0.1,0-0.2,0-0.3
		C12.9,19.3,12.9,18.8,12.8,18.3z"/>
	<path class="st2" d="M9.7,23.4c0-0.3,0-0.5,0-0.8c0-0.6,0.1-1.2,0.1-1.9c0-0.1,0-0.1,0.1-0.1c0.1,0,0.2,0,0.3,0
		c0.1,0,0.1,0,0.1,0.1c0,0.5,0,0.9-0.1,1.4c0,0.2,0,0.4,0,0.7c-0.1,0.4-0.1,0.8-0.1,1.2c0,0.1,0,0.1,0,0.2c0,0.1,0,0.1-0.2,0.1
		c-0.2,0-0.2,0-0.2-0.2C9.7,23.8,9.7,23.6,9.7,23.4C9.7,23.4,9.7,23.4,9.7,23.4z"/>
	<path class="st2" d="M13.2,23.5c0,0.2-0.1,0.5,0,0.7c0,0,0,0.1-0.1,0.1c-0.2,0-0.2,0-0.3-0.2c0-0.2,0-0.3-0.1-0.5
		c0-0.3-0.1-0.6-0.1-0.9c-0.1-0.5-0.1-0.9-0.2-1.4c0-0.1,0-0.3-0.1-0.4c0-0.1,0-0.1,0.1-0.1c0.1,0,0.1,0,0.2,0c0.1,0,0.1,0,0.1,0.1
		c0,0.4,0.1,0.7,0.1,1.1c0,0.3,0.1,0.6,0.1,0.8C13.2,23,13.2,23.2,13.2,23.5z"/>
	<path class="st2" d="M10.5,19.5c0-0.4,0-0.9,0-1.3c0-0.1,0-0.1,0.1-0.1c0.2,0,0.4,0,0.5,0c0.1,0,0.1,0,0.1,0.1c0,0.1,0,0.3-0.1,0.4
		c0,0.3-0.1,0.5-0.1,0.8c0,0.2-0.1,0.4-0.1,0.5c0,0.1,0,0.1-0.1,0.1c-0.1,0-0.2,0-0.4,0c-0.1,0-0.1,0-0.1-0.1
		C10.5,19.8,10.5,19.6,10.5,19.5C10.5,19.5,10.5,19.5,10.5,19.5z"/>
	<path class="st2" d="M12.2,21.4c0,0.1,0,0.3,0.1,0.4c0.1,0.3,0.1,0.6,0.1,0.8c0,0.2,0.1,0.5,0.1,0.7c0,0.2,0.1,0.5,0.1,0.7
		c0,0.1,0,0.1-0.1,0.1c-0.2,0-0.3,0-0.5,0c-0.1,0-0.1,0-0.1-0.1c0-0.4,0.1-0.7,0.1-1.1c0-0.2,0-0.3,0.1-0.5c0-0.2,0.1-0.5,0.1-0.7
		C12.1,21.7,12.1,21.6,12.2,21.4z"/>
	<path class="st2" d="M11.7,20c-0.1,0-0.2,0-0.2,0c-0.1,0-0.1,0-0.1-0.1c0-0.2,0.1-0.5,0.1-0.7c0-0.3,0.1-0.6,0.1-0.9c0,0,0,0,0-0.1
		c0-0.1,0-0.1,0-0.2c0.1,0,0.2,0,0.3,0c0,0,0,0,0,0.1c0,0.2,0,0.4,0,0.6c0,0.2,0,0.3,0,0.5c0,0.2,0.1,0.5,0.1,0.7
		c0,0.1,0,0.1-0.1,0.1C11.9,20.1,11.8,20.1,11.7,20C11.7,20.1,11.7,20.1,11.7,20C11.7,20.1,11.7,20.1,11.7,20z"/>
	<path class="st2" d="M9.9,18.7c0-0.2,0-0.4,0-0.6c0-0.1,0-0.1,0.1-0.1c0,0,0.1,0,0.1,0c0.2,0,0.2,0,0.2,0.2c0,0.6-0.1,1.1,0,1.7
		c0,0.1,0,0.1-0.1,0.1c-0.1,0-0.2,0-0.3,0c-0.1,0-0.1,0-0.1-0.1c0-0.2,0-0.4,0-0.6C9.9,19.1,9.9,18.9,9.9,18.7
		C9.9,18.7,9.9,18.7,9.9,18.7z"/>
	<path class="st0" d="M13.4,26.4c-0.2,0-0.4,0-0.6,0c-0.1-0.2-0.1-0.4-0.1-0.6c0-0.1,0-0.3,0-0.4c0,0,0-0.1,0-0.1c0,0,0.1,0,0.1,0
		c0,0,0,0,0,0c0,0,0.1,0,0.1,0c0,0,0,0,0,0c0,0,0,0,0.1,0c0,0.3,0.1,0.7,0.1,1c0,0,0-0.1,0-0.1c0-0.2,0-0.4,0-0.6c0-0.1,0-0.2,0-0.3
		c0.1,0,0.2,0,0.3,0C13.4,25.6,13.4,26,13.4,26.4z"/>
	<path class="st0" d="M14.2,26.4c-0.2,0-0.3,0-0.5,0c0-0.3-0.1-0.7-0.1-1c0,0,0-0.1,0-0.1c0.1,0,0.2,0,0.2,0c0,0.2,0.1,0.5,0.1,0.7
		c0.1-0.2,0.1-0.5,0.1-0.7c0.1,0,0.2,0,0.3,0c0,0.3-0.1,0.6-0.1,0.8C14.2,26.2,14.2,26.3,14.2,26.4z"/>
	<path class="st0" d="M11.5,26.5c-0.1,0-0.2,0-0.3,0c0-0.3,0-0.7,0-1c0-0.1,0-0.1,0-0.2c0.1,0,0.1,0,0.2,0c0,0,0,0,0,0
		c0,0,0.1,0,0.1,0c0,0.1,0,0.1,0,0.2C11.6,25.8,11.6,26.1,11.5,26.5C11.6,26.4,11.5,26.5,11.5,26.5z"/>
	<path class="st2" d="M12.6,18.7C12.7,18.7,12.7,18.7,12.6,18.7c0,0.3,0,0.5,0.1,0.8c0,0.2,0,0.4,0.1,0.6c0,0.1,0,0.1-0.1,0.1
		c-0.1,0-0.2,0-0.3,0c-0.1-0.1,0-0.2,0-0.2C12.5,19.5,12.5,19.1,12.6,18.7C12.6,18.7,12.6,18.7,12.6,18.7z"/>
	<path class="st0" d="M11.2,26.5c-0.1,0-0.2,0-0.2,0c0-0.4,0-0.8,0-1.2c0,0,0,0,0,0c0,0,0.1,0,0.1,0c0,0,0,0,0,0c0,0,0.1,0,0.1,0
		C11.2,25.7,11.2,26.1,11.2,26.5z"/>
	<path class="st2" d="M13.3,22.1c0-0.1,0-0.3-0.1-0.4c-0.1-0.3-0.1-0.5-0.1-0.8c0-0.1,0-0.1,0.1-0.1c0.1,0,0.1,0,0.2,0
		c0.1,0,0.1,0,0.1,0.1c-0.1,0.4-0.1,0.7-0.1,1.1C13.4,22,13.4,22.1,13.3,22.1z"/>
	<path class="st0" d="M10.1,26.6c-0.1,0-0.1,0-0.2,0c0-0.3,0-0.6,0-0.8c0-0.1,0-0.3,0-0.4c0.1,0,0.1,0,0.2,0c0,0.3,0,0.7-0.1,1
		C10.1,26.4,10.1,26.5,10.1,26.6z"/>
	<path class="st2" d="M12.2,19.1C12.2,19.1,12.2,19.1,12.2,19.1c-0.1-0.4-0.1-0.7-0.2-1c0-0.1,0-0.1,0.1-0.1c0.1,0,0.2,0,0.3,0
		c0.1,0,0,0,0,0.1c0,0.1-0.1,0.2-0.1,0.3C12.4,18.7,12.3,18.9,12.2,19.1C12.3,19.1,12.3,19.1,12.2,19.1z"/>
	<path class="st2" d="M14,25.2c0,0.2,0,0.5-0.1,0.7c0-0.2-0.1-0.5-0.1-0.7c0-0.1,0-0.1,0-0.2c0-0.1,0-0.1,0.1-0.1
		c0.2,0,0.2,0,0.2,0.2C14,25.1,14,25.2,14,25.2z"/>
	<path class="st2" d="M13.1,25.2c0,0.1,0,0.2,0,0.3c0,0.2,0,0.4,0,0.6c0,0,0,0.1,0,0.1c0-0.3-0.1-0.7-0.1-1c0-0.1,0-0.2,0-0.3
		c0-0.1,0-0.1,0.1-0.1c0.1,0,0.1,0,0.1,0.1C13.1,25.1,13.1,25.1,13.1,25.2z"/>
	<path class="st2" d="M14.5,24.2C14.5,24.2,14.5,24.1,14.5,24.2C14.5,24.1,14.5,24.2,14.5,24.2z"/>
	<path class="st2" d="M12.9,25.2C12.9,25.2,12.9,25.2,12.9,25.2C12.9,25.2,12.9,25.2,12.9,25.2z"/>
	<polygon class="st2" points="11.1,25.3 11.1,25.3 11.1,25.3 	"/>
	<path class="st2" d="M11.6,25.3C11.6,25.3,11.6,25.3,11.6,25.3C11.6,25.3,11.6,25.3,11.6,25.3z"/>
	<path class="st2" d="M12.8,25.2C12.8,25.2,12.8,25.2,12.8,25.2C12.8,25.2,12.8,25.2,12.8,25.2z"/>
	<path class="st2" d="M3.7,23.5c0,0.3,0,0.6,0,1c0,0,0,0.1-0.1,0.1c-0.4,0-0.7,0.1-1.1,0.1c-0.1,0-0.1,0-0.1-0.1
		c0-0.4-0.1-0.8-0.1-1.3c0-0.4-0.1-0.7-0.1-1.1c0-0.2-0.1-0.4-0.1-0.6c0-0.1,0-0.2-0.1-0.3c0-0.1,0-0.2-0.1-0.4c0-0.1,0-0.1,0.1-0.1
		c0.1,0,0.1,0,0.2,0c0.3,0,0.5-0.1,0.8-0.1c0.1,0,0.1,0,0.2,0.1c0.1,0.4,0.2,0.7,0.3,1.1c0.1,0.2,0.1,0.4,0.2,0.6c0,0.1,0,0.2,0,0.3
		C3.7,23,3.7,23.2,3.7,23.5C3.7,23.5,3.7,23.5,3.7,23.5z"/>
	<path class="st2" d="M6.1,20.5c0.2,0,0.3,0,0.5,0c0.1,0,0.1,0,0.1,0.1c0,0.5,0,1,0,1.5c0,0.4,0,0.7,0,1.1c0,0.3,0,0.6,0,0.9
		c0,0.1,0,0.1-0.1,0.1c-0.2,0-0.3,0-0.5,0c-0.1,0-0.1,0-0.1-0.1c-0.1-0.3-0.2-0.6-0.3-0.9c0-0.4-0.1-0.8-0.1-1.1
		c0-0.3,0-0.5-0.1-0.8c0-0.3-0.1-0.5,0-0.8c0-0.1,0-0.1,0.1-0.1C5.8,20.5,5.9,20.5,6.1,20.5C6.1,20.5,6.1,20.5,6.1,20.5z"/>
	<path class="st2" d="M5.5,24.2c0,0.2,0,0.2-0.2,0.2c-0.1,0-0.2,0-0.2,0c-0.1,0-0.1,0-0.1-0.1c-0.1-0.4-0.2-0.7-0.2-1.1
		c-0.1-0.3-0.1-0.6-0.2-1c0-0.2-0.1-0.5-0.1-0.7c-0.1-0.3-0.1-0.6-0.2-0.8c0,0,0-0.1,0-0.1c0,0,0-0.1,0-0.1c0,0,0.1,0,0.1,0.1
		c0.1,0.2,0.1,0.4,0.2,0.6c0.1,0.3,0.2,0.6,0.4,0.9c0.1,0.2,0.2,0.4,0.3,0.6c0.1,0.2,0.2,0.5,0.3,0.7c0,0.1,0,0.1,0,0.2
		C5.5,23.9,5.5,24.1,5.5,24.2z"/>
	<path class="st2" d="M4,20.7C4,20.9,4,21,4.1,21.1c0.1,0.4,0.2,0.8,0.3,1.2c0.1,0.3,0.1,0.6,0.2,0.9c0.1,0.2,0.1,0.4,0.2,0.7
		c0,0.2,0.1,0.3,0.1,0.5c0,0.1,0,0.1-0.1,0.1c-0.1,0-0.2,0.1-0.3,0c-0.1-0.1-0.1-0.2-0.1-0.3c-0.1-0.4-0.2-0.7-0.3-1.1
		c0-0.2-0.1-0.3-0.1-0.5c-0.1-0.2,0-0.5,0-0.8c0-0.3,0-0.7,0-1C3.9,20.8,3.9,20.8,4,20.7z"/>
	<path class="st2" d="M5.4,22.7c-0.1-0.1-0.1-0.2-0.2-0.3c-0.1-0.2-0.2-0.5-0.3-0.7c-0.1-0.3-0.2-0.6-0.4-1c0,0,0,0,0,0
		c-0.1-0.1,0-0.2,0.1-0.2c0.2,0,0.3,0,0.5,0c0.1,0,0.1,0,0.1,0.1c0,0.6,0.1,1.2,0.1,1.8C5.4,22.5,5.4,22.6,5.4,22.7z"/>
	<path class="st2" d="M7,19.4c0-0.4,0-0.8,0-1.2c0-0.1,0-0.1,0.1-0.1c0.1,0,0.2,0,0.3,0c0,0,0.1,0,0.1,0.1c0,0.1,0,0.2-0.1,0.3
		c-0.1,0.4-0.1,0.8-0.2,1.2c0,0,0,0,0,0c0,0.1,0,0.2,0,0.2c-0.1,0-0.2,0-0.3,0c-0.1,0-0.1,0-0.1-0.1C7,19.7,7,19.6,7,19.4z"/>
	<path class="st2" d="M7.1,24.3c0,0,0-0.1,0-0.1c0-1.2-0.1-2.3-0.1-3.5c0,0,0-0.1,0-0.1c0-0.1,0-0.1,0.1-0.1c0.2,0,0.2,0,0.2,0.2
		c0,0.6-0.1,1.2-0.1,1.8c0,0.4,0,0.8,0,1.2C7.1,23.9,7.1,24.1,7.1,24.3z"/>
	<path class="st2" d="M6.9,26.5C6.9,26.5,6.9,26.5,6.9,26.5c-0.1-0.1-0.1-0.2-0.2-0.3c-0.1-0.2-0.1-0.4-0.2-0.6
		c-0.1-0.2-0.1-0.3-0.2-0.5c0,0,0-0.1,0.1-0.1c0.1,0,0.3,0,0.4,0c0.1,0,0.1,0.1,0.1,0.1c0,0.3,0,0.7,0,1C6.9,26.2,6.9,26.4,6.9,26.5
		z"/>
	<path class="st2" d="M3.7,21.7c-0.1-0.2-0.2-0.5-0.2-0.7c0-0.1,0-0.2-0.1-0.2c0-0.1,0-0.1,0.1-0.1c0.2,0,0.2,0,0.2,0.2
		C3.8,21.1,3.7,21.4,3.7,21.7z"/>
	<path class="st2" d="M4,23.4c0,0.2,0.1,0.3,0.1,0.5c0,0.2,0.1,0.3,0.1,0.5c0,0.1,0,0.1-0.1,0.1c0,0-0.1,0-0.1,0
		c-0.1,0-0.1,0-0.1-0.1c0-0.3,0-0.5,0-0.8C3.9,23.5,3.9,23.5,4,23.4z"/>
	<path class="st0" d="M6.9,26.5c0-0.1,0-0.2,0-0.3c0.1,0,0.3-0.1,0.4-0.1c0,0.1,0,0.2,0,0.3C7.1,26.4,7,26.4,6.9,26.5z"/>
	<path class="st0" d="M6.1,26.7c-0.1,0-0.2,0.1-0.2,0.1c0-0.1,0-0.2,0-0.4c0.1,0,0.2-0.1,0.2-0.1C6,26.5,6.1,26.6,6.1,26.7z"/>
	<path class="st0" d="M5.5,26.9c-0.1,0-0.1,0-0.2,0.1c0-0.1-0.1-0.2-0.1-0.4c0.1,0,0.1,0,0.2-0.1C5.5,26.7,5.5,26.8,5.5,26.9z"/>
	<path class="st0" d="M4,27.4c-0.1,0-0.1,0-0.2,0.1c0-0.1,0-0.2,0-0.4C3.9,27,3.9,27,4,27C4,27.1,4,27.3,4,27.4z"/>
	<path class="st0" d="M5,27.1c0,0-0.1,0-0.1,0c-0.1-0.1-0.1-0.2-0.1-0.4c0,0,0.1,0,0.1,0C4.9,26.8,5,27,5,27.1z"/>
	<path class="st0" d="M6.7,26.2c0.1,0.1,0.1,0.2,0.1,0.3c0,0-0.1,0-0.1,0c-0.1-0.1-0.1-0.2-0.1-0.3C6.6,26.2,6.7,26.2,6.7,26.2z"/>
	<path class="st2" d="M22.9,21c0.1-0.2,0.1-0.4,0.2-0.6c0.1-0.2,0.1-0.4,0.2-0.7c0,0,0,0,0.1,0c0.1,0,0.2,0,0.3,0.1
		c0.1,0,0,0.1,0,0.1c0,0.1,0,0.2-0.1,0.4c0,0.2-0.1,0.4-0.1,0.6c0,0.2,0,0.2-0.2,0.2c-0.1,0-0.1,0-0.2,0C23,21,22.9,21,22.9,21z"/>
	<path class="st2" d="M23.8,20.7c0-0.1,0-0.2,0-0.3c0-0.1,0-0.3,0.1-0.4c0-0.1,0-0.1,0.1-0.1c0.1,0,0.1,0.1,0.1,0.1
		C23.9,20.2,23.9,20.4,23.8,20.7C23.8,20.7,23.8,20.7,23.8,20.7z"/>
	<path class="st0" d="M23,26.4c-0.1-0.1-0.2-0.2-0.2-0.2c0-0.1,0-0.3,0-0.4c0,0,0-0.1,0-0.1c0,0.2,0.1,0.3,0.2,0.4
		C23,26.2,23,26.3,23,26.4z"/>
</g>
</svg>
