<?xml version="1.0" encoding="utf-8"?>
<!-- Generator: Adobe Illustrator 22.1.0, SVG Export Plug-In . SVG Version: 6.00 Build 0)  -->
<svg version="1.1" id="Слой_1" xmlns="http://www.w3.org/2000/svg" xmlns:xlink="http://www.w3.org/1999/xlink" x="0px" y="0px"
	 viewBox="0 0 28.3 28.3" style="enable-background:new 0 0 28.3 28.3;" xml:space="preserve">
<style type="text/css">
	.st0{fill:#FBD505;}
	.st1{fill:#575757;}
	.st2{fill:#FDFDFD;}
</style>
<g>
	<path class="st0" d="M27.5,12c-0.2,0-0.4-0.1-0.6-0.1c-0.2,0-0.3-0.1-0.5-0.1c-0.1-0.1-0.2-0.1-0.4-0.1c-0.4-0.1-0.8-0.1-1.2-0.2
		c-0.4-0.1-0.7-0.1-1.1-0.2c-0.4,0-0.8-0.1-1.2-0.1c-0.5-0.1-1-0.1-1.4-0.2c-0.5,0-1.1-0.1-1.6-0.1c-1.3-0.1-2.6-0.1-3.9-0.2
		c-1.1,0-2.2,0-3.2,0c-0.4,0-0.7,0-1.1,0c-1,0-1.9,0.1-2.9,0.1c-0.8,0-1.7,0.1-2.5,0.1c-0.6,0-1.2,0.1-1.8,0.1
		c-0.7,0-1.4,0.1-2.1,0.2c-0.1,0-0.3,0-0.4,0.1c-0.2,0-0.4,0-0.6,0.1c-0.1,0-0.2,0-0.3,0.1c0,0-0.1,0-0.1-0.1c0-0.2,0-0.3,0.1-0.5
		c0-0.1,0-0.2,0.1-0.4c0-0.2,0.1-0.3,0.1-0.5c0-0.1,0-0.2,0-0.3c0-0.1,0.1-0.1,0.1-0.1c0.2,0,0.4-0.1,0.6-0.1c0.2,0,0.4,0,0.6-0.1
		c0.5-0.1,1.1-0.1,1.6-0.2C4.3,9.5,5,9.4,5.6,9.4c0.4,0,0.8,0,1.2-0.1c0.7,0,1.3-0.1,2-0.1c0.5,0,0.9,0,1.4,0c1,0,2.1,0,3.1,0
		c1,0,1.9,0.1,2.9,0.1c0.3,0,0.6,0,0.9,0c0.7,0,1.4,0.1,2.1,0.1c0.4,0,0.7,0,1.1,0.1c0.4,0,0.9,0.1,1.3,0.1c0.5,0,1,0.1,1.4,0.1
		c0.6,0.1,1.1,0.1,1.7,0.2c0.3,0,0.6,0.1,1,0.1c0.2,0,0.5,0.1,0.7,0.1c0,0,0,0,0.1,0c0.2,0,0.4,0.1,0.6,0.1c0.1,0,0.1,0.1,0.1,0.2
		c0.1,0.3,0.2,0.6,0.3,0.9c0,0,0,0.1,0.1,0.1C27.5,11.7,27.5,11.9,27.5,12z M2.2,10.8c0.2,0,0.4,0,0.6,0c0.4-0.1,0.9-0.1,1.3-0.2
		c0.5-0.1,1-0.1,1.6-0.1c0.4,0,0.8,0,1.2-0.1c0.3,0,0.6,0,0.9,0c0.5,0,1-0.1,1.6-0.1c0.3,0,0.6-0.1,0.9-0.1c0,0,0.1,0,0.1-0.1
		c0,0,0,0,0,0c0,0-0.1,0-0.1,0c-0.5-0.1-1-0.1-1.5-0.1c-0.5,0-1.1,0-1.6,0c-0.5,0-1,0.1-1.5,0.1c-0.5,0-1,0.1-1.5,0.1
		c-0.3,0-0.7,0.1-1,0.1c-0.4,0-0.8,0.1-1.3,0.2c-0.1,0-0.3,0.1-0.2,0.3c0,0.1,0.1,0.2,0.2,0.2C1.9,10.8,2.1,10.8,2.2,10.8z"/>
	<path class="st1" d="M1.6,11.5c0.1,0,0.3-0.1,0.4-0.1c0.7-0.1,1.4-0.1,2.1-0.2c0.6,0,1.2-0.1,1.8-0.1c0.8-0.1,1.7-0.1,2.5-0.1
		c1-0.1,1.9-0.1,2.9-0.1c0.4,0,0.7,0,1.1,0c1.1,0,2.2-0.1,3.2,0c1.3,0,2.6,0.1,3.9,0.2c0.5,0,1.1,0.1,1.6,0.1c0.5,0,1,0.1,1.4,0.2
		c0.4,0,0.8,0.1,1.2,0.1c0.4,0,0.7,0.1,1.1,0.2c0.4,0.1,0.8,0.1,1.2,0.2c0.1,0,0.2,0,0.4,0.1c0,1,0,1.9,0,2.9c0,1.4,0,2.8,0,4.2
		c0,1.4,0,2.7,0,4.1c0,1.1,0,2.2-0.1,3.4c0,0.1,0,0.1,0,0.2c0,0.1,0,0.1-0.1,0.1c-1.3-0.1-2.5-0.2-3.8-0.3c-1.3-0.1-2.6-0.1-3.8-0.2
		c-1.8-0.1-3.6-0.1-5.4-0.1c-1.7,0-3.5-0.1-5.2-0.1c-1.7,0-3.3,0-5,0c-0.2,0-0.2,0-0.2-0.2c-0.1-0.8-0.2-1.7-0.3-2.5
		c-0.1-1.3-0.2-2.5-0.3-3.8c-0.1-0.9-0.1-1.7-0.1-2.6c-0.1-1.3-0.1-2.6-0.2-3.9C1.6,12.4,1.6,11.9,1.6,11.5z M8,24.6
		C7.9,24.6,7.9,24.6,8,24.6c-0.6,0-1.1-0.1-1.6-0.1c-0.2,0-0.5,0-0.7,0c0,0-0.1,0-0.1,0.1c0,0.1,0,0.1,0.1,0.1c0.1,0,0.1,0,0.2,0
		c0.5,0,1.1,0,1.6,0C7.6,24.6,7.8,24.6,8,24.6z M12.6,11.4c-0.1-0.1-0.2-0.1-0.2-0.1c-0.4-0.1-0.8,0-1.2,0c-0.1,0-0.2,0-0.3,0
		c-0.1,0-0.1,0-0.1,0.1c0,0.1,0,0.1,0.1,0.1c0,0,0.1,0,0.1,0c0.4,0,0.8,0,1.2,0C12.3,11.5,12.5,11.4,12.6,11.4z M17.9,25.1
		C17.9,25.1,17.9,25.1,17.9,25.1c-0.1,0-0.1,0-0.2,0c-0.5,0-0.9-0.1-1.4-0.2c-0.3,0-0.5-0.1-0.8-0.1c0,0-0.1,0-0.1,0.1
		c0,0.1,0.1,0.1,0.1,0.1c0.2,0,0.3,0,0.5,0c0.5,0.1,1.1,0.1,1.6,0.1C17.7,25.2,17.8,25.2,17.9,25.1z M12.7,24.8
		C12.7,24.8,12.7,24.8,12.7,24.8c-0.4-0.1-0.8-0.1-1.2-0.1c-0.3,0-0.5,0-0.8,0c0,0-0.1,0-0.1,0c0,0.1,0,0.1,0.1,0.1
		c0.1,0,0.1,0,0.2,0C11.5,24.9,12.1,24.8,12.7,24.8C12.7,24.8,12.7,24.8,12.7,24.8z M24.9,16.7C24.9,16.7,24.9,16.7,24.9,16.7
		c0,0,0-0.1,0-0.1c0.1-0.6,0.1-1.2,0.1-1.8c0,0,0-0.1,0-0.1c0,0,0-0.1-0.1-0.1c0,0-0.1,0-0.1,0.1c0,0,0,0.1,0,0.1c0,0.5,0,1,0,1.5
		C24.9,16.3,24.9,16.5,24.9,16.7z M15,24.9C15,24.9,15,24.8,15,24.9c-0.3-0.1-0.5-0.1-0.7-0.1c-0.3,0-0.7,0-1,0c0,0-0.1,0-0.1,0.1
		c0,0.1,0,0.1,0.1,0.1c0,0,0.1,0,0.1,0c0.5,0,0.9,0,1.4,0C14.9,24.9,15,24.9,15,24.9z M8,11.5C8,11.5,7.9,11.5,8,11.5
		c-0.5-0.1-1-0.1-1.4,0c-0.1,0-0.2,0-0.2,0.1c0,0.1,0.1,0.1,0.2,0.1c0.3,0,0.7-0.1,1-0.1C7.7,11.6,7.9,11.6,8,11.5z M23.2,25.5
		C23.2,25.5,23.2,25.5,23.2,25.5c-0.5-0.1-1-0.2-1.4-0.2c-0.2,0-0.5,0-0.7-0.1c0,0-0.1,0-0.1,0c0,0.1,0,0.1,0.1,0.1c0,0,0.1,0,0.1,0
		c0.5,0,1.1,0.1,1.6,0.1C23,25.5,23.1,25.5,23.2,25.5z M19.5,11.8C19.5,11.7,19.5,11.7,19.5,11.8c-0.3-0.1-0.6-0.2-0.8-0.2
		c-0.2,0-0.5-0.1-0.7-0.1c-0.1,0-0.1,0-0.1,0.1c0,0.1,0.1,0.1,0.1,0.1c0.2,0,0.4,0.1,0.6,0.1C18.9,11.7,19.2,11.8,19.5,11.8z
		 M24.9,20.9c0-0.6,0-1.1,0-1.7c0,0,0-0.1,0-0.1c0,0,0,0-0.1,0c0,0-0.1,0-0.1,0.1c0,0,0,0.1,0,0.1c0,0.5,0,1,0.1,1.5
		C24.9,20.8,24.9,20.8,24.9,20.9z M10.3,24.7c-0.2,0-0.3,0-0.4,0c-0.4,0-0.8-0.1-1.3,0c-0.1,0-0.1,0-0.1,0.1c0,0.1,0.1,0.1,0.1,0.1
		c0.5,0,0.9,0,1.4,0C10.1,24.7,10.2,24.7,10.3,24.7z M17,11.5C16.9,11.5,16.9,11.5,17,11.5c-0.6-0.1-1.1-0.2-1.6-0.1
		c0,0-0.1,0-0.1,0.1c0,0.1,0,0.1,0.1,0.1c0.2,0,0.4,0,0.6,0C16.2,11.6,16.6,11.6,17,11.5z M20.2,25.2C20.2,25.2,20.2,25.2,20.2,25.2
		c-0.6-0.1-1.2-0.2-1.7-0.2c0,0-0.1,0-0.1,0c0,0-0.1,0-0.1,0.1c0,0,0,0,0.1,0.1c0,0,0,0,0,0c0.6,0.1,1.1,0.1,1.7,0.1
		C20.2,25.3,20.2,25.3,20.2,25.2z M24.9,18.7C24.9,18.7,24.9,18.7,24.9,18.7C24.9,18.6,24.9,18.6,24.9,18.7c0.1-0.5,0.1-1,0.1-1.5
		c0-0.1,0-0.2-0.1-0.2c-0.1,0-0.1,0.1-0.1,0.2c0,0.4,0,0.7,0,1.1C24.9,18.4,24.9,18.5,24.9,18.7z M2.7,13c0-0.3,0-0.6,0-0.9
		c0-0.1,0-0.1,0.1-0.1c0.3-0.1,0.6-0.1,0.9-0.1c0.1,0,0.1,0,0.2-0.1c-0.1,0-0.1,0-0.1,0c-0.4,0-0.7,0-1.1,0.1
		c-0.1,0-0.1,0.1-0.1,0.1c0,0.2,0,0.5,0,0.7C2.7,12.8,2.7,12.9,2.7,13z M5.1,24.5c-0.6,0-1.1,0-1.7,0.1c-0.1,0-0.1,0-0.1,0.1
		c0,0.1,0.1,0.1,0.1,0.1c0,0,0.1,0,0.1,0c0.5,0,0.9-0.1,1.4-0.2C5,24.6,5.1,24.5,5.1,24.5z M24.1,12.2c-0.1,0-0.1,0-0.2-0.1
		c-0.3-0.1-0.7-0.1-1-0.2c-0.1,0-0.2,0-0.3,0c0,0-0.1,0-0.1,0.1c0,0.1,0.1,0.1,0.1,0.1c0.2,0,0.4,0.1,0.6,0.1
		C23.5,12.2,23.8,12.2,24.1,12.2z M9.9,11.4c-0.4,0-0.9-0.1-1.3,0c0,0,0,0-0.1,0c0,0-0.1,0-0.1,0.1c0,0.1,0.1,0.1,0.1,0.1
		c0.4,0,0.8,0,1.2,0C9.8,11.5,9.9,11.5,9.9,11.4z M24.9,25C24.9,25,24.9,25,24.9,25c0.1-0.4,0-0.8,0-1.3c0,0,0,0,0,0
		c0,0,0-0.1-0.1-0.1c0,0-0.1,0-0.1,0.1c0,0.1,0,0.1,0,0.2c0,0.3,0,0.6,0.1,0.9C24.8,24.8,24.8,24.9,24.9,25z M2.8,16.6
		C2.8,16.5,2.8,16.5,2.8,16.6c0.1-0.5,0-0.9,0-1.4c0,0,0-0.1,0-0.1c0,0,0,0,0,0c0,0,0,0,0,0c0,0,0,0.1,0,0.1c0,0.4,0,0.8,0,1.2
		C2.7,16.4,2.7,16.5,2.8,16.6z M24.9,23C24.9,23,24.9,23,24.9,23c0-0.5,0-0.9,0-1.3c0-0.1,0-0.1-0.1-0.1c-0.1,0-0.1,0.1-0.1,0.1
		c0,0.3,0,0.5,0,0.8C24.8,22.7,24.8,22.8,24.9,23z M3.4,24.2c0-0.5-0.1-1-0.2-1.4c0,0,0,0,0,0c0,0,0,0,0,0c0,0.1,0,0.1,0,0.2
		c0,0.3,0.1,0.5,0.1,0.8C3.3,23.9,3.3,24.1,3.4,24.2z M21.6,11.9C21.6,11.9,21.6,11.9,21.6,11.9c-0.5-0.1-0.9-0.1-1.3-0.1
		c0,0-0.1,0-0.1,0.1c0,0.1,0,0.1,0.1,0.1c0.1,0,0.3,0,0.4,0C21,11.9,21.3,11.9,21.6,11.9z M14.6,11.4C14.6,11.4,14.6,11.4,14.6,11.4
		C14.6,11.4,14.6,11.4,14.6,11.4c-0.4-0.1-0.8-0.1-1.1-0.1c-0.1,0-0.2,0-0.3,0c0,0-0.1,0-0.1,0.1c0,0,0,0.1,0.1,0.1c0,0,0,0,0.1,0
		c0.3,0,0.6,0,0.9,0C14.3,11.5,14.4,11.4,14.6,11.4z M24.9,25.5c-0.1-0.1-0.2-0.1-0.3-0.1c-0.3,0-0.5,0-0.8-0.1c0,0-0.1,0-0.1,0
		c0,0.1,0,0.1,0.1,0.1C24.1,25.5,24.5,25.5,24.9,25.5C24.9,25.5,24.9,25.5,24.9,25.5z M25,13.9c0,0,0-0.1,0-0.1c0-0.4,0-0.9,0-1.3
		c0-0.1,0-0.1,0-0.1c-0.1,0-0.1,0.1-0.1,0.1C24.9,13,25,13.4,25,13.9z M2.9,20.1c0-0.5,0-1,0-1.4c0,0,0-0.1-0.1-0.1
		c-0.1,0,0,0.1,0,0.1c0,0.4,0,0.8,0.1,1.3C2.9,19.9,2.9,20,2.9,20.1z M3.1,22c0-0.4,0-0.8-0.1-1.2c0,0,0-0.1-0.1-0.1
		c-0.1,0,0,0.1,0,0.1C3,21,3,21.3,3.1,21.6C3.1,21.7,3.1,21.9,3.1,22z M2.8,18.3c0-0.4,0-0.9,0-1.3c0-0.1,0-0.1,0-0.1
		c-0.1,0,0,0.1,0,0.2c0,0.3,0,0.6,0.1,0.9C2.8,18,2.8,18.1,2.8,18.3z M2.8,14.8c0-0.3,0-0.5,0-0.8c0-0.1,0-0.3,0-0.4
		c0,0,0-0.1-0.1-0.1c-0.1,0-0.1,0-0.1,0.1c0,0,0,0,0,0.1c0,0.3,0,0.6,0.1,0.8C2.7,14.5,2.7,14.7,2.8,14.8z M5.5,11.7
		c-0.2,0-0.4,0-0.6,0c-0.1,0-0.2,0-0.3,0c0,0-0.1,0-0.1,0.1c0,0.1,0.1,0,0.1,0c0.3,0,0.6,0,0.8-0.1C5.4,11.7,5.5,11.7,5.5,11.7z
		 M25.1,12.3c-0.1-0.1-0.2-0.1-0.3-0.1c0,0-0.1,0-0.1,0.1c0,0,0,0,0.1,0.1C24.9,12.3,25,12.3,25.1,12.3z"/>
	<path class="st1" d="M26.3,10.2c-0.2,0-0.5-0.1-0.7-0.1c-0.3,0-0.6-0.1-1-0.1c-0.6-0.1-1.1-0.1-1.7-0.2c-0.5-0.1-1-0.1-1.4-0.1
		c-0.4,0-0.9-0.1-1.3-0.1c-0.4,0-0.7,0-1.1-0.1c-0.7,0-1.4-0.1-2.1-0.1c-0.3,0-0.6,0-0.9,0c-1,0-1.9-0.1-2.9-0.1c-1,0-2.1,0-3.1,0
		c-0.5,0-0.9,0-1.4,0c-0.7,0-1.3,0.1-2,0.1c-0.4,0-0.8,0-1.2,0.1C5,9.4,4.3,9.5,3.7,9.5c-0.5,0.1-1,0.1-1.6,0.2
		c-0.2,0-0.4,0-0.6,0.1c0-0.3,0-0.6,0-0.9c0-1.4-0.1-2.7-0.1-4.1C1.3,3.5,1.2,2.3,1.2,1c0-0.1,0-0.1,0.1-0.1c0.2,0,0.4,0,0.7-0.1
		c1.4-0.1,2.7-0.2,4.1-0.2c1.9,0,3.7,0,5.6,0.1c1.3,0,2.6,0.1,3.8,0.2c1.4,0.1,2.7,0.2,4.1,0.4c1,0.1,2,0.2,3.1,0.3
		c0.9,0.1,1.9,0.2,2.8,0.3c0.3,0,0.6,0.1,1,0.1c0.1,0,0.1,0,0.1,0.1c0,0.4,0,0.7,0,1.1c0,0.2,0,0.5,0,0.7c-0.1,1.4-0.1,2.8-0.1,4.2
		C26.4,8.9,26.3,9.5,26.3,10.2z M10.7,3.1c-0.2,0-0.3,0-0.5,0C8.6,3,7,3,5.4,3C4.7,3,3.9,3,3.2,3C3.1,3,3.1,3,3.1,3.1
		c0,1.1,0,2.1,0.1,3.2C3.3,7,3.3,7.8,3.4,8.5c0,0.1,0,0.1,0.1,0.1c0.2,0,0.5,0,0.7,0c0.9,0,1.7-0.1,2.6-0.1c1.2-0.1,2.5-0.1,3.7-0.2
		c1.6-0.1,3.3-0.1,4.9-0.1c1,0,2,0,2.9,0c0.5,0,0.9,0.1,1.4,0.1c1.6,0.1,3.1,0.1,4.7,0.2c0.1,0,0.1,0,0.1-0.1c-0.1-1-0.1-2-0.2-3
		c0-0.5,0-1.1,0-1.6c0,0,0-0.1-0.1-0.1c-0.4,0-0.8-0.1-1.2-0.1c-1.1-0.1-2.2-0.2-3.3-0.2c-1.1-0.1-2.2-0.1-3.3-0.2
		C14.6,3.2,12.7,3.1,10.7,3.1z"/>
	<path class="st2" d="M2.2,10.8c-0.2,0-0.3,0-0.5,0c-0.1,0-0.2-0.1-0.2-0.2c0-0.1,0.1-0.2,0.2-0.3c0.4-0.1,0.8-0.1,1.3-0.2
		c0.3,0,0.7-0.1,1-0.1c0.5-0.1,1-0.1,1.5-0.1c0.5,0,1-0.1,1.5-0.1c0.5,0,1.1,0,1.6,0c0.5,0,1,0.1,1.5,0.1c0,0,0.1,0,0.1,0
		c0,0,0,0,0,0c0,0,0,0-0.1,0.1c-0.3,0-0.6,0.1-0.9,0.1c-0.5,0.1-1,0.1-1.6,0.1c-0.3,0-0.6,0-0.9,0c-0.4,0-0.8,0-1.2,0.1
		c-0.5,0-1.1,0.1-1.6,0.1c-0.4,0-0.9,0.1-1.3,0.2C2.6,10.8,2.4,10.8,2.2,10.8z"/>
	<path class="st2" d="M8,24.6c-0.2,0.1-0.4,0.1-0.6,0.1c-0.5,0-1.1,0-1.6,0c-0.1,0-0.1,0-0.2,0c0,0-0.1,0-0.1-0.1
		c0-0.1,0-0.1,0.1-0.1c0.2,0,0.5,0,0.7,0C6.9,24.5,7.4,24.6,8,24.6C7.9,24.6,7.9,24.6,8,24.6z"/>
	<path class="st2" d="M12.6,11.4c-0.2,0-0.3,0-0.5,0c-0.4,0-0.8,0-1.2,0c0,0-0.1,0-0.1,0c-0.1,0-0.1,0-0.1-0.1c0-0.1,0-0.1,0.1-0.1
		c0.1,0,0.2,0,0.3,0c0.4,0,0.8,0,1.2,0C12.5,11.3,12.5,11.3,12.6,11.4z"/>
	<path class="st2" d="M17.9,25.1c-0.1,0-0.2,0-0.3,0c-0.5,0-1.1-0.1-1.6-0.1c-0.2,0-0.3,0-0.5,0c0,0-0.1,0-0.1-0.1
		c0-0.1,0.1-0.1,0.1-0.1c0.3,0,0.5,0,0.8,0.1c0.5,0.1,0.9,0.1,1.4,0.2C17.8,25.1,17.8,25.1,17.9,25.1C17.9,25.1,17.9,25.1,17.9,25.1
		z"/>
	<path class="st2" d="M12.7,24.8C12.7,24.8,12.7,24.8,12.7,24.8c-0.6,0.1-1.2,0.1-1.7,0c-0.1,0-0.1,0-0.2,0c0,0-0.1,0-0.1-0.1
		c0-0.1,0.1,0,0.1,0c0.3,0,0.5,0,0.8,0C12,24.7,12.3,24.7,12.7,24.8C12.7,24.8,12.7,24.8,12.7,24.8z"/>
	<path class="st2" d="M24.9,16.7c0-0.2,0-0.3,0-0.5c0-0.5,0-1,0-1.5c0,0,0-0.1,0-0.1c0,0,0-0.1,0.1-0.1c0,0,0.1,0,0.1,0.1
		c0,0,0,0.1,0,0.1c0,0.6,0,1.2-0.1,1.8C24.9,16.6,24.9,16.6,24.9,16.7C24.9,16.7,24.9,16.7,24.9,16.7z"/>
	<path class="st2" d="M15,24.9c-0.1,0-0.1,0-0.2,0c-0.5,0-0.9,0-1.4,0c0,0-0.1,0-0.1,0c0,0-0.1,0-0.1-0.1c0-0.1,0.1-0.1,0.1-0.1
		c0.3,0,0.7,0,1,0C14.6,24.8,14.8,24.8,15,24.9C15,24.8,15,24.9,15,24.9z"/>
	<path class="st2" d="M8,11.5c-0.1,0-0.2,0.1-0.4,0.1c-0.3,0-0.7,0.1-1,0.1c-0.1,0-0.2,0-0.2-0.1c0-0.1,0.1-0.1,0.2-0.1
		C7,11.4,7.5,11.4,8,11.5C7.9,11.5,8,11.5,8,11.5z"/>
	<path class="st2" d="M23.2,25.5c-0.1,0-0.3,0-0.4,0c-0.6,0-1.1-0.1-1.6-0.1c0,0-0.1,0-0.1,0c0,0-0.1,0-0.1-0.1c0,0,0.1,0,0.1,0
		c0.2,0,0.5,0,0.7,0.1C22.3,25.3,22.7,25.4,23.2,25.5C23.2,25.5,23.2,25.5,23.2,25.5z"/>
	<path class="st2" d="M19.5,11.8c-0.3,0-0.6,0-1-0.1c-0.2,0-0.4-0.1-0.6-0.1c0,0-0.1,0-0.1-0.1c0-0.1,0.1-0.1,0.1-0.1
		c0.2,0,0.5,0.1,0.7,0.1C19,11.6,19.2,11.6,19.5,11.8C19.5,11.7,19.5,11.7,19.5,11.8z"/>
	<path class="st2" d="M24.9,20.9c-0.1-0.1-0.1-0.1-0.1-0.2c-0.1-0.5-0.1-1-0.1-1.5c0,0,0-0.1,0-0.1c0,0,0-0.1,0.1-0.1
		c0,0,0.1,0,0.1,0c0,0,0,0.1,0,0.1C24.9,19.8,25,20.3,24.9,20.9z"/>
	<path class="st2" d="M10.3,24.7c-0.1,0.1-0.2,0.1-0.2,0.1c-0.5,0-0.9,0-1.4,0c0,0-0.1,0-0.1-0.1c0-0.1,0.1-0.1,0.1-0.1
		c0.4,0,0.8,0,1.3,0C10,24.6,10.1,24.7,10.3,24.7z"/>
	<path class="st2" d="M17,11.5c-0.4,0-0.7,0-1.1,0c-0.2,0-0.4,0-0.6,0c0,0-0.1,0-0.1-0.1c0-0.1,0-0.1,0.1-0.1
		C15.9,11.4,16.4,11.4,17,11.5C16.9,11.5,16.9,11.5,17,11.5z"/>
	<path class="st2" d="M20.2,25.2c0,0-0.1,0-0.1,0c-0.6,0-1.1-0.1-1.7-0.1c0,0,0,0,0,0c0,0-0.1,0-0.1-0.1c0,0,0-0.1,0.1-0.1
		c0,0,0.1,0,0.1,0C19.1,25.1,19.7,25.1,20.2,25.2C20.2,25.2,20.2,25.2,20.2,25.2z"/>
	<path class="st2" d="M24.9,18.7c0-0.1,0-0.3,0-0.4c0-0.4,0-0.7,0-1.1c0-0.1,0-0.2,0.1-0.2c0.1,0,0.1,0.1,0.1,0.2
		C25,17.7,25,18.1,24.9,18.7C24.9,18.6,24.9,18.6,24.9,18.7C24.9,18.7,24.9,18.7,24.9,18.7z"/>
	<path class="st2" d="M2.7,13c0-0.1,0-0.2-0.1-0.3c0-0.2,0-0.4,0-0.7c0-0.1,0-0.1,0.1-0.1c0.4-0.1,0.7-0.1,1.1-0.1c0,0,0.1,0,0.1,0
		c-0.1,0.1-0.1,0.1-0.2,0.1c-0.3,0.1-0.6,0.1-0.9,0.1c-0.1,0-0.1,0-0.1,0.1C2.7,12.4,2.7,12.7,2.7,13z"/>
	<path class="st2" d="M5.1,24.5c-0.1,0-0.1,0-0.2,0c-0.5,0.1-0.9,0.1-1.4,0.2c0,0-0.1,0-0.1,0c-0.1,0-0.1,0-0.1-0.1
		c0-0.1,0.1-0.1,0.1-0.1C4,24.6,4.6,24.5,5.1,24.5z"/>
	<path class="st2" d="M24.1,12.2c-0.3,0-0.6,0-0.9,0c-0.2,0-0.4-0.1-0.6-0.1c0,0-0.1,0-0.1-0.1c0-0.1,0.1-0.1,0.1-0.1
		c0.1,0,0.2,0,0.3,0c0.3,0.1,0.7,0.1,1,0.2C24,12.1,24.1,12.1,24.1,12.2z"/>
	<path class="st2" d="M9.9,11.4c-0.1,0.1-0.1,0.1-0.2,0.1c-0.4,0-0.8,0.1-1.2,0c0,0-0.1,0-0.1-0.1c0-0.1,0-0.1,0.1-0.1
		c0,0,0,0,0.1,0C9.1,11.4,9.5,11.4,9.9,11.4z"/>
	<path class="st2" d="M24.9,25c-0.1-0.1-0.1-0.2-0.1-0.2c0-0.3-0.1-0.6-0.1-0.9c0-0.1,0-0.1,0-0.2c0,0,0-0.1,0.1-0.1
		c0,0,0,0,0.1,0.1c0,0,0,0,0,0C24.9,24.1,24.9,24.5,24.9,25C24.9,25,24.9,25,24.9,25z"/>
	<path class="st2" d="M2.8,16.6c0-0.1,0-0.2,0-0.3c0-0.4-0.1-0.8,0-1.2c0,0,0-0.1,0-0.1c0,0,0,0,0,0c0,0,0,0,0,0c0,0,0,0.1,0,0.1
		C2.8,15.6,2.8,16,2.8,16.6C2.8,16.5,2.8,16.5,2.8,16.6z"/>
	<path class="st2" d="M24.9,23c-0.1-0.2-0.1-0.3-0.1-0.5c0-0.3,0-0.5,0-0.8c0-0.1,0-0.1,0.1-0.1c0.1,0,0.1,0.1,0.1,0.1
		C24.9,22.1,24.9,22.5,24.9,23C24.9,23,24.9,23,24.9,23z"/>
	<path class="st2" d="M3.4,24.2c-0.1-0.1-0.1-0.3-0.1-0.4c-0.1-0.3-0.1-0.5-0.1-0.8c0-0.1,0-0.1,0-0.2c0,0,0,0,0,0c0,0,0,0,0,0
		C3.3,23.2,3.4,23.7,3.4,24.2z"/>
	<path class="st2" d="M21.6,11.9c-0.3,0-0.6,0-0.9,0c-0.1,0-0.3,0-0.4,0c0,0-0.1,0-0.1-0.1c0-0.1,0-0.1,0.1-0.1
		C20.7,11.8,21.2,11.8,21.6,11.9C21.6,11.9,21.6,11.9,21.6,11.9z"/>
	<path class="st2" d="M14.6,11.4c-0.2,0-0.3,0-0.5,0c-0.3,0-0.6,0-0.9,0c0,0,0,0-0.1,0c0,0-0.1,0-0.1-0.1c0,0,0-0.1,0.1-0.1
		c0.1,0,0.2,0,0.3,0C13.8,11.4,14.2,11.4,14.6,11.4C14.6,11.4,14.6,11.4,14.6,11.4C14.6,11.4,14.6,11.4,14.6,11.4z"/>
	<path class="st2" d="M24.9,25.5C24.9,25.5,24.9,25.5,24.9,25.5c-0.4,0-0.8,0-1.1,0c0,0-0.1,0-0.1-0.1c0-0.1,0.1,0,0.1,0
		c0.3,0,0.5,0,0.8,0.1C24.7,25.4,24.8,25.4,24.9,25.5z"/>
	<path class="st2" d="M25,13.9c0-0.5-0.1-0.9-0.1-1.4c0-0.1,0-0.1,0.1-0.1c0.1,0,0,0.1,0,0.1c0,0.4,0,0.9,0,1.3
		C25,13.8,25,13.9,25,13.9z"/>
	<path class="st2" d="M2.9,20.1c-0.1-0.1,0-0.1,0-0.2c0-0.4-0.1-0.8-0.1-1.3c0,0,0-0.1,0-0.1c0.1,0,0,0.1,0.1,0.1
		C2.9,19.1,3,19.6,2.9,20.1z"/>
	<path class="st2" d="M3.1,22c-0.1-0.1-0.1-0.3-0.1-0.4C3,21.3,3,21,3,20.8c0,0,0-0.1,0-0.1c0.1,0,0.1,0.1,0.1,0.1
		C3.1,21.2,3.1,21.6,3.1,22z"/>
	<path class="st2" d="M2.8,18.3c0-0.1,0-0.2,0-0.4c0-0.3,0-0.6-0.1-0.9c0-0.1,0-0.2,0-0.2c0.1,0,0,0.1,0,0.1
		C2.9,17.4,2.9,17.8,2.8,18.3z"/>
	<path class="st2" d="M2.8,14.8c0-0.1,0-0.2,0-0.4c0-0.3-0.1-0.6-0.1-0.8c0,0,0,0,0-0.1c0,0,0-0.1,0.1-0.1c0.1,0,0.1,0,0.1,0.1
		c0,0.1,0,0.3,0,0.4C2.8,14.2,2.8,14.5,2.8,14.8z"/>
	<path class="st2" d="M5.5,11.7c0,0-0.1,0-0.1,0c-0.3,0.1-0.5,0.1-0.8,0.1c0,0-0.1,0-0.1,0c0-0.1,0.1-0.1,0.1-0.1c0.1,0,0.2,0,0.3,0
		C5.1,11.6,5.3,11.7,5.5,11.7z"/>
	<path class="st2" d="M25.1,12.3c-0.1,0-0.2,0-0.3,0c0,0-0.1,0-0.1-0.1c0,0,0-0.1,0.1-0.1C24.9,12.2,25,12.2,25.1,12.3z"/>
	<path class="st2" d="M10.7,3.1c2,0.1,3.9,0.1,5.9,0.2c1.1,0,2.2,0.1,3.3,0.2c1.1,0.1,2.2,0.2,3.3,0.2c0.4,0,0.8,0.1,1.2,0.1
		c0.1,0,0.1,0.1,0.1,0.1c0,0.5,0,1.1,0,1.6c0,1,0.1,2,0.2,3c0,0.2,0,0.1-0.1,0.1c-1.6-0.1-3.1-0.2-4.7-0.2c-0.5,0-0.9-0.1-1.4-0.1
		c-1,0-2-0.1-2.9,0c-1.6,0-3.3,0.1-4.9,0.1c-1.2,0-2.5,0.1-3.7,0.2C6,8.6,5.1,8.7,4.3,8.7c-0.2,0-0.5,0-0.7,0c-0.1,0-0.1,0-0.1-0.1
		C3.3,7.8,3.3,7,3.2,6.2C3.1,5.2,3.1,4.1,3.1,3.1C3.1,3,3.1,3,3.2,3c0.7,0,1.4,0,2.2,0C7,3,8.6,3,10.2,3.1
		C10.4,3.1,10.5,3.1,10.7,3.1z M5.7,4.5c-0.1,0-0.1,0-0.2,0C5.3,4.6,5,4.7,4.8,4.9C4.6,5.1,4.5,5.4,4.5,5.7c-0.1,0.5,0.2,1,0.7,1.1
		c0.6,0.2,1.2-0.1,1.5-0.7C7,5.3,6.5,4.5,5.7,4.5z M8.9,6.8c0.5,0,0.9-0.3,1.1-0.8c0.3-0.7-0.1-1.5-0.9-1.5c-0.3,0-0.6,0.1-0.8,0.3
		C8,5,7.9,5.3,7.8,5.6C7.7,6.3,8.1,6.8,8.9,6.8z M11.1,5.6c-0.2-0.1-0.5-0.1-0.8-0.1c0,0-0.1,0-0.1,0.1c0,0.1,0,0.1,0.1,0.1
		C10.6,5.7,10.9,5.7,11.1,5.6z M5.7,4.3c0-0.1,0-0.2-0.1-0.3c0,0-0.1-0.1-0.1-0.1C5.4,3.9,5.4,3.9,5.4,4c0,0.1,0,0.2,0.1,0.3
		c0,0.1,0.1,0.2,0.2,0.2C5.7,4.4,5.7,4.3,5.7,4.3z M5.4,7.1c0,0.1,0,0.3,0.1,0.4c0,0,0,0.1,0.1,0.1c0,0,0,0,0-0.1
		c0-0.1,0.1-0.2,0-0.4c0-0.1-0.1-0.2-0.1-0.2C5.4,6.9,5.4,7,5.4,7.1z M3.9,5.9c0.1,0,0.2,0,0.3-0.1c0,0,0.1,0,0-0.1
		C4.1,5.8,3.9,5.7,3.8,5.7c0,0-0.1,0-0.1,0.1c0,0,0,0.1,0,0.1C3.8,5.9,3.9,5.9,3.9,5.9z M9.1,7.2c0-0.1,0-0.1,0-0.2C9,7,9,7,9,7
		c0,0-0.1,0-0.1,0c0,0.1,0,0.4,0.1,0.5c0,0,0,0,0,0c0,0,0,0,0,0C9.1,7.4,9.1,7.3,9.1,7.2z M8.8,4.1c0,0.1,0.1,0.3,0.2,0.4
		c0,0,0.1,0,0.1,0c0-0.1,0-0.3,0-0.4C9,4,9,4,8.9,4C8.8,4,8.8,4.1,8.8,4.1z M7.3,5.6C7.2,5.5,7.1,5.5,6.9,5.5c-0.1,0-0.1,0-0.1,0.1
		c0,0.1,0,0.1,0.1,0.1C7.1,5.7,7.2,5.7,7.3,5.6z"/>
	<path class="st1" d="M5.7,4.5c0.8,0,1.3,0.8,0.9,1.6C6.4,6.6,5.7,6.9,5.2,6.8C4.7,6.6,4.4,6.2,4.5,5.7c0-0.3,0.1-0.6,0.3-0.8
		C5,4.7,5.3,4.6,5.5,4.5C5.6,4.5,5.6,4.5,5.7,4.5z"/>
	<path class="st1" d="M8.9,6.8c-0.8,0-1.2-0.6-1.1-1.3C7.9,5.3,8,5,8.3,4.8c0.2-0.2,0.5-0.3,0.8-0.3c0.8,0,1.3,0.8,0.9,1.5
		C9.8,6.6,9.3,6.8,8.9,6.8z"/>
	<path class="st1" d="M11.1,5.6c-0.2,0.1-0.5,0.1-0.7,0.1c-0.1,0-0.1,0-0.1-0.1c0-0.1,0-0.1,0.1-0.1C10.6,5.5,10.9,5.5,11.1,5.6z"/>
	<path class="st1" d="M5.7,4.3c0,0.1,0,0.2-0.1,0.2c-0.1,0-0.1-0.1-0.2-0.2c0-0.1-0.1-0.2-0.1-0.3c0-0.1,0-0.1,0.1-0.1
		c0.1,0,0.1,0,0.1,0.1C5.7,4,5.7,4.1,5.7,4.3z"/>
	<path class="st1" d="M5.4,7.1c0-0.1,0-0.2,0.1-0.2c0.1,0,0.1,0.1,0.1,0.2c0,0.1,0,0.2,0,0.4c0,0,0,0.1,0,0.1c0,0-0.1,0-0.1-0.1
		C5.4,7.3,5.4,7.2,5.4,7.1z"/>
	<path class="st1" d="M3.9,5.9c-0.1,0-0.1,0-0.2,0c0,0-0.1-0.1,0-0.1c0,0,0-0.1,0.1-0.1c0.2,0,0.3,0.1,0.4,0.1c0,0,0,0,0,0.1
		C4.1,5.9,4,5.9,3.9,5.9z"/>
	<path class="st1" d="M9.1,7.2c0,0.1,0,0.2,0,0.2c0,0,0,0,0,0c0,0,0,0,0,0C8.9,7.4,8.9,7.1,8.9,7c0,0,0,0,0.1,0C9,7,9,7,9,7
		C9.1,7.1,9.1,7.1,9.1,7.2z"/>
	<path class="st1" d="M8.8,4.1c0-0.1,0-0.1,0.1-0.1C9,4,9,4,9,4.1c0,0.1,0,0.3,0,0.4c0,0.1,0,0-0.1,0C8.9,4.4,8.9,4.3,8.8,4.1z"/>
	<path class="st1" d="M7.3,5.6C7.2,5.7,7.1,5.7,6.9,5.7c-0.1,0-0.1,0-0.1-0.1c0-0.1,0-0.1,0.1-0.1C7.1,5.5,7.2,5.5,7.3,5.6z"/>
</g>
</svg>
