<?xml version="1.0" encoding="utf-8"?>
<!-- Generator: Adobe Illustrator 22.1.0, SVG Export Plug-In . SVG Version: 6.00 Build 0)  -->
<svg version="1.1" id="Слой_1" xmlns="http://www.w3.org/2000/svg" xmlns:xlink="http://www.w3.org/1999/xlink" x="0px" y="0px"
	 viewBox="0 0 28.3 28.3" style="enable-background:new 0 0 28.3 28.3;" xml:space="preserve">
<style type="text/css">
	.st0{fill:#575757;}
	.st1{fill:#FCD603;}
	.st2{fill:#FEFEFE;}
</style>
<g>
	<path class="st0" d="M18.1,23.5c-0.6,0-1.2,0-1.9,0c-2.5,0.1-4.9,0.1-7.4,0.2c-1.4,0-2.8,0.1-4.3,0.1c-0.6,0-1.2,0-1.9,0
		c-0.3,0-0.4-0.1-0.4-0.4c0-1.1-0.1-2.2-0.1-3.3c-0.1-1.7-0.1-3.3-0.2-5c-0.1-1.3-0.1-2.6-0.2-3.9C1.7,9.5,1.6,7.6,1.5,5.8
		c0-0.4,0-0.7,0-1.1c0-0.3,0.1-0.4,0.4-0.4c1.3,0,2.6,0.1,4,0.2c1.2,0,2.4,0.1,3.6,0.1c1.5,0.1,2.9,0.1,4.4,0.2
		c1.2,0,2.3,0.1,3.5,0.1c0,0.6,0,1.2,0,1.8c0,0.9,0,1.8,0.1,2.8c0,0.6,0.1,1.2,0.1,1.8c0,0.8,0.1,1.6,0.1,2.4c0,0.4,0,0.8,0,1.2
		c0,0.8,0.1,1.6,0.1,2.4c0,0.6,0,1.1,0.1,1.7c0,1.1,0.1,2.2,0.1,3.3C18,22.7,18,23.1,18.1,23.5z M2.9,11.6
		C2.9,11.6,2.9,11.5,2.9,11.6C3,11,3,10.4,3,9.8c0,0,0-0.1,0-0.1C3,9.6,3,9.5,2.8,9.5c-0.1,0-0.2,0.1-0.2,0.2c0,0.1,0,0.2,0,0.3
		c0,0.4,0.1,0.7,0.1,1.1C2.7,11.2,2.8,11.4,2.9,11.6z M2.9,16.4C2.9,16.3,2.9,16.3,2.9,16.4C3,15.7,3,15.1,3,14.6c0,0,0-0.1,0-0.1
		c0-0.1-0.1-0.1-0.2-0.1c-0.1,0-0.1,0-0.2,0.1c0,0.1,0,0.1,0,0.2c0,0.4,0.1,0.9,0.1,1.3C2.8,16.1,2.8,16.3,2.9,16.4z M3,18.9
		C3,18.9,3,18.9,3,18.9c0.1-0.6,0.1-1.2,0-1.8c0,0,0-0.1,0-0.1c0-0.1-0.1-0.1-0.2-0.1c-0.1,0-0.1,0.1-0.1,0.2c0,0.1,0,0.1,0,0.2
		c0.1,0.4,0.2,0.7,0.2,1.1C2.9,18.5,2.9,18.7,3,18.9z M2.9,9.2c0,0,0-0.1,0-0.1C3,8.7,3,8.3,3.1,7.9c0-0.1,0-0.2,0-0.2
		C3,7.5,2.8,7.5,2.7,7.6C2.7,7.7,2.7,7.8,2.7,7.9c0,0.4,0,0.7,0.1,1C2.8,9,2.8,9.1,2.9,9.2z M2.8,13.7c0.1-0.5,0.1-1,0.2-1.5
		c0-0.1,0-0.1,0-0.2c0-0.1-0.1-0.1-0.2-0.1c-0.1,0-0.1,0.1-0.1,0.1c0,0.1,0,0.1,0,0.2c0,0.4,0.1,0.8,0.1,1.1
		C2.8,13.5,2.8,13.6,2.8,13.7z M6.6,5.8C6.6,5.8,6.6,5.8,6.6,5.8c-0.1,0-0.1,0-0.1,0C6.1,5.7,5.6,5.7,5.2,5.7c0,0,0,0,0,0
		C5.1,5.7,5,5.8,5,5.8c0,0.1,0,0.1,0.1,0.1c0,0,0.1,0,0.1,0c0.4,0,0.8,0,1.3-0.1C6.6,5.9,6.6,5.9,6.6,5.8z M11.4,6
		c-0.1,0-0.1,0-0.1,0c-0.5-0.1-1-0.1-1.4-0.2c-0.1,0-0.2,0-0.2,0.1C9.7,6,9.8,6,9.9,6c0.4,0.1,0.8,0.1,1.2,0C11.2,6,11.3,6,11.4,6z
		 M8.9,5.9C8.9,5.9,8.9,5.9,8.9,5.9C8.6,5.8,8.3,5.8,8,5.8c-0.2,0-0.4,0-0.6,0c-0.1,0-0.1,0-0.1,0.1C7.3,6,7.3,6,7.4,6
		c0,0,0.1,0,0.1,0c0.3,0,0.7,0,1,0C8.7,6,8.8,6,8.9,5.9z M13.9,6.1C13.6,6,13.3,5.9,13,5.9c-0.2,0-0.4-0.1-0.5-0.1
		c-0.1,0-0.2,0-0.2,0.1c0,0.1,0.1,0.1,0.1,0.1c0,0,0,0,0,0c0.4,0.1,0.8,0.1,1.2,0C13.8,6.1,13.9,6.1,13.9,6.1z M3,6.3
		C3,6.2,3,6,3,5.9c0-0.1,0-0.1-0.1-0.1c-0.1,0-0.1,0-0.1,0.1c0,0,0,0.1,0,0.1c0,0.4,0,0.7,0.1,1.1c0,0,0,0.1,0,0.1C3,7.1,3,7,3,7
		C3,6.8,3,6.5,3,6.3z M16.6,10.6C16.6,10.5,16.6,10.5,16.6,10.6c0.1-0.6,0.1-1.1,0.1-1.6c0-0.1,0-0.1,0-0.2c0,0,0-0.1-0.1-0.1
		c0,0-0.1,0-0.1,0.1c0,0.1,0,0.1,0,0.2c0,0.4,0,0.9,0,1.3C16.5,10.3,16.5,10.4,16.6,10.6z M16.6,8.4c0,0,0-0.1,0-0.1
		c0-0.5-0.1-1-0.1-1.5c0,0,0-0.1,0-0.1c0,0,0-0.1-0.1-0.1c0,0-0.1,0-0.1,0.1c0,0.1,0,0.1,0,0.2c0,0.5,0.1,0.9,0.2,1.4
		C16.5,8.3,16.5,8.4,16.6,8.4z M4.6,5.8C4.2,5.7,3.9,5.7,3.5,5.7c-0.1,0-0.2,0-0.2,0c-0.1,0-0.1,0-0.1,0.1c0,0.1,0.1,0.1,0.1,0.1
		C3.6,6,3.9,6,4.2,6C4.4,6,4.5,5.9,4.6,5.8z M3,20.7C3.1,20.6,3.1,20.6,3,20.7c0.1-0.3,0.1-0.6,0.1-0.9c0-0.1,0-0.2-0.1-0.2
		c0-0.1-0.1-0.1-0.1,0c-0.1,0.1-0.1,0.2-0.1,0.3c0,0.3,0.1,0.5,0.2,0.8C3,20.6,3,20.6,3,20.7z M16.2,22.4c-0.1,0-0.2,0-0.3,0
		c-0.4,0-0.9-0.1-1.3-0.1c-0.1,0-0.2,0-0.2,0.1c0,0.1,0.1,0.1,0.2,0.1c0.5,0,0.9,0,1.4,0C16.1,22.5,16.1,22.5,16.2,22.4z M9.6,22.6
		C9.5,22.6,9.5,22.6,9.6,22.6c-0.4-0.1-0.8-0.1-1.2-0.1c-0.1,0-0.1,0-0.2,0c0,0-0.1,0-0.1,0.1c0,0,0,0.1,0.1,0.1c0,0,0.1,0,0.1,0
		c0.4,0,0.8,0,1.2,0C9.4,22.6,9.5,22.6,9.6,22.6z M11.6,22.5c-0.2,0-0.3,0-0.5,0c-0.3,0-0.6,0-0.9,0c-0.1,0-0.2,0-0.2,0.1
		c0,0.1,0.1,0.1,0.1,0.1c0.4,0,0.8,0,1.2-0.1C11.5,22.6,11.6,22.6,11.6,22.5z M7.4,22.6c-0.1,0-0.2,0-0.2,0c-0.4,0-0.7-0.1-1.1,0
		c-0.1,0-0.1,0-0.2,0c0,0-0.1,0-0.1,0.1c0,0.1,0,0.1,0.1,0.1c0,0,0.1,0,0.1,0c0.4,0,0.7,0,1.1,0C7.2,22.7,7.3,22.7,7.4,22.6z
		 M5.1,22.6c-0.1,0-0.2,0-0.3,0c-0.3,0-0.6,0-0.8,0c0,0-0.1,0-0.1,0c0,0-0.1,0-0.1,0.1c0,0,0,0.1,0.1,0.1c0.1,0,0.1,0,0.2,0
		c0.3,0,0.7,0,1-0.1C5.1,22.7,5.1,22.7,5.1,22.6z M13.8,22.5c-0.2,0-0.5,0-0.7-0.1c-0.2,0-0.4,0-0.6,0c-0.1,0-0.1,0-0.1,0.1
		c0,0.1,0,0.1,0.1,0.1c0,0,0.1,0,0.1,0c0.4,0,0.7,0,1.1,0C13.6,22.6,13.7,22.6,13.8,22.5z M16.3,6.3C16,6.1,15.8,6.1,15.5,6
		c-0.1,0-0.2,0-0.3,0C15.1,6,15,6,15,6.1c0,0.1,0,0.1,0.1,0.1c0,0,0,0,0.1,0c0.2,0,0.4,0,0.7,0.1C16,6.3,16.1,6.3,16.3,6.3z
		 M16.5,12.7C16.5,12.7,16.5,12.6,16.5,12.7c0.1-0.6,0.1-1.1,0.1-1.6c0,0,0,0,0-0.1c0,0,0-0.1,0-0.1c0,0,0,0-0.1,0
		c0,0.1,0,0.1-0.1,0.2c0,0.3,0,0.5,0,0.8C16.4,12.2,16.5,12.4,16.5,12.7z M3.2,22.8C3.2,22.8,3.2,22.7,3.2,22.8c0.1-0.4,0-0.7,0-1.1
		c0,0,0,0,0-0.1c0,0,0-0.1-0.1-0.1c-0.1,0-0.1,0-0.1,0.1c0,0.1,0,0.1,0,0.2C3,22,3,22.2,3,22.3C3.1,22.5,3.1,22.6,3.2,22.8z
		 M16.6,19.2c0.1-0.5,0.1-1,0-1.4c0,0,0,0,0,0c0,0,0,0,0,0c-0.1,0.1-0.1,0.3-0.1,0.4c0,0.3,0,0.5,0.1,0.8
		C16.6,19,16.6,19.1,16.6,19.2z M16.5,13.2c-0.1,0.1-0.1,0.2-0.1,0.3c0,0.4,0.1,0.8,0.2,1.2c0,0,0,0,0,0
		C16.6,14.2,16.7,13.7,16.5,13.2z M16.7,16.9c0-0.5,0-0.9,0-1.4c0,0,0,0,0-0.1c0,0,0,0,0-0.1c0,0-0.1,0-0.1,0c0,0.1,0,0.1,0,0.2
		c0,0.3,0.1,0.7,0.1,1C16.6,16.8,16.6,16.8,16.7,16.9z M16.6,21.1c0-0.3,0-0.6,0-0.9c0-0.1,0-0.2,0-0.3c0,0,0-0.1-0.1-0.1
		c-0.1,0-0.1,0.1-0.1,0.1c0,0.1,0,0.2,0,0.2C16.5,20.4,16.5,20.8,16.6,21.1C16.6,21.1,16.6,21.1,16.6,21.1z M16.7,22
		c0-0.1,0-0.2-0.1-0.3c0,0,0-0.1-0.1-0.1c0,0-0.1,0-0.1,0.1c0,0.1,0,0.3,0.1,0.4c0,0,0.1,0.1,0.1,0.1C16.7,22.1,16.7,22.1,16.7,22
		C16.7,22,16.7,22,16.7,22z"/>
	<path class="st0" d="M19.2,5C21,5,22.7,5.1,24.5,5.2c0.6,0,1.1,0,1.7,0.1c0.3,0,0.4,0.1,0.4,0.4c0,3.7,0,7.3,0,11
		c0,1.9,0,3.9,0,5.8c0,0.2,0,0.4,0,0.6c0,0.3-0.1,0.4-0.4,0.4c-0.9,0-1.8,0-2.7,0.1c-1.3,0-2.5,0.1-3.8,0.1c0,0,0,0,0,0c0,0,0,0,0,0
		c0-1.7,0-3.5-0.1-5.2c0-1.2,0-2.3-0.1-3.5c0-0.7-0.1-1.5-0.1-2.2c0-1-0.1-2-0.1-3c0-1.3,0-2.6,0-3.9C19.2,5.4,19.2,5.2,19.2,5z
		 M25,17.6c0-0.5,0-1,0-1.5c0-1,0-1.9-0.1-2.9c0-0.1-0.1-0.1-0.1-0.1c-1.6,0-3.2-0.1-4.8-0.2c-0.1,0-0.1,0-0.1,0.1
		c0,0.7,0.1,1.5,0.1,2.2c0.1,1.3,0.2,2.7,0.2,4c0,0.9,0.1,1.9,0.1,2.8c0,0.1,0,0.1,0.1,0.1c0.6-0.1,1.2-0.1,1.8-0.1
		c0.9,0,1.7,0,2.6,0c0.1,0,0.1,0,0.1-0.1c0,0,0-0.1,0-0.1C25,20.4,25,19,25,17.6z M20.5,6.3c-0.2,0-0.4,0-0.5,0
		c-0.1,0-0.1,0-0.1,0.1c0,0.4,0,0.8,0.1,1.2c0,0.8,0,1.6,0.1,2.4c0,0.1,0,0.1,0.1,0.1c0.6,0,1.1,0,1.7,0.1c1,0,1.9,0.1,2.9,0.2
		c0.1,0,0.1,0,0.1-0.1c0-0.3,0-0.6,0-0.8c0-0.9,0.1-1.7,0.1-2.6c0-0.1,0-0.1-0.1-0.1c-0.7-0.1-1.4-0.2-2.1-0.2
		C22,6.4,21.2,6.3,20.5,6.3z M21.6,12.5c0.5,0,1,0.1,1.5,0.1c0.1,0,0.1,0,0.1-0.1c0-0.5,0-1.1,0-1.6c0-0.2,0-0.2-0.2-0.2
		c-1,0-2-0.1-3-0.2c-0.1,0-0.1,0-0.1,0.1c0,0.2,0,0.5,0,0.7c0,0.3,0,0.7,0,1c0,0.1,0,0.1,0.1,0.1C20.5,12.5,21.1,12.5,21.6,12.5z
		 M24.2,10.8C24.2,10.8,24.2,10.8,24.2,10.8c-0.2,0-0.4,0-0.5,0c-0.1,0-0.1,0-0.1,0.1c0,0.6,0.1,1.1,0.1,1.7c0,0.1,0,0.1,0.1,0.1
		c0.3,0,0.7,0,1,0.1c0.1,0,0.1,0,0.1-0.1c0-0.6-0.1-1.2-0.1-1.7c0-0.1,0-0.1-0.1-0.1C24.5,10.8,24.4,10.8,24.2,10.8z"/>
	<path class="st1" d="M19.2,5c0,0.2,0,0.4,0,0.7c0,1.3,0,2.6,0,3.9c0,1,0.1,2,0.1,3c0,0.7,0,1.5,0.1,2.2c0.1,1.2,0.1,2.3,0.1,3.5
		c0,1.7,0.1,3.5,0.1,5.2c0,0,0,0,0,0c0,0.4,0,0.7,0,1.1c0,0.1,0,0.1-0.1,0.1c-0.2,0-0.4-0.1-0.7-0.1c-0.2,0-0.4-0.1-0.6-0.1
		c-0.1,0-0.1-0.1-0.1-0.1c0-0.3,0-0.5,0-0.8c0,0,0,0,0-0.1c0-0.4,0-0.9-0.1-1.3c0-1.1-0.1-2.2-0.1-3.3c0-0.6,0-1.1-0.1-1.7
		c0-0.8-0.1-1.6-0.1-2.4c0-0.4,0-0.8,0-1.2c0-0.8-0.1-1.6-0.1-2.4c0-0.6,0-1.2-0.1-1.8c0-0.9-0.1-1.8-0.1-2.8c0-0.6,0-1.2,0-1.8
		c0-0.1,0-0.2,0-0.3c0-0.1,0-0.1,0.1-0.1c0.3-0.1,0.5-0.2,0.8-0.3c0.2,0,0.4-0.1,0.6-0.2c0.1,0,0.2-0.1,0.3-0.1c0.1,0,0.1,0,0.1,0.1
		C19.2,4.3,19.2,4.7,19.2,5z M18.4,11.7c0-0.9,0-1.7,0-2.6c0-0.9,0-1.9,0-2.8c0-0.4-0.1-0.7-0.1-1.1c0,0,0,0,0-0.1
		c0-0.1-0.1-0.2-0.2-0.2c-0.1,0-0.1,0-0.1,0.1c0,0,0,0.1,0,0.2c-0.1,0.6-0.1,1.2-0.1,1.8c0,0.3,0,0.7,0,1c0,0.7,0,1.4,0,2.1
		c0,0.4,0,0.9,0.1,1.3c0,0.1,0,0.3,0,0.4c0,0.3,0.1,0.7,0.1,1c0,0.2,0.1,0.4,0.1,0.6c0,0.2,0.1,0.4,0.1,0.6c0,0.1,0,0.1,0.1,0.1
		c0.1,0,0.1-0.1,0.1-0.1C18.4,13.3,18.4,12.5,18.4,11.7z"/>
	<path class="st2" d="M2.9,11.6c-0.1-0.2-0.1-0.4-0.1-0.6c0-0.4-0.1-0.7-0.1-1.1c0-0.1,0-0.2,0-0.3c0-0.1,0.1-0.2,0.2-0.2
		C3,9.5,3,9.6,3,9.7c0,0,0,0.1,0,0.1C3,10.4,3,11,2.9,11.6C2.9,11.5,2.9,11.6,2.9,11.6z"/>
	<path class="st2" d="M2.9,16.4c-0.1-0.1-0.1-0.2-0.1-0.4c0-0.4-0.1-0.9-0.1-1.3c0-0.1,0-0.2,0-0.2c0-0.1,0.1-0.1,0.2-0.1
		c0.1,0,0.1,0.1,0.2,0.1c0,0,0,0.1,0,0.1C3,15.1,3,15.7,2.9,16.4C2.9,16.3,2.9,16.3,2.9,16.4z"/>
	<path class="st2" d="M3,18.9c-0.1-0.2-0.1-0.4-0.1-0.6c-0.1-0.4-0.1-0.7-0.2-1.1c0-0.1,0-0.1,0-0.2c0-0.1,0.1-0.1,0.1-0.2
		c0.1,0,0.2,0,0.2,0.1c0,0,0,0.1,0,0.1C3.1,17.7,3.1,18.3,3,18.9C3,18.9,3,18.9,3,18.9z"/>
	<path class="st2" d="M2.9,9.2C2.8,9.1,2.8,9,2.8,8.9c-0.1-0.3-0.1-0.7-0.1-1c0-0.1,0-0.2,0.1-0.2C2.8,7.5,3,7.5,3,7.7
		c0,0.1,0,0.2,0,0.2C3,8.3,3,8.7,2.9,9.1C2.9,9.1,2.9,9.2,2.9,9.2z"/>
	<path class="st2" d="M2.8,13.7c-0.1-0.1-0.1-0.3-0.1-0.4c0-0.4-0.1-0.8-0.1-1.1c0-0.1,0-0.1,0-0.2c0-0.1,0.1-0.1,0.1-0.1
		c0.1,0,0.1,0,0.2,0.1c0,0.1,0,0.1,0,0.2C3,12.7,2.9,13.2,2.8,13.7z"/>
	<path class="st2" d="M6.6,5.8c0,0.1-0.1,0.1-0.1,0.1C6.1,6,5.7,6,5.3,6c0,0-0.1,0-0.1,0C5.1,5.9,5,5.9,5,5.8c0-0.1,0-0.1,0.1-0.1
		c0,0,0,0,0,0c0.5,0,0.9,0,1.3,0.1C6.6,5.8,6.6,5.8,6.6,5.8C6.6,5.8,6.6,5.8,6.6,5.8z"/>
	<path class="st2" d="M11.4,6C11.3,6,11.2,6,11.1,6.1c-0.4,0-0.8,0-1.2,0C9.8,6,9.7,6,9.7,5.9c0-0.1,0.1-0.1,0.2-0.1
		c0.5,0,1,0.1,1.4,0.2C11.4,5.9,11.4,5.9,11.4,6z"/>
	<path class="st2" d="M8.9,5.9C8.8,6,8.7,6,8.5,6c-0.3,0-0.7,0-1,0c0,0-0.1,0-0.1,0C7.3,6,7.3,6,7.3,5.9c0-0.1,0.1-0.1,0.1-0.1
		c0.2,0,0.4,0,0.6,0C8.3,5.8,8.6,5.8,8.9,5.9C8.9,5.9,8.9,5.9,8.9,5.9z"/>
	<path class="st2" d="M13.9,6.1c-0.1,0.1-0.2,0.1-0.2,0.1c-0.4,0.1-0.8,0-1.2,0c0,0,0,0,0,0c-0.1,0-0.1-0.1-0.1-0.1
		c0-0.1,0.1-0.1,0.2-0.1c0.2,0,0.4,0,0.5,0.1C13.3,5.9,13.6,6,13.9,6.1z"/>
	<path class="st2" d="M3,6.3C3,6.5,3,6.8,3,7c0,0,0,0.1-0.1,0.1c0,0,0,0,0-0.1C2.8,6.6,2.7,6.3,2.7,5.9c0,0,0-0.1,0-0.1
		c0-0.1,0.1-0.1,0.1-0.1C3,5.7,3,5.8,3,5.9C3,6,3,6.2,3,6.3z"/>
	<path class="st2" d="M16.6,10.6c-0.1-0.1-0.1-0.2-0.1-0.3c0-0.4-0.1-0.9,0-1.3c0-0.1,0-0.1,0-0.2c0,0,0-0.1,0.1-0.1
		c0,0,0.1,0,0.1,0.1c0,0.1,0,0.1,0,0.2C16.6,9.4,16.7,10,16.6,10.6C16.6,10.5,16.6,10.5,16.6,10.6z"/>
	<path class="st2" d="M16.6,8.4c0,0,0-0.1-0.1-0.1c-0.1-0.4-0.2-0.9-0.2-1.4c0-0.1,0-0.1,0-0.2c0,0,0-0.1,0.1-0.1c0,0,0.1,0,0.1,0.1
		c0,0,0,0.1,0,0.1c0.1,0.5,0.1,1,0.1,1.5C16.6,8.3,16.6,8.4,16.6,8.4z"/>
	<path class="st2" d="M4.6,5.8C4.5,5.9,4.4,6,4.2,6c-0.3,0-0.6,0-0.9,0c-0.1,0-0.1,0-0.1-0.1c0-0.1,0.1-0.1,0.1-0.1
		c0.1,0,0.1,0,0.2,0C3.9,5.7,4.2,5.7,4.6,5.8z"/>
	<path class="st2" d="M3,20.7c0,0-0.1-0.1-0.1-0.1c-0.1-0.3-0.1-0.5-0.2-0.8c0-0.1,0-0.2,0.1-0.3c0.1-0.1,0.1-0.1,0.1,0
		c0,0.1,0.1,0.2,0.1,0.2C3.1,20,3.1,20.3,3,20.7C3.1,20.6,3.1,20.6,3,20.7z"/>
	<path class="st2" d="M16.2,22.4c-0.1,0.1-0.2,0.1-0.3,0.1c-0.5,0.1-0.9,0.1-1.4,0c-0.1,0-0.2,0-0.2-0.1c0-0.1,0.1-0.1,0.2-0.1
		c0.4,0,0.9,0.1,1.3,0.1C16,22.4,16.1,22.4,16.2,22.4z"/>
	<path class="st2" d="M9.6,22.6c-0.1,0-0.1,0.1-0.2,0.1c-0.4,0-0.8,0-1.2,0c0,0-0.1,0-0.1,0c0,0-0.1,0-0.1-0.1c0,0,0-0.1,0.1-0.1
		c0.1,0,0.1,0,0.2,0C8.7,22.5,9.1,22.5,9.6,22.6C9.5,22.6,9.5,22.6,9.6,22.6z"/>
	<path class="st2" d="M11.6,22.5c-0.1,0.1-0.2,0.1-0.2,0.1c-0.4,0.1-0.8,0.1-1.2,0.1c-0.1,0-0.1,0-0.1-0.1c0-0.1,0.1-0.1,0.2-0.1
		c0.3,0,0.6,0,0.9,0C11.3,22.5,11.4,22.5,11.6,22.5z"/>
	<path class="st2" d="M7.4,22.6c-0.1,0.1-0.2,0.1-0.3,0.1c-0.4,0-0.7,0-1.1,0c0,0-0.1,0-0.1,0c-0.1,0-0.1,0-0.1-0.1
		c0-0.1,0-0.1,0.1-0.1c0.1,0,0.1,0,0.2,0c0.4,0,0.7,0,1.1,0C7.2,22.6,7.3,22.6,7.4,22.6z"/>
	<path class="st2" d="M5.1,22.6c0,0.1-0.1,0.1-0.1,0.1c-0.3,0.1-0.6,0.1-1,0.1c-0.1,0-0.1,0-0.2,0c0,0-0.1-0.1-0.1-0.1
		c0,0,0-0.1,0.1-0.1c0,0,0.1,0,0.1,0c0.3,0,0.6,0,0.8,0C4.9,22.6,5,22.6,5.1,22.6z"/>
	<path class="st2" d="M13.8,22.5c-0.1,0.1-0.1,0.1-0.2,0.1c-0.4,0-0.7,0-1.1,0c0,0-0.1,0-0.1,0c-0.1,0-0.1,0-0.1-0.1
		c0-0.1,0.1-0.1,0.1-0.1c0.2,0,0.4,0,0.6,0C13.3,22.5,13.5,22.5,13.8,22.5z"/>
	<path class="st2" d="M16.3,6.3c-0.2,0.1-0.3,0-0.5,0c-0.2,0-0.4,0-0.7-0.1c0,0,0,0-0.1,0c-0.1,0-0.1,0-0.1-0.1C15,6,15.1,6,15.1,6
		c0.1,0,0.2,0,0.3,0C15.8,6.1,16,6.1,16.3,6.3z"/>
	<path class="st2" d="M16.5,12.7c0-0.2,0-0.5,0-0.7c0-0.3,0-0.5,0-0.8c0-0.1,0-0.2,0.1-0.2c0,0,0,0,0.1,0c0,0,0,0,0,0.1
		c0,0,0,0,0,0.1C16.6,11.6,16.6,12.1,16.5,12.7C16.5,12.6,16.5,12.7,16.5,12.7z"/>
	<path class="st2" d="M3.2,22.8c0-0.2-0.1-0.3-0.1-0.5C3,22.2,3,22,2.9,21.8c0-0.1,0-0.1,0-0.2c0,0,0-0.1,0.1-0.1c0,0,0.1,0,0.1,0.1
		c0,0,0,0,0,0.1C3.2,22,3.2,22.4,3.2,22.8C3.2,22.7,3.2,22.8,3.2,22.8z"/>
	<path class="st2" d="M16.6,19.2c0-0.1,0-0.2,0-0.2c0-0.3-0.1-0.5-0.1-0.8c0-0.1,0-0.3,0.1-0.4c0,0,0,0,0,0c0,0,0,0,0,0
		C16.7,18.2,16.7,18.7,16.6,19.2z"/>
	<path class="st2" d="M16.5,13.2c0.2,0.5,0.1,1,0.1,1.5c0,0,0,0,0,0c-0.1-0.4-0.2-0.8-0.2-1.2C16.4,13.4,16.4,13.3,16.5,13.2z"/>
	<path class="st2" d="M16.7,16.9c0-0.1-0.1-0.2-0.1-0.2c0-0.3-0.1-0.7-0.1-1c0-0.1,0-0.2,0-0.2c0,0,0,0,0.1,0c0,0,0,0,0,0.1
		c0,0,0,0,0,0.1C16.7,16,16.7,16.5,16.7,16.9z"/>
	<path class="st2" d="M16.6,21.1C16.6,21.1,16.6,21.1,16.6,21.1c-0.1-0.3-0.1-0.6-0.2-1c0-0.1,0-0.2,0-0.2c0-0.1,0-0.1,0.1-0.1
		c0.1,0,0.1,0.1,0.1,0.1c0,0.1,0,0.2,0,0.3C16.6,20.5,16.6,20.8,16.6,21.1z"/>
	<path class="st2" d="M16.7,22C16.7,22,16.7,22,16.7,22c0,0.1,0,0.1,0,0.2c-0.1,0-0.1,0-0.1-0.1c-0.1-0.1-0.1-0.3-0.1-0.4
		c0,0,0-0.1,0.1-0.1c0.1,0,0.1,0,0.1,0.1C16.7,21.7,16.7,21.9,16.7,22z"/>
	<path class="st2" d="M25,17.6c0,1.4,0,2.8,0.1,4.3c0,0,0,0.1,0,0.1c0,0.1,0,0.1-0.1,0.1c-0.9,0-1.7,0-2.6,0c-0.6,0-1.2,0-1.8,0.1
		c-0.1,0-0.1,0-0.1-0.1c-0.1-0.9-0.1-1.9-0.1-2.8c0-1.3-0.1-2.7-0.2-4C20,14.5,20,13.8,19.9,13c0-0.1,0-0.1,0.1-0.1
		c1.6,0.1,3.2,0.2,4.8,0.2c0.1,0,0.1,0,0.1,0.1c0,1,0.1,1.9,0.1,2.9C25,16.6,25,17.1,25,17.6z"/>
	<path class="st2" d="M20.5,6.3c0.7,0,1.5,0.1,2.2,0.2c0.7,0.1,1.4,0.1,2.1,0.2c0.1,0,0.1,0,0.1,0.1c-0.1,0.9-0.1,1.7-0.1,2.6
		c0,0.3,0,0.6,0,0.8c0,0.1,0,0.1-0.1,0.1c-1-0.1-1.9-0.2-2.9-0.2c-0.6,0-1.1-0.1-1.7-0.1C20,10.1,20,10,20,10c0-0.8,0-1.6-0.1-2.4
		c0-0.4,0-0.8-0.1-1.2c0-0.1,0-0.1,0.1-0.1C20.1,6.3,20.3,6.3,20.5,6.3z"/>
	<path class="st2" d="M21.6,12.5c-0.5,0-1.1,0-1.6,0c-0.1,0-0.1,0-0.1-0.1c0-0.3,0-0.7,0-1c0-0.2,0-0.5,0-0.7c0-0.1,0-0.1,0.1-0.1
		c1,0.1,2,0.1,3,0.2c0.2,0,0.2,0,0.2,0.2c0,0.5,0,1.1,0,1.6c0,0.1,0,0.1-0.1,0.1C22.6,12.6,22.1,12.5,21.6,12.5z"/>
	<path class="st2" d="M24.2,10.8c0.2,0,0.3,0,0.5,0c0.1,0,0.1,0,0.1,0.1c0,0.6,0.1,1.2,0.1,1.7c0,0.1,0,0.1-0.1,0.1
		c-0.3-0.1-0.7-0.1-1-0.1c-0.1,0-0.1,0-0.1-0.1c0-0.6,0-1.1-0.1-1.7c0-0.1,0-0.1,0.1-0.1C23.9,10.8,24,10.8,24.2,10.8
		C24.2,10.8,24.2,10.8,24.2,10.8z"/>
	<path class="st2" d="M18.4,11.7c0,0.8,0,1.6,0,2.4c0,0.1,0,0.1-0.1,0.1c0,0-0.1-0.1-0.1-0.1c0-0.2-0.1-0.4-0.1-0.6
		c0-0.2-0.1-0.4-0.1-0.6c-0.1-0.3-0.1-0.7-0.1-1c0-0.1,0-0.3,0-0.4c0-0.4,0-0.9-0.1-1.3c0-0.7,0-1.4,0-2.1c0-0.3,0-0.7,0-1
		c0-0.6,0-1.2,0.1-1.8c0-0.1,0-0.1,0-0.2C18,5.1,18,5,18.1,5c0.1,0,0.1,0.1,0.2,0.2c0,0,0,0,0,0.1c0,0.4,0,0.7,0.1,1.1
		c0,0.9,0,1.9,0,2.8C18.4,10,18.4,10.8,18.4,11.7z"/>
</g>
</svg>
