<?xml version="1.0" encoding="utf-8"?>
<!-- Generator: Adobe Illustrator 22.1.0, SVG Export Plug-In . SVG Version: 6.00 Build 0)  -->
<svg version="1.1" id="Слой_1" xmlns="http://www.w3.org/2000/svg" xmlns:xlink="http://www.w3.org/1999/xlink" x="0px" y="0px"
	 viewBox="0 0 28.3 28.3" style="enable-background:new 0 0 28.3 28.3;" xml:space="preserve">
<style type="text/css">
	.st0{fill:#575757;}
	.st1{fill:#FBD405;}
	.st2{fill:#FEFEFD;}
</style>
<g>
	<path class="st0" d="M6.2,20.8c-1-0.1-2.1-0.3-3.1-0.5c-0.2,0-0.4-0.1-0.6-0.1c-0.1,0-0.1-0.1-0.1-0.1c-0.2-0.8-0.4-1.6-0.6-2.5
		c-0.3-1.5-0.6-3-0.8-4.5c-0.1-0.7-0.2-1.5-0.2-2.2c0-0.6,0-1.1,0.1-1.6C0.9,8.4,1,7.5,1.1,6.6c0.1-0.7,0.2-1.4,0.4-2.1
		c0-0.1,0-0.1,0.1-0.1c1.2-0.3,2.5-0.5,3.7-0.7c1.6-0.2,3.2-0.3,4.8-0.3c1.1,0,2.3,0,3.4,0c1,0,2,0.1,3,0.2c0.7,0.1,1.3,0.2,2,0.3
		c1.1,0.2,2.3,0.4,3.4,0.6c0.5,0.1,1.1,0.2,1.6,0.4c0.1,0,0.1,0,0.1,0.1c0,0.8,0,1.7-0.1,2.5c0,0.8-0.1,1.6-0.2,2.4
		c0,0.6-0.1,1.3-0.1,1.9c0,1.3,0,2.5,0,3.8c0,0.6,0.1,1.3,0.1,1.9c0,0,0,0.1,0,0.1c-0.2,0-0.4,0-0.6,0c0-0.1-0.1-0.3-0.1-0.4
		c0-0.1-0.1-0.1-0.2-0.1c-0.1,0-0.1,0.1-0.1,0.2c0,0.1,0,0.2,0.1,0.3c0,0-0.1,0-0.1,0c-0.4,0-0.9,0-1.3-0.1c-0.2,0-0.5,0-0.7,0
		c0,0,0,0,0,0c0,0,0,0,0,0c-0.1,0-0.2,0-0.3,0c-0.1-0.2-0.3-0.3-0.5-0.4c0,0-0.1-0.1-0.1,0c-0.1,0,0,0.1,0,0.1c0,0.1,0,0.1,0.1,0.1
		c0.1,0.1,0.1,0.1,0.2,0.2c0,0-0.1,0-0.1,0c-0.6,0-1.2,0-1.8,0c-1.8,0-3.6,0-5.4,0.1c-0.3,0-0.6,0-0.9,0c-0.5,0-0.9,0.1-1.4,0.1
		c-0.4,0-0.7,0.1-1.1,0.1c-0.4,0-0.7,0.1-1.1,0.2C7.7,18,7.2,18,6.9,18.2c-0.2,0.1-0.3,0.1-0.4,0.2c-0.1,0.1-0.1,0.2,0,0.3
		c0,0,0.1,0.1,0.2,0.1C6.8,18.9,6.9,19,7.1,19c0.3,0.1,0.7,0.1,1,0.2c0.4,0.1,0.7,0.1,1.1,0.1c0.4,0,0.7,0,1.1,0c0.1,0,0.1,0,0.2,0
		c-0.2,0.1-0.5,0.2-0.7,0.2c-0.1,0-0.3,0-0.4-0.1c-0.1-0.1-0.1-0.1-0.2,0c-0.1,0-0.2,0.1-0.4,0.1c-0.4,0.1-0.7,0.2-1.1,0.3
		C7.5,20,7.2,20.1,7,20.2c-0.4-0.1-0.8-0.1-1.2-0.2c0,0-0.1,0-0.1,0c0,0-0.1,0-0.1,0.1c0,0,0,0.1,0,0.1c0,0,0.1,0,0.1,0.1
		c0.2,0.1,0.3,0.1,0.5,0.1c0.2,0,0.4,0,0.6,0.1c0,0,0,0-0.1,0C6.5,20.5,6.4,20.7,6.2,20.8z M21.1,5.2C21.1,5.2,21.1,5.2,21.1,5.2
		c-0.6-0.2-1.2-0.4-1.8-0.5c-0.2,0-0.4-0.1-0.7-0.1c-0.1,0-0.2,0.1-0.2,0.2C18.4,5,18.5,5,18.6,5c0.2,0,0.3,0,0.5,0.1
		c0.5,0.1,1.1,0.1,1.6,0.2C20.8,5.3,20.9,5.3,21.1,5.2C21,5.3,21.1,5.3,21.1,5.2z M21.1,7.5c0.1,0,0.2-0.1,0.3-0.2
		c0.3-0.3,0.5-0.7,0.7-1c0.1-0.2,0.2-0.4,0.3-0.6c0-0.1,0-0.1,0-0.2c-0.1,0-0.1,0-0.2,0c0,0-0.1,0.1-0.1,0.1
		c-0.2,0.2-0.3,0.5-0.4,0.7C21.5,6.8,21.3,7.1,21.1,7.5z M17.4,4.7c0-0.1-0.1-0.1-0.1-0.1c-0.4-0.2-0.7-0.2-1.1-0.2
		c-0.2,0-0.4,0-0.6,0c-0.1,0-0.1,0-0.2,0.1c0,0.1,0,0.1,0.1,0.2c0.1,0,0.2,0,0.2,0c0.3,0,0.7,0,1,0C17.1,4.7,17.2,4.7,17.4,4.7z
		 M11.8,4.3c-0.1,0-0.2,0-0.2,0C11,4.2,10.5,4.2,10,4.2c0,0,0,0-0.1,0c-0.1,0-0.1,0.1-0.1,0.1c0,0.1,0,0.1,0.1,0.1
		c0.1,0,0.1,0,0.2,0c0.5,0,1-0.1,1.5-0.1C11.7,4.4,11.7,4.3,11.8,4.3z M22.4,14.4c0-0.1,0.1-0.2,0.1-0.2c0-0.4,0-0.8,0-1.1
		c0-0.1,0-0.2-0.1-0.2c-0.1-0.1-0.2-0.1-0.2,0c-0.1,0.1-0.1,0.2-0.1,0.3c0,0.2,0.1,0.4,0.1,0.6C22.3,13.9,22.3,14.1,22.4,14.4z
		 M14.8,4.4c-0.1,0-0.1,0-0.2,0c-0.6-0.1-1.2-0.2-1.8-0.2c0,0-0.1,0-0.1,0c-0.1,0-0.1,0-0.1,0.1c0,0.1,0,0.1,0.1,0.1
		c0.1,0,0.1,0,0.2,0c0.5,0,1,0,1.5,0C14.6,4.5,14.7,4.5,14.8,4.4z M22.6,16.7c0.1-0.1,0.1-0.2,0.1-0.3c0-0.4,0-0.7-0.1-1.1
		c0-0.1,0-0.1,0-0.2c0-0.1-0.1-0.1-0.1-0.1c-0.1,0-0.1,0.1-0.1,0.1c0,0.1,0,0.1,0,0.2C22.3,15.8,22.4,16.3,22.6,16.7z M1.6,12.4
		C1.7,12.4,1.6,12.4,1.6,12.4c0-0.4,0-0.6,0-0.9c0-0.2,0-0.4,0-0.5c0-0.1,0-0.2-0.1-0.2c-0.1,0-0.1,0.1-0.1,0.2c0,0.1,0,0.2,0,0.3
		C1.3,11.6,1.4,12,1.6,12.4C1.6,12.4,1.6,12.4,1.6,12.4z M22.5,7.2C22.6,7.2,22.6,7.2,22.5,7.2c0.2-0.5,0.3-0.9,0.4-1.4
		c0-0.1,0-0.1-0.1-0.2c-0.1,0-0.1,0-0.2,0c0,0-0.1,0.1-0.1,0.1c0,0.3-0.1,0.6-0.1,0.9C22.5,6.9,22.5,7,22.5,7.2z M18.9,13.1
		C18.9,13.1,18.9,13,18.9,13.1c0.1-0.5,0.1-0.9,0.1-1.3c0-0.2,0.1-0.5,0.1-0.7c0,0,0-0.1,0-0.1c0,0-0.1,0-0.1,0.1
		c-0.1,0.1-0.1,0.2-0.1,0.3c-0.1,0.4,0,0.9,0,1.3C18.8,12.9,18.8,13,18.9,13.1z M22.3,12.1c0-0.1,0.1-0.1,0.1-0.2c0-0.4,0-0.9,0-1.3
		c0-0.1,0-0.2-0.1-0.2c-0.1,0-0.1,0.1-0.1,0.2c0,0.2,0,0.4,0,0.7C22.2,11.6,22.2,11.8,22.3,12.1z M2.4,16.5
		C2.4,16.4,2.4,16.4,2.4,16.5c0-0.4-0.1-0.7-0.2-1c0-0.1-0.1-0.2-0.1-0.3C2.1,15.1,2,15,2,15.1c-0.1,0-0.1,0.1-0.1,0.2
		c0,0,0,0.1,0,0.1C2,15.6,2,15.8,2.1,16C2.2,16.2,2.2,16.3,2.4,16.5z M9.1,4.3C9.1,4.3,9.1,4.3,9.1,4.3C8.5,4.3,8,4.2,7.5,4.3
		c0,0-0.1,0-0.1,0c-0.1,0-0.1,0.1-0.1,0.1c0,0.1,0,0.1,0.1,0.1c0.1,0,0.1,0,0.2,0c0.4,0,0.8-0.1,1.1-0.1C8.9,4.4,9,4.4,9.1,4.3z
		 M19.4,10.2C19.4,10.2,19.5,10.2,19.4,10.2c0.1,0,0.1-0.1,0.1-0.1c0.2-0.3,0.3-0.6,0.4-0.9c0.1-0.2,0.2-0.4,0.3-0.6
		c0-0.1,0.1-0.2,0-0.2c-0.1,0-0.1,0.1-0.2,0.1c-0.2,0.3-0.2,0.6-0.3,0.9C19.6,9.6,19.5,9.9,19.4,10.2z M22.3,9.6
		C22.4,9.5,22.4,9.5,22.3,9.6c0.1-0.5,0.1-0.9,0.2-1.4c0-0.1,0-0.1-0.1-0.1c-0.1,0-0.1,0-0.2,0.1c0,0.1,0,0.2,0,0.2
		c0,0.3,0,0.5,0.1,0.8C22.3,9.3,22.3,9.5,22.3,9.6z M22.3,5.5c0.1,0,0.2,0,0.3,0c0,0,0,0,0,0c0,0,0,0,0,0c-0.2-0.2-0.5-0.3-0.7-0.3
		c0,0-0.1,0-0.1,0c-0.1,0-0.1,0.1-0.1,0.1c0,0.1,0,0.1,0.1,0.2c0,0,0.1,0,0.1,0C22,5.4,22.2,5.5,22.3,5.5z M6.3,4.4
		c-0.3,0-0.6,0-1,0c-0.1,0-0.2,0-0.3,0.1c-0.1,0-0.1,0.1-0.1,0.1C4.9,4.7,5,4.7,5,4.7c0,0,0.1,0,0.1,0c0.4-0.1,0.7-0.2,1.1-0.3
		C6.2,4.4,6.3,4.4,6.3,4.4z M4.1,4.7C4,4.6,4,4.6,4.1,4.7c-0.4,0-0.9,0-1.3,0c0,0-0.1,0-0.1,0c-0.1,0-0.1,0.1-0.1,0.1
		c0,0.1,0.1,0.1,0.1,0.1c0,0,0.1,0,0.1,0c0.2,0,0.3,0,0.5-0.1C3.6,4.8,3.8,4.8,4.1,4.7z M2.8,18.4C2.8,18.4,2.8,18.4,2.8,18.4
		c0-0.4-0.1-0.8-0.2-1.2c0-0.1-0.1-0.2-0.2-0.1c-0.1,0-0.1,0.1-0.1,0.2c0,0,0,0.1,0,0.1c0.1,0.2,0.2,0.4,0.2,0.7
		C2.6,18.2,2.7,18.3,2.8,18.4z M1.6,8.2C1.7,8.2,1.7,8.1,1.7,8c0-0.1,0.1-0.2,0.1-0.4c0-0.2,0.1-0.5,0.1-0.7c0-0.1,0-0.1-0.1-0.1
		c-0.1,0-0.1,0.1-0.1,0.1c0,0.1,0,0.2,0,0.4C1.6,7.6,1.6,7.9,1.6,8.2z M1.5,10.1C1.5,10.1,1.5,10.1,1.5,10.1
		C1.5,10.1,1.5,10,1.5,10.1c0.1-0.4,0.2-0.7,0.1-1c0-0.1,0-0.2-0.1-0.2c-0.1,0-0.1,0.1-0.1,0.2c0,0.3,0,0.5,0.1,0.8
		C1.5,10,1.4,10.1,1.5,10.1z M4.8,20.1c-0.5-0.1-0.9-0.2-1.3-0.4c-0.1,0-0.1,0-0.2,0c0,0.1,0,0.1,0.1,0.1c0.1,0,0.1,0,0.2,0.1
		C3.8,20,4,20.1,4.3,20.1C4.4,20.1,4.6,20.2,4.8,20.1z M18.7,14.6C18.8,14.6,18.8,14.6,18.7,14.6c0.1-0.3,0.1-0.7,0-1
		c0,0,0-0.1-0.1-0.1c0,0-0.1,0.1-0.1,0.1c0,0,0,0.1,0,0.1C18.6,14,18.7,14.3,18.7,14.6z M3.3,19.7c0-0.2-0.1-0.3-0.1-0.5
		c0-0.1-0.1-0.2-0.1-0.2c0-0.1-0.1-0.1-0.2-0.1c-0.1,0-0.1,0.1-0.1,0.2c0,0.1,0.1,0.1,0.1,0.2C3,19.5,3.1,19.6,3.3,19.7z M19.3,16.1
		c-0.1-0.3-0.2-0.6-0.4-0.9c0,0-0.1-0.1-0.1-0.1c-0.1,0,0,0.1,0,0.1C18.9,15.6,19.1,15.9,19.3,16.1z M2,6C2,6,2,5.9,2,6
		c0.2-0.3,0.2-0.6,0.3-0.8c0,0,0-0.1,0-0.1c0,0,0-0.1-0.1-0.1c0,0-0.1,0-0.1,0c0,0,0,0.1,0,0.1C2,5.4,2,5.7,2,6z M1.8,14.2
		C1.8,14.2,1.9,14.2,1.8,14.2c0,0,0-0.1,0-0.1c0-0.3-0.1-0.5-0.1-0.8c0-0.1-0.1-0.2-0.1-0.3c-0.1,0.1-0.1,0.2-0.1,0.3
		C1.7,13.6,1.8,13.9,1.8,14.2z"/>
	<path class="st1" d="M23,17.6c0.2,0,0.4,0,0.6,0c0.4,0,0.8,0.1,1.2,0.1c0.4,0,0.8,0.1,1.1,0.2c0.3,0,0.5,0.1,0.8,0.2
		c0.2,0.1,0.5,0.1,0.7,0.2c0.1,0,0.2,0.1,0.3,0.2c0.1,0.1,0.1,0.3,0,0.3C27.4,18.9,27.2,19,27,19c-0.3,0.1-0.6,0.1-0.9,0.2
		c-0.3,0.1-0.6,0.1-0.9,0.1c-0.2,0-0.4,0-0.6,0.1c0.1,0,0.1,0.1,0.2,0.1c0.3,0.1,0.6,0.2,0.8,0.2c0.4,0.1,0.7,0.3,1.1,0.4
		c0.2,0.1,0.3,0.2,0.5,0.3c0.3,0.2,0.5,0.3,0.7,0.6c0.2,0.3,0.3,0.7,0,1.1c-0.1,0.2-0.3,0.4-0.5,0.5c-0.3,0.2-0.5,0.3-0.8,0.4
		c-0.3,0.1-0.6,0.2-0.9,0.3c-0.2,0.1-0.4,0.1-0.7,0.2c-0.1,0-0.3,0.1-0.4,0.1c0,0-0.1,0-0.1,0c0.1,0,0.1,0,0.2,0.1
		c0.3,0,0.6,0.1,0.9,0.1c0.2,0,0.4,0.1,0.6,0.1c0.4,0.1,0.9,0.2,1.3,0.4c0.1,0,0.1,0.1,0.1,0.1c0.1,0.1,0.1,0.3-0.1,0.4
		c-0.2,0.1-0.4,0.2-0.7,0.2c-0.2,0.1-0.5,0.1-0.7,0.2c-0.2,0-0.4,0.1-0.6,0.1c-0.4,0.1-0.8,0.1-1.3,0.1c-0.7,0.1-1.4,0.1-2.1,0.2
		c-0.2,0-0.5,0-0.7,0c-0.6,0.1-1.2,0-1.9,0.1c-0.5,0-1.1,0-1.6,0c-1,0-2.1,0-3.1,0c-0.8,0-1.6,0-2.3-0.1c-0.2,0-0.5,0-0.7,0
		c-0.5,0-1.1-0.1-1.6-0.1c-0.4,0-0.8-0.1-1.3-0.1c-0.2,0-0.5,0-0.7-0.1c-0.3-0.1-0.5-0.1-0.8-0.2C7.4,25.1,7.2,25,6.9,25
		c-0.1,0-0.2-0.1-0.3-0.2c-0.1-0.1-0.1-0.2,0-0.3c0.1-0.1,0.3-0.2,0.5-0.3c0.3-0.1,0.6-0.2,0.9-0.2c0.3-0.1,0.6-0.1,0.9-0.1
		c0.4,0,0.7-0.1,1.1-0.1c0,0.1,0.1,0.1,0.2,0.1c0.2,0,0.4-0.1,0.5-0.1c0.1,0,0.2,0,0.1-0.1c0-0.1-0.1-0.1-0.2-0.1
		c-0.2,0-0.3,0-0.5,0c-0.1,0-0.1,0-0.2,0.1c0,0,0,0-0.1,0c-0.2-0.1-0.3-0.1-0.5-0.1c-0.4-0.1-0.8-0.2-1.1-0.3
		c-0.2-0.1-0.4-0.1-0.6-0.2c-0.2-0.1-0.4-0.1-0.6-0.2c-0.3-0.2-0.6-0.4-0.9-0.6C6,22,5.8,21.7,5.9,21.3c0-0.1,0.1-0.3,0.2-0.4
		c0,0,0.1-0.1,0.1-0.1c0.2-0.2,0.4-0.3,0.6-0.5c0,0,0,0,0.1,0c0,0,0.1,0,0.1-0.1c0.3-0.1,0.5-0.2,0.8-0.3c0.4-0.1,0.7-0.2,1.1-0.3
		c0.1,0,0.2,0,0.4-0.1c0.1,0,0.1,0,0.2,0c0.1,0.1,0.3,0.1,0.4,0.1c0.2,0,0.5-0.1,0.7-0.2c-0.1,0-0.1,0-0.2,0c-0.4,0-0.8,0-1.1,0
		c-0.4,0-0.7-0.1-1.1-0.1c-0.3-0.1-0.7-0.1-1-0.2c-0.2-0.1-0.4-0.1-0.6-0.2c-0.1,0-0.1-0.1-0.2-0.1c-0.1-0.1-0.1-0.2,0-0.3
		c0.1-0.1,0.3-0.2,0.4-0.2C7.2,18,7.7,18,8.1,17.9c0.4-0.1,0.7-0.1,1.1-0.2c0.4,0,0.7-0.1,1.1-0.1c0.5,0,0.9-0.1,1.4-0.1
		c0.3,0,0.6,0,0.9,0c1.8-0.1,3.6-0.1,5.4-0.1c0.6,0,1.2,0,1.8,0c0,0,0.1,0,0.1,0c0,0,0.1,0,0.2,0c0.2,0,0.3,0,0.5,0
		c0.2,0,0.5,0,0.7,0c0.4,0,0.9,0,1.3,0.1c0,0,0.1,0,0.1,0C22.7,17.6,22.8,17.6,23,17.6z M19.7,25c0.4,0,0.7,0,1.1,0
		c0.6,0,1.3,0,1.9-0.1c0.4,0,0.7,0,1.1,0c0.4,0,0.7-0.1,1.1-0.1c0.2,0,0.4-0.1,0.5-0.2c0.1-0.1,0.1-0.1,0-0.2c0-0.1-0.1-0.1-0.1-0.1
		c-0.1,0-0.2,0-0.3,0c-0.5,0-0.9,0-1.4,0.1c-0.4,0-0.7,0-1.1,0c-0.5,0-1,0-1.5,0c-0.7,0-1.4,0.1-2.1,0.1c-0.4,0-0.7,0.1-1.1,0.1
		c-0.4,0-0.8,0.1-1.2,0.1c-0.1,0-0.1,0-0.2,0c0,0,0,0-0.1,0c0,0,0,0,0,0.1c0,0,0,0,0.1,0c0.2,0,0.4,0,0.7,0c0.6,0,1.1,0,1.7,0
		C19.2,25,19.5,25,19.7,25z M7,21.7c0.1,0,0.1,0,0.1,0c0.1,0,0.3-0.1,0.4-0.1c0.3-0.1,0.6-0.2,0.9-0.2c0.3,0,0.6-0.1,1-0.2
		c0.3,0,0.5-0.1,0.8-0.1c0.3,0,0.7-0.1,1-0.1c0.5,0,1-0.1,1.5-0.2c0.3,0,0.6-0.1,0.9-0.1c0.1,0,0.2,0,0.3,0c0,0,0.1,0,0.1,0
		c0,0,0-0.1-0.1-0.1c-0.1,0-0.1,0-0.2,0c-0.3-0.1-0.7-0.1-1.1-0.1c-0.6,0-1.3,0-1.9,0c-0.4,0-0.7,0.1-1.1,0.1
		c-0.4,0-0.8,0.1-1.2,0.2c-0.4,0.1-0.8,0.2-1.2,0.4c-0.2,0.1-0.3,0.1-0.4,0.3c-0.1,0.1-0.1,0.1,0,0.2C6.9,21.7,7,21.7,7,21.7z
		 M17.2,18.1C17.2,18.1,17.2,18.1,17.2,18.1c-0.3,0-0.6,0-0.8,0c-0.6,0-1.2,0-1.8,0.1c-0.1,0-0.2,0-0.3,0.1c0,0-0.1,0-0.1,0.1
		c0,0,0,0,0.1,0c0,0,0.1,0,0.1,0c0.3,0,0.6,0,0.9,0c1.1,0,2.2,0,3.3-0.1c0.5,0,1,0,1.5,0c0,0,0.1,0,0.1,0c0,0,0,0-0.1,0
		c-0.4,0-0.8-0.1-1.2-0.1C18.3,18.1,17.8,18.1,17.2,18.1z M13.3,19.4c-0.1,0-0.2,0-0.2,0c-0.1,0-0.2,0.1-0.2,0.2
		c0,0.1,0.1,0.2,0.1,0.2c0,0,0.1,0,0.1,0c0.2,0,0.4-0.1,0.6,0c0.1,0,0.3,0,0.4-0.1c0,0,0.1,0,0.1,0c0,0,0,0-0.1-0.1
		C13.9,19.5,13.6,19.4,13.3,19.4z M11.6,19.5c-0.1,0-0.2,0-0.3,0c-0.1,0-0.2,0-0.2,0.1c0,0.1,0,0.1,0.1,0.2c0,0,0.1,0,0.1,0
		c0.4,0,0.7-0.1,1.1-0.1c0,0,0.1,0,0.1-0.1c0,0,0,0-0.1-0.1c0,0,0,0,0,0C12.1,19.5,11.9,19.5,11.6,19.5z M13.9,23.3
		c-0.1,0-0.2,0-0.3,0c-0.1,0-0.1,0.1-0.1,0.1c0,0.1,0,0.1,0.1,0.1c0,0,0.1,0,0.2,0c0.2,0,0.4,0,0.6-0.1c0.1,0,0.2,0,0.2-0.1
		c0-0.1-0.1-0.1-0.2-0.1C14.2,23.3,14.1,23.3,13.9,23.3z M21.6,23.5C21.6,23.4,21.6,23.4,21.6,23.5c-0.3-0.1-0.5-0.1-0.8-0.2
		c-0.1,0-0.2,0-0.3,0c-0.1,0-0.1,0-0.1,0.1c0,0.1,0,0.1,0.1,0.1c0,0,0.1,0,0.1,0c0.3,0,0.6,0,0.9,0C21.5,23.5,21.5,23.5,21.6,23.5z
		 M15.6,19.7C15.6,19.6,15.6,19.6,15.6,19.7c-0.4-0.1-0.7-0.1-0.9-0.1c0,0,0,0-0.1,0c-0.1,0.1-0.1,0.1,0,0.2c0.1,0,0.1,0.1,0.2,0
		c0.1,0,0.2,0,0.3,0C15.3,19.8,15.5,19.8,15.6,19.7z M19.2,19.6c0,0-0.1,0-0.1,0c-0.2,0-0.5,0-0.7,0c-0.1,0-0.2,0-0.2,0.1
		c-0.1,0-0.1,0.1,0,0.2c0,0,0.1,0.1,0.1,0.1c0.1,0,0.3,0,0.4,0C18.8,19.7,19,19.7,19.2,19.6z M21.2,19.6
		C21.1,19.6,21.1,19.6,21.2,19.6c-0.3-0.1-0.6-0.1-0.9-0.1c-0.1,0-0.3,0-0.3,0.1c0,0.1,0.1,0.2,0.2,0.2c0.2,0,0.4,0,0.7-0.1
		C21,19.6,21.1,19.7,21.2,19.6z M11.6,23.5c-0.2,0-0.3,0-0.5,0c-0.1,0-0.1,0-0.1,0.1c0,0.1,0.1,0.1,0.1,0.1c0.2,0,0.5,0,0.7-0.1
		c0.1,0,0.1,0,0.1,0c0,0,0.1,0,0.1-0.1c0,0,0,0-0.1-0.1C11.8,23.5,11.7,23.5,11.6,23.5z M22.4,19.7c0.2,0,0.4,0,0.5-0.1
		c0,0,0.1,0,0.1,0c0,0-0.1,0-0.1,0c-0.2,0-0.3-0.1-0.5-0.1c-0.1,0-0.3-0.1-0.4,0c0,0-0.1,0-0.1,0.1c0,0,0,0.1,0.1,0.1
		C22.2,19.7,22.3,19.7,22.4,19.7z M22.2,23.4c-0.1,0-0.1,0-0.2,0c-0.1,0-0.1,0-0.1,0.1c0,0.1,0,0.1,0.1,0.1c0.3,0,0.6,0,1,0
		c0,0,0,0,0.1,0c0,0,0,0,0,0C22.8,23.5,22.5,23.4,22.2,23.4z M17.9,23.3c-0.1,0-0.2,0-0.3,0c0,0-0.1,0.1-0.1,0.1
		c0,0.1,0,0.1,0.1,0.1c0,0,0.1,0,0.1,0c0.3,0,0.5,0,0.8-0.1c0,0,0.1,0,0.1,0c0,0-0.1,0-0.1-0.1C18.3,23.3,18.1,23.3,17.9,23.3z
		 M24.5,23.8C24.5,23.8,24.5,23.8,24.5,23.8c-0.3-0.2-0.6-0.3-0.9-0.3c-0.1,0-0.1,0-0.1,0.1c0,0.1,0.1,0.1,0.1,0.1
		c0.2,0.1,0.5,0,0.7,0.1C24.3,23.9,24.4,23.9,24.5,23.8z M17.3,23.4c-0.3-0.1-0.6-0.1-1-0.1c0,0-0.1,0-0.1,0c-0.1,0-0.1,0.1,0,0.2
		c0,0,0.1,0,0.1,0c0.1,0,0.3,0,0.4,0C16.9,23.4,17.1,23.5,17.3,23.4z M13.4,23.4c0,0-0.1,0-0.1,0c-0.2,0-0.4,0-0.6,0
		c-0.1,0-0.1,0-0.2,0c-0.1,0-0.1,0-0.1,0.1c0,0.1,0.1,0.1,0.1,0.1c0.3,0,0.5-0.1,0.7-0.1C13.2,23.5,13.3,23.5,13.4,23.4z M17.2,19.7
		c-0.2-0.1-0.4-0.1-0.6-0.2c-0.1,0-0.1,0-0.2,0c-0.1,0-0.1,0-0.2,0.1c0,0.1,0.1,0.1,0.1,0.1c0.2,0,0.4,0,0.6,0
		C17,19.8,17.1,19.8,17.2,19.7z M20.1,23.4c-0.4-0.1-0.7-0.1-1.1-0.1c0,0-0.1,0-0.1,0.1c0,0.1,0,0.1,0.1,0.1c0,0,0.1,0,0.1,0
		c0.2,0,0.3,0,0.5,0C19.8,23.4,20,23.4,20.1,23.4z M24.1,19.7c0.1,0,0.3,0,0.4-0.1c0,0,0.1,0,0.1,0c0,0,0,0-0.1-0.1
		c-0.1-0.1-0.2-0.1-0.4-0.1c-0.1,0-0.2,0-0.3,0.1c0,0,0,0.1,0,0.1c0,0,0,0,0.1,0.1C23.9,19.7,24,19.7,24.1,19.7z M15.9,23.4
		c-0.3-0.1-0.6-0.1-0.9-0.1c0,0-0.1,0-0.1,0.1c0,0.1,0.1,0.1,0.1,0.1C15.3,23.5,15.6,23.5,15.9,23.4z"/>
	<path class="st0" d="M10,23.7c0-0.1,0.1-0.1,0.2-0.1c0.2,0,0.3,0,0.5,0c0.1,0,0.1,0,0.2,0.1c0,0-0.1,0.1-0.1,0.1
		c-0.2,0-0.4,0.1-0.5,0.1C10.1,23.8,10,23.8,10,23.7C10,23.8,10,23.7,10,23.7z"/>
	<path class="st2" d="M21.1,5.2C21.1,5.3,21,5.3,21.1,5.2c-0.2,0-0.3,0-0.4,0c-0.5-0.1-1.1-0.1-1.6-0.2c-0.2,0-0.3,0-0.5-0.1
		c-0.1,0-0.2-0.1-0.2-0.2c0-0.1,0.1-0.2,0.2-0.2c0.2,0,0.4,0,0.7,0.1C19.9,4.9,20.5,5,21.1,5.2C21.1,5.2,21.1,5.2,21.1,5.2z"/>
	<path class="st2" d="M21.1,7.5c0.2-0.3,0.4-0.7,0.6-1c0.1-0.2,0.3-0.5,0.4-0.7c0,0,0.1-0.1,0.1-0.1c0.1-0.1,0.1-0.1,0.2,0
		c0.1,0,0.1,0.1,0,0.2c-0.1,0.2-0.2,0.4-0.3,0.6c-0.2,0.3-0.4,0.7-0.7,1C21.3,7.3,21.2,7.4,21.1,7.5z"/>
	<path class="st2" d="M17.4,4.7c-0.2,0-0.4,0-0.6,0c-0.3,0-0.7,0-1,0c-0.1,0-0.2,0-0.2,0c-0.1,0-0.1-0.1-0.1-0.2
		c0-0.1,0.1-0.1,0.2-0.1c0.2,0,0.4,0,0.6,0c0.4,0,0.8,0.1,1.1,0.2C17.4,4.7,17.4,4.7,17.4,4.7z"/>
	<path class="st2" d="M11.8,4.3c-0.1,0.1-0.1,0.1-0.2,0.1c-0.5,0.1-1,0.1-1.5,0.1c-0.1,0-0.1,0-0.2,0c-0.1,0-0.1-0.1-0.1-0.1
		c0-0.1,0.1-0.1,0.1-0.1c0,0,0,0,0.1,0c0.5,0,1.1,0,1.6,0.1C11.6,4.3,11.7,4.3,11.8,4.3z"/>
	<path class="st2" d="M22.4,14.4c-0.1-0.2-0.1-0.5-0.2-0.7c0-0.2-0.1-0.4-0.1-0.6c0-0.1,0-0.2,0.1-0.3c0.1-0.1,0.2-0.1,0.2,0
		c0,0.1,0.1,0.1,0.1,0.2c0,0.4,0,0.8,0,1.1C22.4,14.2,22.4,14.3,22.4,14.4z"/>
	<path class="st2" d="M14.8,4.4c-0.1,0.1-0.2,0.1-0.3,0.1c-0.5,0-1,0-1.5,0c-0.1,0-0.1,0-0.2,0c-0.1,0-0.1-0.1-0.1-0.1
		c0-0.1,0-0.1,0.1-0.1c0,0,0.1,0,0.1,0c0.6,0,1.2,0.1,1.8,0.2C14.6,4.4,14.7,4.4,14.8,4.4z"/>
	<path class="st2" d="M22.6,16.7c-0.2-0.5-0.3-0.9-0.3-1.4c0-0.1,0-0.1,0-0.2c0-0.1,0.1-0.1,0.1-0.1c0.1,0,0.1,0,0.1,0.1
		c0,0.1,0,0.1,0,0.2c0,0.4,0.1,0.7,0.1,1.1C22.6,16.6,22.6,16.6,22.6,16.7z"/>
	<path class="st2" d="M1.6,12.4C1.6,12.4,1.6,12.4,1.6,12.4c-0.2-0.4-0.3-0.8-0.3-1.2c0-0.1,0-0.2,0-0.3c0-0.1,0-0.2,0.1-0.2
		c0.1,0,0.1,0.1,0.1,0.2c0,0.2,0,0.4,0,0.5C1.6,11.8,1.7,12,1.6,12.4C1.6,12.4,1.7,12.4,1.6,12.4z"/>
	<path class="st2" d="M22.5,7.2c0-0.2,0-0.4,0-0.5c0-0.3,0.1-0.6,0.1-0.9c0-0.1,0-0.1,0.1-0.1c0.1,0,0.1-0.1,0.2,0
		c0.1,0,0.1,0.1,0.1,0.2C22.8,6.3,22.8,6.7,22.5,7.2C22.6,7.2,22.6,7.2,22.5,7.2z"/>
	<path class="st2" d="M18.9,13.1c-0.1-0.1-0.1-0.3-0.1-0.4c0-0.4-0.1-0.9,0-1.3c0-0.1,0-0.2,0.1-0.3C19,11,19,11,19,11
		c0,0,0,0.1,0,0.1c0,0.2-0.1,0.5-0.1,0.7C18.9,12.2,18.9,12.6,18.9,13.1C18.9,13,18.9,13.1,18.9,13.1z"/>
	<path class="st2" d="M22.3,12.1c-0.1-0.3-0.1-0.6-0.2-0.8c0-0.2-0.1-0.4,0-0.7c0-0.1,0.1-0.2,0.1-0.2c0.1,0,0.1,0.1,0.1,0.2
		c0,0.4,0,0.9,0,1.3C22.4,12,22.4,12,22.3,12.1z"/>
	<path class="st2" d="M2.4,16.5c-0.1-0.2-0.2-0.3-0.3-0.5C2,15.8,2,15.6,1.9,15.3c0,0,0-0.1,0-0.1c0-0.1,0-0.1,0.1-0.2
		c0.1,0,0.1,0,0.2,0.1c0,0.1,0.1,0.2,0.1,0.3C2.3,15.8,2.4,16.1,2.4,16.5C2.4,16.4,2.4,16.4,2.4,16.5z"/>
	<path class="st2" d="M9.1,4.3C9,4.4,8.9,4.4,8.7,4.4C8.4,4.4,8,4.5,7.6,4.5c-0.1,0-0.1,0-0.2,0c-0.1,0-0.1-0.1-0.1-0.1
		c0-0.1,0-0.1,0.1-0.1c0,0,0.1,0,0.1,0C8,4.2,8.5,4.3,9.1,4.3C9.1,4.3,9.1,4.3,9.1,4.3z"/>
	<path class="st2" d="M19.4,10.2c0.1-0.3,0.2-0.5,0.3-0.8c0.1-0.3,0.2-0.6,0.3-0.9c0-0.1,0.1-0.2,0.2-0.1c0.1,0,0,0.1,0,0.2
		C20.2,8.8,20.1,9,20,9.2c-0.1,0.3-0.3,0.6-0.4,0.9C19.5,10.1,19.5,10.1,19.4,10.2C19.5,10.2,19.4,10.2,19.4,10.2z"/>
	<path class="st2" d="M22.3,9.6c0-0.1,0-0.2-0.1-0.4c0-0.3-0.1-0.5-0.1-0.8c0-0.1,0-0.2,0-0.2c0-0.1,0.1-0.1,0.2-0.1
		c0.1,0,0.1,0.1,0.1,0.1C22.5,8.7,22.5,9.1,22.3,9.6C22.4,9.5,22.4,9.5,22.3,9.6z"/>
	<path class="st2" d="M22.3,5.5c-0.2,0-0.4,0-0.5-0.1c0,0-0.1,0-0.1,0c-0.1,0-0.1-0.1-0.1-0.2c0-0.1,0.1-0.1,0.1-0.1
		c0,0,0.1,0,0.1,0c0.3,0.1,0.5,0.2,0.7,0.3c0,0,0,0,0,0c0,0,0,0,0,0C22.5,5.5,22.4,5.5,22.3,5.5z"/>
	<path class="st2" d="M6.3,4.4c0,0.1-0.1,0.1-0.1,0.1C5.8,4.5,5.5,4.6,5.1,4.7c0,0-0.1,0-0.1,0c-0.1,0-0.1,0-0.1-0.1
		c0-0.1,0-0.1,0.1-0.1c0.1,0,0.2-0.1,0.3-0.1C5.6,4.4,6,4.3,6.3,4.4z"/>
	<path class="st2" d="M4.1,4.7C3.8,4.8,3.6,4.8,3.3,4.9c-0.2,0-0.3,0-0.5,0.1c0,0-0.1,0-0.1,0c-0.1,0-0.1,0-0.1-0.1
		c0-0.1,0-0.1,0.1-0.1c0,0,0.1,0,0.1,0C3.2,4.7,3.6,4.7,4.1,4.7C4,4.6,4,4.6,4.1,4.7z"/>
	<path class="st2" d="M2.8,18.4c-0.1-0.1-0.1-0.3-0.2-0.4c-0.1-0.2-0.2-0.4-0.2-0.7c0,0,0-0.1,0-0.1c0-0.1,0-0.2,0.1-0.2
		c0.1,0,0.1,0,0.2,0.1C2.6,17.6,2.8,18,2.8,18.4C2.8,18.4,2.8,18.4,2.8,18.4z"/>
	<path class="st2" d="M1.6,8.2c0-0.3,0-0.6,0-0.9c0-0.1,0-0.2,0-0.4c0-0.1,0-0.1,0.1-0.1c0.1,0,0.1,0.1,0.1,0.1
		c0,0.3-0.1,0.5-0.1,0.7c0,0.1-0.1,0.2-0.1,0.4C1.7,8.1,1.7,8.2,1.6,8.2z"/>
	<path class="st2" d="M1.5,10.1c0,0,0-0.1,0-0.1C1.4,9.7,1.4,9.4,1.4,9.2c0-0.1,0-0.2,0.1-0.2c0.1,0,0.1,0.1,0.1,0.2
		C1.7,9.5,1.6,9.7,1.5,10.1C1.5,10,1.5,10.1,1.5,10.1C1.5,10.1,1.5,10.1,1.5,10.1z"/>
	<path class="st2" d="M7,20.2c0,0.1-0.1,0.1-0.1,0.1c-0.2,0-0.4,0-0.6-0.1c-0.2,0-0.3,0-0.5-0.1c0,0-0.1,0-0.1-0.1c0,0,0-0.1,0-0.1
		c0,0,0-0.1,0.1-0.1c0,0,0.1,0,0.1,0C6.2,20.1,6.6,20.2,7,20.2z"/>
	<path class="st2" d="M4.8,20.1c-0.2,0-0.4,0-0.6,0c-0.2,0-0.4-0.1-0.7-0.1c-0.1,0-0.1,0-0.2-0.1c-0.1,0-0.1-0.1-0.1-0.1
		c0-0.1,0.1,0,0.2,0C3.9,19.9,4.4,20,4.8,20.1z"/>
	<path class="st2" d="M18.7,14.6c-0.1-0.3-0.2-0.6-0.2-0.8c0,0,0-0.1,0-0.1c0,0,0-0.1,0.1-0.1c0.1,0,0.1,0,0.1,0.1
		C18.8,13.9,18.8,14.2,18.7,14.6C18.8,14.6,18.8,14.6,18.7,14.6z"/>
	<path class="st2" d="M3.3,19.7c-0.1-0.1-0.2-0.3-0.3-0.4c0-0.1-0.1-0.1-0.1-0.2c0-0.1,0-0.2,0.1-0.2c0.1,0,0.1,0,0.2,0.1
		c0,0.1,0.1,0.2,0.1,0.2C3.2,19.4,3.2,19.5,3.3,19.7z"/>
	<path class="st2" d="M19.3,16.1c-0.2-0.3-0.4-0.5-0.5-0.9c0,0,0-0.1,0-0.1c0,0,0.1,0,0.1,0.1C19.1,15.5,19.2,15.8,19.3,16.1z"/>
	<path class="st2" d="M23,17.6c-0.1,0-0.2,0-0.4,0c0-0.1,0-0.2-0.1-0.3c0-0.1,0-0.1,0.1-0.2c0.1,0,0.2,0,0.2,0.1
		C22.9,17.3,22.9,17.4,23,17.6z"/>
	<path class="st2" d="M20.5,17.4c-0.2,0-0.3,0-0.5,0c-0.1,0-0.1,0-0.2,0c-0.1-0.1-0.1-0.1-0.2-0.2c0,0-0.1-0.1-0.1-0.1
		c0,0,0-0.1,0-0.1c0,0,0.1,0,0.1,0c0.2,0.1,0.3,0.3,0.5,0.4C20.3,17.5,20.4,17.4,20.5,17.4C20.5,17.4,20.5,17.4,20.5,17.4
		C20.5,17.4,20.5,17.4,20.5,17.4z"/>
	<path class="st2" d="M2,6C2,5.7,2,5.4,2,5.1c0,0,0-0.1,0-0.1c0,0,0-0.1,0.1,0c0,0,0.1,0,0.1,0.1c0,0,0,0.1,0,0.1
		C2.2,5.4,2.1,5.7,2,6C2,5.9,2,6,2,6z"/>
	<path class="st2" d="M1.8,14.2c-0.1-0.3-0.2-0.6-0.3-0.9c0-0.1,0-0.2,0.1-0.3c0.1,0.1,0.1,0.2,0.1,0.3c0,0.3,0,0.5,0.1,0.8
		C1.9,14.1,1.9,14.2,1.8,14.2C1.9,14.2,1.8,14.2,1.8,14.2z"/>
	<path class="st2" d="M19.7,25c-0.3,0-0.6,0-0.8,0c-0.6,0-1.1,0-1.7,0c-0.2,0-0.4,0-0.7,0c0,0-0.1,0-0.1,0c0,0,0,0,0-0.1
		c0,0,0,0,0.1,0c0.1,0,0.1,0,0.2,0c0.4,0,0.8-0.1,1.2-0.1c0.4,0,0.7-0.1,1.1-0.1c0.7-0.1,1.4-0.1,2.1-0.1c0.5,0,1,0,1.5,0
		c0.4,0,0.8,0,1.1,0c0.5,0,0.9-0.1,1.4-0.1c0.1,0,0.2,0,0.3,0c0.1,0,0.1,0,0.1,0.1c0,0.1,0,0.1,0,0.2c-0.2,0.1-0.3,0.2-0.5,0.2
		c-0.4,0.1-0.7,0.1-1.1,0.1c-0.4,0-0.7,0-1.1,0c-0.6,0.1-1.3,0-1.9,0.1C20.5,25,20.1,25,19.7,25z"/>
	<path class="st2" d="M7,21.7c-0.1,0-0.1,0-0.1-0.1c0-0.1,0-0.1,0-0.2c0.1-0.1,0.3-0.2,0.4-0.3c0.4-0.2,0.8-0.3,1.2-0.4
		c0.4-0.1,0.8-0.1,1.2-0.2c0.4,0,0.7-0.1,1.1-0.1c0.6-0.1,1.3,0,1.9,0c0.4,0,0.7,0.1,1.1,0.1c0.1,0,0.1,0,0.2,0c0,0,0.1,0,0.1,0.1
		c0,0,0,0-0.1,0c-0.1,0-0.2,0-0.3,0c-0.3,0-0.6,0-0.9,0.1c-0.5,0-1,0.1-1.5,0.2c-0.3,0-0.7,0.1-1,0.1c-0.3,0-0.5,0-0.8,0.1
		c-0.3,0-0.6,0.1-1,0.2c-0.3,0-0.6,0.1-0.9,0.2c-0.1,0-0.3,0.1-0.4,0.1C7.1,21.7,7.1,21.7,7,21.7z"/>
	<path class="st2" d="M17.2,18.1c0.6,0,1.2,0,1.8,0c0.4,0,0.8,0.1,1.2,0.1c0,0,0.1,0,0.1,0c0,0.1,0,0-0.1,0c-0.5,0-1,0-1.5,0
		c-1.1,0-2.2,0-3.3,0.1c-0.3,0-0.6,0-0.9,0c0,0-0.1,0-0.1,0c0,0-0.1,0-0.1,0c0,0,0-0.1,0.1-0.1c0.1,0,0.2-0.1,0.3-0.1
		c0.6-0.1,1.2-0.1,1.8-0.1C16.6,18.1,16.9,18.1,17.2,18.1C17.2,18.1,17.2,18.1,17.2,18.1z"/>
	<path class="st0" d="M13.3,19.4c0.3,0,0.6,0.1,0.8,0.2c0,0,0.1,0,0.1,0.1c0,0,0,0-0.1,0c-0.1,0-0.3,0.1-0.4,0.1
		c-0.2,0-0.4,0.1-0.6,0c0,0-0.1,0-0.1,0c-0.1,0-0.2-0.1-0.1-0.2c0-0.1,0.1-0.2,0.2-0.2C13.2,19.4,13.3,19.4,13.3,19.4z"/>
	<path class="st0" d="M11.6,19.5c0.3,0,0.5,0,0.8,0.1c0,0,0,0,0,0c0,0,0.1,0,0.1,0.1c0,0,0,0-0.1,0.1c-0.4,0.1-0.7,0.1-1.1,0.1
		c0,0-0.1,0-0.1,0c-0.1,0-0.1-0.1-0.1-0.2c0-0.1,0.1-0.1,0.2-0.1C11.4,19.5,11.5,19.5,11.6,19.5z"/>
	<path class="st0" d="M13.9,23.3c0.2,0,0.3,0,0.5,0c0.1,0,0.2,0,0.2,0.1c0,0.1-0.1,0.1-0.2,0.1c-0.2,0-0.4,0.1-0.6,0.1
		c-0.1,0-0.1,0-0.2,0c-0.1,0-0.1-0.1-0.1-0.1c0-0.1,0-0.1,0.1-0.1C13.7,23.3,13.8,23.3,13.9,23.3z"/>
	<path class="st0" d="M21.6,23.5c0,0-0.1,0-0.1,0c-0.3,0-0.6,0-0.9,0c0,0-0.1,0-0.1,0c-0.1,0-0.1-0.1-0.1-0.1c0-0.1,0.1-0.1,0.1-0.1
		c0.1,0,0.2,0,0.3,0C21,23.3,21.3,23.4,21.6,23.5C21.6,23.4,21.6,23.4,21.6,23.5z"/>
	<path class="st0" d="M15.6,19.7c-0.2,0.1-0.3,0.1-0.5,0.1c-0.1,0-0.2,0-0.3,0c-0.1,0-0.1,0-0.2,0c-0.1-0.1-0.1-0.2,0-0.2
		c0,0,0,0,0.1,0C15,19.5,15.3,19.6,15.6,19.7C15.6,19.6,15.6,19.6,15.6,19.7z"/>
	<path class="st0" d="M19.2,19.6c-0.2,0.1-0.4,0.1-0.6,0.2c-0.1,0-0.3,0.1-0.4,0c-0.1,0-0.1,0-0.1-0.1c0-0.1,0-0.1,0-0.2
		c0.1,0,0.2-0.1,0.2-0.1c0.2,0,0.5,0,0.7,0C19.1,19.6,19.2,19.6,19.2,19.6z"/>
	<path class="st0" d="M21.2,19.6c-0.1,0.1-0.2,0.1-0.2,0.1c-0.2,0.1-0.4,0.1-0.7,0.1c-0.1,0-0.2-0.1-0.2-0.2c0-0.1,0.1-0.2,0.3-0.1
		C20.6,19.5,20.8,19.5,21.2,19.6C21.1,19.6,21.1,19.6,21.2,19.6z"/>
	<path class="st0" d="M11.6,23.5c0.1,0,0.3,0,0.4,0c0,0,0.1,0,0.1,0.1c0,0,0,0-0.1,0.1c0,0-0.1,0-0.1,0c-0.2,0-0.4,0.1-0.7,0.1
		c-0.1,0-0.1,0-0.1-0.1c0-0.1,0-0.1,0.1-0.1C11.3,23.5,11.4,23.5,11.6,23.5z"/>
	<path class="st0" d="M22.4,19.7c-0.1,0-0.3,0-0.4-0.1c0,0-0.1,0-0.1-0.1c0,0,0-0.1,0.1-0.1c0.1-0.1,0.3-0.1,0.4,0
		c0.2,0,0.3,0.1,0.5,0.1c0,0,0.1,0,0.1,0c0,0-0.1,0-0.1,0C22.8,19.7,22.6,19.7,22.4,19.7z"/>
	<path class="st0" d="M22.2,23.4c0.3,0,0.5,0.1,0.8,0.2c0,0,0,0,0,0c0,0,0,0-0.1,0c-0.3,0-0.6,0-1,0c-0.1,0-0.1-0.1-0.1-0.1
		c0-0.1,0-0.1,0.1-0.1C22.1,23.4,22.2,23.4,22.2,23.4z"/>
	<path class="st0" d="M17.9,23.3c0.2,0,0.4,0,0.6,0.1c0,0,0.1,0,0.1,0.1c0,0.1-0.1,0-0.1,0c-0.3,0.1-0.5,0.1-0.8,0.1
		c0,0-0.1,0-0.1,0c-0.1,0-0.1-0.1-0.1-0.1c0-0.1,0-0.1,0.1-0.1C17.6,23.2,17.8,23.3,17.9,23.3z"/>
	<path class="st0" d="M24.5,23.8c-0.1,0-0.2,0-0.3,0c-0.2,0-0.5,0-0.7-0.1c-0.1,0-0.1,0-0.1-0.1c0-0.1,0.1-0.1,0.1-0.1
		C23.9,23.5,24.2,23.7,24.5,23.8C24.5,23.8,24.5,23.8,24.5,23.8z"/>
	<path class="st0" d="M17.3,23.4c-0.2,0.1-0.3,0.1-0.5,0.1c-0.1,0-0.3,0-0.4,0c0,0-0.1,0-0.1,0c-0.1,0-0.1-0.1,0-0.2
		c0,0,0.1,0,0.1,0C16.6,23.2,16.9,23.2,17.3,23.4z"/>
	<path class="st0" d="M13.4,23.4c-0.1,0-0.1,0.1-0.2,0.1c-0.2,0.1-0.5,0.1-0.7,0.1c-0.1,0-0.1,0-0.1-0.1c0-0.1,0-0.1,0.1-0.1
		c0.1,0,0.1,0,0.2,0c0.2,0,0.4,0,0.6,0C13.3,23.4,13.3,23.4,13.4,23.4z"/>
	<path class="st0" d="M17.2,19.7c-0.1,0.1-0.2,0.1-0.3,0.1c-0.2,0-0.4,0-0.6,0c-0.1,0-0.1,0-0.1-0.1c0-0.1,0.1-0.1,0.2-0.1
		c0.1,0,0.2,0,0.2,0C16.8,19.6,17,19.6,17.2,19.7z"/>
	<path class="st0" d="M20.1,23.4c-0.1,0.1-0.3,0.1-0.4,0.1c-0.2,0-0.3,0.1-0.5,0c0,0-0.1,0-0.1,0c0,0-0.1,0-0.1-0.1
		c0,0,0-0.1,0.1-0.1C19.4,23.3,19.7,23.3,20.1,23.4z"/>
	<path class="st0" d="M24.1,19.7c-0.1,0-0.2,0-0.2,0c0,0-0.1,0-0.1-0.1c0,0,0-0.1,0-0.1c0.1-0.1,0.2-0.1,0.3-0.1
		c0.1,0,0.3,0,0.4,0.1c0,0,0.1,0,0.1,0.1c0,0,0,0-0.1,0C24.3,19.6,24.2,19.7,24.1,19.7z"/>
	<path class="st0" d="M15.9,23.4c-0.3,0.1-0.6,0.1-0.9,0.1c0,0-0.1,0-0.1-0.1c0,0,0-0.1,0.1-0.1C15.3,23.3,15.6,23.3,15.9,23.4z"/>
</g>
</svg>
