<?xml version="1.0" encoding="utf-8"?>
<!-- Generator: Adobe Illustrator 22.1.0, SVG Export Plug-In . SVG Version: 6.00 Build 0)  -->
<svg version="1.1" id="Слой_1" xmlns="http://www.w3.org/2000/svg" xmlns:xlink="http://www.w3.org/1999/xlink" x="0px" y="0px"
	 viewBox="0 0 28.3 28.3" style="enable-background:new 0 0 28.3 28.3;" xml:space="preserve">
<style type="text/css">
	.st0{fill:#575757;}
	.st1{fill:#FBD505;}
	.st2{fill:#FEFEFD;}
</style>
<g>
	<path class="st0" d="M18.3,8.5c0-0.8,0-1.6,0.1-2.4c0-0.5,0-1.1,0-1.6c0-0.1,0-0.1,0.1-0.2C19.2,3.7,20,3,20.9,2.4
		c0.7-0.5,1.4-1,2.1-1.5c0,0,0.1,0,0.1,0c1,0.6,2,1.1,3,1.7c0.1,0,0.1,0.1,0.1,0.2c0,0.7-0.1,1.4-0.1,2.1C26,5.6,25.9,6.3,25.9,7
		c0,1,0,1.9,0.1,2.9c0.1,1,0.1,1.9,0.2,2.9c0.1,1.1,0.2,2.1,0.2,3.2c0.1,1,0.1,2.1,0.2,3.1c0.1,0.5,0.1,1,0.1,1.5
		c0.1,0.7,0.2,1.4,0.3,2.1c0,0.3,0.1,0.5,0.1,0.8c0,0.1,0,0.1-0.1,0.1c-1.5,1-2.9,2-4.5,3c-0.2,0.1-0.2,0.1-0.3,0
		c-0.8-0.7-1.6-1.4-2.4-2.1c-0.3-0.3-0.6-0.6-0.8-0.9c0,0-0.1-0.1-0.1-0.1c0-0.6-0.1-1.2-0.1-1.8c-0.1-0.9-0.1-1.8-0.2-2.7
		c-0.1-0.8-0.2-1.5-0.3-2.3c-0.1-0.7-0.1-1.3-0.1-2c0-0.3,0-0.7,0-1c0,0,0.1,0,0.1,0c0.4,0,0.8,0.1,1.2,0.1c0.2,0,0.4,0,0.6,0
		c0.1,0,0.1,0,0.1-0.1c0-0.4-0.1-0.8-0.1-1.3c0,0,0-0.1-0.1-0.1c-0.2,0-0.3,0-0.5,0c-0.2,0-0.2,0-0.2-0.2c0-1.1,0-2.2,0-3.3
		c0-0.2,0-0.2-0.2-0.2C19,8.6,18.6,8.5,18.3,8.5z M20.6,10.2c0,0.1,0,0.3,0,0.4c0.1,0.6,0.4,1.1,0.9,1.4c0.1,0,0.1,0.1,0.1,0.1
		c0,0.3,0,0.6,0,0.9c0.1,0.7,0.2,1.3,0.4,2c0.1,0.2,0.1,0.4,0.3,0.6c0.1,0.1,0.2,0.2,0.3,0.2c0.2,0,0.2-0.1,0.3-0.3
		c0.1-0.2,0.1-0.4,0.1-0.5c0.1-0.9,0-1.8-0.2-2.7c0-0.1,0-0.2,0.1-0.2c0,0,0.1,0,0.1-0.1c1-0.8,0.8-2.4-0.2-2.9
		C21.6,8.4,20.5,9.2,20.6,10.2z"/>
	<path class="st1" d="M18.3,8.5c0.4,0,0.7,0.1,1.1,0.1c0.2,0,0.2,0,0.2,0.2c0,1.1,0,2.2,0,3.3c0,0.2,0,0.2,0.2,0.2
		c0.2,0,0.3,0,0.5,0c0.1,0,0.1,0,0.1,0.1c0,0.4,0,0.8,0.1,1.3c0,0.1,0,0.1-0.1,0.1c-0.2,0-0.4,0-0.6,0c-0.4,0-0.8-0.1-1.2-0.1
		c0,0-0.1,0-0.1,0c-0.2,0-0.4,0-0.5,0c-0.5,0-0.9,0-1.4-0.1c-1.1-0.1-2.2,0-3.3,0c-1,0-2,0-3,0.1c-0.4,0-0.8,0-1.2,0
		c-0.7,0-1.3,0.1-2,0.1c-0.2,0-0.5,0-0.7,0c0,0,0,0-0.1,0c-0.2,0-0.2,0-0.2,0.2c0,0.2,0,0.3,0,0.5c0,0.2,0,0.4-0.1,0.6c0,0,0,0,0,0
		c-0.4,0.1-0.7,0.3-1.1,0.5c-0.1,0-0.1,0-0.1,0c-0.1-0.2-0.1-0.4-0.2-0.7c-0.1-0.1-0.1-0.3-0.2-0.4c0,0-0.1-0.1-0.2-0.1
		c-0.1,0-0.1,0.1-0.1,0.1c0,0.1,0,0.2,0,0.3c0,0.3,0.1,0.6,0.2,0.9c0,0.1,0,0.1-0.1,0.2c0,0-0.1,0.1-0.1,0.1
		c-0.1,0.1-0.2,0.2-0.3,0.2c-0.1-0.1-0.1-0.3-0.2-0.5c-0.1-0.2-0.1-0.4-0.2-0.6c0-0.2-0.1-0.4-0.1-0.5C3.1,14.1,3,13.5,3,13
		c0-0.6,0-1.1,0.1-1.7c0-0.3,0.1-0.6,0.1-0.9c0-0.1,0.1-0.3,0.1-0.4c0-0.1,0.1-0.2,0.1-0.4c0.1-0.3,0.2-0.5,0.3-0.7
		c0.1-0.2,0.2-0.4,0.3-0.5C4.2,8,4.6,8,4.9,8.3c0.2,0.3,0.3,0.5,0.5,0.9c0.1,0.2,0.1,0.4,0.2,0.6c0,0.1,0.1,0.3,0.1,0.4
		c0.1,0.3,0.1,0.7,0.2,1c0,0.2,0,0.4,0,0.6C5.9,12,5.9,12,6,12c1.3,0,2.7,0.1,4,0c0.8,0,1.6-0.1,2.4-0.1c0.5,0,1.1,0,1.6,0
		c0.1,0,0.1,0,0.1-0.1c0-0.2,0-0.4-0.1-0.5c-0.1-0.4-0.1-0.8-0.1-1.2c-0.1-0.4-0.1-0.8-0.1-1.1c0-0.1,0-0.1,0.1-0.1
		c0.1,0,0.2,0,0.3,0c0.1,0,0.1,0,0.1,0.1c0,0.2,0.1,0.4,0.2,0.6c0,0.2,0.1,0.3,0.1,0.5c0,0.1,0.1,0.2,0.1,0.3c0,0.1,0,0.1,0.1,0.1
		c0.2,0,0.5,0,0.7,0c0.1,0,0.1,0,0.1-0.1c0-0.4,0-0.7,0-1.1c0-0.4,0-0.7,0-1.1c0-0.1,0-0.2,0-0.3c0,0,0-0.1,0.1-0.1
		c0.3,0,0.6,0,0.9,0c0.1,0,0.1,0,0.1,0.1c0,0.3,0,0.6,0,0.9c0,0.3,0,0.6,0,1c0,0.1,0,0.1,0.1,0.1c0.1,0,0.2,0,0.4,0
		c0.1,0,0.1,0,0.1-0.1c0-0.4,0-0.7,0-1.1c0-0.1,0-0.2,0.1-0.1C17.7,8.5,18,8.5,18.3,8.5z M5.3,12.9c0-0.3,0-0.5,0-0.8
		c0-0.3,0-0.5-0.1-0.8c0-0.5-0.1-1-0.2-1.5C5,9.6,5,9.4,4.8,9.3C4.7,9.1,4.6,9.1,4.5,9.2c-0.1,0-0.1,0.1-0.2,0.1
		c-0.2,0.2-0.4,0.5-0.5,0.8c0,0.1-0.1,0.2,0,0.3c0,0.1,0,0.1,0.1,0.1c0.1,0,0.1,0,0.1-0.1c0-0.1,0-0.1,0-0.2C4.1,10,4.2,9.7,4.5,9.5
		c0.1,0,0.1-0.1,0.1,0c0.1,0.2,0.1,0.4,0.1,0.6c0,0.3,0,0.5,0.1,0.8c0,0.1,0,0.3,0,0.4c0.1,0.3,0.1,0.7,0.1,1c0,0.1,0,0.2,0,0.3
		c0,0.3,0.1,0.5,0.2,0.8c0,0.2,0.1,0.5,0.1,0.7c0,0,0,0.1,0,0.1c0,0,0,0,0,0c0-0.1,0-0.1,0-0.2C5.3,13.6,5.4,13.3,5.3,12.9z"/>
	<path class="st0" d="M3.5,16.3c0.1-0.1,0.2-0.1,0.3-0.2c0,0,0.1-0.1,0.1-0.1C4,15.9,4,15.8,4,15.8c-0.1-0.3-0.2-0.6-0.2-0.9
		c0-0.1,0-0.2,0-0.3c0-0.1,0-0.1,0.1-0.1c0.1,0,0.1,0,0.2,0.1c0.1,0.1,0.2,0.2,0.2,0.4c0.1,0.2,0.2,0.4,0.2,0.7c0,0.1,0,0.1,0.1,0
		c0.3-0.2,0.7-0.4,1.1-0.5c0,0,0,0,0,0C6,15,6.2,14.9,6.5,14.8c0.2,0,0.5-0.1,0.7,0c0.4,0.1,0.6,0.4,0.5,0.8
		c-0.1,0.2-0.2,0.5-0.4,0.7c0,0.1-0.1,0.1,0,0.2c0,0,0.1,0.1,0.1,0.2c0,0.1,0.1,0.1,0.1,0C7.7,16.4,8,16.2,8.4,16
		c0.8-0.3,1.7-0.3,2.5,0.1c1,0.4,1.7,1.1,2.2,2c0.6,1,1,2,1.1,3.1c0,0.1,0.1,0.1,0,0.2c0,0,0,0.1,0,0.1c0.1,0.3,0.2,0.7,0.3,1
		c0,0.1,0,0.2,0,0.3c-0.1,0-0.1-0.1-0.1-0.1c-0.1-0.4-0.3-0.8-0.4-1.2c0,0,0,0,0,0c0,0,0-0.1-0.1-0.1c0,0,0,0,0,0.1
		c0.1,0.2,0.1,0.5,0.2,0.7c0,0,0,0.1,0,0.1c0,0,0,0,0,0c-0.1-0.2-0.2-0.5-0.3-0.7c0,0,0-0.1-0.1-0.1c-0.1,0-0.1,0.1,0,0.1
		c0.1,0.3,0.2,0.6,0.2,0.9c0,0,0,0.1,0,0.1c-0.2-0.3-0.3-0.6-0.5-1c0.1,0.3,0.2,0.5,0.2,0.8c0,0-0.1,0-0.1-0.1
		c-0.1-0.2-0.2-0.4-0.3-0.6c0,0,0-0.1-0.1-0.1c-0.1,0,0,0.1,0,0.1c0.1,0.3,0.2,0.5,0.2,0.8c-0.1,0-0.1-0.1-0.1-0.1
		c-0.1-0.2-0.2-0.4-0.3-0.7c0,0,0-0.1-0.1-0.1c-0.1,0,0,0.1,0,0.1c0.1,0.3,0.2,0.5,0.3,0.8c0,0,0,0,0,0.1c0,0-0.1-0.1-0.1-0.1
		c-0.2-0.2-0.3-0.4-0.4-0.7c0,0,0-0.1-0.1-0.1c-0.1,0-0.1,0-0.1,0.1c0.1,0.2,0.2,0.4,0.3,0.7c0,0,0,0.1,0,0.1
		c-0.2-0.3-0.3-0.5-0.5-0.8c0.1,0.3,0.3,0.6,0.4,0.9c-0.1,0-0.1-0.1-0.1-0.1c-0.1-0.2-0.3-0.4-0.4-0.6c0-0.1-0.1-0.1-0.1,0
		c-0.1,0-0.1,0.1,0,0.1c0.1,0.2,0.2,0.5,0.3,0.7c-0.1,0-0.1,0-0.1-0.1c-0.1-0.2-0.3-0.4-0.3-0.6c-0.1-0.1-0.1,0-0.2,0
		c-0.1,0,0,0.1,0,0.1c0.1,0.3,0.3,0.5,0.3,0.8c0,0,0,0,0,0.1c-0.2-0.3-0.4-0.6-0.6-0.9c0.1,0.3,0.2,0.6,0.4,1c-0.1,0-0.1,0-0.1-0.1
		c-0.2-0.2-0.3-0.4-0.4-0.7c0,0,0-0.1,0-0.1c0,0,0-0.1-0.1,0c0,0,0,0,0,0.1c0.1,0.1,0.2,0.3,0.2,0.4c0.1,0.2,0.1,0.3,0.1,0.5
		c0,0,0,0.1,0,0.1c0,0,0,0-0.1,0c-0.2-0.3-0.3-0.5-0.5-0.8c0,0,0-0.1-0.1-0.1c0,0,0-0.1-0.1-0.1c0,0,0,0.1,0,0.1
		c0.1,0.3,0.3,0.5,0.4,0.8c0,0.1,0.1,0.2,0.1,0.3c-0.1,0-0.1-0.1-0.1-0.1c-0.2-0.3-0.4-0.6-0.6-0.9c0,0,0-0.1-0.1-0.1
		c-0.1,0,0,0.1,0,0.1c0.1,0.2,0.2,0.5,0.3,0.7c0,0,0,0.1,0,0.1c0,0,0,0-0.1-0.1c-0.1-0.2-0.2-0.5-0.4-0.7c-0.1-0.1-0.1-0.1-0.2,0
		c-0.1,0,0,0.1,0,0.1c0.1,0.3,0.3,0.6,0.4,1c0,0,0,0,0,0.1c-0.2-0.2-0.3-0.4-0.4-0.6c0.1,0.2,0.1,0.4,0.1,0.6
		c-0.1-0.1-0.2-0.2-0.2-0.3c-0.1-0.2-0.2-0.4-0.3-0.6c0,0,0-0.1-0.1-0.1c0,0,0,0.1,0,0.1c0.1,0.3,0.3,0.5,0.3,0.8c0,0,0,0.1,0,0.1
		c-0.1,0-0.1,0-0.1-0.1c-0.2-0.2-0.3-0.5-0.5-0.7c0-0.1-0.1-0.1-0.1,0c-0.1,0,0,0.1,0,0.1c0.1,0.2,0.2,0.5,0.3,0.7c0,0,0,0,0,0.1
		c-0.1-0.1-0.1-0.2-0.2-0.3c-0.1-0.2-0.2-0.3-0.3-0.5c-0.1-0.1-0.1,0-0.2,0c-0.1,0,0,0.1,0,0.1c0.1,0.3,0.2,0.5,0.3,0.8
		c0,0,0,0.1,0,0.2c-0.2-0.2-0.4-0.5-0.6-0.7C8.9,24.1,9,24.3,9,24.5c-0.1,0-0.1,0-0.1-0.1c-0.1-0.2-0.3-0.4-0.4-0.6c0,0,0-0.1-0.1,0
		c-0.1,0,0,0.1,0,0.1c0.1,0.2,0.2,0.5,0.3,0.7c0,0.1,0,0.1,0.1,0.2c-0.1,0-0.1,0-0.1,0c-0.2-0.3-0.3-0.5-0.5-0.8
		c0-0.1-0.1-0.1-0.1,0c-0.1,0,0,0.1,0,0.1c0.1,0.2,0.2,0.4,0.3,0.6c0,0-0.1,0-0.1,0c-0.1-0.2-0.2-0.3-0.3-0.5C8,24,7.9,24,7.9,24
		c-0.1,0,0,0.1,0,0.1C8,24.3,8,24.4,8.1,24.5c0,0,0,0.1,0,0.1c-0.1-0.1-0.2-0.3-0.3-0.4c0-0.1-0.1-0.1-0.2,0c-0.1,0.1-0.1,0-0.2,0
		c-0.9-1.4-1.3-2.9-1.2-4.5c0-0.5,0.1-1,0.3-1.5c0-0.1,0-0.1,0-0.1c-0.1-0.2-0.2-0.4-0.2-0.6c0-0.1-0.1-0.1-0.1,0
		c-0.6,0.5-1.2,0.9-1.9,1.2c-0.5,0.2-0.9,0.4-1.4,0.5c-0.2,0-0.4,0.1-0.6,0c-0.6,0-0.8-0.4-0.6-1c0.2-0.4,0.5-0.8,0.9-1.1
		C2.8,16.8,3.1,16.6,3.5,16.3C3.5,16.3,3.5,16.3,3.5,16.3z M7.6,22.9C7.5,22.9,7.5,22.8,7.6,22.9c-0.3-0.4-0.5-0.8-0.6-1.2
		c0,0.1,0,0.1,0,0.2c0.1,0.3,0.2,0.5,0.4,0.7c0.1,0.3,0.3,0.6,0.5,0.8c0,0,0,0.1,0.1,0.1c0.1,0,0-0.1,0-0.1c0-0.1-0.1-0.2-0.1-0.3
		c-0.1-0.3-0.1-0.6-0.1-0.9c0,0,0-0.1,0-0.1c0,0,0,0.1,0.1,0.1c0.1,0.2,0.2,0.4,0.3,0.6c0,0.1,0.1,0.2,0.2,0.1
		c0.1,0,0.1-0.1,0.1-0.2c0-0.1,0-0.3,0-0.4c0,0,0,0,0,0c0.2,0.2,0.3,0.2,0.4-0.1c0-0.1,0.1-0.2,0.1-0.4c0,0.1,0,0.1,0.1,0.1
		c0,0.1,0.1,0.2,0.2,0.2c0.1,0.1,0.3,0.1,0.4-0.1c0-0.1,0.1-0.1,0.1-0.2c0-0.2,0.1-0.3,0.1-0.5c0-0.1,0.1-0.1,0.1,0
		c0.1,0.1,0.1,0.2,0.2,0.2c0.2,0.2,0.5,0.2,0.7,0c0.1-0.1,0.2-0.3,0.2-0.5c0-0.1,0.1-0.2,0.1-0.3c0,0,0.1,0.1,0.1,0.1
		c0,0.1,0.1,0.2,0.1,0.3c0.1,0.1,0.2,0.2,0.3,0c0-0.1,0.1-0.1,0.1-0.2c0.2-0.3,0.5-0.5,0.8-0.6c0.2,0,0.4,0,0.6,0c0.1,0,0.2,0,0.2,0
		c0-0.1-0.1-0.1-0.1-0.1c-0.6-0.1-1.1,0-1.5,0.4c-0.1,0.1-0.1,0.2-0.2,0.3c0-0.1-0.1-0.1-0.1-0.2c0-0.1-0.1-0.2-0.1-0.3
		c-0.1-0.1-0.2-0.1-0.3,0c-0.1,0.1-0.1,0.2-0.2,0.4c-0.1,0.1-0.1,0.3-0.2,0.4c-0.1,0.2-0.3,0.2-0.4,0c-0.1-0.1-0.2-0.2-0.2-0.2
		c-0.1-0.1-0.3-0.1-0.3,0.1c0,0.1,0,0.1,0,0.2c0,0.1,0,0.3-0.1,0.4c0,0.1,0,0.1-0.1,0.1c-0.1,0-0.1-0.1-0.2-0.1C9,22,9,21.9,9,21.9
		c0-0.1-0.1-0.2-0.1-0.2c0-0.1,0-0.1-0.1-0.1c-0.1,0,0,0.1-0.1,0.1c0,0.2,0,0.4-0.1,0.5c0,0,0,0.1-0.1,0.1c-0.1,0-0.1-0.1-0.1-0.1
		c0-0.1-0.1-0.2-0.1-0.3c0,0-0.1-0.1-0.1-0.1c-0.1,0-0.1,0.1-0.1,0.1c0,0.1,0,0.2,0,0.3c0,0.1,0,0.2,0,0.4c0-0.1-0.1-0.1-0.1-0.2
		c-0.1-0.2-0.2-0.3-0.3-0.5c0-0.1-0.1-0.2-0.2-0.1c-0.1,0-0.1,0.1-0.1,0.2c0,0.1,0,0.2,0,0.4C7.5,22.6,7.6,22.8,7.6,22.9L7.6,22.9z
		 M3.6,16.5c-0.5,0.4-1,0.8-1.4,1.3C2,18,1.9,18.2,1.9,18.4c-0.1,0.3,0,0.5,0.4,0.5c0.2,0,0.4,0,0.6-0.1c0.7-0.2,1.3-0.4,1.9-0.8
		c0.5-0.3,0.9-0.6,1.4-0.9c0.1,0,0.1-0.1,0.1-0.2c0-0.1-0.1-0.2-0.1-0.3c0-0.2,0-0.4,0-0.6c0.1-0.3,0.3-0.4,0.6-0.2
		C6.9,15.9,7,16,7,16.1c0,0,0,0.1,0.1,0c0.1-0.2,0.2-0.4,0.2-0.6c0-0.2-0.1-0.3-0.2-0.4c-0.1,0-0.2,0-0.2,0c-0.4,0-0.8,0.1-1.3,0.3
		c-0.3,0.1-0.6,0.3-0.9,0.4c-0.1,0-0.1,0.1-0.1,0.2c0,0.2,0,0.3,0,0.5c0,0.1,0,0.1-0.1,0.2c-0.1,0-0.1,0-0.2-0.1
		c-0.1-0.1-0.2-0.3-0.2-0.4c0,0,0-0.1-0.1-0.1C3.9,16.2,3.7,16.3,3.6,16.5z M12.9,19.2c-0.1-0.1-0.2-0.1-0.4-0.1
		c-0.2,0-0.4,0.2-0.6,0.3c-0.1,0.1-0.2,0.2-0.3,0.3c-0.3,0.1-0.2,0.2-0.4-0.1c-0.1-0.1-0.1-0.2-0.2-0.3c-0.1-0.1-0.2-0.1-0.3,0.1
		c0,0.1,0,0.2,0,0.3c0,0.1,0,0.2,0,0.3c-0.1,0-0.1-0.1-0.1-0.1c-0.2-0.4-0.3-0.7-0.5-1.1c0-0.1-0.1-0.1-0.1-0.2
		c-0.1-0.1-0.2-0.1-0.2,0.1c0,0.1,0,0.1,0,0.2c0,0.4,0,0.8,0.1,1.2c0,0.2,0,0.4,0,0.6c0,0,0,0.1,0,0.1c0,0-0.1,0-0.1-0.1
		c0,0-0.1-0.1-0.1-0.1c-0.3-0.5-0.5-1-0.8-1.5c0-0.1-0.1-0.1-0.1-0.2c0,0-0.1-0.1-0.1,0c0,0-0.1,0.1-0.1,0.1c0,0,0,0.1,0,0.1
		c0.1,0.5,0.2,0.9,0.2,1.4c0,0.2,0.1,0.3,0.1,0.5c-0.1-0.1-0.2-0.2-0.2-0.3c-0.3-0.4-0.5-0.8-0.6-1.2c0,0,0-0.1-0.1-0.1
		c-0.1,0,0,0.1,0,0.1c0.1,0.4,0.2,0.7,0.2,1.1c0,0.2,0.1,0.4,0,0.6c-0.1-0.1-0.1-0.2-0.2-0.4c0-0.1-0.1-0.2-0.1-0.3
		c0,0,0-0.1-0.1-0.1c0,0-0.1,0-0.1,0.1c0,0.1,0,0.2,0,0.2c0,0.1,0,0.3-0.1,0.4c-0.1-0.1-0.1-0.2-0.2-0.3c0,0-0.1-0.1-0.1-0.1
		c-0.1,0-0.1,0.1-0.1,0.1c-0.1,0.3,0,0.3-0.4,0.3c0,0,0,0,0,0c0,0-0.1,0-0.1,0.1c0,0,0,0,0.1,0c0.1,0,0.2,0,0.3-0.1
		c0.1,0,0.1-0.2,0.2-0.3c0,0.1,0.1,0.2,0.1,0.2c0,0.1,0.1,0.1,0.2,0.1c0.1,0,0.1-0.1,0.1-0.1c0-0.1,0-0.3,0-0.4c0,0,0,0.1,0.1,0.1
		c0.1,0.1,0.1,0.3,0.2,0.4c0,0,0.1,0.1,0.1,0c0.1,0,0.1-0.1,0.1-0.1c0-0.1,0-0.2,0-0.2c0-0.2,0-0.4-0.1-0.7c0.1,0.1,0.1,0.2,0.2,0.3
		c0.1,0.2,0.2,0.4,0.4,0.5c0.1,0,0.1,0.1,0.2,0c0.1,0,0.1-0.1,0.1-0.2c0,0,0-0.1,0-0.1c-0.1-0.4-0.1-0.9-0.3-1.3c0,0,0,0,0-0.1
		c0,0,0,0,0,0.1c0.2,0.3,0.3,0.7,0.5,1c0.1,0.2,0.2,0.3,0.3,0.4c0.1,0.1,0.2,0.1,0.3-0.1c0-0.1,0-0.2,0-0.3c0-0.5,0-0.9-0.1-1.4
		c0-0.1,0-0.2,0-0.3c0,0,0,0,0.1,0.1c0.2,0.4,0.3,0.7,0.5,1.1c0,0.1,0.1,0.2,0.2,0.3c0,0.1,0.1,0.1,0.2,0.1c0.1,0,0.1-0.1,0.1-0.1
		c0,0,0-0.1,0-0.1c0-0.2,0-0.4,0-0.5c0,0,0-0.1,0-0.1c0.1,0.1,0.1,0.2,0.2,0.3c0.1,0.1,0.2,0.2,0.3,0.1c0.2-0.1,0.4-0.2,0.6-0.4
		c0.2-0.2,0.4-0.3,0.7-0.4C12.8,19.2,12.9,19.2,12.9,19.2z M8.5,17.8c0.1,0.1,0.1,0.2,0.1,0.2c0.1,0.1,0.2,0.1,0.2,0
		c0-0.1,0-0.1,0-0.2c0-0.1,0-0.1,0-0.2c0,0,0,0.1,0.1,0.1c0,0.1,0.1,0.2,0.2,0.2C9.2,18,9.3,18,9.4,17.9c0-0.1,0-0.2,0.1-0.2
		c0,0,0-0.1,0-0.1c0,0,0.1,0,0.1,0.1c0.1,0.1,0.3,0.2,0.5,0.3c0.1,0,0.1,0,0.2,0c0.1-0.1,0.1,0,0.1,0c0.1,0.1,0.2,0.2,0.3,0.3
		c0,0,0.1,0.1,0.1,0c0.1,0,0-0.1,0-0.1c-0.1-0.3-0.1-0.5-0.1-0.8c0-0.2-0.1-0.5-0.2-0.7c-0.1-0.1-0.2-0.1-0.3,0c0,0-0.1,0.1-0.1,0.2
		c0,0.1,0,0.1-0.1,0c-0.1-0.1-0.2-0.1-0.3-0.1c-0.1,0-0.1,0.1-0.1,0.1c-0.2,0.1-0.2,0.2-0.1,0.4c0.2,0.2,0.3,0.4,0.5,0.6
		c0,0,0.1,0,0,0.1c-0.2,0-0.4-0.1-0.5-0.3c0,0,0,0,0,0c-0.1-0.1-0.2,0-0.2,0.1c0,0.1,0,0.2-0.1,0.3c0,0,0,0.1,0,0.1c0,0,0,0-0.1-0.1
		c-0.1-0.1-0.1-0.2-0.2-0.3c0,0-0.1-0.1-0.1,0c-0.1,0-0.1,0.1-0.1,0.1c0,0.1,0,0.2,0,0.2c0,0,0,0.1,0,0.1c0,0,0,0,0,0
		c0-0.1-0.1-0.2-0.1-0.3c0,0,0-0.1-0.1-0.1c0,0-0.1,0.1,0,0.1C8.4,17.7,8.4,17.8,8.5,17.8c-0.1,0.2,0,0.2-0.1,0.3c0,0,0-0.1-0.1-0.1
		c-0.1-0.2-0.2-0.4-0.3-0.6c0,0,0-0.1-0.1,0c0,0,0,0.1,0,0.1C8,17.7,8.1,17.8,8.2,18c0.1,0.1,0.1,0.2,0.2,0.3c0,0,0,0.1,0.1,0
		c0,0,0,0,0-0.1c0-0.1,0-0.1,0-0.2C8.5,18,8.4,17.9,8.5,17.8z M7.4,17.2C7.4,17.2,7.4,17.2,7.4,17.2c-0.3,0.4-0.4,0.7-0.6,1.1
		c0,0,0,0.1,0,0.1C7,18.5,7,18.6,7.2,18.7c0.2,0.2,0.4,0.1,0.4-0.1c0,0,0,0,0-0.1C7.7,18.1,7.6,17.6,7.4,17.2z M6.6,17.9
		c0,0,0-0.1,0.1-0.1c0.1-0.3,0.3-0.6,0.5-0.8c0.1-0.2,0.1-0.3,0-0.4c0,0,0,0,0,0c0-0.1,0-0.1-0.1,0c-0.2,0.2-0.4,0.4-0.7,0.6
		c0,0-0.1,0.1,0,0.1C6.4,17.5,6.5,17.7,6.6,17.9z M6.3,17c0.2-0.2,0.5-0.4,0.6-0.7c0,0,0-0.1,0-0.1c-0.1-0.1-0.2-0.2-0.3-0.3
		c-0.1-0.1-0.2-0.1-0.3,0.1c-0.1,0.2-0.1,0.3,0,0.5c0,0,0,0.1,0,0.1C6.2,16.8,6.3,16.9,6.3,17z"/>
	<path class="st2" d="M5.3,12.9c0,0.3,0,0.7,0,1c0,0.1,0,0.1,0,0.2c0,0,0,0,0,0c0,0,0,0,0-0.1c0-0.2-0.1-0.5-0.1-0.7
		c0-0.3-0.1-0.5-0.2-0.8c0-0.1,0-0.2,0-0.3c0-0.3-0.1-0.7-0.1-1c0-0.1,0-0.3,0-0.4c0-0.3-0.1-0.5-0.1-0.8c0-0.2,0-0.4-0.1-0.6
		c0-0.1-0.1-0.1-0.1,0C4.2,9.7,4.1,10,4,10.3c0,0.1,0,0.1,0,0.2c0,0,0,0.1-0.1,0.1c-0.1,0-0.1,0-0.1-0.1c0-0.1,0-0.2,0-0.3
		c0.1-0.3,0.3-0.6,0.5-0.8c0.1-0.1,0.1-0.1,0.2-0.1c0.1-0.1,0.3,0,0.4,0.1C5,9.4,5,9.6,5.1,9.8c0.1,0.5,0.2,1,0.2,1.5
		c0,0.3,0.1,0.5,0.1,0.8C5.3,12.4,5.4,12.6,5.3,12.9z"/>
	<path class="st2" d="M12.9,19.2c-0.1,0-0.1,0-0.2,0c-0.3,0-0.5,0.1-0.7,0.4c-0.2,0.2-0.4,0.3-0.6,0.4c-0.1,0-0.2,0-0.3-0.1
		c-0.1-0.1-0.1-0.2-0.2-0.3c0,0,0,0.1,0,0.1c0,0.2,0,0.4,0,0.5c0,0,0,0.1,0,0.1c0,0.1-0.1,0.1-0.1,0.1c-0.1,0-0.1,0-0.2-0.1
		c-0.1-0.1-0.1-0.2-0.2-0.3c-0.2-0.4-0.3-0.7-0.5-1.1c0,0,0,0-0.1-0.1c0,0.1,0,0.2,0,0.3c0,0.5,0.1,0.9,0.1,1.4c0,0.1,0,0.2,0,0.3
		c0,0.1-0.2,0.2-0.3,0.1c-0.1-0.1-0.2-0.3-0.3-0.4c-0.2-0.3-0.3-0.7-0.5-1c0,0,0,0,0-0.1c0,0,0,0,0,0.1c0.1,0.4,0.2,0.9,0.3,1.3
		c0,0,0,0.1,0,0.1c0,0.1,0,0.1-0.1,0.2c-0.1,0-0.1,0-0.2,0c-0.2-0.1-0.3-0.3-0.4-0.5c-0.1-0.1-0.1-0.2-0.2-0.3
		c0.1,0.2,0.1,0.4,0.1,0.7c0,0.1,0,0.2,0,0.2c0,0.1,0,0.1-0.1,0.1c-0.1,0-0.1,0-0.1,0c-0.1-0.1-0.2-0.3-0.2-0.4c0,0,0-0.1-0.1-0.1
		c0,0.1,0,0.3,0,0.4c0,0.1,0,0.1-0.1,0.1c-0.1,0-0.1,0-0.2-0.1c0-0.1-0.1-0.1-0.1-0.2c0,0.1-0.1,0.2-0.2,0.3c-0.1,0-0.2,0.1-0.3,0.1
		c0,0-0.1,0-0.1,0c0,0,0-0.1,0.1-0.1c0,0,0,0,0,0c0.4,0,0.3-0.1,0.4-0.3c0,0,0-0.1,0.1-0.1c0.1,0,0.1,0,0.1,0.1
		c0.1,0.1,0.1,0.2,0.2,0.3c0-0.1,0-0.3,0.1-0.4c0-0.1,0-0.2,0-0.2c0,0,0-0.1,0.1-0.1c0,0,0.1,0,0.1,0.1C8,20.4,8,20.5,8,20.6
		c0.1,0.1,0.1,0.2,0.2,0.4c0-0.2,0-0.4,0-0.6c-0.1-0.4-0.2-0.7-0.2-1.1c0,0-0.1-0.1,0-0.1c0.1,0,0.1,0,0.1,0.1
		c0.2,0.4,0.4,0.9,0.6,1.2c0.1,0.1,0.1,0.2,0.2,0.3c0-0.2-0.1-0.3-0.1-0.5c-0.1-0.5-0.2-0.9-0.2-1.4c0,0,0-0.1,0-0.1
		c0,0,0-0.1,0.1-0.1c0.1,0,0.1,0,0.1,0c0,0.1,0.1,0.1,0.1,0.2c0.2,0.5,0.5,1,0.8,1.5c0,0,0.1,0.1,0.1,0.1c0,0,0,0.1,0.1,0.1
		c0,0,0-0.1,0-0.1c0-0.2,0-0.4,0-0.6c0-0.4-0.1-0.8-0.1-1.2c0-0.1,0-0.1,0-0.2c0-0.1,0.2-0.1,0.2-0.1c0.1,0,0.1,0.1,0.1,0.2
		c0.2,0.4,0.4,0.7,0.5,1.1c0,0,0,0.1,0.1,0.1c0-0.1,0-0.2,0-0.3c0-0.1,0-0.2,0-0.3c0-0.1,0.2-0.2,0.3-0.1c0.1,0.1,0.1,0.2,0.2,0.3
		c0.2,0.3,0.1,0.3,0.4,0.1c0.1-0.1,0.2-0.2,0.3-0.3c0.2-0.2,0.3-0.3,0.6-0.3C12.7,19.1,12.8,19.1,12.9,19.2z"/>
	<path class="st1" d="M5.6,15.4c0,0.2-0.1,0.3-0.1,0.5c-0.1,0.2-0.1,0.4-0.2,0.6c-0.1,0.3-0.2,0.5-0.5,0.7c-0.3,0.2-0.6,0.2-0.8,0
		c-0.2-0.2-0.4-0.5-0.5-0.8c0.1-0.1,0.3-0.2,0.5-0.3c0.1,0,0.1,0,0.1,0.1c0.1,0.1,0.1,0.3,0.2,0.4c0,0.1,0.1,0.1,0.2,0.1
		c0.1,0,0.1-0.1,0.1-0.2c0-0.2,0-0.4,0-0.5c0-0.1,0-0.2,0.1-0.2C5,15.7,5.3,15.5,5.6,15.4z"/>
	<path class="st2" d="M7.6,22.9c0-0.1,0-0.2,0-0.4c0-0.1,0-0.2,0-0.4c0-0.1,0-0.2,0.1-0.2c0.1,0,0.1,0.1,0.2,0.1
		c0.1,0.2,0.2,0.3,0.3,0.5c0,0,0,0.1,0.1,0.2c0-0.1,0-0.3,0-0.4c0-0.1,0-0.2,0-0.3c0,0,0-0.1,0.1-0.1c0,0,0.1,0,0.1,0.1
		c0,0.1,0.1,0.2,0.1,0.3c0,0,0,0.1,0.1,0.1c0.1,0,0.1-0.1,0.1-0.1c0.1-0.2,0.1-0.4,0.1-0.5c0,0,0-0.1,0.1-0.1c0.1,0,0.1,0.1,0.1,0.1
		c0,0.1,0.1,0.2,0.1,0.2C9,21.9,9,22,9,22c0,0.1,0.1,0.1,0.2,0.1c0.1,0,0.1-0.1,0.1-0.1c0.1-0.1,0.1-0.3,0.1-0.4c0-0.1,0-0.1,0-0.2
		c0-0.2,0.2-0.2,0.3-0.1c0.1,0.1,0.2,0.2,0.2,0.2c0.2,0.2,0.3,0.2,0.4,0c0.1-0.1,0.2-0.2,0.2-0.4c0.1-0.1,0.1-0.3,0.2-0.4
		c0.1-0.1,0.2-0.1,0.3,0c0.1,0.1,0.1,0.2,0.1,0.3c0,0.1,0,0.1,0.1,0.2c0.1-0.1,0.2-0.2,0.2-0.3c0.4-0.5,0.9-0.6,1.5-0.4
		c0.1,0,0.2,0,0.1,0.1c0,0.1-0.1,0-0.2,0c-0.2,0-0.4-0.1-0.6,0c-0.4,0.1-0.6,0.3-0.8,0.6c0,0.1-0.1,0.1-0.1,0.2
		c-0.1,0.1-0.2,0.1-0.3,0c-0.1-0.1-0.1-0.2-0.1-0.3c0,0,0-0.1-0.1-0.1c-0.1,0.1-0.1,0.2-0.1,0.3c-0.1,0.2-0.1,0.3-0.2,0.5
		c-0.2,0.2-0.5,0.3-0.7,0c-0.1-0.1-0.1-0.2-0.2-0.2c0-0.1-0.1-0.1-0.1,0c0,0.2-0.1,0.3-0.1,0.5c0,0.1,0,0.1-0.1,0.2
		c-0.1,0.1-0.2,0.2-0.4,0.1C9,22.2,8.9,22.1,8.9,22c0,0,0-0.1-0.1-0.1c0,0.1,0,0.2-0.1,0.4c-0.1,0.3-0.3,0.3-0.4,0.1c0,0,0,0,0,0
		c0,0.2,0,0.3,0,0.4c0,0.1,0,0.2-0.1,0.2c-0.1,0-0.1-0.1-0.2-0.1c-0.1-0.2-0.2-0.4-0.3-0.6c0,0,0-0.1-0.1-0.1c0,0,0,0.1,0,0.1
		c0,0.3,0,0.6,0.1,0.9c0,0.1,0.1,0.2,0.1,0.3c0,0,0.1,0.1,0,0.1c-0.1,0-0.1,0-0.1-0.1c-0.1-0.3-0.3-0.6-0.5-0.8
		C7.2,22.4,7,22.2,7,21.9c0-0.1,0-0.1,0-0.2C7.1,22.1,7.3,22.4,7.6,22.9C7.5,22.8,7.5,22.9,7.6,22.9C7.6,22.9,7.6,22.9,7.6,22.9
		C7.6,22.9,7.6,22.9,7.6,22.9C7.6,22.9,7.6,22.9,7.6,22.9z"/>
	<path class="st2" d="M8.5,17.8c0,0.1,0,0.2,0,0.2c0,0.1,0,0.1,0,0.2c0,0,0,0.1,0,0.1c0,0-0.1,0-0.1,0c-0.1-0.1-0.1-0.2-0.2-0.3
		C8.1,17.8,8,17.7,8,17.5c0,0,0-0.1,0-0.1c0,0,0.1,0,0.1,0c0.1,0.2,0.2,0.4,0.3,0.6c0,0,0,0,0.1,0.1C8.4,18.1,8.4,18,8.5,17.8
		c-0.1,0-0.1-0.1-0.1-0.2c0,0,0-0.1,0-0.1c0.1,0,0.1,0,0.1,0.1c0,0.1,0.1,0.2,0.1,0.3c0,0,0,0,0,0c0,0,0-0.1,0-0.1
		c0-0.1,0-0.2,0-0.2c0,0,0-0.1,0.1-0.1c0.1,0,0.1,0,0.1,0c0.1,0.1,0.1,0.2,0.2,0.3c0,0,0,0.1,0.1,0.1c0,0,0,0,0-0.1
		c0-0.1,0-0.2,0.1-0.3c0-0.1,0.1-0.2,0.2-0.1c0,0,0,0,0,0c0.2,0.2,0.3,0.2,0.5,0.3c0,0,0-0.1,0-0.1c-0.2-0.2-0.3-0.4-0.5-0.6
		c-0.1-0.2-0.1-0.3,0.1-0.4c0,0,0.1-0.1,0.1-0.1c0.1-0.1,0.2,0,0.3,0.1c0,0,0.1,0.1,0.1,0c0-0.1,0-0.1,0.1-0.2
		c0.1-0.1,0.2-0.1,0.3,0c0.1,0.2,0.1,0.5,0.2,0.7c0,0.3,0,0.5,0.1,0.8c0,0,0,0.1,0,0.1c-0.1,0-0.1,0-0.1,0c-0.1-0.1-0.2-0.2-0.3-0.3
		c0,0,0-0.1-0.1,0c0,0-0.1,0-0.2,0c-0.2,0-0.3-0.1-0.5-0.3c0,0-0.1-0.1-0.1-0.1c0,0,0,0.1,0,0.1c0,0.1,0,0.2-0.1,0.2
		c0,0.1-0.1,0.1-0.2,0.1C9.1,17.9,9,17.8,9,17.7c0,0,0-0.1-0.1-0.1c0,0.1,0,0.1,0,0.2c0,0.1,0,0.1,0,0.2c0,0.1-0.1,0.1-0.2,0
		C8.6,18,8.5,17.9,8.5,17.8z M10.2,17.8C10.2,17.8,10.2,17.8,10.2,17.8C10.2,17.8,10.2,17.8,10.2,17.8
		C10.2,17.8,10.2,17.8,10.2,17.8C10.2,17.8,10.2,17.8,10.2,17.8z M8.4,18.2C8.4,18.2,8.4,18.2,8.4,18.2C8.4,18.2,8.4,18.2,8.4,18.2
		C8.4,18.2,8.4,18.2,8.4,18.2C8.4,18.2,8.4,18.2,8.4,18.2z"/>
	<path class="st0" d="M7.6,22.9C7.6,22.9,7.6,22.9,7.6,22.9C7.6,22.9,7.6,22.9,7.6,22.9C7.6,22.9,7.6,22.9,7.6,22.9
		C7.6,22.9,7.6,22.9,7.6,22.9z"/>
	<polygon class="st0" points="10.2,17.8 10.2,17.8 10.2,17.8 10.2,17.8 	"/>
	<polygon class="st0" points="8.4,18.2 8.4,18.2 8.4,18.2 8.4,18.2 	"/>
</g>
</svg>
