<?xml version="1.0" encoding="utf-8"?>
<!-- Generator: Adobe Illustrator 22.1.0, SVG Export Plug-In . SVG Version: 6.00 Build 0)  -->
<svg version="1.1" id="Слой_1" xmlns="http://www.w3.org/2000/svg" xmlns:xlink="http://www.w3.org/1999/xlink" x="0px" y="0px"
	 viewBox="0 0 28.3 28.3" style="enable-background:new 0 0 28.3 28.3;" xml:space="preserve">
<style type="text/css">
	.st0{fill:#575757;}
	.st1{fill:#F8F8F8;}
	.st2{fill:#F3D116;}
	.st3{fill:#F9D50A;}
	.st4{fill:#585858;}
</style>
<g>
	<path class="st0" d="M14.5,0.7c0.1,0.7,0.2,1.4,0.3,2.1c0.1,1.3,0.1,2.5,0.1,3.8c0,0.6,0,1.2-0.1,1.7c0,0.7-0.2,1.4-0.3,2.1
		c-0.1,0.3-0.1,0.7-0.1,1c0,0.1,0,0.2,0.1,0.2c0.5,0.7,1,1.3,1.6,2c0.8,0.9,1.5,1.9,2.2,2.8c0.5,0.7,1,1.4,1.5,2.1
		c0.4,0.6,0.9,1.1,1.3,1.7c0.4,0.5,0.7,1.1,1,1.6c0.2,0.3,0.4,0.7,0.6,1c0,0,0,0,0,0.1c0.1-0.3,0.1-0.5,0.2-0.8
		c0.3-1.4,0.7-2.8,1.1-4.3c0.4-1.6,0.9-3.2,1.4-4.8c0.3-1,0.7-2,1.1-3c0.4-1,0.9-2.1,1.4-3c0,0,0-0.1,0.1-0.1c0,0.1-0.1,0.3-0.1,0.4
		c-0.2,0.9-0.3,1.7-0.4,2.6c-0.1,0.5-0.2,1-0.3,1.6c-0.3,1.3-0.5,2.5-0.7,3.8c-0.2,1-0.3,1.9-0.5,2.9c-0.2,0.9-0.3,1.9-0.4,2.8
		c-0.2,1.1-0.3,2.2-0.5,3.3c-0.1,0.7-0.2,1.4-0.3,2.1c0,0.1,0,0.1,0,0.2c0.1,0.3,0.3,0.6,0.4,0.9c0.1,0.1,0.1,0.1-0.1,0.1
		c-1.5-0.1-3.1-0.1-4.6-0.2c-1.1,0-2.2,0-3.2,0c-2,0-4.1,0-6.1,0.1c-0.9,0-1.8,0-2.8,0c-2,0-4.1,0.1-6.1,0.1c-0.2,0-0.5,0-0.7,0
		c-0.1,0-0.1,0-0.1-0.1c0-0.7,0-1.3,0.1-2c0-0.7,0.1-1.5,0.2-2.2c0.1-1.3,0.3-2.7,0.6-4c0.1-0.6,0.2-1.2,0.3-1.8
		c0.2-1,0.5-1.9,0.7-2.9c0.2-0.6,0.3-1.2,0.5-1.8C3.8,12.6,3.9,12.3,4,12c0-0.1,0-0.1,0-0.2c-0.6-1.2-1.2-2.4-1.6-3.6
		C2.2,7.5,1.9,6.8,1.7,6.1C1.5,5.2,1.2,4.3,1,3.4c-0.2-0.7-0.3-1.3-0.4-2c0-0.1,0-0.1,0.1-0.1c0.4,0.1,0.7,0.3,1,0.4
		C2.3,2,2.8,2.3,3.3,2.6c0.3,0.2,0.6,0.5,0.9,0.7c0.2,0.2,0.4,0.3,0.6,0.5c0,0,0.1,0.1,0.1,0c0.7-0.3,1.4-0.5,2.2-0.7
		c1-0.3,2-0.5,3-0.7C11,2.4,12,2.3,13,2.3c0.1,0,0.1,0,0.1-0.1C13.5,1.7,14,1.2,14.5,0.7C14.5,0.7,14.5,0.7,14.5,0.7z M12.8,17.9
		c0,0.2,0.1,0.3,0.1,0.5c0.1,0.5,0.2,0.9,0.5,1.4c0,0,0,0.1,0.1,0.1c0,0,0.1-0.1,0.1-0.1c0.3-0.5,0.6-1,0.8-1.5
		c0.1-0.2,0.2-0.4,0.3-0.6c0-0.1,0-0.2,0-0.2c-0.1-0.1-0.1,0-0.2,0c-0.2,0.1-0.3,0.3-0.5,0.4c-0.1,0.1-0.1,0.2-0.2,0.3
		c0-0.2,0-0.3,0-0.4c0-0.2,0-0.4-0.1-0.5c-0.1-0.2-0.2-0.2-0.4-0.2c-0.2,0.1-0.3,0.3-0.4,0.5C12.7,17.6,12.7,17.7,12.8,17.9z
		 M4.3,13C4.4,13.1,4.4,13.1,4.3,13c0.4-0.1,0.7-0.3,1.1-0.4c0.1,0,0.1,0,0.1,0.1c0.1,0.2,0.2,0.4,0.3,0.6c0,0.1,0.1,0.2,0.2,0.2
		c0.4,0.2,0.7,0.4,1.2,0.4c0.7,0.2,1.4,0.2,2.2,0.3c0.6,0.1,1.2,0.1,1.8,0c0.4-0.1,0.7-0.3,1-0.6c0.2-0.3,0.4-0.7,0.5-1
		c0-0.1,0-0.1,0.1,0c0.2,0.1,0.5,0.3,0.7,0.4c0,0,0.1,0,0.1,0c0,0,0,0-0.1-0.1c-0.2-0.2-0.5-0.3-0.7-0.5c0,0-0.1-0.1-0.1-0.1
		c0.1-0.2,0.1-0.4,0.1-0.5c0-0.1,0.1-0.1,0.1-0.1c0.3,0.1,0.6,0.2,0.9,0.3c0,0,0.1,0,0.1,0c0,0-0.1-0.1-0.1-0.1
		c-0.3-0.2-0.6-0.3-0.9-0.4c-0.1,0-0.1-0.1-0.1-0.1C13,11,13,10.6,13,10.2c0-0.1,0-0.1,0.1-0.1c0.3-0.1,0.6-0.2,1-0.2
		c0,0,0.1,0,0.1,0c0,0-0.1,0-0.1,0c-0.3,0-0.6,0-0.9,0.1c-0.2,0-0.2,0-0.2-0.1c-0.1-0.6-0.2-1.1-0.4-1.6c-0.2-0.4-0.6-0.7-1-0.8
		c-0.2-0.1-0.2,0-0.1-0.2c0.4-0.8,0.8-1.5,1.3-2.2c0.2-0.3,0.4-0.5,0.6-0.8c-0.1,0-0.1,0.1-0.2,0.1c-0.9,0.4-1.7,0.9-2.3,1.7
		c-0.5,0.6-0.9,1.3-1.2,2C9.6,7.9,9.5,8,9.5,8c-0.3,0.1-0.6,0.2-1,0.3c-0.1,0-0.1,0-0.1,0C7.9,7.8,7.5,7.4,7,7
		C6.5,6.7,6.1,6.4,5.5,6.3C5.1,6.2,4.8,6.1,4.4,6c-0.2,0-0.4-0.1-0.6-0.1C4,6.1,4.2,6.4,4.4,6.7C5,7.5,5.6,8.3,6.5,8.8
		c0.1,0.1,0,0.1,0,0.1c-0.5,0.4-0.8,0.9-0.9,1.5c0,0.1-0.1,0.1-0.2,0.1C5,10.4,4.5,10.3,4,10.3c0,0-0.1,0-0.1,0c0,0,0.1,0,0.1,0
		c0.5,0.1,0.9,0.3,1.4,0.4c0,0,0.1,0,0.1,0.1c0,0.1-0.1,0.3-0.1,0.5c0,0.1,0,0.1-0.1,0.1c-0.1,0-0.2,0.1-0.4,0.1
		c-0.1,0-0.2,0-0.3,0.1c0,0,0.1,0,0.1,0c0.2,0,0.3,0,0.5,0c0.1,0,0.1,0,0.1,0.1c0,0.2,0,0.5,0,0.7c0,0.1,0,0.1-0.1,0.1
		c-0.3,0.1-0.6,0.3-0.9,0.4C4.5,12.9,4.4,13,4.3,13z M16,23.3C16,23.3,16,23.3,16,23.3c-0.4-0.2-0.8-0.2-1.1-0.2c-0.7,0-1.5,0-2.2,0
		c-0.5,0-0.9,0.1-1.3,0.1c-0.2,0-0.5,0-0.7,0c-0.1,0-0.1,0-0.1-0.1c0-0.4-0.1-0.8-0.1-1.2c0-0.6-0.1-1.2-0.1-1.7
		c-0.1-0.9-0.1-1.8-0.2-2.7c0-0.1,0-0.1,0.1-0.2c0.1-0.1,0.3-0.2,0.4-0.3c0.2-0.1,0.4-0.2,0.5-0.4c0.4-0.2,0.8-0.5,1.2-0.7
		c0.1,0,0.1,0,0.2,0c0.2,0.1,0.4,0.3,0.7,0.4c0.3,0.2,0.7,0.3,1,0.4c0.4,0.1,0.7,0.3,1.1,0.4c0.1,0,0.1,0.1,0.1,0.1
		c0,0.2,0,0.5,0,0.7c0,0.5,0.1,1,0.1,1.4c0.1,0.6,0.2,1.3,0.3,1.9c0.1,0.6,0.2,1.1,0.3,1.7c0,0.2,0.1,0.4,0.2,0.6c0,0,0,0.1,0.1,0.1
		c0,0,0,0,0-0.1c0-0.3,0-0.5,0-0.8c0-0.3-0.1-0.6-0.1-0.9c-0.1-0.4-0.1-0.8-0.1-1.2c-0.1-0.5-0.1-1-0.2-1.5
		c-0.1-0.6-0.1-1.3-0.2-1.9c0-0.1,0-0.1,0.1-0.1c0.3,0.1,0.5,0.2,0.8,0.3c0.1,0,0.2,0.1,0.3,0.1c0-0.1,0-0.1-0.1-0.2
		c-0.1-0.1-0.1-0.2-0.2-0.2c-0.4-0.1-0.8-0.3-1.2-0.4c-0.4-0.1-0.8-0.3-1.2-0.4c-0.5-0.1-0.9-0.3-1.3-0.5c-0.1-0.1-0.3-0.2-0.4-0.2
		c-0.1-0.1-0.2,0-0.2,0.1c0,0,0,0.1-0.1,0.1c-0.1,0.1-0.2,0.2-0.3,0.2c-0.6,0.4-1.2,0.8-1.8,1.2c-0.3,0.2-0.6,0.4-0.9,0.6
		C9,17.9,9,17.9,9,18c0.3-0.2,0.6-0.4,0.9-0.6c0,0.1,0,0.2,0,0.2c0,0.5,0,1,0,1.4c0.1,1,0.1,1.9,0.2,2.9c0,0.4,0,0.8,0.1,1.2
		c0,0.1,0,0.1-0.1,0.1c0,0-0.1,0-0.1,0c-0.1,0-0.1,0-0.1,0.1c0,0.1,0,0.1,0.1,0.1c0.1,0,0.1,0,0.2,0c0.4,0,0.7,0,1.1,0
		c0.9-0.1,1.8-0.1,2.8-0.1c0.5,0,1.1,0,1.6,0C15.9,23.3,15.9,23.3,16,23.3z"/>
	<path class="st1" d="M4.3,13c0-0.1,0.1-0.1,0.2-0.1c0.3-0.2,0.6-0.3,0.9-0.4c0,0,0.1,0,0.1-0.1c-0.1-0.2,0-0.5,0-0.7
		c0-0.1,0-0.1-0.1-0.1c-0.2,0-0.3,0-0.5,0c0,0,0,0-0.1,0c0.1-0.1,0.2-0.1,0.3-0.1c0.1,0,0.2-0.1,0.4-0.1c0.1,0,0.1,0,0.1-0.1
		c0-0.2,0-0.3,0.1-0.5c0-0.1,0-0.1-0.1-0.1C5,10.6,4.5,10.5,4,10.3c0,0-0.1,0-0.1,0c0,0,0.1,0,0.1,0c0.5,0,0.9,0.1,1.4,0.3
		c0.1,0,0.1,0,0.2-0.1c0.1-0.6,0.5-1.1,0.9-1.5c0,0,0.1-0.1,0-0.1C5.6,8.3,5,7.5,4.4,6.7C4.2,6.4,4,6.1,3.9,5.8
		c0.2,0,0.4,0.1,0.6,0.1c0.4,0.1,0.7,0.2,1.1,0.3C6.1,6.4,6.5,6.7,7,7c0.5,0.3,1,0.7,1.4,1.2c0,0,0.1,0.1,0.1,0
		c0.3-0.1,0.6-0.2,1-0.3c0.1,0,0.1-0.1,0.1-0.1c0.3-0.7,0.7-1.4,1.2-2c0.6-0.8,1.4-1.3,2.3-1.7c0.1,0,0.1,0,0.2-0.1
		c-0.2,0.3-0.4,0.6-0.6,0.8c-0.5,0.7-0.9,1.4-1.3,2.2c-0.1,0.2-0.1,0.2,0.1,0.2c0.4,0.1,0.8,0.4,1,0.8c0.3,0.5,0.4,1,0.4,1.6
		c0,0.2,0,0.2,0.2,0.1c0.3-0.1,0.6-0.1,0.9-0.1c0,0,0.1,0,0.1,0c0,0-0.1,0-0.1,0c-0.3,0.1-0.6,0.1-1,0.2c-0.1,0-0.1,0.1-0.1,0.1
		c0,0.4,0,0.8-0.1,1.2c0,0.1,0,0.1,0.1,0.1c0.3,0.1,0.6,0.2,0.9,0.4c0,0,0.1,0,0.1,0.1c0,0-0.1,0-0.1,0c-0.3-0.1-0.6-0.2-0.9-0.3
		c-0.1,0-0.1,0-0.1,0.1c0,0.2-0.1,0.4-0.1,0.5c0,0.1,0,0.1,0.1,0.1c0.2,0.2,0.5,0.3,0.7,0.5c0,0,0,0,0.1,0.1c-0.1,0-0.1,0-0.1,0
		c-0.2-0.1-0.5-0.3-0.7-0.4c-0.1,0-0.1,0-0.1,0c-0.1,0.4-0.3,0.7-0.5,1c-0.2,0.3-0.6,0.5-1,0.6c-0.6,0.1-1.2,0.1-1.8,0
		c-0.7-0.1-1.5-0.1-2.2-0.3c-0.4-0.1-0.8-0.2-1.2-0.4c-0.1,0-0.1-0.1-0.2-0.2c-0.1-0.2-0.2-0.4-0.3-0.6c0-0.1-0.1-0.1-0.1-0.1
		C5.1,12.8,4.7,12.9,4.3,13C4.4,13.1,4.4,13.1,4.3,13z M12.3,10.4c-0.2,0.1-0.3,0.2-0.4,0.3c-0.1,0-0.1,0.1-0.2,0c0-0.1,0-0.1,0-0.1
		c0.1-0.1,0.3-0.3,0.5-0.4c0.1,0,0.1-0.1,0.1-0.1c0-0.2,0-0.4,0-0.6c0-0.3-0.1-0.6-0.2-0.8c-0.1-0.2-0.2-0.3-0.4-0.4
		c-0.4-0.1-0.7,0-0.9,0.3c-0.3,0.4-0.6,0.9-0.8,1.4c-0.3,0.7-0.5,1.5-0.5,2.3c0,0.3,0,0.6,0.1,0.9c0.1,0.3,0.2,0.5,0.5,0.6
		c0.1,0,0.3,0.1,0.4,0.1c0.4,0.1,0.6,0,0.9-0.4c0.3-0.4,0.4-0.8,0.6-1.3c0-0.1,0-0.1,0-0.1c-0.1-0.1-0.2-0.1-0.3-0.2
		c0,0-0.1,0-0.1-0.1c0,0,0.1,0,0.1,0c0.1,0,0.2,0.1,0.3,0.1c0.1,0,0.1,0,0.1,0c0-0.1,0.1-0.2,0.1-0.3c0-0.1,0-0.1-0.1-0.1
		c-0.2,0-0.4,0-0.6-0.1c-0.1,0-0.1,0-0.1-0.1c0-0.1,0.1-0.1,0.1-0.1c0,0,0.1,0,0.1,0c0.2,0,0.4,0,0.5,0.1c0,0,0.1,0,0.1,0
		C12.2,11,12.3,10.7,12.3,10.4z M8.8,12.7c0-0.1,0-0.1,0-0.2c-0.1-0.8-0.5-1.6-0.9-2.3c-0.2-0.4-0.5-0.7-0.8-1
		C7,9.2,6.8,9.2,6.7,9.3c-0.4,0.4-0.5,0.9-0.6,1.4c0,0.1,0,0.1,0.1,0.1c0.1,0,0.2,0,0.2,0.1c0.1,0,0.1,0.1,0.1,0.1
		c0,0.1-0.1,0.1-0.1,0c-0.1,0-0.1,0-0.2,0c-0.1,0-0.1,0-0.1,0.1c0,0.3,0,0.3,0.2,0.2c0.1,0,0.2,0,0.3,0c0.1,0,0.1,0,0.1,0.1
		c0,0.1,0,0.1-0.1,0.1c-0.1,0-0.1,0-0.2,0c-0.1,0-0.2,0-0.3,0c-0.1,0-0.1,0-0.1,0.1c0,0.2,0,0.3,0,0.5c0,0.1,0,0.1,0.1,0.1
		c0.1,0,0.2-0.1,0.3-0.1c0.1,0,0.1,0,0.1,0c0,0.1,0,0.1-0.1,0.1c-0.1,0.1-0.2,0.1-0.4,0.2c-0.1,0-0.1,0.1-0.1,0.1
		c0,0.2,0.2,0.3,0.3,0.4c0.3,0.3,0.7,0.5,1.1,0.6c0.2,0.1,0.4,0.1,0.7,0c0.1-0.1,0.2-0.1,0.3-0.2C8.7,13.1,8.8,12.9,8.8,12.7z
		 M7.6,8.4C7.6,8.4,7.6,8.3,7.6,8.4C7.3,8.1,7,7.8,6.6,7.5c-0.1-0.1-0.1,0-0.1,0C6.5,7.7,6.4,7.9,6.4,8.1c0,0.1,0,0.1,0,0.1
		c0.2,0.1,0.3,0.3,0.5,0.4c0,0,0.1,0,0.1,0C7.2,8.6,7.4,8.5,7.6,8.4C7.6,8.4,7.6,8.4,7.6,8.4z M4.8,6.5c0.1,0.1,0.1,0.1,0.1,0.2
		c0.3,0.4,0.6,0.8,1,1.1C6,7.9,6,7.9,6,7.8c0-0.2,0.1-0.4,0.1-0.5c0-0.1,0-0.1-0.1-0.1C5.8,6.9,5.5,6.8,5.2,6.6
		C5,6.6,4.9,6.6,4.8,6.5z M10.3,7.6C10.2,7.6,10.3,7.6,10.3,7.6c0.2,0,0.4-0.1,0.6-0.1c0,0,0.1,0,0.1-0.1C11,7.2,11,7,11.1,6.9
		c0,0,0-0.1,0-0.1c-0.1-0.1-0.2-0.2-0.3-0.2c0,0-0.1,0-0.1,0c-0.1,0.2-0.2,0.4-0.3,0.6C10.4,7.3,10.3,7.4,10.3,7.6z M12.2,5
		C12.1,5,12.1,5,12.2,5c-0.3,0.3-0.6,0.6-0.9,0.9c-0.1,0.1-0.2,0.1-0.2,0.2c0,0.1,0.1,0.2,0.2,0.2c0.1,0.1,0.1,0.1,0.1,0
		c0.2-0.4,0.4-0.8,0.7-1.2C12.1,5,12.1,5,12.2,5z"/>
	<path class="st2" d="M16,23.3c-0.1,0-0.2,0-0.3,0c-0.5,0-1.1,0-1.6,0c-0.9,0-1.8,0.1-2.8,0.1c-0.4,0-0.7,0-1.1,0
		c-0.1,0-0.1,0-0.2,0c-0.1,0-0.1-0.1-0.1-0.1c0-0.1,0.1-0.1,0.1-0.1c0,0,0.1,0,0.1,0c0.1,0,0.1,0,0.1-0.1c-0.1-0.4-0.1-0.8-0.1-1.2
		c-0.1-1-0.1-1.9-0.2-2.9c0-0.5,0-1,0-1.4c0-0.1,0-0.1,0-0.2C9.6,17.7,9.3,17.8,9,18c0-0.1,0-0.2,0.1-0.2c0.3-0.2,0.6-0.4,0.9-0.6
		c0.6-0.4,1.2-0.8,1.8-1.2c0.1-0.1,0.2-0.1,0.3-0.2c0,0,0.1,0,0.1-0.1c0-0.1,0.1-0.2,0.2-0.1c0.1,0.1,0.3,0.2,0.4,0.2
		c0.4,0.2,0.9,0.4,1.3,0.5c0.4,0.1,0.8,0.3,1.2,0.4c0.4,0.1,0.8,0.3,1.2,0.4c0.1,0,0.1,0.1,0.2,0.2c0,0,0.1,0.1,0.1,0.2
		c-0.1,0-0.2-0.1-0.3-0.1c-0.3-0.1-0.5-0.2-0.8-0.3c-0.1,0-0.1,0-0.1,0.1c0.1,0.6,0.1,1.3,0.2,1.9c0.1,0.5,0.1,1,0.2,1.5
		c0.1,0.4,0.1,0.8,0.1,1.2c0,0.3,0.1,0.6,0.1,0.9c0,0.3,0,0.5,0,0.8c0,0,0,0.1,0,0.1c0,0,0,0-0.1-0.1c-0.1-0.2-0.1-0.4-0.2-0.6
		c-0.1-0.6-0.2-1.1-0.3-1.7c-0.1-0.6-0.2-1.2-0.3-1.9c-0.1-0.5-0.1-1-0.1-1.4c0-0.2,0-0.5,0-0.7c0-0.1,0-0.1-0.1-0.1
		c-0.4-0.1-0.7-0.3-1.1-0.4c-0.4-0.1-0.7-0.2-1-0.4c-0.2-0.1-0.4-0.2-0.7-0.4c-0.1,0-0.1,0-0.2,0c-0.4,0.3-0.8,0.5-1.2,0.7
		c-0.2,0.1-0.4,0.2-0.5,0.4c-0.1,0.1-0.3,0.2-0.4,0.3c-0.1,0-0.1,0.1-0.1,0.2c0,0.9,0.1,1.8,0.2,2.7c0,0.6,0.1,1.2,0.1,1.7
		c0,0.4,0,0.8,0.1,1.2c0,0.1,0,0.1,0.1,0.1c0.2,0,0.5,0,0.7,0c0.4,0,0.9-0.1,1.3-0.1c0.7,0,1.5,0,2.2,0C15.3,23.1,15.6,23.2,16,23.3
		C16,23.3,16,23.3,16,23.3z"/>
	<path class="st3" d="M12.8,17.5c0.1-0.2,0.2-0.4,0.4-0.5c0.1-0.1,0.3,0,0.4,0.2c0.1,0.2,0.1,0.4,0.1,0.5c0,0.1,0,0.2,0,0.4
		c0.1-0.1,0.1-0.2,0.2-0.3c0.1-0.2,0.3-0.3,0.5-0.4c0.1,0,0.1-0.1,0.2,0c0.1,0.1,0.1,0.1,0,0.2c-0.1,0.2-0.2,0.4-0.3,0.6
		c-0.3,0.5-0.6,1-0.8,1.5c0,0,0,0.1-0.1,0.1c0,0,0-0.1-0.1-0.1c-0.2-0.4-0.4-0.9-0.5-1.4c0-0.2-0.1-0.3-0.1-0.5
		C12.8,17.7,12.8,17.6,12.8,17.5z"/>
	<path class="st2" d="M12.8,17.5c0,0.1,0,0.3,0,0.4C12.7,17.7,12.7,17.6,12.8,17.5z"/>
	<path class="st4" d="M12.3,10.4c0,0.3-0.1,0.6-0.2,0.8c0,0.1-0.1,0-0.1,0c-0.2,0-0.4-0.1-0.5-0.1c0,0-0.1,0-0.1,0
		c-0.1,0-0.1,0-0.1,0.1c0,0.1,0.1,0.1,0.1,0.1c0.2,0,0.4,0,0.6,0.1c0.1,0,0.1,0,0.1,0.1c0,0.1-0.1,0.2-0.1,0.3c0,0.1,0,0.1-0.1,0
		c-0.1,0-0.2-0.1-0.3-0.1c0,0-0.1,0-0.1,0c0,0,0,0.1,0.1,0.1c0.1,0.1,0.2,0.1,0.3,0.2c0,0,0.1,0,0,0.1c-0.2,0.4-0.3,0.9-0.6,1.3
		c-0.2,0.4-0.5,0.5-0.9,0.4c-0.1,0-0.3-0.1-0.4-0.1c-0.3-0.1-0.4-0.3-0.5-0.6c-0.1-0.3-0.1-0.6-0.1-0.9c0-0.8,0.2-1.6,0.5-2.3
		c0.2-0.5,0.5-0.9,0.8-1.4c0.2-0.3,0.6-0.4,0.9-0.3c0.2,0.1,0.3,0.2,0.4,0.4c0.1,0.2,0.2,0.5,0.2,0.8c0,0.2,0,0.4,0,0.6
		c0,0.1,0,0.1-0.1,0.1c-0.2,0.1-0.3,0.2-0.5,0.4c0,0-0.1,0.1,0,0.1c0,0.1,0.1,0,0.2,0C12,10.6,12.1,10.5,12.3,10.4z M10.5,13.2
		c0.1-0.3,0.1-0.7,0-1c0-0.1,0-0.1-0.1-0.1c-0.1,0-0.1,0.1-0.1,0.2c0,0.2,0.1,0.4,0.1,0.6C10.5,13,10.5,13.1,10.5,13.2z M11,11.7
		c0-0.2,0-0.4,0-0.7c0-0.1,0-0.2,0-0.3c0-0.1,0-0.1-0.1-0.1c-0.1,0-0.1,0.1-0.1,0.1c0,0.1,0,0.1,0,0.2C10.9,11.2,11,11.4,11,11.7z
		 M11.5,10.8c0.1-0.3,0.1-0.5,0.1-0.8c0,0,0-0.1-0.1-0.1c0,0-0.1,0-0.1,0.1C11.4,10.3,11.4,10.6,11.5,10.8z M10.9,10.1
		c0-0.3,0-0.5,0-0.8c0,0,0-0.1-0.1-0.1c-0.1,0-0.1,0-0.1,0.1C10.8,9.6,10.8,9.8,10.9,10.1z M10.2,11.4c0.1,0,0-0.1,0.1-0.2
		c0-0.2,0-0.4,0-0.6c0,0,0-0.1-0.1-0.1c0,0-0.1,0-0.1,0.1C10.1,10.9,10.1,11.2,10.2,11.4z M11.2,12.6c0-0.2,0.1-0.4,0-0.6
		c0,0,0-0.1-0.1-0.1c-0.1,0-0.1,0.1-0.1,0.1C11.1,12.2,11.2,12.4,11.2,12.6z"/>
	<path class="st4" d="M8.8,12.7c0,0.2-0.1,0.4-0.2,0.5c-0.1,0.1-0.2,0.1-0.3,0.2c-0.2,0.1-0.4,0.1-0.7,0c-0.4-0.1-0.8-0.3-1.1-0.6
		c-0.1-0.1-0.2-0.3-0.3-0.4c0-0.1,0-0.1,0.1-0.1c0.1,0,0.2-0.1,0.4-0.2c0,0,0.1-0.1,0.1-0.1c0-0.1-0.1-0.1-0.1,0
		c-0.1,0-0.2,0.1-0.3,0.1c-0.1,0-0.1,0-0.1-0.1c0-0.2,0-0.3,0-0.5c0-0.1,0-0.1,0.1-0.1c0.1,0,0.2,0,0.3,0c0.1,0,0.1,0,0.2,0
		c0.1,0,0.1,0,0.1-0.1c0-0.1-0.1-0.1-0.1-0.1c-0.1,0-0.2,0-0.3,0c-0.3,0-0.3,0-0.2-0.2c0-0.1,0-0.1,0.1-0.1c0.1,0,0.1,0,0.2,0
		c0.1,0,0.1,0,0.1,0c0-0.1,0-0.1-0.1-0.1c-0.1,0-0.2-0.1-0.2-0.1c0,0-0.1,0-0.1-0.1c0.1-0.5,0.2-1,0.6-1.4c0.1-0.1,0.2-0.1,0.4,0
		c0.3,0.3,0.6,0.6,0.8,1c0.4,0.7,0.7,1.5,0.9,2.3C8.8,12.6,8.8,12.7,8.8,12.7z M6.8,11.1c0-0.1,0-0.2,0-0.3c0-0.1,0-0.3,0-0.4
		c0-0.1-0.1-0.1-0.1-0.1c-0.1,0-0.1,0.1-0.1,0.1c0,0.1,0,0.1,0,0.2C6.7,10.7,6.7,10.9,6.8,11.1z M7.6,13.1c0-0.3,0-0.5,0-0.8
		c0,0,0-0.1-0.1-0.1c0,0-0.1,0-0.1,0.1C7.5,12.6,7.5,12.8,7.6,13.1z M7.4,11.3c0-0.2,0-0.3,0-0.5c0-0.1,0-0.2,0-0.3
		c0,0,0-0.1-0.1-0.1c0,0-0.1,0-0.1,0.1C7.3,10.8,7.3,11,7.4,11.3z M7,12.5c0-0.2,0.1-0.4,0-0.6c0-0.1,0-0.1-0.1-0.1
		c-0.1,0-0.1,0-0.1,0.1C6.9,12.1,6.9,12.3,7,12.5z M7.9,12.3c0-0.2,0.1-0.4,0-0.6c0,0,0-0.1-0.1-0.1c-0.1,0-0.1,0.1-0.1,0.1
		c0,0.1,0,0.2,0,0.3C7.9,12.1,7.9,12.2,7.9,12.3z"/>
	<path class="st4" d="M7.6,8.4C7.6,8.4,7.6,8.4,7.6,8.4C7.4,8.5,7.2,8.6,7,8.6c0,0-0.1,0-0.1,0C6.7,8.5,6.6,8.4,6.4,8.2
		c0,0-0.1-0.1,0-0.1c0.1-0.2,0.1-0.4,0.2-0.5c0-0.1,0-0.1,0.1,0C7,7.8,7.3,8.1,7.6,8.4C7.6,8.3,7.6,8.4,7.6,8.4z"/>
	<path class="st4" d="M4.8,6.5c0.2,0,0.3,0,0.4,0.1c0.3,0.1,0.6,0.3,0.9,0.5c0.1,0,0.1,0.1,0.1,0.1C6.1,7.4,6,7.6,6,7.8
		c0,0.1,0,0.1-0.1,0c-0.4-0.3-0.7-0.7-1-1.1C4.9,6.7,4.8,6.6,4.8,6.5z"/>
	<path class="st4" d="M10.3,7.6c0-0.2,0.1-0.3,0.2-0.4c0.1-0.2,0.2-0.4,0.3-0.6c0-0.1,0.1-0.1,0.1,0c0.1,0.1,0.2,0.2,0.3,0.2
		c0,0,0,0.1,0,0.1C11,7,11,7.2,10.9,7.4c0,0,0,0.1-0.1,0.1C10.7,7.5,10.5,7.6,10.3,7.6C10.3,7.6,10.2,7.6,10.3,7.6z"/>
	<path class="st4" d="M12.2,5c0,0.1,0,0.1-0.1,0.1c-0.3,0.4-0.5,0.8-0.7,1.2c-0.1,0.1-0.1,0.1-0.1,0c-0.1-0.1-0.2-0.1-0.2-0.2
		c0-0.1,0.1-0.2,0.2-0.2C11.5,5.5,11.8,5.2,12.2,5C12.1,5,12.1,5,12.2,5z"/>
	<path class="st1" d="M10.5,13.2c-0.1-0.1-0.1-0.2-0.1-0.4c0-0.2-0.1-0.4-0.1-0.6c0-0.1,0-0.1,0.1-0.2c0.1,0,0.1,0.1,0.1,0.1
		C10.6,12.5,10.6,12.9,10.5,13.2z"/>
	<path class="st1" d="M11,11.7c-0.1-0.2-0.1-0.4-0.2-0.7c0-0.1,0-0.1,0-0.2c0-0.1,0-0.1,0.1-0.1c0.1,0,0.1,0,0.1,0.1
		c0,0.1,0,0.2,0,0.3C11.1,11.2,11.1,11.4,11,11.7z"/>
	<path class="st1" d="M11.5,10.8c-0.1-0.3-0.1-0.5-0.1-0.8c0,0,0-0.1,0.1-0.1c0.1,0,0.1,0,0.1,0.1C11.6,10.3,11.6,10.6,11.5,10.8z"
		/>
	<path class="st1" d="M10.9,10.1c-0.1-0.2-0.1-0.5-0.1-0.7c0,0,0-0.1,0.1-0.1c0,0,0.1,0,0.1,0.1C10.9,9.6,10.9,9.8,10.9,10.1z"/>
	<path class="st1" d="M10.2,11.4c-0.1-0.3-0.1-0.5-0.1-0.7c0,0,0-0.1,0.1-0.1c0.1,0,0.1,0,0.1,0.1c0,0.2,0,0.4,0,0.6
		C10.2,11.3,10.2,11.4,10.2,11.4z"/>
	<path class="st1" d="M11.2,12.6c0-0.2-0.1-0.4-0.1-0.6c0-0.1,0-0.1,0.1-0.1c0.1,0,0.1,0.1,0.1,0.1C11.3,12.2,11.3,12.4,11.2,12.6z"
		/>
	<path class="st1" d="M6.8,11.1c-0.1-0.2-0.1-0.3-0.2-0.5c0-0.1,0-0.1,0-0.2c0-0.1,0-0.1,0.1-0.1c0.1,0,0.1,0,0.1,0.1
		c0,0.1,0,0.3,0,0.4C6.8,10.9,6.9,11,6.8,11.1z"/>
	<path class="st1" d="M7.6,13.1c-0.1-0.2-0.2-0.5-0.2-0.8c0,0,0-0.1,0.1-0.1c0,0,0.1,0,0.1,0.1C7.7,12.6,7.7,12.8,7.6,13.1z"/>
	<path class="st1" d="M7.4,11.3c-0.1-0.3-0.1-0.5-0.2-0.8c0,0,0-0.1,0.1-0.1c0.1,0,0.1,0,0.1,0.1c0,0.1,0,0.2,0,0.3
		C7.5,11,7.4,11.1,7.4,11.3z"/>
	<path class="st1" d="M7,12.5c-0.1-0.2-0.2-0.4-0.2-0.6c0-0.1,0-0.1,0.1-0.1c0.1,0,0.1,0,0.1,0.1C7.1,12,7,12.2,7,12.5z"/>
	<path class="st1" d="M7.9,12.3c-0.1-0.1-0.1-0.1-0.1-0.2c0-0.1,0-0.2,0-0.3c0,0,0-0.1,0.1-0.1c0,0,0.1,0,0.1,0.1
		C8,11.9,8,12.1,7.9,12.3z"/>
</g>
</svg>
