<?xml version="1.0" encoding="utf-8"?>
<!-- Generator: Adobe Illustrator 22.1.0, SVG Export Plug-In . SVG Version: 6.00 Build 0)  -->
<svg version="1.1" id="Слой_1" xmlns="http://www.w3.org/2000/svg" xmlns:xlink="http://www.w3.org/1999/xlink" x="0px" y="0px"
	 viewBox="0 0 28.3 28.3" style="enable-background:new 0 0 28.3 28.3;" xml:space="preserve">
<style type="text/css">
	.st0{fill:#575757;}
	.st1{fill:#FCD403;}
	.st2{fill:#FDFDFD;}
</style>
<g>
	<path class="st0" d="M20.9,13.7c0-1.2,0-2.6,0-3.9c0-1.8-0.1-3.5-0.2-5.3c0-0.6-0.1-1.3-0.1-1.9c0-0.1,0-0.1,0.1-0.1
		c1.8,0,3.5,0.1,5.3,0.1c0.4,0,0.9,0,1.3,0c0.3,0,0.4,0.1,0.4,0.4c0,1.6,0,3.3-0.1,4.9c0,2.5-0.1,5-0.1,7.5
		c-0.1,3.1-0.1,6.2-0.2,9.3c0,0.1,0,0.2,0,0.3c0,0.2-0.1,0.3-0.3,0.3c-0.8,0-1.6,0-2.4,0c-1.1,0-2.3,0-3.4-0.1c-0.1,0-0.1,0-0.1-0.1
		c-0.1-1.9-0.2-3.8-0.2-5.7c0-1.3,0.1-2.5,0.1-3.8C20.9,15,20.9,14.4,20.9,13.7z M21.8,14C21.8,14,21.8,14,21.8,14
		c-0.3,0.1-0.4,0.2-0.4,0.4c0,0.1,0,0.2,0.1,0.3c0.2,0.2,0.4,0.2,0.6,0c0.1-0.1,0.2-0.3,0.2-0.5C22.2,14.1,22.1,14,21.8,14z"/>
	<path class="st1" d="M14.1,20.1c0-0.8,0-1.6,0-2.5c0-0.5,0-1,0-1.4c0-0.4,0-0.9,0-1.3c0-0.5,0-1,0-1.5c0-0.5,0-0.9,0-1.4
		c0.1-1,0-2.1,0.1-3.1c0-0.7,0-1.4,0-2.1c0.1-1.4,0-2.8,0-4.3c0-0.1,0-0.1,0.1-0.1c0.1,0,0.2,0,0.4,0c0.7,0,1.4,0,2.1,0
		c0.9,0,1.8,0,2.7,0.1c0.2,0,0.5,0,0.7,0c0.1,0,0.1,0,0.1,0.1c0,0.6,0,1.1,0,1.7c0,0.7,0,1.3,0,2c0.1,1.6,0.1,3.3,0,4.9
		c0,1.1,0,2.3,0,3.4c0,0.4,0,0.9,0,1.3c0,0.3,0,0.6,0,0.9c0,0.3,0,0.7,0,1c-0.1,1.1,0,2.2,0,3.2c0,0.6,0,1.1,0.1,1.7
		c0,0.6,0.1,1.2,0.1,1.8c0,0.2,0,0.3,0,0.5c0,0.1,0,0.1,0,0.2c0,0,0,0.1-0.1,0.1c-0.9,0-1.9,0-2.8-0.1c-0.7,0-1.4,0-2.1,0
		c-0.4,0-0.8,0-1.2,0c-0.1,0-0.1,0-0.1-0.1c0-0.3,0-0.7-0.1-1c0-0.4,0-0.7,0-1.1C14,21.9,14.1,21,14.1,20.1z M14.6,14.2
		c0,0.3,0.2,0.5,0.5,0.5c0.3,0,0.5-0.2,0.5-0.5c0-0.3-0.3-0.5-0.5-0.5C14.7,13.7,14.6,13.9,14.6,14.2z"/>
	<path class="st1" d="M8.6,5.9c0-0.3,0-0.6,0-0.9c0-0.5,0-1,0-1.5c0-0.4,0-0.7-0.1-1.1c0,0,0,0,0,0c0-0.1-0.1-0.1,0-0.2
		c0,0,0.1,0,0.2,0c0.9,0,1.9,0,2.8,0c0.8,0,1.7,0,2.5,0c0.2,0,0.2,0,0.2,0.2c0,0.3,0,0.6,0,0.9c0,0.3,0,0.7,0,1c0,0.4,0,0.8,0,1.2
		c0,0.4,0,0.8,0,1.1c0,0.4,0,0.8,0,1.2c0,0.4,0,0.7,0,1.1c0,0.5,0,0.9,0,1.4c0,0.5,0,0.9,0,1.4c0,0.3,0,0.7,0,1c0,0.5,0,0.9-0.1,1.4
		c0,0.3,0,0.6,0,0.9c-0.1,0.6,0,1.1-0.1,1.7c0,0.6,0,1.3,0,1.9c0,0.7,0,1.3,0,2c0,0.6,0,1.2,0.1,1.8c0,0.3,0,0.6,0,1
		c0,0.4,0.1,0.8,0.1,1.2c0,0.2,0,0.2-0.2,0.2c-0.9,0-1.8,0-2.6-0.1c-0.6,0-1.2,0-1.9,0c-0.1,0-0.1,0-0.1-0.1c0-0.3,0-0.6,0-0.9
		c0-0.3,0-0.7,0-1c0-0.3,0-0.5,0-0.8c-0.1-1.7-0.1-3.5,0-5.2c0-1.6,0-3.3,0-4.9c0-0.4,0-0.8,0-1.2c0-0.5,0-1,0-1.5
		c0-0.2,0-0.5,0-0.7c-0.1-0.6,0-1.2-0.1-1.7c0-0.2,0-0.3,0-0.5C8.6,6.2,8.6,6.1,8.6,5.9C8.7,6,8.7,6,8.6,5.9z M13.3,14.3
		C13.3,14.2,13.3,14.2,13.3,14.3c0-0.3-0.2-0.4-0.4-0.5c-0.2,0-0.4,0-0.5,0.2c-0.1,0.2-0.1,0.5,0,0.7c0.2,0.2,0.4,0.3,0.6,0.1
		C13.2,14.6,13.3,14.5,13.3,14.3z"/>
	<path class="st0" d="M8.6,5.9C8.7,6,8.7,6,8.6,5.9C8.5,6,8.4,6,8.3,6c-0.2,0-0.5,0-0.7,0c-0.4-0.1-0.8,0-1.3,0c-0.4,0-0.9,0-1.3,0
		c-0.2,0-0.4,0-0.6,0c-0.3,0-0.5,0.1-0.8,0c-0.4,0-0.7,0-1.1,0c-0.1,0-0.1,0.1-0.1,0.1c0,0.4,0,0.9,0,1.3c0,0.3,0,0.6,0,0.9
		c0,0.1,0,0.1,0.1,0.1C3.7,8.5,4.8,8.5,6,8.5c0.2,0,0.4,0,0.6,0c0.6,0,1.2,0,1.9,0c0.1,0,0.1,0,0.1,0.1c0,0.1-0.1,0.1-0.1,0.1
		c-0.3,0-0.7,0-1,0c-1.1,0.1-2.3,0-3.4,0.1c-0.5,0-1.1,0-1.6,0c-0.1,0-0.1,0-0.1,0.1c0,0.7-0.1,1.3-0.1,2c0,0.1,0,0.1,0.1,0.1
		c0.9,0,1.9-0.1,2.8,0c1.1,0,2.2,0.1,3.4,0.1c0,0,0.1,0,0.1,0c0,0.1,0,0.1,0,0.2c0,0-0.1,0-0.1,0c-0.6,0-1.3,0-1.9,0
		c-0.4,0-0.7,0-1.1,0c-0.1,0-0.1,0-0.1,0.1c0,0.1,0,0.2,0,0.2c0,0.1,0.1,0,0.2,0.1c0.4,0.1,0.5,0.4,0.3,0.8
		c-0.1,0.2-0.3,0.3-0.4,0.5c0.2,0,0.4,0,0.6,0C6.5,13,7,13,7.4,13.2c0.3,0.1,0.5,0.3,0.7,0.6c0,0.1,0.1,0.1,0,0.2C8.1,14,8,14,8,14
		c-0.6-0.1-1.2,0-1.9,0c-0.9,0.1-1.8,0.2-2.7,0.2c-0.1,0-0.3,0-0.4,0.1c0,0-0.1,0-0.1,0c0,0-0.1,0.1-0.1,0c0,0,0-0.1,0-0.2
		c0-0.1,0.1-0.2,0.2-0.3c0.3-0.3,0.7-0.5,1.1-0.6C4.4,13.1,4.8,13,5.2,13c0.1,0,0.1,0,0.1-0.1c0.1-0.2,0.2-0.4,0.3-0.6
		c0,0,0,0,0-0.1c0-0.1,0.1-0.2,0.1-0.2c-0.1-0.1-0.2-0.1-0.3-0.2c-0.1,0,0,0.1-0.1,0.1c0-0.2-0.1-0.1-0.2-0.1c0,0,0,0,0,0
		c-0.1,0-0.2,0.1-0.3,0.2c0,0.2,0,0.3,0.2,0.4c-0.1,0-0.2,0-0.2-0.1c-0.2-0.2-0.1-0.6,0.1-0.7c0.1,0,0.2-0.1,0.3-0.1
		c0.1,0,0.1,0,0.1-0.1c0-0.3,0-0.3-0.2-0.3c-0.5,0-1,0-1.5,0c-0.4,0-0.8,0-1.2,0c-0.1,0-0.1,0-0.1,0.1c-0.1,1.6-0.1,3.3-0.1,4.9
		C2.1,17.9,2,19.5,2,21c0,0.8,0,1.5,0,2.3c0,0.1,0,0.1,0.1,0.1c0.7,0.1,1.3,0.1,2,0.2c0.9,0.1,1.8,0.2,2.7,0.3
		C7.4,23.9,7.8,24,8.3,24c0.3,0,0.3,0,0.3,0.3c0,0.2,0,0.4,0,0.6c0,0.1,0,0.1-0.1,0.1c-1.4,0-2.7-0.1-4.1-0.1c-1,0-2,0-3-0.1
		c-0.3,0-0.3-0.1-0.3-0.3c0-1.5,0.1-3,0.1-4.5c0-1.7,0.1-3.4,0.1-5c0-1.7,0.1-3.4,0.1-5c0-1.6,0.1-3.3,0.1-4.9
		c0-0.9,0.1-1.8,0.1-2.7c0-0.1,0-0.1,0.1-0.1c1.9,0,3.7,0,5.6,0.1c0.3,0,0.6,0,0.9,0c0.1,0,0.1,0,0.1,0.1c0,0.3,0,0.7,0,1
		c0,0.1,0,0.1-0.1,0.1c-0.3,0-0.7,0-1,0c-0.7,0-1.3,0-2,0c-0.8,0-1.6,0.1-2.5,0.1c-0.1,0-0.2,0-0.3,0c-0.1,0.1,0,0.2,0,0.3
		c0,0.4,0,0.7,0,1.1c0,0.3,0,0.7,0,1C2.5,6,2.5,6,2.6,6c0.3,0,0.6-0.1,1-0.1c0.3,0,0.6,0,1,0c0.1,0,0.3,0,0.4,0c0.5,0,1,0,1.5,0
		c0.3,0,0.6-0.1,1,0C7.8,5.9,8.2,5.9,8.6,5.9C8.6,5.9,8.6,5.9,8.6,5.9z M3,14.1C3,14.1,3,14.1,3,14.1C3,14.1,3,14.1,3,14.1
		C3,14.1,3,14.1,3,14.1C3,14.1,3,14.1,3,14.1C3,14.1,3,14.1,3,14.1z M3,14c0.5-0.2,1-0.1,1.6-0.2c0.5-0.1,1-0.1,1.6-0.1
		c0.5,0,1-0.1,1.6-0.1c-0.2-0.2-0.4-0.3-0.6-0.3c-1.3-0.3-2.6-0.2-3.7,0.4C3.2,13.9,3.1,13.9,3,14z"/>
	<path class="st1" d="M3.4,7.3c-0.1,0-0.2-0.1-0.2-0.1C3.1,7.2,3,7.2,3,7.1C3,7,3.1,6.9,3.2,6.9c0.2-0.1,0.3-0.2,0.5-0.2
		c0.5-0.1,0.9-0.1,1.4-0.1c0.2,0,0.3,0,0.5,0.1c0.1,0,0.2,0.1,0.2,0.2C5.7,6.9,5.6,7,5.6,7C5.4,7.1,5.3,7.2,5.1,7.2
		c0.1,0,0.2,0,0.3,0.1c0.2,0,0.3,0.1,0.4,0.2c0.1,0.1,0.1,0.2,0,0.3C5.7,7.9,5.6,8,5.4,8C5,8.1,4.5,8.2,4,8.1c-0.3,0-0.5,0-0.8-0.1
		C3.1,8,2.9,7.9,2.8,7.9c0,0,0-0.2,0-0.2c0.1-0.1,0.2-0.2,0.4-0.2C3.3,7.4,3.4,7.4,3.4,7.3z"/>
	<path class="st1" d="M7.6,9.2c0,0.1-0.1,0.3-0.2,0.4C7.3,9.8,7.2,9.9,7,10.1c-0.3,0.3-0.5,0.5-0.9,0.7c-0.1,0-0.1,0.1-0.2,0
		c-0.1-0.1-0.1-0.1,0-0.2c0-0.2,0.1-0.3,0.2-0.4c0.2-0.2,0.4-0.4,0.6-0.6C6.9,9.3,7.1,9.1,7.4,9C7.5,9,7.6,9,7.6,9.2z"/>
	<path class="st1" d="M6.8,10.9c-0.1,0-0.2-0.1-0.1-0.2c0.1-0.1,0.2-0.3,0.3-0.4c0.1-0.1,0.2-0.3,0.4-0.4c0.2-0.3,0.5-0.5,0.8-0.7
		c0.1,0,0.1-0.1,0.2-0.1c0.1,0,0.1,0,0.1,0.1c0,0.1,0,0.2-0.1,0.2c-0.3,0.4-0.6,0.8-1,1.1c-0.1,0.1-0.3,0.2-0.4,0.3
		C6.9,10.8,6.9,10.9,6.8,10.9z"/>
	<path class="st1" d="M21.8,14c0.2,0,0.4,0.1,0.5,0.3c0,0.1,0,0.4-0.2,0.5c-0.2,0.2-0.4,0.2-0.6,0c-0.1-0.1-0.1-0.2-0.1-0.3
		C21.5,14.2,21.6,14.1,21.8,14C21.8,14,21.8,14,21.8,14z"/>
	<path class="st0" d="M14.6,14.2c0-0.3,0.2-0.5,0.5-0.5c0.2,0,0.5,0.2,0.5,0.5c0,0.3-0.2,0.5-0.5,0.5C14.8,14.7,14.6,14.5,14.6,14.2
		z"/>
	<path class="st0" d="M13.3,14.3c0,0.2-0.1,0.3-0.2,0.5c-0.2,0.2-0.5,0.1-0.6-0.1c-0.1-0.2-0.1-0.5,0-0.7c0.1-0.2,0.3-0.2,0.5-0.2
		C13.1,13.8,13.3,14,13.3,14.3C13.3,14.2,13.3,14.2,13.3,14.3z"/>
	<path class="st2" d="M3,14.1C3,14.1,3,14.1,3,14.1C3,14.1,3,14.1,3,14.1C3,14.1,3,14.1,3,14.1C3,14.1,3,14.1,3,14.1z"/>
	<path class="st2" d="M3,14.1C3,14.1,3,14.1,3,14.1C3,14.1,3,14.1,3,14.1C3,14.1,3,14.1,3,14.1z"/>
</g>
</svg>
