<?xml version="1.0" encoding="utf-8"?>
<!-- Generator: Adobe Illustrator 22.1.0, SVG Export Plug-In . SVG Version: 6.00 Build 0)  -->
<svg version="1.1" id="Слой_1" xmlns="http://www.w3.org/2000/svg" xmlns:xlink="http://www.w3.org/1999/xlink" x="0px" y="0px"
	 viewBox="0 0 28.3 28.3" style="enable-background:new 0 0 28.3 28.3;" xml:space="preserve">
<style type="text/css">
	.st0{fill:#FCFCFC;}
	.st1{fill:#565656;}
	.st2{fill:#FDD602;}
	.st3{fill:#FCD603;}
	.st4{fill:#FDFDFD;}
	.st5{fill:#FEFEFE;}
	.st6{fill:#FBFBFB;}
	.st7{fill:#FAFAFA;}
	.st8{fill:#F9F9F9;}
	.st9{fill:#F5F5F5;}
	.st10{fill:#F6F6F6;}
	.st11{fill:#E6E6E6;}
</style>
<g>
	<polygon class="st0" points="24.6,25.4 24.4,25.9 13.3,25.1 13.3,24.4 19.3,24.2 24.6,25 	"/>
	<g>
		<path class="st1" d="M12,24.3c0-0.2,0.1-0.4,0.2-0.6c0-0.1,0-0.1-0.1-0.1c-0.3,0-0.6,0-0.9,0c-0.1,0-0.1,0-0.1-0.1
			c0-0.3,0.1-0.5,0.1-0.8c0-0.1,0-0.2,0-0.2c0-0.1,0-0.2,0-0.3c0,0,0-0.1,0-0.1c0-0.2,0-0.4,0.1-0.5c0-0.4,0.1-0.9,0.1-1.3
			c0-0.2,0.1-0.4,0.1-0.6c0-0.2,0-0.4,0.1-0.5c0.1-0.5,0.2-1,0.2-1.4c0.1-0.9,0.3-1.8,0.5-2.7c0.3-1.2,0.6-2.3,0.9-3.4
			c0.4-1.2,0.8-2.5,1.3-3.7c0.6-1.3,1.2-2.5,1.9-3.7c0.4-0.7,0.9-1.3,1.4-1.8c0.2-0.2,0.5-0.4,0.8-0.5c0.2-0.1,0.4-0.2,0.6-0.3
			c0.1,0,0.1,0,0.2,0c0.1,0.1,0.2,0.1,0.3,0.1c0.1,0.1,0.2,0.1,0.4,0.2c0.4,0.3,0.7,0.8,1,1.2c0.8,1.2,1.4,2.4,2,3.7
			c0.7,1.6,1.2,3.3,1.7,5c0.4,1.6,0.8,3.2,1.2,4.8c0.3,1.6,0.6,3.3,0.8,5c0.1,0.8,0.2,1.6,0.3,2.4c0,0.1,0,0.1-0.1,0.1
			c-0.5-0.1-1-0.1-1.4-0.2c-0.1,0-0.1,0-0.1,0.1c0,0.2,0,0.4,0,0.5c0,0.2-0.1,0.3-0.2,0.4c-0.2,0.2-0.4,0.3-0.6,0.4
			c-0.1,0-0.1,0-0.1,0c-0.1-0.1-0.3-0.2-0.5-0.2c-0.9-0.1-1.8-0.3-2.7-0.5c-0.6-0.1-1.1-0.2-1.7-0.2c-0.1,0-0.2,0-0.4,0
			c-0.8,0-1.6,0-2.4,0c-0.5,0-0.9,0-1.4,0.1c-0.3,0-0.5,0-0.8,0c-0.4,0-0.8,0.1-1.2,0.1c-0.1,0-0.1,0-0.1,0.1c0,0.1,0.1,0.1,0.2,0.1
			c0.2,0,0.4,0,0.6,0c0.3,0,0.5,0,0.8,0c0.2,0,0.3,0,0.5,0c0.5-0.1,0.9-0.1,1.4-0.1c0,0,0.1,0,0.1,0c0.8,0,1.7,0,2.5,0
			c0.7,0,1.3,0.2,2,0.4c0.8,0.3,1.7,0.5,2.5,0.6c0.2,0,0.3,0,0.5,0c0,0,0.1,0,0.1,0.1c0.1,0.3,0.3,0.6,0.4,0.9c0,0.1,0,0.1-0.1,0.1
			c-1-0.1-2.1-0.2-3.2-0.3c-1.4-0.2-2.9-0.2-4.3-0.2c-1.3,0-2.6,0.1-4,0.2c-0.3,0-0.6,0.1-0.9,0.1c0.1-0.2,0.1-0.3,0.2-0.4
			c0-0.1,0.1-0.2,0.1-0.3c0-0.1,0.1-0.2,0.1-0.3c0.1-0.3,0.2-0.5,0.3-0.8c0-0.1,0-0.1-0.1-0.1c-0.2,0-0.5,0.1-0.7,0.1c0,0,0,0-0.1,0
			C12.1,24.8,12,24.6,12,24.3C11.9,24.3,11.9,24.3,12,24.3z"/>
		<path class="st2" d="M12,24.3c0,0.1,0,0.2,0.1,0.3c0.1,0.1,0.2,0.2,0.3,0.2c0,0,0,0-0.1,0c-0.1,0-0.2,0-0.3,0
			c-0.3,0-0.5,0-0.8,0.1c-0.6,0-1.3,0-1.9,0c-0.6,0-1.2,0-1.9-0.1c-0.1,0-0.1,0-0.2,0c-0.7,0-1.4,0-2,0c-0.2,0-0.4,0.1-0.6,0
			c-0.1,0-0.3,0-0.4,0c0,0,0,0,0,0c-0.1,0-0.2,0-0.3,0c-0.3,0.1-0.7,0.2-1,0.3c-0.2,0.1-0.3,0.2-0.5,0.3c0,0,0,0.1,0,0.1
			c0,0,0.1,0.1,0.1,0.1C2.9,25.9,3.3,26,3.7,26c0.7,0.1,1.4,0.1,2,0.1c0.3,0,0.5,0,0.8,0c0.2,0,0.4,0,0.6,0c0.4,0,0.7,0,1.1-0.1
			c0.4,0,0.8-0.1,1.1-0.1c0.3,0,0.5,0,0.8-0.1c0.3,0,0.6,0,0.9-0.1c0,0,0,0,0.1,0c0.4,0,0.8-0.1,1.2,0c0.1,0,0.2,0,0.3,0
			c0.1,0,0.2,0,0.3,0c-0.1,0.2-0.1,0.4-0.2,0.5c-0.4,0-0.8,0-1.2,0.1c-0.5,0-1,0-1.5,0.1c-0.2,0-0.5,0-0.7,0.1
			c-0.4,0-0.8,0.1-1.3,0.1c-0.3,0-0.5,0-0.8,0.1c-0.7,0-1.3,0.1-2,0.1c-0.4,0-0.8,0-1.2,0c-0.2,0-0.4,0-0.5-0.1
			c-0.2,0-0.5-0.1-0.7-0.2c-0.2-0.1-0.5-0.2-0.7-0.3c-0.4-0.2-0.5-0.6-0.1-0.9c0.3-0.3,0.7-0.5,1-0.6c0.2-0.1,0.5-0.2,0.7-0.2
			c0.2,0,0.4-0.1,0.6-0.1c0.4,0,0.8-0.1,1.2-0.1c0.8,0,1.6,0,2.4,0c0.9,0,1.8,0.1,2.7,0.1c0.4,0,0.7,0,1.1,0
			C11.9,24.3,11.9,24.2,12,24.3z"/>
		<path class="st3" d="M11.5,19.2c0,0.2,0,0.4-0.1,0.5c-0.2-0.1-0.4-0.1-0.6-0.2c-0.5-0.1-0.9-0.1-1.4-0.1c-0.2,0-0.4,0-0.7,0.1
			c-0.3,0-0.6,0.1-0.8,0.1c-0.2,0-0.4,0.1-0.7,0.2c-0.4,0.1-0.7,0.2-1.1,0.3c-0.3,0.1-0.6,0.2-0.9,0.3c-0.3,0.1-0.5,0.2-0.8,0.2
			c-0.4,0.1-0.8,0.2-1.3,0.1c-0.3,0-0.6-0.1-0.8-0.2c-0.3-0.3-0.4-0.6-0.2-1c0.2-0.4,0.6-0.7,1.1-0.9c0.3-0.1,0.5-0.2,0.8-0.3
			c0.2,0,0.4-0.1,0.7-0.1c0.9-0.2,1.9-0.1,2.8-0.1c0.1,0,0.2,0,0.3,0c0.3,0,0.6,0,0.9,0c0.2,0,0.5-0.1,0.7-0.2
			c0.3-0.2,0.3-0.4,0.1-0.7c-0.2-0.2-0.5-0.4-0.8-0.5c-0.4-0.1-0.8-0.2-1.2-0.3c-0.6-0.1-1.1-0.1-1.7,0c-0.3,0-0.5,0.1-0.8,0.1
			c-0.3,0-0.6,0.1-0.8,0.2c-0.2,0-0.4,0.1-0.6,0.1c-0.2,0.1-0.4,0.1-0.6,0.2C3,17,2.8,17.1,2.5,17.2c-0.2,0.1-0.4,0.1-0.5,0.2
			c-0.3,0.1-0.5,0.2-0.8,0.4c0-0.2,0.1-0.2,0.2-0.3c0.3-0.2,0.6-0.3,1-0.4C2.7,17,3,16.9,3.3,16.8c0.2-0.1,0.4-0.1,0.6-0.1
			c0.2-0.1,0.4-0.1,0.6-0.2c0.2,0,0.4-0.1,0.5-0.1c0.2,0,0.5-0.1,0.7-0.1c0.1,0,0.2,0,0.3,0c0.4-0.1,0.8-0.1,1.2,0
			c0.3,0,0.6,0.1,0.9,0.1c0.2,0,0.3,0.1,0.5,0.1c0.2,0,0.3,0.1,0.5,0.2c0.3,0.1,0.5,0.3,0.7,0.5c0.1,0.1,0.2,0.3,0.2,0.5
			c0,0.3-0.1,0.5-0.3,0.7c-0.3,0.2-0.6,0.3-0.9,0.4c-0.6,0.1-1.2,0.1-1.8,0.1c-0.4,0-0.9,0-1.3,0c-0.2,0-0.5,0-0.7,0.1
			c-0.2,0-0.4,0.1-0.6,0.1c-0.1,0-0.3,0.1-0.4,0.1c-0.5,0.1-0.9,0.3-1.2,0.7c0,0-0.1,0.1-0.1,0.1c-0.1,0.2-0.1,0.3,0.1,0.4
			c0.3,0.1,0.5,0.1,0.8,0.1c0.3,0,0.5-0.1,0.7-0.1c0.3-0.1,0.5-0.1,0.8-0.2c0.3-0.1,0.6-0.2,0.9-0.3c0.2-0.1,0.5-0.2,0.7-0.2
			c0.2-0.1,0.4-0.1,0.6-0.2C7.7,19.1,8,19.1,8.3,19c0.1,0,0.3,0,0.4-0.1c0.3,0,0.5-0.1,0.8-0.1c0.3,0,0.7,0,1,0
			c0.2,0,0.5,0.1,0.7,0.1C11.3,19.1,11.4,19.2,11.5,19.2z"/>
		<path class="st3" d="M11.2,21.6c0,0.2,0,0.4,0,0.5c0,0-0.1,0-0.1,0c-0.3,0-0.5,0-0.8,0c0,0-0.1,0-0.1,0c-0.1,0-0.1,0-0.2,0
			c-0.9,0-1.7,0-2.6,0c-0.4,0-0.7,0-1.1-0.1c-0.1,0-0.2,0-0.3,0c-0.3,0-0.5,0-0.8,0c-0.3,0-0.6,0-1,0.1c-0.2,0-0.5,0-0.7,0.1
			c-0.4,0.1-0.7,0.2-1,0.5c0,0,0,0-0.1,0.1c-0.1,0.1-0.1,0.2,0.1,0.3c0.2,0.1,0.4,0.1,0.6,0.2c0.2,0,0.4,0,0.7,0.1
			c0.3,0,0.6,0,0.9,0c0.1,0,0.3,0,0.4-0.1c0.3-0.1,0.7-0.1,1-0.2c0.4-0.1,0.8-0.2,1.2-0.3c0.5-0.1,1-0.2,1.4-0.3
			c0.3-0.1,0.5-0.1,0.8-0.1c0.2,0,0.5,0,0.7-0.1c0.1,0,0.2,0,0.3,0c0.2,0,0.4,0,0.5,0c0.1,0,0.1,0,0.1,0c0,0.2,0,0.4,0,0.5
			c-0.4,0-0.9,0-1.3,0.1c-0.3,0-0.6,0.1-0.8,0.1c-0.2,0-0.5,0.1-0.7,0.2c-0.2,0-0.4,0.1-0.6,0.1c-0.2,0.1-0.5,0.1-0.7,0.2
			c-0.1,0-0.3,0.1-0.4,0.1c-0.2,0.1-0.4,0.1-0.7,0.2c-0.2,0-0.3,0.1-0.5,0.1C4.8,23.9,4.2,24,3.7,24c-0.3,0-0.6-0.1-0.9-0.1
			c-0.2,0-0.4-0.1-0.6-0.2c-0.3-0.1-0.5-0.6-0.3-0.9c0.2-0.4,0.5-0.6,0.8-0.7c0.2-0.1,0.5-0.2,0.8-0.2c0.3-0.1,0.6-0.1,0.9-0.1
			c0.6-0.1,1.2-0.1,1.8,0c1.1,0.1,2.2,0.1,3.4,0.1C10.1,21.7,10.7,21.7,11.2,21.6z"/>
		<path class="st4" d="M21.8,20.1c-0.1-0.1-0.1-0.3-0.1-0.4c-0.1-0.5-0.1-0.9-0.1-1.4c0-0.3,0-0.6,0-0.9c0-0.1,0-0.1,0-0.2
			c0-0.1,0-0.1,0.1-0.1c0.1,0,0.1,0.1,0.1,0.1c0,0,0,0.1,0,0.2c0.1,0.8,0.1,1.6,0.1,2.4C21.9,19.9,21.9,20,21.8,20.1z"/>
		<path class="st4" d="M14.2,12.1c0.1-0.3,0.1-0.6,0.2-0.8c0.1-0.4,0.2-0.8,0.3-1.1c0-0.1,0-0.2,0.1-0.2c0-0.1,0.1-0.1,0.2-0.1
			C15,9.8,15,9.8,15,9.9c0,0.1,0,0.1,0,0.2c-0.2,0.6-0.4,1.2-0.7,1.7C14.3,11.9,14.3,12,14.2,12.1z"/>
		<path class="st4" d="M13.2,15.2c0.1-0.3,0.1-0.6,0.2-0.9c0.1-0.4,0.1-0.8,0.2-1.2c0-0.1,0-0.1,0.1-0.2c0-0.1,0.1-0.1,0.2-0.1
			c0.1,0,0.1,0.1,0.1,0.1c0,0.1,0,0.3,0,0.4c-0.1,0.4-0.2,0.8-0.4,1.1c-0.1,0.2-0.2,0.5-0.3,0.7C13.3,15.1,13.2,15.1,13.2,15.2
			C13.2,15.2,13.2,15.2,13.2,15.2z"/>
		<path class="st5" d="M14.5,15.9c0-0.4,0-0.9,0.1-1.3c0-0.1,0-0.2,0.1-0.3c0.1-0.1,0.2-0.1,0.2,0c0,0.1,0,0.2,0,0.3
			c-0.1,0.5-0.2,1.1-0.4,1.6c0,0,0,0.1-0.1,0.1c-0.1,0,0-0.1,0-0.1C14.5,16.1,14.5,16,14.5,15.9z"/>
		<path class="st5" d="M13.8,19.5c0-0.2,0-0.4-0.1-0.6c0-0.4,0-0.7,0-1.1c0-0.1,0-0.2,0.1-0.3c0-0.1,0.1-0.1,0.2-0.1
			c0.1,0,0.1,0.1,0.1,0.2c0,0.2,0,0.3,0,0.5c-0.1,0.4-0.1,0.9-0.2,1.3C13.9,19.4,13.9,19.5,13.8,19.5z"/>
		<path class="st4" d="M15.2,13.1c0-0.2,0.1-0.5,0.1-0.7c0.1-0.4,0.1-0.7,0.2-1.1c0-0.1,0-0.1,0.1-0.2c0.1-0.1,0.2-0.1,0.2,0
			c0,0.1,0,0.2,0,0.3c0,0.4-0.2,0.7-0.3,1c-0.1,0.2-0.1,0.4-0.2,0.5C15.3,13,15.3,13.1,15.2,13.1z"/>
		<path class="st4" d="M19.9,14.8c0-0.4-0.1-0.7-0.1-1.1c0-0.3-0.1-0.7-0.1-1c0-0.1,0-0.1,0-0.2c0,0,0-0.1,0.1-0.1
			c0.1,0,0.1,0,0.1,0.1c0,0.1,0,0.1,0,0.2c0,0.7,0.1,1.3,0,2C19.9,14.7,19.9,14.8,19.9,14.8C19.9,14.8,19.9,14.8,19.9,14.8z"/>
		<path class="st4" d="M21.6,16.4C21.6,16.4,21.6,16.3,21.6,16.4c-0.2-0.6-0.2-1.1-0.2-1.6c0-0.1,0-0.3,0.1-0.4c0,0,0-0.1,0.1-0.1
			c0,0,0.1,0,0.1,0.1c0.1,0.2,0.1,0.4,0.1,0.6C21.7,15.4,21.7,15.9,21.6,16.4C21.6,16.3,21.6,16.4,21.6,16.4z"/>
		<path class="st4" d="M16.6,14.7c0-0.1,0-0.2,0-0.2c0-0.5,0-1,0.1-1.5c0-0.1,0-0.1,0.1-0.2c0-0.1,0.1-0.1,0.1-0.1
			c0.1,0,0.1,0.1,0.1,0.1c0,0.2,0,0.5,0,0.7c-0.1,0.3-0.1,0.7-0.2,1C16.7,14.6,16.7,14.6,16.6,14.7z"/>
		<path class="st4" d="M16.1,10.1c0-0.1,0.1-0.2,0.1-0.3c0.1-0.4,0.2-0.9,0.3-1.3c0-0.1,0-0.1,0.1-0.2c0-0.1,0.1-0.1,0.1-0.1
			c0.1,0,0.1,0.1,0.1,0.1c0,0.1,0,0.2,0,0.3c-0.1,0.5-0.3,1-0.5,1.4C16.2,9.9,16.2,10,16.1,10.1C16.1,10.1,16.1,10.1,16.1,10.1z"/>
		<path class="st4" d="M19.4,6.1c0-0.1,0-0.2,0-0.3c0-0.5,0-1,0.1-1.5c0-0.1,0-0.1,0.1-0.2c0,0,0.1-0.1,0.1-0.1
			c0.1,0,0.1,0.1,0.1,0.1c0,0.1,0,0.2,0,0.3c-0.1,0.5-0.1,1-0.2,1.4C19.4,5.9,19.4,6,19.4,6.1z"/>
		<path class="st0" d="M22,8.3c-0.1-0.2-0.2-0.4-0.3-0.6c-0.1-0.4-0.3-0.8-0.4-1.2c0,0,0-0.1,0-0.1c0-0.1,0-0.1,0.1-0.1
			c0.1,0,0.1,0,0.1,0c0.1,0.1,0.1,0.2,0.1,0.2C21.8,7.2,22,7.7,22,8.3C22,8.3,22,8.3,22,8.3z"/>
		<path class="st4" d="M18.4,13.8c0-0.3,0-0.6,0-0.8c0-0.3,0-0.5,0-0.8c0-0.1,0-0.1,0.1-0.2c0.1-0.1,0.2-0.1,0.2,0c0,0,0,0.1,0,0.1
			c0,0.5-0.1,1-0.2,1.5C18.4,13.7,18.4,13.8,18.4,13.8z"/>
		<path class="st5" d="M23.6,23.1c0,0.3,0,0.6-0.1,0.9c0,0,0,0.1,0,0.1c0,0,0,0,0-0.1c-0.2-0.4-0.2-0.8-0.2-1.3c0,0,0-0.1,0-0.1
			c0-0.1,0.1-0.1,0.2-0.1c0.1,0,0.1,0.1,0.2,0.1C23.6,22.8,23.6,23,23.6,23.1z"/>
		<path class="st4" d="M18,16.6c0-0.2,0-0.4,0-0.6c0-0.3,0-0.6,0-0.9c0-0.1,0-0.2,0-0.3c0-0.1,0.1-0.1,0.1-0.1
			c0.1,0,0.1,0.1,0.1,0.1c0,0,0,0.1,0,0.1c0,0.5-0.1,1-0.2,1.6C18.1,16.5,18.1,16.5,18,16.6z"/>
		<path class="st4" d="M23,19.9c0.4,0.7,0.3,1.4,0.4,2.1c-0.1-0.1-0.1-0.2-0.2-0.4c-0.1-0.4-0.2-0.7-0.3-1.1
			C22.9,20.3,22.9,20.1,23,19.9z"/>
		<path class="st4" d="M12.6,18c0-0.2,0-0.4,0-0.6c0-0.4,0.1-0.8,0.1-1.2c0,0,0-0.1,0-0.1c0-0.1,0.1-0.1,0.1-0.1
			C13,16,13,16,13,16.1c0,0.1,0,0.2,0,0.4c-0.1,0.5-0.2,0.9-0.3,1.4C12.6,17.9,12.6,17.9,12.6,18z"/>
		<path class="st4" d="M17.2,11.9c0-0.2,0-0.4,0-0.7c0-0.3,0.1-0.6,0.1-0.8c0-0.1,0-0.1,0.1-0.2c0.1-0.1,0.2-0.1,0.2,0
			c0,0.1,0,0.1,0,0.2c-0.1,0.5-0.2,0.9-0.4,1.3C17.2,11.8,17.2,11.8,17.2,11.9z"/>
		<path class="st6" d="M23.5,14.6c-0.1-0.3-0.1-0.5-0.1-0.8c-0.1-0.6-0.2-1.1-0.3-1.7c0,0,0-0.1,0-0.1c0,0,0-0.1,0-0.1
			c0.1,0,0.1,0,0.1,0.1c0,0.1,0.1,0.1,0.1,0.2c0.1,0.4,0.1,0.9,0.2,1.3c0,0.3,0,0.7,0,1C23.5,14.5,23.5,14.5,23.5,14.6z"/>
		<path class="st4" d="M15.9,19.4c0-0.1,0-0.2,0-0.3c0-0.3,0-0.7,0-1c0-0.1,0-0.2,0.1-0.3c0,0,0.1-0.1,0.2-0.1
			c0.1,0,0.1,0.1,0.1,0.1c0,0.1,0,0.3,0,0.4c-0.1,0.3-0.1,0.7-0.2,1C15.9,19.3,15.9,19.3,15.9,19.4z"/>
		<path class="st4" d="M16.3,16.9c0-0.1,0-0.3,0-0.4c0-0.3,0-0.6,0-0.9c0-0.1,0-0.2,0.1-0.3c0.1-0.1,0.2-0.1,0.2,0
			c0,0.1,0,0.2,0,0.2c0,0.4-0.1,0.8-0.3,1.2C16.3,16.8,16.3,16.8,16.3,16.9z"/>
		<path class="st0" d="M22.8,11.2c-0.1-0.2-0.2-0.5-0.3-0.8c-0.1-0.4-0.2-0.8-0.2-1.2c0-0.1,0-0.1,0-0.2c0-0.1,0-0.1,0.1-0.1
			c0.1,0,0.1,0,0.1,0.1c0,0.1,0,0.2,0.1,0.3C22.7,10,22.7,10.6,22.8,11.2C22.8,11.2,22.8,11.2,22.8,11.2z"/>
		<path class="st0" d="M21.9,23.2c0,0.2,0,0.4-0.1,0.7c0,0.1,0,0.2-0.1,0.3c0,0,0,0.1-0.1,0.1c0,0,0,0-0.1-0.1
			c0-0.1-0.1-0.2-0.1-0.3c0-0.3,0-0.6,0-0.8c0-0.1,0-0.2,0.1-0.2c0.1-0.1,0.2-0.1,0.2,0C21.9,22.9,21.9,22.9,21.9,23.2z"/>
		<path class="st4" d="M19.7,17.7c0-0.3-0.1-0.5-0.1-0.8c0-0.2,0-0.4,0-0.7c0-0.1,0-0.2,0-0.2c0-0.1,0.1-0.1,0.1-0.1
			c0.1,0,0.1,0,0.1,0.1c0,0,0,0.1,0,0.2c0,0.4,0,0.9-0.1,1.3C19.7,17.5,19.7,17.6,19.7,17.7z"/>
		<path class="st0" d="M19.7,23.1c-0.1-0.1-0.1-0.3-0.1-0.4c-0.1-0.4-0.1-0.7-0.1-1.1c0-0.1,0-0.1,0-0.2c0-0.1,0.1-0.1,0.1-0.1
			c0.1,0,0.1,0,0.1,0.1c0,0.1,0,0.2,0,0.2C19.8,22.1,19.8,22.6,19.7,23.1C19.7,23.1,19.7,23.1,19.7,23.1z"/>
		<path class="st4" d="M21.4,13.7c-0.1,0-0.1-0.1-0.1-0.2c-0.1-0.4-0.1-0.9-0.2-1.3c0-0.1,0-0.1,0-0.2c0-0.1,0.1-0.1,0.1-0.1
			c0.1,0,0.1,0.1,0.1,0.1c0,0.1,0.1,0.2,0.1,0.4C21.5,12.8,21.5,13.2,21.4,13.7C21.5,13.6,21.4,13.6,21.4,13.7z"/>
		<path class="st0" d="M23.8,17c-0.1-0.1-0.1-0.2-0.1-0.4c-0.1-0.4-0.1-0.9-0.2-1.4c0-0.1,0-0.1,0-0.2c0,0,0-0.1,0.1-0.1
			c0,0,0.1,0,0.1,0.1c0,0,0,0.1,0,0.1c0.1,0.5,0.1,1,0.1,1.5C23.8,16.9,23.8,17,23.8,17z"/>
		<path class="st0" d="M17.7,19.1c0-0.1,0-0.3,0-0.4c0-0.4,0-0.7,0-1.1c0-0.1,0-0.3,0.1-0.4c0.1-0.1,0.1-0.1,0.1,0
			c0,0.1,0.1,0.1,0,0.2c0,0.5,0,1-0.1,1.5C17.8,19,17.8,19.1,17.7,19.1z"/>
		<path class="st4" d="M17.7,21.7c0-0.2,0-0.4,0-0.6c0-0.4,0-0.7,0-1.1c0,0,0-0.1,0-0.1c0-0.1,0-0.2,0.1-0.2c0.1,0,0.1,0.1,0.1,0.2
			c0,0.4,0,0.8-0.1,1.2C17.8,21.3,17.8,21.5,17.7,21.7C17.7,21.6,17.7,21.7,17.7,21.7z"/>
		<path class="st0" d="M15.6,21.8c-0.1-0.5-0.1-0.9-0.1-1.4c0-0.1,0-0.2,0.1-0.3c0.1,0,0.1,0,0.1,0c0,0.1,0.1,0.1,0.1,0.2
			c0,0.4,0,0.9-0.1,1.3C15.7,21.7,15.7,21.8,15.6,21.8z"/>
		<path class="st4" d="M21.7,22.2c-0.1-0.5-0.1-1-0.1-1.4c0,0,0-0.1,0-0.1c0-0.1,0.1-0.1,0.1-0.1c0.1,0,0.1,0,0.1,0.1
			c0,0,0,0.1,0,0.1C21.9,21.2,21.8,21.6,21.7,22.2C21.7,22.1,21.7,22.1,21.7,22.2z"/>
		<path class="st4" d="M24.3,23.3c0,0.2,0,0.4,0,0.6c0,0.1,0,0.2-0.1,0.3c0,0,0,0.1-0.1,0.1c0,0,0-0.1,0-0.1
			C24,23.7,24,23.3,24,22.8c0-0.1,0-0.1,0-0.2c0,0,0.1-0.1,0.1-0.1c0.1,0,0.1,0,0.1,0.1c0,0.1,0,0.1,0,0.2
			C24.3,23,24.3,23.1,24.3,23.3z"/>
		<path class="st0" d="M24,19.7c-0.1-0.1-0.1-0.2-0.1-0.2c-0.1-0.5-0.1-0.9-0.2-1.4c0-0.1,0-0.1,0-0.2c0-0.1,0.1-0.1,0.2,0
			c0,0,0.1,0.1,0.1,0.2c0.1,0.5,0.1,1,0,1.4C24,19.5,24,19.6,24,19.7z"/>
		<path class="st0" d="M15.3,9.1c0-0.2,0.1-0.4,0.1-0.6c0.1-0.2,0.1-0.4,0.2-0.7c0-0.1,0-0.1,0.1-0.2c0,0,0.1-0.1,0.1-0.1
			c0.1,0,0.1,0.1,0.1,0.1c0,0.1,0,0.1,0,0.2c-0.1,0.4-0.3,0.7-0.5,1.1C15.4,9,15.3,9.1,15.3,9.1z"/>
		<path class="st0" d="M20,8.6c0-0.2,0-0.3,0-0.5c0-0.4,0-0.7,0-1.1c0-0.1,0-0.2,0-0.2c0,0,0-0.1,0.1-0.1c0.1,0,0.1,0,0.1,0.1
			c0,0.1,0,0.2,0,0.2c0,0.5-0.1,0.9-0.2,1.4C20.1,8.5,20.1,8.5,20,8.6z"/>
		<path class="st0" d="M17.6,9.6c0-0.1,0-0.3,0-0.4c0-0.3,0.1-0.7,0.1-1c0-0.1,0-0.2,0.1-0.2c0-0.1,0.1-0.1,0.1-0.1
			C18,7.9,18,8,18,8c0,0.1,0,0.1,0,0.2c-0.1,0.4-0.2,0.8-0.3,1.1C17.7,9.5,17.7,9.5,17.6,9.6z"/>
		<path class="st0" d="M13.4,22.2c-0.1-0.4-0.1-0.9,0-1.3c0-0.1,0-0.2,0.1-0.2c0,0,0.1-0.1,0.1-0.1c0.1,0,0.1,0.1,0.1,0.1
			c0,0.1,0,0.3,0,0.4c-0.1,0.3-0.1,0.6-0.2,0.9C13.4,22.1,13.4,22.1,13.4,22.2z"/>
		<path class="st4" d="M18.6,10.5c0-0.3,0-0.6,0.1-0.9c0-0.1,0-0.1,0.1-0.2c0.1-0.1,0.1-0.1,0.1,0c0,0.1,0,0.1,0,0.2
			c0,0.4-0.1,0.8-0.2,1.2c0,0,0,0,0,0.1c0,0,0,0.1,0,0.1c0,0,0,0,0-0.1C18.6,10.8,18.6,10.6,18.6,10.5z"/>
		<path class="st6" d="M20.9,8.6c-0.1-0.2-0.1-0.3-0.1-0.5c0-0.3-0.1-0.7-0.2-1c0-0.1,0-0.1,0-0.2c0,0,0-0.1,0.1-0.1
			c0.1,0,0.1,0,0.1,0.1c0.1,0.3,0.2,0.7,0.2,1C21,8.1,21,8.4,20.9,8.6z"/>
		<path class="st0" d="M16.3,6.7c0-0.1,0-0.1,0-0.2c0.1-0.3,0.2-0.7,0.3-1c0-0.1,0.1-0.2,0.1-0.2c0,0,0.1-0.1,0.1,0
			c0.1,0,0.1,0.1,0.1,0.1c0,0,0,0.1,0,0.1c-0.2,0.4-0.3,0.8-0.6,1.1C16.4,6.7,16.4,6.7,16.3,6.7z"/>
		<path class="st0" d="M19.6,20.8c-0.1-0.1-0.1-0.3-0.1-0.5c0-0.4,0-0.9-0.1-1.3c0-0.1,0-0.2,0.1-0.2c0.1,0,0.1,0.1,0.1,0.2
			C19.7,19.6,19.7,20.2,19.6,20.8C19.7,20.8,19.6,20.8,19.6,20.8z"/>
		<path class="st0" d="M20.2,5.5c-0.1-0.5-0.1-1-0.1-1.5c0-0.1,0-0.2,0.1-0.2c0.1,0,0.1,0.1,0.1,0.2c0,0.4,0,0.8-0.1,1.2
			C20.3,5.3,20.3,5.4,20.2,5.5z"/>
		<path class="st4" d="M15.5,23.7c0-0.2-0.1-0.4-0.1-0.6c0-0.2,0-0.3,0-0.5c0-0.1,0-0.2,0.1-0.3c0.1-0.1,0.1-0.1,0.2,0
			c0,0,0,0.1,0,0.1c0,0.4,0,0.7-0.1,1.1C15.5,23.6,15.5,23.7,15.5,23.7z"/>
		<path class="st4" d="M24.1,22c0,0,0-0.1-0.1-0.1C24,21.5,24,21.1,24,20.7c0-0.1,0-0.1,0-0.2c0,0,0-0.1,0.1-0.1c0,0,0.1,0,0.1,0.1
			c0,0.1,0,0.2,0,0.3C24.2,21.2,24.3,21.6,24.1,22C24.2,22,24.2,22,24.1,22z"/>
		<path class="st0" d="M22.9,19.1c0,0,0-0.1-0.1-0.1c-0.1-0.3-0.1-0.7-0.1-1c0-0.1,0-0.2,0-0.2c0,0,0-0.1,0.1-0.1c0,0,0.1,0,0.1,0.1
			c0,0.1,0,0.2,0,0.2C22.9,18.3,22.9,18.7,22.9,19.1C22.9,19.1,22.9,19.1,22.9,19.1z"/>
		<path class="st6" d="M22.3,6.4c-0.1-0.1-0.2-0.3-0.2-0.4c-0.1-0.2-0.2-0.4-0.3-0.7c0-0.1-0.1-0.1-0.1-0.2c0-0.1,0-0.1,0-0.1
			c0.1,0,0.1,0,0.1,0.1C22,5.2,22,5.4,22.1,5.6C22.2,5.9,22.3,6.1,22.3,6.4C22.3,6.4,22.3,6.4,22.3,6.4C22.3,6.4,22.3,6.4,22.3,6.4z
			"/>
		<path class="st6" d="M21.1,5.7C21,5.6,21,5.5,20.9,5.4c-0.1-0.4-0.2-0.7-0.3-1.1c0-0.1,0-0.2,0.1-0.2c0.1,0,0.1,0.1,0.1,0.2
			c0.1,0.4,0.2,0.9,0.3,1.3C21.1,5.7,21.1,5.7,21.1,5.7z"/>
		<path class="st6" d="M21.2,11.1c-0.1-0.2-0.1-0.4-0.1-0.5c0-0.3-0.1-0.5-0.1-0.8c0-0.1,0-0.1,0-0.2c0,0,0-0.1,0.1-0.1
			c0.1,0,0.1,0,0.1,0.1c0,0,0,0.1,0,0.1C21.2,10.2,21.2,10.6,21.2,11.1C21.2,11.1,21.2,11.1,21.2,11.1z"/>
		<path class="st0" d="M14.6,22c0-0.4,0-0.8,0-1.2c0-0.1,0-0.2,0.1-0.3c0,0,0-0.1,0.1,0c0,0,0,0,0,0.1c0,0.3,0,0.5-0.1,0.8
			C14.7,21.6,14.7,21.8,14.6,22C14.6,22,14.6,22,14.6,22z"/>
		<path class="st6" d="M24.4,12.2c-0.1-0.1-0.1-0.2-0.2-0.3c-0.1-0.3-0.3-0.6-0.3-0.9c0-0.1,0-0.2,0-0.2c0.1,0,0.1,0.1,0.1,0.1
			C24.2,11.3,24.3,11.7,24.4,12.2C24.4,12.2,24.4,12.2,24.4,12.2z"/>
		<path class="st0" d="M22.7,16.3c0,0-0.1-0.1-0.1-0.1c-0.1-0.3-0.2-0.7-0.2-1.1c0-0.1,0-0.1,0-0.2c0,0,0-0.1,0.1-0.1
			c0.1,0,0.1,0.1,0.1,0.1c0,0.1,0,0.2,0.1,0.3C22.7,15.6,22.7,16,22.7,16.3z"/>
		<path class="st6" d="M25.5,18.3c-0.1-0.1-0.1-0.2-0.1-0.4c-0.1-0.3-0.1-0.7-0.2-1c0,0,0-0.1,0-0.1c0,0,0-0.1,0.1-0.1
			c0,0,0.1,0,0.1,0.1c0,0,0,0.1,0,0.2C25.5,17.4,25.5,17.9,25.5,18.3z"/>
		<path class="st0" d="M19.9,11.5c0-0.5-0.1-0.9,0-1.4c0-0.1,0-0.2,0.1-0.2c0.1,0,0.1,0.1,0.1,0.2C20.1,10.5,20.1,11,19.9,11.5
			C20,11.5,20,11.5,19.9,11.5z"/>
		<path class="st6" d="M12.1,20.6c0-0.4,0-0.7,0.1-1.1c0-0.2,0-0.4,0.1-0.6c0,0,0-0.1,0.1-0.1c0,0,0,0.1,0,0.1
			C12.4,19.5,12.3,20,12.1,20.6C12.1,20.6,12.1,20.6,12.1,20.6z"/>
		<path class="st6" d="M17.1,7c0.1-0.1,0.1-0.3,0.2-0.4c0.1-0.2,0.2-0.5,0.3-0.7c0-0.1,0-0.1,0.1-0.2c0,0,0.1-0.1,0.1,0
			c0,0,0,0,0,0.1c0,0.1,0,0.1,0,0.2C17.6,6.4,17.5,6.7,17.1,7C17.2,7,17.2,7,17.1,7C17.2,7,17.1,7,17.1,7z"/>
		<path class="st0" d="M25.1,16c-0.1-0.2-0.2-0.4-0.2-0.6c0-0.1-0.1-0.2-0.1-0.3c0-0.1,0-0.1,0-0.2c0,0,0.1-0.1,0.1-0.1
			c0.1,0,0.1,0,0.1,0.1c0,0,0,0.1,0,0.1C25.1,15.3,25.1,15.7,25.1,16C25.1,16,25.1,16,25.1,16z"/>
		<path class="st6" d="M25.8,21.9c0,0,0-0.1,0-0.1c-0.1-0.4-0.1-0.7-0.2-1.1c0,0,0-0.1,0-0.1c0,0,0-0.1,0.1-0.1c0.1,0,0.1,0,0.1,0.1
			c0,0.1,0,0.1,0.1,0.2C25.9,21.2,25.9,21.5,25.8,21.9C25.8,21.9,25.8,21.9,25.8,21.9z"/>
		<path class="st0" d="M19,8.3c0-0.1,0-0.1,0-0.2c0-0.3,0-0.6,0-0.9c0-0.1,0-0.1,0-0.2c0,0,0.1-0.1,0.1-0.1c0,0,0.1,0,0.1,0.1
			c0,0.1,0,0.3,0,0.4c0,0.2-0.1,0.5-0.2,0.7C19.1,8.2,19.1,8.2,19,8.3C19,8.3,19,8.3,19,8.3z"/>
		<path class="st6" d="M18.8,5c0.1-0.2,0.1-0.4,0.2-0.7C19,4.2,19,4,19.1,3.8c0-0.1,0.1-0.1,0.1-0.1c0.1,0,0.1,0.1,0,0.2
			c-0.1,0.3-0.2,0.5-0.3,0.8C18.9,4.8,18.9,4.9,18.8,5C18.8,5.1,18.8,5,18.8,5z"/>
		<path class="st6" d="M17.6,4.5c0.1-0.3,0.2-0.6,0.4-0.9c0.1-0.1,0.1-0.2,0.2-0.3c0.1,0,0.1-0.1,0.2,0c0.1,0,0,0.1,0,0.1
			C18.1,3.8,17.9,4.1,17.6,4.5C17.6,4.5,17.6,4.5,17.6,4.5z"/>
		<path class="st6" d="M21.4,4.3c-0.1-0.1-0.2-0.2-0.3-0.3c-0.1-0.1-0.2-0.3-0.4-0.4c0,0-0.1-0.1-0.1-0.1c0-0.1,0-0.1,0-0.1
			c0,0,0.1,0,0.1,0C21.2,3.7,21.3,4,21.4,4.3C21.4,4.3,21.4,4.3,21.4,4.3z"/>
		<path class="st6" d="M11.8,22.7c0-0.3-0.1-0.6-0.1-0.9c0,0,0-0.1,0-0.1c0.1-0.1,0.1-0.1,0.2,0c0,0,0,0.1,0,0.1
			C12,22.1,12,22.4,11.8,22.7C11.9,22.7,11.9,22.7,11.8,22.7z"/>
		<path class="st0" d="M14.8,19.6c0-0.2,0-0.4,0-0.6c0-0.1,0-0.2,0-0.4c0-0.1,0-0.1,0.1-0.2c0,0,0-0.1,0.1-0.1
			c0.1,0,0.1,0.1,0.1,0.1c0,0.3-0.1,0.5-0.1,0.8C15,19.4,14.9,19.5,14.8,19.6C14.8,19.7,14.8,19.7,14.8,19.6z"/>
		<path class="st6" d="M23,8.4c-0.1-0.1-0.1-0.2-0.2-0.3c-0.1-0.2-0.2-0.5-0.3-0.7c0,0,0-0.1,0-0.1c0,0,0-0.1,0.1-0.1
			c0,0,0.1,0,0.1,0c0,0,0,0.1,0.1,0.1C22.9,7.6,23,7.9,23,8.4C23,8.3,23,8.3,23,8.4z"/>
		<path class="st6" d="M22.5,14c-0.1-0.1-0.1-0.2-0.1-0.3c0-0.2-0.1-0.3-0.1-0.5c0-0.2,0-0.3,0-0.5c0,0,0,0,0,0c0,0,0,0,0,0
			c0,0.1,0.1,0.2,0.1,0.3C22.5,13.3,22.5,13.7,22.5,14z"/>
		<path class="st6" d="M17.5,23.3C17.5,23.3,17.5,23.3,17.5,23.3c0-0.4,0-0.6,0-0.9c0-0.1,0-0.2,0-0.2c0,0,0-0.1,0.1-0.1
			c0.1,0,0.1,0,0.1,0.1c0,0,0,0.1,0,0.1C17.7,22.6,17.7,22.9,17.5,23.3C17.6,23.2,17.6,23.3,17.5,23.3z"/>
		<path class="st7" d="M18.2,7.2c0.1-0.4,0.1-0.7,0.2-1.1c0,0,0,0,0-0.1c0,0,0-0.1,0.1-0.1c0,0,0,0.1,0,0.1c0,0.1,0,0.2-0.1,0.3
			C18.5,6.7,18.4,6.9,18.2,7.2C18.3,7.1,18.2,7.2,18.2,7.2z"/>
		<path class="st8" d="M24.8,14.3c0-0.1-0.1-0.2-0.1-0.3c-0.1-0.3-0.2-0.6-0.3-0.9c0-0.1-0.1-0.1,0-0.2c0.1,0,0.1,0.1,0.1,0.1
			C24.7,13.5,24.8,13.9,24.8,14.3C24.8,14.3,24.8,14.3,24.8,14.3z"/>
		<path class="st8" d="M18.2,4.6c0.1-0.3,0.3-0.7,0.4-1c0-0.1,0.1-0.2,0.2-0.1c0.1,0,0,0.1,0,0.2c-0.1,0.3-0.2,0.6-0.4,0.8
			C18.4,4.6,18.3,4.6,18.2,4.6z"/>
		<path class="st7" d="M25.8,20c-0.1-0.1-0.1-0.2-0.1-0.4c0-0.2-0.1-0.4-0.1-0.5c0-0.1,0-0.1,0-0.2c0-0.1,0-0.1,0.1-0.1
			c0.1,0,0.1,0.1,0.1,0.1c0,0.1,0,0.3,0,0.4C25.8,19.6,25.8,19.8,25.8,20z"/>
		<path class="st6" d="M19.5,3.3c-0.1,0-0.1,0-0.2,0c-0.1,0-0.2-0.1-0.1-0.2C19.2,3,19.2,3,19.3,3c0.2,0,0.3,0.1,0.4,0.2
			c0.1,0,0.1,0.1,0,0.1C19.7,3.3,19.6,3.3,19.5,3.3z"/>
		<path class="st7" d="M23.6,10c-0.1-0.2-0.2-0.4-0.3-0.6c0-0.1-0.1-0.2-0.1-0.3c0-0.1,0-0.1,0.1-0.1c0.1,0,0.1,0,0.1,0.1
			C23.5,9.4,23.6,9.7,23.6,10C23.7,10,23.6,10,23.6,10z"/>
		<path class="st8" d="M15.2,17.2c0-0.4,0.1-0.7,0.2-1.1c0,0,0-0.1,0.1-0.1c0,0,0,0.1,0,0.1C15.4,16.5,15.3,16.8,15.2,17.2
			C15.2,17.2,15.2,17.2,15.2,17.2z"/>
		<path class="st7" d="M19.7,23.6c0,0.1,0,0.2,0,0.4c0,0,0,0.1,0,0.1c0,0,0,0,0,0c-0.1-0.1-0.1-0.3-0.1-0.4c0-0.1,0-0.2,0.1-0.2
			C19.7,23.4,19.7,23.4,19.7,23.6z"/>
		<path class="st9" d="M22.2,12c-0.2-0.4-0.4-1.4-0.3-1.5C21.9,10.5,22.2,11.8,22.2,12z"/>
		<path class="st7" d="M25.9,22.9c-0.1-0.2-0.1-0.3-0.1-0.5c0,0,0-0.1,0-0.1c0-0.1,0.1-0.1,0.1,0C26,22.5,26,22.7,25.9,22.9z"/>
		<path class="st8" d="M20.1,3.4c-0.1,0-0.2,0-0.2-0.1c0-0.1,0.1-0.1,0.1-0.2c0.1,0,0.2,0,0.3,0.1c0.1,0,0,0.1,0,0.1
			C20.3,3.3,20.2,3.4,20.1,3.4z"/>
		<path class="st8" d="M15.6,15c0-0.3,0.1-0.5,0.1-0.8c0,0,0-0.1,0.1-0.1c0.1,0,0.1,0.1,0,0.1C15.9,14.5,15.8,14.8,15.6,15z"/>
		<path class="st7" d="M19.6,2.5c0,0.1-0.1,0.2-0.1,0.2c-0.1,0-0.2-0.1-0.2-0.2c0-0.1,0.1-0.2,0.1-0.2C19.5,2.3,19.6,2.4,19.6,2.5z"
			/>
		<path class="st8" d="M16.1,13c0-0.2,0.1-0.5,0.1-0.7c0-0.1,0-0.1,0.1-0.1c0.1,0,0.1,0.1,0.1,0.1C16.3,12.6,16.2,12.8,16.1,13z"/>
		<path class="st8" d="M18.9,3.1c-0.1,0-0.2-0.1-0.3-0.2c-0.1-0.1-0.1-0.1,0-0.2c0.1,0,0.1,0,0.2,0C18.8,2.8,18.9,2.9,18.9,3.1
			C19,3,19,3,18.9,3.1C19,3.1,18.9,3.1,18.9,3.1z"/>
		<path class="st10" d="M16.5,11.1c0-0.2,0.1-0.4,0.1-0.5c0-0.1,0-0.2,0-0.3c0,0,0-0.1,0.1-0.1c0,0,0.1,0,0.1,0.1c0,0,0,0,0,0.1
			C16.7,10.6,16.6,10.9,16.5,11.1z"/>
		<path class="st9" d="M14.6,22.6c-0.1-0.1-0.1-0.2,0-0.3c0,0,0.1-0.1,0.1-0.1c0,0,0,0.1,0,0.1C14.7,22.4,14.7,22.5,14.6,22.6z"/>
		<path class="st11" d="M13.2,23.3c0-0.1,0-0.2,0-0.3c0,0,0-0.1,0-0.1c0,0,0,0,0,0.1C13.2,23.1,13.2,23.2,13.2,23.3z"/>
	</g>
</g>
</svg>
