<?xml version="1.0" encoding="utf-8"?>
<!-- Generator: Adobe Illustrator 22.1.0, SVG Export Plug-In . SVG Version: 6.00 Build 0)  -->
<svg version="1.1" id="Слой_1" xmlns="http://www.w3.org/2000/svg" xmlns:xlink="http://www.w3.org/1999/xlink" x="0px" y="0px"
	 viewBox="0 0 28.3 28.3" style="enable-background:new 0 0 28.3 28.3;" xml:space="preserve">
<style type="text/css">
	.st0{fill:#575757;}
	.st1{fill:#F8D20B;}
</style>
<g>
	<path class="st0" d="M15.7,4.9c0.7,0,1.5-0.2,2.2-0.4c0.6-0.2,1.2-0.4,1.8-0.7c0.3-0.1,0.5-0.3,0.7-0.5c0,0,0.1-0.1,0.1-0.1
		c0.1-0.1,0.1-0.2,0.2-0.2c0.1-0.1,0.3,0,0.3,0c0.1,0.1,0.1,0.2,0.1,0.3C21,3.5,21,3.6,21,3.6c-0.1,0.1-0.1,0.1,0,0.2
		c0,0.1,0.1,0.2,0.2,0.3c0.9,0.8,2,1.1,3.2,0.8c0.5-0.1,1-0.3,1.5-0.5c0,0,0.1,0,0.1,0c0.1,0,0.3,0,0.4,0.1c0.1,0.1,0,0.3-0.1,0.4
		c-0.2,0.1-0.4,0.2-0.6,0.3c-0.6,0.3-1.2,0.6-1.8,1c-0.6,0.4-1.1,0.9-1.4,1.6c-0.5,0.9-0.5,1.8-0.2,2.7c0.3,0.9,0.8,1.7,1.4,2.4
		c0.4,0.5,0.9,1,1.4,1.5c0.1,0.1,0.2,0.2,0.3,0.3c0.2,0.2,0.1,0.5-0.2,0.6c-0.2,0.1-0.5,0.1-0.7,0.1c-0.2,0-0.4,0.1-0.7,0.2
		c-0.5,0.2-0.7,0.5-0.7,1.1c0.1,0.5,0.2,1,0.4,1.4c0.6,1.4,1.4,2.6,2.2,3.8c0.2,0.3,0.4,0.6,0.6,0.9c0,0,0.1,0.1,0.1,0.1
		c0.1,0.1,0,0.3,0,0.4c-0.1,0.1-0.2,0.1-0.4,0c-0.2-0.1-0.4-0.2-0.5-0.3c-1.1-0.7-2.2-1.4-3.5-1.8c-0.4-0.2-0.9-0.3-1.3-0.3
		c-0.5,0-1,0.1-1.4,0.5c-0.1,0.2-0.2,0.3-0.3,0.5c0,0.1,0,0.1,0,0.2c0.4,0.4,0.8,0.8,1.2,1.3c0.2,0.3,0.3,0.5,0.4,0.8
		c0,0.1,0,0.3,0,0.4c-0.1,0.2-0.3,0.3-0.5,0.2c-0.1,0-0.2-0.1-0.3-0.1c-0.7-0.5-1.1-1.2-1.3-2c0-0.1,0-0.3,0-0.4c0,0,0-0.1,0-0.1
		c-0.7-0.6-1.5-1.1-2.5-1.3c-0.4-0.1-0.9-0.1-1.3,0.1c-0.4,0.1-0.6,0.4-0.8,0.8c0,0.1,0,0.1,0,0.2c0.2,0.3,0.3,0.7,0.3,1.1
		c0,0.2,0,0.4,0,0.6c-0.1,0.3-0.4,0.4-0.6,0.1c-0.2-0.3-0.3-0.6-0.4-0.9c0-0.3,0-0.6,0-0.8c0,0,0-0.1,0-0.1c-0.4-0.6-0.9-0.9-1.6-1
		c-0.6-0.1-1.1,0.1-1.6,0.4C9.3,21.5,9,22,8.7,22.5c-0.4,0.6-0.7,1.2-1.1,1.7c-0.3,0.5-0.8,1-1.4,1.3c-0.2,0.1-0.3,0.2-0.5,0.2
		c-0.3,0-0.5-0.1-0.6-0.3c-0.1-0.1,0-0.2,0-0.2c0.3-0.3,0.5-0.5,0.7-0.9c0.2-0.4,0.3-0.9,0.1-1.3c-0.1-0.3-0.3-0.5-0.5-0.7
		c-0.4-0.4-0.9-0.7-1.3-1c-0.3-0.3-0.7-0.5-1-0.8c-0.2-0.2-0.2-0.4,0-0.5c0.1-0.1,0.2-0.2,0.3-0.2c0.5-0.3,0.8-0.9,0.7-1.5
		c0-0.5-0.2-1-0.4-1.5C3.4,16,3,15.5,2.6,15c-0.2-0.3-0.4-0.5-0.6-0.8c-0.2-0.4-0.1-0.7,0.2-0.9c0.1,0,0.2-0.1,0.2-0.1
		c0.3-0.2,0.7-0.2,1-0.4c0.3-0.1,0.6-0.3,0.7-0.6c0.2-0.4,0.2-0.7,0.1-1.1C4.2,10.6,4,10.2,3.8,9.9C3.5,9.5,3.3,9.1,3,8.6
		C3,8.6,3,8.5,2.9,8.4C2.8,8,2.9,7.7,3.3,7.5c0.2-0.1,0.4-0.2,0.6-0.3C4.5,7,5,6.4,5.2,5.7c0.1-0.3,0.2-0.6,0.2-0.9
		c0-0.1,0-0.2-0.1-0.2C5.2,4.4,5,4.1,5,3.8c0-0.1,0-0.2,0-0.3c0.1-0.1,0.1-0.2,0.3-0.2c0.1,0,0.2,0.1,0.3,0.2
		c0.1,0.1,0.1,0.3,0.2,0.4c0,0.1,0.1,0.3,0.1,0.4c0,0.1,0,0.1,0.1,0.1c0.9,0.8,2,1.2,3.2,1c0.7-0.1,1.2-0.5,1.7-0.9
		c0.4-0.3,0.7-0.7,0.9-1.2c0-0.1,0.1-0.2,0-0.2c0-0.2,0-0.4,0.1-0.6c0.1-0.2,0.2-0.2,0.4-0.2c0.2,0,0.3,0.2,0.3,0.3
		c0,0.2,0,0.3-0.1,0.5c0,0.1,0,0.1,0,0.2c0.2,0.3,0.5,0.6,0.8,0.8c0.6,0.4,1.2,0.7,1.9,0.8C15.4,4.9,15.5,4.9,15.7,4.9z M18.8,12.7
		c-0.3,0-0.6,0-0.9,0.1c-0.5,0.1-1,0.2-1.5,0.3c-0.5,0.1-0.9,0.2-1.4,0.4c-0.4,0.1-0.8,0.2-1.1,0.4c-0.6,0.2-1.1,0.4-1.7,0.6
		c-0.7,0.3-1.4,0.6-2.1,1c-0.5,0.3-1.1,0.6-1.6,0.9c-0.6,0.3-1.1,0.7-1.7,1.1c-0.4,0.3-0.7,0.6-1,1c-0.1,0.1-0.1,0.2-0.1,0.4
		c0,0.1,0.1,0.2,0.3,0.2c0.1,0,0.2-0.1,0.3-0.2c0-0.1,0-0.1,0.1-0.1c0.1-0.1,0.2-0.2,0.3-0.3c0.6-0.5,1.3-1,2-1.4
		c0.5-0.3,1.1-0.6,1.6-0.9c0.6-0.3,1.2-0.6,1.8-0.9c0.6-0.3,1.2-0.5,1.8-0.7c0.4-0.1,0.8-0.3,1.2-0.4c0.4-0.1,0.7-0.2,1.1-0.3
		c0.3-0.1,0.7-0.2,1-0.2c0.5-0.1,1-0.2,1.6-0.2c0.3,0,0.6,0,0.9,0.1c0,0,0.1,0,0.1,0.1c0,0,0,0.1-0.1,0.1c-0.1,0.1-0.3,0.2-0.4,0.3
		c-0.6,0.4-1.3,0.7-2,1.1c-0.7,0.4-1.3,0.7-1.9,1.1c-0.2,0.1-0.4,0.3-0.6,0.4c0,0-0.1,0.1,0,0.1c0,0.1,0.1,0,0.1,0c0,0,0,0,0,0
		c0.3-0.1,0.7-0.3,1-0.4c0.7-0.3,1.3-0.6,1.9-1c0.6-0.3,1.3-0.7,1.9-1c0.2-0.1,0.3-0.2,0.4-0.4c0.1-0.2,0.1-0.4,0-0.6
		c-0.1-0.1-0.2-0.2-0.4-0.3C19.4,12.7,19.1,12.7,18.8,12.7z M16.3,8.9c-0.1,0-0.1,0-0.2,0c-0.1,0-0.1,0,0-0.1
		c0.2-0.4,0.5-0.9,0.7-1.3c0.2-0.3,0.3-0.6,0.5-0.9c0.1-0.1,0-0.1-0.1-0.1c-0.1,0-0.2,0-0.3,0.1c-0.4,0.3-0.6,0.7-0.9,1.1
		c-0.2,0.3-0.3,0.5-0.5,0.8c0,0.1-0.1,0.1-0.1,0c-0.2-0.2-0.3-0.5-0.3-0.8c0-0.2-0.1-0.4-0.2-0.6C15,7,14.9,6.9,14.8,7
		c-0.1,0-0.2,0.1-0.2,0.2c-0.1,0.2-0.1,0.4,0,0.7c0.1,0.5,0.3,0.9,0.6,1.3c0,0,0,0.1,0,0.1c-0.1,0.1-0.2,0.3-0.3,0.4
		c-0.3,0.5-0.5,1.1-0.8,1.6c0,0,0,0.1,0,0.1c0,0,0.1,0,0.1,0c0.2-0.2,0.5-0.4,0.7-0.6c0.3-0.3,0.5-0.7,0.8-1.1
		c0.1-0.1,0.1-0.1,0.3-0.1c0.2,0,0.3,0.1,0.5,0.1c0.4,0,0.7-0.2,0.9-0.5c0.1-0.1,0.1-0.1,0.2-0.2c0,0,0,0,0-0.1c0,0,0,0-0.1,0
		c-0.1,0-0.1,0-0.2,0C17,8.9,16.6,8.9,16.3,8.9z M11,10c0.2,0,0.4,0,0.6-0.1c0.3-0.1,0.6-0.4,0.7-0.7c0,0,0-0.1,0-0.1
		c0,0-0.1,0-0.1,0c-0.2,0.1-0.4,0.2-0.6,0.2c-0.2,0.1-0.4,0.2-0.6,0.1c-0.1,0-0.1,0-0.1-0.1c0.2-0.3,0.3-0.7,0.4-1
		c0.1-0.4,0.2-0.7,0.3-1.1c0-0.1,0-0.1-0.1-0.1c-0.1,0-0.1,0.1-0.2,0.1c-0.1,0.1-0.2,0.2-0.2,0.4c-0.2,0.5-0.4,1-0.7,1.5
		c0,0.1-0.1,0.1-0.1,0C10.1,8.9,10,8.7,9.9,8.4C9.8,8.3,9.7,8.1,9.6,7.9c0-0.1-0.1-0.1-0.2-0.1C9.4,7.8,9.3,7.9,9.3,8
		c0,0,0,0.1,0,0.1c0,0.2,0.1,0.4,0.1,0.6C9.6,9,9.7,9.4,10,9.6c0.1,0.1,0.1,0.1,0,0.3c-0.3,0.4-0.6,0.8-0.8,1.2
		c-0.1,0.2-0.3,0.5-0.5,0.7c0,0-0.1,0,0,0.1c0,0,0.1,0,0.1,0c0.1-0.1,0.2-0.1,0.3-0.2c0.5-0.5,0.9-1,1.3-1.6c0-0.1,0.1-0.1,0.2-0.1
		C10.7,10,10.9,10,11,10z M19,22.8C19,22.8,19,22.8,19,22.8c0.2,0.5,0.5,0.9,0.8,1.2c0,0,0,0,0,0c0,0,0,0,0,0c0,0,0,0,0,0
		c0,0,0,0,0,0C19.7,23.6,19.4,23.2,19,22.8z"/>
	<path class="st0" d="M4.7,22.2c0,0.2-0.1,0.5-0.2,0.7c-0.6,1.3-1.3,2.5-2.1,3.7c0,0,0,0,0,0c0,0-0.1,0.1-0.1,0.1
		c-0.1,0,0-0.1,0-0.1c0.1-0.3,0.2-0.6,0.3-0.8c0.2-0.7,0.6-1.3,0.9-2C3.6,23.4,3.8,23,4,22.5c0-0.1,0.1-0.2,0.1-0.2
		c0-0.1,0-0.2-0.1-0.1c-0.1,0-0.3,0.1-0.4,0.1c-0.2,0.1-0.5,0.2-0.7,0.4c-0.1,0.1-0.2,0.2-0.2,0.3c0,0,0,0.1-0.1,0.1
		c0,0,0,0-0.1-0.1c0-0.1,0-0.2,0-0.3c0-0.1,0.1-0.2,0.2-0.3c0.3-0.3,0.7-0.6,1.1-0.8c0.3-0.1,0.5,0,0.7,0.2
		C4.6,21.9,4.7,22.1,4.7,22.2z"/>
	<path class="st0" d="M23.6,3.4c-0.6,0-1.1-0.3-1.4-0.8c-0.1-0.2-0.2-0.4-0.1-0.7c0-0.1,0-0.2,0.1-0.2c0.1,0,0.1-0.1,0.2,0
		c0,0,0.1,0,0.1,0.1c0,0.1,0,0.1,0,0.2c0.1,0.2,0.2,0.4,0.4,0.6c0.3,0.3,0.6,0.4,1,0.3c0.4-0.1,0.7-0.2,1.1-0.3
		c0.3-0.1,0.7-0.2,1-0.3c0,0,0.1,0,0.1,0c0,0,0,0.1,0,0.1c-0.3,0.3-0.6,0.6-1,0.8C24.6,3.2,24.1,3.3,23.6,3.4z"/>
	<path class="st1" d="M18.8,12.7c0.4,0,0.7,0,0.9,0.1c0.2,0.1,0.3,0.1,0.4,0.3c0.1,0.2,0.1,0.4,0,0.6c-0.1,0.2-0.3,0.3-0.4,0.4
		c-0.6,0.4-1.2,0.7-1.9,1c-0.6,0.3-1.3,0.7-1.9,1c-0.3,0.2-0.7,0.3-1,0.4c0,0,0,0,0,0c-0.1,0-0.1,0-0.1,0c0-0.1,0-0.1,0-0.1
		c0.2-0.1,0.4-0.3,0.6-0.4c0.6-0.4,1.3-0.7,1.9-1.1c0.7-0.4,1.3-0.7,2-1.1c0.1-0.1,0.3-0.2,0.4-0.3c0,0,0.1,0,0.1-0.1
		c0,0-0.1,0-0.1-0.1c-0.3-0.1-0.6-0.1-0.9-0.1c-0.5,0-1.1,0.1-1.6,0.2c-0.3,0.1-0.7,0.1-1,0.2c-0.4,0.1-0.7,0.2-1.1,0.3
		c-0.4,0.1-0.8,0.3-1.2,0.4c-0.6,0.2-1.2,0.4-1.8,0.7c-0.6,0.3-1.2,0.6-1.8,0.9c-0.5,0.3-1.1,0.6-1.6,0.9c-0.7,0.4-1.4,0.9-2,1.4
		c-0.1,0.1-0.2,0.2-0.3,0.3c0,0-0.1,0.1-0.1,0.1C6.1,18.9,6,19,5.9,19c-0.1,0-0.2-0.1-0.3-0.2c0-0.1,0-0.3,0.1-0.4
		c0.3-0.4,0.6-0.7,1-1c0.5-0.4,1.1-0.8,1.7-1.1c0.5-0.3,1.1-0.6,1.6-0.9c0.7-0.4,1.4-0.7,2.1-1c0.6-0.2,1.1-0.4,1.7-0.6
		c0.4-0.1,0.8-0.3,1.1-0.4c0.5-0.1,0.9-0.3,1.4-0.4c0.5-0.1,1-0.2,1.5-0.3C18.2,12.7,18.5,12.7,18.8,12.7z"/>
	<path class="st1" d="M16.3,8.9c0.3,0,0.6-0.1,0.9-0.1c0.1,0,0.1,0,0.2,0c0,0,0,0,0.1,0c0,0,0,0,0,0.1c0,0.1-0.1,0.1-0.2,0.2
		c-0.3,0.3-0.6,0.5-0.9,0.5c-0.2,0-0.3,0-0.5-0.1c-0.2,0-0.2,0-0.3,0.1c-0.2,0.4-0.5,0.8-0.8,1.1c-0.2,0.2-0.4,0.5-0.7,0.6
		c0,0-0.1,0-0.1,0c0,0,0-0.1,0-0.1c0.3-0.5,0.5-1.1,0.8-1.6c0.1-0.1,0.2-0.3,0.3-0.4c0,0,0-0.1,0-0.1c-0.4-0.4-0.5-0.8-0.6-1.3
		c0-0.2,0-0.4,0-0.7C14.7,7,14.7,7,14.8,7C14.9,6.9,15,7,15,7.1c0.1,0.2,0.1,0.4,0.2,0.6c0.1,0.3,0.1,0.6,0.3,0.8
		c0.1,0.1,0.1,0.1,0.1,0c0.2-0.3,0.3-0.6,0.5-0.8c0.3-0.4,0.5-0.8,0.9-1.1c0.1-0.1,0.2-0.1,0.3-0.1c0.1,0,0.1,0.1,0.1,0.1
		c-0.2,0.3-0.3,0.6-0.5,0.9c-0.2,0.4-0.5,0.9-0.7,1.3c0,0.1,0,0.1,0,0.1C16.2,8.9,16.3,8.9,16.3,8.9z"/>
	<path class="st1" d="M11,10c-0.1,0-0.2,0-0.4,0c-0.1,0-0.1,0-0.2,0.1c-0.4,0.6-0.8,1.1-1.3,1.6c-0.1,0.1-0.2,0.2-0.3,0.2
		c0,0-0.1,0-0.1,0c0,0,0-0.1,0-0.1c0.2-0.2,0.3-0.5,0.5-0.7c0.3-0.4,0.6-0.8,0.8-1.2c0.1-0.1,0.1-0.1,0-0.3C9.7,9.4,9.6,9,9.4,8.7
		C9.4,8.5,9.3,8.3,9.3,8.1c0,0,0-0.1,0-0.1c0-0.1,0.1-0.1,0.1-0.2c0.1,0,0.1,0,0.2,0.1c0.1,0.2,0.2,0.3,0.3,0.5
		c0.1,0.2,0.2,0.5,0.4,0.7c0.1,0.1,0.1,0.1,0.1,0c0.3-0.5,0.5-1,0.7-1.5c0.1-0.1,0.1-0.3,0.2-0.4c0-0.1,0.1-0.1,0.2-0.1
		c0.1,0,0.1,0,0.1,0.1c-0.2,0.3-0.2,0.7-0.3,1.1c-0.1,0.4-0.3,0.7-0.4,1c-0.1,0.1,0,0.1,0.1,0.1c0.2,0,0.4-0.1,0.6-0.1
		c0.2-0.1,0.4-0.1,0.6-0.2c0,0,0.1,0,0.1,0c0,0,0,0.1,0,0.1c-0.1,0.4-0.3,0.6-0.7,0.7C11.4,10,11.2,10,11,10z"/>
</g>
</svg>
