<?xml version="1.0" encoding="utf-8"?>
<!-- Generator: Adobe Illustrator 22.1.0, SVG Export Plug-In . SVG Version: 6.00 Build 0)  -->
<svg version="1.1" id="Слой_1" xmlns="http://www.w3.org/2000/svg" xmlns:xlink="http://www.w3.org/1999/xlink" x="0px" y="0px"
	 viewBox="0 0 28.3 28.3" style="enable-background:new 0 0 28.3 28.3;" xml:space="preserve">
<style type="text/css">
	.st0{fill:#575757;}
	.st1{fill:#FCD504;}
	.st2{fill:#FEFEFD;}
</style>
<g>
	<path class="st0" d="M22.8,18.1c-0.7,1.2-1.6,2.4-2.6,3.4c-1.3,1.3-2.8,2.3-4.4,2.9c-1.3,0.5-2.6,0.7-3.9,0.7
		C9.2,25,7.1,24,5.5,21.9c-0.1-0.1-0.2-0.3-0.3-0.4c0-0.1,0-0.2,0-0.2c0-0.4,0.1-0.9,0.1-1.3c0-0.5,0.1-1,0.1-1.5
		c0-0.5,0.1-0.9,0.1-1.4c0-0.5,0-1,0-1.4c0-0.8,0-1.5-0.1-2.3c0-0.1,0-0.2,0-0.3c0-0.2,0-0.3,0.1-0.5c0.4-0.4,0.7-0.9,0.8-1.4
		c0.2-0.5,0.3-1.1,0.3-1.7c0-0.7,0-1.4-0.2-2.2c0-0.2-0.1-0.3-0.1-0.5C6.6,6.5,7,6.1,7.4,5.6C7.9,5,8.5,4.5,9.2,4
		c0.7-0.6,1.5-1.1,2.3-1.6c0.6-0.3,1.2-0.5,1.8-0.7c1.1-0.3,2.2-0.5,3.4-0.4c2.1,0.1,3.9,0.9,5.4,2.4c0.6,0.6,1.1,1.3,1.5,2.1
		C23.3,5.9,23.2,6,23,6.2c-0.5,0.6-0.8,1.3-1,2c-0.1,0.2-0.1,0.5-0.2,0.7c0,0,0-0.1-0.1-0.1c-0.3-0.8-0.8-1.6-1.4-2.2
		c-0.8-0.8-1.7-1.3-2.7-1.6c-0.7-0.2-1.4-0.2-2.2-0.2C14.8,4.8,14,5,13.4,5.3c-0.3,0.1-0.5,0.2-0.8,0.3c-0.5,0.3-1,0.7-1.4,1
		c-0.3,0.2-0.5,0.4-0.8,0.6c-1.2,1.2-2.1,2.6-2.7,4.2c-0.6,1.7-0.9,3.4-0.6,5.2c0.2,1.3,0.6,2.5,1.4,3.5c0.7,1,1.7,1.6,2.9,2
		c1.3,0.4,2.6,0.3,3.8-0.1c1.2-0.4,2.3-1,3.3-1.9c1.7-1.5,2.8-3.4,3.4-5.5c0.1-0.4,0.2-0.9,0.3-1.3c0,0,0,0,0,0.1
		c0.2,0.4,0.4,0.8,0.7,1.1c0,0,0.1,0.1,0.1,0.2c-0.1,0.5-0.1,1-0.1,1.5c0,0.6,0,1.1,0,1.7C22.8,18,22.8,18.1,22.8,18.1z"/>
	<path class="st1" d="M21.8,8.9c0.1-0.2,0.1-0.5,0.2-0.7c0.2-0.7,0.5-1.4,1-2c0.1-0.2,0.3-0.3,0.5-0.4c0.1,0,0.2-0.1,0.3-0.2
		c0.4-0.1,0.8-0.2,1.1,0c0.3,0.1,0.6,0.3,0.8,0.6c0.3,0.3,0.6,0.7,0.8,1.2c0.1,0.3,0.2,0.6,0.3,1c0,0.2,0.1,0.4,0.1,0.5
		c0,0.3,0.1,0.5,0.1,0.8c0,0.3,0,0.6,0,0.9c0,0.3-0.1,0.5-0.1,0.8c-0.1,0.3-0.1,0.6-0.2,1c0,0.2-0.1,0.5-0.2,0.7
		c-0.1,0.2-0.1,0.4-0.2,0.5c-0.1,0.2-0.2,0.4-0.3,0.5c-0.1,0.1-0.2,0.3-0.3,0.4c-0.3,0.3-0.6,0.6-1,0.8c-0.2,0.1-0.5,0.1-0.8,0.1
		c-0.1,0-0.2-0.1-0.3-0.1c-0.1,0-0.1,0-0.1,0.1c0,0.3,0,0.6,0,0.9c0,0.3,0,0.5,0,0.8c0,0.2,0,0.4,0,0.7c0,0.5,0,1.1,0.1,1.6
		c0,0.3,0.1,0.5,0.1,0.8c0.1,0.4,0.1,0.7,0.2,1.1c0,0.2,0.1,0.4,0.1,0.6c0.1,0.3,0.1,0.5,0.2,0.8c0.1,0.3,0.2,0.7,0.3,1
		c0.1,0.3,0.2,0.6,0.2,0.9c0,0.2,0.1,0.4,0.1,0.6c0,0.2,0.1,0.5,0.1,0.7c0,0.4,0.1,0.7,0,1.1c0,0.2-0.1,0.5-0.3,0.6
		c-0.2,0.1-0.4,0.1-0.6,0c-0.3-0.1-0.4-0.4-0.6-0.7c-0.1-0.3-0.2-0.6-0.3-0.9c0-0.2-0.1-0.4-0.1-0.6c-0.1-0.7-0.1-1.5-0.2-2.2
		c0-0.5-0.1-1.1-0.1-1.6c0-0.6,0-1.2-0.1-1.7c0-0.3,0-0.7,0-1c0-0.2,0-0.4,0-0.5c0,0,0-0.1,0-0.2c0-0.6,0-1.1,0-1.7
		c0-0.5,0.1-1,0.1-1.5c0-0.1,0-0.1-0.1-0.2c-0.3-0.3-0.5-0.7-0.7-1.1c0,0,0-0.1,0-0.1c0,0,0-0.1,0-0.1c-0.2-0.4-0.2-0.7-0.3-1.1
		c-0.1-0.3-0.1-0.6-0.1-1c0-0.4,0-0.9,0-1.3c0-0.3,0-0.5,0.1-0.8C21.8,9.1,21.8,9,21.8,8.9z M26.3,11.2c0-0.2,0-0.3,0-0.5
		c0-0.3-0.1-0.7-0.2-1c-0.1-0.3-0.2-0.6-0.3-0.8c-0.1-0.3-0.2-0.7-0.4-1c-0.1-0.2-0.2-0.4-0.4-0.5c-0.1-0.1-0.2-0.1-0.3-0.1
		c-0.1,0.1-0.1,0.2,0,0.4c0.1,0.2,0.3,0.4,0.4,0.7c0.1,0.3,0.2,0.6,0.3,0.9c0.1,0.2,0.1,0.4,0.2,0.6c0.1,0.3,0.1,0.5,0.1,0.8
		c0,0.3,0,0.7,0,1c0,0.2,0,0.4-0.1,0.7c-0.1,0.3-0.1,0.6-0.2,0.9c-0.1,0.2-0.1,0.3-0.2,0.5c0,0,0,0.1,0,0.1c0,0,0.1,0,0.1,0
		c0,0,0.1,0,0.1-0.1c0.1-0.1,0.2-0.3,0.3-0.4c0.2-0.4,0.4-0.8,0.5-1.3C26.3,11.8,26.4,11.5,26.3,11.2z"/>
	<path class="st1" d="M6.3,6.9c0,0.2,0.1,0.3,0.1,0.5c0.2,0.7,0.2,1.4,0.2,2.2c0,0.6-0.1,1.1-0.3,1.7c-0.2,0.5-0.4,1-0.8,1.4
		c-0.2,0.1-0.2,0.3-0.1,0.5c0,0.1,0,0.2,0,0.3c0.1,0.8,0.1,1.5,0.1,2.3c0,0.5,0,1,0,1.4c0,0.5-0.1,0.9-0.1,1.4c0,0.5-0.1,1-0.1,1.5
		c0,0.4-0.1,0.9-0.1,1.3c0,0.1,0,0.2,0,0.2c0,0.2,0,0.5-0.1,0.7c0,0.4-0.1,0.8-0.1,1.2c0,0.3,0,0.6-0.1,0.8c0,0.2-0.1,0.4-0.1,0.6
		c-0.1,0.3-0.2,0.7-0.3,1c-0.1,0.3-0.2,0.6-0.4,0.8c-0.3,0.3-0.6,0.4-1,0.2c-0.2-0.1-0.3-0.3-0.3-0.4c-0.1-0.4-0.2-0.8-0.1-1.2
		c0-0.3,0-0.6,0.1-0.9c0-0.1,0-0.3,0-0.4c0-0.2,0.1-0.4,0.1-0.5c0-0.2,0.1-0.4,0.2-0.7c0.1-0.3,0.2-0.5,0.2-0.8
		c0.1-0.3,0.2-0.7,0.3-1c0.1-0.3,0.1-0.6,0.2-0.8C3.9,20,4,19.7,4,19.4c0,0,0-0.1,0-0.1c0,0,0,0,0,0c0.1-0.3,0.1-0.6,0.2-0.9
		c0-0.3,0.1-0.6,0.1-0.9c0.1-0.6,0.1-1.3,0.2-1.9c0-0.4,0-0.8,0-1.2c0-0.4,0-0.8,0-1.1c0,0,0-0.1-0.1-0.1c-0.3,0-0.6-0.1-0.9-0.2
		c-0.1-0.1-0.3-0.2-0.4-0.3c-0.3-0.2-0.5-0.5-0.7-0.7c-0.2-0.3-0.4-0.6-0.6-1c-0.2-0.3-0.3-0.7-0.4-1.1c-0.1-0.5-0.2-1-0.3-1.5
		c0-0.4,0-0.8,0-1.3c0-0.2,0-0.5,0-0.7c0-0.1,0.1-0.1,0.2-0.2c0.1,0,0.2-0.1,0.3-0.1c0.1,0,0.1,0,0.2,0.1C2,6.4,2,6.6,2.1,6.9
		c0,0.3,0.1,0.5,0.2,0.8C2.3,8,2.3,8.2,2.4,8.5C2.5,8.8,2.6,9,2.7,9.3c0.1,0.3,0.3,0.6,0.4,1c0.1,0.2,0.2,0.4,0.4,0.5
		c0.1,0.2,0.3,0.4,0.5,0.5c0,0,0,0,0,0c0,0,0,0,0.1,0c0,0,0.1,0.1,0.1,0c0,0,0-0.1-0.1-0.1c0-0.1,0-0.1,0-0.2
		C4,10.6,3.9,10.2,3.8,9.8c0-0.4-0.1-0.7-0.2-1.1C3.6,8.3,3.5,8,3.5,7.6c0-0.3-0.1-0.6-0.2-1c0-0.2-0.1-0.4-0.2-0.6
		c0-0.1,0-0.2-0.1-0.3c0-0.1,0-0.2,0.1-0.2c0.1,0,0.2-0.1,0.3-0.1c0.1,0,0.1,0,0.1,0.1c0,0.2,0.1,0.3,0.1,0.5c0.1,0.3,0.1,0.7,0.2,1
		C4,7.3,4,7.6,4.1,7.9c0.1,0.3,0.1,0.6,0.2,0.9c0,0.2,0.1,0.4,0.1,0.7c0,0.2,0.1,0.4,0.1,0.6c0,0,0,0,0,0.1c0,0.1,0,0.2,0,0.2
		c0.1,0.3,0.1,0.6,0.1,0.8c0,0.1,0,0.2,0.1,0.3c0.1,0,0.2-0.1,0.3-0.1c0,0,0,0,0.1-0.1c0,0,0-0.1,0-0.1c0-0.1,0-0.2-0.1-0.2
		c-0.1-0.4-0.2-0.9-0.3-1.3c0-0.2-0.1-0.4-0.1-0.7c0-0.1,0-0.3,0-0.4c0-0.3-0.1-0.5-0.1-0.8c0-0.2-0.1-0.4-0.1-0.7
		c0-0.3-0.1-0.5-0.1-0.8c0-0.2-0.1-0.4-0.1-0.5c0-0.2-0.1-0.4-0.1-0.6c0-0.1,0-0.1,0.1-0.1c0.1,0,0.2,0,0.2-0.1c0.1,0,0.1,0,0.1,0.1
		c0.1,0.2,0.1,0.4,0.1,0.6c0.1,0.3,0.1,0.5,0.2,0.8c0,0.2,0.1,0.4,0.1,0.6C5,7.4,5.1,7.8,5.1,8.2c0,0.2,0.1,0.4,0.1,0.5
		c0,0,0,0.1,0,0.1c0,0.4,0.1,0.7,0.1,1.1c0,0.2,0,0.4,0.1,0.6c0.1-0.3,0.2-0.5,0.2-0.8c0-0.5,0-1.1,0-1.6c0-0.3-0.1-0.5-0.1-0.8
		C5.3,7.1,5.3,6.8,5.2,6.5c0-0.2-0.1-0.4-0.1-0.6C5.1,5.6,5,5.3,4.9,5C4.9,5,5,5,5,4.9c0.1,0,0.1-0.1,0.2-0.1c0,0,0.1,0,0.1,0.1
		c0.2,0.3,0.4,0.7,0.6,1C6,6.2,6.1,6.4,6.2,6.7C6.2,6.8,6.2,6.9,6.3,6.9z"/>
	<path class="st0" d="M3.7,13c0.3,0.1,0.6,0.2,0.9,0.2c0.1,0,0.1,0.1,0.1,0.1c0,0.4,0,0.8,0,1.1c0,0.4,0,0.8,0,1.2
		c0,0.6-0.1,1.3-0.2,1.9c0,0.3-0.1,0.6-0.1,0.9c0,0.3-0.1,0.6-0.2,0.9c0,0,0,0,0,0c-0.2-0.7-0.4-1.3-0.5-2c-0.2-1-0.2-2.1-0.1-3.1
		C3.5,13.7,3.6,13.3,3.7,13z"/>
	<path class="st0" d="M4.8,9.6c0.1,0.4,0.1,0.9,0.3,1.3c0,0.1,0,0.2,0.1,0.2c0,0,0,0.1,0,0.1c0,0,0,0-0.1,0.1
		c-0.1,0.1-0.2,0.2-0.3,0.1c-0.1,0-0.1-0.2-0.1-0.3c0-0.3-0.1-0.6-0.1-0.8c0-0.1,0-0.1,0-0.2C4.6,10,4.6,9.8,4.8,9.6
		C4.7,9.6,4.7,9.6,4.8,9.6z"/>
	<path class="st0" d="M5.5,8.2c0.1,0.5,0.1,1.1,0,1.6c0,0.3,0,0.5-0.2,0.8c0-0.2-0.1-0.4-0.1-0.6c0-0.4-0.1-0.7-0.1-1.1
		c0,0,0-0.1,0-0.1C5.3,8.6,5.4,8.4,5.5,8.2C5.5,8.2,5.5,8.2,5.5,8.2z"/>
	<path class="st0" d="M23.7,16.2c0-0.3,0-0.6,0-0.9c0,0,0-0.1,0.1-0.1c0.1,0,0.2,0,0.3,0.1C23.9,15.6,23.8,15.9,23.7,16.2z"/>
	<path class="st0" d="M4.1,11.3c0,0,0,0.1,0.1,0.1C4.1,11.5,4.1,11.4,4.1,11.3C4.1,11.4,4.1,11.3,4.1,11.3z"/>
	<path class="st0" d="M4,11.3C3.9,11.3,3.9,11.3,4,11.3C3.9,11.3,3.9,11.3,4,11.3C3.9,11.3,4,11.3,4,11.3z"/>
	<path class="st2" d="M21.8,8.9c0,0.1,0,0.2-0.1,0.4c0,0.3-0.1,0.5-0.1,0.8c0,0.4,0,0.9,0,1.3c0,0.3,0.1,0.6,0.1,1
		c0.1,0.4,0.2,0.8,0.3,1.1c0,0,0,0,0,0.1c-0.1,0.4-0.2,0.9-0.3,1.3c-0.6,2.2-1.7,4-3.4,5.5c-1,0.9-2.1,1.5-3.3,1.9
		c-1.3,0.4-2.5,0.5-3.8,0.1c-1.2-0.4-2.1-1-2.9-2c-0.8-1-1.3-2.2-1.4-3.5c-0.3-1.8,0-3.5,0.6-5.2c0.6-1.6,1.5-3,2.7-4.2
		c0.2-0.2,0.5-0.4,0.8-0.6c0.5-0.3,0.9-0.7,1.4-1c0.2-0.1,0.5-0.2,0.8-0.3C14,5,14.8,4.8,15.5,4.8c0.7-0.1,1.4,0,2.2,0.2
		c1.1,0.3,2,0.8,2.7,1.6c0.6,0.6,1.1,1.4,1.4,2.2C21.8,8.8,21.8,8.8,21.8,8.9z M7.8,16.3c0,0.3,0,0.5,0,0.7c0.1,0.8,0.3,1.5,0.6,2.2
		c0.5,0.8,1.1,1.4,2,1.7c0.9,0.3,1.9,0.3,2.8,0c0.9-0.3,1.8-0.7,2.6-1.3c1-0.8,1.8-1.7,2.5-2.7c1.1-1.6,1.9-3.4,2-5.4
		c0.1-1.1,0-2.1-0.5-3.1c-0.6-1.4-1.6-2.3-3.2-2.4c-0.5,0-1,0-1.5,0.1c-0.1,0-0.2,0.1-0.2,0.1c0,0.1-0.1,0.1-0.1,0.1
		c0,0-0.1,0-0.1,0c-1.1,0.3-2.1,0.9-3,1.7c-1.5,1.3-2.6,2.9-3.3,4.8C8,14.1,7.8,15.2,7.8,16.3z"/>
	<path class="st2" d="M26.3,11.2c0,0.3,0,0.6-0.1,0.9c-0.1,0.4-0.3,0.9-0.5,1.3c-0.1,0.1-0.1,0.3-0.3,0.4c0,0-0.1,0.1-0.1,0.1
		c0,0-0.1,0-0.1,0c0,0,0-0.1,0-0.1c0.1-0.2,0.1-0.3,0.2-0.5c0.1-0.3,0.2-0.6,0.2-0.9c0-0.2,0.1-0.4,0.1-0.7c0-0.3,0-0.7,0-1
		c0-0.3-0.1-0.5-0.1-0.8c-0.1-0.2-0.1-0.4-0.2-0.6c-0.1-0.3-0.2-0.6-0.3-0.9c-0.1-0.3-0.3-0.5-0.4-0.7c-0.1-0.1,0-0.3,0-0.4
		c0.1-0.1,0.2,0,0.3,0.1c0.2,0.1,0.3,0.3,0.4,0.5c0.2,0.3,0.3,0.6,0.4,1c0.1,0.3,0.2,0.6,0.3,0.8c0.1,0.3,0.2,0.7,0.2,1
		C26.3,10.8,26.3,11,26.3,11.2z"/>
	<path class="st0" d="M7.8,16.3c0-1.1,0.2-2.2,0.6-3.3c0.7-1.9,1.8-3.5,3.3-4.8c0.9-0.8,1.9-1.3,3-1.7c0,0,0.1,0,0.1,0
		c0.1,0,0.1,0,0.1-0.1c0-0.1,0.1-0.1,0.2-0.1c0.5-0.1,1-0.2,1.5-0.1c1.6,0.1,2.6,1,3.2,2.4c0.4,1,0.6,2,0.5,3.1
		c-0.2,2-0.9,3.7-2,5.4c-0.7,1-1.5,1.9-2.5,2.7c-0.8,0.6-1.6,1-2.6,1.3c-0.9,0.3-1.9,0.3-2.8,0c-0.9-0.3-1.5-0.9-2-1.7
		c-0.4-0.7-0.6-1.4-0.6-2.2C7.8,16.8,7.8,16.6,7.8,16.3z M19.9,11c0-0.1,0-0.2,0-0.2c0-0.8-0.2-1.6-0.6-2.3
		c-0.6-1.1-1.6-1.7-2.9-1.8c-0.4,0-0.8,0-1.1,0.1c-0.1,0-0.2,0-0.2,0c-0.1-0.1-0.1-0.1-0.2,0C14,6.9,13.1,7.4,12.4,8
		c-1.2,0.9-2.1,2-2.9,3.3c-0.8,1.4-1.4,2.9-1.5,4.5c-0.1,1,0,1.9,0.4,2.8c0.5,1.3,1.5,2.2,2.9,2.3c0.8,0.1,1.7-0.1,2.4-0.4
		c1-0.4,1.9-1.1,2.8-1.9c1.2-1.1,2-2.5,2.6-4C19.6,13.5,19.9,12.3,19.9,11z"/>
	<path class="st2" d="M19.9,11c0,1.3-0.3,2.5-0.7,3.6c-0.6,1.5-1.5,2.8-2.6,4c-0.8,0.8-1.7,1.4-2.8,1.9c-0.8,0.3-1.6,0.5-2.4,0.4
		c-1.5-0.2-2.4-1-2.9-2.3C8,17.7,8,16.7,8,15.8c0.1-1.6,0.7-3.1,1.5-4.5c0.7-1.3,1.7-2.4,2.9-3.3c0.8-0.6,1.6-1,2.5-1.3
		c0.1,0,0.1,0,0.2,0c0.1,0.1,0.2,0.1,0.2,0c0.4-0.1,0.7-0.1,1.1-0.1c1.3,0.1,2.3,0.7,2.9,1.8c0.4,0.7,0.5,1.5,0.6,2.3
		C19.9,10.9,19.9,10.9,19.9,11z"/>
</g>
</svg>
