<?xml version="1.0" encoding="utf-8"?>
<!-- Generator: Adobe Illustrator 22.1.0, SVG Export Plug-In . SVG Version: 6.00 Build 0)  -->
<svg version="1.1" id="Слой_1" xmlns="http://www.w3.org/2000/svg" xmlns:xlink="http://www.w3.org/1999/xlink" x="0px" y="0px"
	 viewBox="0 0 28.3 28.3" style="enable-background:new 0 0 28.3 28.3;" xml:space="preserve">
<style type="text/css">
	.st0{fill:#585858;}
	.st1{fill:#FBD506;}
	.st2{fill:#FEFEFD;}
</style>
<g>
	<path class="st0" d="M23.8,22.4c0,0.7-0.2,1.4-0.2,2.1c0,0.2,0,0.4,0,0.6c0,0.1,0,0.1-0.1,0.2c-0.2,0.2-0.4,0.4-0.6,0.6
		c-0.2,0.2-0.3,0.3-0.5,0.4c-0.3,0.2-0.7,0.4-0.9,0.7c-0.2,0.2-0.4,0.2-0.6,0.2c-0.5-0.1-1-0.2-1.5-0.2c-1.5-0.2-2.9-0.4-4.4-0.6
		c-0.8-0.1-1.7-0.2-2.5-0.3c-1.3-0.2-2.6-0.3-3.9-0.3c-0.8,0-1.5,0-2.3-0.1c-0.8,0-1.6-0.1-2.4-0.2c-0.4,0-0.8-0.1-1.2-0.1
		c-0.1,0-0.1,0-0.1-0.2c0-0.2,0-0.3,0-0.5c0-0.1,0-0.1,0.1-0.1c0.4-0.3,0.9-0.5,1.4-0.8c0.1-0.1,0.2-0.1,0.3-0.2
		c0.1,0,0.1-0.1,0.1-0.2c0-0.8-0.1-1.6-0.1-2.4c0-1.4,0-2.7,0-4.1c0-1.6,0-3.1,0-4.7c0-0.7,0-1.5,0-2.2c0-1.3-0.1-2.5-0.1-3.8
		C4.2,5.3,4.2,4.2,4.2,3.2c0-0.1,0-0.1,0.1-0.1C5,3,5.7,3,6.5,2.9c1.3-0.1,2.7-0.1,4-0.2c1.7,0,3.3,0,5,0.1c0.5,0,1,0,1.6,0.1
		c0,0,0,0.1,0,0.1c0,0.3,0,0.7,0,1c0,0,0,0-0.1,0C16,4,15.1,4,14.2,4c-0.1,0-0.1,0-0.1,0.1c0,0.6,0.1,1.2,0.1,1.8
		c0.1,0.9,0.1,1.9,0.2,2.8c0,0.1,0,0.1,0.1,0.1c0.8,0,1.6,0,2.4,0c0,0,0,0.1,0,0.1c0,0.4,0,0.7,0,1.1c-0.7,0-1.5,0-2.2,0
		c-0.2,0-0.2,0-0.2,0.2c0.1,1.5,0.2,3.1,0.2,4.6c0,1.7,0,3.4,0,5.1c0,0.9-0.1,1.7,0,2.6c0,0.1,0,0.1,0.1,0.1c0.6,0,1.2,0,1.7,0.1
		c0.9,0.1,1.9,0.1,2.8,0.2c0.4,0,0.9,0,1.3,0c0.5,0,1.1,0.1,1.6,0.1c0.1,0,0.1,0,0.1-0.1c0-0.1,0-0.3,0-0.4c0,0,0,0,0,0.1
		c0.1,0.1,0.1,0.3,0.2,0.4c0.1,0.2,0.3,0.2,0.5,0c0.1-0.2,0.2-0.4,0.3-0.6c0.1-0.1,0.1-0.2,0.2-0.3c0.1-0.1,0.1-0.1,0.2,0
		C23.7,22.2,23.8,22.3,23.8,22.4z M5.4,13.2c0,0.3,0,0.6,0,0.8c0,1.1,0,2.2,0.1,3.3c0.1,1.7,0.1,3.4,0.2,5c0,0.1,0,0.1,0.1,0.1
		c0.8,0,1.6,0,2.4,0c1.2,0,2.3,0,3.5,0c0.1,0,0.1,0,0.1-0.1c0-1.4,0.1-2.8,0.2-4.2c0.1-1.2,0.2-2.5,0.2-3.7c0.1-1.3,0.1-2.6,0-3.9
		c-0.1-1.7-0.1-3.4-0.2-5.2c0-0.5,0-1,0-1.5c0-0.1,0-0.1-0.1-0.1c-0.9,0-1.9,0-2.8,0c-1.3,0-2.5,0.1-3.8,0.1C5.2,3.9,5.2,4,5.2,4
		c0,0.3,0,0.5,0,0.8c0,1,0,2.1,0.1,3.1C5.3,9.7,5.4,11.5,5.4,13.2z M2.8,24.7C2.8,24.7,2.8,24.7,2.8,24.7c0,0,0.1,0,0.1,0
		c0.9,0.1,1.8,0.2,2.7,0.1c1.5,0,2.9,0,4.4,0c0.8,0,1.6,0.1,2.5,0.2c0.9,0.1,1.8,0.1,2.7,0.2c1,0.1,2,0.3,3.1,0.4
		c1.1,0.1,2.1,0.3,3.2,0.5c0.1,0,0.2,0,0.2-0.1c0.4-0.5,0.9-0.9,1.4-1.3c0,0,0.1,0,0.1-0.1c-0.4-0.1-0.8,0-1.3-0.1
		c-0.9-0.1-1.8-0.1-2.8-0.2c-1.7-0.1-3.5-0.2-5.2-0.2c-1.8-0.1-3.7-0.2-5.5-0.3c-0.7,0-1.4-0.1-2.1-0.1c-0.5,0-0.9-0.1-1.4-0.1
		c-0.1,0-0.2,0-0.3,0.1C4.4,23.9,4.3,24,4.1,24C3.7,24.3,3.2,24.5,2.8,24.7z M21.2,27.1c0-0.2,0-0.4,0-0.6c0-0.1,0-0.1-0.1-0.1
		c-0.3,0-0.5-0.1-0.8-0.1c-1.4-0.2-2.8-0.4-4.2-0.6c-0.7-0.1-1.4-0.2-2-0.2c-0.7-0.1-1.4-0.1-2.1-0.2c-0.7-0.1-1.4-0.1-2-0.2
		c-1.6-0.1-3.1-0.1-4.7-0.1c-0.7,0-1.5,0-2.2-0.1c-0.2,0-0.3-0.1-0.5-0.1c0,0-0.1,0-0.1,0c0,0.1,0,0.2,0,0.2c0,0.1,0.1,0,0.1,0
		c0.4,0,0.8,0.1,1.2,0.1c0.9,0.1,1.7,0.2,2.6,0.2c1.7,0,3.4,0.1,5,0.3c0.9,0.1,1.8,0.2,2.7,0.3c0.9,0.1,1.8,0.2,2.7,0.4
		c1,0.1,2.1,0.3,3.1,0.4C20.4,27,20.8,27,21.2,27.1z M21.4,27.1C21.4,27.1,21.4,27,21.4,27.1c0.3-0.3,0.5-0.5,0.7-0.6
		c0.2-0.1,0.3-0.2,0.5-0.3c0.3-0.2,0.5-0.5,0.7-0.8c0,0,0,0,0-0.1c0-0.1,0-0.3,0-0.4c0,0,0,0,0,0c-0.5,0.4-1.1,0.9-1.6,1.3
		c0,0-0.1,0.1-0.1,0.1C21.5,26.6,21.5,26.8,21.4,27.1z"/>
	<path class="st1" d="M23.8,22.4c0-0.1-0.1-0.3-0.1-0.4c0-0.1-0.1-0.1-0.2,0c-0.1,0.1-0.1,0.2-0.2,0.3c-0.1,0.2-0.2,0.4-0.3,0.6
		c-0.1,0.2-0.3,0.2-0.5,0c-0.1-0.1-0.1-0.3-0.2-0.4c0,0,0,0,0-0.1c0-0.2-0.1-0.3-0.2-0.5c-0.1-0.2-0.3-0.2-0.4,0
		c-0.1,0.1-0.2,0.3-0.3,0.4c-0.1,0.1-0.3,0.2-0.4,0.1c-0.2-0.1-0.2-0.3-0.3-0.4c-0.1-0.2-0.2-0.5-0.4-0.6c-0.1-0.1-0.2-0.1-0.3,0
		c-0.1,0.1-0.1,0.2-0.1,0.3c-0.1,0.2-0.2,0.4-0.3,0.5c-0.2,0.1-0.3,0.1-0.4,0c-0.2-0.1-0.3-0.3-0.4-0.5c-0.2-0.3-0.5-0.2-0.7,0
		C18,22,18,22.1,18,22.3c0,0.1-0.1,0.1-0.1,0.1c-0.1,0-0.1-0.1-0.1-0.1c0-0.1-0.1-0.2-0.1-0.3c-0.1-0.4-0.1-0.8-0.2-1.3
		c-0.1-0.5-0.1-0.9-0.2-1.4c0-0.4-0.1-0.7-0.1-1.1c0-0.6-0.1-1.1-0.2-1.7c0-0.5-0.1-0.9-0.1-1.4c0-0.7-0.1-1.4-0.1-2.1
		c0-0.6,0-1.1,0-1.7c0-0.5,0-0.9,0-1.4c0-0.4,0-0.7,0-1.1c0,0,0-0.1,0-0.1c0,0,0,0,0-0.1c0-0.7,0-1.4,0.1-2.1c0-0.3,0-0.5,0-0.8
		c0-0.6,0-1.2,0.1-1.8c0-0.3,0-0.7,0-1c0,0,0-0.1,0-0.1c0-0.1,0-0.1,0-0.2c0-0.4,0-0.8,0-1.2c0,0,0-0.1,0-0.1c0,0,0-0.1,0-0.1
		c0-0.1,0-0.1,0-0.2c0-0.1,0-0.1,0.1-0.1c0,0.3,0,0.6,0,0.9c0,0.1,0,0.2,0,0.3c0,0,0,0.1,0.1,0.1c0.1,0,0.1,0,0.1-0.1
		c0-0.2,0-0.4,0-0.7c0-0.1,0-0.3,0-0.4c0.1-0.1,0.1,0,0.1,0c0,0.1,0,0.3,0,0.4c0,0.1,0,0.1,0,0.2c0,0.1,0,0.3,0,0.4
		c0,0.1,0,0.1,0.1,0.1c0.1,0,0.1,0,0.1-0.2c0,0,0-0.1,0-0.1c0-0.3,0-0.5,0-0.8c0,0,0-0.1,0.1-0.1c0.1,0,0,0.1,0,0.1
		c0,0.1,0,0.1,0,0.2c-0.1,0,0,0.1,0,0.1c0,0.2,0,0.4,0,0.6c0,0,0,0.1,0.1,0.1c0,0,0.1,0,0.1,0c0.1,0,0.1,0,0.1-0.1
		c0-0.2,0-0.4,0-0.6c0-0.1,0-0.2,0-0.3c0,0,0,0,0-0.1c0-0.1,0-0.1,0.1-0.1c0.1,0,0.1,0.1,0.1,0.1c0,0.2-0.1,0.4,0,0.6
		c-0.1,0.1,0,0.2-0.1,0.3c0,0.1,0,0.1,0.1,0.1c0.4,0,0.9,0,1.3,0c0.3,0.1,0.5,0.1,0.7,0.3c0,0,0,0,0.1,0c0.2,0.1,0.4,0,0.5,0
		c0.1,0,0,0,0-0.1c0-0.3,0-0.6,0-0.8c0-0.1,0-0.1,0-0.2c0,0,0-0.1,0-0.1c0,0,0-0.1,0.1-0.1c0.1,0,0.1,0,0.2,0c0,0,0.1,0.1,0.1,0.1
		c0,0.1,0,0.1,0,0.2c0,0.1,0,0.1,0,0.2c0,0.3-0.1,0.6-0.1,0.8c0,0.1,0,0.1,0.1,0.1c0.1,0,0.2,0,0.3,0c0,0,0.1,0,0.1-0.1
		c0-0.3,0-0.5,0-0.8c0-0.1,0-0.1,0-0.2c0-0.1,0-0.1,0-0.2c0,0,0-0.1,0.1-0.1c0.1,0,0.1,0,0.1,0.1c0,0.1,0,0.1,0,0.2
		c0,0.1,0,0.1,0,0.2c0,0.3,0,0.5,0,0.8c0,0.1,0,0.1,0.1,0.1c0.1,0,0.2,0,0.3,0c0.1,0,0.1,0,0.1-0.1c0-0.2,0-0.4,0-0.6
		c0-0.2,0-0.4,0.1-0.6c0.1,0,0.1,0.1,0.1,0.2c0,0,0,0.1,0,0.1c0,0.1,0,0.1,0,0.2c0,0.3,0,0.5-0.1,0.8c0,0.1,0,0.1,0.1,0.1
		c0.1,0,0.1,0,0.1-0.1c0,0,0-0.1,0-0.1c0,0,0,0,0-0.1c0-0.3,0-0.5,0.1-0.7c0-0.1,0-0.2,0.1-0.3c0.1,0,0.2,0,0.2,0.1
		c0,0.1,0,0.1,0,0.2c0,0.1,0,0.1,0,0.2c0,0.2,0,0.5-0.1,0.7c0,0.1,0,0.1,0.1,0.2c0.1,0,0.2,0,0.4,0c0.2,0,0.4,0.1,0.6,0.1
		c0,0,0.1,0,0.1-0.1c0-0.3,0.1-0.5,0.1-0.8c0-0.1,0-0.1,0-0.2c0,0,0-0.1,0-0.2c0-0.1,0-0.1,0.1-0.1c0,0,0.1,0,0.1,0.1
		c0,0,0,0.1,0,0.1c0,0.1,0,0.1,0,0.2c-0.1,0.1,0,0.2-0.1,0.3c0,0.2-0.1,0.4-0.1,0.6c0,0,0,0.1,0,0.1c0.1,0,0.1,0,0.2,0c0,0,0,0,0,0
		c0-0.3,0-0.6,0.1-0.9c0-0.1,0-0.2,0-0.3c0,0,0-0.1,0-0.2c0,0,0,0,0.1,0c0,0,0,0,0.1,0.1c0,0.1,0,0.2,0,0.3c0,0.1,0,0.1,0,0.2
		c0,0,0,0.1,0,0.1c0,0.2-0.1,0.5-0.1,0.7c0,0.1,0,0.1,0.1,0.1c0,0,0.1,0,0.1,0c0,0,0.1,0,0.1-0.1c0-0.3,0.1-0.5,0-0.8
		c0-0.1,0-0.1,0-0.2c0-0.2,0-0.3,0.2-0.3c0.1,0.1,0.1,0.2,0.1,0.3c0,0.2,0,0.4,0,0.5c0,0,0,0,0,0c0,0,0,0,0,0c0,0,0,0,0,0
		c-0.1,0.4-0.1,0.7-0.1,1.1c0,0.4,0,0.8-0.1,1.2c-0.1,0.5-0.1,1-0.1,1.6c0,0.4,0,0.9,0,1.3c-0.1,1.5,0,3,0,4.5c0,0.7,0,1.5,0,2.2
		c0,0.6,0,1.2,0.1,1.9c0,0.5,0,1,0.1,1.4c0,0.6,0.1,1.3,0.1,1.9c0,0.3,0,0.6,0.1,0.8c0.1,0.3,0.1,0.7,0.1,1c0,0.2,0,0.3,0.1,0.5
		c0,0.3,0.1,0.6,0.1,0.9c0,0.1,0,0.3,0,0.4c0,0.3,0.1,0.7,0.1,1c0,0.3,0.1,0.6,0.1,0.8c0,0.3,0,0.6-0.1,0.8
		c-0.1,0.1-0.3,0.2-0.4,0.1c-0.2-0.2-0.4-0.4-0.5-0.6c-0.2-0.3-0.3-0.6-0.4-0.9c-0.1-0.3-0.2-0.6-0.2-0.8c-0.1-0.3-0.2-0.6-0.2-0.8
		C23.9,22.6,23.9,22.5,23.8,22.4z M18.1,3c0-0.1,0-0.2-0.1-0.3c0-0.1-0.1-0.1-0.1-0.1c-0.1,0-0.1,0.1-0.1,0.1c0,0.1-0.1,0.3-0.1,0.4
		c0,0.3-0.1,0.6-0.1,0.9c-0.1,0.5-0.1,0.9-0.1,1.4c0,0.4-0.1,0.8-0.1,1.2c0,0.6-0.1,1.3-0.1,1.9c0,0.4,0,0.7,0,1.1
		c0,0.6,0,1.2,0,1.8c0,0.4,0,0.9,0,1.3c0,0.1,0,0.2,0,0.4c0,0.3,0.1,0.6,0.1,0.8c0,0.2,0.1,0.3,0.1,0.5c0,0,0,0,0,0c0,0,0,0,0,0
		c0,0,0-0.1,0-0.1c0-0.4,0.1-0.8,0.1-1.2c0.1-0.6,0.1-1.3,0.1-1.9c0-0.4,0-0.8,0-1.2c0.2,0,0.4,0,0.6,0c1.4,0,2.8,0,4.3,0.1
		c0.1,0,0.1,0,0.1,0.1c0,0.5,0,1,0,1.5c0,2,0,3.9-0.1,5.9c0,0.8-0.1,1.6-0.1,2.4c0,0.2,0,0.5-0.1,0.7c0,0-0.1-0.1-0.1-0.1
		c-0.3-0.2-0.6-0.3-0.9-0.1c-0.1,0.1-0.2,0.2-0.3,0.2c-0.1,0-0.1,0.1-0.1,0c0-0.1-0.1-0.3-0.2-0.4c-0.1-0.2-0.3-0.3-0.5-0.3
		c-0.2,0-0.3,0.1-0.4,0.2c-0.3,0.2-0.5,0.5-0.6,0.8c-0.1,0.1-0.1,0.2-0.1,0.3c0,0,0,0.1,0.1,0.1c0,0,0.1,0,0.1,0
		c0-0.1,0.1-0.2,0.2-0.3c0.2-0.2,0.3-0.4,0.6-0.5c0.1,0,0.1,0,0.1,0c0.1,0.1,0.1,0.3,0.2,0.4c0.1,0.1,0.1,0.3,0.2,0.4
		c0.2,0.1,0.5,0.1,0.6-0.1c0.1-0.1,0.2-0.2,0.3-0.3c0.1-0.1,0.1-0.1,0.2,0c0.2,0.1,0.3,0.2,0.5,0.3c0,0.2,0,0.4,0,0.6c0,0,0,0,0,0.1
		c0.1,0.1,0.1,0.2,0.2,0.3c0,0.1,0.1,0.2,0.1,0.4c0.1,0.1,0.1,0.1,0.2,0c0.1-0.1,0.1-0.2,0.2-0.4c0.1-0.2,0.2-0.4,0.4-0.6
		c0.1-0.1,0.2-0.1,0.3,0c0.1,0,0.1,0,0.1,0c0-0.3,0-0.6,0-0.8c0-0.6,0.1-1.1,0.1-1.7c0-0.7,0.1-1.4,0.1-2.1c0-0.4,0-0.9,0-1.3
		c0-0.6,0-1.2,0-1.8c0-0.8,0-1.7,0-2.5c0-0.7-0.1-1.3,0-2c0-0.6,0-1.3,0-1.9c0-0.5,0-0.9-0.1-1.4c0-0.7-0.1-1.4-0.2-2.1
		c0-0.2,0-0.4,0-0.6c0-0.1,0-0.1-0.1-0.1c-0.3,0-0.6-0.1-0.9-0.1c-0.8-0.1-1.6-0.1-2.4-0.1c-0.4,0-0.7-0.1-1.1-0.1
		C19,3.1,18.5,3,18.1,3z M19,21.4c0-0.2,0-0.4,0-0.5c0-0.4,0-0.7,0-1.1c0-0.5,0-1-0.1-1.6c0-0.2,0-0.5,0-0.7c0-0.3,0-0.7,0-1
		c0-0.7,0-1.5-0.1-2.2c0-0.9,0-1.8,0-2.8c0,0,0-0.1,0-0.1c-0.1,0-0.1,0.1-0.1,0.1c0,0,0,0.1,0,0.1c0,0.5,0,0.9,0,1.4c0,1,0,2,0,3
		c0,0.5,0,1,0.1,1.5c0,0.5,0.1,1,0.1,1.6c0,0.6,0.1,1.2,0.2,1.9C18.9,21,18.9,21.2,19,21.4C19,21.3,19,21.4,19,21.4z"/>
	<path class="st0" d="M17.1,1.4c0,0,0,0.1,0,0.1c-0.3,0-0.7,0-1,0c-1.4-0.1-2.8,0-4.2,0.1c-1.5,0.1-3,0.2-4.5,0.3
		C6.1,1.9,4.7,2,3.3,2.1c-0.3,0-0.6,0.1-1,0.1c-0.1,0-0.1,0-0.1,0.1c0,0.1,0,0.2,0,0.3c0,0.1,0,0.1-0.1,0.2C2.1,3,1.9,2.9,1.8,2.8
		C1.8,2.7,1.8,2.6,1.8,2.4c0-0.1,0-0.1-0.1-0.1c-0.1,0-0.3,0-0.4,0.1c0,0-0.1,0-0.1,0c0,0-0.1,0-0.1-0.1c0-0.1,0-0.1,0.1-0.1
		c0.2,0,0.4,0,0.5-0.1c0.1,0,0.1,0,0.1-0.1c0-0.2,0-0.3,0.1-0.5c0-0.1,0.1-0.1,0.2-0.1c0.1,0,0.1,0.1,0.2,0.2c0,0.1,0,0.2,0.1,0.4
		c0,0.1,0.1,0.1,0.1,0.1C2.7,2.1,3.1,2,3.5,2C4.8,1.8,6,1.8,7.3,1.7c1.1,0,2.1-0.1,3.2-0.2c1.9-0.1,3.9-0.2,5.8-0.2
		C16.6,1.3,16.9,1.4,17.1,1.4z"/>
	<path class="st0" d="M25.2,2.3c0-0.2,0-0.4,0-0.5c0-0.1,0-0.2-0.1-0.3c0-0.1,0.1-0.1,0.1-0.1c0.1,0,0.1,0.1,0.1,0.1
		c0,0.1,0,0.2,0,0.2c0,0.1,0,0.1,0.1,0.1c0.1,0,0.1,0,0.1-0.1c0-0.1,0-0.2,0-0.3c0,0,0-0.1,0.1-0.1c0.1,0,0.1,0.1,0.1,0.1
		c0,0.1,0,0.2,0,0.3c0,0.1,0,0.1,0.1,0.1c0.1,0,0.1,0,0.1-0.1c0-0.1,0-0.2,0-0.2c0,0,0-0.1,0.1-0.1c0,0,0.1,0,0.1,0.1
		c0,0.1,0,0.1,0,0.2C25.9,2,25.9,2,26,2c0.2,0,0.5,0.1,0.7,0.1c0.1,0,0.1,0,0.1-0.1c0-0.1,0-0.2,0.1-0.3c0-0.1,0.1-0.1,0.1-0.1
		c0.1,0,0.1,0.1,0.1,0.1c0,0.1,0,0.2,0,0.3c0,0.1,0,0.1,0,0.2c0,0,0,0,0,0c-0.1,0.1-0.1,0.2-0.1,0.3c0,0.1-0.1,0.3-0.1,0.4
		c0,0,0,0.1-0.1,0.1c0,0,0,0-0.1-0.1c-0.1-0.2-0.1-0.3-0.1-0.5c0-0.1,0-0.2-0.1-0.2c-0.2,0-0.4-0.1-0.7-0.1c-0.1,0-0.1,0-0.1,0.1
		c0,0.2-0.1,0.5-0.2,0.7c0,0,0-0.1,0-0.1c0-0.2,0-0.4,0-0.7c0-0.1,0-0.1-0.1-0.1c-0.1,0-0.1,0.1-0.1,0.1c0,0.2-0.1,0.4-0.1,0.6
		c0,0,0,0-0.1,0c0-0.1,0-0.2,0-0.2c0-0.1,0-0.3,0-0.4c0-0.1,0-0.1-0.1-0.1c-0.1,0-0.1,0-0.1,0.1C25.2,2.2,25.2,2.3,25.2,2.3
		C25.2,2.3,25.2,2.3,25.2,2.3L25.2,2.3z"/>
	<path class="st0" d="M20.9,1.5c0,0.1,0,0.1,0,0.2c-0.1,0-0.2,0-0.3,0c-0.7,0-1.4-0.1-2.1-0.1c-0.1,0-0.1,0-0.1,0.1
		c0,0.1,0,0.2-0.1,0.3c0,0,0,0.1,0,0.1c0,0,0-0.1,0-0.1c0-0.1,0-0.2,0-0.3c0-0.2,0-0.4,0-0.6c0.1,0,0.2,0,0.2,0.1
		c0,0.2,0,0.2,0.2,0.2C19.4,1.4,20.2,1.5,20.9,1.5z"/>
	<path class="st0" d="M21.9,1.8c0-0.1,0-0.1,0-0.2c0.1,0,0.1,0,0.1-0.1c0-0.1,0-0.1,0-0.2c0-0.1,0-0.1,0.1-0.1
		c0.1,0,0.1,0.1,0.1,0.1c0,0.1,0,0.1,0,0.2c0-0.1,0-0.2,0.1-0.3c0-0.1,0-0.1,0.1-0.1c0.1,0,0.1,0.1,0.1,0.1c0,0.2,0,0.4-0.1,0.6
		c0,0.2,0,0.3-0.1,0.5c-0.1-0.2-0.1-0.4-0.1-0.6c-0.1,0.2,0,0.3-0.1,0.5C22,2.1,22,2,21.9,1.8C22,1.8,22,1.7,21.9,1.8z"/>
	<path class="st0" d="M23,1.8c0-0.1,0-0.1,0-0.2c0.4,0,0.8,0.1,1.2,0.1c0,0.1,0,0.1,0,0.2C23.8,1.9,23.4,1.9,23,1.8z"/>
	<path class="st0" d="M18.1,1.2c0,0.1,0,0.2,0,0.3c0,0.2-0.1,0.4-0.1,0.6C17.9,2,17.9,2,17.9,2c0-0.1,0-0.2,0-0.4c0,0,0-0.1-0.1-0.1
		c0-0.1,0-0.1,0-0.1c0,0,0-0.1,0-0.1c0-0.1,0-0.1,0.1-0.1C18,1.1,18.1,1.1,18.1,1.2z"/>
	<path class="st0" d="M22.5,1.8c0-0.1,0-0.1,0-0.2c0.1,0,0,0,0.1-0.1c0-0.1,0-0.1,0-0.2c0-0.1,0-0.1,0.1-0.1c0.1,0,0.1,0,0.1,0.1
		c0,0,0,0,0,0c-0.1,0.1-0.1,0.2-0.1,0.3c0,0.2-0.1,0.5-0.1,0.7c0,0,0,0.1,0,0.1C22.6,2.3,22.6,2.1,22.5,1.8
		C22.6,1.8,22.6,1.8,22.5,1.8z"/>
	<path class="st0" d="M17.7,1.1c0,0.3,0,0.5,0,0.8c0,0,0,0.1,0,0.1c0,0,0,0.1,0,0.1c0,0,0,0,0-0.1c0-0.2-0.1-0.4-0.1-0.5
		c0-0.1,0-0.3,0-0.4c0-0.1,0-0.1,0.1-0.1C17.6,1,17.6,1.1,17.7,1.1z"/>
	<path class="st0" d="M17.2,1.9c0-0.3,0-0.6,0-0.9c0.1,0,0.1,0,0.1,0.1c0,0.1,0,0.3,0,0.4c0,0.2,0,0.4-0.1,0.5
		C17.2,2,17.2,2,17.2,1.9z"/>
	<path class="st0" d="M21.3,1.7c0-0.1,0-0.1,0-0.2c0.1,0,0.2,0,0.4,0c0,0.1,0,0.1,0,0.2C21.5,1.7,21.4,1.7,21.3,1.7z"/>
	<path class="st0" d="M24.8,1.8c0,0.1,0,0.1,0,0.2c-0.1,0-0.1,0-0.2,0c0-0.1,0-0.1,0-0.2C24.7,1.8,24.8,1.9,24.8,1.8
		C24.8,1.8,24.8,1.8,24.8,1.8C24.8,1.8,24.8,1.8,24.8,1.8z"/>
	<path class="st0" d="M24.3,2c0-0.1,0-0.1,0-0.2c0,0,0.1,0.1,0.1,0c0.1,0,0-0.1,0-0.1c0,0,0,0,0,0c0,0,0,0,0,0c0,0.1,0,0.2,0,0.3
		C24.4,2,24.4,2,24.3,2z"/>
	<path class="st2" d="M5.4,13.2c-0.1-1.8-0.1-3.5-0.2-5.3c0-1-0.1-2.1-0.1-3.1c0-0.3,0-0.5,0-0.8c0-0.1,0-0.1,0.1-0.1
		c1.3-0.1,2.5-0.1,3.8-0.1c0.9,0,1.9,0,2.8,0C12,3.9,12,3.9,12,4c0,0.5,0,1,0,1.5c0.1,1.7,0.2,3.4,0.2,5.2c0.1,1.3,0,2.6,0,3.9
		c0,1.2-0.1,2.5-0.2,3.7c-0.1,1.4-0.2,2.8-0.2,4.2c0,0.1,0,0.1-0.1,0.1c-1.2,0-2.3,0-3.5,0c-0.8,0-1.6,0-2.4,0c-0.1,0-0.1,0-0.1-0.1
		c0-1.7-0.1-3.4-0.2-5c0-1.1-0.1-2.2-0.1-3.3C5.4,13.8,5.4,13.5,5.4,13.2z M11.6,15.6c0.1-0.1,0.1-0.2,0.1-0.3c0.1-1,0.1-2,0.1-3
		c0-0.1,0-0.2,0-0.3c0-0.1,0-0.1-0.1-0.1c-0.1,0-0.1,0.1-0.1,0.1c-0.1,1-0.1,2,0,3.1C11.6,15.2,11.6,15.4,11.6,15.6z"/>
	<path class="st2" d="M16.8,10c0,0.5,0,0.9,0,1.4c0,0.6,0,1.1,0,1.7c0,0.7,0,1.4,0.1,2.1c0,0.5,0.1,0.9,0.1,1.4
		c0,0.6,0.1,1.1,0.2,1.7c0,0.4,0.1,0.7,0.1,1.1c0,0.5,0.1,0.9,0.2,1.4c0.1,0.4,0.1,0.8,0.2,1.3c0,0.1,0,0.2,0.1,0.3
		c0,0.1,0.1,0.1,0.1,0.1c0.1,0,0.1-0.1,0.1-0.1c0.1-0.1,0-0.3,0.1-0.4c0.2-0.2,0.5-0.3,0.7,0c0.1,0.2,0.2,0.3,0.4,0.5
		c0.2,0.1,0.3,0.2,0.4,0c0.2-0.2,0.2-0.4,0.3-0.5c0-0.1,0.1-0.2,0.1-0.3c0.1-0.1,0.2-0.1,0.3,0c0.2,0.1,0.3,0.4,0.4,0.6
		c0.1,0.2,0.2,0.3,0.3,0.4c0.1,0.1,0.3,0.1,0.4-0.1c0.1-0.1,0.2-0.3,0.3-0.4c0.1-0.2,0.3-0.2,0.4,0c0.1,0.2,0.2,0.3,0.2,0.5
		c0,0.1,0,0.3,0,0.4c0,0.1,0,0.1-0.1,0.1c-0.5,0-1.1-0.1-1.6-0.1c-0.4,0-0.9,0-1.3,0c-0.9-0.1-1.9-0.1-2.8-0.2
		c-0.6,0-1.2-0.1-1.7-0.1c-0.1,0-0.1,0-0.1-0.1c-0.1-0.9,0-1.7,0-2.6c0.1-1.7,0.1-3.4,0-5.1c0-1.5-0.1-3.1-0.2-4.6
		c0-0.2,0-0.2,0.2-0.2C15.4,10,16.1,10,16.8,10z"/>
	<path class="st2" d="M2.8,24.7c0.4-0.2,0.9-0.5,1.3-0.7c0.2-0.1,0.3-0.2,0.5-0.2c0.1-0.1,0.2-0.1,0.3-0.1c0.5,0.1,0.9,0.1,1.4,0.1
		c0.7,0,1.4,0.1,2.1,0.1c1.8,0.1,3.7,0.2,5.5,0.3c1.7,0.1,3.5,0.2,5.2,0.2c0.9,0,1.8,0.1,2.8,0.2c0.4,0,0.8,0,1.3,0.1
		c0,0-0.1,0.1-0.1,0.1c-0.5,0.4-0.9,0.8-1.4,1.3c-0.1,0.1-0.1,0.1-0.2,0.1c-1.1-0.2-2.1-0.3-3.2-0.5c-1-0.1-2-0.3-3.1-0.4
		c-0.9-0.1-1.8-0.2-2.7-0.2C11.7,25,10.8,25,10,24.9c-1.5,0-2.9,0-4.4,0c-0.9,0-1.8-0.1-2.7-0.1C2.9,24.8,2.9,24.7,2.8,24.7
		C2.8,24.7,2.8,24.7,2.8,24.7z"/>
	<path class="st2" d="M17,4.1c0,0.6,0,1.2-0.1,1.8c0,0.3,0,0.5,0,0.8c0,0.7-0.1,1.4-0.1,2.1c0,0,0,0,0,0.1c-0.8,0-1.6,0-2.4,0
		c-0.1,0-0.1,0-0.1-0.1c-0.1-0.9-0.1-1.9-0.2-2.8c-0.1-0.6-0.1-1.2-0.1-1.8c0-0.1,0-0.1,0.1-0.1C15.1,4,16,4,17,4.1
		C17,4.1,17,4.1,17,4.1z"/>
	<path class="st2" d="M21.2,27.1C20.8,27,20.4,27,20,26.9c-1-0.1-2.1-0.3-3.1-0.4c-0.9-0.1-1.8-0.2-2.7-0.4
		c-0.9-0.1-1.8-0.2-2.7-0.3c-1.7-0.2-3.3-0.3-5-0.3c-0.9,0-1.8-0.1-2.6-0.2c-0.4,0-0.8-0.1-1.2-0.1c0,0-0.1,0-0.1,0
		c0-0.1,0-0.2,0-0.2c0,0,0.1,0,0.1,0c0.2,0,0.3,0.1,0.5,0.1c0.7,0.1,1.5,0.2,2.2,0.1c1.6,0,3.1,0,4.7,0.1c0.7,0,1.4,0.1,2,0.2
		c0.7,0.1,1.4,0.1,2.1,0.2c0.7,0.1,1.4,0.2,2,0.2c1.4,0.2,2.8,0.4,4.2,0.6c0.3,0,0.5,0.1,0.8,0.1c0.1,0,0.1,0,0.1,0.1
		C21.2,26.7,21.2,26.9,21.2,27.1z"/>
	<path class="st2" d="M21.4,27.1c0.1-0.3,0.2-0.5,0.3-0.8c0,0,0-0.1,0.1-0.1c0.5-0.4,1.1-0.9,1.6-1.3c0,0,0,0,0,0c0,0.1,0,0.3,0,0.4
		c0,0,0,0,0,0.1c-0.3,0.3-0.5,0.5-0.7,0.8c-0.2,0.1-0.3,0.2-0.5,0.3C21.8,26.6,21.7,26.8,21.4,27.1C21.4,27,21.4,27.1,21.4,27.1z"/>
	<path class="st0" d="M22.5,20.8c0.1-0.2,0-0.5,0.1-0.7c0.1-0.8,0.1-1.6,0.1-2.4c0.1-2,0.1-3.9,0.1-5.9c0-0.5,0-1,0-1.5
		c0-0.1,0-0.1-0.1-0.1c-1.4-0.1-2.8-0.1-4.3-0.1c-0.2,0-0.4,0-0.6,0c0-0.2,0-0.5,0-0.7c0-0.2,0-0.3,0-0.5c0.4,0,0.8,0,1.2,0
		c0.5,0,0.9,0,1.4,0c0.3,0,0.6,0,1,0c0.4,0,0.8,0.1,1.3,0.1c0.1,0,0.1,0,0.1-0.1c0-0.7,0-1.4,0-2.1c0-0.7,0-1.4,0-2.1
		c0-0.1-0.1-0.1-0.2-0.1c-0.6,0-1.2-0.1-1.8-0.1c-0.3,0-0.6,0-0.9-0.1c-0.6-0.1-1.1-0.1-1.7-0.1c0,0,0,0,0-0.1c0-0.4,0-0.7,0-1.1
		c0.4,0,0.9,0.1,1.3,0.1c0.4,0,0.7,0.1,1.1,0.1c0.8,0.1,1.6,0.1,2.4,0.1c0.3,0,0.6,0.1,0.9,0.1c0.1,0,0.1,0,0.1,0.1
		c0,0.2,0,0.4,0,0.6c0,0.7,0.1,1.4,0.2,2.1c0,0.5,0,0.9,0.1,1.4c0,0.6,0.1,1.3,0,1.9c0,0.7,0.1,1.3,0,2c0,0.8,0,1.7,0,2.5
		c0,0.6,0,1.2,0,1.8c0,0.4,0,0.9,0,1.3c0,0.7,0,1.4-0.1,2.1c0,0.6-0.1,1.1-0.1,1.7c0,0.3,0,0.6,0,0.8c0,0.1,0,0.1-0.1,0
		c-0.1-0.1-0.2-0.1-0.3,0c-0.2,0.1-0.3,0.4-0.4,0.6c-0.1,0.1-0.1,0.2-0.2,0.4c-0.1,0.1-0.1,0.1-0.2,0c-0.1-0.1-0.1-0.2-0.1-0.4
		c0-0.1-0.1-0.2-0.2-0.3c0,0,0,0,0-0.1c0-0.2,0-0.4,0-0.6c0.1,0.1,0.2,0.1,0.4,0.1c0,0,0.1,0,0.1,0c0,0,0-0.1,0-0.1
		C22.7,21.3,22.6,21,22.5,20.8z"/>
	<path class="st2" d="M17.8,8.8c0,0.2,0,0.3,0,0.5c0,0.2,0,0.5,0,0.7c0,0.4,0,0.8,0,1.2c0,0.6,0,1.3-0.1,1.9c0,0.4-0.1,0.8-0.1,1.2
		c0,0,0,0.1,0,0.1c0,0,0,0,0,0c0,0,0,0,0,0c0-0.2-0.1-0.3-0.1-0.5c0-0.3-0.1-0.6-0.1-0.8c0-0.1,0-0.2,0-0.4c0-0.4,0-0.9,0-1.3
		c0-0.6,0-1.2,0-1.8c0-0.4,0-0.7,0-1.1c0-0.6,0.1-1.3,0.1-1.9c0-0.4,0-0.8,0.1-1.2c0-0.5,0.1-0.9,0.1-1.4c0-0.3,0.1-0.6,0.1-0.9
		c0-0.1,0-0.3,0.1-0.4c0-0.1,0.1-0.1,0.1-0.1c0.1,0,0.1,0,0.1,0.1c0,0.1,0.1,0.2,0.1,0.3c0,0.4,0,0.7,0,1.1c0,0,0,0,0,0.1
		c0,0,0,0.1,0,0.1c0,0.5,0,0.9-0.1,1.4c0,0.2,0,0.4,0,0.7c0,0.2,0,0.5,0,0.7c0,0.3,0,0.5,0,0.8C17.8,8.1,17.8,8.5,17.8,8.8z"/>
	<path class="st2" d="M22.5,20.8c0.1,0.2,0.2,0.5,0.4,0.7c0,0,0.1,0,0,0.1c0,0-0.1,0-0.1,0c-0.1,0-0.3-0.1-0.4-0.1
		c-0.2-0.1-0.3-0.2-0.5-0.3c-0.1,0-0.2,0-0.2,0c-0.1,0.1-0.2,0.2-0.3,0.3c-0.2,0.2-0.4,0.2-0.6,0.1c-0.1-0.1-0.2-0.2-0.2-0.4
		c-0.1-0.1-0.1-0.3-0.2-0.4c0-0.1-0.1-0.1-0.1,0c-0.2,0.1-0.4,0.3-0.6,0.5c-0.1,0.1-0.2,0.2-0.2,0.3c0,0,0,0-0.1,0
		c0,0-0.1,0-0.1-0.1c0-0.1,0-0.2,0.1-0.3c0.2-0.3,0.4-0.6,0.6-0.8c0.1-0.1,0.3-0.2,0.4-0.2c0.2,0,0.3,0.1,0.5,0.3
		c0.1,0.1,0.1,0.2,0.2,0.4c0,0.1,0.1,0.1,0.1,0c0.1-0.1,0.2-0.2,0.3-0.2c0.3-0.2,0.6-0.1,0.9,0.1C22.4,20.7,22.5,20.8,22.5,20.8z"/>
	<path class="st2" d="M18.3,1.7c0,0.1,0,0.2,0,0.3c0,0,0,0.1,0,0.1c0,0,0,0,0-0.1c0-0.1,0.1-0.2,0.1-0.3c0-0.1,0-0.1,0.1-0.1
		c0.7,0,1.4,0.1,2.1,0.1c0.1,0,0.2,0,0.3,0c0,0.3,0,0.6,0,0.8c0,0,0,0.1,0,0.1c-0.2,0-0.4,0-0.5,0c0,0-0.1,0-0.1,0
		c-0.2-0.2-0.4-0.3-0.7-0.3c-0.4-0.1-0.9-0.1-1.3,0c-0.1,0-0.1,0-0.1-0.1C18.2,1.9,18.2,1.8,18.3,1.7z"/>
	<path class="st2" d="M19,21.4C19,21.4,19,21.3,19,21.4c-0.1-0.2-0.1-0.3-0.1-0.5c0-0.6-0.1-1.2-0.2-1.9c0-0.5-0.1-1-0.1-1.6
		c0-0.5-0.1-1-0.1-1.5c-0.1-1,0-2,0-3c0-0.5,0-0.9,0-1.4c0,0,0-0.1,0-0.1c0-0.1,0-0.1,0.1-0.1c0.1,0,0,0.1,0,0.1c0,0.9,0,1.8,0,2.8
		c0,0.7,0,1.5,0.1,2.2c0,0.3,0,0.7,0,1c0,0.2,0,0.5,0,0.7c0,0.5,0.1,1,0.1,1.6c0,0.4,0,0.7,0,1.1C19,21,19,21.2,19,21.4z"/>
	<path class="st2" d="M23,1.8c0.4,0,0.8,0.1,1.2,0.1c0,0.3-0.1,0.5-0.1,0.8c0,0,0,0.1-0.1,0.1c-0.2,0-0.4,0-0.6-0.1
		c-0.1,0-0.2,0-0.4,0c-0.1,0-0.1-0.1-0.1-0.2C22.9,2.3,22.9,2.1,23,1.8z"/>
	<path class="st2" d="M21.3,1.7c0.1,0,0.2,0,0.4,0c0,0.3,0,0.5,0,0.8c0,0.1,0,0.1-0.1,0.1c-0.1,0-0.2,0-0.3,0c0,0-0.1,0-0.1-0.1
		C21.2,2.3,21.3,2,21.3,1.7z"/>
	<path class="st2" d="M21.9,1.8C22,1.7,22,1.8,21.9,1.8C22,2,22,2.1,22,2.3c0.1-0.2,0.1-0.4,0.1-0.5c0,0.2,0,0.4,0.1,0.6
		c0.1-0.2,0.1-0.3,0.1-0.5c0,0.2,0,0.4,0,0.6c0,0.1,0,0.1-0.1,0.1c-0.1,0-0.2,0-0.3,0c-0.1,0-0.1,0-0.1-0.1
		C21.9,2.3,21.9,2,21.9,1.8z"/>
	<path class="st2" d="M24.6,2c0.1,0,0.1,0,0.2,0c0,0.3,0,0.5,0,0.8c0,0,0,0.1-0.1,0.1c0,0-0.1,0-0.1,0c-0.1,0-0.1,0-0.1-0.1
		c0-0.2,0.1-0.5,0.1-0.7C24.6,2.1,24.6,2,24.6,2z"/>
	<path class="st2" d="M24.3,2c0,0,0.1,0,0.1,0c0,0.3-0.1,0.6-0.1,0.9c0,0,0,0,0,0c-0.1,0-0.1,0-0.2,0c0,0-0.1,0,0-0.1
		c0-0.2,0.1-0.4,0.1-0.6C24.3,2.1,24.3,2.1,24.3,2z"/>
	<path class="st2" d="M22.5,1.8C22.6,1.8,22.6,1.8,22.5,1.8c0.1,0.3,0.1,0.5,0.1,0.7c0,0,0,0.1,0,0.1c0,0.1,0,0.1-0.1,0.1
		c-0.1,0-0.1,0-0.1-0.1C22.5,2.3,22.5,2,22.5,1.8z"/>
	<path class="st2" d="M17.8,1.5C17.8,1.5,17.8,1.6,17.8,1.5c0.1,0.2,0.1,0.3,0.1,0.4c0,0,0,0.1,0.1,0.1c0-0.2,0.1-0.4,0.1-0.6
		c0,0.2,0,0.4,0,0.6c0,0.1,0,0.1-0.1,0.1c0,0-0.1,0-0.1,0c0,0-0.1,0-0.1-0.1C17.8,1.9,17.8,1.7,17.8,1.5z"/>
	<path class="st2" d="M17.2,1.9c0,0,0,0.1,0,0.1c0.1-0.2,0-0.4,0.1-0.5c0,0.2,0,0.4,0,0.7c0,0.1,0,0.1-0.1,0.1c-0.1,0-0.1,0-0.1-0.1
		C17.2,2.1,17.2,2,17.2,1.9z"/>
	<path class="st2" d="M17.5,1.5c0,0.2,0,0.4,0.1,0.5c0,0,0,0.1,0,0.1c0,0,0,0,0-0.1c0,0.1,0,0.2-0.1,0.2c-0.1,0-0.1,0-0.1-0.1
		c0-0.1,0-0.3,0-0.4C17.5,1.6,17.5,1.6,17.5,1.5z"/>
	<path class="st0" d="M25.2,2.3C25.2,2.3,25.2,2.3,25.2,2.3C25.2,2.3,25.2,2.3,25.2,2.3C25.2,2.3,25.2,2.3,25.2,2.3z"/>
	<path class="st0" d="M11.6,15.6c0-0.2,0-0.3-0.1-0.5c-0.1-1,0-2,0-3.1c0-0.1,0-0.1,0.1-0.1c0.1,0,0.1,0.1,0.1,0.1
		c0,0.1,0,0.2,0,0.3c0,1,0,2-0.1,3C11.7,15.3,11.7,15.4,11.6,15.6z"/>
	<path class="st1" d="M17.8,8.8c0-0.3,0-0.7,0-1c0-0.3,0-0.5,0-0.8c0-0.2,0-0.5,0-0.7c0-0.2,0-0.4,0-0.7C18,5.2,18,4.7,18,4.2
		c0,0,0-0.1,0-0.1c0.6,0,1.1,0.1,1.7,0.1c0.3,0,0.6,0.1,0.9,0.1c0.6,0.1,1.2,0.1,1.8,0.1c0.1,0,0.2,0,0.2,0.1c0,0.7,0,1.4,0,2.1
		c0,0.7,0,1.4,0,2.1c0,0.1,0,0.1-0.1,0.1c-0.4,0-0.8-0.1-1.3-0.1c-0.3,0-0.6,0-1,0c-0.5,0-0.9,0-1.4,0C18.6,8.8,18.2,8.8,17.8,8.8z"
		/>
</g>
</svg>
