<?xml version="1.0" encoding="utf-8"?>
<!-- Generator: Adobe Illustrator 22.1.0, SVG Export Plug-In . SVG Version: 6.00 Build 0)  -->
<svg version="1.1" id="Слой_1" xmlns="http://www.w3.org/2000/svg" xmlns:xlink="http://www.w3.org/1999/xlink" x="0px" y="0px"
	 viewBox="0 0 28.3 28.3" style="enable-background:new 0 0 28.3 28.3;" xml:space="preserve">
<style type="text/css">
	.st0{fill:#585757;}
	.st1{fill:#FEFEFE;}
	.st2{fill:#FAD306;}
</style>
<g>
	<path class="st0" d="M23.1,27.4c0.2,0,0.3,0,0.5,0.1c0,0.1-0.1,0.1-0.1,0.1c-0.4,0.1-0.8,0.1-1.2,0.1c-0.1,0-0.2-0.1-0.2-0.1
		c0-0.1,0.1-0.1,0.2-0.1c0.2,0,0.4,0,0.6,0c-0.1-0.2-0.1-0.4-0.1-0.6c0-0.1-0.1-0.1-0.1-0.1c-0.4,0-0.7-0.1-1.1-0.1
		c-1.5-0.1-2.9-0.3-4.4-0.4c-1-0.1-2-0.1-3-0.1c-1.2,0-2.4,0-3.5,0c-0.9,0-1.9,0-2.8,0.1c-0.4,0-0.8,0-1.2,0.1c-0.1,0-0.1,0-0.1,0.1
		c0,0.2,0,0.4-0.1,0.6c0,0.1,0,0.1,0.1,0.1c0.2,0,0.4,0,0.6,0.1c0,0.1,0,0.1-0.1,0.1c-0.3,0.1-0.7,0.1-1,0.1c-0.1,0-0.2-0.1-0.2-0.2
		c0-0.1,0.1-0.1,0.2-0.1c0.1,0,0.1,0,0.2,0c0.1,0,0.1,0,0.1-0.1c-0.1-0.2-0.1-0.4-0.1-0.6c0-0.1,0-0.1-0.1-0.1c-0.2,0-0.5,0-0.7,0.1
		c-0.1,0-0.2,0-0.2-0.2c0-0.1,0-0.3,0-0.4C5.1,23.9,5,21.9,5,20c-0.1-1.5-0.1-3-0.2-4.4c-0.1-1.5-0.1-3-0.2-4.4
		c-0.1-1.3-0.1-2.7-0.2-4C4.3,5.6,4.3,4,4.2,2.5c0-0.3,0-0.7,0-1c0-0.2,0-0.4,0-0.6c0-0.1,0-0.1,0.1-0.1c0.1,0,0.1,0,0.2,0
		c1.3,0,2.6,0,4,0c2.1,0,4.2,0,6.4,0c2,0,4.1,0,6.1,0c0.6,0,1.3,0,1.9,0c0.1,0,0.1,0,0.2,0c0.2,0,0.3,0.1,0.3,0.3c0,0.4,0,0.7,0,1.1
		c0.1,2.1,0.1,4.2,0.2,6.3c0.1,1.8,0.1,3.6,0.2,5.4c0,1.3,0.1,2.7,0.1,4c0.1,1.9,0.1,3.8,0.2,5.8c0,0.9,0.1,1.9,0.1,2.8
		c0,0.1,0,0.1,0,0.2c0,0.1-0.1,0.2-0.3,0.2c-0.2,0-0.4,0-0.5-0.1c-0.1,0-0.1,0-0.1,0.1C23.2,27,23.2,27.2,23.1,27.4z M14.5,15.5
		c0-0.1,0-0.2,0.1-0.2c0,0,0,0,0.1,0c0.6,0,1.2,0,1.9,0c0.1,0,0.1,0,0.1-0.1c0-0.4,0-0.8-0.1-1.2c0-0.2,0-0.5,0-0.7
		c0-0.1,0-0.1-0.2-0.1c-0.3,0.1-0.5,0.1-0.8,0.1c-0.6,0-1.2,0.1-1.8,0.1c-0.3,0-0.6,0-0.8,0c-0.1,0-0.1,0-0.1,0.1c0,1,0,1.9,0,2.9
		c0,0.1,0,0.1,0.1,0c0.3-0.2,0.6-0.4,0.8-0.5C14.1,15.7,14.3,15.6,14.5,15.5C14.5,15.5,14.5,15.5,14.5,15.5
		c-0.1,0.1-0.2,0.2-0.3,0.2c-0.3,0.2-0.6,0.4-1,0.7c-0.1,0.1-0.2,0.1-0.3,0.2c0,0,0,0,0,0c1.2-0.1,2.4-0.1,3.6-0.1
		c-0.1,0.1-0.1,0.1-0.1,0.1c-0.4,0.1-0.7,0.1-1.1,0.2c-0.8,0-1.5,0.1-2.3,0.1c-0.1,0-0.1,0-0.1,0.1c0,0.9,0,1.7,0.1,2.6
		c0,0.2,0,0.2,0.2,0.1c0.4-0.2,0.8-0.4,1.1-0.6c0.2-0.1,0.5-0.2,0.7-0.3c0.1-0.1,0.3-0.1,0.4-0.2c0.1-0.1,0.2-0.1,0.3-0.1
		c0.3,0,0.6,0,0.9,0c0.2,0,0.2,0,0.2-0.2c0-0.4,0-0.7-0.1-1.1c0-0.6,0-1.1,0-1.7c0-0.1,0-0.1-0.1-0.1c-0.3,0.1-0.6,0.1-1,0.1
		C15.3,15.5,14.9,15.5,14.5,15.5z M21.9,1.7c-0.2,0.3-0.5,0.5-0.7,0.8C20.7,3,20.1,3.5,19.6,4c-1,0.9-1.9,1.9-2.9,2.7
		c-0.1,0.1-0.1,0.1-0.1,0.2c0.1,1.3,0.2,2.5,0.4,3.7c0.2,1.6,0.3,3.2,0.4,4.9c0,1,0,1.9,0.1,2.9c0,0.7,0.1,1.4,0.1,2.1
		c0.1,1.2,0.2,2.4,0.2,3.6c0,0.3,0,0.7,0,1c0,0.1,0,0.1,0.1,0.1c1.5,0,3,0.1,4.5,0.3c0.1,0,0.1,0,0.1-0.1c0-0.2,0-0.4-0.1-0.6
		c-0.1-0.6-0.1-1.3-0.1-1.9c-0.1-0.8-0.2-1.7-0.2-2.5c0-1.1-0.1-2.1-0.1-3.2c0-0.6,0-1.2,0-1.8c0-1.1-0.1-2.2-0.1-3.3
		c0-0.5,0-1.1,0.1-1.6c0-1.2,0-2.4,0-3.6c0-0.6-0.1-1.3-0.1-1.9c0-0.8,0-1.7,0-2.5C21.9,2.2,21.9,2,21.9,1.7z M18.9,1.4
		c-0.5,0-0.9,0-1.4,0c-1,0-2.1,0.1-3.1,0.1c-0.5,0-1,0.1-1.5,0.2c-0.3,0-0.3,0.1-0.3,0.4c0,0.5,0.1,1,0.1,1.5c0,0.6,0.1,1.3,0.1,1.9
		c0,0.5,0,1,0.1,1.6C12.9,7,12.9,7,13,7c0.2-0.1,0.4-0.2,0.6-0.4c1-0.6,2.1-1.2,3.1-1.8c0,0,0.1,0,0.1-0.1c0-0.1,0.2-0.1,0.2-0.1
		c0.4,0,0.8,0,1.1,0c0.1,0,0.1,0,0.1-0.1c0.2-0.2,0.4-0.4,0.6-0.6c0.4-0.4,0.7-0.7,1.1-1c0.5-0.5,1-1,1.5-1.4c0,0,0.1,0,0-0.1
		c0,0-0.1,0-0.1,0c-0.4,0-0.8,0-1.2,0C19.7,1.4,19.3,1.4,18.9,1.4z M17.2,25.1c0-1-0.1-2-0.1-3c0-0.2,0-0.5-0.1-0.7
		c0-0.4-0.1-0.8-0.1-1.3c0-0.3,0-0.2-0.3-0.2c-0.7,0-1.3,0.1-2,0.1c-0.5,0-0.9,0-1.4,0.1c-0.1,0-0.1,0-0.1,0.1
		c0.1,0.5,0.1,0.9,0.2,1.4c0,0.4,0.1,0.9,0.2,1.3c0.1,0.4,0.1,0.8,0.1,1.2c0,0.5,0.1,0.9,0.2,1.4c0,0.1,0,0.1,0.1,0.1
		c0.6-0.1,1.2-0.1,1.8-0.2c0.5,0,0.9,0,1.4,0C17.3,25.3,17.2,25.4,17.2,25.1z M16.3,7.2c0,0-0.1,0-0.1,0.1c-0.2,0-0.3,0-0.5,0
		c-0.6,0.1-1.1,0.1-1.7,0.1c-0.3,0-0.6,0-1,0c-0.1,0-0.1,0-0.1,0.1c0,0.7,0,1.3,0,2c0,0.1,0,0.1,0.1,0.1c0.5-0.3,1.1-0.5,1.7-0.7
		c0.2-0.1,0.4-0.2,0.6-0.2c0.3-0.1,0.6,0,0.9-0.1c0.1,0,0.1,0,0.1-0.1C16.4,8.1,16.4,7.6,16.3,7.2c0.1-0.2,0.1-0.4,0.1-0.5
		c0-0.1,0-0.1,0.1-0.1c0.1,0,0.1,0,0.1,0c0.3-0.5,0.7-0.9,1-1.3c0.1-0.2,0.3-0.3,0.4-0.5c0,0,0,0,0,0c-0.4,0-0.8,0.1-1.2,0.1
		c0,0,0,0,0,0c-0.5,0.4-1,0.7-1.6,1.1c-0.7,0.4-1.3,0.8-2,1.2c-0.1,0-0.1,0.1-0.2,0.1c0.1,0,0.1,0,0.2,0c0.8,0,1.6-0.1,2.4-0.1
		C15.8,7.2,16,7.2,16.3,7.2z M12.9,10.9c0,0.7,0.1,1.3,0.1,2c0,0.1,0,0.1,0.1,0c0.2-0.1,0.4-0.2,0.6-0.4c0.4-0.2,0.8-0.4,1.2-0.6
		c0,0,0.1,0,0.1-0.1c0-0.1,0.1-0.1,0.1-0.1c0.5,0,0.9,0,1.4,0c0.1,0,0.1,0,0.1-0.1c0-0.1,0-0.3,0-0.4c0-0.4,0-0.8-0.1-1.3
		c0-0.1,0-0.1-0.1-0.1C16,10,15.6,10,15.2,10.1c-0.4,0-0.8,0-1.1,0.1c-0.3,0-0.7,0-1,0c-0.1,0-0.1,0-0.1,0.1
		C12.9,10.5,12.9,10.7,12.9,10.9z M13.1,13c0.5,0,1,0,1.5-0.1c0.4,0,0.8,0,1.3,0c0.2,0,0.3,0,0.5,0c0.2,0,0.2,0,0.2-0.2
		c0-0.3,0-0.6,0-0.9c0-0.1,0-0.1-0.1-0.1c-0.4,0.1-0.8,0.1-1.2,0.1c-0.1,0-0.3,0-0.4,0.1c-0.3,0.3-0.7,0.5-1.1,0.7
		C13.6,12.8,13.4,12.9,13.1,13z M13.4,19.8c0.2,0,0.3,0,0.5,0c0.6,0,1.1,0,1.7,0c0.4,0,0.8,0,1.2,0.1c0.1,0,0.1,0,0.1-0.1
		c0-0.3,0-0.6-0.1-1c0-0.1,0-0.1-0.1-0.1c-0.2,0-0.4,0-0.7,0.1c-0.2,0-0.4,0-0.5,0c-0.1,0-0.1,0-0.2,0c-0.4,0.2-0.7,0.4-1.1,0.6
		C14,19.4,13.7,19.6,13.4,19.8z M13.2,9.8c0.3,0,0.5,0,0.8,0c0.8,0,1.6-0.1,2.4-0.1c0.1,0,0.1,0,0.1-0.1c0-0.3,0-0.6,0-0.9
		c0-0.1,0-0.1-0.1-0.1c-0.2,0-0.5,0-0.7,0.1c-0.1,0-0.2,0-0.3,0.1c-0.6,0.3-1.1,0.6-1.7,0.8C13.4,9.7,13.3,9.7,13.2,9.8z M11.9,13.4
		c0,0.5,0,1,0,1.5c0,0.6,0.1,1.1,0.2,1.7c0,0,0,0.1,0,0.1c0,0,0-0.1,0-0.1c0-0.2,0-0.4,0-0.6c0-1.1,0-2.1,0-3.2c0-0.5,0-0.9-0.1-1.4
		c0-0.1,0-0.2-0.1-0.2c-0.1,0-0.1,0.1-0.1,0.2C11.9,12.2,11.9,12.8,11.9,13.4z M9.1,4.6C9.1,4.6,9.1,4.6,9.1,4.6c-0.2,0-0.3,0-0.5,0
		c-0.2,0-0.4,0-0.5,0c0,0-0.1,0-0.1,0c0,0,0-0.1,0-0.1c0.1-0.1,0.2-0.2,0.3-0.3C8.3,4,8.4,4,8.4,3.9C8.2,4,8.1,4.2,7.9,4.4
		c0-0.2,0-0.4-0.1-0.6c0-0.1,0-0.2,0-0.2c-0.1,0,0,0.1,0,0.2c0,0.2,0,0.4,0.1,0.6c-0.1,0-0.1,0-0.1-0.1C7.5,4.2,7.3,4.1,7.2,3.9
		c0,0-0.1-0.1-0.1,0c0,0,0,0.1,0,0.1c0.2,0.2,0.4,0.4,0.6,0.5c0,0,0.1,0,0.1,0.1c0,0,0,0-0.1,0c-0.2,0-0.5,0-0.7,0
		c-0.1,0-0.1,0-0.1,0c0,0.1,0.1,0,0.1,0c0.2,0,0.4,0,0.6,0c0,0,0.1,0,0.1,0C7.5,4.8,7.4,5,7.2,5.1c0,0-0.1,0.1-0.1,0.1c0,0,0,0,0,0
		c0,0,0,0,0,0c0.2-0.2,0.4-0.4,0.5-0.5c0,0,0-0.1,0.1,0C7.9,5.1,7.9,5.5,8,6c0-0.4,0-0.8,0-1.2c0,0,0-0.1,0-0.1c0,0,0,0,0.1,0
		c0.3,0.1,0.5,0.3,0.7,0.5C8.6,4.9,8.4,4.8,8.2,4.6C8.5,4.6,8.8,4.6,9.1,4.6z"/>
	<path class="st1" d="M21.9,1.7c0,0.3,0,0.6,0,0.9c0,0.8,0,1.7,0,2.5c0,0.6,0.1,1.3,0.1,1.9c0,1.2,0.1,2.4,0,3.6
		c0,0.5-0.1,1.1-0.1,1.6c0,1.1,0.1,2.2,0.1,3.3c0,0.6,0,1.2,0,1.8c0,1.1,0.1,2.1,0.1,3.2c0,0.8,0.1,1.7,0.2,2.5
		c0.1,0.6,0.1,1.3,0.1,1.9c0,0.2,0,0.4,0.1,0.6c0,0.1,0,0.1-0.1,0.1c-1.5-0.2-3-0.3-4.5-0.3c-0.1,0-0.1,0-0.1-0.1c0-0.3,0-0.7,0-1
		c-0.1-1.2-0.1-2.4-0.2-3.6c-0.1-0.7-0.1-1.4-0.1-2.1c-0.1-1-0.1-1.9-0.1-2.9c-0.1-1.6-0.1-3.3-0.4-4.9c-0.2-1.2-0.3-2.5-0.4-3.7
		c0-0.1,0-0.1,0.1-0.2c1.1-0.8,2-1.8,2.9-2.7c0.5-0.5,1.1-1,1.6-1.6C21.4,2.2,21.7,1.9,21.9,1.7z M18.2,14.2c0-0.9-0.1-1.6-0.1-2.3
		c0-0.1,0-0.3,0-0.4c0-0.1,0-0.1-0.1-0.1c-0.1,0-0.1,0-0.1,0.1c0,0.1,0,0.1,0,0.2c0,0.4,0,0.9,0,1.3c0,0.8,0.1,1.6,0.1,2.4
		c0,0.2,0,0.3,0.1,0.5c0,0,0,0.1,0.1,0.1c0,0,0,0,0-0.1c0-0.1,0.1-0.3,0.1-0.4C18.2,15,18.2,14.5,18.2,14.2z"/>
	<path class="st2" d="M18.9,1.4c0.4,0,0.8,0,1.2,0c0.4,0,0.8,0,1.2,0c0,0,0.1,0,0.1,0c0,0,0,0.1,0,0.1c-0.5,0.5-1,1-1.5,1.4
		c-0.4,0.3-0.7,0.7-1.1,1c-0.2,0.2-0.4,0.4-0.6,0.6c0,0-0.1,0.1-0.1,0.1c-0.4,0-0.8,0-1.1,0c-0.1,0-0.2,0-0.2,0.1c0,0-0.1,0-0.1,0.1
		c-1,0.6-2.1,1.2-3.1,1.8C13.4,6.8,13.2,6.9,13,7c-0.1,0-0.1,0-0.1-0.1c0-0.5,0-1-0.1-1.6c0-0.6-0.1-1.3-0.1-1.9
		c0-0.5-0.1-1-0.1-1.5c0-0.3,0-0.3,0.3-0.4c0.5-0.1,1-0.1,1.5-0.2c1-0.1,2.1-0.1,3.1-0.1C18,1.4,18.4,1.4,18.9,1.4z"/>
	<path class="st2" d="M17.2,25.1c0,0.2,0,0.2-0.2,0.2c-0.5,0-0.9,0-1.4,0c-0.6,0-1.2,0.1-1.8,0.2c-0.1,0-0.1,0-0.1-0.1
		c-0.1-0.5-0.1-0.9-0.2-1.4c0-0.4-0.1-0.8-0.1-1.2c-0.1-0.4-0.1-0.9-0.2-1.3c0-0.5-0.1-0.9-0.2-1.4c0-0.1,0-0.1,0.1-0.1
		c0.5,0,0.9,0,1.4-0.1c0.7,0,1.3-0.1,2-0.1c0.3,0,0.2,0,0.3,0.2c0,0.4,0.1,0.8,0.1,1.3c0,0.2,0,0.5,0.1,0.7
		C17.1,23.1,17.2,24.1,17.2,25.1z M14.1,24.9c0-0.2,0-0.3,0-0.5c0,0,0-0.1,0-0.1c0,0-0.1-0.1-0.1-0.1c-0.1,0-0.1,0-0.1,0.1
		c0,0,0,0.1,0,0.1c0,0.1,0.1,0.2,0.1,0.3C14,24.8,14,24.9,14.1,24.9c0,0.1,0.1,0.2,0.2,0.2c0.2,0,0.3,0,0.5-0.1c0,0,0.1,0,0.1,0
		c0,0,0.1,0,0.1-0.1c0,0,0,0-0.1,0c-0.2-0.1-0.3,0-0.5,0C14.3,24.8,14.2,24.8,14.1,24.9z M14.1,20.2c-0.1,0-0.1,0-0.2,0
		c-0.1,0-0.1,0-0.2,0c-0.1,0-0.2,0.1-0.2,0.2c0,0.2,0.1,0.3,0.1,0.5c0,0,0,0.1,0,0.1c0,0,0,0,0-0.1c0-0.1,0-0.3,0-0.4
		c0-0.1,0-0.1,0.1-0.1c0.2,0,0.5,0,0.7-0.1c0,0,0.1,0,0.1,0c0,0,0,0-0.1,0C14.4,20.2,14.2,20.2,14.1,20.2z M16.6,25
		c0.1,0,0.3,0,0.4-0.1c0,0,0.1,0,0.1-0.1c0,0,0,0-0.1-0.1c-0.1-0.1-0.3,0-0.4-0.1c-0.1,0-0.2,0-0.2,0.1C16.4,24.9,16.5,25,16.6,25
		C16.6,25,16.6,25,16.6,25z M13.9,21.5c0-0.1,0-0.1,0-0.2c0-0.1-0.1-0.1-0.1-0.1c-0.1,0-0.1,0.1-0.1,0.1c0,0.2,0,0.4,0.1,0.6
		c0,0,0,0.1,0.1,0.1c0,0,0,0,0-0.1C13.8,21.7,13.9,21.6,13.9,21.5z M15.8,24.8c-0.2,0-0.3,0-0.4,0c0,0-0.1,0.1-0.1,0.1
		c0,0,0,0.1,0.1,0.1c0.2,0,0.5,0,0.7-0.1c0,0,0.1,0,0.1,0c0,0,0,0-0.1-0.1C16,24.8,15.9,24.8,15.8,24.8z M13.9,23.9
		c0.1-0.2,0.1-0.4,0.1-0.6c0,0,0,0,0-0.1c0-0.1-0.1-0.1-0.1-0.1c-0.1,0-0.1,0.1-0.1,0.1C13.8,23.6,13.8,23.7,13.9,23.9z M16.7,20.2
		c-0.1,0-0.1,0-0.1,0c-0.2,0-0.4,0-0.6,0c-0.1,0-0.1,0-0.1,0.1c0,0.1,0.1,0.1,0.1,0.1c0.2,0,0.3,0,0.5-0.1
		C16.6,20.2,16.7,20.2,16.7,20.2z M15.6,20.2c-0.2,0-0.4,0-0.7,0c0,0-0.1,0-0.1,0.1c0,0.1,0,0.1,0.1,0.1c0.1,0,0.1,0,0.2,0
		C15.3,20.3,15.4,20.3,15.6,20.2z M13.9,22.5c0,0,0-0.1,0-0.1c0-0.1,0-0.1-0.1-0.1c-0.1,0-0.1,0-0.1,0.1c0,0.1,0,0.2,0.1,0.4
		c0,0,0,0,0,0c0,0,0,0,0,0C13.9,22.7,13.9,22.6,13.9,22.5z"/>
	<path class="st2" d="M14.5,15.5c0.4,0,0.8,0,1.1,0c0.3,0,0.6,0,1-0.1c0.1,0,0.1,0,0.1,0.1c0,0.6,0,1.1,0,1.7c0,0.4,0,0.7,0.1,1.1
		c0,0.2,0,0.2-0.2,0.2c-0.3,0-0.6,0-0.9,0c-0.1,0-0.2,0-0.3,0.1c-0.1,0.1-0.2,0.1-0.4,0.2c-0.2,0.1-0.5,0.2-0.7,0.3
		c-0.4,0.2-0.8,0.4-1.1,0.6c-0.2,0.1-0.2,0.1-0.2-0.1C13,18.7,13,17.9,13,17c0-0.1,0-0.1,0.1-0.1c0.8,0,1.5-0.1,2.3-0.1
		c0.4,0,0.7-0.1,1.1-0.2c0,0,0.1,0,0.1-0.1c-1.2,0-2.4-0.1-3.6,0.1c0,0,0,0,0,0c0.1-0.1,0.2-0.1,0.3-0.2c0.3-0.2,0.6-0.4,1-0.7
		C14.3,15.7,14.4,15.6,14.5,15.5C14.5,15.5,14.5,15.5,14.5,15.5L14.5,15.5z"/>
	<path class="st2" d="M16.3,7.2c-0.2,0-0.5-0.1-0.7-0.1c-0.8,0-1.6,0-2.4,0.1c-0.1,0-0.1,0-0.2,0c0.1-0.1,0.1-0.1,0.2-0.1
		c0.7-0.4,1.4-0.8,2-1.2c0.5-0.3,1.1-0.7,1.6-1.1c0,0,0,0,0,0c0.4,0,0.8,0,1.2-0.1c0,0,0,0,0,0c-0.1,0.2-0.3,0.3-0.4,0.5
		c-0.4,0.4-0.7,0.8-1,1.3c0,0,0,0.1-0.1,0c-0.1,0-0.1,0-0.1,0.1C16.4,6.9,16.4,7,16.3,7.2c0.1,0.4,0.1,0.8,0.1,1.3
		c0,0.1,0,0.1-0.1,0.1c-0.3,0-0.6,0-0.9,0.1c-0.2,0.1-0.4,0.1-0.6,0.2c-0.6,0.2-1.1,0.5-1.7,0.7c-0.1,0-0.1,0-0.1-0.1
		c0-0.7,0-1.3,0-2c0-0.1,0-0.1,0.1-0.1c0.3,0,0.6,0,1,0c0.6,0,1.1-0.1,1.7-0.1c0.2,0,0.3,0,0.5,0C16.2,7.3,16.2,7.3,16.3,7.2z"/>
	<path class="st2" d="M14.5,15.5c-0.2,0.1-0.4,0.2-0.6,0.3c-0.3,0.2-0.6,0.3-0.8,0.5c-0.1,0-0.1,0-0.1,0c0-1,0-1.9,0-2.9
		c0-0.1,0-0.1,0.1-0.1c0.3,0,0.6,0,0.8,0c0.6,0,1.2,0,1.8-0.1c0.3,0,0.5,0,0.8-0.1c0.1,0,0.1,0,0.2,0.1c0,0.2,0,0.5,0,0.7
		c0,0.4,0,0.8,0.1,1.2c0,0.1,0,0.1-0.1,0.1c-0.6,0-1.2,0-1.9,0c0,0,0,0-0.1,0C14.5,15.3,14.5,15.4,14.5,15.5
		C14.5,15.5,14.5,15.5,14.5,15.5z"/>
	<path class="st2" d="M12.9,10.9c0-0.2,0-0.4,0-0.6c0-0.1,0-0.1,0.1-0.1c0.3,0,0.7,0,1,0c0.4,0,0.8,0,1.1-0.1c0.4,0,0.8-0.1,1.2-0.2
		c0.1,0,0.1,0,0.1,0.1c0,0.4,0,0.8,0.1,1.3c0,0.1,0,0.3,0,0.4c0,0.1,0,0.1-0.1,0.1c-0.5,0-0.9,0-1.4,0c-0.1,0-0.1,0-0.1,0.1
		c0,0,0,0.1-0.1,0.1c-0.4,0.2-0.8,0.4-1.2,0.6c-0.2,0.1-0.4,0.2-0.6,0.4c0,0-0.1,0.1-0.1,0C13,12.2,12.9,11.5,12.9,10.9z"/>
	<path class="st2" d="M13.1,13c0.2-0.1,0.4-0.2,0.6-0.4c0.4-0.2,0.8-0.4,1.1-0.7c0.1-0.1,0.3-0.1,0.4-0.1c0.4,0,0.8-0.1,1.2-0.1
		c0.1,0,0.1,0,0.1,0.1c0,0.3,0,0.6,0,0.9c0,0.2,0,0.2-0.2,0.2c-0.2,0-0.3,0-0.5,0c-0.4,0-0.8,0-1.3,0C14.1,13,13.6,13,13.1,13z"/>
	<path class="st2" d="M13.4,19.8c0.3-0.2,0.6-0.3,0.8-0.5c0.4-0.2,0.7-0.4,1.1-0.6c0,0,0.1,0,0.2,0c0.2,0,0.4,0,0.5,0
		c0.2,0,0.4,0,0.7-0.1c0.1,0,0.1,0,0.1,0.1c0,0.3,0,0.6,0.1,1c0,0.1,0,0.1-0.1,0.1c-0.4-0.1-0.8-0.1-1.2-0.1c-0.6,0-1.1,0-1.7,0
		C13.8,19.7,13.6,19.8,13.4,19.8z"/>
	<path class="st2" d="M13.2,9.8c0.1-0.1,0.2-0.1,0.4-0.2c0.6-0.2,1.1-0.5,1.7-0.8c0.1-0.1,0.2-0.1,0.3-0.1c0.2,0,0.5,0,0.7-0.1
		c0.1,0,0.1,0,0.1,0.1c0,0.3,0,0.6,0,0.9c0,0.1,0,0.1-0.1,0.1c-0.8,0-1.6,0.1-2.4,0.1C13.7,9.8,13.4,9.8,13.2,9.8z"/>
	<path class="st1" d="M11.9,13.4c0-0.6,0-1.3,0-1.9c0-0.1,0-0.2,0.1-0.2c0.1,0,0.1,0.1,0.1,0.2c0.1,0.5,0.1,0.9,0.1,1.4
		c0,1.1,0,2.1,0,3.2c0,0.2,0,0.4,0,0.6c0,0,0,0.1,0,0.1c0,0,0-0.1,0-0.1C12,16.1,12,15.5,11.9,15C11.9,14.4,11.9,13.9,11.9,13.4z"/>
	<path class="st1" d="M9.1,4.6c-0.3,0-0.6,0-0.9,0c0.2,0.2,0.5,0.3,0.5,0.6C8.5,4.9,8.3,4.8,8,4.7c0,0,0,0-0.1,0c0,0,0,0.1,0,0.1
		C8,5.1,8,5.5,8,6c0-0.4-0.1-0.9-0.1-1.3c0,0-0.1,0-0.1,0C7.6,4.9,7.4,5.1,7.2,5.2c0,0,0,0,0,0c0,0,0,0,0,0c0,0,0.1-0.1,0.1-0.1
		C7.4,5,7.5,4.8,7.7,4.7c0,0-0.1,0-0.1,0c-0.2,0-0.4,0-0.6,0c-0.1,0-0.1,0-0.1,0c0-0.1,0.1,0,0.1,0c0.2,0,0.5,0,0.7,0c0,0,0,0,0.1,0
		c0,0-0.1-0.1-0.1-0.1C7.4,4.3,7.2,4.2,7.1,4c0,0-0.1-0.1,0-0.1c0,0,0.1,0,0.1,0c0.2,0.2,0.3,0.3,0.5,0.4c0,0,0.1,0.1,0.1,0.1
		c0-0.2,0-0.4-0.1-0.6c0-0.1,0-0.2,0-0.2c0.1,0,0,0.1,0,0.2c0,0.2,0,0.4,0.1,0.6C8.1,4.2,8.2,4,8.4,3.9C8.4,4,8.3,4,8.3,4.1
		C8.2,4.2,8.1,4.3,8,4.4c0,0-0.1,0,0,0.1c0,0,0.1,0,0.1,0c0.2,0,0.4,0,0.5,0C8.7,4.6,8.9,4.6,9.1,4.6C9.1,4.6,9.1,4.6,9.1,4.6z"/>
	<path class="st0" d="M18.2,14.2c0,0.3,0,0.7,0,1.2c0,0.1,0,0.3-0.1,0.4c0,0,0,0.1,0,0.1c0,0,0,0-0.1-0.1c-0.1-0.2-0.1-0.3-0.1-0.5
		c-0.1-0.8-0.1-1.6-0.1-2.4c0-0.4,0-0.9,0-1.3c0-0.1,0-0.1,0-0.2c0-0.1,0.1-0.1,0.1-0.1c0.1,0,0.1,0,0.1,0.1c0,0.1,0,0.3,0,0.4
		C18.1,12.6,18.2,13.3,18.2,14.2z"/>
	<path class="st0" d="M14.1,20.2c0.2,0,0.3,0,0.5,0c0,0,0.1,0,0.1,0c0,0,0,0-0.1,0c-0.2,0.1-0.5,0.1-0.7,0.1c-0.1,0-0.1,0-0.1,0.1
		c0,0.1,0,0.3,0,0.4c0,0,0,0.1,0,0.1c0,0,0,0,0-0.1c0-0.2-0.1-0.3-0.1-0.5c0-0.1,0.1-0.2,0.2-0.2c0.1,0,0.1,0,0.2,0
		C14,20.2,14,20.2,14.1,20.2z"/>
	<path class="st0" d="M14.1,24.9c0.1-0.1,0.2-0.1,0.3-0.1c0.2,0,0.3,0,0.5,0c0,0,0.1,0,0.1,0c0,0,0,0-0.1,0.1c0,0-0.1,0-0.1,0
		c-0.2,0-0.3,0-0.5,0.1C14.2,25.1,14.1,25,14.1,24.9L14.1,24.9z"/>
	<path class="st0" d="M16.6,25C16.6,25,16.6,25,16.6,25c-0.2,0-0.2-0.1-0.2-0.2c0-0.1,0.1-0.1,0.2-0.1c0.1,0,0.3,0,0.4,0.1
		c0,0,0.1,0,0.1,0.1c0,0,0,0.1-0.1,0.1C16.9,25,16.8,25,16.6,25z"/>
	<path class="st0" d="M13.9,21.5c0,0.1,0,0.3-0.1,0.4c0,0,0,0.1,0,0.1c0,0,0,0-0.1-0.1c-0.1-0.2-0.1-0.4-0.1-0.6
		c0-0.1,0-0.1,0.1-0.1c0.1,0,0.1,0.1,0.1,0.1C13.9,21.4,13.9,21.4,13.9,21.5z"/>
	<path class="st0" d="M15.8,24.8c0.1,0,0.2,0,0.3,0.1c0,0,0.1,0,0.1,0.1c0,0,0,0-0.1,0C15.9,25,15.7,25,15.4,25c0,0-0.1,0-0.1-0.1
		c0,0,0-0.1,0.1-0.1C15.5,24.8,15.6,24.8,15.8,24.8z"/>
	<path class="st0" d="M13.9,23.9c-0.1-0.2-0.1-0.4-0.2-0.6c0-0.1,0-0.1,0.1-0.1c0.1,0,0.1,0,0.1,0.1c0,0,0,0,0,0.1
		C14,23.5,14,23.7,13.9,23.9z"/>
	<path class="st0" d="M14.1,24.9c-0.1,0-0.1-0.1-0.1-0.2c0-0.1-0.1-0.2-0.1-0.3c0,0,0-0.1,0-0.1c0-0.1,0-0.1,0.1-0.1
		c0.1,0,0.1,0,0.1,0.1c0,0,0,0.1,0,0.1C14.1,24.6,14.1,24.7,14.1,24.9C14.1,24.9,14.1,24.9,14.1,24.9z"/>
	<path class="st0" d="M16.7,20.2c-0.1,0.1-0.1,0-0.2,0.1c-0.2,0-0.3,0-0.5,0.1c-0.1,0-0.1,0-0.1-0.1c0-0.1,0.1-0.1,0.1-0.1
		c0.2,0,0.4,0,0.6,0C16.6,20.1,16.7,20.1,16.7,20.2z"/>
	<path class="st0" d="M15.6,20.2c-0.2,0.1-0.3,0.1-0.5,0.1c0,0-0.1,0-0.2,0c0,0-0.1,0-0.1-0.1c0-0.1,0-0.1,0.1-0.1
		C15.2,20.2,15.4,20.1,15.6,20.2z"/>
	<path class="st0" d="M13.9,22.5c0,0.1,0,0.2,0,0.2c0,0,0,0,0,0c0,0,0,0,0,0c0-0.1-0.1-0.2-0.1-0.4c0-0.1,0-0.1,0.1-0.1
		c0.1,0,0.1,0,0.1,0.1C13.9,22.4,13.9,22.5,13.9,22.5z"/>
</g>
</svg>
