<?xml version="1.0" encoding="utf-8"?>
<!-- Generator: Adobe Illustrator 22.1.0, SVG Export Plug-In . SVG Version: 6.00 Build 0)  -->
<svg version="1.1" id="Слой_1" xmlns="http://www.w3.org/2000/svg" xmlns:xlink="http://www.w3.org/1999/xlink" x="0px" y="0px"
	 viewBox="0 0 28.3 28.3" style="enable-background:new 0 0 28.3 28.3;" xml:space="preserve">
<style type="text/css">
	.st0{fill:#575757;}
	.st1{fill:#FAD50B;}
	.st2{fill:#FEFDFB;}
</style>
<g>
	<path class="st0" d="M6.3,9c0,0,0.1-0.1,0.1-0.1c0.2-0.1,0.3-0.3,0.5-0.4C6.9,8.4,7,8.3,7,8.3c0.2-0.1,0.3-0.2,0.5-0.4
		c0.1,0,0.1-0.1,0.2-0.1c0,0,0,0,0.1,0C8,7.6,8.2,7.5,8.4,7.4c0,0,0.1,0,0.1-0.1C8.7,7.2,8.9,7.1,9.1,7c0.1,0,0.1,0,0.2-0.1
		c0.3-0.1,0.5-0.2,0.8-0.3c0.1,0,0.1,0,0.2,0c0.2-0.1,0.5-0.1,0.7-0.2c0,0,0.1,0,0.1,0c0.2,0,0.3-0.1,0.5-0.1c0,0,0.1,0,0.1,0
		c0.2,0,0.5-0.1,0.7-0.1c0,0,0.1,0,0.1,0C12.8,6,13,6,13.2,6c0,0,0.1,0,0.1,0c0.2,0,0.3,0,0.5,0C13.9,6,14,6,14,6c0.1,0,0.1,0,0.2,0
		c0,0,0.1,0,0.1,0c0.1,0,0.2,0,0.3,0c0.1,0,0.1,0,0.2,0C14.9,6,15,6,15.1,6c0,0,0.1,0,0.1,0c0.1,0,0.2,0,0.3,0c0.1,0,0.1,0,0.2,0
		c0.1,0,0.1,0,0.2,0c0,0,0.1,0,0.1,0c0.1,0,0.2,0,0.3,0.1c0.1,0,0.1,0,0.2,0c0.1,0,0.1,0,0.2,0c0,0,0.1,0,0.2,0
		c0.1,0,0.2,0.1,0.2,0.1c0,0,0.1,0,0.1,0c0.1,0,0.2,0,0.3,0.1c0,0,0.1,0,0.1,0c0.1,0,0.2,0.1,0.3,0.1c0.1,0,0.2,0.1,0.3,0.1
		c0.1,0.1,0.2,0.1,0.3,0.1c0.1,0,0.1,0,0.2,0.1c0.1,0,0.2,0.1,0.2,0.1c0.1,0,0.1,0.1,0.2,0.1C19.1,7,19.1,7,19.2,7
		c0.1,0,0.1,0.1,0.2,0.1c0,0,0.1,0,0.1,0.1c0.1,0,0.2,0.1,0.2,0.1c0.2,0.1,0.3,0.2,0.5,0.3c0,0,0.1,0.1,0.1,0.1
		c0.1,0.1,0.1,0.1,0.2,0.1c0.1,0.1,0.2,0.1,0.3,0.2c0.1,0.1,0.3,0.2,0.4,0.3c0.1,0.1,0.1,0.1,0.2,0.2c0,0,0.1,0.1,0.1,0.1
		c0.1,0.1,0.2,0.2,0.3,0.3C22,9,22.1,9.1,22.2,9.3c0,0.1,0.1,0.1,0.1,0.2c0,0.1,0.1,0.1,0.1,0.2c0.1,0.1,0.1,0.2,0.2,0.3
		c0.1,0.1,0.2,0.2,0.2,0.3c0.1,0.2,0.2,0.3,0.3,0.5c0.1,0.1,0.1,0.3,0.2,0.4c0,0.1,0,0.1,0.1,0.2c0,0.1,0,0.1,0.1,0.2
		c0,0.1,0,0.2,0.1,0.3c0,0.1,0,0.2,0.1,0.3c0,0.1,0,0.2,0.1,0.2c0,0.1,0,0.1,0,0.2c0,0.1,0,0.2,0,0.3c0,0.1,0,0.1,0,0.2
		c0,0.1,0,0.2,0,0.2c0,0.1,0,0.1,0,0.2c0,0.1,0,0.2,0,0.3c0,0.2,0,0.3-0.1,0.5c0,0.1,0,0.1-0.1,0.2c0,0.2-0.1,0.4-0.1,0.5
		c0,0.1-0.1,0.2-0.1,0.3c-0.1,0.1-0.1,0.3-0.2,0.4c0,0.1-0.1,0.1-0.1,0.2c0,0.1-0.1,0.2-0.1,0.2c-0.1,0.1-0.1,0.2-0.2,0.3
		c-0.1,0.2-0.2,0.3-0.3,0.5c-0.1,0.1-0.1,0.1-0.2,0.2c0,0-0.1,0-0.1,0.1c-0.1,0.1-0.2,0.1-0.2,0.2c-0.2,0.2-0.3,0.3-0.5,0.5
		c-0.1,0.1-0.2,0.1-0.2,0.2c-0.2,0.1-0.3,0.3-0.5,0.4c-0.1,0.1-0.2,0.1-0.3,0.2c-0.2,0.1-0.3,0.2-0.5,0.3c-0.1,0-0.1,0.1-0.2,0.1
		c-0.1,0.1-0.3,0.1-0.4,0.2c-0.1,0-0.2,0.1-0.3,0.1c-0.1,0-0.2,0.1-0.4,0.2c-0.1,0-0.1,0-0.2,0.1c-0.1,0-0.2,0.1-0.3,0.1
		c-0.1,0-0.1,0-0.2,0.1c-0.1,0-0.1,0-0.2,0.1c-0.2,0.1-0.4,0.1-0.7,0.2c-0.1,0-0.2,0-0.3,0.1c-0.1,0-0.2,0-0.4,0.1
		c-0.1,0-0.2,0-0.3,0.1c-0.3,0-0.5,0.1-0.8,0.1c-0.1,0-0.1,0-0.2,0c-0.1,0-0.3,0-0.4,0c-0.1,0-0.2,0-0.3,0c-0.2,0-0.4,0-0.7,0
		c-0.1,0-0.1,0-0.2,0c-0.1,0-0.2,0-0.2,0c-0.2,0-0.4,0-0.6,0c-0.1,0-0.2,0-0.2,0c-0.2,0-0.4-0.1-0.7-0.1c-0.1,0-0.1,0-0.2,0
		c-0.2,0-0.3-0.1-0.5-0.1c-0.1,0-0.2,0-0.2-0.1c-0.2,0-0.3-0.1-0.5-0.1c-0.1,0-0.1,0-0.2-0.1c0,0-0.1,0-0.2,0
		c-0.1,0-0.2-0.1-0.3-0.1c-0.2-0.1-0.4-0.1-0.6-0.2c-0.1,0-0.1-0.1-0.2-0.1c-0.1-0.1-0.3-0.1-0.4-0.2c-0.1,0-0.1-0.1-0.2-0.1
		c-0.2-0.1-0.5-0.2-0.7-0.4c0,0-0.1,0-0.1-0.1c-0.2-0.1-0.3-0.2-0.5-0.3c-0.1-0.1-0.1-0.1-0.2-0.1c-0.1-0.1-0.2-0.2-0.3-0.2
		c0-0.1-0.1-0.1-0.1-0.1c-0.1-0.1-0.2-0.2-0.3-0.3c-0.1-0.1-0.1-0.1-0.2-0.2c-0.1-0.1-0.2-0.2-0.3-0.4c-0.2-0.2-0.3-0.4-0.5-0.6
		c0,0,0-0.1-0.1-0.1c0-0.1-0.1-0.2-0.2-0.2c0-0.1-0.1-0.2-0.2-0.3c-0.1-0.2-0.2-0.3-0.2-0.5c0-0.1,0-0.2-0.1-0.2
		c0-0.1,0-0.1-0.1-0.2c-0.1-0.2-0.1-0.4-0.2-0.6c0-0.1,0-0.2,0-0.3c0-0.1,0-0.2,0-0.4c0,0,0-0.1,0-0.1c0-0.1,0-0.3,0-0.4
		c0-0.1,0-0.1,0-0.2c0-0.2,0-0.4,0-0.7c0-0.1,0-0.1,0-0.2c0-0.2,0.1-0.3,0.1-0.5c0-0.1,0.1-0.2,0.1-0.3c0.1-0.1,0.1-0.3,0.2-0.4
		c0-0.1,0-0.1,0.1-0.2c0-0.1,0.1-0.2,0.1-0.3c0-0.1,0.1-0.1,0.1-0.2c0.1-0.1,0.1-0.2,0.2-0.3c0.1-0.1,0.1-0.1,0.1-0.2
		c0,0,0.1-0.1,0.1-0.1c0.1-0.1,0.2-0.2,0.2-0.3C6,9.4,6.1,9.2,6.3,9z M12.8,14.6C12.8,14.6,12.8,14.6,12.8,14.6c0,0.1,0,0.1,0,0.1
		c-0.1,0.2-0.2,0.4-0.2,0.7c-0.1,0.8,0.6,1.4,1.3,1.3c0.3,0,0.7-0.1,0.9-0.3c0.5-0.3,0.8-0.6,1.2-1c0,0,0.1-0.1,0.1-0.1
		c0,0,0,0.1,0,0.1c-0.1,0.2-0.1,0.5-0.1,0.7c0,0.3,0.2,0.6,0.5,0.7c0.2,0,0.4,0,0.6-0.1c0.8-0.4,1.4-1,1.7-1.8c0-0.1,0-0.1,0.1-0.1
		c0.2,0.1,0.4,0.1,0.6,0c0.3-0.1,0.5-0.3,0.7-0.4c0.7-0.4,1.1-1.1,1.5-1.8c0,0,0-0.1,0-0.1c0,0-0.1,0-0.1,0
		c-0.1,0.1-0.2,0.2-0.3,0.3c-0.5,0.6-1.1,1-1.7,1.4c-0.2,0.1-0.4,0.2-0.6,0.2c-0.1,0-0.1,0-0.1-0.1c0-0.1,0-0.2,0-0.4
		c0-0.4-0.3-0.6-0.6-0.7c-0.3-0.1-0.6,0-0.9,0.1c-0.6,0.3-0.9,0.7-1.2,1.3c0,0.1,0,0.1-0.1,0.2c-0.4,0.3-0.8,0.7-1.2,1
		c-0.3,0.2-0.6,0.4-1,0.5c-0.2,0-0.4,0-0.5,0c-0.4-0.2-0.6-0.5-0.5-1c0-0.4,0.2-0.7,0.5-1c0,0,0.1-0.1,0.1-0.1
		c0.1-0.1,0.3-0.1,0.4-0.2c0.3-0.1,0.5-0.2,0.8-0.1c0.1,0,0.3,0.1,0.3,0.2c0,0.1,0.1,0.1,0.2,0.1c0.1,0,0.1-0.1,0.2-0.1
		c0.1-0.2,0-0.4-0.2-0.5c-0.2-0.1-0.4-0.2-0.5-0.2c-0.6,0-1,0.3-1.4,0.6c0,0-0.1,0.1-0.1,0.1c-0.6,0.3-1.1,0.7-1.6,1
		c-0.5,0.4-1,0.7-1.6,1c-0.5,0.2-1,0.3-1.5,0.2c-0.7-0.2-1.2-0.6-1.2-1.4c0-0.4,0.2-0.7,0.3-1c0.4-0.7,1-1.1,1.7-1.5
		c0.1,0,0.1,0,0.1,0c0.4,0.4,0.8,0.6,1.3,0.7c0.8,0.2,1.5,0,2.3-0.3c0.3-0.1,0.5-0.3,0.6-0.6c0.2-0.3,0.1-0.6-0.2-0.7
		c-0.1,0-0.2-0.1-0.3-0.1c-0.5-0.1-1-0.1-1.5,0c-0.7,0.1-1.4,0.3-2,0.6c-0.1,0-0.1,0-0.1,0c-0.2-0.3-0.2-0.6-0.1-0.9c0,0,0,0,0.1,0
		c0.3,0.1,0.5,0.1,0.8,0.1c1.1,0,2.2-0.2,3.3-0.5c0.6-0.2,1.1-0.4,1.6-0.8c0.2-0.1,0.3-0.3,0.4-0.5c0.1-0.2,0.1-0.4-0.1-0.6
		c-0.1-0.1-0.2-0.1-0.3-0.2c-0.4-0.2-0.9-0.3-1.4-0.3c-1.3,0-2.5,0.4-3.5,1.2c-0.6,0.4-1,1-1.2,1.6c-0.1,0.4-0.1,0.7,0.1,1
		c0,0.1,0,0.1,0,0.1c-0.4,0.2-0.7,0.4-1,0.7c-0.5,0.4-0.9,1-1.1,1.6c-0.2,0.6,0,1.4,0.7,1.8c0.5,0.3,1,0.3,1.5,0.2
		c0.5-0.1,1-0.4,1.5-0.6c0.6-0.4,1.2-0.8,1.7-1.2C12.5,14.7,12.6,14.6,12.8,14.6z"/>
	<path class="st1" d="M5.6,16.6C5.7,16.8,5.9,17,6,17.2c0.1,0.1,0.2,0.2,0.3,0.4c-0.2,0.2-0.5,0.5-0.7,0.7c-0.3,0.3-0.7,0.6-1,0.9
		c-0.3,0.2-0.6,0.4-0.9,0.7c-0.2,0.1-0.4,0.3-0.6,0.4c-0.1,0-0.1,0.1-0.2,0c-0.1-0.1-0.2-0.2-0.3-0.4c0,0-0.1-0.1,0-0.1
		c0.2-0.3,0.3-0.5,0.5-0.8c0.3-0.4,0.7-0.8,1-1.2C4.6,17.3,5,17,5.6,16.6C5.5,16.7,5.5,16.6,5.6,16.6z"/>
	<path class="st1" d="M4.5,13.3c0,0.1,0,0.3,0,0.4c-0.3,0-0.7,0.1-1,0.2c-0.5,0.1-0.9,0.3-1.3,0.5c-0.2,0.1-0.4,0.2-0.6,0.3
		c-0.4,0.3-0.8,0.5-1.1,0.8c0,0,0,0.1-0.1,0c0,0,0,0,0-0.1c-0.1-0.4-0.1-0.8-0.2-1.2c0-0.4,0-0.8,0-1.2c0-0.1,0-0.1,0.1-0.1
		c0.3,0.1,0.6,0.2,0.9,0.2c0.5,0.1,1,0.1,1.5,0.2c0.4,0,0.9,0,1.3,0C4.2,13.4,4.3,13.4,4.5,13.3C4.5,13.4,4.5,13.4,4.5,13.3z"/>
	<path class="st1" d="M21.5,17.9c0.2-0.2,0.3-0.3,0.5-0.5c0.1,0,0.1,0.1,0.2,0.1c0.6,0.6,1.3,1.2,1.9,1.8c0.3,0.3,0.5,0.6,0.8,0.9
		c0,0.1,0.1,0.1,0.1,0.2c0,0.1-0.1,0.1-0.1,0.1c-0.1,0.2-0.3,0.3-0.5,0.4c0,0-0.1,0-0.1,0c-0.2-0.2-0.5-0.4-0.7-0.5
		c-0.4-0.3-0.8-0.7-1.1-1.2c-0.3-0.4-0.6-0.8-0.9-1.2C21.5,18,21.5,18,21.5,17.9z"/>
	<path class="st1" d="M6.5,17.8c0.1,0.1,0.2,0.2,0.3,0.3c-0.2,0.2-0.4,0.5-0.6,0.8C6.1,19,6,19.1,5.9,19.3c-0.3,0.4-0.5,0.9-0.7,1.4
		C5.1,21,5,21.2,4.9,21.5c0,0,0,0.1,0,0.2c0,0.1,0,0.1-0.1,0c-0.3-0.2-0.6-0.4-0.8-0.6c-0.2-0.2-0.4-0.4-0.7-0.6
		c-0.1-0.1-0.1-0.1,0-0.1c0.3-0.1,0.6-0.3,0.8-0.5c0.3-0.2,0.6-0.4,0.9-0.6c0.2-0.1,0.3-0.3,0.5-0.4c0.2-0.2,0.5-0.4,0.7-0.7
		C6.3,18,6.4,17.9,6.5,17.8z"/>
	<path class="st1" d="M17.3,20.1c0.2-0.1,0.4-0.1,0.7-0.2c0.1,0,0.1-0.1,0.2-0.1c0.1,0.2,0.1,0.5,0.2,0.7c0.1,0.4,0.2,0.9,0.3,1.3
		c0,0.1,0,0.3,0,0.4c0,0.2,0,0.4,0.1,0.6c0,0.2,0,0.5,0,0.7c0,0.1,0,0.1-0.1,0.1c-0.1,0-0.2,0-0.3,0.1c-0.1,0-0.1,0-0.1-0.1
		c-0.2-0.3-0.3-0.7-0.4-1c-0.2-0.4-0.2-0.8-0.3-1.2c-0.1-0.3-0.1-0.6-0.2-0.9C17.2,20.6,17.2,20.4,17.3,20.1
		C17.2,20.2,17.2,20.2,17.3,20.1z"/>
	<path class="st1" d="M5.6,9.8c0,0,0,0.1-0.1,0.1C4.6,9.2,3.6,8.6,2.4,8.4c0.5-0.6,1.1-1.2,1.8-1.8c0,0.1,0,0.2,0.1,0.4
		c0.1,0.3,0.2,0.6,0.3,0.9C4.8,8.6,5.2,9.2,5.6,9.8C5.6,9.8,5.6,9.8,5.6,9.8z"/>
	<path class="st1" d="M18.3,19.8c0.1,0,0.2-0.1,0.3-0.1c0.1,0.2,0.1,0.3,0.2,0.5c0.2,0.4,0.3,0.7,0.5,1.1c0.2,0.4,0.4,0.7,0.7,1
		c0.2,0.3,0.4,0.6,0.7,0.8c0.1,0.1,0.1,0.1,0,0.1c-0.2,0.1-0.5,0.2-0.7,0.3c-0.3,0.1-0.5,0.2-0.8,0.3c-0.2,0.1-0.2,0.1-0.2-0.2
		c0-0.4,0-0.8-0.1-1.2c0-0.4-0.1-0.7-0.1-1.1c-0.1-0.3-0.1-0.7-0.2-1C18.4,20.1,18.4,20,18.3,19.8z"/>
	<path class="st1" d="M22.3,17.2C22.3,17.2,22.3,17.1,22.3,17.2c0.1-0.1,0.2,0,0.2,0c0.3,0.2,0.7,0.4,1,0.6c0.3,0.2,0.6,0.3,1,0.5
		c0.2,0.1,0.5,0.2,0.7,0.3c0.3,0.1,0.6,0.1,0.9,0.2c0.1,0,0.1,0,0.2,0c0,0,0.1,0,0.1,0c0,0,0,0.1,0,0.1c-0.1,0.1-0.1,0.2-0.2,0.3
		c-0.3,0.4-0.6,0.7-0.9,1c-0.1,0.1-0.1,0.1-0.2,0c-0.2-0.3-0.4-0.6-0.7-0.8c-0.4-0.4-0.7-0.8-1.1-1.2C23,17.9,22.7,17.6,22.3,17.2
		C22.3,17.3,22.3,17.2,22.3,17.2z"/>
	<path class="st1" d="M15.6,20.4c0.3,0,0.5-0.1,0.8-0.1c0,0,0,0,0,0.1c0,0.3,0.1,0.6,0.1,0.9c0.1,0.8,0.1,1.5,0.1,2.3
		c0,0.2,0,0.3,0,0.5c0,0.1,0,0.1-0.1,0.1c-0.1,0-0.2,0-0.3,0c-0.1,0-0.1,0-0.1-0.1c-0.1-0.2-0.2-0.5-0.3-0.7
		c-0.1-0.3-0.1-0.6-0.2-0.9c0-0.3-0.1-0.5-0.1-0.8C15.6,21.4,15.6,21,15.6,20.4C15.6,20.5,15.6,20.5,15.6,20.4z"/>
	<path class="st1" d="M4.9,15.5C5,15.7,5.1,15.9,5.2,16c-0.4,0.3-0.8,0.5-1.2,0.8c-0.5,0.3-1,0.5-1.5,0.8c-0.3,0.1-0.6,0.3-0.9,0.5
		c0,0,0,0-0.1,0c0,0-0.1,0-0.1,0c0-0.1-0.1-0.1-0.1-0.2c-0.1-0.1-0.1-0.2,0-0.3c0.2-0.2,0.4-0.3,0.6-0.5c0.3-0.2,0.5-0.4,0.8-0.6
		c0.3-0.2,0.6-0.4,1-0.5c0.3-0.1,0.6-0.3,1-0.4C4.8,15.6,4.8,15.5,4.9,15.5z"/>
	<path class="st1" d="M13.9,20.5c0.1,0,0.1,0,0.2,0c0.2,0,0.4,0,0.7,0c0,0.2,0,0.3,0,0.5c0,0.4,0,0.8-0.1,1.3c0,0.3-0.1,0.7-0.2,1
		c0,0.2-0.1,0.5-0.1,0.7c0,0.1-0.1,0.2,0,0.4c0,0.1,0,0.1-0.1,0.1c-0.1,0-0.2,0-0.3,0c-0.1,0-0.1,0-0.1-0.1
		c-0.1-0.2-0.1-0.5-0.1-0.7c0-0.5,0-0.9,0-1.4c0-0.3,0.1-0.7,0.1-1C13.9,21,13.9,20.7,13.9,20.5z"/>
	<path class="st1" d="M8.2,19c0.2,0.1,0.5,0.3,0.7,0.4c-0.1,0.2-0.2,0.3-0.3,0.5c-0.3,0.5-0.6,1.1-0.9,1.6c-0.2,0.3-0.5,0.7-0.7,1
		c-0.1,0.1-0.1,0.2-0.2,0.2c0,0.1-0.1,0.1-0.2,0c0,0-0.1-0.1-0.2-0.1c-0.1,0-0.1-0.1,0-0.1c0-0.1,0.1-0.3,0.1-0.4
		c0.1-0.3,0.2-0.6,0.3-0.9c0.1-0.3,0.3-0.6,0.4-0.9c0.2-0.4,0.5-0.8,0.8-1.2C8,19.1,8.1,19.1,8.2,19C8.1,19,8.1,19,8.2,19
		C8.1,19,8.2,19,8.2,19L8.2,19z"/>
	<path class="st1" d="M4.6,14.5c0.1,0.2,0.1,0.4,0.2,0.6c0,0.1,0,0.1,0.1,0.2c-0.1,0.1-0.2,0.1-0.3,0.1c-0.3,0.1-0.5,0.2-0.8,0.2
		c-0.4,0.1-0.7,0.3-1.1,0.5c-0.3,0.2-0.5,0.4-0.8,0.6c-0.3,0.2-0.5,0.5-0.8,0.8c0,0.1-0.1,0-0.1,0C1,17.3,0.9,17.2,0.9,17
		c-0.1-0.2-0.1-0.4-0.2-0.5c0-0.1,0-0.1-0.1-0.2c0-0.1,0-0.1,0.1-0.1c0.4,0,0.8-0.2,1.1-0.3c0.4-0.1,0.9-0.3,1.3-0.5
		c0.4-0.2,0.8-0.4,1.1-0.7C4.3,14.7,4.5,14.6,4.6,14.5C4.6,14.5,4.6,14.5,4.6,14.5z"/>
	<path class="st1" d="M20,19c0.2-0.1,0.3-0.2,0.5-0.3c0.2,0.2,0.4,0.5,0.7,0.7c0.5,0.6,0.9,1.2,1.3,1.8c0.1,0.2,0.3,0.5,0.4,0.7
		c0,0.1,0,0.1,0,0.1c-0.1,0.1-0.2,0.1-0.3,0.2c-0.1,0-0.1,0-0.1,0c-0.2-0.2-0.5-0.4-0.7-0.7c-0.2-0.2-0.4-0.4-0.6-0.7
		c-0.2-0.3-0.4-0.6-0.6-0.9C20.4,19.7,20.2,19.4,20,19C20,19.1,20,19.1,20,19z"/>
	<path class="st1" d="M4.7,11.8c0,0.2-0.1,0.3-0.1,0.5c-0.1-0.1-0.3-0.1-0.4-0.1C3.8,12.1,3.4,12,3,12c-0.3,0-0.6,0-0.9,0
		c-0.1,0-0.2,0-0.3,0c-0.3,0-0.6,0.1-0.9,0.2c-0.1,0-0.3,0.1-0.4,0.1c-0.1,0-0.1,0-0.1-0.1c0.1-0.3,0.1-0.6,0.2-0.8
		c0.1-0.2,0.1-0.4,0.2-0.6c0-0.1,0.1-0.1,0.1,0c0.3,0.2,0.6,0.3,0.9,0.4c0.3,0.1,0.6,0.2,0.9,0.2c0.3,0.1,0.6,0.2,0.9,0.2
		C4,11.7,4.3,11.8,4.7,11.8z"/>
	<path class="st1" d="M4.5,12.5c0,0.2-0.1,0.4,0,0.7c-0.1-0.1-0.1,0-0.2,0c-0.4,0-0.8,0-1.2,0c-0.3,0-0.5,0-0.8,0
		C1.8,13,1.4,13,1,12.9c-0.2,0-0.4,0-0.6-0.1c-0.1,0-0.1,0-0.1-0.1c0-0.1,0-0.2,0.1-0.2c0.2,0,0.3-0.1,0.5-0.1
		c0.8-0.2,1.6-0.2,2.3-0.2C3.7,12.3,4.1,12.4,4.5,12.5z"/>
	<path class="st1" d="M23.7,14.3c0-0.2,0-0.3,0.1-0.5c0.1,0,0.3,0,0.4,0.1c0.3,0,0.6,0.1,0.8,0.1c0.2,0,0.4,0.1,0.6,0.1
		c0.3,0.1,0.7,0.2,1,0.3c0.4,0.1,0.9,0.3,1.3,0.5c-0.2,0.1-0.3,0.1-0.5,0.2c-0.3,0.1-0.6,0.1-0.8,0.1c-0.3,0-0.7-0.1-1-0.1
		c-0.3-0.1-0.6-0.2-0.9-0.3C24.3,14.6,24,14.5,23.7,14.3z"/>
	<path class="st1" d="M10.5,20c0.1,0,0.1,0,0.2,0c-0.1,0.2-0.2,0.4-0.2,0.6c-0.1,0.2-0.1,0.5-0.2,0.7c-0.1,0.3-0.1,0.6-0.1,0.8
		c0,0.3,0,0.6,0,0.9c0,0.3,0.1,0.5,0.2,0.8c0,0,0,0.1,0,0.1c-0.2,0-0.4-0.1-0.6-0.1c-0.3-0.1-0.5-0.1-0.8-0.2
		c-0.1,0-0.2-0.1-0.3-0.1c-0.1,0-0.1-0.1,0-0.1c0.2-0.2,0.4-0.5,0.5-0.8c0.2-0.4,0.4-0.7,0.6-1.1c0.1-0.3,0.3-0.6,0.4-0.8
		C10.3,20.5,10.4,20.3,10.5,20C10.5,20,10.5,20,10.5,20z"/>
	<path class="st1" d="M23.8,12.6c0-0.1,0-0.1,0-0.2c0.3-0.1,0.6-0.1,0.8-0.2c0.2-0.1,0.5-0.1,0.7-0.2c0.4-0.1,0.7-0.3,1-0.4
		c0.3-0.2,0.7-0.4,1-0.6c0,0,0.1,0,0.1,0c0.1,0.2,0.1,0.3,0.2,0.5c0,0.2,0.1,0.3,0.1,0.5c0.1,0.2,0.1,0.4,0.1,0.6
		c0,0.1,0,0.1-0.1,0.1c-0.5-0.1-1-0.2-1.5-0.2c-0.6-0.1-1.1-0.1-1.7,0c-0.3,0-0.5,0-0.8,0.2C23.8,12.6,23.8,12.6,23.8,12.6z"/>
	<path class="st1" d="M12.2,20.4c0.2,0,0.4,0.1,0.7,0.1c0,0.2,0,0.5,0,0.7c0,0.3,0,0.6-0.1,0.9c0,0.4-0.1,0.8-0.2,1.2
		c0,0.3-0.1,0.6-0.2,0.9c0,0,0,0,0,0c-0.1,0.1-0.2,0-0.2,0c-0.1,0-0.1,0-0.1-0.1c-0.1-0.6-0.2-1.3-0.1-1.9c0-0.4,0.1-0.9,0.2-1.3
		C12.1,20.8,12.2,20.6,12.2,20.4z"/>
	<path class="st1" d="M22.5,16.9c0.1-0.2,0.2-0.3,0.3-0.5c0.2,0,0.3,0.1,0.4,0.2c0.5,0.2,1,0.5,1.6,0.7c0.5,0.2,0.9,0.4,1.4,0.7
		c0.2,0.1,0.3,0.2,0.4,0.3c0,0,0.1,0,0.1,0.1c0,0.1,0,0.2-0.2,0.1c-0.1,0-0.2,0-0.3,0c-0.2-0.1-0.5-0.1-0.7-0.2
		c-0.3-0.1-0.5-0.2-0.7-0.2c-0.3-0.1-0.6-0.3-0.9-0.4c-0.3-0.1-0.6-0.3-1-0.5C22.8,17.1,22.6,17,22.5,16.9z"/>
	<path class="st1" d="M5.3,16.3c0.1,0.1,0.1,0.2,0.2,0.2c-0.2,0.1-0.4,0.2-0.5,0.3c-0.3,0.2-0.7,0.5-1,0.8c-0.3,0.2-0.5,0.5-0.7,0.8
		c-0.3,0.3-0.5,0.7-0.7,1c0,0.1-0.1,0.1-0.1,0.2c0,0.1,0,0-0.1,0c-0.2-0.2-0.3-0.4-0.5-0.6c-0.1-0.2-0.3-0.4-0.4-0.6
		c0-0.1,0-0.1,0-0.1c0.1,0,0.2,0,0.2-0.1c0.3-0.1,0.5-0.2,0.8-0.3c0.5-0.2,1-0.5,1.5-0.7C4.5,16.9,4.9,16.7,5.3,16.3
		C5.3,16.3,5.3,16.3,5.3,16.3z"/>
	<path class="st1" d="M5.1,10.6c0,0.1-0.1,0.2-0.1,0.3c-0.4-0.2-0.8-0.3-1.2-0.4c-0.4-0.1-0.8-0.2-1.1-0.3c-0.4,0-0.8,0-1.2,0
		c-0.1,0-0.2,0-0.2,0c0,0,0,0-0.1,0c0,0,0,0,0-0.1c0.2-0.4,0.4-0.7,0.6-1.1C1.9,9.1,1.9,9,2,9c0.1,0,0.1,0.1,0.2,0.1
		c0.4,0.3,0.7,0.5,1.1,0.7c0.4,0.2,0.7,0.4,1.1,0.6C4.7,10.5,4.9,10.6,5.1,10.6z"/>
	<path class="st1" d="M23.8,13.5c0-0.1,0-0.1,0-0.2c0.5,0.1,1,0.1,1.5,0.1c0.3,0,0.5,0,0.8,0c0.4,0,0.7-0.1,1.1-0.2
		c0.2-0.1,0.4-0.1,0.6-0.2c0.1,0,0.2,0,0.2,0.1c0,0.3,0,0.6,0,0.9c0,0.2,0,0.4,0,0.6c0,0.1,0,0.1-0.1,0c-0.2-0.2-0.5-0.3-0.7-0.5
		c-0.3-0.1-0.6-0.2-0.9-0.4c-0.4-0.1-0.8-0.2-1.2-0.3C24.7,13.6,24.3,13.5,23.8,13.5C23.9,13.5,23.8,13.5,23.8,13.5z"/>
	<path class="st1" d="M7,18.2c0.1,0.1,0.2,0.2,0.3,0.2C7.3,18.7,7.1,19,7,19.3c-0.3,0.5-0.5,1-0.8,1.4c-0.3,0.4-0.5,0.7-0.8,1.1
		c0,0,0,0.1-0.1,0.1c0,0-0.1,0.1-0.1,0.1c-0.1,0-0.1-0.1-0.1-0.2c0.1-0.4,0.2-0.7,0.3-1.1c0.2-0.5,0.5-1,0.8-1.4
		c0.2-0.3,0.5-0.7,0.7-1C7,18.3,7,18.2,7,18.2z"/>
	<path class="st1" d="M6.3,9C6.1,9.2,6,9.4,5.8,9.5C5.6,9.4,5.5,9.2,5.4,9C5.2,8.7,5.1,8.4,4.9,8.1c-0.1-0.3-0.3-0.7-0.4-1
		C4.5,7,4.4,6.8,4.3,6.7c0-0.1,0-0.1,0-0.1c0.1-0.1,0.2-0.1,0.3-0.2c0,0,0.1,0,0.1,0c0.3,0.4,0.5,0.8,0.7,1.2
		c0.2,0.4,0.4,0.8,0.6,1.2C6.2,8.8,6.2,8.9,6.3,9z"/>
	<path class="st1" d="M8.4,7.4C8.2,7.5,8,7.6,7.8,7.8c0,0,0,0-0.1,0C7.6,7.6,7.6,7.3,7.5,7.1C7.3,6.7,7.2,6.4,7.1,6
		C7,5.7,6.9,5.5,6.7,5.2c0-0.1,0-0.1,0-0.1C6.9,5,7.1,5,7.2,4.9c0.1,0,0.2-0.1,0.3-0.1c0,0,0,0,0.1,0c0.1,0,0.1,0,0.1,0.1
		c0,0.2,0,0.4,0,0.6c0,0.1,0,0.2,0.1,0.4c0.1,0.4,0.2,0.7,0.3,1.1C8.3,7,8.3,7.1,8.4,7.4C8.4,7.3,8.4,7.3,8.4,7.4z"/>
	<path class="st1" d="M23.2,15.8c0.1-0.1,0.1-0.3,0.2-0.4c0.5,0.1,0.9,0.2,1.4,0.3c0.5,0.1,0.9,0.2,1.3,0.4c0.4,0.1,0.8,0.3,1.2,0.5
		c0,0,0.1,0,0.1,0.1c0,0,0,0-0.1,0c-0.4,0.1-0.9,0-1.3,0c-0.2,0-0.4,0-0.6-0.1c-0.2,0-0.4-0.1-0.6-0.2c-0.2-0.1-0.5-0.2-0.7-0.2
		c-0.2-0.1-0.5-0.2-0.7-0.3C23.3,15.8,23.2,15.8,23.2,15.8z"/>
	<path class="st1" d="M4.5,13.9c0,0.1,0,0.2,0,0.4c-0.3,0.2-0.7,0.4-1,0.6c-0.4,0.2-0.8,0.4-1.3,0.6c-0.3,0.1-0.6,0.2-0.9,0.3
		c-0.2,0.1-0.4,0.1-0.6,0.2c-0.1,0-0.2,0-0.2,0.1c0,0,0,0,0,0c0,0,0-0.1,0-0.1c0,0,0.1-0.1,0.1-0.1c0.4-0.4,0.9-0.7,1.4-1
		c0.4-0.2,0.9-0.4,1.3-0.6c0.3-0.1,0.7-0.2,1-0.3C4.4,13.9,4.5,13.8,4.5,13.9z"/>
	<path class="st1" d="M9,19.4c0.1,0.1,0.3,0.1,0.4,0.2c-0.1,0.2-0.2,0.3-0.3,0.5c-0.3,0.5-0.5,1-0.7,1.5c-0.1,0.2-0.1,0.4-0.2,0.6
		c-0.1,0.3-0.1,0.7-0.2,1c0,0.1-0.1,0.1-0.1,0.1c-0.3-0.1-0.5-0.2-0.8-0.3c0,0-0.1,0-0.1,0C7,22.9,7,22.9,7,22.8
		c0.2-0.3,0.5-0.6,0.7-0.9c0.2-0.3,0.5-0.7,0.7-1.1c0.2-0.3,0.3-0.6,0.5-0.9C8.9,19.7,9,19.6,9,19.4z"/>
	<path class="st1" d="M10.1,6.6C9.8,6.7,9.5,6.8,9.3,6.9C9.2,6.8,9.2,6.6,9.2,6.5C9.1,6.1,9,5.7,8.8,5.3C8.7,5,8.6,4.7,8.5,4.5
		c0-0.1,0-0.1,0.1-0.1c0.2-0.1,0.5-0.1,0.7-0.2c0,0,0.1,0,0.1,0c0.1,0,0.1,0,0.1,0.1c0,0.1,0,0.2,0,0.3c0,0.4,0.1,0.7,0.2,1.1
		C9.8,5.8,9.8,6,9.9,6.2c0,0.1,0.1,0.2,0.1,0.3C10,6.6,10.1,6.6,10.1,6.6z"/>
	<path class="st1" d="M9.7,19.7c0.2,0.1,0.4,0.1,0.6,0.2c-0.1,0.2-0.2,0.5-0.3,0.7c-0.3,0.7-0.7,1.4-1.1,2.1
		c-0.1,0.2-0.2,0.4-0.4,0.6c0,0,0,0.1-0.1,0.1c-0.1,0,0-0.1,0-0.1c0-0.2,0.1-0.4,0.1-0.6c0-0.3,0.1-0.5,0.2-0.8
		c0.1-0.3,0.2-0.6,0.3-0.8c0.2-0.4,0.4-0.8,0.6-1.1C9.5,19.9,9.6,19.8,9.7,19.7z"/>
	<path class="st1" d="M7.5,7.9C7.4,8.1,7.2,8.2,7,8.3C6.9,8.2,6.9,8.1,6.8,8C6.6,7.7,6.5,7.4,6.4,7C6.3,6.7,6.2,6.4,6.1,6.1
		C6,6,6,5.8,6,5.6c0-0.1,0-0.1,0.1-0.1c0.1-0.1,0.2-0.1,0.4-0.2c0.1,0,0.1,0,0.1,0C6.7,5.7,6.9,6.1,7,6.5c0.2,0.4,0.3,0.8,0.4,1.3
		C7.5,7.8,7.5,7.9,7.5,7.9z"/>
	<path class="st1" d="M20.8,18.5c0.2-0.1,0.3-0.3,0.5-0.4c0.1,0.2,0.2,0.4,0.3,0.6c0.2,0.3,0.4,0.7,0.7,1c0.2,0.3,0.5,0.5,0.7,0.7
		c0.2,0.2,0.5,0.4,0.8,0.6c0.1,0,0.1,0.1,0.2,0.1c0,0,0.1,0.1,0,0.1c-0.2,0.1-0.4,0.3-0.6,0.4c-0.1,0.1-0.1,0.1-0.2-0.1
		c-0.1-0.2-0.3-0.4-0.4-0.7c-0.2-0.3-0.4-0.7-0.6-1c-0.3-0.4-0.7-0.9-1.1-1.2C21,18.7,20.9,18.6,20.8,18.5z"/>
	<path class="st1" d="M7.5,18.6c0.2,0.1,0.3,0.2,0.5,0.3c0,0,0.1,0,0.1,0.1c0,0,0,0,0,0c0,0-0.1,0-0.1,0c0,0,0,0,0,0
		c-0.1,0-0.1,0-0.2,0c-0.2,0.2-0.4,0.4-0.5,0.6c-0.2,0.2-0.3,0.5-0.4,0.7c-0.2,0.3-0.3,0.7-0.4,1c-0.1,0.3-0.2,0.6-0.2,0.9
		c0,0,0,0,0,0c-0.1,0.2,0,0.2-0.2,0.1c-0.2-0.1-0.4-0.2-0.5-0.3c-0.1,0-0.1-0.1-0.2-0.1c0-0.1,0.1-0.1,0.1-0.1
		c0.2-0.3,0.5-0.5,0.7-0.8c0.2-0.3,0.4-0.6,0.6-0.8c0.2-0.3,0.4-0.7,0.5-1C7.4,19,7.4,18.8,7.5,18.6C7.5,18.6,7.5,18.6,7.5,18.6z"/>
	<path class="st1" d="M15,20.5c0.1,0,0.3,0,0.4,0c0,0,0,0,0,0.1c-0.1,0.7-0.1,1.4-0.1,2.1c0,0.3,0.1,0.6,0.2,0.9
		c0.1,0.3,0.2,0.5,0.3,0.7c0,0.1,0,0.1,0,0.1c-0.1,0-0.2,0-0.3,0c-0.3,0-0.6,0.1-0.8,0c-0.1,0-0.1,0-0.1-0.1c0.1-0.3,0.2-0.7,0.2-1
		c0.1-0.3,0.1-0.6,0.2-1c0-0.3,0-0.6,0.1-0.8C15.1,21.1,15,20.8,15,20.5z"/>
	<path class="st1" d="M10.9,6.4c-0.2,0.1-0.5,0.1-0.7,0.2c-0.2-0.4-0.3-0.8-0.4-1.2C9.7,5,9.7,4.6,9.6,4.1c0,0,0-0.1,0.1-0.1
		C9.8,4,10,4,10.2,3.9c0.1,0,0.1,0,0.1,0.1c0.1,0.3,0.2,0.5,0.2,0.8c0.1,0.2,0.1,0.5,0.2,0.7c0.1,0.2,0.1,0.5,0.2,0.7
		C10.9,6.3,10.9,6.3,10.9,6.4z"/>
	<path class="st1" d="M23,16.2c0-0.1,0.1-0.2,0.1-0.2c0.2,0.1,0.3,0.2,0.5,0.3c0.2,0.1,0.4,0.2,0.5,0.2c0.3,0.1,0.6,0.2,0.9,0.3
		c0.5,0.1,1,0.1,1.5,0.1c0.2,0,0.5,0,0.7-0.1c0,0,0.1,0,0.1,0c0,0,0.1-0.1,0.1,0c0,0,0,0.1,0,0.1c-0.2,0.4-0.3,0.8-0.6,1.2
		c-0.1,0.1-0.1,0.1-0.2,0c-0.1-0.1-0.3-0.2-0.4-0.3c-0.3-0.2-0.6-0.4-0.9-0.5c-0.3-0.1-0.6-0.3-0.9-0.4c-0.4-0.2-0.7-0.3-1.1-0.4
		c-0.1,0-0.2-0.1-0.3-0.1C23.1,16.2,23,16.2,23,16.2z"/>
	<path class="st1" d="M18.8,19.6c0.1-0.1,0.2-0.1,0.4-0.2c0.1,0.2,0.2,0.4,0.4,0.5c0.1,0.2,0.3,0.4,0.4,0.7c0.2,0.3,0.4,0.7,0.6,1.1
		c0.1,0.3,0.3,0.6,0.4,0.9c0,0.1,0.1,0.1,0.1,0.2c0,0,0.1,0.1,0,0.1c-0.1,0-0.1,0.1-0.2,0c-0.1-0.1-0.3-0.3-0.4-0.4
		c-0.2-0.2-0.3-0.4-0.5-0.6c-0.2-0.3-0.4-0.7-0.6-1c-0.2-0.3-0.3-0.7-0.5-1C18.8,19.8,18.8,19.7,18.8,19.6z"/>
	<path class="st1" d="M6.9,8.4C6.7,8.6,6.6,8.7,6.4,8.9C6.3,8.5,6.1,8.1,5.9,7.7C5.7,7.4,5.6,7.1,5.4,6.9C5.3,6.6,5.2,6.4,5,6.2
		c0,0-0.1-0.1,0-0.1c0.2-0.2,0.5-0.3,0.8-0.5c0.1-0.1,0.1,0,0.1,0.1c0,0.2,0.1,0.4,0.1,0.6C6,6.5,6.1,6.7,6.1,6.9
		C6.3,7.4,6.6,7.9,6.9,8.4C6.9,8.4,6.9,8.4,6.9,8.4z"/>
	<path class="st1" d="M16.6,20.3c0.1,0,0.2-0.1,0.4-0.1c0,0.1,0,0.2,0,0.3c0,0.4,0.1,0.7,0.1,1.1c0,0.2,0.1,0.5,0.1,0.7
		c0.1,0.3,0.2,0.6,0.3,0.9c0.1,0.3,0.2,0.5,0.4,0.8c0,0,0,0.1,0,0.1c-0.4,0.1-0.7,0.1-1.1,0.2c-0.1,0-0.1,0-0.1-0.1
		c0.1-0.2,0.1-0.4,0.1-0.7c0.1-0.5,0-0.9,0-1.4c0-0.5,0-0.9-0.1-1.3C16.7,20.6,16.7,20.4,16.6,20.3z"/>
	<path class="st1" d="M13.1,20.5c0.2,0,0.4,0,0.6,0c0,0.2-0.1,0.4-0.1,0.6c0,0.1,0,0.3-0.1,0.4c-0.1,0.4-0.1,0.7-0.1,1.1
		c0,0.5,0,1,0.2,1.5c0,0.1,0.1,0.2,0.1,0.2c0,0.1,0,0.1,0,0.1c-0.3,0-0.7,0-1-0.1c-0.1,0-0.1,0-0.1-0.1c0.2-0.3,0.3-0.7,0.3-1.1
		c0.1-0.3,0.1-0.7,0.2-1c0.1-0.4,0.1-0.8,0.1-1.2C13.1,20.9,13.1,20.7,13.1,20.5C13.1,20.5,13.1,20.5,13.1,20.5z"/>
	<path class="st1" d="M10.9,20.1c0.2,0,0.3,0.1,0.5,0.1c0,0.4-0.1,0.7-0.1,1.1c0,0.3-0.1,0.5-0.1,0.8c0,0.3-0.1,0.5-0.2,0.8
		c-0.1,0.2-0.1,0.5-0.1,0.7c0,0.2-0.1,0.3-0.1,0.5c-0.1-0.2-0.1-0.4-0.2-0.6c-0.1-0.4-0.1-0.7-0.1-1.1c0-0.4,0-0.7,0.1-1.1
		c0-0.3,0.1-0.5,0.2-0.7C10.8,20.4,10.8,20.3,10.9,20.1z"/>
	<path class="st1" d="M4.9,11.1c-0.1,0.1-0.1,0.3-0.2,0.4c-0.1-0.1-0.2-0.1-0.4-0.1c-0.3-0.1-0.7-0.1-1-0.2c-0.2,0-0.4-0.1-0.7-0.1
		C2.5,11,2.3,11,2.1,10.9c-0.2-0.1-0.4-0.1-0.6-0.1c-0.2,0-0.3-0.1-0.5-0.1c0,0-0.1,0-0.1,0c0,0,0-0.1,0-0.1c0,0,0.1,0,0.1,0
		c0.5-0.1,0.9-0.1,1.4,0c0.4,0.1,0.9,0.2,1.3,0.3C4.2,10.8,4.6,11,4.9,11.1z"/>
	<path class="st1" d="M9.1,7C8.9,7.1,8.7,7.2,8.5,7.3C8.4,7.1,8.4,6.9,8.3,6.8C8.2,6.4,8,6,8,5.6C7.9,5.3,7.9,5,7.9,4.7
		c0,0,0-0.1,0-0.1c0.1,0,0.2-0.1,0.3-0.1c0.1,0,0.1,0,0.1,0.1C8.5,5,8.7,5.5,8.8,6C8.9,6.2,9,6.5,9.1,6.8C9.1,6.9,9.1,6.9,9.1,7z"/>
	<path class="st1" d="M22.9,10.2c-0.1-0.1-0.2-0.2-0.2-0.3c0.1-0.1,0.2-0.2,0.3-0.3c0.3-0.3,0.6-0.6,0.9-0.9
		c0.4-0.3,0.7-0.6,1.1-0.9c0,0,0.1-0.1,0.1,0c0,0,0.1,0.1,0.1,0.1c0,0.1,0,0.2-0.1,0.2c-0.1,0.3-0.3,0.5-0.5,0.8
		c-0.2,0.3-0.5,0.6-0.8,0.8c-0.2,0.2-0.5,0.4-0.7,0.5C23.1,10.1,23,10.2,22.9,10.2z"/>
	<path class="st1" d="M19.4,19.4c0.1-0.1,0.3-0.1,0.4-0.2c0.1,0.3,0.3,0.6,0.5,0.9c0.2,0.3,0.4,0.6,0.6,0.9c0.2,0.3,0.5,0.6,0.8,0.9
		c0.2,0.2,0.3,0.3,0.5,0.5c0.1,0,0.1,0.1,0,0.1c-0.2,0.1-0.4,0.2-0.7,0.3c-0.1,0-0.1,0-0.1-0.1c-0.1-0.3-0.3-0.6-0.4-1
		c-0.2-0.4-0.4-0.8-0.6-1.1C20.1,20.2,19.8,19.8,19.4,19.4C19.4,19.4,19.4,19.4,19.4,19.4z"/>
	<path class="st1" d="M11.6,6.2c-0.2,0-0.3,0.1-0.5,0.1c-0.1-0.5-0.2-1-0.3-1.5c-0.1-0.3-0.2-0.6-0.3-0.9c0-0.1,0-0.1,0-0.1
		c0.2,0,0.5-0.1,0.7-0.1c0,0,0,0,0,0c0.2,0,0.2,0,0.2,0.2c0,0.4,0,0.7,0,1.1c0,0,0,0,0,0C11.5,5.5,11.5,5.8,11.6,6.2z"/>
	<path class="st1" d="M5.4,10.1c0,0.1-0.1,0.2-0.2,0.3c-0.1,0-0.2-0.1-0.4-0.2C4.6,10.1,4.4,10,4.1,9.9c-0.4-0.2-0.7-0.3-1-0.6
		C2.8,9.2,2.5,9,2.2,8.9c0,0-0.1,0-0.1-0.1c0-0.1,0.1-0.2,0.2-0.2c0.3,0.1,0.6,0.2,0.9,0.3c0.6,0.2,1.1,0.5,1.6,0.9
		C5,9.9,5.2,10,5.4,10.1z"/>
	<path class="st1" d="M13.2,6C13,6,12.8,6,12.5,6c0-0.2,0-0.4-0.1-0.6c-0.1-0.3-0.1-0.6-0.2-1c0-0.2-0.1-0.4-0.2-0.7
		c0-0.1,0-0.1-0.1-0.2c0-0.1,0-0.1,0-0.1c0.2,0,0.3,0,0.5,0c0,0,0.1,0,0.1,0c0.2,0,0.2,0,0.2,0.2c0,0.3,0,0.5,0,0.8
		c0,0.3,0,0.7,0.1,1C13.1,5.6,13.2,5.8,13.2,6z"/>
	<path class="st1" d="M23.5,15c0-0.2,0.1-0.4,0.1-0.5c0.1,0.1,0.3,0.2,0.4,0.3c0.3,0.2,0.7,0.3,1.1,0.5c0.6,0.2,1.2,0.3,1.8,0.2
		c0.3,0,0.6-0.1,0.8-0.2c0.1,0,0.1,0,0.1,0.1c0,0.1,0,0.2-0.1,0.3c-0.1,0.1-0.1,0.2-0.1,0.3c0,0.2-0.1,0.3-0.1,0.5
		c0,0.1,0,0.1-0.1,0c-0.2-0.1-0.5-0.3-0.7-0.4c-0.3-0.1-0.6-0.2-0.9-0.3c-0.3-0.1-0.5-0.2-0.8-0.2c-0.2-0.1-0.5-0.1-0.7-0.2
		C24.1,15.1,23.8,15.1,23.5,15z"/>
	<path class="st1" d="M11.6,20.3c0.2,0,0.3,0.1,0.5,0.1c-0.1,0.1-0.1,0.2-0.1,0.3c-0.1,0.4-0.2,0.7-0.2,1.1
		c-0.1,0.4-0.1,0.8-0.1,1.2c0,0.3,0,0.6,0.1,0.8c0,0.1,0.1,0.2,0.1,0.3c0,0.1,0,0.1-0.1,0.1c-0.3,0-0.6-0.1-0.8-0.1
		c-0.1,0,0,0,0-0.1c0.1-0.3,0.2-0.5,0.3-0.8c0.1-0.2,0.1-0.4,0.2-0.6c0.1-0.3,0.1-0.7,0.2-1c0,0,0-0.1,0-0.1
		C11.6,21.2,11.6,20.7,11.6,20.3C11.6,20.3,11.6,20.3,11.6,20.3z"/>
	<path class="st1" d="M21.3,8.3C21.1,8.2,21,8.1,20.8,8c0-0.1,0.1-0.2,0.2-0.3c0.3-0.4,0.6-0.8,0.9-1.2c0.2-0.2,0.4-0.5,0.6-0.7
		c0,0,0.1,0,0.1,0c0,0,0.1,0,0.1,0.1c0.1,0,0.1,0.1,0,0.2c-0.1,0.1-0.1,0.3-0.2,0.4c-0.1,0.2-0.2,0.4-0.2,0.5
		C22.2,7,22,7.2,21.9,7.5c-0.2,0.2-0.3,0.5-0.5,0.7C21.4,8.2,21.3,8.3,21.3,8.3z"/>
	<path class="st1" d="M12.4,6.1c-0.2,0-0.5,0.1-0.7,0.1c0-0.2,0-0.4-0.1-0.6c-0.1-0.6-0.1-1.2-0.1-1.8c0-0.2,0-0.2,0.2-0.2
		c0.2,0,0.2,0,0.3,0.2c0.1,0.4,0.2,0.9,0.3,1.3C12.3,5.4,12.4,5.8,12.4,6.1z"/>
	<path class="st1" d="M20.2,7.6c-0.2-0.1-0.3-0.2-0.5-0.3C19.9,7,20,6.8,20.2,6.5c0.2-0.5,0.6-0.9,0.9-1.3c0-0.1,0.1-0.1,0.1-0.2
		c0,0,0,0,0.1,0c0.1,0,0.1,0.1,0.2,0.1c0,0,0,0.1,0,0.1c-0.1,0.3-0.2,0.6-0.3,0.8c-0.1,0.3-0.3,0.6-0.5,0.9
		c-0.1,0.2-0.3,0.4-0.4,0.6C20.2,7.5,20.3,7.5,20.2,7.6z"/>
	<path class="st1" d="M23.4,11.1c-0.1-0.1-0.1-0.3-0.2-0.4c0.2-0.1,0.5-0.2,0.7-0.3c0.1-0.1,0.3-0.1,0.4-0.2
		c0.1-0.1,0.3-0.1,0.4-0.2c0.3-0.1,0.6-0.3,1-0.4c0.2-0.1,0.5-0.2,0.7-0.3c0,0,0.1,0,0.1,0c0,0,0,0.1,0,0.1
		c-0.3,0.2-0.5,0.4-0.8,0.6c-0.4,0.3-0.7,0.5-1.1,0.7C24.2,10.8,23.8,11,23.4,11.1C23.5,11.1,23.4,11.1,23.4,11.1z"/>
	<path class="st1" d="M13.8,6c-0.2,0-0.3,0-0.5,0c-0.1-0.4-0.1-0.7-0.1-1.1c0-0.4-0.1-0.8-0.1-1.2c0-0.2,0-0.2,0.2-0.2
		c0,0,0.1,0,0.1,0c0.2,0,0.2,0,0.3,0.2c0,0.2,0,0.4,0.1,0.7C13.8,4.9,13.8,5.4,13.8,6z"/>
	<path class="st1" d="M22.2,9.3C22.1,9.1,22,9,21.9,8.9c0,0,0-0.1,0-0.1c0.4-0.4,0.8-0.9,1.2-1.3C23.4,7.3,23.7,7,24,6.8
		c0,0,0.1-0.1,0.1-0.1c0,0,0,0.1,0,0.1c-0.1,0.2-0.2,0.4-0.4,0.6c-0.3,0.5-0.6,0.9-1,1.3C22.6,8.9,22.4,9.1,22.2,9.3
		C22.3,9.2,22.3,9.3,22.2,9.3z"/>
	<path class="st1" d="M23.7,12.1c0-0.1,0-0.2-0.1-0.3c0.2-0.1,0.4-0.2,0.7-0.2c0.4-0.1,0.7-0.3,1.1-0.4c0.4-0.2,0.9-0.3,1.3-0.5
		c0.1,0,0.3-0.1,0.4-0.2c0,0,0.1,0,0.1,0c0,0,0,0.1,0,0.1c-0.1,0.1-0.3,0.2-0.5,0.3c-0.3,0.2-0.7,0.3-1,0.5
		c-0.4,0.1-0.7,0.3-1.1,0.4c-0.2,0.1-0.5,0.1-0.7,0.2C23.8,12.1,23.7,12.1,23.7,12.1z"/>
	<path class="st1" d="M26.3,9C26.3,9,26.3,9,26.3,9c-0.7,0.2-1.3,0.5-1.8,0.7c0,0-0.1,0-0.1,0c0,0,0-0.1,0.1-0.1
		c0.4-0.4,0.8-0.8,1-1.3c0-0.1,0-0.1,0.1-0.2c0,0,0-0.1,0-0.1c0,0,0.1,0,0.1,0c0.1,0.1,0.2,0.3,0.3,0.4C26,8.6,26.1,8.7,26.3,9
		C26.3,8.9,26.3,8.9,26.3,9z"/>
	<path class="st1" d="M23.5,11.5c0-0.1-0.1-0.1-0.1-0.2c0.3-0.1,0.5-0.2,0.8-0.3c0.6-0.2,1.2-0.6,1.7-1c0.2-0.1,0.4-0.3,0.5-0.5
		c0,0,0,0,0.1-0.1c0.1-0.1,0.1-0.1,0.2,0c0.1,0.2,0.2,0.4,0.3,0.6c0,0.1,0,0.1-0.1,0.1c-0.2,0-0.4,0.1-0.6,0.1
		c-0.2,0.1-0.3,0.1-0.5,0.1c-0.2,0.1-0.5,0.2-0.7,0.2c-0.4,0.1-0.7,0.3-1.1,0.4C23.9,11.3,23.8,11.4,23.5,11.5
		C23.6,11.5,23.6,11.5,23.5,11.5z"/>
	<path class="st1" d="M21.6,8.6c0,0-0.1-0.1-0.1-0.1c0.1-0.1,0.3-0.3,0.4-0.4c0.1-0.2,0.3-0.3,0.4-0.5c0.2-0.3,0.4-0.7,0.5-1
		C22.8,6.4,22.9,6.2,23,6c0-0.1,0-0.1,0.1,0c0.2,0.2,0.5,0.3,0.7,0.5c0.1,0,0.1,0.1,0,0.1c-0.2,0.1-0.3,0.2-0.5,0.4
		c-0.2,0.1-0.4,0.3-0.6,0.5c-0.3,0.3-0.6,0.6-0.9,0.9C21.7,8.4,21.7,8.5,21.6,8.6z"/>
	<path class="st1" d="M23.8,13.1c0-0.1,0-0.1,0-0.2c0.3-0.1,0.6-0.1,0.9-0.1c0.5,0,1.1,0,1.6,0c0.3,0,0.6,0.1,0.9,0.1c0,0,0,0,0,0
		C27.1,12.9,27,13,27,13c-0.8,0.1-1.6,0.2-2.4,0.2C24.3,13.1,24.1,13.1,23.8,13.1z"/>
	<path class="st1" d="M19.5,7.2C19.5,7.2,19.4,7.1,19.5,7.2c0.1-0.3,0.2-0.6,0.3-0.9c0.1-0.4,0.2-0.7,0.3-1.1c0-0.2,0-0.3,0.1-0.5
		c0,0,0-0.1,0.1-0.1c0.2,0.1,0.5,0.2,0.7,0.3c0.1,0,0.1,0.1,0,0.1c-0.3,0.4-0.6,0.8-0.9,1.2C19.8,6.5,19.7,6.8,19.5,7.2
		C19.5,7.2,19.5,7.2,19.5,7.2z"/>
	<path class="st1" d="M17.4,6.4c-0.1,0-0.2,0-0.3-0.1c0,0,0.1,0,0.1-0.1c0-0.2,0.1-0.5,0.1-0.7c0-0.3,0.1-0.5,0.2-0.8
		c0.1-0.3,0.2-0.5,0.2-0.8c0-0.1,0.1-0.1,0.2-0.1c0.1,0,0.1,0,0.1,0.1c0,0.2,0,0.4-0.1,0.6c0,0.2-0.1,0.5-0.1,0.7
		c-0.1,0.3-0.1,0.5-0.2,0.8C17.5,6.1,17.4,6.3,17.4,6.4z"/>
	<path class="st1" d="M20.6,7.8c-0.1,0-0.2-0.1-0.2-0.1c0.2-0.2,0.3-0.4,0.5-0.7c0.3-0.4,0.5-0.8,0.7-1.3c0-0.1,0.1-0.3,0.1-0.5
		c0-0.1,0.1-0.1,0.1-0.1c0.2,0.1,0.3,0.2,0.5,0.3c0.1,0,0,0.1,0,0.1C22,5.8,21.8,6,21.6,6.2C21.2,6.7,20.8,7.2,20.6,7.8
		C20.6,7.8,20.6,7.8,20.6,7.8z"/>
	<path class="st1" d="M15.1,6C15,6,14.9,6,14.9,6c0-0.3,0-0.6,0-0.9c0-0.4,0-0.8,0.1-1.2c0-0.1,0-0.2,0-0.2c0,0,0,0,0,0
		c0,0,0.1,0,0.1,0c0.1,0.1,0.2,0,0.2,0.1c0,0.3,0,0.6,0,1c0,0.2,0,0.4-0.1,0.6C15.2,5.4,15.2,5.7,15.1,6z"/>
	<path class="st1" d="M22.5,9.6c-0.1,0-0.1-0.1-0.1-0.2c0.2-0.2,0.4-0.4,0.6-0.6c0.2-0.2,0.4-0.4,0.6-0.7C23.8,8,23.9,7.8,24,7.5
		c0.1-0.2,0.2-0.4,0.3-0.6c0-0.1,0-0.1,0.1,0c0.2,0.1,0.3,0.3,0.5,0.4c0.1,0,0.1,0.1,0,0.1c-0.6,0.4-1.2,0.8-1.7,1.3
		C22.9,9,22.7,9.3,22.5,9.6z"/>
	<path class="st1" d="M18.4,6.7c-0.1,0-0.2-0.1-0.3-0.1c0.1-0.3,0.2-0.7,0.3-1c0.1-0.3,0.2-0.6,0.2-0.9c0-0.2,0.1-0.3,0.1-0.5
		c0,0,0-0.1,0.1-0.1c0.1,0,0.1,0,0.1,0.1c0,0.3-0.1,0.6-0.1,0.9c-0.1,0.3-0.1,0.6-0.2,0.9C18.5,6.2,18.4,6.5,18.4,6.7z"/>
	<path class="st1" d="M17.8,6.5c-0.1,0-0.2,0-0.3-0.1c0.1-0.2,0.1-0.4,0.2-0.5c0.1-0.2,0.1-0.4,0.2-0.6C18,4.8,18,4.4,18,4
		c0-0.1,0-0.1,0.1-0.1C18.3,4,18.3,4,18.4,4c0.1,0,0.1,0,0.1,0.1c-0.2,0.4-0.3,0.7-0.4,1.1c-0.1,0.3-0.2,0.6-0.2,1
		C17.8,6.3,17.9,6.4,17.8,6.5z"/>
	<path class="st1" d="M15.8,6.1c-0.1,0-0.1,0-0.2,0c0-0.1,0-0.2,0.1-0.3c0-0.4,0.1-0.7,0.1-1.1c0-0.3,0.1-0.6,0.1-0.9
		c0-0.1,0.1-0.1,0.2-0.1c0.1,0,0.1,0,0.1,0.1c0,0.4-0.1,0.8-0.1,1.1c0,0.1,0,0.3-0.1,0.4C16,5.5,16,5.8,15.8,6.1z"/>
	<path class="st1" d="M18.8,6.9c-0.1,0-0.2-0.1-0.2-0.1c0.1-0.2,0.2-0.5,0.2-0.7c0.1-0.2,0.1-0.4,0.2-0.6C19,5.3,19,5.2,19.1,5
		c0-0.2,0.1-0.4,0.1-0.7c0-0.1,0-0.1,0.1-0.1c0.1,0,0.2,0.1,0.3,0.1c0,0,0.1,0,0,0.1c-0.1,0.2-0.2,0.5-0.3,0.7
		c-0.1,0.3-0.3,0.7-0.4,1.1C18.9,6.4,18.8,6.6,18.8,6.9z"/>
	<path class="st1" d="M15.5,6c-0.1,0-0.2,0-0.3,0c0.1-0.1,0.1-0.1,0.1-0.2c0.1-0.5,0.1-1,0.2-1.5c0-0.2,0-0.4-0.1-0.6
		c0-0.1,0-0.1,0.1-0.1c0.1,0,0.2,0,0.3,0c0.1,0,0.1,0,0.1,0.1c-0.1,0.4-0.2,0.7-0.2,1.1c0,0.3-0.1,0.6-0.1,0.9
		C15.5,5.8,15.5,5.9,15.5,6z"/>
	<path class="st1" d="M14.7,6c-0.1,0-0.2,0-0.3,0c0.1-0.1,0.1-0.2,0.1-0.3c0.1-0.4,0.1-0.9,0.1-1.3c0-0.2,0-0.5-0.1-0.7
		c0-0.1,0-0.1,0.1-0.1c0.1,0,0.2,0,0.3,0c0.1,0,0.1,0,0.1,0.1c0,0.2-0.1,0.3-0.1,0.5c0,0.1,0,0.2-0.1,0.4c0,0.2-0.1,0.4-0.1,0.6
		c0,0.2-0.1,0.4,0,0.6C14.7,5.7,14.7,5.8,14.7,6z"/>
	<path class="st1" d="M16.2,6.1c-0.1,0-0.2,0-0.3-0.1C16,6,16.1,5.8,16.1,5.7c0.1-0.4,0.1-0.8,0.2-1.2c0-0.3,0-0.5,0-0.8
		c0-0.1,0-0.1,0.1-0.1c0.1,0,0.2,0,0.3,0c0.1,0,0.1,0,0.1,0.1c-0.1,0.2-0.1,0.3-0.2,0.5c-0.1,0.3-0.1,0.5-0.2,0.8
		c0,0.2-0.1,0.4-0.1,0.6C16.3,5.8,16.2,6,16.2,6.1z"/>
	<path class="st1" d="M17,6.3c-0.1,0-0.2,0-0.2-0.1c0.1-0.2,0.2-0.5,0.2-0.7C17,5.2,17,4.9,17.1,4.7c0-0.3,0-0.6,0-0.8
		c0-0.1,0-0.1,0.1-0.1c0.1,0,0.2,0,0.3,0c0.1,0,0.1,0,0.1,0.1c-0.1,0.4-0.2,0.7-0.3,1.1C17.1,5.4,17,5.8,17,6.2
		C17,6.2,17,6.2,17,6.3z"/>
	<path class="st1" d="M16.6,6.2c-0.1,0-0.1,0-0.2,0c0-0.1,0-0.2,0.1-0.3c0-0.2,0-0.3,0.1-0.5c0.1-0.3,0.1-0.6,0.1-0.9
		c0-0.2,0.1-0.4,0.1-0.6c0,0,0-0.1,0-0.1c0,0,0-0.1,0.1,0c0,0,0.1,0,0.1,0.1c0,0.4,0,0.8-0.1,1.3c-0.1,0.3-0.1,0.6-0.2,0.9
		C16.6,6,16.6,6.1,16.6,6.2z"/>
	<path class="st1" d="M14.3,6c-0.1,0-0.1,0-0.2,0c0-0.2,0-0.3,0-0.5c0-0.5,0-1,0.1-1.5c0-0.1,0-0.3,0-0.4c0,0,0-0.1,0.1-0.1
		c0,0,0.1,0,0.1,0.1c0,0,0,0.1,0,0.1c0,0.6,0,1.1,0,1.7C14.3,5.6,14.3,5.8,14.3,6z"/>
	<path class="st1" d="M19.2,7c-0.1,0-0.1,0-0.2-0.1c0.2-0.4,0.3-0.9,0.5-1.4c0.1-0.4,0.3-0.7,0.4-1.1c0,0,0-0.1,0.1-0.1
		c0,0,0,0,0,0.1c0,0.2-0.1,0.4-0.1,0.7c-0.1,0.2-0.1,0.5-0.2,0.7c-0.1,0.2-0.2,0.5-0.2,0.7C19.3,6.7,19.3,6.9,19.2,7
		C19.3,7,19.3,7,19.2,7z"/>
	<path class="st1" d="M13.9,4.8c-0.1-0.3,0-0.7-0.1-1.1c0,0,0,0,0,0c0-0.1,0-0.2,0-0.2c0.1,0,0.2,0,0.3,0c0,0,0,0,0,0.1
		C14,3.8,14,4.1,13.9,4.3c0,0.1,0,0.2,0,0.3C13.9,4.6,13.9,4.7,13.9,4.8z"/>
	<path class="st1" d="M24.3,9.7C24.3,9.7,24.3,9.7,24.3,9.7C24.3,9.7,24.3,9.7,24.3,9.7C24.3,9.7,24.3,9.7,24.3,9.7
		C24.4,9.7,24.3,9.7,24.3,9.7z"/>
	<path class="st2" d="M12.8,14.6c-0.2,0.1-0.3,0.2-0.4,0.3c-0.6,0.4-1.2,0.8-1.7,1.2c-0.5,0.3-0.9,0.5-1.5,0.6
		c-0.5,0.1-1,0.1-1.5-0.2c-0.7-0.4-0.9-1.3-0.7-1.8c0.2-0.7,0.6-1.2,1.1-1.6c0.3-0.3,0.7-0.5,1-0.7c0.1,0,0.1-0.1,0-0.1
		c-0.2-0.3-0.2-0.7-0.1-1c0.2-0.7,0.7-1.2,1.2-1.6c1-0.8,2.2-1.2,3.5-1.2c0.5,0,0.9,0.1,1.4,0.3c0.1,0,0.2,0.1,0.3,0.2
		c0.2,0.2,0.2,0.4,0.1,0.6c-0.1,0.2-0.2,0.4-0.4,0.5c-0.5,0.4-1,0.7-1.6,0.8c-1.1,0.3-2.2,0.5-3.3,0.5c-0.3,0-0.5,0-0.8-0.1
		c0,0-0.1,0-0.1,0C9.1,11.4,9,11.7,9.3,12c0,0.1,0.1,0.1,0.1,0c0.7-0.3,1.3-0.5,2-0.6c0.5-0.1,1-0.1,1.5,0c0.1,0,0.2,0.1,0.3,0.1
		c0.3,0.1,0.4,0.4,0.2,0.7c-0.1,0.3-0.3,0.4-0.6,0.6c-0.7,0.3-1.5,0.5-2.3,0.3c-0.5-0.1-0.9-0.3-1.3-0.7c0,0-0.1-0.1-0.1,0
		c-0.7,0.4-1.3,0.8-1.7,1.5c-0.2,0.3-0.3,0.6-0.3,1c0,0.8,0.5,1.3,1.2,1.4c0.5,0.1,1,0,1.5-0.2c0.6-0.3,1.1-0.6,1.6-1
		c0.5-0.4,1-0.8,1.6-1c0.1,0,0.1-0.1,0.1-0.1c0.4-0.4,0.9-0.6,1.4-0.6c0.2,0,0.4,0.1,0.5,0.2c0.2,0.1,0.3,0.3,0.2,0.5
		c0,0.1-0.1,0.1-0.2,0.1c-0.1,0-0.1,0-0.2-0.1c-0.1-0.2-0.2-0.2-0.3-0.2c-0.3,0-0.5,0-0.8,0.1c-0.1,0.1-0.3,0.1-0.4,0.2
		c0,0-0.1,0-0.1,0.1c-0.3,0.3-0.4,0.6-0.5,1c-0.1,0.5,0.1,0.8,0.5,1c0.2,0.1,0.4,0.1,0.5,0c0.4-0.1,0.7-0.3,1-0.5
		c0.4-0.3,0.8-0.7,1.2-1c0,0,0.1-0.1,0.1-0.2c0.2-0.6,0.6-1,1.2-1.3c0.3-0.1,0.6-0.2,0.9-0.1c0.4,0.1,0.6,0.3,0.6,0.7
		c0,0.1,0,0.2,0,0.4c0,0.1,0,0.1,0.1,0.1c0.2,0,0.4-0.1,0.6-0.2c0.7-0.4,1.2-0.8,1.7-1.4c0.1-0.1,0.2-0.2,0.3-0.3c0,0,0-0.1,0.1,0
		c0,0,0,0.1,0,0.1c-0.3,0.7-0.8,1.4-1.5,1.8c-0.2,0.1-0.5,0.3-0.7,0.4c-0.2,0.1-0.4,0.1-0.6,0c-0.1,0-0.1,0-0.1,0.1
		c-0.3,0.8-1,1.4-1.7,1.8c-0.2,0.1-0.4,0.1-0.6,0.1c-0.3-0.1-0.5-0.3-0.5-0.7c0-0.2,0-0.5,0.1-0.7c0,0,0-0.1,0-0.1
		c0,0-0.1,0-0.1,0.1c-0.4,0.4-0.8,0.7-1.2,1c-0.3,0.2-0.6,0.3-0.9,0.3c-0.7,0.1-1.3-0.5-1.3-1.3c0-0.2,0.1-0.5,0.2-0.7
		C12.7,14.7,12.8,14.6,12.8,14.6C12.8,14.6,12.8,14.6,12.8,14.6z M10.2,11c1,0,2.1-0.2,3.1-0.5c0.4-0.1,0.8-0.3,1.2-0.6
		c0.2-0.1,0.4-0.3,0.5-0.5c0.1-0.2,0.1-0.4-0.1-0.5c-0.1,0-0.1-0.1-0.2-0.1c-0.4-0.2-0.8-0.2-1.2-0.2c-1.3,0-2.4,0.4-3.4,1.2
		c-0.4,0.3-0.7,0.6-0.9,1.1c-0.1,0.1-0.1,0.1,0.1,0.2C9.6,11,9.9,11,10.2,11z M18.1,13.5c-0.1,0-0.3,0-0.4,0.1c-0.1,0-0.2,0-0.1,0.1
		c0,0,0,0.1,0,0.2c0,0.1-0.1,0.1-0.1,0.1c-0.2,0.2-0.5,0.4-0.7,0.6c0,0-0.1,0.1-0.1,0.1c-0.1,0.1-0.1,0.3-0.2,0.4
		c-0.1,0.3,0.1,0.8,0.4,0.9c0.1,0.1,0.2,0.1,0.3,0c0.2-0.1,0.4-0.2,0.5-0.4c0.4-0.3,0.7-0.7,0.9-1.2c0-0.1,0-0.1,0-0.1
		c-0.1-0.2,0-0.4,0-0.5c0.1-0.1,0-0.2-0.1-0.3C18.4,13.5,18.2,13.5,18.1,13.5z M12.2,11.7c-1,0-1.8,0.2-2.6,0.5
		c-0.1,0-0.1,0.1,0,0.1c0.4,0.3,0.8,0.5,1.3,0.5c0.6,0.1,1.2-0.1,1.8-0.3c0.2-0.1,0.4-0.2,0.5-0.4c0.1-0.2,0.1-0.3-0.1-0.4
		c0,0,0,0,0,0C12.7,11.7,12.4,11.7,12.2,11.7z M16.8,16.5c-0.2-0.1-0.3-0.2-0.4-0.4C16.3,16.4,16.5,16.5,16.8,16.5z"/>
	<path class="st2" d="M8.1,19C8.1,18.9,8.1,19,8.1,19C8.2,19,8.1,19,8.1,19z"/>
	<path class="st0" d="M10.2,11c-0.3,0-0.5,0-0.8,0c-0.1,0-0.1,0-0.1-0.2c0.2-0.4,0.5-0.8,0.9-1.1c1-0.8,2.1-1.2,3.4-1.2
		c0.4,0,0.8,0.1,1.2,0.2c0.1,0,0.1,0.1,0.2,0.1c0.2,0.1,0.2,0.3,0.1,0.5c-0.1,0.2-0.3,0.4-0.5,0.5c-0.4,0.3-0.8,0.5-1.2,0.6
		C12.2,10.7,11.2,10.9,10.2,11z"/>
	<path class="st0" d="M18.1,13.5c0.2,0,0.3,0,0.4,0.1c0.1,0.1,0.1,0.2,0.1,0.3c-0.1,0.2-0.1,0.4,0,0.5c0,0.1,0,0.1,0,0.1
		c-0.2,0.5-0.5,0.9-0.9,1.2c-0.2,0.1-0.3,0.3-0.5,0.4c-0.1,0.1-0.2,0-0.3,0c-0.3-0.2-0.5-0.6-0.4-0.9c0.1-0.1,0.1-0.3,0.2-0.4
		c0-0.1,0.1-0.1,0.1-0.1c0.2-0.2,0.5-0.4,0.7-0.6c0,0,0.1-0.1,0.1-0.1c0-0.1,0-0.1,0-0.2c-0.1-0.1,0-0.1,0.1-0.1
		C17.8,13.5,17.9,13.5,18.1,13.5z"/>
	<path class="st0" d="M12.2,11.7c0.2,0,0.5,0,0.8,0.1c0,0,0,0,0,0c0.2,0.1,0.2,0.2,0.1,0.4c-0.1,0.2-0.3,0.3-0.5,0.4
		c-0.6,0.2-1.2,0.4-1.8,0.3c-0.5-0.1-0.9-0.2-1.3-0.5c-0.1,0-0.1-0.1,0-0.1C10.4,11.9,11.2,11.7,12.2,11.7z"/>
	<path class="st0" d="M16.8,16.5c-0.3,0.1-0.4-0.1-0.4-0.4C16.5,16.2,16.6,16.4,16.8,16.5z"/>
</g>
</svg>
