<?xml version="1.0" encoding="utf-8"?>
<!-- Generator: Adobe Illustrator 22.1.0, SVG Export Plug-In . SVG Version: 6.00 Build 0)  -->
<svg version="1.1" id="Слой_1" xmlns="http://www.w3.org/2000/svg" xmlns:xlink="http://www.w3.org/1999/xlink" x="0px" y="0px"
	 viewBox="0 0 28.3 28.3" style="enable-background:new 0 0 28.3 28.3;" xml:space="preserve">
<style type="text/css">
	.st0{fill:#585757;}
	.st1{fill:#FBD405;}
	.st2{fill:#FEFEFE;}
</style>
<g>
	<path class="st0" d="M13.9,0.5c0.9,0,2.1,0.1,3.4,0.1c0.1,0,0.1,0,0.1,0.1c0,0.1,0,0.2,0,0.2c0,0.1,0,0.1-0.1,0.1
		c-0.4,0-0.7,0.1-1.1,0.1c-0.6,0-1.1,0.1-1.7,0.2c-0.1,0-0.1,0.1-0.1,0.1c0,0.8,0.1,1.6,0.1,2.4c0.1,1.2,0.1,2.3,0.1,3.5
		c0,0.8,0,1.5,0,2.3c0,0.1,0,0.1,0.1,0.1c0.9-0.2,1.8,0,2.5,0.6c0.5,0.4,0.9,1,1.2,1.6c0.5,1,0.7,2.1,0.8,3.1c0.2,1.8,0,3.5-0.5,5.3
		c-0.1,0.2-0.1,0.4-0.1,0.6c0,0.1,0,0.1,0.1,0.1c0.4,0.1,0.7,0.1,1.1,0.2c0.1,0,0.1,0,0.1-0.1c0.2-0.9,0.5-1.7,0.9-2.6
		c0.5-1,1.2-1.9,2.1-2.6c0.4-0.3,0.9-0.6,1.5-0.6c0.8-0.1,1.4,0.2,1.9,0.9c0.4,0.5,0.7,1.2,0.8,1.8c0.1,0.5,0.2,0.9,0.2,1.4
		c0,0.4,0,0.7-0.1,1.1c-0.1,0.9-0.3,1.8-0.6,2.7c-0.4,1.2-1,2.3-1.8,3.3c-0.4,0.5-1,1-1.6,1.2c-0.7,0.3-1.4,0.3-2,0
		c-0.5-0.3-0.8-0.6-1-1.1c-0.4-0.7-0.6-1.4-0.6-2.2c-0.1-0.9,0-1.7,0.1-2.6c0-0.1,0-0.1-0.1-0.1c-0.4-0.1-0.7-0.1-1.1-0.2
		c-0.1,0-0.1,0-0.2,0.1c-0.3,0.7-0.6,1.4-1,2c-0.5,0.7-1,1.2-1.7,1.6c-0.7,0.4-1.4,0.5-2.1,0.3c-0.5-0.2-1-0.5-1.4-0.9
		c-0.6-0.6-0.9-1.3-1.2-2c-0.2-0.6-0.4-1.2-0.5-1.9c0-0.1,0-0.1-0.1-0.1c-0.4,0-0.9,0-1.3,0c-0.1,0-0.1,0-0.1,0.1
		c0.2,0.5,0.3,1.1,0.4,1.6c0.1,1,0.1,1.9-0.1,2.9c-0.2,0.7-0.4,1.3-0.9,1.8c-0.7,0.6-1.4,0.8-2.3,0.5c-0.7-0.2-1.2-0.6-1.7-1.1
		c-0.8-0.8-1.4-1.7-1.8-2.7C2.1,23,1.8,22,1.6,21c-0.1-0.6-0.2-1.2-0.2-1.7c0-1,0.1-1.9,0.6-2.8c0.3-0.5,0.7-1,1.3-1.1
		c0.5-0.2,1.1-0.1,1.6,0.1c0.7,0.3,1.3,0.7,1.8,1.3c0.7,0.8,1.2,1.6,1.7,2.6c0.1,0.3,0.2,0.6,0.3,0.8c0,0.1,0,0.1,0.1,0.1
		c0.5,0,0.9-0.1,1.4-0.1c0.1,0,0.1,0,0.1-0.1c-0.1-1.3-0.1-2.7,0.2-4c0.2-1.1,0.5-2.2,1-3.2c0.4-0.8,0.8-1.5,1.4-2.1
		c0.4-0.4,0.8-0.7,1.3-1c0,0,0.1,0,0.1-0.1c-0.1-0.6-0.1-1.2-0.1-1.7c-0.1-1.8-0.2-3.6-0.2-5.4c0-0.4,0-0.7,0-1.1
		c0-0.1,0-0.1-0.1-0.1c-1.2,0.1-2.5,0.2-3.7,0.4c0,0-0.1,0-0.1,0c-0.2,0-0.2,0-0.2-0.2c0-0.3,0-0.6,0-1c0-0.1,0-0.1,0.1-0.1
		C11.2,0.4,12.4,0.4,13.9,0.5z M12.2,20.6c0,0.3,0,0.7,0.1,1.1c0.1,0.4,0.1,0.7,0.3,1c0.3,0.5,0.7,0.6,1.2,0.3
		c0.4-0.2,0.7-0.6,1-0.9c0.4-0.6,0.7-1.2,1-1.8c0.2-0.4,0.3-0.8,0.5-1.2c0.2-0.5,0.3-1,0.5-1.5c0.2-0.6,0.3-1.2,0.4-1.8
		c0.1-0.4,0.1-0.8,0.2-1.3c0.1-0.5,0.1-1,0.1-1.5c0-0.6,0-1.2-0.2-1.8c-0.1-0.3-0.2-0.5-0.4-0.7c-0.2-0.2-0.5-0.3-0.7-0.2
		c-0.3,0.1-0.5,0.3-0.7,0.5c-0.3,0.3-0.5,0.6-0.7,1c-0.3,0.6-0.7,1.1-0.9,1.7c-0.3,0.7-0.5,1.4-0.8,2.1c-0.1,0.4-0.2,0.8-0.3,1.2
		c-0.1,0.6-0.2,1.1-0.3,1.7C12.3,19,12.2,19.8,12.2,20.6z M8.3,24.3c0-0.2,0-0.5,0-0.8C8.2,23,8.1,22.5,8,21.9
		c-0.1-0.5-0.2-1.1-0.4-1.6c-0.2-0.6-0.3-1.1-0.6-1.6c-0.3-0.6-0.6-1.3-1-1.8c-0.2-0.3-0.4-0.6-0.7-0.7c-0.3-0.1-0.5-0.1-0.7,0.2
		c-0.1,0.2-0.2,0.5-0.2,0.7c-0.1,0.5-0.1,1.1,0,1.6c0.1,0.6,0.2,1.2,0.3,1.8c0.1,0.5,0.2,0.9,0.3,1.4c0.1,0.4,0.3,0.9,0.4,1.3
		c0.3,0.8,0.7,1.7,1.2,2.4C6.8,25.7,7,26,7.3,26.1C7.5,26.3,7.8,26.2,8,26c0.1-0.2,0.2-0.4,0.2-0.6C8.2,25.1,8.3,24.7,8.3,24.3z
		 M24.9,18.5c0-0.3,0-0.6-0.1-0.8c0-0.1-0.1-0.2-0.1-0.3c-0.1-0.4-0.5-0.5-0.9-0.3c-0.3,0.2-0.5,0.5-0.7,0.8c-0.3,0.5-0.6,1-0.8,1.6
		c-0.2,0.5-0.4,1.1-0.6,1.7c-0.2,0.7-0.3,1.4-0.4,2c0,0.4,0,0.7,0,1.1c0,0.3,0.1,0.5,0.2,0.7c0.1,0.2,0.4,0.3,0.6,0.2
		c0.3-0.1,0.5-0.3,0.7-0.6c0.4-0.4,0.6-0.9,0.9-1.5c0.2-0.5,0.4-0.9,0.5-1.4c0.2-0.5,0.3-1.1,0.4-1.6C24.8,19.6,24.9,19.1,24.9,18.5
		z"/>
	<path class="st1" d="M12.2,20.6c0-0.8,0.1-1.5,0.2-2.2c0.1-0.6,0.2-1.1,0.3-1.7c0.1-0.4,0.2-0.8,0.3-1.2c0.2-0.7,0.5-1.4,0.8-2.1
		c0.3-0.6,0.6-1.2,0.9-1.7c0.2-0.3,0.4-0.7,0.7-1c0.2-0.2,0.4-0.4,0.7-0.5c0.2-0.1,0.5,0,0.7,0.2c0.2,0.2,0.3,0.5,0.4,0.7
		c0.2,0.6,0.2,1.2,0.2,1.8c0,0.5-0.1,1-0.1,1.5c-0.1,0.4-0.1,0.8-0.2,1.3c-0.1,0.6-0.3,1.2-0.4,1.8c-0.1,0.5-0.3,1-0.5,1.5
		c-0.2,0.4-0.3,0.8-0.5,1.2c-0.3,0.6-0.6,1.2-1,1.8c-0.3,0.4-0.6,0.7-1,0.9c-0.5,0.3-0.9,0.2-1.2-0.3c-0.2-0.3-0.3-0.7-0.3-1
		C12.2,21.2,12.2,20.9,12.2,20.6z M16.3,11.2c0-0.1-0.1-0.3-0.2-0.2c-0.1,0-0.2,0.1-0.3,0.2c-0.1,0.1-0.3,0.3-0.4,0.5
		c-0.3,0.4-0.5,0.8-0.7,1.3c-0.1,0.3-0.3,0.6-0.4,0.9c-0.1,0.3-0.2,0.6-0.3,0.9c-0.1,0.3-0.2,0.6-0.2,0.9c-0.1,0.3-0.1,0.6-0.2,0.8
		c0,0.2-0.1,0.5-0.1,0.7c0,0.1,0,0.2,0,0.3c0,0,0,0.1,0,0.1c0,0,0,0,0.1,0c0.1-0.1,0.1-0.3,0.2-0.5c0.2-0.4,0.3-0.8,0.4-1.2
		c0.2-0.5,0.3-0.9,0.5-1.4c0.2-0.4,0.3-0.8,0.5-1.2c0.2-0.5,0.4-0.9,0.6-1.4c0.1-0.2,0.3-0.4,0.4-0.6C16.3,11.2,16.3,11.2,16.3,11.2
		z"/>
	<path class="st1" d="M8.3,24.3c0,0.4,0,0.7-0.1,1.1c0,0.2-0.1,0.4-0.2,0.6c-0.2,0.3-0.5,0.3-0.7,0.2C7,26,6.8,25.7,6.6,25.5
		c-0.5-0.7-0.9-1.6-1.2-2.4c-0.2-0.4-0.3-0.9-0.4-1.3c-0.1-0.5-0.2-0.9-0.3-1.4c-0.1-0.6-0.2-1.2-0.3-1.8c-0.1-0.5-0.1-1.1,0-1.6
		c0-0.3,0.1-0.5,0.2-0.7c0.2-0.2,0.4-0.3,0.7-0.2c0.3,0.2,0.5,0.4,0.7,0.7c0.4,0.6,0.7,1.2,1,1.8c0.2,0.5,0.4,1.1,0.6,1.6
		c0.2,0.5,0.3,1.1,0.4,1.6c0.1,0.6,0.2,1.1,0.3,1.7C8.2,23.8,8.3,24.1,8.3,24.3z M7.1,24.6c0,0,0-0.1,0-0.1C7.1,24.2,7,24,6.9,23.8
		c-0.2-0.4-0.3-0.9-0.5-1.3c-0.1-0.3-0.2-0.6-0.3-0.9C6.1,21.3,6,21.1,6,20.9c0-0.1-0.1-0.3-0.1-0.4c0-0.2-0.1-0.4-0.1-0.6
		c0,0,0-0.1-0.1-0.1c-0.1,0-0.1,0.1-0.1,0.1c0,0,0,0,0,0.1c0,0.2,0,0.5,0.1,0.7c0,0.2,0.1,0.4,0.1,0.6c0,0.2,0.1,0.4,0.1,0.5
		C5.9,22,6,22.3,6.1,22.5c0.2,0.5,0.4,0.9,0.6,1.3C6.9,24.1,7,24.3,7.1,24.6z"/>
	<path class="st1" d="M24.9,18.5c0,0.6-0.1,1.1-0.2,1.7c-0.1,0.5-0.2,1.1-0.4,1.6c-0.2,0.5-0.3,0.9-0.5,1.4c-0.2,0.5-0.5,1-0.9,1.5
		c-0.2,0.2-0.4,0.5-0.7,0.6c-0.3,0.1-0.5,0-0.6-0.2c-0.1-0.2-0.2-0.5-0.2-0.7c0-0.4,0-0.7,0-1.1c0.1-0.7,0.2-1.4,0.4-2
		c0.2-0.6,0.3-1.1,0.6-1.7c0.2-0.5,0.5-1.1,0.8-1.6c0.2-0.3,0.4-0.6,0.7-0.8c0.4-0.2,0.7-0.1,0.9,0.3c0,0.1,0.1,0.2,0.1,0.3
		C24.8,18,24.9,18.2,24.9,18.5z M24.4,19.1c0-0.1,0-0.2,0-0.2c0-0.2,0-0.4-0.2-0.5c-0.1-0.1-0.2-0.1-0.2,0c0,0,0,0.1,0,0.1
		c0,0.3,0.1,0.6,0,0.9c0,0.3-0.1,0.5-0.2,0.8c-0.1,0.3-0.2,0.5-0.2,0.8c-0.1,0.3-0.2,0.6-0.3,0.9c0,0.1-0.1,0.2-0.2,0.3
		c0,0,0,0.1,0,0.1c0,0,0.1,0,0.1,0c0-0.1,0.1-0.1,0.1-0.1c0.2-0.3,0.4-0.5,0.5-0.8c0.2-0.4,0.3-0.7,0.4-1.2
		C24.3,19.8,24.4,19.5,24.4,19.1z"/>
	<path class="st2" d="M16.3,11.2c0,0,0,0.1-0.1,0.1c-0.2,0.2-0.3,0.4-0.4,0.6c-0.2,0.4-0.4,0.9-0.6,1.4c-0.2,0.4-0.3,0.8-0.5,1.2
		c-0.2,0.5-0.3,0.9-0.5,1.4c-0.2,0.4-0.3,0.8-0.4,1.2c-0.1,0.2-0.1,0.3-0.2,0.5c0,0,0,0.1-0.1,0c0,0,0,0,0-0.1c0-0.1,0-0.2,0-0.3
		c0-0.2,0.1-0.5,0.1-0.7c0-0.3,0.1-0.6,0.2-0.8c0.1-0.3,0.1-0.6,0.2-0.9c0.1-0.3,0.2-0.6,0.3-0.9c0.1-0.3,0.2-0.6,0.4-0.9
		c0.2-0.4,0.4-0.9,0.7-1.3c0.1-0.2,0.2-0.3,0.4-0.5C15.9,11,16,11,16.1,11C16.2,10.9,16.3,11,16.3,11.2z"/>
	<path class="st2" d="M7.1,24.6c-0.2-0.2-0.3-0.5-0.4-0.7c-0.2-0.4-0.4-0.9-0.6-1.3C6,22.3,5.9,22,5.9,21.7c0-0.2-0.1-0.4-0.1-0.5
		c0-0.2-0.1-0.4-0.1-0.6c0-0.2-0.1-0.4-0.1-0.7c0,0,0,0,0-0.1c0-0.1,0-0.1,0.1-0.1c0.1,0,0.1,0.1,0.1,0.1c0,0.2,0.1,0.4,0.1,0.6
		c0,0.1,0.1,0.3,0.1,0.4c0.1,0.2,0.1,0.4,0.2,0.7c0.1,0.3,0.2,0.6,0.3,0.9c0.2,0.4,0.3,0.9,0.5,1.3C7,24,7.1,24.2,7.1,24.4
		C7.1,24.5,7.1,24.5,7.1,24.6z"/>
	<path class="st2" d="M24.4,19.1c0,0.4-0.1,0.7-0.2,1.1c-0.1,0.4-0.3,0.8-0.4,1.2c-0.2,0.3-0.3,0.6-0.5,0.8c0,0.1-0.1,0.1-0.1,0.1
		c0,0,0,0.1-0.1,0c0,0,0-0.1,0-0.1c0.1-0.1,0.1-0.2,0.2-0.3c0.1-0.3,0.2-0.6,0.3-0.9c0.1-0.3,0.2-0.5,0.2-0.8
		c0.1-0.3,0.1-0.5,0.2-0.8c0.1-0.3,0-0.6,0-0.9c0,0,0-0.1,0-0.1c0.1-0.1,0.2-0.1,0.2,0c0.1,0.1,0.1,0.3,0.2,0.5
		C24.4,18.9,24.4,19,24.4,19.1z"/>
</g>
</svg>
